%TF.GenerationSoftware,KiCad,Pcbnew,10.0.6*%
%TF.CreationDate,2026-09-25T17:58:44-03:00*%
%TF.ProjectId,pcbignicao_smd,70636269-676e-4696-9361-6f5f736d642e,2.2*%
%TF.SameCoordinates,Original*%
%TF.FileFunction,Soldermask,Bot*%
%TF.FilePolarity,Negative*%
%FSLAX46Y46*%
G04 Gerber Fmt 4.6, Leading zero omitted, Abs format (unit mm)*
G04 Created by KiCad (PCBNEW 10.0.6) date 2026-09-25 17:58:44*
%MOMM*%
%LPD*%
G01*
G04 APERTURE LIST*
%ADD10R,1.700000X1.700000*%
%ADD11C,1.700000*%
%ADD12C,3.200000*%
%ADD13C,1.800000*%
G04 APERTURE END LIST*
D10*
%TO.C,J11*%
X166357000Y-120024300D03*
D11*
X166357000Y-122564300D03*
X166357000Y-125104300D03*
X166357000Y-127644300D03*
%TD*%
D12*
%TO.C,MH2*%
X201000000Y-69000000D03*
%TD*%
D10*
%TO.C,J10*%
X162692400Y-125105000D03*
D11*
X162692400Y-127645000D03*
%TD*%
D12*
%TO.C,MH3*%
X124000000Y-131000000D03*
%TD*%
D10*
%TO.C,J8*%
X180537800Y-122605700D03*
D11*
X180537800Y-125145700D03*
X180537800Y-127685700D03*
%TD*%
D10*
%TO.C,J7*%
X130949500Y-125108600D03*
D11*
X130949500Y-127648600D03*
%TD*%
D10*
%TO.C,J9*%
X170182000Y-125122800D03*
D11*
X170182000Y-127662800D03*
%TD*%
D12*
%TO.C,MH1*%
X124000000Y-69000000D03*
%TD*%
D10*
%TO.C,J6*%
X197172200Y-110246600D03*
%TD*%
D12*
%TO.C,MH4*%
X201000000Y-131000000D03*
%TD*%
D10*
%TO.C,J4*%
X197184500Y-114429400D03*
%TD*%
D13*
%TO.C,U1*%
X189200000Y-92890000D03*
X189200000Y-90349999D03*
X189200000Y-87809999D03*
X189200000Y-85269999D03*
X189200000Y-82730000D03*
X189200000Y-80189999D03*
X189200000Y-77650000D03*
X189200000Y-75109999D03*
X163800000Y-75109999D03*
X163800000Y-77650000D03*
X163800000Y-80189999D03*
X163800000Y-82730000D03*
X163800000Y-85269999D03*
X163800000Y-87809999D03*
X163800000Y-90349999D03*
X163800000Y-92890000D03*
%TD*%
D10*
%TO.C,A1*%
X152930000Y-68290000D03*
D11*
X152930000Y-70830000D03*
X152930000Y-73370000D03*
X152930000Y-75910000D03*
X152930000Y-78450000D03*
X152930000Y-80990000D03*
X152930000Y-83530000D03*
X152930000Y-86070000D03*
X152930000Y-88610000D03*
X152930000Y-91150000D03*
X152930000Y-93690000D03*
X152930000Y-96230000D03*
X152930000Y-98770000D03*
X152930000Y-101310000D03*
X152930000Y-103850000D03*
X152930000Y-106390000D03*
X152930000Y-108930000D03*
X152930000Y-111470000D03*
X152930000Y-114010000D03*
X130070000Y-114010000D03*
X130070000Y-111470000D03*
X130070000Y-108930000D03*
X130070000Y-106390000D03*
X130070000Y-103850000D03*
X130070000Y-101310000D03*
X130070000Y-98770000D03*
X130070000Y-96230000D03*
X130070000Y-93690000D03*
X130070000Y-91150000D03*
X130070000Y-88610000D03*
X130070000Y-86070000D03*
X130070000Y-83530000D03*
X130070000Y-80990000D03*
X130070000Y-78450000D03*
X130070000Y-75910000D03*
X130070000Y-73370000D03*
X130070000Y-70830000D03*
X130070000Y-68290000D03*
%TD*%
D10*
%TO.C,J12*%
X174419500Y-127670200D03*
D11*
X174419500Y-125130200D03*
X174419500Y-122590200D03*
X174419500Y-120050200D03*
X174419500Y-117510200D03*
X174419500Y-114970200D03*
X174419500Y-112430200D03*
X174419500Y-109890200D03*
%TD*%
D10*
%TO.C,J5*%
X197183900Y-100927600D03*
%TD*%
%TO.C,J13*%
X197179600Y-79602400D03*
D11*
X197179600Y-82142400D03*
X197179600Y-84682400D03*
X197179600Y-87222400D03*
%TD*%
D10*
%TO.C,J3*%
X186538300Y-127671400D03*
%TD*%
M02*
