%TF.GenerationSoftware,KiCad,Pcbnew,10.0.6*%
%TF.CreationDate,2026-09-25T15:20:53-03:00*%
%TF.ProjectId,pcbignicao_smd,70636269-676e-4696-9361-6f5f736d642e,2.1*%
%TF.SameCoordinates,Original*%
%TF.FileFunction,Legend,Top*%
%TF.FilePolarity,Positive*%
%FSLAX46Y46*%
G04 Gerber Fmt 4.6, Leading zero omitted, Abs format (unit mm)*
G04 Created by KiCad (PCBNEW 10.0.6) date 2026-09-25 15:20:53*
%MOMM*%
%LPD*%
G01*
G04 APERTURE LIST*
%ADD10C,0.150000*%
%ADD11C,0.130000*%
%ADD12C,0.120000*%
%ADD13C,0.360000*%
G04 APERTURE END LIST*
D10*
X156309395Y-85285319D02*
X156309395Y-86094842D01*
X156309395Y-86094842D02*
X156357014Y-86190080D01*
X156357014Y-86190080D02*
X156404633Y-86237700D01*
X156404633Y-86237700D02*
X156499871Y-86285319D01*
X156499871Y-86285319D02*
X156690347Y-86285319D01*
X156690347Y-86285319D02*
X156785585Y-86237700D01*
X156785585Y-86237700D02*
X156833204Y-86190080D01*
X156833204Y-86190080D02*
X156880823Y-86094842D01*
X156880823Y-86094842D02*
X156880823Y-85285319D01*
X157261776Y-85285319D02*
X157880823Y-85285319D01*
X157880823Y-85285319D02*
X157547490Y-85666271D01*
X157547490Y-85666271D02*
X157690347Y-85666271D01*
X157690347Y-85666271D02*
X157785585Y-85713890D01*
X157785585Y-85713890D02*
X157833204Y-85761509D01*
X157833204Y-85761509D02*
X157880823Y-85856747D01*
X157880823Y-85856747D02*
X157880823Y-86094842D01*
X157880823Y-86094842D02*
X157833204Y-86190080D01*
X157833204Y-86190080D02*
X157785585Y-86237700D01*
X157785585Y-86237700D02*
X157690347Y-86285319D01*
X157690347Y-86285319D02*
X157404633Y-86285319D01*
X157404633Y-86285319D02*
X157309395Y-86237700D01*
X157309395Y-86237700D02*
X157261776Y-86190080D01*
X165547476Y-131127369D02*
X165547476Y-131841654D01*
X165547476Y-131841654D02*
X165499857Y-131984511D01*
X165499857Y-131984511D02*
X165404619Y-132079750D01*
X165404619Y-132079750D02*
X165261762Y-132127369D01*
X165261762Y-132127369D02*
X165166524Y-132127369D01*
X166547476Y-132127369D02*
X165976048Y-132127369D01*
X166261762Y-132127369D02*
X166261762Y-131127369D01*
X166261762Y-131127369D02*
X166166524Y-131270226D01*
X166166524Y-131270226D02*
X166071286Y-131365464D01*
X166071286Y-131365464D02*
X165976048Y-131413083D01*
X167499857Y-132127369D02*
X166928429Y-132127369D01*
X167214143Y-132127369D02*
X167214143Y-131127369D01*
X167214143Y-131127369D02*
X167118905Y-131270226D01*
X167118905Y-131270226D02*
X167023667Y-131365464D01*
X167023667Y-131365464D02*
X166928429Y-131413083D01*
X185384905Y-124653569D02*
X185384905Y-123653569D01*
X185384905Y-123653569D02*
X185623000Y-123653569D01*
X185623000Y-123653569D02*
X185765857Y-123701188D01*
X185765857Y-123701188D02*
X185861095Y-123796426D01*
X185861095Y-123796426D02*
X185908714Y-123891664D01*
X185908714Y-123891664D02*
X185956333Y-124082140D01*
X185956333Y-124082140D02*
X185956333Y-124224997D01*
X185956333Y-124224997D02*
X185908714Y-124415473D01*
X185908714Y-124415473D02*
X185861095Y-124510711D01*
X185861095Y-124510711D02*
X185765857Y-124605950D01*
X185765857Y-124605950D02*
X185623000Y-124653569D01*
X185623000Y-124653569D02*
X185384905Y-124653569D01*
X186861095Y-123653569D02*
X186384905Y-123653569D01*
X186384905Y-123653569D02*
X186337286Y-124129759D01*
X186337286Y-124129759D02*
X186384905Y-124082140D01*
X186384905Y-124082140D02*
X186480143Y-124034521D01*
X186480143Y-124034521D02*
X186718238Y-124034521D01*
X186718238Y-124034521D02*
X186813476Y-124082140D01*
X186813476Y-124082140D02*
X186861095Y-124129759D01*
X186861095Y-124129759D02*
X186908714Y-124224997D01*
X186908714Y-124224997D02*
X186908714Y-124463092D01*
X186908714Y-124463092D02*
X186861095Y-124558330D01*
X186861095Y-124558330D02*
X186813476Y-124605950D01*
X186813476Y-124605950D02*
X186718238Y-124653569D01*
X186718238Y-124653569D02*
X186480143Y-124653569D01*
X186480143Y-124653569D02*
X186384905Y-124605950D01*
X186384905Y-124605950D02*
X186337286Y-124558330D01*
X156990642Y-122555819D02*
X156990642Y-121555819D01*
X156990642Y-121555819D02*
X157228737Y-121555819D01*
X157228737Y-121555819D02*
X157371594Y-121603438D01*
X157371594Y-121603438D02*
X157466832Y-121698676D01*
X157466832Y-121698676D02*
X157514451Y-121793914D01*
X157514451Y-121793914D02*
X157562070Y-121984390D01*
X157562070Y-121984390D02*
X157562070Y-122127247D01*
X157562070Y-122127247D02*
X157514451Y-122317723D01*
X157514451Y-122317723D02*
X157466832Y-122412961D01*
X157466832Y-122412961D02*
X157371594Y-122508200D01*
X157371594Y-122508200D02*
X157228737Y-122555819D01*
X157228737Y-122555819D02*
X156990642Y-122555819D01*
X158419213Y-121889152D02*
X158419213Y-122555819D01*
X158181118Y-121508200D02*
X157943023Y-122222485D01*
X157943023Y-122222485D02*
X158562070Y-122222485D01*
X199666667Y-75378069D02*
X199666667Y-74378069D01*
X199666667Y-74378069D02*
X200000000Y-75092354D01*
X200000000Y-75092354D02*
X200333333Y-74378069D01*
X200333333Y-74378069D02*
X200333333Y-75378069D01*
X200809524Y-75378069D02*
X200809524Y-74378069D01*
X200809524Y-74854259D02*
X201380952Y-74854259D01*
X201380952Y-75378069D02*
X201380952Y-74378069D01*
X201809524Y-74473307D02*
X201857143Y-74425688D01*
X201857143Y-74425688D02*
X201952381Y-74378069D01*
X201952381Y-74378069D02*
X202190476Y-74378069D01*
X202190476Y-74378069D02*
X202285714Y-74425688D01*
X202285714Y-74425688D02*
X202333333Y-74473307D01*
X202333333Y-74473307D02*
X202380952Y-74568545D01*
X202380952Y-74568545D02*
X202380952Y-74663783D01*
X202380952Y-74663783D02*
X202333333Y-74806640D01*
X202333333Y-74806640D02*
X201761905Y-75378069D01*
X201761905Y-75378069D02*
X202380952Y-75378069D01*
X161882876Y-131128069D02*
X161882876Y-131842354D01*
X161882876Y-131842354D02*
X161835257Y-131985211D01*
X161835257Y-131985211D02*
X161740019Y-132080450D01*
X161740019Y-132080450D02*
X161597162Y-132128069D01*
X161597162Y-132128069D02*
X161501924Y-132128069D01*
X162882876Y-132128069D02*
X162311448Y-132128069D01*
X162597162Y-132128069D02*
X162597162Y-131128069D01*
X162597162Y-131128069D02*
X162501924Y-131270926D01*
X162501924Y-131270926D02*
X162406686Y-131366164D01*
X162406686Y-131366164D02*
X162311448Y-131413783D01*
X163501924Y-131128069D02*
X163597162Y-131128069D01*
X163597162Y-131128069D02*
X163692400Y-131175688D01*
X163692400Y-131175688D02*
X163740019Y-131223307D01*
X163740019Y-131223307D02*
X163787638Y-131318545D01*
X163787638Y-131318545D02*
X163835257Y-131509021D01*
X163835257Y-131509021D02*
X163835257Y-131747116D01*
X163835257Y-131747116D02*
X163787638Y-131937592D01*
X163787638Y-131937592D02*
X163740019Y-132032830D01*
X163740019Y-132032830D02*
X163692400Y-132080450D01*
X163692400Y-132080450D02*
X163597162Y-132128069D01*
X163597162Y-132128069D02*
X163501924Y-132128069D01*
X163501924Y-132128069D02*
X163406686Y-132080450D01*
X163406686Y-132080450D02*
X163359067Y-132032830D01*
X163359067Y-132032830D02*
X163311448Y-131937592D01*
X163311448Y-131937592D02*
X163263829Y-131747116D01*
X163263829Y-131747116D02*
X163263829Y-131509021D01*
X163263829Y-131509021D02*
X163311448Y-131318545D01*
X163311448Y-131318545D02*
X163359067Y-131223307D01*
X163359067Y-131223307D02*
X163406686Y-131175688D01*
X163406686Y-131175688D02*
X163501924Y-131128069D01*
X123113274Y-126689656D02*
X123113274Y-125689656D01*
X123113274Y-125689656D02*
X123446607Y-126403941D01*
X123446607Y-126403941D02*
X123779940Y-125689656D01*
X123779940Y-125689656D02*
X123779940Y-126689656D01*
X124256131Y-126689656D02*
X124256131Y-125689656D01*
X124256131Y-126165846D02*
X124827559Y-126165846D01*
X124827559Y-126689656D02*
X124827559Y-125689656D01*
X125208512Y-125689656D02*
X125827559Y-125689656D01*
X125827559Y-125689656D02*
X125494226Y-126070608D01*
X125494226Y-126070608D02*
X125637083Y-126070608D01*
X125637083Y-126070608D02*
X125732321Y-126118227D01*
X125732321Y-126118227D02*
X125779940Y-126165846D01*
X125779940Y-126165846D02*
X125827559Y-126261084D01*
X125827559Y-126261084D02*
X125827559Y-126499179D01*
X125827559Y-126499179D02*
X125779940Y-126594417D01*
X125779940Y-126594417D02*
X125732321Y-126642037D01*
X125732321Y-126642037D02*
X125637083Y-126689656D01*
X125637083Y-126689656D02*
X125351369Y-126689656D01*
X125351369Y-126689656D02*
X125256131Y-126642037D01*
X125256131Y-126642037D02*
X125208512Y-126594417D01*
X180204466Y-131517662D02*
X180204466Y-132231947D01*
X180204466Y-132231947D02*
X180156847Y-132374804D01*
X180156847Y-132374804D02*
X180061609Y-132470043D01*
X180061609Y-132470043D02*
X179918752Y-132517662D01*
X179918752Y-132517662D02*
X179823514Y-132517662D01*
X180823514Y-131946233D02*
X180728276Y-131898614D01*
X180728276Y-131898614D02*
X180680657Y-131850995D01*
X180680657Y-131850995D02*
X180633038Y-131755757D01*
X180633038Y-131755757D02*
X180633038Y-131708138D01*
X180633038Y-131708138D02*
X180680657Y-131612900D01*
X180680657Y-131612900D02*
X180728276Y-131565281D01*
X180728276Y-131565281D02*
X180823514Y-131517662D01*
X180823514Y-131517662D02*
X181013990Y-131517662D01*
X181013990Y-131517662D02*
X181109228Y-131565281D01*
X181109228Y-131565281D02*
X181156847Y-131612900D01*
X181156847Y-131612900D02*
X181204466Y-131708138D01*
X181204466Y-131708138D02*
X181204466Y-131755757D01*
X181204466Y-131755757D02*
X181156847Y-131850995D01*
X181156847Y-131850995D02*
X181109228Y-131898614D01*
X181109228Y-131898614D02*
X181013990Y-131946233D01*
X181013990Y-131946233D02*
X180823514Y-131946233D01*
X180823514Y-131946233D02*
X180728276Y-131993852D01*
X180728276Y-131993852D02*
X180680657Y-132041471D01*
X180680657Y-132041471D02*
X180633038Y-132136709D01*
X180633038Y-132136709D02*
X180633038Y-132327185D01*
X180633038Y-132327185D02*
X180680657Y-132422423D01*
X180680657Y-132422423D02*
X180728276Y-132470043D01*
X180728276Y-132470043D02*
X180823514Y-132517662D01*
X180823514Y-132517662D02*
X181013990Y-132517662D01*
X181013990Y-132517662D02*
X181109228Y-132470043D01*
X181109228Y-132470043D02*
X181156847Y-132422423D01*
X181156847Y-132422423D02*
X181204466Y-132327185D01*
X181204466Y-132327185D02*
X181204466Y-132136709D01*
X181204466Y-132136709D02*
X181156847Y-132041471D01*
X181156847Y-132041471D02*
X181109228Y-131993852D01*
X181109228Y-131993852D02*
X181013990Y-131946233D01*
D11*
X163560683Y-119657767D02*
X163277349Y-119253005D01*
X163074968Y-119657767D02*
X163074968Y-118807767D01*
X163074968Y-118807767D02*
X163398778Y-118807767D01*
X163398778Y-118807767D02*
X163479730Y-118848243D01*
X163479730Y-118848243D02*
X163520207Y-118888719D01*
X163520207Y-118888719D02*
X163560683Y-118969671D01*
X163560683Y-118969671D02*
X163560683Y-119091100D01*
X163560683Y-119091100D02*
X163520207Y-119172052D01*
X163520207Y-119172052D02*
X163479730Y-119212529D01*
X163479730Y-119212529D02*
X163398778Y-119253005D01*
X163398778Y-119253005D02*
X163074968Y-119253005D01*
X164329730Y-118807767D02*
X163924968Y-118807767D01*
X163924968Y-118807767D02*
X163884492Y-119212529D01*
X163884492Y-119212529D02*
X163924968Y-119172052D01*
X163924968Y-119172052D02*
X164005921Y-119131576D01*
X164005921Y-119131576D02*
X164208302Y-119131576D01*
X164208302Y-119131576D02*
X164289254Y-119172052D01*
X164289254Y-119172052D02*
X164329730Y-119212529D01*
X164329730Y-119212529D02*
X164370207Y-119293481D01*
X164370207Y-119293481D02*
X164370207Y-119495862D01*
X164370207Y-119495862D02*
X164329730Y-119576814D01*
X164329730Y-119576814D02*
X164289254Y-119617291D01*
X164289254Y-119617291D02*
X164208302Y-119657767D01*
X164208302Y-119657767D02*
X164005921Y-119657767D01*
X164005921Y-119657767D02*
X163924968Y-119617291D01*
X163924968Y-119617291D02*
X163884492Y-119576814D01*
D10*
X176701805Y-119162052D02*
X176701805Y-118162052D01*
X176701805Y-118162052D02*
X176939900Y-118162052D01*
X176939900Y-118162052D02*
X177082757Y-118209671D01*
X177082757Y-118209671D02*
X177177995Y-118304909D01*
X177177995Y-118304909D02*
X177225614Y-118400147D01*
X177225614Y-118400147D02*
X177273233Y-118590623D01*
X177273233Y-118590623D02*
X177273233Y-118733480D01*
X177273233Y-118733480D02*
X177225614Y-118923956D01*
X177225614Y-118923956D02*
X177177995Y-119019194D01*
X177177995Y-119019194D02*
X177082757Y-119114433D01*
X177082757Y-119114433D02*
X176939900Y-119162052D01*
X176939900Y-119162052D02*
X176701805Y-119162052D01*
X178225614Y-119162052D02*
X177654186Y-119162052D01*
X177939900Y-119162052D02*
X177939900Y-118162052D01*
X177939900Y-118162052D02*
X177844662Y-118304909D01*
X177844662Y-118304909D02*
X177749424Y-118400147D01*
X177749424Y-118400147D02*
X177654186Y-118447766D01*
X128792040Y-129708419D02*
X128792040Y-130422704D01*
X128792040Y-130422704D02*
X128744421Y-130565561D01*
X128744421Y-130565561D02*
X128649183Y-130660800D01*
X128649183Y-130660800D02*
X128506326Y-130708419D01*
X128506326Y-130708419D02*
X128411088Y-130708419D01*
X129172993Y-129708419D02*
X129839659Y-129708419D01*
X129839659Y-129708419D02*
X129411088Y-130708419D01*
X169848666Y-131145869D02*
X169848666Y-131860154D01*
X169848666Y-131860154D02*
X169801047Y-132003011D01*
X169801047Y-132003011D02*
X169705809Y-132098250D01*
X169705809Y-132098250D02*
X169562952Y-132145869D01*
X169562952Y-132145869D02*
X169467714Y-132145869D01*
X170372476Y-132145869D02*
X170562952Y-132145869D01*
X170562952Y-132145869D02*
X170658190Y-132098250D01*
X170658190Y-132098250D02*
X170705809Y-132050630D01*
X170705809Y-132050630D02*
X170801047Y-131907773D01*
X170801047Y-131907773D02*
X170848666Y-131717297D01*
X170848666Y-131717297D02*
X170848666Y-131336345D01*
X170848666Y-131336345D02*
X170801047Y-131241107D01*
X170801047Y-131241107D02*
X170753428Y-131193488D01*
X170753428Y-131193488D02*
X170658190Y-131145869D01*
X170658190Y-131145869D02*
X170467714Y-131145869D01*
X170467714Y-131145869D02*
X170372476Y-131193488D01*
X170372476Y-131193488D02*
X170324857Y-131241107D01*
X170324857Y-131241107D02*
X170277238Y-131336345D01*
X170277238Y-131336345D02*
X170277238Y-131574440D01*
X170277238Y-131574440D02*
X170324857Y-131669678D01*
X170324857Y-131669678D02*
X170372476Y-131717297D01*
X170372476Y-131717297D02*
X170467714Y-131764916D01*
X170467714Y-131764916D02*
X170658190Y-131764916D01*
X170658190Y-131764916D02*
X170753428Y-131717297D01*
X170753428Y-131717297D02*
X170801047Y-131669678D01*
X170801047Y-131669678D02*
X170848666Y-131574440D01*
X166898233Y-108200368D02*
X166564900Y-107724177D01*
X166326805Y-108200368D02*
X166326805Y-107200368D01*
X166326805Y-107200368D02*
X166707757Y-107200368D01*
X166707757Y-107200368D02*
X166802995Y-107247987D01*
X166802995Y-107247987D02*
X166850614Y-107295606D01*
X166850614Y-107295606D02*
X166898233Y-107390844D01*
X166898233Y-107390844D02*
X166898233Y-107533701D01*
X166898233Y-107533701D02*
X166850614Y-107628939D01*
X166850614Y-107628939D02*
X166802995Y-107676558D01*
X166802995Y-107676558D02*
X166707757Y-107724177D01*
X166707757Y-107724177D02*
X166326805Y-107724177D01*
X167755376Y-107200368D02*
X167564900Y-107200368D01*
X167564900Y-107200368D02*
X167469662Y-107247987D01*
X167469662Y-107247987D02*
X167422043Y-107295606D01*
X167422043Y-107295606D02*
X167326805Y-107438463D01*
X167326805Y-107438463D02*
X167279186Y-107628939D01*
X167279186Y-107628939D02*
X167279186Y-108009891D01*
X167279186Y-108009891D02*
X167326805Y-108105129D01*
X167326805Y-108105129D02*
X167374424Y-108152749D01*
X167374424Y-108152749D02*
X167469662Y-108200368D01*
X167469662Y-108200368D02*
X167660138Y-108200368D01*
X167660138Y-108200368D02*
X167755376Y-108152749D01*
X167755376Y-108152749D02*
X167802995Y-108105129D01*
X167802995Y-108105129D02*
X167850614Y-108009891D01*
X167850614Y-108009891D02*
X167850614Y-107771796D01*
X167850614Y-107771796D02*
X167802995Y-107676558D01*
X167802995Y-107676558D02*
X167755376Y-107628939D01*
X167755376Y-107628939D02*
X167660138Y-107581320D01*
X167660138Y-107581320D02*
X167469662Y-107581320D01*
X167469662Y-107581320D02*
X167374424Y-107628939D01*
X167374424Y-107628939D02*
X167326805Y-107676558D01*
X167326805Y-107676558D02*
X167279186Y-107771796D01*
X171341533Y-113561319D02*
X171008200Y-113085128D01*
X170770105Y-113561319D02*
X170770105Y-112561319D01*
X170770105Y-112561319D02*
X171151057Y-112561319D01*
X171151057Y-112561319D02*
X171246295Y-112608938D01*
X171246295Y-112608938D02*
X171293914Y-112656557D01*
X171293914Y-112656557D02*
X171341533Y-112751795D01*
X171341533Y-112751795D02*
X171341533Y-112894652D01*
X171341533Y-112894652D02*
X171293914Y-112989890D01*
X171293914Y-112989890D02*
X171246295Y-113037509D01*
X171246295Y-113037509D02*
X171151057Y-113085128D01*
X171151057Y-113085128D02*
X170770105Y-113085128D01*
X172293914Y-113561319D02*
X171722486Y-113561319D01*
X172008200Y-113561319D02*
X172008200Y-112561319D01*
X172008200Y-112561319D02*
X171912962Y-112704176D01*
X171912962Y-112704176D02*
X171817724Y-112799414D01*
X171817724Y-112799414D02*
X171722486Y-112847033D01*
X123273631Y-74039581D02*
X123273631Y-73039581D01*
X123273631Y-73039581D02*
X123606964Y-73753866D01*
X123606964Y-73753866D02*
X123940297Y-73039581D01*
X123940297Y-73039581D02*
X123940297Y-74039581D01*
X124416488Y-74039581D02*
X124416488Y-73039581D01*
X124416488Y-73515771D02*
X124987916Y-73515771D01*
X124987916Y-74039581D02*
X124987916Y-73039581D01*
X125987916Y-74039581D02*
X125416488Y-74039581D01*
X125702202Y-74039581D02*
X125702202Y-73039581D01*
X125702202Y-73039581D02*
X125606964Y-73182438D01*
X125606964Y-73182438D02*
X125511726Y-73277676D01*
X125511726Y-73277676D02*
X125416488Y-73325295D01*
X196014741Y-107106419D02*
X196014741Y-107820704D01*
X196014741Y-107820704D02*
X195967122Y-107963561D01*
X195967122Y-107963561D02*
X195871884Y-108058800D01*
X195871884Y-108058800D02*
X195729027Y-108106419D01*
X195729027Y-108106419D02*
X195633789Y-108106419D01*
X196919503Y-107106419D02*
X196729027Y-107106419D01*
X196729027Y-107106419D02*
X196633789Y-107154038D01*
X196633789Y-107154038D02*
X196586170Y-107201657D01*
X196586170Y-107201657D02*
X196490932Y-107344514D01*
X196490932Y-107344514D02*
X196443313Y-107534990D01*
X196443313Y-107534990D02*
X196443313Y-107915942D01*
X196443313Y-107915942D02*
X196490932Y-108011180D01*
X196490932Y-108011180D02*
X196538551Y-108058800D01*
X196538551Y-108058800D02*
X196633789Y-108106419D01*
X196633789Y-108106419D02*
X196824265Y-108106419D01*
X196824265Y-108106419D02*
X196919503Y-108058800D01*
X196919503Y-108058800D02*
X196967122Y-108011180D01*
X196967122Y-108011180D02*
X197014741Y-107915942D01*
X197014741Y-107915942D02*
X197014741Y-107677847D01*
X197014741Y-107677847D02*
X196967122Y-107582609D01*
X196967122Y-107582609D02*
X196919503Y-107534990D01*
X196919503Y-107534990D02*
X196824265Y-107487371D01*
X196824265Y-107487371D02*
X196633789Y-107487371D01*
X196633789Y-107487371D02*
X196538551Y-107534990D01*
X196538551Y-107534990D02*
X196490932Y-107582609D01*
X196490932Y-107582609D02*
X196443313Y-107677847D01*
X199666667Y-125158319D02*
X199666667Y-124158319D01*
X199666667Y-124158319D02*
X200000000Y-124872604D01*
X200000000Y-124872604D02*
X200333333Y-124158319D01*
X200333333Y-124158319D02*
X200333333Y-125158319D01*
X200809524Y-125158319D02*
X200809524Y-124158319D01*
X200809524Y-124634509D02*
X201380952Y-124634509D01*
X201380952Y-125158319D02*
X201380952Y-124158319D01*
X202285714Y-124491652D02*
X202285714Y-125158319D01*
X202047619Y-124110700D02*
X201809524Y-124824985D01*
X201809524Y-124824985D02*
X202428571Y-124824985D01*
X182784805Y-130799714D02*
X182784805Y-129799714D01*
X182784805Y-129799714D02*
X183022900Y-129799714D01*
X183022900Y-129799714D02*
X183165757Y-129847333D01*
X183165757Y-129847333D02*
X183260995Y-129942571D01*
X183260995Y-129942571D02*
X183308614Y-130037809D01*
X183308614Y-130037809D02*
X183356233Y-130228285D01*
X183356233Y-130228285D02*
X183356233Y-130371142D01*
X183356233Y-130371142D02*
X183308614Y-130561618D01*
X183308614Y-130561618D02*
X183260995Y-130656856D01*
X183260995Y-130656856D02*
X183165757Y-130752095D01*
X183165757Y-130752095D02*
X183022900Y-130799714D01*
X183022900Y-130799714D02*
X182784805Y-130799714D01*
X183737186Y-129894952D02*
X183784805Y-129847333D01*
X183784805Y-129847333D02*
X183880043Y-129799714D01*
X183880043Y-129799714D02*
X184118138Y-129799714D01*
X184118138Y-129799714D02*
X184213376Y-129847333D01*
X184213376Y-129847333D02*
X184260995Y-129894952D01*
X184260995Y-129894952D02*
X184308614Y-129990190D01*
X184308614Y-129990190D02*
X184308614Y-130085428D01*
X184308614Y-130085428D02*
X184260995Y-130228285D01*
X184260995Y-130228285D02*
X183689567Y-130799714D01*
X183689567Y-130799714D02*
X184308614Y-130799714D01*
X196851166Y-122560718D02*
X196851166Y-123275003D01*
X196851166Y-123275003D02*
X196803547Y-123417860D01*
X196803547Y-123417860D02*
X196708309Y-123513099D01*
X196708309Y-123513099D02*
X196565452Y-123560718D01*
X196565452Y-123560718D02*
X196470214Y-123560718D01*
X197755928Y-122894051D02*
X197755928Y-123560718D01*
X197517833Y-122513099D02*
X197279738Y-123227384D01*
X197279738Y-123227384D02*
X197898785Y-123227384D01*
X121403571Y-123956009D02*
X121070238Y-123956009D01*
X121070238Y-124479819D02*
X121070238Y-123479819D01*
X121070238Y-123479819D02*
X121546428Y-123479819D01*
X121927381Y-124479819D02*
X121927381Y-123479819D01*
X122403571Y-124479819D02*
X122403571Y-123479819D01*
X122403571Y-123479819D02*
X122641666Y-123479819D01*
X122641666Y-123479819D02*
X122784523Y-123527438D01*
X122784523Y-123527438D02*
X122879761Y-123622676D01*
X122879761Y-123622676D02*
X122927380Y-123717914D01*
X122927380Y-123717914D02*
X122974999Y-123908390D01*
X122974999Y-123908390D02*
X122974999Y-124051247D01*
X122974999Y-124051247D02*
X122927380Y-124241723D01*
X122927380Y-124241723D02*
X122879761Y-124336961D01*
X122879761Y-124336961D02*
X122784523Y-124432200D01*
X122784523Y-124432200D02*
X122641666Y-124479819D01*
X122641666Y-124479819D02*
X122403571Y-124479819D01*
X123308333Y-123479819D02*
X123927380Y-123479819D01*
X123927380Y-123479819D02*
X123594047Y-123860771D01*
X123594047Y-123860771D02*
X123736904Y-123860771D01*
X123736904Y-123860771D02*
X123832142Y-123908390D01*
X123832142Y-123908390D02*
X123879761Y-123956009D01*
X123879761Y-123956009D02*
X123927380Y-124051247D01*
X123927380Y-124051247D02*
X123927380Y-124289342D01*
X123927380Y-124289342D02*
X123879761Y-124384580D01*
X123879761Y-124384580D02*
X123832142Y-124432200D01*
X123832142Y-124432200D02*
X123736904Y-124479819D01*
X123736904Y-124479819D02*
X123451190Y-124479819D01*
X123451190Y-124479819D02*
X123355952Y-124432200D01*
X123355952Y-124432200D02*
X123308333Y-124384580D01*
X176458094Y-97479818D02*
X176458094Y-98289341D01*
X176458094Y-98289341D02*
X176505713Y-98384579D01*
X176505713Y-98384579D02*
X176553332Y-98432199D01*
X176553332Y-98432199D02*
X176648570Y-98479818D01*
X176648570Y-98479818D02*
X176839046Y-98479818D01*
X176839046Y-98479818D02*
X176934284Y-98432199D01*
X176934284Y-98432199D02*
X176981903Y-98384579D01*
X176981903Y-98384579D02*
X177029522Y-98289341D01*
X177029522Y-98289341D02*
X177029522Y-97479818D01*
X178029522Y-98479818D02*
X177458094Y-98479818D01*
X177743808Y-98479818D02*
X177743808Y-97479818D01*
X177743808Y-97479818D02*
X177648570Y-97622675D01*
X177648570Y-97622675D02*
X177553332Y-97717913D01*
X177553332Y-97717913D02*
X177458094Y-97765532D01*
X177080932Y-130081719D02*
X176747599Y-129605528D01*
X176509504Y-130081719D02*
X176509504Y-129081719D01*
X176509504Y-129081719D02*
X176890456Y-129081719D01*
X176890456Y-129081719D02*
X176985694Y-129129338D01*
X176985694Y-129129338D02*
X177033313Y-129176957D01*
X177033313Y-129176957D02*
X177080932Y-129272195D01*
X177080932Y-129272195D02*
X177080932Y-129415052D01*
X177080932Y-129415052D02*
X177033313Y-129510290D01*
X177033313Y-129510290D02*
X176985694Y-129557909D01*
X176985694Y-129557909D02*
X176890456Y-129605528D01*
X176890456Y-129605528D02*
X176509504Y-129605528D01*
X177461885Y-129176957D02*
X177509504Y-129129338D01*
X177509504Y-129129338D02*
X177604742Y-129081719D01*
X177604742Y-129081719D02*
X177842837Y-129081719D01*
X177842837Y-129081719D02*
X177938075Y-129129338D01*
X177938075Y-129129338D02*
X177985694Y-129176957D01*
X177985694Y-129176957D02*
X178033313Y-129272195D01*
X178033313Y-129272195D02*
X178033313Y-129367433D01*
X178033313Y-129367433D02*
X177985694Y-129510290D01*
X177985694Y-129510290D02*
X177414266Y-130081719D01*
X177414266Y-130081719D02*
X178033313Y-130081719D01*
X140785714Y-123967354D02*
X141261904Y-123967354D01*
X140690476Y-124253069D02*
X141023809Y-123253069D01*
X141023809Y-123253069D02*
X141357142Y-124253069D01*
X142214285Y-124253069D02*
X141642857Y-124253069D01*
X141928571Y-124253069D02*
X141928571Y-123253069D01*
X141928571Y-123253069D02*
X141833333Y-123395926D01*
X141833333Y-123395926D02*
X141738095Y-123491164D01*
X141738095Y-123491164D02*
X141642857Y-123538783D01*
X140357143Y-70819104D02*
X140833333Y-70819104D01*
X140261905Y-71104819D02*
X140595238Y-70104819D01*
X140595238Y-70104819D02*
X140928571Y-71104819D01*
X141261905Y-71104819D02*
X141261905Y-70104819D01*
X141261905Y-70104819D02*
X141833333Y-71104819D01*
X141833333Y-71104819D02*
X141833333Y-70104819D01*
X142166667Y-70104819D02*
X142738095Y-70104819D01*
X142452381Y-71104819D02*
X142452381Y-70104819D01*
X140238095Y-112504819D02*
X140238095Y-113314342D01*
X140238095Y-113314342D02*
X140285714Y-113409580D01*
X140285714Y-113409580D02*
X140333333Y-113457200D01*
X140333333Y-113457200D02*
X140428571Y-113504819D01*
X140428571Y-113504819D02*
X140619047Y-113504819D01*
X140619047Y-113504819D02*
X140714285Y-113457200D01*
X140714285Y-113457200D02*
X140761904Y-113409580D01*
X140761904Y-113409580D02*
X140809523Y-113314342D01*
X140809523Y-113314342D02*
X140809523Y-112504819D01*
X141238095Y-113457200D02*
X141380952Y-113504819D01*
X141380952Y-113504819D02*
X141619047Y-113504819D01*
X141619047Y-113504819D02*
X141714285Y-113457200D01*
X141714285Y-113457200D02*
X141761904Y-113409580D01*
X141761904Y-113409580D02*
X141809523Y-113314342D01*
X141809523Y-113314342D02*
X141809523Y-113219104D01*
X141809523Y-113219104D02*
X141761904Y-113123866D01*
X141761904Y-113123866D02*
X141714285Y-113076247D01*
X141714285Y-113076247D02*
X141619047Y-113028628D01*
X141619047Y-113028628D02*
X141428571Y-112981009D01*
X141428571Y-112981009D02*
X141333333Y-112933390D01*
X141333333Y-112933390D02*
X141285714Y-112885771D01*
X141285714Y-112885771D02*
X141238095Y-112790533D01*
X141238095Y-112790533D02*
X141238095Y-112695295D01*
X141238095Y-112695295D02*
X141285714Y-112600057D01*
X141285714Y-112600057D02*
X141333333Y-112552438D01*
X141333333Y-112552438D02*
X141428571Y-112504819D01*
X141428571Y-112504819D02*
X141666666Y-112504819D01*
X141666666Y-112504819D02*
X141809523Y-112552438D01*
X142571428Y-112981009D02*
X142714285Y-113028628D01*
X142714285Y-113028628D02*
X142761904Y-113076247D01*
X142761904Y-113076247D02*
X142809523Y-113171485D01*
X142809523Y-113171485D02*
X142809523Y-113314342D01*
X142809523Y-113314342D02*
X142761904Y-113409580D01*
X142761904Y-113409580D02*
X142714285Y-113457200D01*
X142714285Y-113457200D02*
X142619047Y-113504819D01*
X142619047Y-113504819D02*
X142238095Y-113504819D01*
X142238095Y-113504819D02*
X142238095Y-112504819D01*
X142238095Y-112504819D02*
X142571428Y-112504819D01*
X142571428Y-112504819D02*
X142666666Y-112552438D01*
X142666666Y-112552438D02*
X142714285Y-112600057D01*
X142714285Y-112600057D02*
X142761904Y-112695295D01*
X142761904Y-112695295D02*
X142761904Y-112790533D01*
X142761904Y-112790533D02*
X142714285Y-112885771D01*
X142714285Y-112885771D02*
X142666666Y-112933390D01*
X142666666Y-112933390D02*
X142571428Y-112981009D01*
X142571428Y-112981009D02*
X142238095Y-112981009D01*
X202403571Y-123956009D02*
X202070238Y-123956009D01*
X202070238Y-124479819D02*
X202070238Y-123479819D01*
X202070238Y-123479819D02*
X202546428Y-123479819D01*
X202927381Y-124479819D02*
X202927381Y-123479819D01*
X203403571Y-124479819D02*
X203403571Y-123479819D01*
X203403571Y-123479819D02*
X203641666Y-123479819D01*
X203641666Y-123479819D02*
X203784523Y-123527438D01*
X203784523Y-123527438D02*
X203879761Y-123622676D01*
X203879761Y-123622676D02*
X203927380Y-123717914D01*
X203927380Y-123717914D02*
X203974999Y-123908390D01*
X203974999Y-123908390D02*
X203974999Y-124051247D01*
X203974999Y-124051247D02*
X203927380Y-124241723D01*
X203927380Y-124241723D02*
X203879761Y-124336961D01*
X203879761Y-124336961D02*
X203784523Y-124432200D01*
X203784523Y-124432200D02*
X203641666Y-124479819D01*
X203641666Y-124479819D02*
X203403571Y-124479819D01*
X204355952Y-123575057D02*
X204403571Y-123527438D01*
X204403571Y-123527438D02*
X204498809Y-123479819D01*
X204498809Y-123479819D02*
X204736904Y-123479819D01*
X204736904Y-123479819D02*
X204832142Y-123527438D01*
X204832142Y-123527438D02*
X204879761Y-123575057D01*
X204879761Y-123575057D02*
X204927380Y-123670295D01*
X204927380Y-123670295D02*
X204927380Y-123765533D01*
X204927380Y-123765533D02*
X204879761Y-123908390D01*
X204879761Y-123908390D02*
X204308333Y-124479819D01*
X204308333Y-124479819D02*
X204927380Y-124479819D01*
X121403571Y-71956009D02*
X121070238Y-71956009D01*
X121070238Y-72479819D02*
X121070238Y-71479819D01*
X121070238Y-71479819D02*
X121546428Y-71479819D01*
X121927381Y-72479819D02*
X121927381Y-71479819D01*
X122403571Y-72479819D02*
X122403571Y-71479819D01*
X122403571Y-71479819D02*
X122641666Y-71479819D01*
X122641666Y-71479819D02*
X122784523Y-71527438D01*
X122784523Y-71527438D02*
X122879761Y-71622676D01*
X122879761Y-71622676D02*
X122927380Y-71717914D01*
X122927380Y-71717914D02*
X122974999Y-71908390D01*
X122974999Y-71908390D02*
X122974999Y-72051247D01*
X122974999Y-72051247D02*
X122927380Y-72241723D01*
X122927380Y-72241723D02*
X122879761Y-72336961D01*
X122879761Y-72336961D02*
X122784523Y-72432200D01*
X122784523Y-72432200D02*
X122641666Y-72479819D01*
X122641666Y-72479819D02*
X122403571Y-72479819D01*
X123927380Y-72479819D02*
X123355952Y-72479819D01*
X123641666Y-72479819D02*
X123641666Y-71479819D01*
X123641666Y-71479819D02*
X123546428Y-71622676D01*
X123546428Y-71622676D02*
X123451190Y-71717914D01*
X123451190Y-71717914D02*
X123355952Y-71765533D01*
X173609976Y-131153269D02*
X173609976Y-131867554D01*
X173609976Y-131867554D02*
X173562357Y-132010411D01*
X173562357Y-132010411D02*
X173467119Y-132105650D01*
X173467119Y-132105650D02*
X173324262Y-132153269D01*
X173324262Y-132153269D02*
X173229024Y-132153269D01*
X174609976Y-132153269D02*
X174038548Y-132153269D01*
X174324262Y-132153269D02*
X174324262Y-131153269D01*
X174324262Y-131153269D02*
X174229024Y-131296126D01*
X174229024Y-131296126D02*
X174133786Y-131391364D01*
X174133786Y-131391364D02*
X174038548Y-131438983D01*
X174990929Y-131248507D02*
X175038548Y-131200888D01*
X175038548Y-131200888D02*
X175133786Y-131153269D01*
X175133786Y-131153269D02*
X175371881Y-131153269D01*
X175371881Y-131153269D02*
X175467119Y-131200888D01*
X175467119Y-131200888D02*
X175514738Y-131248507D01*
X175514738Y-131248507D02*
X175562357Y-131343745D01*
X175562357Y-131343745D02*
X175562357Y-131438983D01*
X175562357Y-131438983D02*
X175514738Y-131581840D01*
X175514738Y-131581840D02*
X174943310Y-132153269D01*
X174943310Y-132153269D02*
X175562357Y-132153269D01*
X165114505Y-110522969D02*
X165114505Y-109522969D01*
X165114505Y-109522969D02*
X165352600Y-109522969D01*
X165352600Y-109522969D02*
X165495457Y-109570588D01*
X165495457Y-109570588D02*
X165590695Y-109665826D01*
X165590695Y-109665826D02*
X165638314Y-109761064D01*
X165638314Y-109761064D02*
X165685933Y-109951540D01*
X165685933Y-109951540D02*
X165685933Y-110094397D01*
X165685933Y-110094397D02*
X165638314Y-110284873D01*
X165638314Y-110284873D02*
X165590695Y-110380111D01*
X165590695Y-110380111D02*
X165495457Y-110475350D01*
X165495457Y-110475350D02*
X165352600Y-110522969D01*
X165352600Y-110522969D02*
X165114505Y-110522969D01*
X166019267Y-109522969D02*
X166638314Y-109522969D01*
X166638314Y-109522969D02*
X166304981Y-109903921D01*
X166304981Y-109903921D02*
X166447838Y-109903921D01*
X166447838Y-109903921D02*
X166543076Y-109951540D01*
X166543076Y-109951540D02*
X166590695Y-109999159D01*
X166590695Y-109999159D02*
X166638314Y-110094397D01*
X166638314Y-110094397D02*
X166638314Y-110332492D01*
X166638314Y-110332492D02*
X166590695Y-110427730D01*
X166590695Y-110427730D02*
X166543076Y-110475350D01*
X166543076Y-110475350D02*
X166447838Y-110522969D01*
X166447838Y-110522969D02*
X166162124Y-110522969D01*
X166162124Y-110522969D02*
X166066886Y-110475350D01*
X166066886Y-110475350D02*
X166019267Y-110427730D01*
X180280933Y-115918530D02*
X180233314Y-115966150D01*
X180233314Y-115966150D02*
X180090457Y-116013769D01*
X180090457Y-116013769D02*
X179995219Y-116013769D01*
X179995219Y-116013769D02*
X179852362Y-115966150D01*
X179852362Y-115966150D02*
X179757124Y-115870911D01*
X179757124Y-115870911D02*
X179709505Y-115775673D01*
X179709505Y-115775673D02*
X179661886Y-115585197D01*
X179661886Y-115585197D02*
X179661886Y-115442340D01*
X179661886Y-115442340D02*
X179709505Y-115251864D01*
X179709505Y-115251864D02*
X179757124Y-115156626D01*
X179757124Y-115156626D02*
X179852362Y-115061388D01*
X179852362Y-115061388D02*
X179995219Y-115013769D01*
X179995219Y-115013769D02*
X180090457Y-115013769D01*
X180090457Y-115013769D02*
X180233314Y-115061388D01*
X180233314Y-115061388D02*
X180280933Y-115109007D01*
X181233314Y-116013769D02*
X180661886Y-116013769D01*
X180947600Y-116013769D02*
X180947600Y-115013769D01*
X180947600Y-115013769D02*
X180852362Y-115156626D01*
X180852362Y-115156626D02*
X180757124Y-115251864D01*
X180757124Y-115251864D02*
X180661886Y-115299483D01*
X197567191Y-104759561D02*
X197567191Y-105473846D01*
X197567191Y-105473846D02*
X197519572Y-105616703D01*
X197519572Y-105616703D02*
X197424334Y-105711942D01*
X197424334Y-105711942D02*
X197281477Y-105759561D01*
X197281477Y-105759561D02*
X197186239Y-105759561D01*
X198519572Y-104759561D02*
X198043382Y-104759561D01*
X198043382Y-104759561D02*
X197995763Y-105235751D01*
X197995763Y-105235751D02*
X198043382Y-105188132D01*
X198043382Y-105188132D02*
X198138620Y-105140513D01*
X198138620Y-105140513D02*
X198376715Y-105140513D01*
X198376715Y-105140513D02*
X198471953Y-105188132D01*
X198471953Y-105188132D02*
X198519572Y-105235751D01*
X198519572Y-105235751D02*
X198567191Y-105330989D01*
X198567191Y-105330989D02*
X198567191Y-105569084D01*
X198567191Y-105569084D02*
X198519572Y-105664322D01*
X198519572Y-105664322D02*
X198471953Y-105711942D01*
X198471953Y-105711942D02*
X198376715Y-105759561D01*
X198376715Y-105759561D02*
X198138620Y-105759561D01*
X198138620Y-105759561D02*
X198043382Y-105711942D01*
X198043382Y-105711942D02*
X197995763Y-105664322D01*
X161053532Y-117043419D02*
X160720199Y-116567228D01*
X160482104Y-117043419D02*
X160482104Y-116043419D01*
X160482104Y-116043419D02*
X160863056Y-116043419D01*
X160863056Y-116043419D02*
X160958294Y-116091038D01*
X160958294Y-116091038D02*
X161005913Y-116138657D01*
X161005913Y-116138657D02*
X161053532Y-116233895D01*
X161053532Y-116233895D02*
X161053532Y-116376752D01*
X161053532Y-116376752D02*
X161005913Y-116471990D01*
X161005913Y-116471990D02*
X160958294Y-116519609D01*
X160958294Y-116519609D02*
X160863056Y-116567228D01*
X160863056Y-116567228D02*
X160482104Y-116567228D01*
X161386866Y-116043419D02*
X162053532Y-116043419D01*
X162053532Y-116043419D02*
X161624961Y-117043419D01*
X155463333Y-130689530D02*
X155415714Y-130737150D01*
X155415714Y-130737150D02*
X155272857Y-130784769D01*
X155272857Y-130784769D02*
X155177619Y-130784769D01*
X155177619Y-130784769D02*
X155034762Y-130737150D01*
X155034762Y-130737150D02*
X154939524Y-130641911D01*
X154939524Y-130641911D02*
X154891905Y-130546673D01*
X154891905Y-130546673D02*
X154844286Y-130356197D01*
X154844286Y-130356197D02*
X154844286Y-130213340D01*
X154844286Y-130213340D02*
X154891905Y-130022864D01*
X154891905Y-130022864D02*
X154939524Y-129927626D01*
X154939524Y-129927626D02*
X155034762Y-129832388D01*
X155034762Y-129832388D02*
X155177619Y-129784769D01*
X155177619Y-129784769D02*
X155272857Y-129784769D01*
X155272857Y-129784769D02*
X155415714Y-129832388D01*
X155415714Y-129832388D02*
X155463333Y-129880007D01*
X155844286Y-129880007D02*
X155891905Y-129832388D01*
X155891905Y-129832388D02*
X155987143Y-129784769D01*
X155987143Y-129784769D02*
X156225238Y-129784769D01*
X156225238Y-129784769D02*
X156320476Y-129832388D01*
X156320476Y-129832388D02*
X156368095Y-129880007D01*
X156368095Y-129880007D02*
X156415714Y-129975245D01*
X156415714Y-129975245D02*
X156415714Y-130070483D01*
X156415714Y-130070483D02*
X156368095Y-130213340D01*
X156368095Y-130213340D02*
X155796667Y-130784769D01*
X155796667Y-130784769D02*
X156415714Y-130784769D01*
X194115132Y-130320919D02*
X193781799Y-129844728D01*
X193543704Y-130320919D02*
X193543704Y-129320919D01*
X193543704Y-129320919D02*
X193924656Y-129320919D01*
X193924656Y-129320919D02*
X194019894Y-129368538D01*
X194019894Y-129368538D02*
X194067513Y-129416157D01*
X194067513Y-129416157D02*
X194115132Y-129511395D01*
X194115132Y-129511395D02*
X194115132Y-129654252D01*
X194115132Y-129654252D02*
X194067513Y-129749490D01*
X194067513Y-129749490D02*
X194019894Y-129797109D01*
X194019894Y-129797109D02*
X193924656Y-129844728D01*
X193924656Y-129844728D02*
X193543704Y-129844728D01*
X194972275Y-129654252D02*
X194972275Y-130320919D01*
X194734180Y-129273300D02*
X194496085Y-129987585D01*
X194496085Y-129987585D02*
X195115132Y-129987585D01*
X196370076Y-90705469D02*
X196370076Y-91419754D01*
X196370076Y-91419754D02*
X196322457Y-91562611D01*
X196322457Y-91562611D02*
X196227219Y-91657850D01*
X196227219Y-91657850D02*
X196084362Y-91705469D01*
X196084362Y-91705469D02*
X195989124Y-91705469D01*
X197370076Y-91705469D02*
X196798648Y-91705469D01*
X197084362Y-91705469D02*
X197084362Y-90705469D01*
X197084362Y-90705469D02*
X196989124Y-90848326D01*
X196989124Y-90848326D02*
X196893886Y-90943564D01*
X196893886Y-90943564D02*
X196798648Y-90991183D01*
X197703410Y-90705469D02*
X198322457Y-90705469D01*
X198322457Y-90705469D02*
X197989124Y-91086421D01*
X197989124Y-91086421D02*
X198131981Y-91086421D01*
X198131981Y-91086421D02*
X198227219Y-91134040D01*
X198227219Y-91134040D02*
X198274838Y-91181659D01*
X198274838Y-91181659D02*
X198322457Y-91276897D01*
X198322457Y-91276897D02*
X198322457Y-91514992D01*
X198322457Y-91514992D02*
X198274838Y-91610230D01*
X198274838Y-91610230D02*
X198227219Y-91657850D01*
X198227219Y-91657850D02*
X198131981Y-91705469D01*
X198131981Y-91705469D02*
X197846267Y-91705469D01*
X197846267Y-91705469D02*
X197751029Y-91657850D01*
X197751029Y-91657850D02*
X197703410Y-91610230D01*
X188892195Y-121849469D02*
X188892195Y-122658992D01*
X188892195Y-122658992D02*
X188939814Y-122754230D01*
X188939814Y-122754230D02*
X188987433Y-122801850D01*
X188987433Y-122801850D02*
X189082671Y-122849469D01*
X189082671Y-122849469D02*
X189273147Y-122849469D01*
X189273147Y-122849469D02*
X189368385Y-122801850D01*
X189368385Y-122801850D02*
X189416004Y-122754230D01*
X189416004Y-122754230D02*
X189463623Y-122658992D01*
X189463623Y-122658992D02*
X189463623Y-121849469D01*
X189892195Y-121944707D02*
X189939814Y-121897088D01*
X189939814Y-121897088D02*
X190035052Y-121849469D01*
X190035052Y-121849469D02*
X190273147Y-121849469D01*
X190273147Y-121849469D02*
X190368385Y-121897088D01*
X190368385Y-121897088D02*
X190416004Y-121944707D01*
X190416004Y-121944707D02*
X190463623Y-122039945D01*
X190463623Y-122039945D02*
X190463623Y-122135183D01*
X190463623Y-122135183D02*
X190416004Y-122278040D01*
X190416004Y-122278040D02*
X189844576Y-122849469D01*
X189844576Y-122849469D02*
X190463623Y-122849469D01*
X186921591Y-131122648D02*
X186921591Y-131836933D01*
X186921591Y-131836933D02*
X186873972Y-131979790D01*
X186873972Y-131979790D02*
X186778734Y-132075029D01*
X186778734Y-132075029D02*
X186635877Y-132122648D01*
X186635877Y-132122648D02*
X186540639Y-132122648D01*
X187302544Y-131122648D02*
X187921591Y-131122648D01*
X187921591Y-131122648D02*
X187588258Y-131503600D01*
X187588258Y-131503600D02*
X187731115Y-131503600D01*
X187731115Y-131503600D02*
X187826353Y-131551219D01*
X187826353Y-131551219D02*
X187873972Y-131598838D01*
X187873972Y-131598838D02*
X187921591Y-131694076D01*
X187921591Y-131694076D02*
X187921591Y-131932171D01*
X187921591Y-131932171D02*
X187873972Y-132027409D01*
X187873972Y-132027409D02*
X187826353Y-132075029D01*
X187826353Y-132075029D02*
X187731115Y-132122648D01*
X187731115Y-132122648D02*
X187445401Y-132122648D01*
X187445401Y-132122648D02*
X187350163Y-132075029D01*
X187350163Y-132075029D02*
X187302544Y-132027409D01*
X168911033Y-120171344D02*
X168577700Y-119695153D01*
X168339605Y-120171344D02*
X168339605Y-119171344D01*
X168339605Y-119171344D02*
X168720557Y-119171344D01*
X168720557Y-119171344D02*
X168815795Y-119218963D01*
X168815795Y-119218963D02*
X168863414Y-119266582D01*
X168863414Y-119266582D02*
X168911033Y-119361820D01*
X168911033Y-119361820D02*
X168911033Y-119504677D01*
X168911033Y-119504677D02*
X168863414Y-119599915D01*
X168863414Y-119599915D02*
X168815795Y-119647534D01*
X168815795Y-119647534D02*
X168720557Y-119695153D01*
X168720557Y-119695153D02*
X168339605Y-119695153D01*
X169244367Y-119171344D02*
X169863414Y-119171344D01*
X169863414Y-119171344D02*
X169530081Y-119552296D01*
X169530081Y-119552296D02*
X169672938Y-119552296D01*
X169672938Y-119552296D02*
X169768176Y-119599915D01*
X169768176Y-119599915D02*
X169815795Y-119647534D01*
X169815795Y-119647534D02*
X169863414Y-119742772D01*
X169863414Y-119742772D02*
X169863414Y-119980867D01*
X169863414Y-119980867D02*
X169815795Y-120076105D01*
X169815795Y-120076105D02*
X169768176Y-120123725D01*
X169768176Y-120123725D02*
X169672938Y-120171344D01*
X169672938Y-120171344D02*
X169387224Y-120171344D01*
X169387224Y-120171344D02*
X169291986Y-120123725D01*
X169291986Y-120123725D02*
X169244367Y-120076105D01*
%TO.C,U3*%
D12*
X155661300Y-78445500D02*
X155876300Y-78445500D01*
X155661300Y-83065500D02*
X155661300Y-78445500D01*
X155876300Y-83065500D02*
X155661300Y-83065500D01*
X158266300Y-78445500D02*
X158481300Y-78445500D01*
X158481300Y-78445500D02*
X158481300Y-83065500D01*
X158481300Y-83065500D02*
X158266300Y-83065500D01*
X155871300Y-83945500D02*
X155541300Y-84185500D01*
X155541300Y-83705500D01*
X155871300Y-83945500D01*
G36*
X155871300Y-83945500D02*
G01*
X155541300Y-84185500D01*
X155541300Y-83705500D01*
X155871300Y-83945500D01*
G37*
%TO.C,J11*%
X164977000Y-118644300D02*
X166357000Y-118644300D01*
X164977000Y-120024300D02*
X164977000Y-118644300D01*
X164977000Y-121294300D02*
X164977000Y-129024300D01*
X164977000Y-121294300D02*
X167737000Y-121294300D01*
X164977000Y-129024300D02*
X167737000Y-129024300D01*
X167737000Y-121294300D02*
X167737000Y-129024300D01*
%TO.C,D5*%
X182635500Y-118300500D02*
X182635500Y-121600500D01*
X182635500Y-118300500D02*
X188145500Y-118300500D01*
X182635500Y-121600500D02*
X188145500Y-121600500D01*
%TO.C,D4*%
X159198500Y-121051000D02*
X159198500Y-123051000D01*
X159198500Y-121051000D02*
X163208500Y-121051000D01*
X159198500Y-123051000D02*
X163208500Y-123051000D01*
%TO.C,J10*%
X161312400Y-123725000D02*
X162692400Y-123725000D01*
X161312400Y-125105000D02*
X161312400Y-123725000D01*
X161312400Y-126375000D02*
X161312400Y-129025000D01*
X161312400Y-126375000D02*
X164072400Y-126375000D01*
X161312400Y-129025000D02*
X164072400Y-129025000D01*
X164072400Y-126375000D02*
X164072400Y-129025000D01*
%TO.C,J8*%
X179157800Y-121225700D02*
X180537800Y-121225700D01*
X179157800Y-122605700D02*
X179157800Y-121225700D01*
X179157800Y-123875700D02*
X179157800Y-129065700D01*
X179157800Y-123875700D02*
X181917800Y-123875700D01*
X179157800Y-129065700D02*
X181917800Y-129065700D01*
X181917800Y-123875700D02*
X181917800Y-129065700D01*
%TO.C,R5*%
X170665600Y-119498364D02*
X170665600Y-119044236D01*
X172135600Y-119498364D02*
X172135600Y-119044236D01*
%TO.C,D1*%
X176479900Y-120113900D02*
X176479900Y-122798900D01*
X178399900Y-120113900D02*
X176479900Y-120113900D01*
X178399900Y-122798900D02*
X178399900Y-120113900D01*
%TO.C,J7*%
X129569500Y-123728600D02*
X130949500Y-123728600D01*
X129569500Y-125108600D02*
X129569500Y-123728600D01*
X129569500Y-126378599D02*
X129569500Y-129028600D01*
X129569500Y-126378599D02*
X132329499Y-126378599D01*
X129569500Y-129028600D02*
X132329499Y-129028600D01*
X132329499Y-126378599D02*
X132329499Y-129028600D01*
%TO.C,J9*%
X168802000Y-123742800D02*
X170182000Y-123742800D01*
X168802000Y-125122800D02*
X168802000Y-123742800D01*
X168802000Y-126392800D02*
X168802000Y-129042800D01*
X168802000Y-126392800D02*
X171562000Y-126392800D01*
X168802000Y-129042800D02*
X171562000Y-129042800D01*
X171562000Y-126392800D02*
X171562000Y-129042800D01*
%TO.C,R6*%
X167291964Y-111508800D02*
X166837836Y-111508800D01*
X167291964Y-112978800D02*
X166837836Y-112978800D01*
%TO.C,R1*%
X170773200Y-115838564D02*
X170773200Y-115384436D01*
X172243200Y-115838564D02*
X172243200Y-115384436D01*
%TO.C,J6*%
X195792200Y-111626600D02*
X195792200Y-110246600D01*
X197172200Y-111626600D02*
X195792200Y-111626600D01*
X198442200Y-108866600D02*
X198552200Y-108866600D01*
X198442200Y-111626600D02*
X198442200Y-108866600D01*
X198442200Y-111626600D02*
X198552200Y-111626600D01*
X198552200Y-111626600D02*
X198552200Y-108866600D01*
%TO.C,D2*%
X182562900Y-125496800D02*
X182562900Y-128181800D01*
X184482900Y-125496800D02*
X182562900Y-125496800D01*
X184482900Y-128181800D02*
X184482900Y-125496800D01*
%TO.C,J4*%
X195804500Y-113049400D02*
X197184500Y-113049400D01*
X195804500Y-114429400D02*
X195804500Y-113049400D01*
X195804500Y-115699400D02*
X195804500Y-115809400D01*
X195804500Y-115699400D02*
X198564500Y-115699400D01*
X195804500Y-115809400D02*
X198564500Y-115809400D01*
X198564500Y-115699400D02*
X198564500Y-115809400D01*
%TO.C,U1*%
X159850000Y-71849999D02*
X193149999Y-71849999D01*
X193149999Y-96150000D01*
X159850000Y-96150000D01*
X159850000Y-71849999D01*
D13*
X159079999Y-75109999D02*
G75*
G02*
X158719999Y-75109999I-180000J0D01*
G01*
X158719999Y-75109999D02*
G75*
G02*
X159079999Y-75109999I180000J0D01*
G01*
%TO.C,R2*%
D12*
X176512600Y-126894836D02*
X176512600Y-127348964D01*
X177982600Y-126894836D02*
X177982600Y-127348964D01*
%TO.C,A1*%
X129050000Y-67250000D02*
X134050000Y-67250000D01*
X129050000Y-79150000D02*
X129050000Y-67250000D01*
X153950000Y-67250000D02*
X148950000Y-67250000D01*
X153950000Y-79150000D02*
X153950000Y-67250000D01*
X129050000Y-67250000D02*
X153950000Y-67250000D01*
X153950000Y-115050000D01*
X129050000Y-115050000D01*
X129050000Y-67250000D01*
X153950000Y-69250000D02*
X151950000Y-68250000D01*
X153950000Y-67250000D01*
X153950000Y-69250000D01*
G36*
X153950000Y-69250000D02*
G01*
X151950000Y-68250000D01*
X153950000Y-67250000D01*
X153950000Y-69250000D01*
G37*
%TO.C,J12*%
X173039500Y-126400200D02*
X173039500Y-108510200D01*
X175799500Y-108510200D02*
X173039500Y-108510200D01*
X175799500Y-126400200D02*
X173039500Y-126400200D01*
X175799500Y-126400200D02*
X175799500Y-108510200D01*
X175799500Y-127670200D02*
X175799500Y-129050200D01*
X175799500Y-129050200D02*
X174419500Y-129050200D01*
%TO.C,D3*%
X169340100Y-114666400D02*
X163830100Y-114666400D01*
X169340100Y-117966400D02*
X163830100Y-117966400D01*
X169340100Y-117966400D02*
X169340100Y-114666400D01*
%TO.C,C1*%
X180708852Y-118152200D02*
X180186348Y-118152200D01*
X180708852Y-119622200D02*
X180186348Y-119622200D01*
%TO.C,J5*%
X195803900Y-102307600D02*
X195803900Y-100927600D01*
X197183900Y-102307600D02*
X195803900Y-102307600D01*
X198453900Y-99547600D02*
X198563900Y-99547600D01*
X198453900Y-102307600D02*
X198453900Y-99547600D01*
X198453900Y-102307600D02*
X198563900Y-102307600D01*
X198563900Y-102307600D02*
X198563900Y-99547600D01*
%TO.C,R7*%
X160485200Y-119320664D02*
X160485200Y-118866536D01*
X161955200Y-119320664D02*
X161955200Y-118866536D01*
%TO.C,C2*%
X155891252Y-126266700D02*
X155368748Y-126266700D01*
X155891252Y-127736700D02*
X155368748Y-127736700D01*
%TO.C,R4*%
X193546800Y-127134036D02*
X193546800Y-127588164D01*
X195016800Y-127134036D02*
X195016800Y-127588164D01*
%TO.C,J13*%
X195799600Y-78222400D02*
X197179600Y-78222400D01*
X195799600Y-79602400D02*
X195799600Y-78222400D01*
X195799600Y-80872400D02*
X195799600Y-88602400D01*
X195799600Y-80872400D02*
X198559600Y-80872400D01*
X195799600Y-88602400D02*
X198559600Y-88602400D01*
X198559600Y-80872400D02*
X198559600Y-88602400D01*
%TO.C,U2*%
X187344100Y-115086400D02*
X191964100Y-115086400D01*
X187344100Y-115301400D02*
X187344100Y-115086400D01*
X187344100Y-117906400D02*
X187344100Y-117691400D01*
X191964100Y-115086400D02*
X191964100Y-115301400D01*
X191964100Y-117691400D02*
X191964100Y-117906400D01*
X191964100Y-117906400D02*
X187344100Y-117906400D01*
X186464100Y-115296400D02*
X186224100Y-114966400D01*
X186704100Y-114966400D01*
X186464100Y-115296400D01*
G36*
X186464100Y-115296400D02*
G01*
X186224100Y-114966400D01*
X186704100Y-114966400D01*
X186464100Y-115296400D01*
G37*
%TO.C,J3*%
X185158300Y-129051400D02*
X185158300Y-127671400D01*
X186538300Y-129051400D02*
X185158300Y-129051400D01*
X187808300Y-126291400D02*
X187918300Y-126291400D01*
X187808300Y-129051400D02*
X187808300Y-126291400D01*
X187808300Y-129051400D02*
X187918300Y-129051400D01*
X187918300Y-129051400D02*
X187918300Y-126291400D01*
%TO.C,R3*%
X170604136Y-121290300D02*
X171058264Y-121290300D01*
X170604136Y-122760300D02*
X171058264Y-122760300D01*
%TD*%
M02*
