%TF.GenerationSoftware,KiCad,Pcbnew,10.0.6*%
%TF.CreationDate,2026-09-25T15:20:53-03:00*%
%TF.ProjectId,pcbignicao_smd,70636269-676e-4696-9361-6f5f736d642e,2.1*%
%TF.SameCoordinates,Original*%
%TF.FileFunction,Copper,L1,Top*%
%TF.FilePolarity,Positive*%
%FSLAX46Y46*%
G04 Gerber Fmt 4.6, Leading zero omitted, Abs format (unit mm)*
G04 Created by KiCad (PCBNEW 10.0.6) date 2026-09-25 15:20:53*
%MOMM*%
%LPD*%
G01*
G04 APERTURE LIST*
G04 Aperture macros list*
%AMRoundRect*
0 Rectangle with rounded corners*
0 $1 Rounding radius*
0 $2 $3 $4 $5 $6 $7 $8 $9 X,Y pos of 4 corners*
0 Add a 4 corners polygon primitive as box body*
4,1,4,$2,$3,$4,$5,$6,$7,$8,$9,$2,$3,0*
0 Add four circle primitives for the rounded corners*
1,1,$1+$1,$2,$3*
1,1,$1+$1,$4,$5*
1,1,$1+$1,$6,$7*
1,1,$1+$1,$8,$9*
0 Add four rect primitives between the rounded corners*
20,1,$1+$1,$2,$3,$4,$5,0*
20,1,$1+$1,$4,$5,$6,$7,0*
20,1,$1+$1,$6,$7,$8,$9,0*
20,1,$1+$1,$8,$9,$2,$3,0*%
G04 Aperture macros list end*
%TA.AperFunction,SMDPad,CuDef*%
%ADD10RoundRect,0.150000X0.150000X-0.662500X0.150000X0.662500X-0.150000X0.662500X-0.150000X-0.662500X0*%
%TD*%
%TA.AperFunction,ComponentPad*%
%ADD11R,1.700000X1.700000*%
%TD*%
%TA.AperFunction,ComponentPad*%
%ADD12C,1.700000*%
%TD*%
%TA.AperFunction,SMDPad,CuDef*%
%ADD13RoundRect,0.250000X-1.000000X-0.650000X1.000000X-0.650000X1.000000X0.650000X-1.000000X0.650000X0*%
%TD*%
%TA.AperFunction,SMDPad,CuDef*%
%ADD14RoundRect,0.225000X-0.225000X-0.375000X0.225000X-0.375000X0.225000X0.375000X-0.225000X0.375000X0*%
%TD*%
%TA.AperFunction,SMDPad,CuDef*%
%ADD15RoundRect,0.250000X0.450000X-0.262500X0.450000X0.262500X-0.450000X0.262500X-0.450000X-0.262500X0*%
%TD*%
%TA.AperFunction,SMDPad,CuDef*%
%ADD16RoundRect,0.243750X-0.456250X0.243750X-0.456250X-0.243750X0.456250X-0.243750X0.456250X0.243750X0*%
%TD*%
%TA.AperFunction,SMDPad,CuDef*%
%ADD17RoundRect,0.250000X0.262500X0.450000X-0.262500X0.450000X-0.262500X-0.450000X0.262500X-0.450000X0*%
%TD*%
%TA.AperFunction,SMDPad,CuDef*%
%ADD18C,1.000000*%
%TD*%
%TA.AperFunction,ComponentPad*%
%ADD19C,1.800000*%
%TD*%
%TA.AperFunction,SMDPad,CuDef*%
%ADD20RoundRect,0.250000X-0.450000X0.262500X-0.450000X-0.262500X0.450000X-0.262500X0.450000X0.262500X0*%
%TD*%
%TA.AperFunction,SMDPad,CuDef*%
%ADD21RoundRect,0.250000X1.000000X0.650000X-1.000000X0.650000X-1.000000X-0.650000X1.000000X-0.650000X0*%
%TD*%
%TA.AperFunction,SMDPad,CuDef*%
%ADD22RoundRect,0.250000X0.250000X0.475000X-0.250000X0.475000X-0.250000X-0.475000X0.250000X-0.475000X0*%
%TD*%
%TA.AperFunction,SMDPad,CuDef*%
%ADD23RoundRect,0.150000X-0.662500X-0.150000X0.662500X-0.150000X0.662500X0.150000X-0.662500X0.150000X0*%
%TD*%
%TA.AperFunction,SMDPad,CuDef*%
%ADD24RoundRect,0.250000X-0.262500X-0.450000X0.262500X-0.450000X0.262500X0.450000X-0.262500X0.450000X0*%
%TD*%
%TA.AperFunction,ViaPad*%
%ADD25C,0.600000*%
%TD*%
%TA.AperFunction,ViaPad*%
%ADD26C,0.800000*%
%TD*%
%TA.AperFunction,Conductor*%
%ADD27C,0.200000*%
%TD*%
%TA.AperFunction,Conductor*%
%ADD28C,0.250000*%
%TD*%
G04 APERTURE END LIST*
D10*
%TO.P,U3,1*%
%TO.N,IGN_B*%
X156436300Y-83943000D03*
%TO.P,U3,2*%
%TO.N,GND*%
X157706300Y-83943000D03*
%TO.P,U3,3*%
X157706300Y-77568000D03*
%TO.P,U3,4*%
%TO.N,CONT_B*%
X156436300Y-77568000D03*
%TD*%
D11*
%TO.P,J11,1*%
%TO.N,GND*%
X166357000Y-120024300D03*
D12*
%TO.P,J11,2*%
%TO.N,3.3V*%
X166357000Y-122564300D03*
%TO.P,J11,3*%
%TO.N,SCL*%
X166357000Y-125104300D03*
%TO.P,J11,4*%
%TO.N,SDA*%
X166357000Y-127644300D03*
%TD*%
D13*
%TO.P,D5,1*%
%TO.N,IGN_A*%
X184145500Y-119950500D03*
%TO.P,D5,2*%
%TO.N,IGN_B*%
X188145500Y-119950500D03*
%TD*%
D14*
%TO.P,D4,1*%
%TO.N,Net-(D4-K)*%
X159908500Y-122051000D03*
%TO.P,D4,2*%
%TO.N,Net-(D4-A)*%
X163208500Y-122051000D03*
%TD*%
D11*
%TO.P,J10,1*%
%TO.N,RELE_ARM*%
X162692400Y-125105000D03*
D12*
%TO.P,J10,2*%
%TO.N,RELE*%
X162692400Y-127645000D03*
%TD*%
D11*
%TO.P,J8,1,Pin_1_1*%
%TO.N,VSYS*%
X180537800Y-122605700D03*
D12*
%TO.P,J8,2,Pin_2_2*%
%TO.N,GND*%
X180537800Y-125145700D03*
%TO.P,J8,3,Pin_3_3*%
%TO.N,RELE*%
X180537800Y-127685700D03*
%TD*%
D15*
%TO.P,R5,1*%
%TO.N,RELE*%
X171400600Y-120183800D03*
%TO.P,R5,2*%
%TO.N,VSYS*%
X171400600Y-118358800D03*
%TD*%
D16*
%TO.P,D1,1*%
%TO.N,Net-(D1-Pad1)*%
X177439900Y-120861400D03*
%TO.P,D1,2*%
%TO.N,LED_Y*%
X177439900Y-122736400D03*
%TD*%
D11*
%TO.P,J7,1,Pin_1_1*%
%TO.N,EXT_5V*%
X130949500Y-125108600D03*
D12*
%TO.P,J7,2,Pin_2_2*%
%TO.N,GND*%
X130949500Y-127648600D03*
%TD*%
D11*
%TO.P,J9,1*%
%TO.N,GND*%
X170182000Y-125122800D03*
D12*
%TO.P,J9,2*%
%TO.N,LED_BTN*%
X170182000Y-127662800D03*
%TD*%
D17*
%TO.P,R6,1*%
%TO.N,3.3V*%
X167977400Y-112243800D03*
%TO.P,R6,2*%
%TO.N,CONT_A*%
X166152400Y-112243800D03*
%TD*%
D15*
%TO.P,R1,1*%
%TO.N,Net-(D1-Pad1)*%
X171508200Y-116524000D03*
%TO.P,R1,2*%
%TO.N,GND*%
X171508200Y-114699000D03*
%TD*%
D11*
%TO.P,J6,1*%
%TO.N,GND*%
X197172200Y-110246600D03*
%TD*%
D16*
%TO.P,D2,1*%
%TO.N,Net-(D2-Pad1)*%
X183522900Y-126244300D03*
%TO.P,D2,2*%
%TO.N,LED_R*%
X183522900Y-128119300D03*
%TD*%
D11*
%TO.P,J4,1*%
%TO.N,GND*%
X197184500Y-114429400D03*
%TD*%
D18*
%TO.P,FID3,*%
%TO.N,*%
X122475000Y-125975000D03*
%TD*%
D19*
%TO.P,U1,1,GND_1*%
%TO.N,GND*%
X189200000Y-92890000D03*
%TO.P,U1,2,GND_2*%
X189200000Y-90349999D03*
%TO.P,U1,3,3.3V_3*%
%TO.N,3.3V*%
X189200000Y-87809999D03*
%TO.P,U1,4,RESET_4*%
%TO.N,LORA_RST*%
X189200000Y-85269999D03*
%TO.P,U1,5,DIO0_5*%
%TO.N,LORA_DIO0*%
X189200000Y-82730000D03*
%TO.P,U1,6,DIO1_6*%
%TO.N,unconnected-(U1-DIO1-Pad6)*%
X189200000Y-80189999D03*
%TO.P,U1,7,DIO2_7*%
%TO.N,unconnected-(U1-DIO2-Pad7)*%
X189200000Y-77650000D03*
%TO.P,U1,8,DIO3_8*%
%TO.N,unconnected-(U1-DIO3-Pad8)*%
X189200000Y-75109999D03*
%TO.P,U1,9,GND_9*%
%TO.N,GND*%
X163800000Y-75109999D03*
%TO.P,U1,10,DIO4_10*%
%TO.N,unconnected-(U1-DIO4-Pad10)*%
X163800000Y-77650000D03*
%TO.P,U1,11,DIO5_11*%
%TO.N,unconnected-(U1-DIO5-Pad11)*%
X163800000Y-80189999D03*
%TO.P,U1,12,SCK_12*%
%TO.N,LORA_SCK*%
X163800000Y-82730000D03*
%TO.P,U1,13,MISO_13*%
%TO.N,LORA_MISO*%
X163800000Y-85269999D03*
%TO.P,U1,14,MOSI_14*%
%TO.N,LORA_MOSI*%
X163800000Y-87809999D03*
%TO.P,U1,15,NSS_15*%
%TO.N,LORA_NSS*%
X163800000Y-90349999D03*
%TO.P,U1,16,GND_16*%
%TO.N,GND*%
X163800000Y-92890000D03*
%TD*%
D20*
%TO.P,R2,1*%
%TO.N,Net-(D2-Pad1)*%
X177247600Y-126209400D03*
%TO.P,R2,2*%
%TO.N,GND*%
X177247600Y-128034400D03*
%TD*%
D11*
%TO.P,A1,1*%
%TO.N,3.3V*%
X152930000Y-68290000D03*
D12*
%TO.P,A1,2*%
%TO.N,unconnected-(A1-EN-Pad2)*%
X152930000Y-70830000D03*
%TO.P,A1,3*%
%TO.N,unconnected-(A1-GPIO36-Pad3)*%
X152930000Y-73370000D03*
%TO.P,A1,4*%
%TO.N,unconnected-(A1-GPIO39-Pad4)*%
X152930000Y-75910000D03*
%TO.P,A1,5*%
%TO.N,CONT_A*%
X152930000Y-78450000D03*
%TO.P,A1,6*%
%TO.N,CONT_B*%
X152930000Y-80990000D03*
%TO.P,A1,7*%
%TO.N,RELE_ARM*%
X152930000Y-83530000D03*
%TO.P,A1,8*%
%TO.N,EXP6*%
X152930000Y-86070000D03*
%TO.P,A1,9*%
%TO.N,LED_Y*%
X152930000Y-88610000D03*
%TO.P,A1,10*%
%TO.N,LED_R*%
X152930000Y-91150000D03*
%TO.P,A1,11*%
%TO.N,LED_BTN_K*%
X152930000Y-93690000D03*
%TO.P,A1,12*%
%TO.N,BUZZ*%
X152930000Y-96230000D03*
%TO.P,A1,13*%
%TO.N,EXP5*%
X152930000Y-98770000D03*
%TO.P,A1,14*%
%TO.N,GND*%
X152930000Y-101310000D03*
%TO.P,A1,15*%
%TO.N,BTN*%
X152930000Y-103850000D03*
%TO.P,A1,16*%
%TO.N,unconnected-(A1-GPIO9-Pad16)*%
X152930000Y-106390000D03*
%TO.P,A1,17*%
%TO.N,unconnected-(A1-GPIO10-Pad17)*%
X152930000Y-108930000D03*
%TO.P,A1,18*%
%TO.N,unconnected-(A1-GPIO11-Pad18)*%
X152930000Y-111470000D03*
%TO.P,A1,19*%
%TO.N,VSYS*%
X152930000Y-114010000D03*
%TO.P,A1,20*%
%TO.N,unconnected-(A1-GPIO6-Pad20)*%
X130070000Y-114010000D03*
%TO.P,A1,21*%
%TO.N,unconnected-(A1-GPIO7-Pad21)*%
X130070000Y-111470000D03*
%TO.P,A1,22*%
%TO.N,unconnected-(A1-GPIO8-Pad22)*%
X130070000Y-108930000D03*
%TO.P,A1,23*%
%TO.N,EXP3*%
X130070000Y-106390000D03*
%TO.P,A1,24*%
%TO.N,EXP2*%
X130070000Y-103850000D03*
%TO.P,A1,25*%
%TO.N,EXP4*%
X130070000Y-101310000D03*
%TO.P,A1,26*%
%TO.N,EXP1*%
X130070000Y-98770000D03*
%TO.P,A1,27*%
%TO.N,LORA_DIO0*%
X130070000Y-96230000D03*
%TO.P,A1,28*%
%TO.N,LORA_RST*%
X130070000Y-93690000D03*
%TO.P,A1,29*%
%TO.N,LORA_NSS*%
X130070000Y-91150000D03*
%TO.P,A1,30*%
%TO.N,LORA_SCK*%
X130070000Y-88610000D03*
%TO.P,A1,31*%
%TO.N,LORA_MISO*%
X130070000Y-86070000D03*
%TO.P,A1,32*%
%TO.N,GND*%
X130070000Y-83530000D03*
%TO.P,A1,33*%
%TO.N,SDA*%
X130070000Y-80990000D03*
%TO.P,A1,34*%
%TO.N,unconnected-(A1-GPIO3-Pad34)*%
X130070000Y-78450000D03*
%TO.P,A1,35*%
%TO.N,unconnected-(A1-GPIO1-Pad35)*%
X130070000Y-75910000D03*
%TO.P,A1,36*%
%TO.N,SCL*%
X130070000Y-73370000D03*
%TO.P,A1,37*%
%TO.N,LORA_MOSI*%
X130070000Y-70830000D03*
%TO.P,A1,38*%
%TO.N,GND*%
X130070000Y-68290000D03*
%TD*%
D18*
%TO.P,FID2,*%
%TO.N,*%
X203475000Y-125975000D03*
%TD*%
%TO.P,FID1,*%
%TO.N,*%
X122475000Y-73975000D03*
%TD*%
D11*
%TO.P,J12,1*%
%TO.N,EXP1*%
X174419500Y-127670200D03*
D12*
%TO.P,J12,2*%
%TO.N,EXP2*%
X174419500Y-125130200D03*
%TO.P,J12,3*%
%TO.N,EXP3*%
X174419500Y-122590200D03*
%TO.P,J12,4*%
%TO.N,EXP4*%
X174419500Y-120050200D03*
%TO.P,J12,5*%
%TO.N,EXP5*%
X174419500Y-117510200D03*
%TO.P,J12,6*%
%TO.N,EXP6*%
X174419500Y-114970200D03*
%TO.P,J12,7*%
%TO.N,3.3V*%
X174419500Y-112430200D03*
%TO.P,J12,8*%
%TO.N,GND*%
X174419500Y-109890200D03*
%TD*%
D21*
%TO.P,D3,1*%
%TO.N,VSYS*%
X167830100Y-116316400D03*
%TO.P,D3,2*%
%TO.N,EXT_5V*%
X163830100Y-116316400D03*
%TD*%
D22*
%TO.P,C1,1*%
%TO.N,3.3V*%
X181397600Y-118887200D03*
%TO.P,C1,2*%
%TO.N,GND*%
X179497600Y-118887200D03*
%TD*%
D11*
%TO.P,J5,1*%
%TO.N,BTN*%
X197183900Y-100927600D03*
%TD*%
D15*
%TO.P,R7,1*%
%TO.N,3.3V*%
X161220200Y-120006100D03*
%TO.P,R7,2*%
%TO.N,CONT_B*%
X161220200Y-118181100D03*
%TD*%
D22*
%TO.P,C2,1*%
%TO.N,3.3V*%
X156580000Y-127001700D03*
%TO.P,C2,2*%
%TO.N,GND*%
X154680000Y-127001700D03*
%TD*%
D20*
%TO.P,R4,1*%
%TO.N,3.3V*%
X194281800Y-126448600D03*
%TO.P,R4,2*%
%TO.N,Net-(D4-K)*%
X194281800Y-128273600D03*
%TD*%
D11*
%TO.P,J13,1*%
%TO.N,IGN_A*%
X197179600Y-79602400D03*
D12*
%TO.P,J13,2*%
X197179600Y-82142400D03*
%TO.P,J13,3*%
%TO.N,IGN_B*%
X197179600Y-84682400D03*
%TO.P,J13,4*%
X197179600Y-87222400D03*
%TD*%
D23*
%TO.P,U2,1*%
%TO.N,Net-(D4-A)*%
X186466600Y-115861400D03*
%TO.P,U2,2*%
%TO.N,IGN_A*%
X186466600Y-117131400D03*
%TO.P,U2,3*%
%TO.N,GND*%
X192841600Y-117131400D03*
%TO.P,U2,4*%
%TO.N,CONT_A*%
X192841600Y-115861400D03*
%TD*%
D11*
%TO.P,J3,1*%
%TO.N,BUZZ*%
X186538300Y-127671400D03*
%TD*%
D24*
%TO.P,R3,1*%
%TO.N,LED_BTN_K*%
X169918700Y-122025300D03*
%TO.P,R3,2*%
%TO.N,LED_BTN*%
X171743700Y-122025300D03*
%TD*%
D25*
%TO.N,IGN_B*%
X188943000Y-118299700D03*
D26*
%TO.N,GND*%
X182500000Y-124000000D03*
X133000000Y-133000000D03*
X187000000Y-85000000D03*
X125500000Y-124000000D03*
D25*
X167307000Y-120024300D03*
D26*
X187000000Y-79000000D03*
X187000000Y-91000000D03*
X161500000Y-76000000D03*
X194500000Y-88000000D03*
X167500000Y-100000000D03*
X151000000Y-73000000D03*
X151000000Y-67000000D03*
X193000000Y-109000000D03*
X133000000Y-79000000D03*
X146500000Y-82000000D03*
X193000000Y-67000000D03*
D25*
X171067849Y-125465980D03*
D26*
X139000000Y-133000000D03*
X121000000Y-67000000D03*
X148000000Y-121000000D03*
X163000000Y-133000000D03*
X137500000Y-100000000D03*
X203500000Y-76000000D03*
X175000000Y-133000000D03*
X200500000Y-82000000D03*
X143500000Y-100000000D03*
X173500000Y-106000000D03*
X148000000Y-91000000D03*
X175000000Y-85000000D03*
X140500000Y-112000000D03*
D25*
X158225569Y-82805960D03*
D26*
X133000000Y-121000000D03*
X194500000Y-118000000D03*
X179500000Y-106000000D03*
X133000000Y-115000000D03*
X170500000Y-76000000D03*
X187000000Y-97000000D03*
X194500000Y-130000000D03*
X121000000Y-133000000D03*
X181000000Y-85000000D03*
X133000000Y-109000000D03*
X178000000Y-97000000D03*
X203500000Y-70000000D03*
X203500000Y-88000000D03*
X124000000Y-79000000D03*
X127000000Y-103000000D03*
X121000000Y-109000000D03*
X146500000Y-106000000D03*
X194500000Y-124000000D03*
X121000000Y-103000000D03*
X196000000Y-103000000D03*
X200500000Y-112000000D03*
X143500000Y-70000000D03*
X158500000Y-106000000D03*
X182500000Y-70000000D03*
X154000000Y-121000000D03*
X134500000Y-70000000D03*
X143500000Y-76000000D03*
X194500000Y-76000000D03*
X127000000Y-67000000D03*
X178000000Y-115000000D03*
X134500000Y-94000000D03*
X155500000Y-94000000D03*
X184000000Y-115000000D03*
X181000000Y-79000000D03*
X166000000Y-85000000D03*
X142000000Y-127000000D03*
X122500000Y-118000000D03*
X155471000Y-99498000D03*
X145000000Y-133000000D03*
X127000000Y-133000000D03*
X203500000Y-130000000D03*
X136000000Y-127000000D03*
D25*
X170308834Y-114346834D03*
D26*
X200500000Y-118000000D03*
X161500000Y-94000000D03*
X172000000Y-67000000D03*
X124000000Y-73000000D03*
X127000000Y-109000000D03*
X124000000Y-97000000D03*
X196000000Y-97000000D03*
X140500000Y-118000000D03*
X125500000Y-88000000D03*
X170500000Y-94000000D03*
X200500000Y-124000000D03*
X157000000Y-67000000D03*
X172495000Y-125548000D03*
X187000000Y-103000000D03*
X184000000Y-133000000D03*
X163000000Y-67000000D03*
X148000000Y-127000000D03*
X203500000Y-94000000D03*
X202000000Y-103000000D03*
X157000000Y-133000000D03*
X158500000Y-112000000D03*
X140500000Y-82000000D03*
X160000000Y-127000000D03*
X151000000Y-133000000D03*
X169000000Y-133000000D03*
X140500000Y-94000000D03*
X187000000Y-109000000D03*
D25*
%TO.N,CONT_B*%
X153803400Y-116866800D03*
%TO.N,3.3V*%
X177644400Y-115897000D03*
X161767100Y-113174900D03*
%TO.N,SCL*%
X136420000Y-108267500D03*
X157390400Y-111302200D03*
%TO.N,IGN_A*%
X186005000Y-113162500D03*
%TO.N,Net-(D4-A)*%
X168169600Y-121110200D03*
X185127800Y-116863900D03*
%TO.N,LED_Y*%
X176230500Y-122895600D03*
%TO.N,CONT_A*%
X165484100Y-104854900D03*
%TO.N,LED_R*%
X182210000Y-128496700D03*
%TO.N,LORA_MOSI*%
X156625000Y-87870000D03*
%TO.N,LED_BTN_K*%
X152964000Y-116796100D03*
X149822500Y-94505000D03*
%TO.N,EXP3*%
X165874600Y-115424100D03*
%TO.N,EXP2*%
X159563000Y-112805000D03*
%TO.N,EXP4*%
X158702800Y-108166200D03*
%TD*%
%TO.N,IGN_B*%
D27*
X188145500Y-119950500D02*
X188943000Y-119153000D01*
X193993200Y-81496000D02*
X158647100Y-81496000D01*
X158647100Y-81496000D02*
X156436300Y-83706800D01*
X197179600Y-84682400D02*
X193993200Y-81496000D01*
X188943000Y-119153000D02*
X188943000Y-118299700D01*
X156436300Y-83706800D02*
X156436300Y-83943000D01*
%TO.N,GND*%
D28*
X157706300Y-83943000D02*
X158225569Y-82805960D01*
X171508200Y-114699000D02*
X170308834Y-114346834D01*
X170182000Y-125122800D02*
X171067849Y-125465980D01*
X166357000Y-120024300D02*
X167307000Y-120024300D01*
%TO.N,CONT_B*%
D27*
X152930000Y-80990000D02*
X153014300Y-80990000D01*
X159905900Y-116866800D02*
X161220200Y-118181100D01*
X153803400Y-116866800D02*
X159905900Y-116866800D01*
X153014300Y-80990000D02*
X156436300Y-77568000D01*
%TO.N,3.3V*%
X174419500Y-112430200D02*
X168163800Y-112430200D01*
X161220200Y-122956600D02*
X161220200Y-120006100D01*
X161220200Y-122956600D02*
X165964700Y-122956600D01*
X168163800Y-112430200D02*
X167977400Y-112243800D01*
X160625100Y-122956600D02*
X161220200Y-122956600D01*
X163712000Y-111230000D02*
X166963600Y-111230000D01*
X166963600Y-111230000D02*
X167977400Y-112243800D01*
X178407400Y-115897000D02*
X177644400Y-115897000D01*
X181397600Y-118887200D02*
X178407400Y-115897000D01*
X181397600Y-119675100D02*
X181397600Y-118887200D01*
X165964700Y-122956600D02*
X166357000Y-122564300D01*
X161767100Y-113174900D02*
X163712000Y-111230000D01*
X156580000Y-127001700D02*
X160625100Y-122956600D01*
X194281800Y-126448600D02*
X188171100Y-126448600D01*
X188171100Y-126448600D02*
X181397600Y-119675100D01*
%TO.N,SCL*%
X156288200Y-110200000D02*
X157390400Y-111302200D01*
X136420000Y-108267500D02*
X138352500Y-110200000D01*
X138352500Y-110200000D02*
X156288200Y-110200000D01*
%TO.N,IGN_A*%
X187611600Y-114769100D02*
X186005000Y-113162500D01*
X186466600Y-117131400D02*
X184145500Y-119452500D01*
X187611600Y-116168600D02*
X187611600Y-114769100D01*
X186466600Y-117131400D02*
X186648800Y-117131400D01*
X184145500Y-119452500D02*
X184145500Y-119950500D01*
X186648800Y-117131400D02*
X187611600Y-116168600D01*
%TO.N,Net-(D4-K)*%
X155735700Y-126223800D02*
X155735700Y-127732000D01*
X159908500Y-122051000D02*
X155735700Y-126223800D01*
X155735700Y-127732000D02*
X157323000Y-129319300D01*
X193236100Y-129319300D02*
X194281800Y-128273600D01*
X157323000Y-129319300D02*
X193236100Y-129319300D01*
%TO.N,Net-(D4-A)*%
X163965200Y-121294300D02*
X163208500Y-122051000D01*
X186130300Y-115861400D02*
X185127800Y-116863900D01*
X168169600Y-121110200D02*
X167985500Y-121294300D01*
X167985500Y-121294300D02*
X163965200Y-121294300D01*
X186466600Y-115861400D02*
X186130300Y-115861400D01*
%TO.N,RELE*%
X170263400Y-120183800D02*
X168377700Y-122069500D01*
X168377700Y-122069500D02*
X168377700Y-122221400D01*
X162692400Y-127645000D02*
X163930200Y-128882800D01*
X179340700Y-128882800D02*
X180537800Y-127685700D01*
X171400600Y-120183800D02*
X170263400Y-120183800D01*
X163963100Y-125869500D02*
X163963100Y-126374300D01*
X168377700Y-122221400D02*
X166646500Y-123952600D01*
X165880000Y-123952600D02*
X163963100Y-125869500D01*
X163963100Y-126374300D02*
X162692400Y-127645000D01*
X166646500Y-123952600D02*
X165880000Y-123952600D01*
X163930200Y-128882800D02*
X179340700Y-128882800D01*
%TO.N,VSYS*%
X152930000Y-114010000D02*
X165523700Y-114010000D01*
X175324000Y-116240200D02*
X173799200Y-116240200D01*
X167830100Y-116316400D02*
X169358200Y-116316400D01*
X169766300Y-116724400D02*
X171400600Y-118358800D01*
X169358200Y-116316400D02*
X169766300Y-116724400D01*
X173799200Y-116240200D02*
X173249100Y-115690100D01*
X180537800Y-122605700D02*
X180537800Y-121454000D01*
X180537800Y-121454000D02*
X175324000Y-116240200D01*
X165523700Y-114010000D02*
X167830100Y-116316400D01*
X170800600Y-115690100D02*
X169766300Y-116724400D01*
X173249100Y-115690100D02*
X170800600Y-115690100D01*
%TO.N,Net-(D1-Pad1)*%
X173756500Y-118772300D02*
X171508200Y-116524000D01*
X175350800Y-118772300D02*
X173756500Y-118772300D01*
X177439900Y-120861400D02*
X175350800Y-118772300D01*
%TO.N,LED_Y*%
X176230500Y-122895600D02*
X177280700Y-122895600D01*
X177280700Y-122895600D02*
X177439900Y-122736400D01*
%TO.N,EXT_5V*%
X141015400Y-116194400D02*
X132101200Y-125108600D01*
X130949500Y-125108600D02*
X132101200Y-125108600D01*
X163830100Y-116316400D02*
X163708100Y-116194400D01*
X163708100Y-116194400D02*
X141015400Y-116194400D01*
%TO.N,LED_BTN*%
X170182000Y-127662800D02*
X171743700Y-126101100D01*
X171743700Y-126101100D02*
X171743700Y-122025300D01*
%TO.N,CONT_A*%
X171027800Y-104854900D02*
X165484100Y-104854900D01*
X177790000Y-111617100D02*
X171027800Y-104854900D01*
X166152400Y-112243800D02*
X167518400Y-113609800D01*
X177790000Y-112544200D02*
X177790000Y-111617100D01*
X177790000Y-112544200D02*
X189524400Y-112544200D01*
X176724400Y-113609800D02*
X177790000Y-112544200D01*
X167518400Y-113609800D02*
X176724400Y-113609800D01*
X189524400Y-112544200D02*
X192841600Y-115861400D01*
%TO.N,Net-(D2-Pad1)*%
X177247600Y-126209400D02*
X177368200Y-126330000D01*
X183437200Y-126330000D02*
X183522900Y-126244300D01*
X177368200Y-126330000D02*
X183437200Y-126330000D01*
%TO.N,LED_R*%
X182210000Y-128496700D02*
X183145500Y-128496700D01*
X183145500Y-128496700D02*
X183522900Y-128119300D01*
%TO.N,LORA_RST*%
X131280000Y-92480000D02*
X130070000Y-93690000D01*
X189200000Y-85270000D02*
X182850000Y-91620000D01*
X157799400Y-92480000D02*
X131280000Y-92480000D01*
X158659400Y-91620000D02*
X157799400Y-92480000D01*
X182850000Y-91620000D02*
X158659400Y-91620000D01*
%TO.N,LORA_DIO0*%
X130070000Y-96230000D02*
X148948400Y-96230000D01*
X148948400Y-96230000D02*
X150218400Y-94960000D01*
X189651900Y-86539900D02*
X190450200Y-85741600D01*
X190450200Y-85741600D02*
X190450200Y-83980200D01*
X180214300Y-94960000D02*
X188634400Y-86539900D01*
X150218400Y-94960000D02*
X180214300Y-94960000D01*
X188634400Y-86539900D02*
X189651900Y-86539900D01*
X190450200Y-83980200D02*
X189200000Y-82730000D01*
%TO.N,LORA_SCK*%
X163070000Y-86540000D02*
X162341700Y-87268300D01*
X164231800Y-86540000D02*
X163070000Y-86540000D01*
X165026300Y-85745500D02*
X164231800Y-86540000D01*
X162341700Y-87268300D02*
X131411700Y-87268300D01*
X131411700Y-87268300D02*
X130070000Y-88610000D01*
X163800000Y-82730000D02*
X165026300Y-83956300D01*
X165026300Y-83956300D02*
X165026300Y-85745500D01*
%TO.N,LORA_MISO*%
X155958500Y-84917400D02*
X156311100Y-85270000D01*
X156311100Y-85270000D02*
X163800000Y-85270000D01*
X131222600Y-84917400D02*
X155958500Y-84917400D01*
X130070000Y-86070000D02*
X131222600Y-84917400D01*
%TO.N,LORA_MOSI*%
X163740000Y-87870000D02*
X163800000Y-87810000D01*
X156625000Y-87870000D02*
X163740000Y-87870000D01*
%TO.N,LORA_NSS*%
X163800000Y-90350000D02*
X163433800Y-89983800D01*
X163433800Y-89983800D02*
X131236200Y-89983800D01*
X131236200Y-89983800D02*
X130070000Y-91150000D01*
%TO.N,LED_BTN_K*%
X170299700Y-118872600D02*
X170624000Y-119196900D01*
X171939700Y-119196900D02*
X172427400Y-119684600D01*
X162063000Y-119032500D02*
X162222900Y-118872600D01*
X155075700Y-119032500D02*
X162063000Y-119032500D01*
X172427400Y-119684600D02*
X172427400Y-120654900D01*
X172427400Y-120654900D02*
X172071500Y-121010800D01*
X152964000Y-116796100D02*
X152964000Y-116920800D01*
X152930000Y-93690000D02*
X150637500Y-93690000D01*
X172071500Y-121010800D02*
X170933200Y-121010800D01*
X170933200Y-121010800D02*
X169918700Y-122025300D01*
X152964000Y-116920800D02*
X155075700Y-119032500D01*
X170624000Y-119196900D02*
X171939700Y-119196900D01*
X162222900Y-118872600D02*
X170299700Y-118872600D01*
X150637500Y-93690000D02*
X149822500Y-94505000D01*
%TO.N,BTN*%
X193109800Y-103850000D02*
X196032200Y-100927600D01*
X197183900Y-100927600D02*
X196032200Y-100927600D01*
X152930000Y-103850000D02*
X193109800Y-103850000D01*
%TO.N,EXP3*%
X129677500Y-110200000D02*
X131950600Y-110200000D01*
X128917800Y-107542200D02*
X128917800Y-109440300D01*
X153476600Y-115176400D02*
X153548500Y-115104500D01*
X128917800Y-109440300D02*
X129677500Y-110200000D01*
X131950600Y-110200000D02*
X136927000Y-115176400D01*
X153548500Y-115104500D02*
X165555000Y-115104500D01*
X165555000Y-115104500D02*
X165874600Y-115424100D01*
X130070000Y-106390000D02*
X128917800Y-107542200D01*
X136927000Y-115176400D02*
X153476600Y-115176400D01*
%TO.N,EXP2*%
X139025000Y-112805000D02*
X130070000Y-103850000D01*
X159563000Y-112805000D02*
X139025000Y-112805000D01*
%TO.N,EXP4*%
X158196600Y-107660000D02*
X158702800Y-108166200D01*
X136420000Y-107660000D02*
X158196600Y-107660000D01*
X130070000Y-101310000D02*
X136420000Y-107660000D01*
%TD*%
%TA.AperFunction,Conductor*%
%TO.N,GND*%
G36*
X165607188Y-123204062D02*
G01*
X165638047Y-123227741D01*
X165733880Y-123323574D01*
X165733883Y-123323576D01*
X165893972Y-123430545D01*
X165893976Y-123430547D01*
X165893980Y-123430550D01*
X165893981Y-123430550D01*
X165893984Y-123430552D01*
X165913032Y-123438442D01*
X165974222Y-123485395D01*
X166003737Y-123556652D01*
X165993670Y-123633120D01*
X165946717Y-123694310D01*
X165875460Y-123723825D01*
X165856012Y-123725100D01*
X165834745Y-123725100D01*
X165751134Y-123759732D01*
X163924259Y-125586607D01*
X163857464Y-125625171D01*
X163780336Y-125625171D01*
X163713541Y-125586607D01*
X163674977Y-125519812D01*
X163669900Y-125481248D01*
X163669900Y-124242446D01*
X163669899Y-124242438D01*
X163663217Y-124208849D01*
X163662502Y-124205252D01*
X163636728Y-124166679D01*
X163634323Y-124163079D01*
X163634320Y-124163076D01*
X163592150Y-124134899D01*
X163592146Y-124134897D01*
X163554961Y-124127500D01*
X163554958Y-124127500D01*
X161829842Y-124127500D01*
X161829838Y-124127500D01*
X161792653Y-124134897D01*
X161792649Y-124134899D01*
X161750479Y-124163076D01*
X161750476Y-124163079D01*
X161722299Y-124205249D01*
X161722297Y-124205253D01*
X161714900Y-124242438D01*
X161714900Y-125967561D01*
X161722297Y-126004746D01*
X161722299Y-126004750D01*
X161750476Y-126046920D01*
X161750479Y-126046923D01*
X161755867Y-126050523D01*
X161792652Y-126075102D01*
X161829842Y-126082500D01*
X161829846Y-126082500D01*
X163554952Y-126082500D01*
X163554958Y-126082500D01*
X163554963Y-126082498D01*
X163560057Y-126081997D01*
X163636156Y-126094557D01*
X163695779Y-126143484D01*
X163722951Y-126215667D01*
X163710391Y-126291766D01*
X163680028Y-126335638D01*
X163283445Y-126732221D01*
X163216650Y-126770785D01*
X163139522Y-126770785D01*
X163121067Y-126764520D01*
X162977529Y-126705065D01*
X162977523Y-126705063D01*
X162788675Y-126667500D01*
X162596125Y-126667500D01*
X162407276Y-126705063D01*
X162407270Y-126705065D01*
X162229387Y-126778746D01*
X162229372Y-126778754D01*
X162069283Y-126885723D01*
X162069276Y-126885729D01*
X161933129Y-127021876D01*
X161933123Y-127021883D01*
X161826154Y-127181972D01*
X161826146Y-127181987D01*
X161752465Y-127359870D01*
X161752463Y-127359876D01*
X161714900Y-127548724D01*
X161714900Y-127741275D01*
X161752463Y-127930123D01*
X161752465Y-127930129D01*
X161826146Y-128108012D01*
X161826154Y-128108027D01*
X161932658Y-128267420D01*
X161933126Y-128268120D01*
X162069280Y-128404274D01*
X162069283Y-128404276D01*
X162229372Y-128511245D01*
X162229374Y-128511246D01*
X162229380Y-128511250D01*
X162407274Y-128584936D01*
X162596125Y-128622500D01*
X162788675Y-128622500D01*
X162977526Y-128584936D01*
X163121069Y-128525478D01*
X163197534Y-128515412D01*
X163268791Y-128544927D01*
X163283445Y-128557778D01*
X163563107Y-128837441D01*
X163601671Y-128904236D01*
X163601671Y-128981364D01*
X163563107Y-129048159D01*
X163496312Y-129086723D01*
X163457748Y-129091800D01*
X157478951Y-129091800D01*
X157404451Y-129071838D01*
X157373592Y-129048159D01*
X156433991Y-128108558D01*
X156395427Y-128041763D01*
X156395427Y-127964635D01*
X156433991Y-127897840D01*
X156500786Y-127859276D01*
X156539345Y-127854199D01*
X156865826Y-127854199D01*
X156939204Y-127843509D01*
X157052390Y-127788176D01*
X157141476Y-127699090D01*
X157162129Y-127656843D01*
X157196809Y-127585905D01*
X157207499Y-127512535D01*
X157207499Y-127512533D01*
X157207500Y-127512527D01*
X157207499Y-126757649D01*
X157227461Y-126683150D01*
X157251136Y-126652295D01*
X160675692Y-123227741D01*
X160742487Y-123189177D01*
X160781051Y-123184100D01*
X161174947Y-123184100D01*
X165532688Y-123184100D01*
X165607188Y-123204062D01*
G37*
%TD.AperFunction*%
%TA.AperFunction,Conductor*%
G36*
X171061239Y-121415212D02*
G01*
X171099803Y-121482007D01*
X171102854Y-121534000D01*
X171104090Y-121534090D01*
X171103700Y-121539474D01*
X171103700Y-122511122D01*
X171103702Y-122511138D01*
X171114391Y-122584505D01*
X171169722Y-122697688D01*
X171258811Y-122786777D01*
X171286852Y-122800485D01*
X171371996Y-122842109D01*
X171388682Y-122844540D01*
X171459524Y-122875033D01*
X171505630Y-122936863D01*
X171516200Y-122991983D01*
X171516200Y-125945148D01*
X171496238Y-126019648D01*
X171472559Y-126050507D01*
X170773045Y-126750020D01*
X170706250Y-126788584D01*
X170629122Y-126788584D01*
X170610667Y-126782320D01*
X170545754Y-126755432D01*
X170467126Y-126722864D01*
X170467122Y-126722863D01*
X170278275Y-126685300D01*
X170085725Y-126685300D01*
X169896876Y-126722863D01*
X169896870Y-126722865D01*
X169718987Y-126796546D01*
X169718972Y-126796554D01*
X169558883Y-126903523D01*
X169558876Y-126903529D01*
X169422729Y-127039676D01*
X169422723Y-127039683D01*
X169315754Y-127199772D01*
X169315746Y-127199787D01*
X169242065Y-127377670D01*
X169242063Y-127377676D01*
X169204500Y-127566524D01*
X169204500Y-127759075D01*
X169242063Y-127947923D01*
X169242065Y-127947929D01*
X169315746Y-128125812D01*
X169315754Y-128125827D01*
X169422723Y-128285916D01*
X169422729Y-128285923D01*
X169537747Y-128400941D01*
X169576311Y-128467736D01*
X169576311Y-128544864D01*
X169537747Y-128611659D01*
X169470952Y-128650223D01*
X169432388Y-128655300D01*
X167088112Y-128655300D01*
X167013612Y-128635338D01*
X166959074Y-128580800D01*
X166939112Y-128506300D01*
X166959074Y-128431800D01*
X166982753Y-128400941D01*
X166985413Y-128398281D01*
X167116274Y-128267420D01*
X167223250Y-128107320D01*
X167296936Y-127929426D01*
X167334500Y-127740575D01*
X167334500Y-127548025D01*
X167296936Y-127359174D01*
X167223250Y-127181280D01*
X167191074Y-127133126D01*
X167116276Y-127021183D01*
X167116274Y-127021180D01*
X166980120Y-126885026D01*
X166980116Y-126885023D01*
X166820027Y-126778054D01*
X166820021Y-126778051D01*
X166820020Y-126778050D01*
X166820017Y-126778049D01*
X166820012Y-126778046D01*
X166642129Y-126704365D01*
X166642123Y-126704363D01*
X166453275Y-126666800D01*
X166260725Y-126666800D01*
X166071876Y-126704363D01*
X166071870Y-126704365D01*
X165893987Y-126778046D01*
X165893972Y-126778054D01*
X165733883Y-126885023D01*
X165733876Y-126885029D01*
X165597729Y-127021176D01*
X165597723Y-127021183D01*
X165490754Y-127181272D01*
X165490746Y-127181287D01*
X165417065Y-127359170D01*
X165417063Y-127359176D01*
X165379500Y-127548024D01*
X165379500Y-127740575D01*
X165417063Y-127929423D01*
X165417065Y-127929429D01*
X165490746Y-128107312D01*
X165490754Y-128107327D01*
X165597723Y-128267416D01*
X165597729Y-128267423D01*
X165731247Y-128400941D01*
X165769811Y-128467736D01*
X165769811Y-128544864D01*
X165731247Y-128611659D01*
X165664452Y-128650223D01*
X165625888Y-128655300D01*
X164086152Y-128655300D01*
X164011652Y-128635338D01*
X163980793Y-128611659D01*
X163800934Y-128431800D01*
X163605177Y-128236044D01*
X163566614Y-128169250D01*
X163566614Y-128092122D01*
X163572875Y-128073677D01*
X163632336Y-127930126D01*
X163669900Y-127741275D01*
X163669900Y-127548725D01*
X163632336Y-127359874D01*
X163572878Y-127216331D01*
X163562812Y-127139863D01*
X163592328Y-127068606D01*
X163605169Y-127053962D01*
X164155965Y-126503168D01*
X164161058Y-126490873D01*
X164190600Y-126419553D01*
X164190600Y-126025450D01*
X164210562Y-125950950D01*
X164234237Y-125920095D01*
X165125141Y-125029190D01*
X165191936Y-124990627D01*
X165269064Y-124990627D01*
X165335859Y-125029191D01*
X165374423Y-125095986D01*
X165379500Y-125134550D01*
X165379500Y-125200575D01*
X165417063Y-125389423D01*
X165417065Y-125389429D01*
X165490746Y-125567312D01*
X165490754Y-125567327D01*
X165595782Y-125724511D01*
X165597726Y-125727420D01*
X165733880Y-125863574D01*
X165733883Y-125863576D01*
X165893972Y-125970545D01*
X165893974Y-125970546D01*
X165893980Y-125970550D01*
X166071874Y-126044236D01*
X166260725Y-126081800D01*
X166453275Y-126081800D01*
X166642126Y-126044236D01*
X166820020Y-125970550D01*
X166980120Y-125863574D01*
X167116274Y-125727420D01*
X167223250Y-125567320D01*
X167296936Y-125389426D01*
X167334500Y-125200575D01*
X167334500Y-125008025D01*
X167331039Y-124990627D01*
X167313331Y-124901598D01*
X167296936Y-124819174D01*
X167223250Y-124641280D01*
X167116274Y-124481180D01*
X166980120Y-124345026D01*
X166980116Y-124345023D01*
X166888710Y-124283947D01*
X166837857Y-124225959D01*
X166822810Y-124150313D01*
X166847603Y-124077278D01*
X166866127Y-124054705D01*
X168570566Y-122350268D01*
X168583290Y-122319548D01*
X168595056Y-122291142D01*
X168595059Y-122291132D01*
X168605200Y-122266653D01*
X168605200Y-122225450D01*
X168625162Y-122150950D01*
X168648837Y-122120095D01*
X169024341Y-121744590D01*
X169091136Y-121706027D01*
X169168264Y-121706027D01*
X169235059Y-121744591D01*
X169273623Y-121811386D01*
X169278700Y-121849950D01*
X169278700Y-122511121D01*
X169278702Y-122511138D01*
X169289391Y-122584505D01*
X169344722Y-122697688D01*
X169433811Y-122786777D01*
X169546994Y-122842109D01*
X169577168Y-122846505D01*
X169620373Y-122852800D01*
X170217026Y-122852799D01*
X170290404Y-122842109D01*
X170403590Y-122786776D01*
X170492676Y-122697690D01*
X170507142Y-122668100D01*
X170548009Y-122584505D01*
X170558699Y-122511135D01*
X170558699Y-122511133D01*
X170558700Y-122511127D01*
X170558699Y-121768751D01*
X170578661Y-121694252D01*
X170602340Y-121663393D01*
X170789335Y-121476398D01*
X170850522Y-121415211D01*
X170917316Y-121376648D01*
X170994444Y-121376648D01*
X171061239Y-121415212D01*
G37*
%TD.AperFunction*%
%TA.AperFunction,Conductor*%
G36*
X170218249Y-119120062D02*
G01*
X170249108Y-119143741D01*
X170431135Y-119325768D01*
X170495132Y-119389765D01*
X170578747Y-119424400D01*
X170578748Y-119424400D01*
X170584669Y-119425578D01*
X170653843Y-119459691D01*
X170696693Y-119523821D01*
X170701737Y-119600784D01*
X170667624Y-119669958D01*
X170660961Y-119677072D01*
X170639122Y-119698911D01*
X170583791Y-119812094D01*
X170581359Y-119828785D01*
X170550863Y-119899628D01*
X170489031Y-119945732D01*
X170433916Y-119956300D01*
X170218146Y-119956300D01*
X170207172Y-119960846D01*
X170207170Y-119960847D01*
X170188608Y-119968535D01*
X170134532Y-119990933D01*
X168851459Y-121274007D01*
X168784664Y-121312571D01*
X168707536Y-121312571D01*
X168640741Y-121274007D01*
X168602177Y-121207212D01*
X168597100Y-121168648D01*
X168597100Y-121053920D01*
X168597099Y-121053916D01*
X168590075Y-121027700D01*
X168567967Y-120945191D01*
X168567067Y-120943633D01*
X168521367Y-120864479D01*
X168511685Y-120847709D01*
X168432091Y-120768115D01*
X168411487Y-120756219D01*
X168334610Y-120711833D01*
X168225883Y-120682700D01*
X168225881Y-120682700D01*
X168113319Y-120682700D01*
X168113316Y-120682700D01*
X168004589Y-120711833D01*
X167907110Y-120768114D01*
X167827514Y-120847710D01*
X167771235Y-120945187D01*
X167771233Y-120945191D01*
X167768238Y-120956365D01*
X167729678Y-121023157D01*
X167662883Y-121061722D01*
X167624317Y-121066800D01*
X163919947Y-121066800D01*
X163878139Y-121084117D01*
X163836331Y-121101435D01*
X163836327Y-121101438D01*
X163648394Y-121289370D01*
X163581599Y-121327934D01*
X163521555Y-121331454D01*
X163466966Y-121323501D01*
X163466953Y-121323500D01*
X163466952Y-121323500D01*
X162950052Y-121323500D01*
X162950035Y-121323502D01*
X162881527Y-121333482D01*
X162775838Y-121385151D01*
X162692650Y-121468339D01*
X162640983Y-121574026D01*
X162640982Y-121574030D01*
X162631000Y-121642538D01*
X162631000Y-122459448D01*
X162631002Y-122459464D01*
X162640983Y-122527973D01*
X162643499Y-122536117D01*
X162646418Y-122613190D01*
X162610410Y-122681396D01*
X162545122Y-122722460D01*
X162501139Y-122729100D01*
X161596700Y-122729100D01*
X161522200Y-122709138D01*
X161467662Y-122654600D01*
X161447700Y-122580100D01*
X161447700Y-120795099D01*
X161467662Y-120720599D01*
X161522200Y-120666061D01*
X161596700Y-120646099D01*
X161706022Y-120646099D01*
X161706026Y-120646099D01*
X161779404Y-120635409D01*
X161892590Y-120580076D01*
X161981676Y-120490990D01*
X162018152Y-120416377D01*
X162037009Y-120377805D01*
X162047699Y-120304435D01*
X162047699Y-120304433D01*
X162047700Y-120304427D01*
X162047699Y-119707774D01*
X162037009Y-119634396D01*
X162013923Y-119587172D01*
X161981677Y-119521211D01*
X161974825Y-119514359D01*
X161936261Y-119447564D01*
X161936261Y-119370436D01*
X161974825Y-119303641D01*
X162041620Y-119265077D01*
X162080184Y-119260000D01*
X162108252Y-119260000D01*
X162108253Y-119260000D01*
X162191868Y-119225365D01*
X162273493Y-119143740D01*
X162340287Y-119105177D01*
X162378851Y-119100100D01*
X170143749Y-119100100D01*
X170218249Y-119120062D01*
G37*
%TD.AperFunction*%
%TA.AperFunction,Conductor*%
G36*
X165469917Y-111477462D02*
G01*
X165524455Y-111532000D01*
X165544417Y-111606500D01*
X165529278Y-111671938D01*
X165523091Y-111684593D01*
X165523090Y-111684594D01*
X165512400Y-111757964D01*
X165512400Y-112729622D01*
X165512402Y-112729638D01*
X165523091Y-112803005D01*
X165578422Y-112916188D01*
X165667511Y-113005277D01*
X165780694Y-113060609D01*
X165810868Y-113065005D01*
X165854073Y-113071300D01*
X166450726Y-113071299D01*
X166524104Y-113060609D01*
X166524114Y-113060603D01*
X166532522Y-113058007D01*
X166609595Y-113055084D01*
X166677803Y-113091089D01*
X166681872Y-113095006D01*
X167389532Y-113802666D01*
X167473147Y-113837300D01*
X167473148Y-113837300D01*
X173864362Y-113837300D01*
X173938862Y-113857262D01*
X173993400Y-113911800D01*
X174013362Y-113986300D01*
X173993400Y-114060800D01*
X173947143Y-114110188D01*
X173796383Y-114210923D01*
X173796376Y-114210929D01*
X173660229Y-114347076D01*
X173660223Y-114347083D01*
X173553254Y-114507172D01*
X173553246Y-114507187D01*
X173479565Y-114685070D01*
X173479563Y-114685076D01*
X173442000Y-114873924D01*
X173442000Y-115066475D01*
X173479563Y-115255323D01*
X173479563Y-115255324D01*
X173483903Y-115265801D01*
X173493968Y-115342269D01*
X173464450Y-115413526D01*
X173403259Y-115460477D01*
X173326791Y-115470542D01*
X173305216Y-115464760D01*
X173294353Y-115462600D01*
X170845853Y-115462600D01*
X170755347Y-115462600D01*
X170736174Y-115470542D01*
X170671731Y-115497235D01*
X169871626Y-116297340D01*
X169804831Y-116335904D01*
X169727703Y-116335904D01*
X169660921Y-116297353D01*
X169540367Y-116176828D01*
X169540365Y-116176827D01*
X169519324Y-116155791D01*
X169487068Y-116123535D01*
X169487054Y-116123529D01*
X169487044Y-116123519D01*
X169447016Y-116106944D01*
X169403453Y-116088900D01*
X169403437Y-116088900D01*
X169403425Y-116088895D01*
X169362286Y-116088900D01*
X169327090Y-116088900D01*
X169299807Y-116077652D01*
X169291816Y-116071541D01*
X169282099Y-116068938D01*
X169261583Y-116048422D01*
X169238540Y-116030801D01*
X169234675Y-116021514D01*
X169227561Y-116014400D01*
X169220052Y-115986376D01*
X169208906Y-115959593D01*
X169210202Y-115949616D01*
X169207599Y-115939900D01*
X169207599Y-115630577D01*
X169207597Y-115630564D01*
X169196909Y-115557196D01*
X169181244Y-115525153D01*
X169141577Y-115444011D01*
X169052488Y-115354922D01*
X168939305Y-115299590D01*
X168865935Y-115288900D01*
X168865927Y-115288900D01*
X167186051Y-115288900D01*
X167111551Y-115268938D01*
X167080692Y-115245259D01*
X165652568Y-113817135D01*
X165568953Y-113782500D01*
X165568952Y-113782500D01*
X162122504Y-113782500D01*
X162048004Y-113762538D01*
X161993466Y-113708000D01*
X161973504Y-113633500D01*
X161993466Y-113559000D01*
X162023522Y-113524727D01*
X162022685Y-113523890D01*
X162029588Y-113516986D01*
X162029591Y-113516985D01*
X162109185Y-113437391D01*
X162165467Y-113339909D01*
X162194600Y-113231181D01*
X162194600Y-113130850D01*
X162214562Y-113056350D01*
X162238241Y-113025491D01*
X162595464Y-112668269D01*
X163338200Y-111925533D01*
X163762593Y-111501141D01*
X163829388Y-111462577D01*
X163867952Y-111457500D01*
X165395417Y-111457500D01*
X165469917Y-111477462D01*
G37*
%TD.AperFunction*%
%TA.AperFunction,Conductor*%
G36*
X182719849Y-91867462D02*
G01*
X182774387Y-91922000D01*
X182794349Y-91996500D01*
X182774387Y-92071000D01*
X182750708Y-92101859D01*
X180163708Y-94688859D01*
X180096913Y-94727423D01*
X180058349Y-94732500D01*
X153620429Y-94732500D01*
X153545929Y-94712538D01*
X153491391Y-94658000D01*
X153471429Y-94583500D01*
X153491391Y-94509000D01*
X153537647Y-94459612D01*
X153553120Y-94449274D01*
X153689274Y-94313120D01*
X153796250Y-94153020D01*
X153869936Y-93975126D01*
X153907500Y-93786275D01*
X153907500Y-93593725D01*
X153869936Y-93404874D01*
X153796250Y-93226980D01*
X153720495Y-93113606D01*
X153689276Y-93066883D01*
X153689274Y-93066880D01*
X153584253Y-92961859D01*
X153545689Y-92895064D01*
X153545689Y-92817936D01*
X153584253Y-92751141D01*
X153651048Y-92712577D01*
X153689612Y-92707500D01*
X157844652Y-92707500D01*
X157844653Y-92707500D01*
X157928268Y-92672865D01*
X158709993Y-91891141D01*
X158776788Y-91852577D01*
X158815352Y-91847500D01*
X182645349Y-91847500D01*
X182719849Y-91867462D01*
G37*
%TD.AperFunction*%
%TA.AperFunction,Conductor*%
G36*
X188468177Y-81743462D02*
G01*
X188522715Y-81798000D01*
X188542677Y-81872500D01*
X188522715Y-81947000D01*
X188499036Y-81977859D01*
X188401891Y-82075003D01*
X188401887Y-82075008D01*
X188289443Y-82243290D01*
X188289437Y-82243303D01*
X188211986Y-82430287D01*
X188211985Y-82430291D01*
X188172500Y-82628799D01*
X188172500Y-82831200D01*
X188211985Y-83029708D01*
X188211986Y-83029712D01*
X188289437Y-83216696D01*
X188289443Y-83216709D01*
X188340098Y-83292518D01*
X188401888Y-83384993D01*
X188545007Y-83528112D01*
X188588828Y-83557392D01*
X188713290Y-83640556D01*
X188713294Y-83640558D01*
X188713296Y-83640559D01*
X188713300Y-83640561D01*
X188713303Y-83640562D01*
X188766872Y-83662751D01*
X188900289Y-83718014D01*
X189098800Y-83757500D01*
X189301200Y-83757500D01*
X189499711Y-83718014D01*
X189666937Y-83648746D01*
X189743402Y-83638680D01*
X189814659Y-83668195D01*
X189829313Y-83681046D01*
X190179059Y-84030792D01*
X190217623Y-84097587D01*
X190222700Y-84136151D01*
X190222700Y-84479876D01*
X190202738Y-84554376D01*
X190148200Y-84608914D01*
X190073700Y-84628876D01*
X189999200Y-84608914D01*
X189968341Y-84585235D01*
X189854996Y-84471890D01*
X189854993Y-84471887D01*
X189821243Y-84449336D01*
X189686709Y-84359442D01*
X189686696Y-84359436D01*
X189499712Y-84281985D01*
X189499708Y-84281984D01*
X189301200Y-84242499D01*
X189098800Y-84242499D01*
X188900291Y-84281984D01*
X188900287Y-84281985D01*
X188713303Y-84359436D01*
X188713290Y-84359442D01*
X188545008Y-84471886D01*
X188545003Y-84471890D01*
X188401891Y-84615002D01*
X188401887Y-84615007D01*
X188289443Y-84783289D01*
X188289437Y-84783302D01*
X188211986Y-84970286D01*
X188211985Y-84970290D01*
X188172500Y-85168798D01*
X188172500Y-85371199D01*
X188209681Y-85558126D01*
X188211986Y-85569710D01*
X188241653Y-85641333D01*
X188281252Y-85736933D01*
X188291319Y-85813402D01*
X188261803Y-85884659D01*
X188248953Y-85899312D01*
X182799408Y-91348859D01*
X182732613Y-91387423D01*
X182694049Y-91392500D01*
X164570322Y-91392500D01*
X164495822Y-91372538D01*
X164441284Y-91318000D01*
X164421322Y-91243500D01*
X164441284Y-91169000D01*
X164464963Y-91138141D01*
X164598112Y-91004992D01*
X164710559Y-90836703D01*
X164788014Y-90649710D01*
X164827500Y-90451199D01*
X164827500Y-90248799D01*
X164788014Y-90050288D01*
X164710559Y-89863295D01*
X164710558Y-89863293D01*
X164710556Y-89863289D01*
X164624052Y-89733828D01*
X164598112Y-89695006D01*
X164454993Y-89551887D01*
X164420161Y-89528613D01*
X164286709Y-89439442D01*
X164286696Y-89439436D01*
X164099712Y-89361985D01*
X164099708Y-89361984D01*
X163901200Y-89322499D01*
X163698800Y-89322499D01*
X163500291Y-89361984D01*
X163500287Y-89361985D01*
X163313303Y-89439436D01*
X163313290Y-89439442D01*
X163145008Y-89551886D01*
X163145003Y-89551890D01*
X163001888Y-89695005D01*
X162997242Y-89700667D01*
X162995104Y-89698913D01*
X162947198Y-89740931D01*
X162881290Y-89756300D01*
X153463925Y-89756300D01*
X153389425Y-89736338D01*
X153334887Y-89681800D01*
X153314925Y-89607300D01*
X153334887Y-89532800D01*
X153387107Y-89480579D01*
X153386933Y-89480318D01*
X153388246Y-89479440D01*
X153389425Y-89478262D01*
X153392898Y-89476331D01*
X153393017Y-89476250D01*
X153393020Y-89476250D01*
X153553120Y-89369274D01*
X153689274Y-89233120D01*
X153796250Y-89073020D01*
X153869936Y-88895126D01*
X153907500Y-88706275D01*
X153907500Y-88513725D01*
X153869936Y-88324874D01*
X153796250Y-88146980D01*
X153786567Y-88132489D01*
X153689276Y-87986883D01*
X153689274Y-87986880D01*
X153553120Y-87850726D01*
X153553116Y-87850723D01*
X153430343Y-87768688D01*
X153379490Y-87710700D01*
X153364443Y-87635054D01*
X153389236Y-87562019D01*
X153447224Y-87511166D01*
X153513124Y-87495800D01*
X156090288Y-87495800D01*
X156164788Y-87515762D01*
X156219326Y-87570300D01*
X156239288Y-87644800D01*
X156227950Y-87701811D01*
X156226634Y-87704988D01*
X156197500Y-87813716D01*
X156197500Y-87926283D01*
X156226633Y-88035010D01*
X156257600Y-88088645D01*
X156282915Y-88132491D01*
X156362509Y-88212085D01*
X156459991Y-88268367D01*
X156568719Y-88297500D01*
X156568721Y-88297500D01*
X156681279Y-88297500D01*
X156681281Y-88297500D01*
X156790009Y-88268367D01*
X156887491Y-88212085D01*
X156958436Y-88141140D01*
X157025231Y-88102577D01*
X157063794Y-88097500D01*
X162707370Y-88097500D01*
X162781870Y-88117462D01*
X162836408Y-88172000D01*
X162845028Y-88189481D01*
X162889437Y-88296695D01*
X162889443Y-88296708D01*
X162979337Y-88431242D01*
X163001888Y-88464992D01*
X163145007Y-88608111D01*
X163212047Y-88652906D01*
X163313290Y-88720555D01*
X163313294Y-88720557D01*
X163313296Y-88720558D01*
X163500289Y-88798013D01*
X163698800Y-88837499D01*
X163901200Y-88837499D01*
X164099711Y-88798013D01*
X164286704Y-88720558D01*
X164286707Y-88720555D01*
X164286709Y-88720555D01*
X164320911Y-88697701D01*
X164454993Y-88608111D01*
X164598112Y-88464992D01*
X164691738Y-88324870D01*
X164710556Y-88296708D01*
X164710556Y-88296706D01*
X164710559Y-88296703D01*
X164788014Y-88109710D01*
X164827500Y-87911199D01*
X164827500Y-87708799D01*
X164788014Y-87510288D01*
X164710559Y-87323295D01*
X164710558Y-87323293D01*
X164710556Y-87323289D01*
X164629236Y-87201586D01*
X164598112Y-87155006D01*
X164454993Y-87011887D01*
X164454989Y-87011884D01*
X164382146Y-86963211D01*
X164331292Y-86905222D01*
X164316246Y-86829576D01*
X164341039Y-86756542D01*
X164359568Y-86733964D01*
X164360666Y-86732865D01*
X164360668Y-86732865D01*
X165219166Y-85874368D01*
X165253800Y-85790752D01*
X165253800Y-85700247D01*
X165253800Y-83911047D01*
X165219165Y-83827432D01*
X165155168Y-83763435D01*
X164751046Y-83359313D01*
X164712482Y-83292518D01*
X164712482Y-83215390D01*
X164718742Y-83196947D01*
X164788014Y-83029711D01*
X164827500Y-82831200D01*
X164827500Y-82628800D01*
X164822849Y-82605420D01*
X164788014Y-82430291D01*
X164788013Y-82430287D01*
X164786869Y-82427526D01*
X164710559Y-82243296D01*
X164710558Y-82243294D01*
X164710556Y-82243290D01*
X164642907Y-82142047D01*
X164598112Y-82075007D01*
X164500964Y-81977859D01*
X164462400Y-81911064D01*
X164462400Y-81833936D01*
X164500964Y-81767141D01*
X164567759Y-81728577D01*
X164606323Y-81723500D01*
X188393677Y-81723500D01*
X188468177Y-81743462D01*
G37*
%TD.AperFunction*%
%TA.AperFunction,Conductor*%
G36*
X163068177Y-81743462D02*
G01*
X163122715Y-81798000D01*
X163142677Y-81872500D01*
X163122715Y-81947000D01*
X163099036Y-81977859D01*
X163001891Y-82075003D01*
X163001887Y-82075008D01*
X162889443Y-82243290D01*
X162889437Y-82243303D01*
X162811986Y-82430287D01*
X162811985Y-82430291D01*
X162772500Y-82628799D01*
X162772500Y-82831200D01*
X162811985Y-83029708D01*
X162811986Y-83029712D01*
X162889437Y-83216696D01*
X162889443Y-83216709D01*
X162940098Y-83292518D01*
X163001888Y-83384993D01*
X163145007Y-83528112D01*
X163188828Y-83557392D01*
X163313290Y-83640556D01*
X163313294Y-83640558D01*
X163313296Y-83640559D01*
X163313300Y-83640561D01*
X163313303Y-83640562D01*
X163366872Y-83662751D01*
X163500289Y-83718014D01*
X163698800Y-83757500D01*
X163901200Y-83757500D01*
X164099711Y-83718014D01*
X164266937Y-83648746D01*
X164343402Y-83638680D01*
X164414659Y-83668195D01*
X164429313Y-83681046D01*
X164755159Y-84006892D01*
X164793723Y-84073687D01*
X164798800Y-84112251D01*
X164798800Y-84455976D01*
X164778838Y-84530476D01*
X164724300Y-84585014D01*
X164649800Y-84604976D01*
X164575300Y-84585014D01*
X164544441Y-84561335D01*
X164454996Y-84471890D01*
X164454993Y-84471887D01*
X164421243Y-84449336D01*
X164286709Y-84359442D01*
X164286696Y-84359436D01*
X164099712Y-84281985D01*
X164099708Y-84281984D01*
X163901200Y-84242499D01*
X163698800Y-84242499D01*
X163500291Y-84281984D01*
X163500287Y-84281985D01*
X163313303Y-84359436D01*
X163313290Y-84359442D01*
X163145008Y-84471886D01*
X163145003Y-84471890D01*
X163001891Y-84615002D01*
X163001887Y-84615007D01*
X162889443Y-84783289D01*
X162889438Y-84783299D01*
X162820174Y-84950520D01*
X162773222Y-85011710D01*
X162701965Y-85041225D01*
X162682516Y-85042500D01*
X156901463Y-85042500D01*
X156826963Y-85022538D01*
X156772425Y-84968000D01*
X156752463Y-84893500D01*
X156772425Y-84819000D01*
X156796104Y-84788141D01*
X156819203Y-84765042D01*
X156819204Y-84765040D01*
X156837088Y-84724535D01*
X156861108Y-84670134D01*
X156863800Y-84646932D01*
X156863800Y-83662751D01*
X156883762Y-83588251D01*
X156907441Y-83557392D01*
X158697692Y-81767141D01*
X158764487Y-81728577D01*
X158803051Y-81723500D01*
X162993677Y-81723500D01*
X163068177Y-81743462D01*
G37*
%TD.AperFunction*%
%TA.AperFunction,Conductor*%
G36*
X204425000Y-65520462D02*
G01*
X204479538Y-65575000D01*
X204499500Y-65649500D01*
X204499500Y-125083441D01*
X204479538Y-125157941D01*
X204425000Y-125212479D01*
X204350500Y-125232441D01*
X204276000Y-125212479D01*
X204245145Y-125188803D01*
X204191928Y-125135586D01*
X204190502Y-125134550D01*
X204051793Y-125033771D01*
X204051790Y-125033769D01*
X204051788Y-125033768D01*
X203897445Y-124955127D01*
X203849821Y-124939653D01*
X203732700Y-124901597D01*
X203635086Y-124886137D01*
X203561611Y-124874500D01*
X203388389Y-124874500D01*
X203322037Y-124885009D01*
X203217299Y-124901597D01*
X203052561Y-124955125D01*
X203052555Y-124955127D01*
X203052549Y-124955129D01*
X203052549Y-124955130D01*
X202898206Y-125033771D01*
X202758075Y-125135583D01*
X202635583Y-125258075D01*
X202533771Y-125398206D01*
X202455130Y-125552549D01*
X202455125Y-125552561D01*
X202401597Y-125717299D01*
X202387137Y-125808600D01*
X202374500Y-125888389D01*
X202374500Y-126061611D01*
X202379778Y-126094932D01*
X202401597Y-126232700D01*
X202439653Y-126349821D01*
X202455127Y-126397445D01*
X202519249Y-126523291D01*
X202533771Y-126551793D01*
X202617329Y-126666800D01*
X202635586Y-126691928D01*
X202758072Y-126814414D01*
X202780058Y-126830388D01*
X202880727Y-126903529D01*
X202898212Y-126916232D01*
X203052555Y-126994873D01*
X203217299Y-127048402D01*
X203388389Y-127075500D01*
X203388393Y-127075500D01*
X203561607Y-127075500D01*
X203561611Y-127075500D01*
X203732701Y-127048402D01*
X203897445Y-126994873D01*
X204051788Y-126916232D01*
X204191928Y-126814414D01*
X204245143Y-126761198D01*
X204311936Y-126722636D01*
X204389064Y-126722636D01*
X204455859Y-126761200D01*
X204494423Y-126827995D01*
X204499500Y-126866559D01*
X204499500Y-134350500D01*
X204479538Y-134425000D01*
X204425000Y-134479538D01*
X204350500Y-134499500D01*
X120649500Y-134499500D01*
X120575000Y-134479538D01*
X120520462Y-134425000D01*
X120500500Y-134350500D01*
X120500500Y-130878706D01*
X122149500Y-130878706D01*
X122149500Y-131121293D01*
X122181160Y-131361781D01*
X122181161Y-131361787D01*
X122181162Y-131361789D01*
X122243946Y-131596100D01*
X122336776Y-131820212D01*
X122458064Y-132030289D01*
X122605735Y-132222738D01*
X122777262Y-132394265D01*
X122969711Y-132541936D01*
X123179788Y-132663224D01*
X123403900Y-132756054D01*
X123638211Y-132818838D01*
X123638217Y-132818838D01*
X123638218Y-132818839D01*
X123703600Y-132827446D01*
X123878712Y-132850500D01*
X124121288Y-132850500D01*
X124361789Y-132818838D01*
X124596100Y-132756054D01*
X124820212Y-132663224D01*
X125030289Y-132541936D01*
X125222738Y-132394265D01*
X125394265Y-132222738D01*
X125541936Y-132030289D01*
X125663224Y-131820212D01*
X125756054Y-131596100D01*
X125818838Y-131361789D01*
X125850500Y-131121288D01*
X125850500Y-130878712D01*
X125850499Y-130878706D01*
X199149500Y-130878706D01*
X199149500Y-131121293D01*
X199181160Y-131361781D01*
X199181161Y-131361787D01*
X199181162Y-131361789D01*
X199243946Y-131596100D01*
X199336776Y-131820212D01*
X199458064Y-132030289D01*
X199605735Y-132222738D01*
X199777262Y-132394265D01*
X199969711Y-132541936D01*
X200179788Y-132663224D01*
X200403900Y-132756054D01*
X200638211Y-132818838D01*
X200638217Y-132818838D01*
X200638218Y-132818839D01*
X200703600Y-132827446D01*
X200878712Y-132850500D01*
X201121288Y-132850500D01*
X201361789Y-132818838D01*
X201596100Y-132756054D01*
X201820212Y-132663224D01*
X202030289Y-132541936D01*
X202222738Y-132394265D01*
X202394265Y-132222738D01*
X202541936Y-132030289D01*
X202663224Y-131820212D01*
X202756054Y-131596100D01*
X202818838Y-131361789D01*
X202850500Y-131121288D01*
X202850500Y-130878712D01*
X202818838Y-130638211D01*
X202756054Y-130403900D01*
X202663224Y-130179788D01*
X202541936Y-129969711D01*
X202394265Y-129777262D01*
X202222738Y-129605735D01*
X202030289Y-129458064D01*
X201960263Y-129417634D01*
X201820216Y-129336778D01*
X201820214Y-129336777D01*
X201820212Y-129336776D01*
X201688932Y-129282398D01*
X201596103Y-129243947D01*
X201596101Y-129243946D01*
X201596100Y-129243946D01*
X201361789Y-129181162D01*
X201361787Y-129181161D01*
X201361781Y-129181160D01*
X201121293Y-129149500D01*
X201121288Y-129149500D01*
X200878712Y-129149500D01*
X200878706Y-129149500D01*
X200638218Y-129181160D01*
X200403896Y-129243947D01*
X200179783Y-129336778D01*
X199969712Y-129458063D01*
X199969711Y-129458064D01*
X199777262Y-129605735D01*
X199777260Y-129605736D01*
X199777256Y-129605740D01*
X199605740Y-129777256D01*
X199458063Y-129969712D01*
X199336778Y-130179783D01*
X199243947Y-130403896D01*
X199181160Y-130638218D01*
X199149500Y-130878706D01*
X125850499Y-130878706D01*
X125818838Y-130638211D01*
X125756054Y-130403900D01*
X125663224Y-130179788D01*
X125541936Y-129969711D01*
X125394265Y-129777262D01*
X125222738Y-129605735D01*
X125030289Y-129458064D01*
X124960263Y-129417634D01*
X124820216Y-129336778D01*
X124820214Y-129336777D01*
X124820212Y-129336776D01*
X124688932Y-129282398D01*
X124596103Y-129243947D01*
X124596101Y-129243946D01*
X124596100Y-129243946D01*
X124361789Y-129181162D01*
X124361787Y-129181161D01*
X124361781Y-129181160D01*
X124121293Y-129149500D01*
X124121288Y-129149500D01*
X123878712Y-129149500D01*
X123878706Y-129149500D01*
X123638218Y-129181160D01*
X123403896Y-129243947D01*
X123179783Y-129336778D01*
X122969712Y-129458063D01*
X122969711Y-129458064D01*
X122777262Y-129605735D01*
X122777260Y-129605736D01*
X122777256Y-129605740D01*
X122605740Y-129777256D01*
X122458063Y-129969712D01*
X122336778Y-130179783D01*
X122243947Y-130403896D01*
X122181160Y-130638218D01*
X122149500Y-130878706D01*
X120500500Y-130878706D01*
X120500500Y-125888389D01*
X121374500Y-125888389D01*
X121374500Y-126061611D01*
X121379778Y-126094932D01*
X121401597Y-126232700D01*
X121439653Y-126349821D01*
X121455127Y-126397445D01*
X121519249Y-126523291D01*
X121533771Y-126551793D01*
X121617329Y-126666800D01*
X121635586Y-126691928D01*
X121758072Y-126814414D01*
X121780058Y-126830388D01*
X121880727Y-126903529D01*
X121898212Y-126916232D01*
X122052555Y-126994873D01*
X122217299Y-127048402D01*
X122388389Y-127075500D01*
X122388393Y-127075500D01*
X122561607Y-127075500D01*
X122561611Y-127075500D01*
X122732701Y-127048402D01*
X122897445Y-126994873D01*
X123051788Y-126916232D01*
X123191928Y-126814414D01*
X123314414Y-126691928D01*
X123416232Y-126551788D01*
X123494873Y-126397445D01*
X123548402Y-126232701D01*
X123575500Y-126061611D01*
X123575500Y-125888389D01*
X123548402Y-125717299D01*
X123494873Y-125552555D01*
X123416232Y-125398212D01*
X123409846Y-125389423D01*
X123345940Y-125301464D01*
X123314414Y-125258072D01*
X123191928Y-125135586D01*
X123190502Y-125134550D01*
X123051793Y-125033771D01*
X123051790Y-125033769D01*
X123051788Y-125033768D01*
X122897445Y-124955127D01*
X122849821Y-124939653D01*
X122732700Y-124901597D01*
X122635086Y-124886137D01*
X122561611Y-124874500D01*
X122388389Y-124874500D01*
X122322037Y-124885009D01*
X122217299Y-124901597D01*
X122052561Y-124955125D01*
X122052555Y-124955127D01*
X122052549Y-124955129D01*
X122052549Y-124955130D01*
X121898206Y-125033771D01*
X121758075Y-125135583D01*
X121635583Y-125258075D01*
X121533771Y-125398206D01*
X121455130Y-125552549D01*
X121455125Y-125552561D01*
X121401597Y-125717299D01*
X121387137Y-125808600D01*
X121374500Y-125888389D01*
X120500500Y-125888389D01*
X120500500Y-113913724D01*
X129092500Y-113913724D01*
X129092500Y-114106275D01*
X129130063Y-114295123D01*
X129130065Y-114295129D01*
X129203746Y-114473012D01*
X129203754Y-114473027D01*
X129310723Y-114633116D01*
X129310726Y-114633120D01*
X129446880Y-114769274D01*
X129446883Y-114769276D01*
X129606972Y-114876245D01*
X129606974Y-114876246D01*
X129606980Y-114876250D01*
X129606986Y-114876252D01*
X129606987Y-114876253D01*
X129631694Y-114886487D01*
X129784874Y-114949936D01*
X129973725Y-114987500D01*
X130166275Y-114987500D01*
X130355126Y-114949936D01*
X130533020Y-114876250D01*
X130693120Y-114769274D01*
X130829274Y-114633120D01*
X130936250Y-114473020D01*
X131009936Y-114295126D01*
X131047500Y-114106275D01*
X131047500Y-113913725D01*
X131009936Y-113724874D01*
X130936250Y-113546980D01*
X130907922Y-113504585D01*
X130829276Y-113386883D01*
X130829274Y-113386880D01*
X130693120Y-113250726D01*
X130684720Y-113245113D01*
X130533027Y-113143754D01*
X130533021Y-113143751D01*
X130533020Y-113143750D01*
X130533017Y-113143749D01*
X130533012Y-113143746D01*
X130355129Y-113070065D01*
X130355123Y-113070063D01*
X130166275Y-113032500D01*
X129973725Y-113032500D01*
X129784876Y-113070063D01*
X129784870Y-113070065D01*
X129606987Y-113143746D01*
X129606972Y-113143754D01*
X129446883Y-113250723D01*
X129446876Y-113250729D01*
X129310729Y-113386876D01*
X129310723Y-113386883D01*
X129203754Y-113546972D01*
X129203746Y-113546987D01*
X129130065Y-113724870D01*
X129130063Y-113724876D01*
X129092500Y-113913724D01*
X120500500Y-113913724D01*
X120500500Y-107496947D01*
X128690300Y-107496947D01*
X128690300Y-107523368D01*
X128690300Y-109485552D01*
X128724935Y-109569168D01*
X129548631Y-110392864D01*
X129550195Y-110393909D01*
X129553895Y-110398128D01*
X129559009Y-110403242D01*
X129558673Y-110403577D01*
X129601050Y-110451896D01*
X129616099Y-110527541D01*
X129591309Y-110600577D01*
X129550200Y-110641688D01*
X129446879Y-110710726D01*
X129310729Y-110846876D01*
X129310723Y-110846883D01*
X129203754Y-111006972D01*
X129203746Y-111006987D01*
X129130065Y-111184870D01*
X129130063Y-111184876D01*
X129092500Y-111373724D01*
X129092500Y-111566275D01*
X129130063Y-111755123D01*
X129130065Y-111755129D01*
X129203746Y-111933012D01*
X129203754Y-111933027D01*
X129239986Y-111987251D01*
X129310726Y-112093120D01*
X129446880Y-112229274D01*
X129446883Y-112229276D01*
X129606972Y-112336245D01*
X129606974Y-112336246D01*
X129606980Y-112336250D01*
X129784874Y-112409936D01*
X129973725Y-112447500D01*
X130166275Y-112447500D01*
X130355126Y-112409936D01*
X130533020Y-112336250D01*
X130693120Y-112229274D01*
X130829274Y-112093120D01*
X130936250Y-111933020D01*
X131009936Y-111755126D01*
X131047500Y-111566275D01*
X131047500Y-111373725D01*
X131044467Y-111358479D01*
X131024511Y-111258151D01*
X131009936Y-111184874D01*
X130936250Y-111006980D01*
X130829274Y-110846880D01*
X130693120Y-110710726D01*
X130677648Y-110700387D01*
X130626795Y-110642401D01*
X130611748Y-110566755D01*
X130636540Y-110493720D01*
X130694528Y-110442866D01*
X130760429Y-110427500D01*
X131794649Y-110427500D01*
X131869149Y-110447462D01*
X131900008Y-110471141D01*
X136734135Y-115305268D01*
X136798132Y-115369265D01*
X136881747Y-115403900D01*
X136881748Y-115403900D01*
X153521852Y-115403900D01*
X153521853Y-115403900D01*
X153605468Y-115369265D01*
X153605471Y-115369261D01*
X153617671Y-115361111D01*
X153619504Y-115363855D01*
X153665887Y-115337077D01*
X153704451Y-115332000D01*
X162334689Y-115332000D01*
X162409189Y-115351962D01*
X162463727Y-115406500D01*
X162483689Y-115481000D01*
X162468548Y-115546442D01*
X162463290Y-115557195D01*
X162452600Y-115630564D01*
X162452600Y-115817900D01*
X162432638Y-115892400D01*
X162378100Y-115946938D01*
X162303600Y-115966900D01*
X140970147Y-115966900D01*
X140948820Y-115975734D01*
X140886531Y-116001534D01*
X132181359Y-124706707D01*
X132114564Y-124745271D01*
X132037436Y-124745271D01*
X131970641Y-124706707D01*
X131932077Y-124639912D01*
X131927000Y-124601348D01*
X131927000Y-124246046D01*
X131926999Y-124246038D01*
X131926284Y-124242446D01*
X131919602Y-124208852D01*
X131917195Y-124205249D01*
X131891423Y-124166679D01*
X131891420Y-124166676D01*
X131849250Y-124138499D01*
X131849246Y-124138497D01*
X131812061Y-124131100D01*
X131812058Y-124131100D01*
X130086942Y-124131100D01*
X130086938Y-124131100D01*
X130049753Y-124138497D01*
X130049749Y-124138499D01*
X130007579Y-124166676D01*
X130007576Y-124166679D01*
X129979399Y-124208849D01*
X129979397Y-124208853D01*
X129972000Y-124246038D01*
X129972000Y-125971161D01*
X129979397Y-126008346D01*
X129979399Y-126008350D01*
X130007576Y-126050520D01*
X130007579Y-126050523D01*
X130036929Y-126070134D01*
X130049752Y-126078702D01*
X130086942Y-126086100D01*
X130086946Y-126086100D01*
X131812054Y-126086100D01*
X131812058Y-126086100D01*
X131849248Y-126078702D01*
X131891422Y-126050522D01*
X131919602Y-126008348D01*
X131927000Y-125971158D01*
X131927000Y-125485100D01*
X131946962Y-125410600D01*
X132001500Y-125356062D01*
X132076000Y-125336100D01*
X132146452Y-125336100D01*
X132146453Y-125336100D01*
X132230068Y-125301465D01*
X141065993Y-116465541D01*
X141132788Y-116426977D01*
X141171352Y-116421900D01*
X152429288Y-116421900D01*
X152503788Y-116441862D01*
X152558326Y-116496400D01*
X152578288Y-116570900D01*
X152566950Y-116627911D01*
X152565634Y-116631088D01*
X152565633Y-116631090D01*
X152565633Y-116631091D01*
X152562188Y-116643950D01*
X152536500Y-116739816D01*
X152536500Y-116852383D01*
X152565633Y-116961110D01*
X152589372Y-117002226D01*
X152621915Y-117058591D01*
X152701509Y-117138185D01*
X152798991Y-117194467D01*
X152852801Y-117208885D01*
X152917153Y-117226128D01*
X152916333Y-117229186D01*
X152971832Y-117252170D01*
X152986493Y-117265026D01*
X154946832Y-119225366D01*
X155030447Y-119260000D01*
X155030448Y-119260000D01*
X160360216Y-119260000D01*
X160434716Y-119279962D01*
X160489254Y-119334500D01*
X160509216Y-119409000D01*
X160489254Y-119483500D01*
X160465575Y-119514359D01*
X160458723Y-119521210D01*
X160458722Y-119521211D01*
X160403390Y-119634394D01*
X160392700Y-119707764D01*
X160392700Y-120304421D01*
X160392702Y-120304438D01*
X160403391Y-120377805D01*
X160458722Y-120490988D01*
X160547811Y-120580077D01*
X160660994Y-120635409D01*
X160691168Y-120639805D01*
X160734373Y-120646100D01*
X160843701Y-120646099D01*
X160918199Y-120666061D01*
X160972737Y-120720598D01*
X160992700Y-120795098D01*
X160992700Y-122580100D01*
X160972738Y-122654600D01*
X160918200Y-122709138D01*
X160843700Y-122729100D01*
X160615860Y-122729100D01*
X160541360Y-122709138D01*
X160486822Y-122654600D01*
X160466860Y-122580100D01*
X160473503Y-122536106D01*
X160476013Y-122527978D01*
X160476017Y-122527972D01*
X160485470Y-122463089D01*
X160485999Y-122459461D01*
X160485999Y-122459459D01*
X160486000Y-122459453D01*
X160485999Y-121642548D01*
X160476017Y-121574028D01*
X160476016Y-121574026D01*
X160424348Y-121468338D01*
X160341160Y-121385150D01*
X160235473Y-121333483D01*
X160235469Y-121333482D01*
X160166956Y-121323500D01*
X159650052Y-121323500D01*
X159650035Y-121323502D01*
X159581527Y-121333482D01*
X159475838Y-121385151D01*
X159392650Y-121468339D01*
X159340983Y-121574026D01*
X159340982Y-121574030D01*
X159331000Y-121642538D01*
X159331000Y-122245048D01*
X159311038Y-122319548D01*
X159287359Y-122350407D01*
X155606832Y-126030935D01*
X155542836Y-126094931D01*
X155542835Y-126094931D01*
X155515928Y-126159890D01*
X155508200Y-126178547D01*
X155508200Y-127686747D01*
X155508200Y-127777253D01*
X155542835Y-127860868D01*
X157130135Y-129448168D01*
X157194132Y-129512165D01*
X157277747Y-129546800D01*
X157277748Y-129546800D01*
X193281353Y-129546800D01*
X193364968Y-129512165D01*
X193919892Y-128957239D01*
X193986687Y-128918676D01*
X194025251Y-128913599D01*
X194767622Y-128913599D01*
X194767626Y-128913599D01*
X194841004Y-128902909D01*
X194954190Y-128847576D01*
X195043276Y-128758490D01*
X195057557Y-128729277D01*
X195098609Y-128645305D01*
X195109299Y-128571935D01*
X195109299Y-128571933D01*
X195109300Y-128571927D01*
X195109299Y-127975274D01*
X195098609Y-127901896D01*
X195078552Y-127860868D01*
X195043277Y-127788711D01*
X194954188Y-127699622D01*
X194841005Y-127644290D01*
X194767630Y-127633600D01*
X193795977Y-127633600D01*
X193795961Y-127633602D01*
X193722594Y-127644291D01*
X193609411Y-127699622D01*
X193520322Y-127788711D01*
X193464990Y-127901894D01*
X193454300Y-127975264D01*
X193454300Y-128571921D01*
X193454302Y-128571938D01*
X193464990Y-128645301D01*
X193467595Y-128653732D01*
X193470513Y-128730805D01*
X193434504Y-128799011D01*
X193430593Y-128803073D01*
X193185508Y-129048159D01*
X193118713Y-129086723D01*
X193080149Y-129091800D01*
X182579193Y-129091800D01*
X182504693Y-129071838D01*
X182450155Y-129017300D01*
X182430193Y-128942800D01*
X182450155Y-128868300D01*
X182473831Y-128837444D01*
X182543436Y-128767840D01*
X182610231Y-128729277D01*
X182648794Y-128724200D01*
X182951300Y-128724200D01*
X182972782Y-128725756D01*
X183031419Y-128734300D01*
X184014380Y-128734299D01*
X184086546Y-128723786D01*
X184095122Y-128719593D01*
X184197854Y-128669371D01*
X184197855Y-128669369D01*
X184197857Y-128669369D01*
X184285469Y-128581757D01*
X184339886Y-128470446D01*
X184345025Y-128435168D01*
X184350399Y-128398291D01*
X184350399Y-128398287D01*
X184350400Y-128398281D01*
X184350399Y-127840320D01*
X184339886Y-127768154D01*
X184326746Y-127741275D01*
X184285471Y-127656845D01*
X184197855Y-127569229D01*
X184086547Y-127514814D01*
X184086543Y-127514813D01*
X184014384Y-127504300D01*
X183031423Y-127504300D01*
X183031419Y-127504301D01*
X183006223Y-127507971D01*
X182959254Y-127514814D01*
X182959253Y-127514814D01*
X182959249Y-127514815D01*
X182847945Y-127569228D01*
X182760329Y-127656844D01*
X182705914Y-127768152D01*
X182705913Y-127768156D01*
X182695400Y-127840308D01*
X182695400Y-128025236D01*
X182675438Y-128099736D01*
X182620900Y-128154274D01*
X182546400Y-128174236D01*
X182471900Y-128154274D01*
X182471899Y-128154273D01*
X182375012Y-128098334D01*
X182375009Y-128098333D01*
X182345875Y-128090526D01*
X182266283Y-128069200D01*
X182266281Y-128069200D01*
X182153719Y-128069200D01*
X182153716Y-128069200D01*
X182044989Y-128098333D01*
X181947510Y-128154614D01*
X181867914Y-128234210D01*
X181811633Y-128331689D01*
X181782500Y-128440416D01*
X181782500Y-128552983D01*
X181811633Y-128661710D01*
X181847472Y-128723784D01*
X181867915Y-128759191D01*
X181946167Y-128837443D01*
X181984730Y-128904236D01*
X181984730Y-128981364D01*
X181946166Y-129048159D01*
X181879371Y-129086723D01*
X181840807Y-129091800D01*
X179813151Y-129091800D01*
X179738651Y-129071838D01*
X179684113Y-129017300D01*
X179664151Y-128942800D01*
X179684113Y-128868300D01*
X179707792Y-128837442D01*
X179946753Y-128598479D01*
X180013547Y-128559914D01*
X180090675Y-128559914D01*
X180109131Y-128566178D01*
X180252674Y-128625636D01*
X180441525Y-128663200D01*
X180634075Y-128663200D01*
X180822926Y-128625636D01*
X181000820Y-128551950D01*
X181160920Y-128444974D01*
X181297074Y-128308820D01*
X181404050Y-128148720D01*
X181477736Y-127970826D01*
X181515300Y-127781975D01*
X181515300Y-127589425D01*
X181507204Y-127548725D01*
X181477736Y-127400576D01*
X181477736Y-127400574D01*
X181404050Y-127222680D01*
X181399808Y-127216332D01*
X181297076Y-127062583D01*
X181297074Y-127062580D01*
X181160920Y-126926426D01*
X181145658Y-126916228D01*
X181017191Y-126830388D01*
X180966338Y-126772400D01*
X180951291Y-126696754D01*
X180976084Y-126623719D01*
X181034072Y-126572866D01*
X181099972Y-126557500D01*
X182594353Y-126557500D01*
X182668853Y-126577462D01*
X182723391Y-126632000D01*
X182728213Y-126641060D01*
X182760329Y-126706755D01*
X182847944Y-126794370D01*
X182938639Y-126838708D01*
X182959254Y-126848786D01*
X182982772Y-126852212D01*
X183031408Y-126859299D01*
X183031412Y-126859299D01*
X183031419Y-126859300D01*
X184014380Y-126859299D01*
X184086546Y-126848786D01*
X184107161Y-126838708D01*
X184168261Y-126808838D01*
X185560800Y-126808838D01*
X185560800Y-128533961D01*
X185568197Y-128571146D01*
X185568199Y-128571150D01*
X185596376Y-128613320D01*
X185596379Y-128613323D01*
X185614807Y-128625636D01*
X185638552Y-128641502D01*
X185675742Y-128648900D01*
X185675746Y-128648900D01*
X187400854Y-128648900D01*
X187400858Y-128648900D01*
X187438048Y-128641502D01*
X187480222Y-128613322D01*
X187508402Y-128571148D01*
X187515800Y-128533958D01*
X187515800Y-126808842D01*
X187508402Y-126771652D01*
X187499046Y-126757650D01*
X187480223Y-126729479D01*
X187480220Y-126729476D01*
X187438050Y-126701299D01*
X187438046Y-126701297D01*
X187400861Y-126693900D01*
X187400858Y-126693900D01*
X185675742Y-126693900D01*
X185675738Y-126693900D01*
X185638553Y-126701297D01*
X185638549Y-126701299D01*
X185596379Y-126729476D01*
X185596376Y-126729479D01*
X185568199Y-126771649D01*
X185568197Y-126771653D01*
X185560800Y-126808838D01*
X184168261Y-126808838D01*
X184197854Y-126794371D01*
X184197855Y-126794369D01*
X184197857Y-126794369D01*
X184285469Y-126706757D01*
X184339886Y-126595446D01*
X184350400Y-126523281D01*
X184350399Y-125965320D01*
X184339886Y-125893154D01*
X184337557Y-125888389D01*
X184285471Y-125781845D01*
X184197855Y-125694229D01*
X184086547Y-125639814D01*
X184086543Y-125639813D01*
X184014384Y-125629300D01*
X183031423Y-125629300D01*
X183031419Y-125629301D01*
X183006223Y-125632971D01*
X182959254Y-125639814D01*
X182959253Y-125639814D01*
X182959249Y-125639815D01*
X182847945Y-125694228D01*
X182760329Y-125781844D01*
X182705914Y-125893152D01*
X182705913Y-125893156D01*
X182694622Y-125970655D01*
X182693321Y-125970465D01*
X182670192Y-126037116D01*
X182611862Y-126087577D01*
X182546866Y-126102500D01*
X178224099Y-126102500D01*
X178149599Y-126082538D01*
X178095061Y-126028000D01*
X178075099Y-125953500D01*
X178075099Y-125911077D01*
X178075097Y-125911064D01*
X178064409Y-125837696D01*
X178050186Y-125808602D01*
X178009077Y-125724511D01*
X177919988Y-125635422D01*
X177806805Y-125580090D01*
X177733430Y-125569400D01*
X176761777Y-125569400D01*
X176761761Y-125569402D01*
X176688394Y-125580091D01*
X176575211Y-125635422D01*
X176486122Y-125724511D01*
X176430790Y-125837694D01*
X176420100Y-125911064D01*
X176420100Y-126507721D01*
X176420102Y-126507738D01*
X176430791Y-126581105D01*
X176486122Y-126694288D01*
X176575211Y-126783377D01*
X176688394Y-126838709D01*
X176718568Y-126843105D01*
X176761773Y-126849400D01*
X177733426Y-126849399D01*
X177806804Y-126838709D01*
X177919990Y-126783376D01*
X178009076Y-126694290D01*
X178017969Y-126676100D01*
X178035099Y-126641060D01*
X178085753Y-126582897D01*
X178158702Y-126557853D01*
X178168959Y-126557500D01*
X179975628Y-126557500D01*
X180050128Y-126577462D01*
X180104666Y-126632000D01*
X180124628Y-126706500D01*
X180104666Y-126781000D01*
X180058409Y-126830388D01*
X179914683Y-126926423D01*
X179914676Y-126926429D01*
X179778529Y-127062576D01*
X179778523Y-127062583D01*
X179671554Y-127222672D01*
X179671546Y-127222687D01*
X179597865Y-127400570D01*
X179597863Y-127400576D01*
X179560300Y-127589424D01*
X179560300Y-127781975D01*
X179597863Y-127970823D01*
X179597865Y-127970829D01*
X179657320Y-128114367D01*
X179667387Y-128190835D01*
X179637871Y-128262092D01*
X179625021Y-128276745D01*
X179290108Y-128611659D01*
X179223313Y-128650223D01*
X179184749Y-128655300D01*
X175546000Y-128655300D01*
X175471500Y-128635338D01*
X175416962Y-128580800D01*
X175397000Y-128506300D01*
X175397000Y-126807646D01*
X175396999Y-126807638D01*
X175394793Y-126796550D01*
X175389602Y-126770452D01*
X175364057Y-126732221D01*
X175361423Y-126728279D01*
X175361420Y-126728276D01*
X175319250Y-126700099D01*
X175319246Y-126700097D01*
X175282061Y-126692700D01*
X175282058Y-126692700D01*
X173556942Y-126692700D01*
X173556938Y-126692700D01*
X173519753Y-126700097D01*
X173519749Y-126700099D01*
X173477579Y-126728276D01*
X173477576Y-126728279D01*
X173449399Y-126770449D01*
X173449397Y-126770453D01*
X173442000Y-126807638D01*
X173442000Y-128506300D01*
X173422038Y-128580800D01*
X173367500Y-128635338D01*
X173293000Y-128655300D01*
X170931612Y-128655300D01*
X170857112Y-128635338D01*
X170802574Y-128580800D01*
X170782612Y-128506300D01*
X170802574Y-128431800D01*
X170826253Y-128400941D01*
X170828913Y-128398281D01*
X170941274Y-128285920D01*
X171048250Y-128125820D01*
X171121936Y-127947926D01*
X171159500Y-127759075D01*
X171159500Y-127566525D01*
X171155959Y-127548725D01*
X171121936Y-127377676D01*
X171121936Y-127377674D01*
X171062478Y-127234131D01*
X171052412Y-127157663D01*
X171081928Y-127086406D01*
X171094770Y-127071761D01*
X171936565Y-126229968D01*
X171956668Y-126181435D01*
X171971200Y-126146353D01*
X171971200Y-125033924D01*
X173442000Y-125033924D01*
X173442000Y-125226475D01*
X173479563Y-125415323D01*
X173479565Y-125415329D01*
X173553246Y-125593212D01*
X173553254Y-125593227D01*
X173640976Y-125724511D01*
X173660226Y-125753320D01*
X173796380Y-125889474D01*
X173796383Y-125889476D01*
X173956472Y-125996445D01*
X173956474Y-125996446D01*
X173956480Y-125996450D01*
X173956486Y-125996452D01*
X173956487Y-125996453D01*
X173985204Y-126008348D01*
X174134374Y-126070136D01*
X174323225Y-126107700D01*
X174515775Y-126107700D01*
X174704626Y-126070136D01*
X174882520Y-125996450D01*
X175042620Y-125889474D01*
X175178774Y-125753320D01*
X175285750Y-125593220D01*
X175359436Y-125415326D01*
X175397000Y-125226475D01*
X175397000Y-125033925D01*
X175396969Y-125033771D01*
X175359436Y-124845076D01*
X175359436Y-124845074D01*
X175285750Y-124667180D01*
X175178774Y-124507080D01*
X175042620Y-124370926D01*
X175003863Y-124345029D01*
X174882527Y-124263954D01*
X174882521Y-124263951D01*
X174882520Y-124263950D01*
X174882517Y-124263949D01*
X174882512Y-124263946D01*
X174704629Y-124190265D01*
X174704623Y-124190263D01*
X174515775Y-124152700D01*
X174323225Y-124152700D01*
X174134376Y-124190263D01*
X174134370Y-124190265D01*
X173956487Y-124263946D01*
X173956472Y-124263954D01*
X173796383Y-124370923D01*
X173796376Y-124370929D01*
X173660229Y-124507076D01*
X173660223Y-124507083D01*
X173553254Y-124667172D01*
X173553246Y-124667187D01*
X173479565Y-124845070D01*
X173479563Y-124845076D01*
X173442000Y-125033924D01*
X171971200Y-125033924D01*
X171971200Y-122991982D01*
X171991162Y-122917482D01*
X172045700Y-122862944D01*
X172098718Y-122844539D01*
X172115404Y-122842109D01*
X172228590Y-122786776D01*
X172317676Y-122697690D01*
X172332142Y-122668100D01*
X172373009Y-122584505D01*
X172383699Y-122511135D01*
X172383700Y-122511125D01*
X172383700Y-122493924D01*
X173442000Y-122493924D01*
X173442000Y-122686475D01*
X173479563Y-122875323D01*
X173479565Y-122875329D01*
X173553246Y-123053212D01*
X173553254Y-123053227D01*
X173650562Y-123198857D01*
X173660226Y-123213320D01*
X173796380Y-123349474D01*
X173796383Y-123349476D01*
X173956472Y-123456445D01*
X173956474Y-123456446D01*
X173956480Y-123456450D01*
X174134374Y-123530136D01*
X174323225Y-123567700D01*
X174515775Y-123567700D01*
X174704626Y-123530136D01*
X174882520Y-123456450D01*
X175042620Y-123349474D01*
X175178774Y-123213320D01*
X175285750Y-123053220D01*
X175359436Y-122875326D01*
X175366599Y-122839316D01*
X175803000Y-122839316D01*
X175803000Y-122951883D01*
X175832133Y-123060610D01*
X175859539Y-123108077D01*
X175888415Y-123158091D01*
X175968009Y-123237685D01*
X176065491Y-123293967D01*
X176174219Y-123323100D01*
X176174221Y-123323100D01*
X176286779Y-123323100D01*
X176286781Y-123323100D01*
X176395509Y-123293967D01*
X176492991Y-123237685D01*
X176499215Y-123231460D01*
X176566004Y-123192897D01*
X176643133Y-123192894D01*
X176709929Y-123231455D01*
X176764944Y-123286470D01*
X176840842Y-123323574D01*
X176876254Y-123340886D01*
X176899772Y-123344312D01*
X176948408Y-123351399D01*
X176948412Y-123351399D01*
X176948419Y-123351400D01*
X177931380Y-123351399D01*
X178003546Y-123340886D01*
X178039930Y-123323099D01*
X178114854Y-123286471D01*
X178114855Y-123286469D01*
X178114857Y-123286469D01*
X178202469Y-123198857D01*
X178256886Y-123087546D01*
X178267400Y-123015381D01*
X178267399Y-122457420D01*
X178256886Y-122385254D01*
X178256884Y-122385249D01*
X178202471Y-122273945D01*
X178114855Y-122186329D01*
X178003547Y-122131914D01*
X178003543Y-122131913D01*
X177931384Y-122121400D01*
X176948423Y-122121400D01*
X176948419Y-122121401D01*
X176923223Y-122125071D01*
X176876254Y-122131914D01*
X176876253Y-122131914D01*
X176876249Y-122131915D01*
X176764945Y-122186328D01*
X176677329Y-122273944D01*
X176622914Y-122385252D01*
X176622913Y-122385255D01*
X176621895Y-122392246D01*
X176591398Y-122463089D01*
X176529566Y-122509192D01*
X176452966Y-122518203D01*
X176399951Y-122499797D01*
X176395512Y-122497234D01*
X176395509Y-122497233D01*
X176355844Y-122486605D01*
X176286783Y-122468100D01*
X176286781Y-122468100D01*
X176174219Y-122468100D01*
X176174216Y-122468100D01*
X176065489Y-122497233D01*
X175968010Y-122553514D01*
X175888414Y-122633110D01*
X175832133Y-122730589D01*
X175803000Y-122839316D01*
X175366599Y-122839316D01*
X175397000Y-122686475D01*
X175397000Y-122493925D01*
X175390866Y-122463089D01*
X175362315Y-122319548D01*
X175359436Y-122305074D01*
X175287711Y-122131914D01*
X175285753Y-122127187D01*
X175285752Y-122127186D01*
X175285750Y-122127180D01*
X175281013Y-122120091D01*
X175178776Y-121967083D01*
X175178774Y-121967080D01*
X175042620Y-121830926D01*
X175042616Y-121830923D01*
X174882527Y-121723954D01*
X174882521Y-121723951D01*
X174882520Y-121723950D01*
X174882517Y-121723949D01*
X174882512Y-121723946D01*
X174704629Y-121650265D01*
X174704623Y-121650263D01*
X174515775Y-121612700D01*
X174323225Y-121612700D01*
X174134376Y-121650263D01*
X174134370Y-121650265D01*
X173956487Y-121723946D01*
X173956472Y-121723954D01*
X173796383Y-121830923D01*
X173796376Y-121830929D01*
X173660229Y-121967076D01*
X173660223Y-121967083D01*
X173553254Y-122127172D01*
X173553246Y-122127187D01*
X173479565Y-122305070D01*
X173479563Y-122305076D01*
X173442000Y-122493924D01*
X172383700Y-122493924D01*
X172383700Y-122486605D01*
X172383699Y-121539477D01*
X172383697Y-121539461D01*
X172373009Y-121466096D01*
X172366257Y-121452285D01*
X172317677Y-121352911D01*
X172289758Y-121324992D01*
X172251194Y-121258197D01*
X172251194Y-121181069D01*
X172289756Y-121114276D01*
X172620266Y-120783768D01*
X172654900Y-120700152D01*
X172654900Y-120609647D01*
X172654900Y-119639347D01*
X172654899Y-119639344D01*
X172642671Y-119609822D01*
X172642670Y-119609822D01*
X172620266Y-119555732D01*
X172140507Y-119075974D01*
X172101944Y-119009180D01*
X172101944Y-118932052D01*
X172140506Y-118865259D01*
X172162076Y-118843690D01*
X172176822Y-118813527D01*
X172217409Y-118730505D01*
X172228099Y-118657135D01*
X172228099Y-118657133D01*
X172228100Y-118657127D01*
X172228099Y-118060474D01*
X172217409Y-117987096D01*
X172213274Y-117978638D01*
X172196238Y-117943790D01*
X172181451Y-117868092D01*
X172206495Y-117795143D01*
X172264657Y-117744489D01*
X172340355Y-117729702D01*
X172413304Y-117754746D01*
X172435457Y-117772990D01*
X173563635Y-118901168D01*
X173627632Y-118965165D01*
X173711247Y-118999800D01*
X173740894Y-118999800D01*
X173815394Y-119019762D01*
X173869932Y-119074300D01*
X173889894Y-119148800D01*
X173869932Y-119223300D01*
X173823674Y-119272688D01*
X173812789Y-119279962D01*
X173796381Y-119290925D01*
X173796376Y-119290929D01*
X173660229Y-119427076D01*
X173660223Y-119427083D01*
X173553254Y-119587172D01*
X173553246Y-119587187D01*
X173479565Y-119765070D01*
X173479563Y-119765076D01*
X173442000Y-119953924D01*
X173442000Y-120146475D01*
X173479563Y-120335323D01*
X173479565Y-120335329D01*
X173553246Y-120513212D01*
X173553254Y-120513227D01*
X173657131Y-120668688D01*
X173660226Y-120673320D01*
X173796380Y-120809474D01*
X173796383Y-120809476D01*
X173956472Y-120916445D01*
X173956474Y-120916446D01*
X173956480Y-120916450D01*
X174134374Y-120990136D01*
X174323225Y-121027700D01*
X174515775Y-121027700D01*
X174704626Y-120990136D01*
X174882520Y-120916450D01*
X175042620Y-120809474D01*
X175178774Y-120673320D01*
X175285750Y-120513220D01*
X175359436Y-120335326D01*
X175397000Y-120146475D01*
X175397000Y-119953925D01*
X175395370Y-119945732D01*
X175377338Y-119855075D01*
X175359436Y-119765074D01*
X175285750Y-119587180D01*
X175284019Y-119584590D01*
X175178776Y-119427083D01*
X175178774Y-119427080D01*
X175042620Y-119290926D01*
X175015325Y-119272688D01*
X174964472Y-119214700D01*
X174949425Y-119139054D01*
X174974217Y-119066020D01*
X175032206Y-119015166D01*
X175098106Y-118999800D01*
X175194849Y-118999800D01*
X175269349Y-119019762D01*
X175300208Y-119043441D01*
X176595006Y-120338240D01*
X176633570Y-120405035D01*
X176633570Y-120482163D01*
X176623508Y-120509037D01*
X176622915Y-120510248D01*
X176622913Y-120510255D01*
X176612400Y-120582409D01*
X176612400Y-121140375D01*
X176612401Y-121140380D01*
X176622914Y-121212546D01*
X176622914Y-121212547D01*
X176622915Y-121212550D01*
X176677328Y-121323854D01*
X176764944Y-121411470D01*
X176848433Y-121452285D01*
X176876254Y-121465886D01*
X176893084Y-121468338D01*
X176948408Y-121476399D01*
X176948412Y-121476399D01*
X176948419Y-121476400D01*
X177931380Y-121476399D01*
X178003546Y-121465886D01*
X178031367Y-121452285D01*
X178114854Y-121411471D01*
X178114855Y-121411469D01*
X178114857Y-121411469D01*
X178202469Y-121323857D01*
X178256886Y-121212546D01*
X178263282Y-121168648D01*
X178267399Y-121140391D01*
X178267399Y-121140387D01*
X178267400Y-121140381D01*
X178267399Y-120582420D01*
X178256886Y-120510254D01*
X178256884Y-120510249D01*
X178202471Y-120398945D01*
X178114855Y-120311329D01*
X178003547Y-120256914D01*
X178003543Y-120256913D01*
X177931391Y-120246400D01*
X177931381Y-120246400D01*
X177208352Y-120246400D01*
X177133852Y-120226438D01*
X177102993Y-120202759D01*
X175479669Y-118579436D01*
X175479668Y-118579435D01*
X175396053Y-118544800D01*
X175396052Y-118544800D01*
X175121752Y-118544800D01*
X175047252Y-118524838D01*
X174992714Y-118470300D01*
X174972752Y-118395800D01*
X174992714Y-118321300D01*
X175038970Y-118271912D01*
X175042620Y-118269474D01*
X175178774Y-118133320D01*
X175285750Y-117973220D01*
X175359436Y-117795326D01*
X175397000Y-117606475D01*
X175397000Y-117413925D01*
X175359436Y-117225074D01*
X175285750Y-117047180D01*
X175275479Y-117031809D01*
X175178776Y-116887083D01*
X175178774Y-116887080D01*
X175042620Y-116750926D01*
X175027148Y-116740587D01*
X174976295Y-116682601D01*
X174961248Y-116606955D01*
X174986040Y-116533920D01*
X175044028Y-116483066D01*
X175109929Y-116467700D01*
X175168049Y-116467700D01*
X175242549Y-116487662D01*
X175273408Y-116511341D01*
X180135908Y-121373841D01*
X180174472Y-121440636D01*
X180174472Y-121517764D01*
X180135908Y-121584559D01*
X180069113Y-121623123D01*
X180030549Y-121628200D01*
X179675238Y-121628200D01*
X179638053Y-121635597D01*
X179638049Y-121635599D01*
X179595879Y-121663776D01*
X179595876Y-121663779D01*
X179567699Y-121705949D01*
X179567697Y-121705953D01*
X179560300Y-121743138D01*
X179560300Y-123468261D01*
X179567697Y-123505446D01*
X179567699Y-123505450D01*
X179595876Y-123547620D01*
X179595879Y-123547623D01*
X179638049Y-123575800D01*
X179638052Y-123575802D01*
X179675242Y-123583200D01*
X179675246Y-123583200D01*
X181400354Y-123583200D01*
X181400358Y-123583200D01*
X181437548Y-123575802D01*
X181479722Y-123547622D01*
X181507902Y-123505448D01*
X181515300Y-123468258D01*
X181515300Y-121743142D01*
X181507902Y-121705952D01*
X181479722Y-121663778D01*
X181479720Y-121663776D01*
X181437550Y-121635599D01*
X181437546Y-121635597D01*
X181400361Y-121628200D01*
X181400358Y-121628200D01*
X180914300Y-121628200D01*
X180839800Y-121608238D01*
X180785262Y-121553700D01*
X180765300Y-121479200D01*
X180765300Y-121408746D01*
X180743498Y-121356113D01*
X180743497Y-121356111D01*
X180734124Y-121333482D01*
X180730666Y-121325132D01*
X175452868Y-116047335D01*
X175369253Y-116012700D01*
X175369252Y-116012700D01*
X175109929Y-116012700D01*
X175035429Y-115992738D01*
X174980891Y-115938200D01*
X174960929Y-115863700D01*
X174980891Y-115789200D01*
X175027147Y-115739812D01*
X175042620Y-115729474D01*
X175178774Y-115593320D01*
X175285750Y-115433220D01*
X175359436Y-115255326D01*
X175397000Y-115066475D01*
X175397000Y-114873925D01*
X175359436Y-114685074D01*
X175285750Y-114507180D01*
X175178774Y-114347080D01*
X175042620Y-114210926D01*
X175042616Y-114210923D01*
X174891857Y-114110188D01*
X174841004Y-114052200D01*
X174825957Y-113976554D01*
X174850750Y-113903519D01*
X174908738Y-113852666D01*
X174974638Y-113837300D01*
X176769652Y-113837300D01*
X176769653Y-113837300D01*
X176853268Y-113802665D01*
X177840593Y-112815341D01*
X177907388Y-112776777D01*
X177945952Y-112771700D01*
X185478918Y-112771700D01*
X185553418Y-112791662D01*
X185607956Y-112846200D01*
X185627918Y-112920700D01*
X185609822Y-112988234D01*
X185610372Y-112988462D01*
X185608642Y-112992637D01*
X185607956Y-112995200D01*
X185607952Y-112995206D01*
X185606634Y-112997488D01*
X185606633Y-112997490D01*
X185606633Y-112997491D01*
X185600918Y-113018817D01*
X185577500Y-113106216D01*
X185577500Y-113218783D01*
X185606633Y-113327510D01*
X185631244Y-113370136D01*
X185662915Y-113424991D01*
X185742509Y-113504585D01*
X185839991Y-113560867D01*
X185948719Y-113590000D01*
X185948721Y-113590000D01*
X186049049Y-113590000D01*
X186123549Y-113609962D01*
X186154408Y-113633641D01*
X187340459Y-114819692D01*
X187379023Y-114886487D01*
X187384100Y-114925051D01*
X187384100Y-115293430D01*
X187364138Y-115367930D01*
X187309600Y-115422468D01*
X187235100Y-115442430D01*
X187195981Y-115437203D01*
X187193732Y-115436591D01*
X187170535Y-115433900D01*
X187170532Y-115433900D01*
X185762668Y-115433900D01*
X185762665Y-115433900D01*
X185739468Y-115436591D01*
X185644559Y-115478495D01*
X185644558Y-115478497D01*
X185571197Y-115551858D01*
X185571195Y-115551859D01*
X185529291Y-115646768D01*
X185526600Y-115669965D01*
X185526600Y-116052834D01*
X185527707Y-116062377D01*
X185516463Y-116138681D01*
X185485059Y-116184906D01*
X185277207Y-116392759D01*
X185210412Y-116431323D01*
X185171848Y-116436400D01*
X185071516Y-116436400D01*
X184962789Y-116465533D01*
X184865310Y-116521814D01*
X184785714Y-116601410D01*
X184729433Y-116698889D01*
X184700300Y-116807616D01*
X184700300Y-116920183D01*
X184729433Y-117028910D01*
X184756393Y-117075605D01*
X184785715Y-117126391D01*
X184865309Y-117205985D01*
X184905494Y-117229186D01*
X184962787Y-117262265D01*
X184962791Y-117262267D01*
X185071519Y-117291400D01*
X185071521Y-117291400D01*
X185184079Y-117291400D01*
X185184081Y-117291400D01*
X185292809Y-117262267D01*
X185309989Y-117252348D01*
X185384488Y-117232383D01*
X185458989Y-117252343D01*
X185513528Y-117306879D01*
X185528265Y-117342260D01*
X185529291Y-117346033D01*
X185571195Y-117440940D01*
X185597901Y-117467646D01*
X185636465Y-117534441D01*
X185636465Y-117611569D01*
X185597901Y-117678364D01*
X184396906Y-118879359D01*
X184330111Y-118917923D01*
X184291547Y-118923000D01*
X183109677Y-118923000D01*
X183109661Y-118923002D01*
X183036294Y-118933691D01*
X182923111Y-118989022D01*
X182834022Y-119078111D01*
X182778690Y-119191294D01*
X182768000Y-119264664D01*
X182768000Y-120364049D01*
X182748038Y-120438549D01*
X182693500Y-120493087D01*
X182619000Y-120513049D01*
X182544500Y-120493087D01*
X182513641Y-120469408D01*
X181899308Y-119855075D01*
X181860744Y-119788280D01*
X181860744Y-119711152D01*
X181899306Y-119644359D01*
X181959076Y-119584590D01*
X181973184Y-119555731D01*
X182014409Y-119471405D01*
X182025099Y-119398035D01*
X182025099Y-119398033D01*
X182025100Y-119398027D01*
X182025099Y-118376374D01*
X182014409Y-118302996D01*
X181985284Y-118243419D01*
X181959077Y-118189811D01*
X181869988Y-118100722D01*
X181756805Y-118045390D01*
X181683430Y-118034700D01*
X181111778Y-118034700D01*
X181111761Y-118034702D01*
X181038394Y-118045391D01*
X181038393Y-118045391D01*
X181025918Y-118051490D01*
X180950221Y-118066275D01*
X180877272Y-118041231D01*
X180855121Y-118022988D01*
X178536268Y-115704135D01*
X178452653Y-115669500D01*
X178452652Y-115669500D01*
X178083194Y-115669500D01*
X178008694Y-115649538D01*
X177977836Y-115625860D01*
X177906892Y-115554916D01*
X177906891Y-115554915D01*
X177865291Y-115530897D01*
X177809410Y-115498633D01*
X177700683Y-115469500D01*
X177700681Y-115469500D01*
X177588119Y-115469500D01*
X177588116Y-115469500D01*
X177479389Y-115498633D01*
X177381910Y-115554914D01*
X177302314Y-115634510D01*
X177246033Y-115731989D01*
X177216900Y-115840716D01*
X177216900Y-115953283D01*
X177246033Y-116062010D01*
X177290300Y-116138681D01*
X177302315Y-116159491D01*
X177381909Y-116239085D01*
X177479391Y-116295367D01*
X177588119Y-116324500D01*
X177588121Y-116324500D01*
X177700679Y-116324500D01*
X177700681Y-116324500D01*
X177809409Y-116295367D01*
X177906891Y-116239085D01*
X177977836Y-116168140D01*
X178044631Y-116129577D01*
X178083194Y-116124500D01*
X178251449Y-116124500D01*
X178325949Y-116144462D01*
X178356808Y-116168141D01*
X180726459Y-118537792D01*
X180765023Y-118604587D01*
X180770100Y-118643151D01*
X180770100Y-119398021D01*
X180770102Y-119398038D01*
X180780791Y-119471405D01*
X180836122Y-119584588D01*
X180925211Y-119673677D01*
X181038395Y-119729009D01*
X181101601Y-119738218D01*
X181172445Y-119768712D01*
X181204011Y-119802884D01*
X181204735Y-119803968D01*
X188042232Y-126641466D01*
X188101357Y-126665955D01*
X188125847Y-126676100D01*
X188125848Y-126676100D01*
X188216353Y-126676100D01*
X193315117Y-126676100D01*
X193389617Y-126696062D01*
X193444155Y-126750600D01*
X193462560Y-126803619D01*
X193464991Y-126820305D01*
X193520322Y-126933488D01*
X193609411Y-127022577D01*
X193722594Y-127077909D01*
X193752768Y-127082305D01*
X193795973Y-127088600D01*
X194767626Y-127088599D01*
X194841004Y-127077909D01*
X194954190Y-127022576D01*
X195043276Y-126933490D01*
X195057923Y-126903529D01*
X195098609Y-126820305D01*
X195109299Y-126746935D01*
X195109299Y-126746933D01*
X195109300Y-126746927D01*
X195109299Y-126150274D01*
X195098609Y-126076896D01*
X195076140Y-126030935D01*
X195043277Y-125963711D01*
X194954188Y-125874622D01*
X194841005Y-125819290D01*
X194767630Y-125808600D01*
X193795977Y-125808600D01*
X193795961Y-125808602D01*
X193722594Y-125819291D01*
X193609411Y-125874622D01*
X193520322Y-125963711D01*
X193464991Y-126076894D01*
X193462559Y-126093585D01*
X193432063Y-126164428D01*
X193370231Y-126210532D01*
X193315116Y-126221100D01*
X188327052Y-126221100D01*
X188252552Y-126201138D01*
X188221693Y-126177459D01*
X185768059Y-123723825D01*
X183276590Y-121232357D01*
X183238027Y-121165563D01*
X183238027Y-121088435D01*
X183276591Y-121021640D01*
X183343386Y-120983076D01*
X183381943Y-120977999D01*
X185181326Y-120977999D01*
X185254704Y-120967309D01*
X185367890Y-120911976D01*
X185456976Y-120822890D01*
X185474350Y-120787351D01*
X185512309Y-120709705D01*
X185522999Y-120636335D01*
X185522999Y-120636333D01*
X185523000Y-120636327D01*
X185522999Y-119264674D01*
X185522999Y-119264673D01*
X185522999Y-119264669D01*
X185522998Y-119264664D01*
X186768000Y-119264664D01*
X186768000Y-120636322D01*
X186768002Y-120636338D01*
X186778691Y-120709705D01*
X186834022Y-120822888D01*
X186923111Y-120911977D01*
X187036294Y-120967309D01*
X187066468Y-120971705D01*
X187109673Y-120978000D01*
X189181326Y-120977999D01*
X189254704Y-120967309D01*
X189367890Y-120911976D01*
X189456976Y-120822890D01*
X189474350Y-120787351D01*
X189512309Y-120709705D01*
X189522999Y-120636335D01*
X189522999Y-120636333D01*
X189523000Y-120636327D01*
X189522999Y-119264674D01*
X189512309Y-119191296D01*
X189472695Y-119110264D01*
X189456977Y-119078111D01*
X189367889Y-118989023D01*
X189254059Y-118933375D01*
X189195897Y-118882721D01*
X189170853Y-118809772D01*
X189170500Y-118799515D01*
X189170500Y-118738493D01*
X189190462Y-118663993D01*
X189214137Y-118633138D01*
X189285085Y-118562191D01*
X189341367Y-118464709D01*
X189370500Y-118355981D01*
X189370500Y-118243419D01*
X189341367Y-118134691D01*
X189340575Y-118133320D01*
X189301866Y-118066275D01*
X189285085Y-118037209D01*
X189205491Y-117957615D01*
X189181546Y-117943790D01*
X189108010Y-117901333D01*
X188999283Y-117872200D01*
X188999281Y-117872200D01*
X188886719Y-117872200D01*
X188886716Y-117872200D01*
X188777989Y-117901333D01*
X188680510Y-117957614D01*
X188600914Y-118037210D01*
X188544633Y-118134689D01*
X188515500Y-118243416D01*
X188515500Y-118355983D01*
X188544633Y-118464710D01*
X188574597Y-118516607D01*
X188600915Y-118562191D01*
X188671860Y-118633136D01*
X188710423Y-118699929D01*
X188715500Y-118738493D01*
X188715500Y-118774000D01*
X188695538Y-118848500D01*
X188641000Y-118903038D01*
X188566500Y-118923000D01*
X187109677Y-118923000D01*
X187109661Y-118923002D01*
X187036294Y-118933691D01*
X186923111Y-118989022D01*
X186834022Y-119078111D01*
X186778690Y-119191294D01*
X186768000Y-119264664D01*
X185522998Y-119264664D01*
X185516971Y-119223300D01*
X185512309Y-119191296D01*
X185472695Y-119110264D01*
X185456977Y-119078111D01*
X185367888Y-118989022D01*
X185261740Y-118937130D01*
X185203577Y-118886476D01*
X185178533Y-118813527D01*
X185193320Y-118737830D01*
X185221821Y-118697911D01*
X185729922Y-118189811D01*
X186317192Y-117602541D01*
X186383987Y-117563977D01*
X186422551Y-117558900D01*
X187170535Y-117558900D01*
X187182133Y-117557554D01*
X187193734Y-117556208D01*
X187288642Y-117514303D01*
X187362003Y-117440942D01*
X187403908Y-117346034D01*
X187406600Y-117322832D01*
X187406600Y-116939968D01*
X187406600Y-116939965D01*
X187403909Y-116916769D01*
X187400722Y-116909550D01*
X187378133Y-116858391D01*
X187366304Y-116782179D01*
X187394166Y-116710259D01*
X187409072Y-116692860D01*
X187804466Y-116297468D01*
X187839100Y-116213853D01*
X187839100Y-116123347D01*
X187839100Y-114723847D01*
X187828955Y-114699357D01*
X187804466Y-114640232D01*
X186476140Y-113311907D01*
X186437577Y-113245113D01*
X186432500Y-113206549D01*
X186432500Y-113106220D01*
X186432499Y-113106216D01*
X186403367Y-112997491D01*
X186402048Y-112995206D01*
X186401363Y-112992653D01*
X186399628Y-112988462D01*
X186400179Y-112988233D01*
X186382082Y-112920707D01*
X186402041Y-112846206D01*
X186456576Y-112791666D01*
X186531075Y-112771700D01*
X189368449Y-112771700D01*
X189442949Y-112791662D01*
X189473808Y-112815341D01*
X191972902Y-115314435D01*
X192011466Y-115381230D01*
X192011466Y-115458358D01*
X191972902Y-115525153D01*
X191946197Y-115551858D01*
X191946195Y-115551859D01*
X191904291Y-115646768D01*
X191901600Y-115669965D01*
X191901600Y-116052834D01*
X191904291Y-116076031D01*
X191904291Y-116076033D01*
X191904292Y-116076034D01*
X191909971Y-116088895D01*
X191946195Y-116170940D01*
X192019559Y-116244304D01*
X192056327Y-116260538D01*
X192114466Y-116286208D01*
X192123746Y-116287284D01*
X192137665Y-116288900D01*
X192137668Y-116288900D01*
X193545535Y-116288900D01*
X193557133Y-116287554D01*
X193568734Y-116286208D01*
X193663642Y-116244303D01*
X193737003Y-116170942D01*
X193778908Y-116076034D01*
X193781600Y-116052832D01*
X193781600Y-115669968D01*
X193778908Y-115646766D01*
X193739360Y-115557196D01*
X193737004Y-115551859D01*
X193663640Y-115478495D01*
X193585537Y-115444011D01*
X193568734Y-115436592D01*
X193568733Y-115436591D01*
X193568731Y-115436591D01*
X193545535Y-115433900D01*
X193545532Y-115433900D01*
X192797551Y-115433900D01*
X192723051Y-115413938D01*
X192692192Y-115390259D01*
X189653268Y-112351335D01*
X189611237Y-112333925D01*
X189569653Y-112316700D01*
X189569652Y-112316700D01*
X178166500Y-112316700D01*
X178092000Y-112296738D01*
X178037462Y-112242200D01*
X178017500Y-112167700D01*
X178017500Y-111571846D01*
X178007669Y-111548113D01*
X178007668Y-111548111D01*
X177982866Y-111488232D01*
X171156669Y-104662036D01*
X171156668Y-104662035D01*
X171073053Y-104627400D01*
X171073052Y-104627400D01*
X165922894Y-104627400D01*
X165848394Y-104607438D01*
X165817536Y-104583760D01*
X165746592Y-104512816D01*
X165746591Y-104512815D01*
X165725987Y-104500919D01*
X165649110Y-104456533D01*
X165540383Y-104427400D01*
X165540381Y-104427400D01*
X165427819Y-104427400D01*
X165427816Y-104427400D01*
X165319089Y-104456533D01*
X165221610Y-104512814D01*
X165142014Y-104592410D01*
X165085733Y-104689889D01*
X165056600Y-104798616D01*
X165056600Y-104911183D01*
X165085733Y-105019910D01*
X165121813Y-105082400D01*
X165142015Y-105117391D01*
X165221609Y-105196985D01*
X165319091Y-105253267D01*
X165427819Y-105282400D01*
X165427821Y-105282400D01*
X165540379Y-105282400D01*
X165540381Y-105282400D01*
X165649109Y-105253267D01*
X165746591Y-105196985D01*
X165817536Y-105126040D01*
X165884331Y-105087477D01*
X165922894Y-105082400D01*
X170871849Y-105082400D01*
X170946349Y-105102362D01*
X170977208Y-105126041D01*
X177518859Y-111667692D01*
X177557423Y-111734487D01*
X177562500Y-111773051D01*
X177562500Y-112388248D01*
X177542538Y-112462748D01*
X177518859Y-112493607D01*
X176673808Y-113338659D01*
X176607013Y-113377223D01*
X176568449Y-113382300D01*
X175209512Y-113382300D01*
X175135012Y-113362338D01*
X175080474Y-113307800D01*
X175060512Y-113233300D01*
X175080474Y-113158800D01*
X175104153Y-113127941D01*
X175141005Y-113091089D01*
X175178774Y-113053320D01*
X175285750Y-112893220D01*
X175359436Y-112715326D01*
X175397000Y-112526475D01*
X175397000Y-112333925D01*
X175391169Y-112304612D01*
X175370898Y-112202700D01*
X175359436Y-112145074D01*
X175285750Y-111967180D01*
X175273393Y-111948687D01*
X175178776Y-111807083D01*
X175178774Y-111807080D01*
X175042620Y-111670926D01*
X175042616Y-111670923D01*
X174882527Y-111563954D01*
X174882521Y-111563951D01*
X174882520Y-111563950D01*
X174882517Y-111563949D01*
X174882512Y-111563946D01*
X174704629Y-111490265D01*
X174704623Y-111490263D01*
X174515775Y-111452700D01*
X174323225Y-111452700D01*
X174134376Y-111490263D01*
X174134370Y-111490265D01*
X173956487Y-111563946D01*
X173956472Y-111563954D01*
X173796383Y-111670923D01*
X173796376Y-111670929D01*
X173660229Y-111807076D01*
X173660223Y-111807083D01*
X173553254Y-111967172D01*
X173553246Y-111967187D01*
X173493794Y-112110719D01*
X173446842Y-112171909D01*
X173375585Y-112201425D01*
X173356136Y-112202700D01*
X168766399Y-112202700D01*
X168691899Y-112182738D01*
X168637361Y-112128200D01*
X168617399Y-112053700D01*
X168617399Y-111757977D01*
X168617397Y-111757964D01*
X168606709Y-111684596D01*
X168576178Y-111622143D01*
X168551377Y-111571411D01*
X168462288Y-111482322D01*
X168349105Y-111426990D01*
X168275730Y-111416300D01*
X167679078Y-111416300D01*
X167679061Y-111416302D01*
X167605698Y-111426990D01*
X167597268Y-111429595D01*
X167520195Y-111432513D01*
X167451989Y-111396504D01*
X167447927Y-111392593D01*
X167092469Y-111037136D01*
X167092468Y-111037135D01*
X167019685Y-111006987D01*
X167008853Y-111002500D01*
X163757253Y-111002500D01*
X163666747Y-111002500D01*
X163666745Y-111002500D01*
X163583134Y-111037132D01*
X161916507Y-112703759D01*
X161849712Y-112742323D01*
X161811148Y-112747400D01*
X161710816Y-112747400D01*
X161602089Y-112776533D01*
X161504610Y-112832814D01*
X161425014Y-112912410D01*
X161368733Y-113009889D01*
X161339600Y-113118616D01*
X161339600Y-113231183D01*
X161368733Y-113339910D01*
X161393208Y-113382300D01*
X161425015Y-113437391D01*
X161504609Y-113516985D01*
X161504611Y-113516986D01*
X161511515Y-113523890D01*
X161510092Y-113525312D01*
X161549354Y-113576480D01*
X161559421Y-113652949D01*
X161529906Y-113724206D01*
X161468716Y-113771158D01*
X161411696Y-113782500D01*
X153993364Y-113782500D01*
X153918864Y-113762538D01*
X153864326Y-113708000D01*
X153855706Y-113690519D01*
X153796253Y-113546987D01*
X153796252Y-113546986D01*
X153796250Y-113546980D01*
X153767922Y-113504585D01*
X153689276Y-113386883D01*
X153689274Y-113386880D01*
X153589253Y-113286859D01*
X153550689Y-113220064D01*
X153550689Y-113142936D01*
X153589253Y-113076141D01*
X153656048Y-113037577D01*
X153694612Y-113032500D01*
X159124206Y-113032500D01*
X159198706Y-113052462D01*
X159229564Y-113076140D01*
X159300509Y-113147085D01*
X159397991Y-113203367D01*
X159506719Y-113232500D01*
X159506721Y-113232500D01*
X159619279Y-113232500D01*
X159619281Y-113232500D01*
X159728009Y-113203367D01*
X159825491Y-113147085D01*
X159905085Y-113067491D01*
X159961367Y-112970009D01*
X159990500Y-112861281D01*
X159990500Y-112748719D01*
X159961367Y-112639991D01*
X159905085Y-112542509D01*
X159825491Y-112462915D01*
X159782764Y-112438246D01*
X159728010Y-112406633D01*
X159619283Y-112377500D01*
X159619281Y-112377500D01*
X159506719Y-112377500D01*
X159506716Y-112377500D01*
X159397989Y-112406633D01*
X159300510Y-112462914D01*
X159300507Y-112462916D01*
X159229564Y-112533860D01*
X159162769Y-112572423D01*
X159124206Y-112577500D01*
X153523151Y-112577500D01*
X153448651Y-112557538D01*
X153394113Y-112503000D01*
X153374151Y-112428500D01*
X153394113Y-112354000D01*
X153440370Y-112304612D01*
X153484705Y-112274987D01*
X153553120Y-112229274D01*
X153689274Y-112093120D01*
X153796250Y-111933020D01*
X153869936Y-111755126D01*
X153907500Y-111566275D01*
X153907500Y-111373725D01*
X153904467Y-111358479D01*
X153884511Y-111258151D01*
X153869936Y-111184874D01*
X153796250Y-111006980D01*
X153689274Y-110846880D01*
X153553120Y-110710726D01*
X153537648Y-110700387D01*
X153486795Y-110642401D01*
X153471748Y-110566755D01*
X153496540Y-110493720D01*
X153554528Y-110442866D01*
X153620429Y-110427500D01*
X156132249Y-110427500D01*
X156206749Y-110447462D01*
X156237608Y-110471141D01*
X156919259Y-111152792D01*
X156957823Y-111219587D01*
X156962900Y-111258151D01*
X156962900Y-111358483D01*
X156992033Y-111467210D01*
X157011624Y-111501141D01*
X157048315Y-111564691D01*
X157127909Y-111644285D01*
X157225391Y-111700567D01*
X157334119Y-111729700D01*
X157334121Y-111729700D01*
X157446679Y-111729700D01*
X157446681Y-111729700D01*
X157555409Y-111700567D01*
X157652891Y-111644285D01*
X157732485Y-111564691D01*
X157788767Y-111467209D01*
X157817900Y-111358481D01*
X157817900Y-111245919D01*
X157788767Y-111137191D01*
X157732485Y-111039709D01*
X157652891Y-110960115D01*
X157632287Y-110948219D01*
X157555410Y-110903833D01*
X157446683Y-110874700D01*
X157446681Y-110874700D01*
X157346351Y-110874700D01*
X157271851Y-110854738D01*
X157240992Y-110831059D01*
X156417068Y-110007135D01*
X156333453Y-109972500D01*
X156333452Y-109972500D01*
X153620429Y-109972500D01*
X153545929Y-109952538D01*
X153491391Y-109898000D01*
X153471429Y-109823500D01*
X153491391Y-109749000D01*
X153537647Y-109699612D01*
X153553120Y-109689274D01*
X153689274Y-109553120D01*
X153796250Y-109393020D01*
X153869936Y-109215126D01*
X153907500Y-109026275D01*
X153907500Y-108833725D01*
X153869936Y-108644874D01*
X153796250Y-108466980D01*
X153689274Y-108306880D01*
X153553120Y-108170726D01*
X153537648Y-108160387D01*
X153486795Y-108102401D01*
X153471748Y-108026755D01*
X153496540Y-107953720D01*
X153554528Y-107902866D01*
X153620429Y-107887500D01*
X158040649Y-107887500D01*
X158115149Y-107907462D01*
X158146008Y-107931141D01*
X158231659Y-108016792D01*
X158270223Y-108083587D01*
X158275300Y-108122151D01*
X158275300Y-108222483D01*
X158304433Y-108331210D01*
X158348819Y-108408087D01*
X158360715Y-108428691D01*
X158440309Y-108508285D01*
X158537791Y-108564567D01*
X158646519Y-108593700D01*
X158646521Y-108593700D01*
X158759079Y-108593700D01*
X158759081Y-108593700D01*
X158867809Y-108564567D01*
X158965291Y-108508285D01*
X159044885Y-108428691D01*
X159101167Y-108331209D01*
X159130300Y-108222481D01*
X159130300Y-108109919D01*
X159101167Y-108001191D01*
X159044885Y-107903709D01*
X158965291Y-107824115D01*
X158895404Y-107783765D01*
X158867810Y-107767833D01*
X158759083Y-107738700D01*
X158759081Y-107738700D01*
X158658751Y-107738700D01*
X158584251Y-107718738D01*
X158553392Y-107695059D01*
X158325468Y-107467135D01*
X158241853Y-107432500D01*
X158241852Y-107432500D01*
X153620429Y-107432500D01*
X153545929Y-107412538D01*
X153491391Y-107358000D01*
X153471429Y-107283500D01*
X153491391Y-107209000D01*
X153537647Y-107159612D01*
X153553120Y-107149274D01*
X153689274Y-107013120D01*
X153796250Y-106853020D01*
X153869936Y-106675126D01*
X153907500Y-106486275D01*
X153907500Y-106293725D01*
X153869936Y-106104874D01*
X153796250Y-105926980D01*
X153689274Y-105766880D01*
X153553120Y-105630726D01*
X153553116Y-105630723D01*
X153393027Y-105523754D01*
X153393021Y-105523751D01*
X153393020Y-105523750D01*
X153393017Y-105523749D01*
X153393012Y-105523746D01*
X153215129Y-105450065D01*
X153215123Y-105450063D01*
X153026275Y-105412500D01*
X152833725Y-105412500D01*
X152644876Y-105450063D01*
X152644870Y-105450065D01*
X152466987Y-105523746D01*
X152466972Y-105523754D01*
X152306883Y-105630723D01*
X152306876Y-105630729D01*
X152170729Y-105766876D01*
X152170723Y-105766883D01*
X152063754Y-105926972D01*
X152063746Y-105926987D01*
X151990065Y-106104870D01*
X151990063Y-106104876D01*
X151952500Y-106293724D01*
X151952500Y-106486275D01*
X151990063Y-106675123D01*
X151990065Y-106675129D01*
X152063746Y-106853012D01*
X152063754Y-106853027D01*
X152139503Y-106966392D01*
X152170726Y-107013120D01*
X152306880Y-107149274D01*
X152322351Y-107159612D01*
X152373205Y-107217599D01*
X152388252Y-107293245D01*
X152363460Y-107366280D01*
X152305472Y-107417134D01*
X152239571Y-107432500D01*
X136575951Y-107432500D01*
X136501451Y-107412538D01*
X136470592Y-107388859D01*
X132835457Y-103753724D01*
X151952500Y-103753724D01*
X151952500Y-103946275D01*
X151990063Y-104135123D01*
X151990065Y-104135129D01*
X152063746Y-104313012D01*
X152063754Y-104313027D01*
X152170723Y-104473116D01*
X152170726Y-104473120D01*
X152306880Y-104609274D01*
X152306883Y-104609276D01*
X152466972Y-104716245D01*
X152466974Y-104716246D01*
X152466980Y-104716250D01*
X152644874Y-104789936D01*
X152833725Y-104827500D01*
X153026275Y-104827500D01*
X153215126Y-104789936D01*
X153393020Y-104716250D01*
X153553120Y-104609274D01*
X153689274Y-104473120D01*
X153796250Y-104313020D01*
X153855706Y-104169481D01*
X153902658Y-104108291D01*
X153973915Y-104078775D01*
X153993364Y-104077500D01*
X193155052Y-104077500D01*
X193155053Y-104077500D01*
X193238668Y-104042865D01*
X195952043Y-101329490D01*
X196018836Y-101290928D01*
X196095964Y-101290928D01*
X196162759Y-101329492D01*
X196201323Y-101396287D01*
X196206400Y-101434851D01*
X196206400Y-101790161D01*
X196213797Y-101827346D01*
X196213799Y-101827350D01*
X196241976Y-101869520D01*
X196241978Y-101869522D01*
X196284152Y-101897702D01*
X196321342Y-101905100D01*
X196321346Y-101905100D01*
X198046454Y-101905100D01*
X198046458Y-101905100D01*
X198083648Y-101897702D01*
X198125822Y-101869522D01*
X198154002Y-101827348D01*
X198161400Y-101790158D01*
X198161400Y-100065042D01*
X198154002Y-100027852D01*
X198125822Y-99985678D01*
X198125820Y-99985676D01*
X198083650Y-99957499D01*
X198083646Y-99957497D01*
X198046461Y-99950100D01*
X198046458Y-99950100D01*
X196321342Y-99950100D01*
X196321338Y-99950100D01*
X196284153Y-99957497D01*
X196284149Y-99957499D01*
X196241979Y-99985676D01*
X196241976Y-99985679D01*
X196213799Y-100027849D01*
X196213797Y-100027853D01*
X196206400Y-100065038D01*
X196206400Y-100551100D01*
X196186438Y-100625600D01*
X196131900Y-100680138D01*
X196057400Y-100700100D01*
X195986945Y-100700100D01*
X195903334Y-100734732D01*
X195903331Y-100734734D01*
X193059208Y-103578859D01*
X192992413Y-103617423D01*
X192953849Y-103622500D01*
X153993364Y-103622500D01*
X153918864Y-103602538D01*
X153864326Y-103548000D01*
X153855706Y-103530519D01*
X153796253Y-103386987D01*
X153796252Y-103386986D01*
X153796250Y-103386980D01*
X153689274Y-103226880D01*
X153553120Y-103090726D01*
X153553116Y-103090723D01*
X153393027Y-102983754D01*
X153393021Y-102983751D01*
X153393020Y-102983750D01*
X153393017Y-102983749D01*
X153393012Y-102983746D01*
X153215129Y-102910065D01*
X153215123Y-102910063D01*
X153026275Y-102872500D01*
X152833725Y-102872500D01*
X152644876Y-102910063D01*
X152644870Y-102910065D01*
X152466987Y-102983746D01*
X152466972Y-102983754D01*
X152306883Y-103090723D01*
X152306876Y-103090729D01*
X152170729Y-103226876D01*
X152170723Y-103226883D01*
X152063754Y-103386972D01*
X152063746Y-103386987D01*
X151990065Y-103564870D01*
X151990063Y-103564876D01*
X151952500Y-103753724D01*
X132835457Y-103753724D01*
X130982778Y-101901045D01*
X130944214Y-101834250D01*
X130944214Y-101757122D01*
X130950475Y-101738677D01*
X131009936Y-101595126D01*
X131047500Y-101406275D01*
X131047500Y-101213725D01*
X131009936Y-101024874D01*
X130936250Y-100846980D01*
X130829274Y-100686880D01*
X130693120Y-100550726D01*
X130693116Y-100550723D01*
X130533027Y-100443754D01*
X130533021Y-100443751D01*
X130533020Y-100443750D01*
X130533017Y-100443749D01*
X130533012Y-100443746D01*
X130355129Y-100370065D01*
X130355123Y-100370063D01*
X130166275Y-100332500D01*
X129973725Y-100332500D01*
X129784876Y-100370063D01*
X129784870Y-100370065D01*
X129606987Y-100443746D01*
X129606972Y-100443754D01*
X129446883Y-100550723D01*
X129446876Y-100550729D01*
X129310729Y-100686876D01*
X129310723Y-100686883D01*
X129203754Y-100846972D01*
X129203746Y-100846987D01*
X129130065Y-101024870D01*
X129130063Y-101024876D01*
X129092500Y-101213724D01*
X129092500Y-101406275D01*
X129130063Y-101595123D01*
X129130065Y-101595129D01*
X129203746Y-101773012D01*
X129203754Y-101773027D01*
X129310723Y-101933116D01*
X129310726Y-101933120D01*
X129446880Y-102069274D01*
X129446883Y-102069276D01*
X129606972Y-102176245D01*
X129606974Y-102176246D01*
X129606980Y-102176250D01*
X129784874Y-102249936D01*
X129973725Y-102287500D01*
X130166275Y-102287500D01*
X130355126Y-102249936D01*
X130498669Y-102190478D01*
X130575134Y-102180412D01*
X130646391Y-102209927D01*
X130661045Y-102222778D01*
X136155237Y-107716970D01*
X136193801Y-107783765D01*
X136193801Y-107860893D01*
X136155238Y-107927685D01*
X136092861Y-107990063D01*
X136077916Y-108005008D01*
X136077914Y-108005010D01*
X136021633Y-108102489D01*
X135992500Y-108211216D01*
X135992500Y-108323783D01*
X136021633Y-108432510D01*
X136041530Y-108466972D01*
X136077915Y-108529991D01*
X136157509Y-108609585D01*
X136254991Y-108665867D01*
X136363719Y-108695000D01*
X136363721Y-108695000D01*
X136464049Y-108695000D01*
X136538549Y-108714962D01*
X136569407Y-108738640D01*
X137399934Y-109569168D01*
X138223631Y-110392865D01*
X138223634Y-110392867D01*
X138248682Y-110403242D01*
X138307247Y-110427500D01*
X152239571Y-110427500D01*
X152314071Y-110447462D01*
X152368609Y-110502000D01*
X152388571Y-110576500D01*
X152368609Y-110651000D01*
X152322352Y-110700387D01*
X152313449Y-110706336D01*
X152306881Y-110710725D01*
X152306876Y-110710729D01*
X152170729Y-110846876D01*
X152170723Y-110846883D01*
X152063754Y-111006972D01*
X152063746Y-111006987D01*
X151990065Y-111184870D01*
X151990063Y-111184876D01*
X151952500Y-111373724D01*
X151952500Y-111566275D01*
X151990063Y-111755123D01*
X151990065Y-111755129D01*
X152063746Y-111933012D01*
X152063754Y-111933027D01*
X152099986Y-111987251D01*
X152170726Y-112093120D01*
X152306880Y-112229274D01*
X152306883Y-112229276D01*
X152419630Y-112304612D01*
X152470483Y-112362600D01*
X152485530Y-112438246D01*
X152460737Y-112511281D01*
X152402749Y-112562134D01*
X152336849Y-112577500D01*
X139180951Y-112577500D01*
X139106451Y-112557538D01*
X139075592Y-112533859D01*
X130982778Y-104441045D01*
X130944214Y-104374250D01*
X130944214Y-104297122D01*
X130950475Y-104278677D01*
X131009936Y-104135126D01*
X131047500Y-103946275D01*
X131047500Y-103753725D01*
X131009936Y-103564874D01*
X130936250Y-103386980D01*
X130829274Y-103226880D01*
X130693120Y-103090726D01*
X130693116Y-103090723D01*
X130533027Y-102983754D01*
X130533021Y-102983751D01*
X130533020Y-102983750D01*
X130533017Y-102983749D01*
X130533012Y-102983746D01*
X130355129Y-102910065D01*
X130355123Y-102910063D01*
X130166275Y-102872500D01*
X129973725Y-102872500D01*
X129784876Y-102910063D01*
X129784870Y-102910065D01*
X129606987Y-102983746D01*
X129606972Y-102983754D01*
X129446883Y-103090723D01*
X129446876Y-103090729D01*
X129310729Y-103226876D01*
X129310723Y-103226883D01*
X129203754Y-103386972D01*
X129203746Y-103386987D01*
X129130065Y-103564870D01*
X129130063Y-103564876D01*
X129092500Y-103753724D01*
X129092500Y-103946275D01*
X129130063Y-104135123D01*
X129130065Y-104135129D01*
X129203746Y-104313012D01*
X129203754Y-104313027D01*
X129310723Y-104473116D01*
X129310726Y-104473120D01*
X129446880Y-104609274D01*
X129446883Y-104609276D01*
X129606972Y-104716245D01*
X129606974Y-104716246D01*
X129606980Y-104716250D01*
X129784874Y-104789936D01*
X129973725Y-104827500D01*
X130166275Y-104827500D01*
X130355126Y-104789936D01*
X130498669Y-104730478D01*
X130575134Y-104720412D01*
X130646391Y-104749927D01*
X130661045Y-104762778D01*
X138832135Y-112933868D01*
X138896132Y-112997865D01*
X138979747Y-113032500D01*
X152165388Y-113032500D01*
X152239888Y-113052462D01*
X152294426Y-113107000D01*
X152314388Y-113181500D01*
X152294426Y-113256000D01*
X152270747Y-113286859D01*
X152170729Y-113386876D01*
X152170723Y-113386883D01*
X152063754Y-113546972D01*
X152063746Y-113546987D01*
X151990065Y-113724870D01*
X151990063Y-113724876D01*
X151952500Y-113913724D01*
X151952500Y-114106275D01*
X151990063Y-114295123D01*
X151990065Y-114295129D01*
X152063746Y-114473012D01*
X152063754Y-114473027D01*
X152170723Y-114633116D01*
X152170729Y-114633123D01*
X152232147Y-114694541D01*
X152270711Y-114761336D01*
X152270711Y-114838464D01*
X152232147Y-114905259D01*
X152165352Y-114943823D01*
X152126788Y-114948900D01*
X137082951Y-114948900D01*
X137008451Y-114928938D01*
X136977592Y-114905259D01*
X132079468Y-110007135D01*
X131995853Y-109972500D01*
X131995852Y-109972500D01*
X130760429Y-109972500D01*
X130685929Y-109952538D01*
X130631391Y-109898000D01*
X130611429Y-109823500D01*
X130631391Y-109749000D01*
X130677647Y-109699612D01*
X130693120Y-109689274D01*
X130829274Y-109553120D01*
X130936250Y-109393020D01*
X131009936Y-109215126D01*
X131047500Y-109026275D01*
X131047500Y-108833725D01*
X131009936Y-108644874D01*
X130936250Y-108466980D01*
X130829274Y-108306880D01*
X130693120Y-108170726D01*
X130663826Y-108151152D01*
X130533027Y-108063754D01*
X130533021Y-108063751D01*
X130533020Y-108063750D01*
X130533017Y-108063749D01*
X130533012Y-108063746D01*
X130355129Y-107990065D01*
X130355123Y-107990063D01*
X130166275Y-107952500D01*
X129973725Y-107952500D01*
X129784876Y-107990063D01*
X129784870Y-107990065D01*
X129606987Y-108063746D01*
X129606972Y-108063754D01*
X129446883Y-108170723D01*
X129446876Y-108170729D01*
X129399659Y-108217947D01*
X129332864Y-108256511D01*
X129255736Y-108256511D01*
X129188941Y-108217947D01*
X129150377Y-108151152D01*
X129145300Y-108112588D01*
X129145300Y-107698150D01*
X129165262Y-107623650D01*
X129188938Y-107592794D01*
X129478955Y-107302776D01*
X129545748Y-107264214D01*
X129622876Y-107264214D01*
X129641331Y-107270478D01*
X129784874Y-107329936D01*
X129973725Y-107367500D01*
X130166275Y-107367500D01*
X130355126Y-107329936D01*
X130533020Y-107256250D01*
X130693120Y-107149274D01*
X130829274Y-107013120D01*
X130936250Y-106853020D01*
X131009936Y-106675126D01*
X131047500Y-106486275D01*
X131047500Y-106293725D01*
X131009936Y-106104874D01*
X130936250Y-105926980D01*
X130829274Y-105766880D01*
X130693120Y-105630726D01*
X130693116Y-105630723D01*
X130533027Y-105523754D01*
X130533021Y-105523751D01*
X130533020Y-105523750D01*
X130533017Y-105523749D01*
X130533012Y-105523746D01*
X130355129Y-105450065D01*
X130355123Y-105450063D01*
X130166275Y-105412500D01*
X129973725Y-105412500D01*
X129784876Y-105450063D01*
X129784870Y-105450065D01*
X129606987Y-105523746D01*
X129606972Y-105523754D01*
X129446883Y-105630723D01*
X129446876Y-105630729D01*
X129310729Y-105766876D01*
X129310723Y-105766883D01*
X129203754Y-105926972D01*
X129203746Y-105926987D01*
X129130065Y-106104870D01*
X129130063Y-106104876D01*
X129092500Y-106293724D01*
X129092500Y-106486275D01*
X129130063Y-106675123D01*
X129130065Y-106675129D01*
X129189520Y-106818667D01*
X129199587Y-106895135D01*
X129170071Y-106966392D01*
X129157221Y-106981045D01*
X128802019Y-107336247D01*
X128802017Y-107336249D01*
X128788932Y-107349335D01*
X128724935Y-107413332D01*
X128690300Y-107496947D01*
X120500500Y-107496947D01*
X120500500Y-98673724D01*
X129092500Y-98673724D01*
X129092500Y-98866275D01*
X129130063Y-99055123D01*
X129130065Y-99055129D01*
X129203746Y-99233012D01*
X129203754Y-99233027D01*
X129310723Y-99393116D01*
X129310726Y-99393120D01*
X129446880Y-99529274D01*
X129446883Y-99529276D01*
X129606972Y-99636245D01*
X129606974Y-99636246D01*
X129606980Y-99636250D01*
X129784874Y-99709936D01*
X129973725Y-99747500D01*
X130166275Y-99747500D01*
X130355126Y-99709936D01*
X130533020Y-99636250D01*
X130693120Y-99529274D01*
X130829274Y-99393120D01*
X130936250Y-99233020D01*
X131009936Y-99055126D01*
X131047500Y-98866275D01*
X131047500Y-98673725D01*
X131047500Y-98673724D01*
X151952500Y-98673724D01*
X151952500Y-98866275D01*
X151990063Y-99055123D01*
X151990065Y-99055129D01*
X152063746Y-99233012D01*
X152063754Y-99233027D01*
X152170723Y-99393116D01*
X152170726Y-99393120D01*
X152306880Y-99529274D01*
X152306883Y-99529276D01*
X152466972Y-99636245D01*
X152466974Y-99636246D01*
X152466980Y-99636250D01*
X152644874Y-99709936D01*
X152833725Y-99747500D01*
X153026275Y-99747500D01*
X153215126Y-99709936D01*
X153393020Y-99636250D01*
X153553120Y-99529274D01*
X153689274Y-99393120D01*
X153796250Y-99233020D01*
X153869936Y-99055126D01*
X153907500Y-98866275D01*
X153907500Y-98673725D01*
X153869936Y-98484874D01*
X153796250Y-98306980D01*
X153689274Y-98146880D01*
X153553120Y-98010726D01*
X153553116Y-98010723D01*
X153393027Y-97903754D01*
X153393021Y-97903751D01*
X153393020Y-97903750D01*
X153393017Y-97903749D01*
X153393012Y-97903746D01*
X153215129Y-97830065D01*
X153215123Y-97830063D01*
X153026275Y-97792500D01*
X152833725Y-97792500D01*
X152644876Y-97830063D01*
X152644870Y-97830065D01*
X152466987Y-97903746D01*
X152466972Y-97903754D01*
X152306883Y-98010723D01*
X152306876Y-98010729D01*
X152170729Y-98146876D01*
X152170723Y-98146883D01*
X152063754Y-98306972D01*
X152063746Y-98306987D01*
X151990065Y-98484870D01*
X151990063Y-98484876D01*
X151952500Y-98673724D01*
X131047500Y-98673724D01*
X131009936Y-98484874D01*
X130936250Y-98306980D01*
X130829274Y-98146880D01*
X130693120Y-98010726D01*
X130693116Y-98010723D01*
X130533027Y-97903754D01*
X130533021Y-97903751D01*
X130533020Y-97903750D01*
X130533017Y-97903749D01*
X130533012Y-97903746D01*
X130355129Y-97830065D01*
X130355123Y-97830063D01*
X130166275Y-97792500D01*
X129973725Y-97792500D01*
X129784876Y-97830063D01*
X129784870Y-97830065D01*
X129606987Y-97903746D01*
X129606972Y-97903754D01*
X129446883Y-98010723D01*
X129446876Y-98010729D01*
X129310729Y-98146876D01*
X129310723Y-98146883D01*
X129203754Y-98306972D01*
X129203746Y-98306987D01*
X129130065Y-98484870D01*
X129130063Y-98484876D01*
X129092500Y-98673724D01*
X120500500Y-98673724D01*
X120500500Y-85973724D01*
X129092500Y-85973724D01*
X129092500Y-86166275D01*
X129130063Y-86355123D01*
X129130065Y-86355129D01*
X129203746Y-86533012D01*
X129203754Y-86533027D01*
X129310723Y-86693116D01*
X129310726Y-86693120D01*
X129446880Y-86829274D01*
X129446883Y-86829276D01*
X129606972Y-86936245D01*
X129606974Y-86936246D01*
X129606980Y-86936250D01*
X129606986Y-86936252D01*
X129606987Y-86936253D01*
X129609452Y-86937274D01*
X129784874Y-87009936D01*
X129973725Y-87047500D01*
X130166275Y-87047500D01*
X130355126Y-87009936D01*
X130533020Y-86936250D01*
X130693120Y-86829274D01*
X130829274Y-86693120D01*
X130936250Y-86533020D01*
X131009936Y-86355126D01*
X131047500Y-86166275D01*
X131047500Y-85973725D01*
X131009936Y-85784874D01*
X130950478Y-85641331D01*
X130940412Y-85564865D01*
X130969927Y-85493608D01*
X130982769Y-85478963D01*
X131273193Y-85188541D01*
X131339988Y-85149977D01*
X131378552Y-85144900D01*
X152112988Y-85144900D01*
X152187488Y-85164862D01*
X152242026Y-85219400D01*
X152261988Y-85293900D01*
X152242026Y-85368400D01*
X152218347Y-85399259D01*
X152170729Y-85446876D01*
X152170723Y-85446883D01*
X152063754Y-85606972D01*
X152063746Y-85606987D01*
X151990065Y-85784870D01*
X151990063Y-85784876D01*
X151952500Y-85973724D01*
X151952500Y-86166275D01*
X151990063Y-86355123D01*
X151990065Y-86355129D01*
X152063746Y-86533012D01*
X152063754Y-86533027D01*
X152170723Y-86693116D01*
X152170729Y-86693123D01*
X152264047Y-86786441D01*
X152302611Y-86853236D01*
X152302611Y-86930364D01*
X152264047Y-86997159D01*
X152197252Y-87035723D01*
X152158688Y-87040800D01*
X131366447Y-87040800D01*
X131324639Y-87058117D01*
X131282831Y-87075435D01*
X131282830Y-87075436D01*
X130661045Y-87697220D01*
X130594250Y-87735784D01*
X130517122Y-87735784D01*
X130498667Y-87729520D01*
X130431770Y-87701811D01*
X130355126Y-87670064D01*
X130355122Y-87670063D01*
X130166275Y-87632500D01*
X129973725Y-87632500D01*
X129784876Y-87670063D01*
X129784870Y-87670065D01*
X129606987Y-87743746D01*
X129606972Y-87743754D01*
X129446883Y-87850723D01*
X129446876Y-87850729D01*
X129310729Y-87986876D01*
X129310723Y-87986883D01*
X129203754Y-88146972D01*
X129203746Y-88146987D01*
X129130065Y-88324870D01*
X129130063Y-88324876D01*
X129092500Y-88513724D01*
X129092500Y-88706275D01*
X129130063Y-88895123D01*
X129130065Y-88895129D01*
X129203746Y-89073012D01*
X129203754Y-89073027D01*
X129310723Y-89233116D01*
X129310726Y-89233120D01*
X129446880Y-89369274D01*
X129446883Y-89369276D01*
X129606972Y-89476245D01*
X129606974Y-89476246D01*
X129606980Y-89476250D01*
X129606986Y-89476252D01*
X129606987Y-89476253D01*
X129611837Y-89478262D01*
X129784874Y-89549936D01*
X129973725Y-89587500D01*
X130166275Y-89587500D01*
X130355126Y-89549936D01*
X130533020Y-89476250D01*
X130693120Y-89369274D01*
X130829274Y-89233120D01*
X130936250Y-89073020D01*
X131009936Y-88895126D01*
X131047500Y-88706275D01*
X131047500Y-88513725D01*
X131009936Y-88324874D01*
X130950478Y-88181331D01*
X130940412Y-88104863D01*
X130969928Y-88033606D01*
X130982769Y-88018962D01*
X131462292Y-87539441D01*
X131529087Y-87500877D01*
X131567651Y-87495800D01*
X152346876Y-87495800D01*
X152421376Y-87515762D01*
X152475914Y-87570300D01*
X152495876Y-87644800D01*
X152475914Y-87719300D01*
X152429657Y-87768688D01*
X152306883Y-87850723D01*
X152306876Y-87850729D01*
X152170729Y-87986876D01*
X152170723Y-87986883D01*
X152063754Y-88146972D01*
X152063746Y-88146987D01*
X151990065Y-88324870D01*
X151990063Y-88324876D01*
X151952500Y-88513724D01*
X151952500Y-88706275D01*
X151990063Y-88895123D01*
X151990065Y-88895129D01*
X152063746Y-89073012D01*
X152063754Y-89073027D01*
X152170723Y-89233116D01*
X152170726Y-89233120D01*
X152306880Y-89369274D01*
X152306883Y-89369276D01*
X152473067Y-89480318D01*
X152472284Y-89481488D01*
X152522603Y-89528613D01*
X152544995Y-89602419D01*
X152527484Y-89677533D01*
X152474762Y-89733828D01*
X152400956Y-89756220D01*
X152396075Y-89756300D01*
X131281453Y-89756300D01*
X131190947Y-89756300D01*
X131149139Y-89773617D01*
X131107331Y-89790934D01*
X131107330Y-89790935D01*
X130661044Y-90237220D01*
X130594249Y-90275784D01*
X130517121Y-90275784D01*
X130498666Y-90269519D01*
X130355129Y-90210065D01*
X130355123Y-90210063D01*
X130166275Y-90172500D01*
X129973725Y-90172500D01*
X129784876Y-90210063D01*
X129784870Y-90210065D01*
X129606987Y-90283746D01*
X129606972Y-90283754D01*
X129446883Y-90390723D01*
X129446876Y-90390729D01*
X129310729Y-90526876D01*
X129310723Y-90526883D01*
X129203754Y-90686972D01*
X129203746Y-90686987D01*
X129130065Y-90864870D01*
X129130063Y-90864876D01*
X129092500Y-91053724D01*
X129092500Y-91246275D01*
X129130063Y-91435123D01*
X129130065Y-91435129D01*
X129203746Y-91613012D01*
X129203754Y-91613027D01*
X129310723Y-91773116D01*
X129310726Y-91773120D01*
X129446880Y-91909274D01*
X129446883Y-91909276D01*
X129606972Y-92016245D01*
X129606974Y-92016246D01*
X129606980Y-92016250D01*
X129784874Y-92089936D01*
X129973725Y-92127500D01*
X130166275Y-92127500D01*
X130355126Y-92089936D01*
X130533020Y-92016250D01*
X130693120Y-91909274D01*
X130829274Y-91773120D01*
X130936250Y-91613020D01*
X131009936Y-91435126D01*
X131047500Y-91246275D01*
X131047500Y-91053725D01*
X131009936Y-90864874D01*
X130950478Y-90721331D01*
X130940412Y-90644865D01*
X130969927Y-90573608D01*
X130982769Y-90558963D01*
X131286793Y-90254941D01*
X131353588Y-90216377D01*
X131392152Y-90211300D01*
X152126588Y-90211300D01*
X152201088Y-90231262D01*
X152255626Y-90285800D01*
X152275588Y-90360300D01*
X152255626Y-90434800D01*
X152231947Y-90465659D01*
X152170729Y-90526876D01*
X152170723Y-90526883D01*
X152063754Y-90686972D01*
X152063746Y-90686987D01*
X151990065Y-90864870D01*
X151990063Y-90864876D01*
X151952500Y-91053724D01*
X151952500Y-91246275D01*
X151990063Y-91435123D01*
X151990065Y-91435129D01*
X152063746Y-91613012D01*
X152063754Y-91613027D01*
X152170723Y-91773116D01*
X152170726Y-91773120D01*
X152306880Y-91909274D01*
X152306883Y-91909276D01*
X152412147Y-91979612D01*
X152463000Y-92037600D01*
X152478047Y-92113246D01*
X152453254Y-92186281D01*
X152395266Y-92237134D01*
X152329366Y-92252500D01*
X131234747Y-92252500D01*
X131192939Y-92269817D01*
X131151131Y-92287135D01*
X130661045Y-92777221D01*
X130594250Y-92815785D01*
X130517122Y-92815785D01*
X130498667Y-92809520D01*
X130355129Y-92750065D01*
X130355123Y-92750063D01*
X130166275Y-92712500D01*
X129973725Y-92712500D01*
X129784876Y-92750063D01*
X129784870Y-92750065D01*
X129606987Y-92823746D01*
X129606972Y-92823754D01*
X129446883Y-92930723D01*
X129446876Y-92930729D01*
X129310729Y-93066876D01*
X129310723Y-93066883D01*
X129203754Y-93226972D01*
X129203746Y-93226987D01*
X129130065Y-93404870D01*
X129130063Y-93404876D01*
X129092500Y-93593724D01*
X129092500Y-93786275D01*
X129130063Y-93975123D01*
X129130065Y-93975129D01*
X129203746Y-94153012D01*
X129203754Y-94153027D01*
X129310723Y-94313116D01*
X129310726Y-94313120D01*
X129446880Y-94449274D01*
X129446883Y-94449276D01*
X129606972Y-94556245D01*
X129606974Y-94556246D01*
X129606980Y-94556250D01*
X129784874Y-94629936D01*
X129973725Y-94667500D01*
X130166275Y-94667500D01*
X130355126Y-94629936D01*
X130533020Y-94556250D01*
X130693120Y-94449274D01*
X130829274Y-94313120D01*
X130936250Y-94153020D01*
X131009936Y-93975126D01*
X131047500Y-93786275D01*
X131047500Y-93593725D01*
X131009936Y-93404874D01*
X130950478Y-93261331D01*
X130940412Y-93184863D01*
X130969928Y-93113606D01*
X130982769Y-93098962D01*
X131330592Y-92751141D01*
X131397387Y-92712577D01*
X131435951Y-92707500D01*
X152170388Y-92707500D01*
X152244888Y-92727462D01*
X152299426Y-92782000D01*
X152319388Y-92856500D01*
X152299426Y-92931000D01*
X152275747Y-92961859D01*
X152170729Y-93066876D01*
X152170723Y-93066883D01*
X152063754Y-93226972D01*
X152063746Y-93226987D01*
X152004294Y-93370519D01*
X151957342Y-93431709D01*
X151886085Y-93461225D01*
X151866636Y-93462500D01*
X150682753Y-93462500D01*
X150592247Y-93462500D01*
X150550439Y-93479817D01*
X150508631Y-93497135D01*
X149971907Y-94033859D01*
X149905112Y-94072423D01*
X149866548Y-94077500D01*
X149766216Y-94077500D01*
X149657489Y-94106633D01*
X149560010Y-94162914D01*
X149480414Y-94242510D01*
X149424133Y-94339989D01*
X149395000Y-94448716D01*
X149395000Y-94561283D01*
X149424133Y-94670010D01*
X149435016Y-94688859D01*
X149480415Y-94767491D01*
X149560009Y-94847085D01*
X149614045Y-94878283D01*
X149657485Y-94903364D01*
X149657487Y-94903365D01*
X149657491Y-94903367D01*
X149657494Y-94903367D01*
X149660625Y-94904664D01*
X149663325Y-94906735D01*
X149665950Y-94908251D01*
X149665750Y-94908596D01*
X149721820Y-94951611D01*
X149751342Y-95022865D01*
X149741283Y-95099334D01*
X149708978Y-95147687D01*
X148897808Y-95958859D01*
X148831013Y-95997423D01*
X148792449Y-96002500D01*
X131133364Y-96002500D01*
X131058864Y-95982538D01*
X131004326Y-95928000D01*
X130995706Y-95910519D01*
X130936253Y-95766987D01*
X130936252Y-95766986D01*
X130936250Y-95766980D01*
X130829274Y-95606880D01*
X130693120Y-95470726D01*
X130677650Y-95460389D01*
X130533027Y-95363754D01*
X130533021Y-95363751D01*
X130533020Y-95363750D01*
X130533017Y-95363749D01*
X130533012Y-95363746D01*
X130355129Y-95290065D01*
X130355123Y-95290063D01*
X130166275Y-95252500D01*
X129973725Y-95252500D01*
X129784876Y-95290063D01*
X129784870Y-95290065D01*
X129606987Y-95363746D01*
X129606972Y-95363754D01*
X129446883Y-95470723D01*
X129446876Y-95470729D01*
X129310729Y-95606876D01*
X129310723Y-95606883D01*
X129203754Y-95766972D01*
X129203746Y-95766987D01*
X129130065Y-95944870D01*
X129130063Y-95944876D01*
X129092500Y-96133724D01*
X129092500Y-96326275D01*
X129130063Y-96515123D01*
X129130065Y-96515129D01*
X129203746Y-96693012D01*
X129203754Y-96693027D01*
X129310723Y-96853116D01*
X129310726Y-96853120D01*
X129446880Y-96989274D01*
X129446883Y-96989276D01*
X129606972Y-97096245D01*
X129606974Y-97096246D01*
X129606980Y-97096250D01*
X129784874Y-97169936D01*
X129973725Y-97207500D01*
X130166275Y-97207500D01*
X130355126Y-97169936D01*
X130533020Y-97096250D01*
X130693120Y-96989274D01*
X130829274Y-96853120D01*
X130936250Y-96693020D01*
X130995706Y-96549481D01*
X131042658Y-96488291D01*
X131113915Y-96458775D01*
X131133364Y-96457500D01*
X148993652Y-96457500D01*
X148993653Y-96457500D01*
X149077268Y-96422865D01*
X150268992Y-95231141D01*
X150335787Y-95192577D01*
X150374351Y-95187500D01*
X152239571Y-95187500D01*
X152314071Y-95207462D01*
X152368609Y-95262000D01*
X152388571Y-95336500D01*
X152368609Y-95411000D01*
X152322352Y-95460387D01*
X152313449Y-95466336D01*
X152306881Y-95470725D01*
X152306876Y-95470729D01*
X152170729Y-95606876D01*
X152170723Y-95606883D01*
X152063754Y-95766972D01*
X152063746Y-95766987D01*
X151990065Y-95944870D01*
X151990063Y-95944876D01*
X151952500Y-96133724D01*
X151952500Y-96326275D01*
X151990063Y-96515123D01*
X151990065Y-96515129D01*
X152063746Y-96693012D01*
X152063754Y-96693027D01*
X152170723Y-96853116D01*
X152170726Y-96853120D01*
X152306880Y-96989274D01*
X152306883Y-96989276D01*
X152466972Y-97096245D01*
X152466974Y-97096246D01*
X152466980Y-97096250D01*
X152644874Y-97169936D01*
X152833725Y-97207500D01*
X153026275Y-97207500D01*
X153215126Y-97169936D01*
X153393020Y-97096250D01*
X153553120Y-96989274D01*
X153689274Y-96853120D01*
X153796250Y-96693020D01*
X153869936Y-96515126D01*
X153907500Y-96326275D01*
X153907500Y-96133725D01*
X153869936Y-95944874D01*
X153796250Y-95766980D01*
X153689274Y-95606880D01*
X153553120Y-95470726D01*
X153537648Y-95460387D01*
X153486795Y-95402401D01*
X153471748Y-95326755D01*
X153496540Y-95253720D01*
X153554528Y-95202866D01*
X153620429Y-95187500D01*
X180259552Y-95187500D01*
X180259553Y-95187500D01*
X180343168Y-95152865D01*
X187920842Y-87575191D01*
X187987635Y-87536629D01*
X188064763Y-87536629D01*
X188131558Y-87575193D01*
X188170122Y-87641988D01*
X188172070Y-87701402D01*
X188173217Y-87701515D01*
X188172500Y-87708794D01*
X188172500Y-87911199D01*
X188211985Y-88109707D01*
X188211986Y-88109711D01*
X188289437Y-88296695D01*
X188289443Y-88296708D01*
X188379337Y-88431242D01*
X188401888Y-88464992D01*
X188545007Y-88608111D01*
X188612047Y-88652906D01*
X188713290Y-88720555D01*
X188713294Y-88720557D01*
X188713296Y-88720558D01*
X188900289Y-88798013D01*
X189098800Y-88837499D01*
X189301200Y-88837499D01*
X189499711Y-88798013D01*
X189686704Y-88720558D01*
X189686707Y-88720555D01*
X189686709Y-88720555D01*
X189720911Y-88697701D01*
X189854993Y-88608111D01*
X189998112Y-88464992D01*
X190091738Y-88324870D01*
X190110556Y-88296708D01*
X190110556Y-88296706D01*
X190110559Y-88296703D01*
X190188014Y-88109710D01*
X190227500Y-87911199D01*
X190227500Y-87708799D01*
X190188014Y-87510288D01*
X190110559Y-87323295D01*
X190110558Y-87323293D01*
X190110556Y-87323289D01*
X190029236Y-87201587D01*
X189998112Y-87155006D01*
X189969230Y-87126124D01*
X196202100Y-87126124D01*
X196202100Y-87318675D01*
X196239663Y-87507523D01*
X196239665Y-87507529D01*
X196313346Y-87685412D01*
X196313354Y-87685427D01*
X196399075Y-87813716D01*
X196420326Y-87845520D01*
X196556480Y-87981674D01*
X196556483Y-87981676D01*
X196716572Y-88088645D01*
X196716574Y-88088646D01*
X196716580Y-88088650D01*
X196894474Y-88162336D01*
X197083325Y-88199900D01*
X197275875Y-88199900D01*
X197464726Y-88162336D01*
X197642620Y-88088650D01*
X197802720Y-87981674D01*
X197938874Y-87845520D01*
X198045850Y-87685420D01*
X198119536Y-87507526D01*
X198157100Y-87318675D01*
X198157100Y-87126125D01*
X198119536Y-86937274D01*
X198045850Y-86759380D01*
X198034220Y-86741975D01*
X197938876Y-86599283D01*
X197938874Y-86599280D01*
X197802720Y-86463126D01*
X197802716Y-86463123D01*
X197642627Y-86356154D01*
X197642621Y-86356151D01*
X197642620Y-86356150D01*
X197642617Y-86356149D01*
X197642612Y-86356146D01*
X197464729Y-86282465D01*
X197464723Y-86282463D01*
X197275875Y-86244900D01*
X197083325Y-86244900D01*
X196894476Y-86282463D01*
X196894470Y-86282465D01*
X196716587Y-86356146D01*
X196716572Y-86356154D01*
X196556483Y-86463123D01*
X196556476Y-86463129D01*
X196420329Y-86599276D01*
X196420323Y-86599283D01*
X196313354Y-86759372D01*
X196313346Y-86759387D01*
X196239665Y-86937270D01*
X196239663Y-86937276D01*
X196202100Y-87126124D01*
X189969230Y-87126124D01*
X189854993Y-87011887D01*
X189854989Y-87011884D01*
X189794135Y-86971222D01*
X189743281Y-86913233D01*
X189728235Y-86837587D01*
X189753028Y-86764553D01*
X189771557Y-86741975D01*
X189780766Y-86732765D01*
X189780768Y-86732765D01*
X190643066Y-85870468D01*
X190643067Y-85870466D01*
X190667556Y-85811342D01*
X190667559Y-85811332D01*
X190677700Y-85786853D01*
X190677700Y-83934947D01*
X190667801Y-83911050D01*
X190667801Y-83911046D01*
X190667800Y-83911047D01*
X190643066Y-83851332D01*
X190418009Y-83626275D01*
X190151045Y-83359312D01*
X190112482Y-83292518D01*
X190112482Y-83215390D01*
X190118742Y-83196947D01*
X190188014Y-83029711D01*
X190227500Y-82831200D01*
X190227500Y-82628800D01*
X190222849Y-82605420D01*
X190188014Y-82430291D01*
X190188013Y-82430287D01*
X190186869Y-82427526D01*
X190110559Y-82243296D01*
X190110558Y-82243294D01*
X190110556Y-82243290D01*
X190042907Y-82142047D01*
X189998112Y-82075007D01*
X189900964Y-81977859D01*
X189862400Y-81911064D01*
X189862400Y-81833936D01*
X189900964Y-81767141D01*
X189967759Y-81728577D01*
X190006323Y-81723500D01*
X193837249Y-81723500D01*
X193911749Y-81743462D01*
X193942608Y-81767141D01*
X196266821Y-84091354D01*
X196305385Y-84158149D01*
X196305385Y-84235277D01*
X196299120Y-84253732D01*
X196239665Y-84397270D01*
X196239663Y-84397276D01*
X196202100Y-84586124D01*
X196202100Y-84778675D01*
X196239663Y-84967523D01*
X196239665Y-84967529D01*
X196313346Y-85145412D01*
X196313354Y-85145427D01*
X196420323Y-85305516D01*
X196420326Y-85305520D01*
X196556480Y-85441674D01*
X196556483Y-85441676D01*
X196716572Y-85548645D01*
X196716574Y-85548646D01*
X196716580Y-85548650D01*
X196894474Y-85622336D01*
X197083325Y-85659900D01*
X197275875Y-85659900D01*
X197464726Y-85622336D01*
X197642620Y-85548650D01*
X197802720Y-85441674D01*
X197938874Y-85305520D01*
X198045850Y-85145420D01*
X198119536Y-84967526D01*
X198157100Y-84778675D01*
X198157100Y-84586125D01*
X198119536Y-84397274D01*
X198045850Y-84219380D01*
X197938874Y-84059280D01*
X197802720Y-83923126D01*
X197802716Y-83923123D01*
X197642627Y-83816154D01*
X197642621Y-83816151D01*
X197642620Y-83816150D01*
X197642617Y-83816149D01*
X197642612Y-83816146D01*
X197464729Y-83742465D01*
X197464723Y-83742463D01*
X197275875Y-83704900D01*
X197083325Y-83704900D01*
X196894476Y-83742463D01*
X196894470Y-83742465D01*
X196750932Y-83801920D01*
X196674464Y-83811987D01*
X196603207Y-83782471D01*
X196588554Y-83769621D01*
X194865057Y-82046124D01*
X196202100Y-82046124D01*
X196202100Y-82238675D01*
X196239663Y-82427523D01*
X196239665Y-82427529D01*
X196313346Y-82605412D01*
X196313354Y-82605427D01*
X196420323Y-82765516D01*
X196420326Y-82765520D01*
X196556480Y-82901674D01*
X196556483Y-82901676D01*
X196716572Y-83008645D01*
X196716574Y-83008646D01*
X196716580Y-83008650D01*
X196716586Y-83008652D01*
X196716587Y-83008653D01*
X196750121Y-83022543D01*
X196894474Y-83082336D01*
X197083325Y-83119900D01*
X197275875Y-83119900D01*
X197464726Y-83082336D01*
X197642620Y-83008650D01*
X197802720Y-82901674D01*
X197938874Y-82765520D01*
X198045850Y-82605420D01*
X198119536Y-82427526D01*
X198157100Y-82238675D01*
X198157100Y-82046125D01*
X198119536Y-81857274D01*
X198045850Y-81679380D01*
X197938874Y-81519280D01*
X197802720Y-81383126D01*
X197802716Y-81383123D01*
X197642627Y-81276154D01*
X197642621Y-81276151D01*
X197642620Y-81276150D01*
X197642617Y-81276149D01*
X197642612Y-81276146D01*
X197464729Y-81202465D01*
X197464723Y-81202463D01*
X197275875Y-81164900D01*
X197083325Y-81164900D01*
X196894476Y-81202463D01*
X196894470Y-81202465D01*
X196716587Y-81276146D01*
X196716572Y-81276154D01*
X196556483Y-81383123D01*
X196556476Y-81383129D01*
X196420329Y-81519276D01*
X196420323Y-81519283D01*
X196313354Y-81679372D01*
X196313346Y-81679387D01*
X196239665Y-81857270D01*
X196239663Y-81857276D01*
X196202100Y-82046124D01*
X194865057Y-82046124D01*
X194122068Y-81303135D01*
X194038453Y-81268500D01*
X189926548Y-81268500D01*
X189852048Y-81248538D01*
X189797510Y-81194000D01*
X189777548Y-81119500D01*
X189797510Y-81045000D01*
X189843767Y-80995612D01*
X189844310Y-80995248D01*
X189854993Y-80988111D01*
X189998112Y-80844992D01*
X190110559Y-80676703D01*
X190188014Y-80489710D01*
X190227500Y-80291199D01*
X190227500Y-80088799D01*
X190188014Y-79890288D01*
X190110559Y-79703295D01*
X190110558Y-79703293D01*
X190110556Y-79703289D01*
X190042907Y-79602046D01*
X189998112Y-79535006D01*
X189854993Y-79391887D01*
X189821243Y-79369336D01*
X189686709Y-79279442D01*
X189686696Y-79279436D01*
X189499712Y-79201985D01*
X189499708Y-79201984D01*
X189301200Y-79162499D01*
X189098800Y-79162499D01*
X188900291Y-79201984D01*
X188900287Y-79201985D01*
X188713303Y-79279436D01*
X188713290Y-79279442D01*
X188545008Y-79391886D01*
X188545003Y-79391890D01*
X188401891Y-79535002D01*
X188401887Y-79535007D01*
X188289443Y-79703289D01*
X188289437Y-79703302D01*
X188211986Y-79890286D01*
X188211985Y-79890290D01*
X188172500Y-80088798D01*
X188172500Y-80291199D01*
X188211985Y-80489707D01*
X188211986Y-80489711D01*
X188289437Y-80676695D01*
X188289443Y-80676708D01*
X188379337Y-80811242D01*
X188401888Y-80844992D01*
X188545007Y-80988111D01*
X188545010Y-80988113D01*
X188556233Y-80995612D01*
X188607086Y-81053600D01*
X188622133Y-81129246D01*
X188597340Y-81202281D01*
X188539352Y-81253134D01*
X188473452Y-81268500D01*
X164526548Y-81268500D01*
X164452048Y-81248538D01*
X164397510Y-81194000D01*
X164377548Y-81119500D01*
X164397510Y-81045000D01*
X164443767Y-80995612D01*
X164444310Y-80995248D01*
X164454993Y-80988111D01*
X164598112Y-80844992D01*
X164710559Y-80676703D01*
X164788014Y-80489710D01*
X164827500Y-80291199D01*
X164827500Y-80088799D01*
X164788014Y-79890288D01*
X164710559Y-79703295D01*
X164710558Y-79703293D01*
X164710556Y-79703289D01*
X164642907Y-79602046D01*
X164598112Y-79535006D01*
X164454993Y-79391887D01*
X164421243Y-79369336D01*
X164286709Y-79279442D01*
X164286696Y-79279436D01*
X164099712Y-79201985D01*
X164099708Y-79201984D01*
X163901200Y-79162499D01*
X163698800Y-79162499D01*
X163500291Y-79201984D01*
X163500287Y-79201985D01*
X163313303Y-79279436D01*
X163313290Y-79279442D01*
X163145008Y-79391886D01*
X163145003Y-79391890D01*
X163001891Y-79535002D01*
X163001887Y-79535007D01*
X162889443Y-79703289D01*
X162889437Y-79703302D01*
X162811986Y-79890286D01*
X162811985Y-79890290D01*
X162772500Y-80088798D01*
X162772500Y-80291199D01*
X162811985Y-80489707D01*
X162811986Y-80489711D01*
X162889437Y-80676695D01*
X162889443Y-80676708D01*
X162979337Y-80811242D01*
X163001888Y-80844992D01*
X163145007Y-80988111D01*
X163145010Y-80988113D01*
X163156233Y-80995612D01*
X163207086Y-81053600D01*
X163222133Y-81129246D01*
X163197340Y-81202281D01*
X163139352Y-81253134D01*
X163073452Y-81268500D01*
X158601847Y-81268500D01*
X158583379Y-81276150D01*
X158518231Y-81303135D01*
X156837387Y-82983979D01*
X156770592Y-83022543D01*
X156693464Y-83022543D01*
X156671849Y-83014926D01*
X156657640Y-83008653D01*
X156650930Y-83005690D01*
X156627735Y-83003000D01*
X156627732Y-83003000D01*
X156244868Y-83003000D01*
X156244865Y-83003000D01*
X156221668Y-83005691D01*
X156126759Y-83047595D01*
X156126758Y-83047597D01*
X156053397Y-83120958D01*
X156053395Y-83120959D01*
X156011491Y-83215868D01*
X156008800Y-83239065D01*
X156008800Y-84540900D01*
X155988838Y-84615400D01*
X155934300Y-84669938D01*
X155859800Y-84689900D01*
X153433160Y-84689900D01*
X153358660Y-84669938D01*
X153304122Y-84615400D01*
X153284160Y-84540900D01*
X153304122Y-84466400D01*
X153358660Y-84411862D01*
X153376134Y-84403244D01*
X153393020Y-84396250D01*
X153553120Y-84289274D01*
X153689274Y-84153120D01*
X153796250Y-83993020D01*
X153869936Y-83815126D01*
X153907500Y-83626275D01*
X153907500Y-83433725D01*
X153869936Y-83244874D01*
X153796250Y-83066980D01*
X153783297Y-83047595D01*
X153689276Y-82906883D01*
X153689274Y-82906880D01*
X153553120Y-82770726D01*
X153553116Y-82770723D01*
X153393027Y-82663754D01*
X153393021Y-82663751D01*
X153393020Y-82663750D01*
X153393017Y-82663749D01*
X153393012Y-82663746D01*
X153215129Y-82590065D01*
X153215123Y-82590063D01*
X153026275Y-82552500D01*
X152833725Y-82552500D01*
X152644876Y-82590063D01*
X152644870Y-82590065D01*
X152466987Y-82663746D01*
X152466972Y-82663754D01*
X152306883Y-82770723D01*
X152306876Y-82770729D01*
X152170729Y-82906876D01*
X152170723Y-82906883D01*
X152063754Y-83066972D01*
X152063746Y-83066987D01*
X151990065Y-83244870D01*
X151990063Y-83244876D01*
X151952500Y-83433724D01*
X151952500Y-83626275D01*
X151990063Y-83815123D01*
X151990065Y-83815129D01*
X152063746Y-83993012D01*
X152063754Y-83993027D01*
X152170723Y-84153116D01*
X152170726Y-84153120D01*
X152306880Y-84289274D01*
X152306883Y-84289276D01*
X152466972Y-84396245D01*
X152466975Y-84396247D01*
X152466980Y-84396250D01*
X152483860Y-84403242D01*
X152545049Y-84450193D01*
X152574565Y-84521450D01*
X152564499Y-84597919D01*
X152517547Y-84659109D01*
X152446290Y-84688625D01*
X152426840Y-84689900D01*
X131177347Y-84689900D01*
X131152857Y-84700044D01*
X131093732Y-84724533D01*
X131093730Y-84724535D01*
X130661044Y-85157220D01*
X130594249Y-85195784D01*
X130517121Y-85195784D01*
X130498666Y-85189519D01*
X130355129Y-85130065D01*
X130355123Y-85130063D01*
X130166275Y-85092500D01*
X129973725Y-85092500D01*
X129784876Y-85130063D01*
X129784870Y-85130065D01*
X129606987Y-85203746D01*
X129606972Y-85203754D01*
X129446883Y-85310723D01*
X129446876Y-85310729D01*
X129310729Y-85446876D01*
X129310723Y-85446883D01*
X129203754Y-85606972D01*
X129203746Y-85606987D01*
X129130065Y-85784870D01*
X129130063Y-85784876D01*
X129092500Y-85973724D01*
X120500500Y-85973724D01*
X120500500Y-80893724D01*
X129092500Y-80893724D01*
X129092500Y-81086275D01*
X129130063Y-81275123D01*
X129130065Y-81275129D01*
X129203746Y-81453012D01*
X129203754Y-81453027D01*
X129310723Y-81613116D01*
X129310726Y-81613120D01*
X129446880Y-81749274D01*
X129446883Y-81749276D01*
X129606972Y-81856245D01*
X129606974Y-81856246D01*
X129606980Y-81856250D01*
X129606986Y-81856252D01*
X129606987Y-81856253D01*
X129609452Y-81857274D01*
X129784874Y-81929936D01*
X129973725Y-81967500D01*
X130166275Y-81967500D01*
X130355126Y-81929936D01*
X130533020Y-81856250D01*
X130693120Y-81749274D01*
X130829274Y-81613120D01*
X130936250Y-81453020D01*
X131009936Y-81275126D01*
X131047500Y-81086275D01*
X131047500Y-80893725D01*
X131047500Y-80893724D01*
X151952500Y-80893724D01*
X151952500Y-81086275D01*
X151990063Y-81275123D01*
X151990065Y-81275129D01*
X152063746Y-81453012D01*
X152063754Y-81453027D01*
X152170723Y-81613116D01*
X152170726Y-81613120D01*
X152306880Y-81749274D01*
X152306883Y-81749276D01*
X152466972Y-81856245D01*
X152466974Y-81856246D01*
X152466980Y-81856250D01*
X152466986Y-81856252D01*
X152466987Y-81856253D01*
X152469452Y-81857274D01*
X152644874Y-81929936D01*
X152833725Y-81967500D01*
X153026275Y-81967500D01*
X153215126Y-81929936D01*
X153393020Y-81856250D01*
X153553120Y-81749274D01*
X153689274Y-81613120D01*
X153796250Y-81453020D01*
X153869936Y-81275126D01*
X153907500Y-81086275D01*
X153907500Y-80893725D01*
X153869936Y-80704874D01*
X153835169Y-80620940D01*
X153825103Y-80544473D01*
X153854618Y-80473216D01*
X153867461Y-80458571D01*
X155586195Y-78739838D01*
X196202100Y-78739838D01*
X196202100Y-80464961D01*
X196209497Y-80502146D01*
X196209499Y-80502150D01*
X196237676Y-80544320D01*
X196237679Y-80544323D01*
X196279849Y-80572500D01*
X196279852Y-80572502D01*
X196317042Y-80579900D01*
X196317046Y-80579900D01*
X198042154Y-80579900D01*
X198042158Y-80579900D01*
X198079348Y-80572502D01*
X198121522Y-80544322D01*
X198149702Y-80502148D01*
X198157100Y-80464958D01*
X198157100Y-78739842D01*
X198149702Y-78702652D01*
X198121522Y-78660478D01*
X198121520Y-78660476D01*
X198079350Y-78632299D01*
X198079346Y-78632297D01*
X198042161Y-78624900D01*
X198042158Y-78624900D01*
X196317042Y-78624900D01*
X196317038Y-78624900D01*
X196279853Y-78632297D01*
X196279849Y-78632299D01*
X196237679Y-78660476D01*
X196237676Y-78660479D01*
X196209499Y-78702649D01*
X196209497Y-78702653D01*
X196202100Y-78739838D01*
X155586195Y-78739838D01*
X155889335Y-78436698D01*
X155956130Y-78398134D01*
X156033258Y-78398134D01*
X156100053Y-78436698D01*
X156126759Y-78463404D01*
X156163527Y-78479638D01*
X156221666Y-78505308D01*
X156230946Y-78506384D01*
X156244865Y-78508000D01*
X156244868Y-78508000D01*
X156627735Y-78508000D01*
X156639333Y-78506654D01*
X156650934Y-78505308D01*
X156745842Y-78463403D01*
X156819203Y-78390042D01*
X156861108Y-78295134D01*
X156863800Y-78271932D01*
X156863800Y-77548799D01*
X162772500Y-77548799D01*
X162772500Y-77751200D01*
X162811985Y-77949708D01*
X162811986Y-77949712D01*
X162889437Y-78136696D01*
X162889443Y-78136709D01*
X162979337Y-78271243D01*
X163001888Y-78304993D01*
X163145007Y-78448112D01*
X163212047Y-78492907D01*
X163313290Y-78560556D01*
X163313294Y-78560558D01*
X163313296Y-78560559D01*
X163500289Y-78638014D01*
X163698800Y-78677500D01*
X163901200Y-78677500D01*
X164099711Y-78638014D01*
X164286704Y-78560559D01*
X164286707Y-78560556D01*
X164286709Y-78560556D01*
X164365364Y-78508000D01*
X164454993Y-78448112D01*
X164598112Y-78304993D01*
X164710559Y-78136704D01*
X164788014Y-77949711D01*
X164827500Y-77751200D01*
X164827500Y-77548800D01*
X164827500Y-77548799D01*
X188172500Y-77548799D01*
X188172500Y-77751200D01*
X188211985Y-77949708D01*
X188211986Y-77949712D01*
X188289437Y-78136696D01*
X188289443Y-78136709D01*
X188379337Y-78271243D01*
X188401888Y-78304993D01*
X188545007Y-78448112D01*
X188612047Y-78492907D01*
X188713290Y-78560556D01*
X188713294Y-78560558D01*
X188713296Y-78560559D01*
X188900289Y-78638014D01*
X189098800Y-78677500D01*
X189301200Y-78677500D01*
X189499711Y-78638014D01*
X189686704Y-78560559D01*
X189686707Y-78560556D01*
X189686709Y-78560556D01*
X189765364Y-78508000D01*
X189854993Y-78448112D01*
X189998112Y-78304993D01*
X190110559Y-78136704D01*
X190188014Y-77949711D01*
X190227500Y-77751200D01*
X190227500Y-77548800D01*
X190188014Y-77350289D01*
X190110559Y-77163296D01*
X190110558Y-77163294D01*
X190110556Y-77163290D01*
X190042907Y-77062047D01*
X189998112Y-76995007D01*
X189854993Y-76851888D01*
X189821243Y-76829337D01*
X189686709Y-76739443D01*
X189686696Y-76739437D01*
X189499712Y-76661986D01*
X189499708Y-76661985D01*
X189301200Y-76622500D01*
X189098800Y-76622500D01*
X188900291Y-76661985D01*
X188900287Y-76661986D01*
X188713303Y-76739437D01*
X188713290Y-76739443D01*
X188545008Y-76851887D01*
X188545003Y-76851891D01*
X188401891Y-76995003D01*
X188401887Y-76995008D01*
X188289443Y-77163290D01*
X188289437Y-77163303D01*
X188211986Y-77350287D01*
X188211985Y-77350291D01*
X188172500Y-77548799D01*
X164827500Y-77548799D01*
X164788014Y-77350289D01*
X164710559Y-77163296D01*
X164710558Y-77163294D01*
X164710556Y-77163290D01*
X164642907Y-77062047D01*
X164598112Y-76995007D01*
X164454993Y-76851888D01*
X164421243Y-76829337D01*
X164286709Y-76739443D01*
X164286696Y-76739437D01*
X164099712Y-76661986D01*
X164099708Y-76661985D01*
X163901200Y-76622500D01*
X163698800Y-76622500D01*
X163500291Y-76661985D01*
X163500287Y-76661986D01*
X163313303Y-76739437D01*
X163313290Y-76739443D01*
X163145008Y-76851887D01*
X163145003Y-76851891D01*
X163001891Y-76995003D01*
X163001887Y-76995008D01*
X162889443Y-77163290D01*
X162889437Y-77163303D01*
X162811986Y-77350287D01*
X162811985Y-77350291D01*
X162772500Y-77548799D01*
X156863800Y-77548799D01*
X156863800Y-76864068D01*
X156861108Y-76840866D01*
X156832576Y-76776245D01*
X156819204Y-76745959D01*
X156745840Y-76672595D01*
X156672302Y-76640126D01*
X156650934Y-76630692D01*
X156650933Y-76630691D01*
X156650931Y-76630691D01*
X156627735Y-76628000D01*
X156627732Y-76628000D01*
X156244868Y-76628000D01*
X156244865Y-76628000D01*
X156221668Y-76630691D01*
X156126759Y-76672595D01*
X156126758Y-76672597D01*
X156053397Y-76745958D01*
X156053395Y-76745959D01*
X156011491Y-76840868D01*
X156008800Y-76864065D01*
X156008800Y-77612048D01*
X155988838Y-77686548D01*
X155965159Y-77717407D01*
X153578872Y-80103693D01*
X153512077Y-80142257D01*
X153434949Y-80142257D01*
X153399907Y-80126377D01*
X153399469Y-80127197D01*
X153393018Y-80123748D01*
X153215129Y-80050065D01*
X153215123Y-80050063D01*
X153026275Y-80012500D01*
X152833725Y-80012500D01*
X152644876Y-80050063D01*
X152644870Y-80050065D01*
X152466987Y-80123746D01*
X152466972Y-80123754D01*
X152306883Y-80230723D01*
X152306876Y-80230729D01*
X152170729Y-80366876D01*
X152170723Y-80366883D01*
X152063754Y-80526972D01*
X152063746Y-80526987D01*
X151990065Y-80704870D01*
X151990063Y-80704876D01*
X151952500Y-80893724D01*
X131047500Y-80893724D01*
X131009936Y-80704874D01*
X130943433Y-80544322D01*
X130936253Y-80526987D01*
X130936252Y-80526986D01*
X130936250Y-80526980D01*
X130919656Y-80502146D01*
X130829276Y-80366883D01*
X130829274Y-80366880D01*
X130693120Y-80230726D01*
X130560718Y-80142257D01*
X130533027Y-80123754D01*
X130533021Y-80123751D01*
X130533020Y-80123750D01*
X130533017Y-80123749D01*
X130533012Y-80123746D01*
X130355129Y-80050065D01*
X130355123Y-80050063D01*
X130166275Y-80012500D01*
X129973725Y-80012500D01*
X129784876Y-80050063D01*
X129784870Y-80050065D01*
X129606987Y-80123746D01*
X129606972Y-80123754D01*
X129446883Y-80230723D01*
X129446876Y-80230729D01*
X129310729Y-80366876D01*
X129310723Y-80366883D01*
X129203754Y-80526972D01*
X129203746Y-80526987D01*
X129130065Y-80704870D01*
X129130063Y-80704876D01*
X129092500Y-80893724D01*
X120500500Y-80893724D01*
X120500500Y-78353724D01*
X129092500Y-78353724D01*
X129092500Y-78546275D01*
X129130063Y-78735123D01*
X129130065Y-78735129D01*
X129203746Y-78913012D01*
X129203754Y-78913027D01*
X129310723Y-79073116D01*
X129310726Y-79073120D01*
X129446880Y-79209274D01*
X129446883Y-79209276D01*
X129606972Y-79316245D01*
X129606974Y-79316246D01*
X129606980Y-79316250D01*
X129784874Y-79389936D01*
X129973725Y-79427500D01*
X130166275Y-79427500D01*
X130355126Y-79389936D01*
X130533020Y-79316250D01*
X130693120Y-79209274D01*
X130829274Y-79073120D01*
X130936250Y-78913020D01*
X131009936Y-78735126D01*
X131047500Y-78546275D01*
X131047500Y-78353725D01*
X131047500Y-78353724D01*
X151952500Y-78353724D01*
X151952500Y-78546275D01*
X151990063Y-78735123D01*
X151990065Y-78735129D01*
X152063746Y-78913012D01*
X152063754Y-78913027D01*
X152170723Y-79073116D01*
X152170726Y-79073120D01*
X152306880Y-79209274D01*
X152306883Y-79209276D01*
X152466972Y-79316245D01*
X152466974Y-79316246D01*
X152466980Y-79316250D01*
X152644874Y-79389936D01*
X152833725Y-79427500D01*
X153026275Y-79427500D01*
X153215126Y-79389936D01*
X153393020Y-79316250D01*
X153553120Y-79209274D01*
X153689274Y-79073120D01*
X153796250Y-78913020D01*
X153869936Y-78735126D01*
X153907500Y-78546275D01*
X153907500Y-78353725D01*
X153869936Y-78164874D01*
X153796250Y-77986980D01*
X153689274Y-77826880D01*
X153553120Y-77690726D01*
X153553116Y-77690723D01*
X153393027Y-77583754D01*
X153393021Y-77583751D01*
X153393020Y-77583750D01*
X153393017Y-77583749D01*
X153393012Y-77583746D01*
X153215129Y-77510065D01*
X153215123Y-77510063D01*
X153026275Y-77472500D01*
X152833725Y-77472500D01*
X152644876Y-77510063D01*
X152644870Y-77510065D01*
X152466987Y-77583746D01*
X152466972Y-77583754D01*
X152306883Y-77690723D01*
X152306876Y-77690729D01*
X152170729Y-77826876D01*
X152170723Y-77826883D01*
X152063754Y-77986972D01*
X152063746Y-77986987D01*
X151990065Y-78164870D01*
X151990063Y-78164876D01*
X151952500Y-78353724D01*
X131047500Y-78353724D01*
X131009936Y-78164874D01*
X130936250Y-77986980D01*
X130829274Y-77826880D01*
X130693120Y-77690726D01*
X130693116Y-77690723D01*
X130533027Y-77583754D01*
X130533021Y-77583751D01*
X130533020Y-77583750D01*
X130533017Y-77583749D01*
X130533012Y-77583746D01*
X130355129Y-77510065D01*
X130355123Y-77510063D01*
X130166275Y-77472500D01*
X129973725Y-77472500D01*
X129784876Y-77510063D01*
X129784870Y-77510065D01*
X129606987Y-77583746D01*
X129606972Y-77583754D01*
X129446883Y-77690723D01*
X129446876Y-77690729D01*
X129310729Y-77826876D01*
X129310723Y-77826883D01*
X129203754Y-77986972D01*
X129203746Y-77986987D01*
X129130065Y-78164870D01*
X129130063Y-78164876D01*
X129092500Y-78353724D01*
X120500500Y-78353724D01*
X120500500Y-75813724D01*
X129092500Y-75813724D01*
X129092500Y-76006275D01*
X129130063Y-76195123D01*
X129130065Y-76195129D01*
X129203746Y-76373012D01*
X129203754Y-76373027D01*
X129310723Y-76533116D01*
X129310726Y-76533120D01*
X129446880Y-76669274D01*
X129446883Y-76669276D01*
X129606972Y-76776245D01*
X129606974Y-76776246D01*
X129606980Y-76776250D01*
X129784874Y-76849936D01*
X129973725Y-76887500D01*
X130166275Y-76887500D01*
X130355126Y-76849936D01*
X130533020Y-76776250D01*
X130693120Y-76669274D01*
X130829274Y-76533120D01*
X130936250Y-76373020D01*
X131009936Y-76195126D01*
X131047500Y-76006275D01*
X131047500Y-75813725D01*
X131047500Y-75813724D01*
X151952500Y-75813724D01*
X151952500Y-76006275D01*
X151990063Y-76195123D01*
X151990065Y-76195129D01*
X152063746Y-76373012D01*
X152063754Y-76373027D01*
X152170723Y-76533116D01*
X152170726Y-76533120D01*
X152306880Y-76669274D01*
X152306883Y-76669276D01*
X152466972Y-76776245D01*
X152466974Y-76776246D01*
X152466980Y-76776250D01*
X152644874Y-76849936D01*
X152833725Y-76887500D01*
X153026275Y-76887500D01*
X153215126Y-76849936D01*
X153393020Y-76776250D01*
X153553120Y-76669274D01*
X153689274Y-76533120D01*
X153796250Y-76373020D01*
X153869936Y-76195126D01*
X153907500Y-76006275D01*
X153907500Y-75813725D01*
X153869936Y-75624874D01*
X153796250Y-75446980D01*
X153689274Y-75286880D01*
X153553120Y-75150726D01*
X153515168Y-75125367D01*
X153393027Y-75043754D01*
X153393021Y-75043751D01*
X153393020Y-75043750D01*
X153393017Y-75043749D01*
X153393012Y-75043746D01*
X153308639Y-75008798D01*
X188172500Y-75008798D01*
X188172500Y-75211199D01*
X188211985Y-75409707D01*
X188211986Y-75409711D01*
X188289437Y-75596695D01*
X188289443Y-75596708D01*
X188379337Y-75731242D01*
X188401888Y-75764992D01*
X188545007Y-75908111D01*
X188612047Y-75952906D01*
X188713290Y-76020555D01*
X188713294Y-76020557D01*
X188713296Y-76020558D01*
X188900289Y-76098013D01*
X189098800Y-76137499D01*
X189301200Y-76137499D01*
X189499711Y-76098013D01*
X189686704Y-76020558D01*
X189686707Y-76020555D01*
X189686709Y-76020555D01*
X189720911Y-75997701D01*
X189854993Y-75908111D01*
X189998112Y-75764992D01*
X190110559Y-75596703D01*
X190188014Y-75409710D01*
X190227500Y-75211199D01*
X190227500Y-75008799D01*
X190188014Y-74810288D01*
X190110559Y-74623295D01*
X190110558Y-74623293D01*
X190110556Y-74623289D01*
X190042907Y-74522046D01*
X189998112Y-74455006D01*
X189854993Y-74311887D01*
X189821243Y-74289336D01*
X189686709Y-74199442D01*
X189686696Y-74199436D01*
X189499712Y-74121985D01*
X189499708Y-74121984D01*
X189301200Y-74082499D01*
X189098800Y-74082499D01*
X188900291Y-74121984D01*
X188900287Y-74121985D01*
X188713303Y-74199436D01*
X188713290Y-74199442D01*
X188545008Y-74311886D01*
X188545003Y-74311890D01*
X188401891Y-74455002D01*
X188401887Y-74455007D01*
X188289443Y-74623289D01*
X188289437Y-74623302D01*
X188211986Y-74810286D01*
X188211985Y-74810290D01*
X188172500Y-75008798D01*
X153308639Y-75008798D01*
X153215129Y-74970065D01*
X153215123Y-74970063D01*
X153026275Y-74932500D01*
X152833725Y-74932500D01*
X152644876Y-74970063D01*
X152644870Y-74970065D01*
X152466987Y-75043746D01*
X152466972Y-75043754D01*
X152306883Y-75150723D01*
X152306876Y-75150729D01*
X152170729Y-75286876D01*
X152170723Y-75286883D01*
X152063754Y-75446972D01*
X152063746Y-75446987D01*
X151990065Y-75624870D01*
X151990063Y-75624876D01*
X151952500Y-75813724D01*
X131047500Y-75813724D01*
X131009936Y-75624874D01*
X130936250Y-75446980D01*
X130829274Y-75286880D01*
X130693120Y-75150726D01*
X130655168Y-75125367D01*
X130533027Y-75043754D01*
X130533021Y-75043751D01*
X130533020Y-75043750D01*
X130533017Y-75043749D01*
X130533012Y-75043746D01*
X130355129Y-74970065D01*
X130355123Y-74970063D01*
X130166275Y-74932500D01*
X129973725Y-74932500D01*
X129784876Y-74970063D01*
X129784870Y-74970065D01*
X129606987Y-75043746D01*
X129606972Y-75043754D01*
X129446883Y-75150723D01*
X129446876Y-75150729D01*
X129310729Y-75286876D01*
X129310723Y-75286883D01*
X129203754Y-75446972D01*
X129203746Y-75446987D01*
X129130065Y-75624870D01*
X129130063Y-75624876D01*
X129092500Y-75813724D01*
X120500500Y-75813724D01*
X120500500Y-73888389D01*
X121374500Y-73888389D01*
X121374500Y-74061611D01*
X121384062Y-74121984D01*
X121401597Y-74232700D01*
X121426693Y-74309936D01*
X121455127Y-74397445D01*
X121484457Y-74455007D01*
X121533771Y-74551793D01*
X121585721Y-74623295D01*
X121635586Y-74691928D01*
X121758072Y-74814414D01*
X121898212Y-74916232D01*
X122052555Y-74994873D01*
X122217299Y-75048402D01*
X122388389Y-75075500D01*
X122388393Y-75075500D01*
X122561607Y-75075500D01*
X122561611Y-75075500D01*
X122732701Y-75048402D01*
X122897445Y-74994873D01*
X123051788Y-74916232D01*
X123191928Y-74814414D01*
X123314414Y-74691928D01*
X123416232Y-74551788D01*
X123494873Y-74397445D01*
X123548402Y-74232701D01*
X123575500Y-74061611D01*
X123575500Y-73888389D01*
X123548402Y-73717299D01*
X123494873Y-73552555D01*
X123416232Y-73398212D01*
X123416227Y-73398205D01*
X123416226Y-73398203D01*
X123384102Y-73353987D01*
X123384100Y-73353986D01*
X123372873Y-73338534D01*
X123325786Y-73273724D01*
X129092500Y-73273724D01*
X129092500Y-73466275D01*
X129130063Y-73655123D01*
X129130065Y-73655129D01*
X129203746Y-73833012D01*
X129203754Y-73833027D01*
X129310723Y-73993116D01*
X129310726Y-73993120D01*
X129446880Y-74129274D01*
X129446883Y-74129276D01*
X129606972Y-74236245D01*
X129606974Y-74236246D01*
X129606980Y-74236250D01*
X129784874Y-74309936D01*
X129973725Y-74347500D01*
X130166275Y-74347500D01*
X130355126Y-74309936D01*
X130533020Y-74236250D01*
X130693120Y-74129274D01*
X130829274Y-73993120D01*
X130936250Y-73833020D01*
X131009936Y-73655126D01*
X131047500Y-73466275D01*
X131047500Y-73273725D01*
X131047500Y-73273724D01*
X151952500Y-73273724D01*
X151952500Y-73466275D01*
X151990063Y-73655123D01*
X151990065Y-73655129D01*
X152063746Y-73833012D01*
X152063754Y-73833027D01*
X152170723Y-73993116D01*
X152170726Y-73993120D01*
X152306880Y-74129274D01*
X152306883Y-74129276D01*
X152466972Y-74236245D01*
X152466974Y-74236246D01*
X152466980Y-74236250D01*
X152644874Y-74309936D01*
X152833725Y-74347500D01*
X153026275Y-74347500D01*
X153215126Y-74309936D01*
X153393020Y-74236250D01*
X153553120Y-74129274D01*
X153689274Y-73993120D01*
X153796250Y-73833020D01*
X153869936Y-73655126D01*
X153907500Y-73466275D01*
X153907500Y-73273725D01*
X153904386Y-73258072D01*
X153869936Y-73084876D01*
X153869936Y-73084874D01*
X153796250Y-72906980D01*
X153792653Y-72901597D01*
X153689276Y-72746883D01*
X153689274Y-72746880D01*
X153553120Y-72610726D01*
X153553116Y-72610723D01*
X153393027Y-72503754D01*
X153393021Y-72503751D01*
X153393020Y-72503750D01*
X153393017Y-72503749D01*
X153393012Y-72503746D01*
X153215129Y-72430065D01*
X153215123Y-72430063D01*
X153026275Y-72392500D01*
X152833725Y-72392500D01*
X152644876Y-72430063D01*
X152644870Y-72430065D01*
X152466987Y-72503746D01*
X152466972Y-72503754D01*
X152306883Y-72610723D01*
X152306876Y-72610729D01*
X152170729Y-72746876D01*
X152170723Y-72746883D01*
X152063754Y-72906972D01*
X152063746Y-72906987D01*
X151990065Y-73084870D01*
X151990063Y-73084876D01*
X151952500Y-73273724D01*
X131047500Y-73273724D01*
X131044386Y-73258072D01*
X131009936Y-73084876D01*
X131009936Y-73084874D01*
X130936250Y-72906980D01*
X130932653Y-72901597D01*
X130829276Y-72746883D01*
X130829274Y-72746880D01*
X130693120Y-72610726D01*
X130693116Y-72610723D01*
X130533027Y-72503754D01*
X130533021Y-72503751D01*
X130533020Y-72503750D01*
X130533017Y-72503749D01*
X130533012Y-72503746D01*
X130355129Y-72430065D01*
X130355123Y-72430063D01*
X130166275Y-72392500D01*
X129973725Y-72392500D01*
X129784876Y-72430063D01*
X129784870Y-72430065D01*
X129606987Y-72503746D01*
X129606972Y-72503754D01*
X129446883Y-72610723D01*
X129446876Y-72610729D01*
X129310729Y-72746876D01*
X129310723Y-72746883D01*
X129203754Y-72906972D01*
X129203746Y-72906987D01*
X129130065Y-73084870D01*
X129130063Y-73084876D01*
X129092500Y-73273724D01*
X123325786Y-73273724D01*
X123314414Y-73258072D01*
X123191928Y-73135586D01*
X123122132Y-73084876D01*
X123051793Y-73033771D01*
X123051790Y-73033769D01*
X123051788Y-73033768D01*
X122897445Y-72955127D01*
X122849821Y-72939653D01*
X122732700Y-72901597D01*
X122635086Y-72886137D01*
X122561611Y-72874500D01*
X122388389Y-72874500D01*
X122322037Y-72885009D01*
X122217299Y-72901597D01*
X122052561Y-72955125D01*
X122052555Y-72955127D01*
X122052549Y-72955129D01*
X122052549Y-72955130D01*
X121898206Y-73033771D01*
X121758075Y-73135583D01*
X121635583Y-73258075D01*
X121533771Y-73398206D01*
X121455130Y-73552549D01*
X121455125Y-73552561D01*
X121401597Y-73717299D01*
X121383271Y-73833012D01*
X121374500Y-73888389D01*
X120500500Y-73888389D01*
X120500500Y-68878706D01*
X122149500Y-68878706D01*
X122149500Y-69121293D01*
X122181160Y-69361781D01*
X122243947Y-69596103D01*
X122336778Y-69820216D01*
X122417634Y-69960263D01*
X122458064Y-70030289D01*
X122605735Y-70222738D01*
X122777262Y-70394265D01*
X122969711Y-70541936D01*
X123179788Y-70663224D01*
X123403900Y-70756054D01*
X123638211Y-70818838D01*
X123638217Y-70818838D01*
X123638218Y-70818839D01*
X123703600Y-70827446D01*
X123878712Y-70850500D01*
X124121288Y-70850500D01*
X124361789Y-70818838D01*
X124596100Y-70756054D01*
X124650010Y-70733724D01*
X129092500Y-70733724D01*
X129092500Y-70926275D01*
X129130063Y-71115123D01*
X129130065Y-71115129D01*
X129203746Y-71293012D01*
X129203754Y-71293027D01*
X129310723Y-71453116D01*
X129310726Y-71453120D01*
X129446880Y-71589274D01*
X129446883Y-71589276D01*
X129606972Y-71696245D01*
X129606974Y-71696246D01*
X129606980Y-71696250D01*
X129784874Y-71769936D01*
X129973725Y-71807500D01*
X130166275Y-71807500D01*
X130355126Y-71769936D01*
X130533020Y-71696250D01*
X130693120Y-71589274D01*
X130829274Y-71453120D01*
X130936250Y-71293020D01*
X131009936Y-71115126D01*
X131047500Y-70926275D01*
X131047500Y-70733725D01*
X131047500Y-70733724D01*
X151952500Y-70733724D01*
X151952500Y-70926275D01*
X151990063Y-71115123D01*
X151990065Y-71115129D01*
X152063746Y-71293012D01*
X152063754Y-71293027D01*
X152170723Y-71453116D01*
X152170726Y-71453120D01*
X152306880Y-71589274D01*
X152306883Y-71589276D01*
X152466972Y-71696245D01*
X152466974Y-71696246D01*
X152466980Y-71696250D01*
X152644874Y-71769936D01*
X152833725Y-71807500D01*
X153026275Y-71807500D01*
X153215126Y-71769936D01*
X153393020Y-71696250D01*
X153553120Y-71589274D01*
X153689274Y-71453120D01*
X153796250Y-71293020D01*
X153869936Y-71115126D01*
X153907500Y-70926275D01*
X153907500Y-70733725D01*
X153869936Y-70544874D01*
X153796250Y-70366980D01*
X153689274Y-70206880D01*
X153553120Y-70070726D01*
X153553116Y-70070723D01*
X153393027Y-69963754D01*
X153393021Y-69963751D01*
X153393020Y-69963750D01*
X153393017Y-69963749D01*
X153393012Y-69963746D01*
X153215129Y-69890065D01*
X153215123Y-69890063D01*
X153026275Y-69852500D01*
X152833725Y-69852500D01*
X152644876Y-69890063D01*
X152644870Y-69890065D01*
X152466987Y-69963746D01*
X152466972Y-69963754D01*
X152306883Y-70070723D01*
X152306876Y-70070729D01*
X152170729Y-70206876D01*
X152170723Y-70206883D01*
X152063754Y-70366972D01*
X152063746Y-70366987D01*
X151990065Y-70544870D01*
X151990063Y-70544876D01*
X151952500Y-70733724D01*
X131047500Y-70733724D01*
X131009936Y-70544874D01*
X130936250Y-70366980D01*
X130829274Y-70206880D01*
X130693120Y-70070726D01*
X130693116Y-70070723D01*
X130533027Y-69963754D01*
X130533021Y-69963751D01*
X130533020Y-69963750D01*
X130533017Y-69963749D01*
X130533012Y-69963746D01*
X130355129Y-69890065D01*
X130355123Y-69890063D01*
X130166275Y-69852500D01*
X129973725Y-69852500D01*
X129784876Y-69890063D01*
X129784870Y-69890065D01*
X129606987Y-69963746D01*
X129606972Y-69963754D01*
X129446883Y-70070723D01*
X129446876Y-70070729D01*
X129310729Y-70206876D01*
X129310723Y-70206883D01*
X129203754Y-70366972D01*
X129203746Y-70366987D01*
X129130065Y-70544870D01*
X129130063Y-70544876D01*
X129092500Y-70733724D01*
X124650010Y-70733724D01*
X124820212Y-70663224D01*
X125030289Y-70541936D01*
X125222738Y-70394265D01*
X125394265Y-70222738D01*
X125541936Y-70030289D01*
X125663224Y-69820212D01*
X125756054Y-69596100D01*
X125818838Y-69361789D01*
X125850500Y-69121288D01*
X125850500Y-68878712D01*
X125818838Y-68638211D01*
X125756054Y-68403900D01*
X125663224Y-68179788D01*
X125541936Y-67969711D01*
X125394265Y-67777262D01*
X125222738Y-67605735D01*
X125121101Y-67527747D01*
X125030293Y-67458066D01*
X125030291Y-67458065D01*
X124977244Y-67427438D01*
X151952500Y-67427438D01*
X151952500Y-69152561D01*
X151959897Y-69189746D01*
X151959899Y-69189750D01*
X151988076Y-69231920D01*
X151988078Y-69231922D01*
X152030252Y-69260102D01*
X152067442Y-69267500D01*
X152067446Y-69267500D01*
X153792554Y-69267500D01*
X153792558Y-69267500D01*
X153829748Y-69260102D01*
X153871922Y-69231922D01*
X153900102Y-69189748D01*
X153907500Y-69152558D01*
X153907500Y-68878706D01*
X199149500Y-68878706D01*
X199149500Y-69121293D01*
X199181160Y-69361781D01*
X199243947Y-69596103D01*
X199336778Y-69820216D01*
X199417634Y-69960263D01*
X199458064Y-70030289D01*
X199605735Y-70222738D01*
X199777262Y-70394265D01*
X199969711Y-70541936D01*
X200179788Y-70663224D01*
X200403900Y-70756054D01*
X200638211Y-70818838D01*
X200638217Y-70818838D01*
X200638218Y-70818839D01*
X200703600Y-70827446D01*
X200878712Y-70850500D01*
X201121288Y-70850500D01*
X201361789Y-70818838D01*
X201596100Y-70756054D01*
X201820212Y-70663224D01*
X202030289Y-70541936D01*
X202222738Y-70394265D01*
X202394265Y-70222738D01*
X202541936Y-70030289D01*
X202663224Y-69820212D01*
X202756054Y-69596100D01*
X202818838Y-69361789D01*
X202850500Y-69121288D01*
X202850500Y-68878712D01*
X202818838Y-68638211D01*
X202756054Y-68403900D01*
X202663224Y-68179788D01*
X202541936Y-67969711D01*
X202394265Y-67777262D01*
X202222738Y-67605735D01*
X202030289Y-67458064D01*
X201912830Y-67390249D01*
X201820216Y-67336778D01*
X201820214Y-67336777D01*
X201820212Y-67336776D01*
X201688932Y-67282398D01*
X201596103Y-67243947D01*
X201596101Y-67243946D01*
X201596100Y-67243946D01*
X201361789Y-67181162D01*
X201361787Y-67181161D01*
X201361781Y-67181160D01*
X201121293Y-67149500D01*
X201121288Y-67149500D01*
X200878712Y-67149500D01*
X200878706Y-67149500D01*
X200638218Y-67181160D01*
X200403896Y-67243947D01*
X200179783Y-67336778D01*
X199969712Y-67458063D01*
X199969708Y-67458066D01*
X199777262Y-67605735D01*
X199777260Y-67605736D01*
X199777256Y-67605740D01*
X199605740Y-67777256D01*
X199458063Y-67969712D01*
X199336778Y-68179783D01*
X199243947Y-68403896D01*
X199181160Y-68638218D01*
X199149500Y-68878706D01*
X153907500Y-68878706D01*
X153907500Y-67427442D01*
X153900102Y-67390252D01*
X153871922Y-67348078D01*
X153871920Y-67348076D01*
X153829750Y-67319899D01*
X153829746Y-67319897D01*
X153792561Y-67312500D01*
X153792558Y-67312500D01*
X152067442Y-67312500D01*
X152067438Y-67312500D01*
X152030253Y-67319897D01*
X152030249Y-67319899D01*
X151988079Y-67348076D01*
X151988076Y-67348079D01*
X151959899Y-67390249D01*
X151959897Y-67390253D01*
X151952500Y-67427438D01*
X124977244Y-67427438D01*
X124820216Y-67336778D01*
X124820214Y-67336777D01*
X124820212Y-67336776D01*
X124688932Y-67282398D01*
X124596103Y-67243947D01*
X124596101Y-67243946D01*
X124596100Y-67243946D01*
X124361789Y-67181162D01*
X124361787Y-67181161D01*
X124361781Y-67181160D01*
X124121293Y-67149500D01*
X124121288Y-67149500D01*
X123878712Y-67149500D01*
X123878706Y-67149500D01*
X123638218Y-67181160D01*
X123403896Y-67243947D01*
X123179783Y-67336778D01*
X122969712Y-67458063D01*
X122969708Y-67458066D01*
X122777262Y-67605735D01*
X122777260Y-67605736D01*
X122777256Y-67605740D01*
X122605740Y-67777256D01*
X122458063Y-67969712D01*
X122336778Y-68179783D01*
X122243947Y-68403896D01*
X122181160Y-68638218D01*
X122149500Y-68878706D01*
X120500500Y-68878706D01*
X120500500Y-65649500D01*
X120520462Y-65575000D01*
X120575000Y-65520462D01*
X120649500Y-65500500D01*
X204350500Y-65500500D01*
X204425000Y-65520462D01*
G37*
%TD.AperFunction*%
%TD*%
M02*
