%TF.GenerationSoftware,KiCad,Pcbnew,10.0.6*%
%TF.CreationDate,2026-09-25T17:58:43-03:00*%
%TF.ProjectId,pcbignicao_smd,70636269-676e-4696-9361-6f5f736d642e,2.2*%
%TF.SameCoordinates,Original*%
%TF.FileFunction,Copper,L2,Bot*%
%TF.FilePolarity,Positive*%
%FSLAX46Y46*%
G04 Gerber Fmt 4.6, Leading zero omitted, Abs format (unit mm)*
G04 Created by KiCad (PCBNEW 10.0.6) date 2026-09-25 17:58:44*
%MOMM*%
%LPD*%
G01*
G04 APERTURE LIST*
%TA.AperFunction,ComponentPad*%
%ADD10R,1.700000X1.700000*%
%TD*%
%TA.AperFunction,ComponentPad*%
%ADD11C,1.700000*%
%TD*%
%TA.AperFunction,ComponentPad*%
%ADD12C,1.800000*%
%TD*%
%TA.AperFunction,ViaPad*%
%ADD13C,0.600000*%
%TD*%
%TA.AperFunction,ViaPad*%
%ADD14C,0.800000*%
%TD*%
%TA.AperFunction,Conductor*%
%ADD15C,0.200000*%
%TD*%
G04 APERTURE END LIST*
D10*
%TO.P,J11,1*%
%TO.N,GND*%
X166357000Y-120024300D03*
D11*
%TO.P,J11,2*%
%TO.N,3.3V*%
X166357000Y-122564300D03*
%TO.P,J11,3*%
%TO.N,SCL*%
X166357000Y-125104300D03*
%TO.P,J11,4*%
%TO.N,SDA*%
X166357000Y-127644300D03*
%TD*%
D10*
%TO.P,J10,1*%
%TO.N,RELE_ARM*%
X162692400Y-125105000D03*
D11*
%TO.P,J10,2*%
%TO.N,RELE*%
X162692400Y-127645000D03*
%TD*%
D10*
%TO.P,J8,1,Pin_1_1*%
%TO.N,VSYS*%
X180537800Y-122605700D03*
D11*
%TO.P,J8,2,Pin_2_2*%
%TO.N,GND*%
X180537800Y-125145700D03*
%TO.P,J8,3,Pin_3_3*%
%TO.N,RELE*%
X180537800Y-127685700D03*
%TD*%
D10*
%TO.P,J7,1,Pin_1_1*%
%TO.N,EXT_5V*%
X130949500Y-125108600D03*
D11*
%TO.P,J7,2,Pin_2_2*%
%TO.N,GND*%
X130949500Y-127648600D03*
%TD*%
D10*
%TO.P,J9,1*%
%TO.N,GND*%
X170182000Y-125122800D03*
D11*
%TO.P,J9,2*%
%TO.N,LED_BTN*%
X170182000Y-127662800D03*
%TD*%
D10*
%TO.P,J6,1*%
%TO.N,GND*%
X197172200Y-110246600D03*
%TD*%
%TO.P,J4,1*%
%TO.N,GND*%
X197184500Y-114429400D03*
%TD*%
D12*
%TO.P,U1,1,GND_1*%
%TO.N,GND*%
X189200000Y-92890000D03*
%TO.P,U1,2,GND_2*%
X189200000Y-90349999D03*
%TO.P,U1,3,3.3V_3*%
%TO.N,3.3V*%
X189200000Y-87809999D03*
%TO.P,U1,4,RESET_4*%
%TO.N,LORA_RST*%
X189200000Y-85269999D03*
%TO.P,U1,5,DIO0_5*%
%TO.N,LORA_DIO0*%
X189200000Y-82730000D03*
%TO.P,U1,6,DIO1_6*%
%TO.N,unconnected-(U1-DIO1-Pad6)*%
X189200000Y-80189999D03*
%TO.P,U1,7,DIO2_7*%
%TO.N,unconnected-(U1-DIO2-Pad7)*%
X189200000Y-77650000D03*
%TO.P,U1,8,DIO3_8*%
%TO.N,unconnected-(U1-DIO3-Pad8)*%
X189200000Y-75109999D03*
%TO.P,U1,9,GND_9*%
%TO.N,GND*%
X163800000Y-75109999D03*
%TO.P,U1,10,DIO4_10*%
%TO.N,unconnected-(U1-DIO4-Pad10)*%
X163800000Y-77650000D03*
%TO.P,U1,11,DIO5_11*%
%TO.N,unconnected-(U1-DIO5-Pad11)*%
X163800000Y-80189999D03*
%TO.P,U1,12,SCK_12*%
%TO.N,LORA_SCK*%
X163800000Y-82730000D03*
%TO.P,U1,13,MISO_13*%
%TO.N,LORA_MISO*%
X163800000Y-85269999D03*
%TO.P,U1,14,MOSI_14*%
%TO.N,LORA_MOSI*%
X163800000Y-87809999D03*
%TO.P,U1,15,NSS_15*%
%TO.N,LORA_NSS*%
X163800000Y-90349999D03*
%TO.P,U1,16,GND_16*%
%TO.N,GND*%
X163800000Y-92890000D03*
%TD*%
D10*
%TO.P,A1,1*%
%TO.N,3.3V*%
X152930000Y-68290000D03*
D11*
%TO.P,A1,2*%
%TO.N,unconnected-(A1-EN-Pad2)*%
X152930000Y-70830000D03*
%TO.P,A1,3*%
%TO.N,unconnected-(A1-GPIO36-Pad3)*%
X152930000Y-73370000D03*
%TO.P,A1,4*%
%TO.N,unconnected-(A1-GPIO39-Pad4)*%
X152930000Y-75910000D03*
%TO.P,A1,5*%
%TO.N,CONT_A*%
X152930000Y-78450000D03*
%TO.P,A1,6*%
%TO.N,CONT_B*%
X152930000Y-80990000D03*
%TO.P,A1,7*%
%TO.N,RELE_ARM*%
X152930000Y-83530000D03*
%TO.P,A1,8*%
%TO.N,EXP6*%
X152930000Y-86070000D03*
%TO.P,A1,9*%
%TO.N,LED_Y*%
X152930000Y-88610000D03*
%TO.P,A1,10*%
%TO.N,LED_R*%
X152930000Y-91150000D03*
%TO.P,A1,11*%
%TO.N,LED_BTN_K*%
X152930000Y-93690000D03*
%TO.P,A1,12*%
%TO.N,BUZZ*%
X152930000Y-96230000D03*
%TO.P,A1,13*%
%TO.N,EXP5*%
X152930000Y-98770000D03*
%TO.P,A1,14*%
%TO.N,GND*%
X152930000Y-101310000D03*
%TO.P,A1,15*%
%TO.N,BTN*%
X152930000Y-103850000D03*
%TO.P,A1,16*%
%TO.N,unconnected-(A1-GPIO9-Pad16)*%
X152930000Y-106390000D03*
%TO.P,A1,17*%
%TO.N,unconnected-(A1-GPIO10-Pad17)*%
X152930000Y-108930000D03*
%TO.P,A1,18*%
%TO.N,unconnected-(A1-GPIO11-Pad18)*%
X152930000Y-111470000D03*
%TO.P,A1,19*%
%TO.N,VSYS*%
X152930000Y-114010000D03*
%TO.P,A1,20*%
%TO.N,unconnected-(A1-GPIO6-Pad20)*%
X130070000Y-114010000D03*
%TO.P,A1,21*%
%TO.N,unconnected-(A1-GPIO7-Pad21)*%
X130070000Y-111470000D03*
%TO.P,A1,22*%
%TO.N,unconnected-(A1-GPIO8-Pad22)*%
X130070000Y-108930000D03*
%TO.P,A1,23*%
%TO.N,EXP3*%
X130070000Y-106390000D03*
%TO.P,A1,24*%
%TO.N,EXP2*%
X130070000Y-103850000D03*
%TO.P,A1,25*%
%TO.N,EXP4*%
X130070000Y-101310000D03*
%TO.P,A1,26*%
%TO.N,EXP1*%
X130070000Y-98770000D03*
%TO.P,A1,27*%
%TO.N,LORA_DIO0*%
X130070000Y-96230000D03*
%TO.P,A1,28*%
%TO.N,LORA_RST*%
X130070000Y-93690000D03*
%TO.P,A1,29*%
%TO.N,LORA_NSS*%
X130070000Y-91150000D03*
%TO.P,A1,30*%
%TO.N,LORA_SCK*%
X130070000Y-88610000D03*
%TO.P,A1,31*%
%TO.N,LORA_MISO*%
X130070000Y-86070000D03*
%TO.P,A1,32*%
%TO.N,GND*%
X130070000Y-83530000D03*
%TO.P,A1,33*%
%TO.N,SDA*%
X130070000Y-80990000D03*
%TO.P,A1,34*%
%TO.N,unconnected-(A1-GPIO3-Pad34)*%
X130070000Y-78450000D03*
%TO.P,A1,35*%
%TO.N,unconnected-(A1-GPIO1-Pad35)*%
X130070000Y-75910000D03*
%TO.P,A1,36*%
%TO.N,SCL*%
X130070000Y-73370000D03*
%TO.P,A1,37*%
%TO.N,LORA_MOSI*%
X130070000Y-70830000D03*
%TO.P,A1,38*%
%TO.N,GND*%
X130070000Y-68290000D03*
%TD*%
D10*
%TO.P,J12,1*%
%TO.N,EXP1*%
X174419500Y-127670200D03*
D11*
%TO.P,J12,2*%
%TO.N,EXP2*%
X174419500Y-125130200D03*
%TO.P,J12,3*%
%TO.N,EXP3*%
X174419500Y-122590200D03*
%TO.P,J12,4*%
%TO.N,EXP4*%
X174419500Y-120050200D03*
%TO.P,J12,5*%
%TO.N,EXP5*%
X174419500Y-117510200D03*
%TO.P,J12,6*%
%TO.N,EXP6*%
X174419500Y-114970200D03*
%TO.P,J12,7*%
%TO.N,3.3V*%
X174419500Y-112430200D03*
%TO.P,J12,8*%
%TO.N,GND*%
X174419500Y-109890200D03*
%TD*%
D10*
%TO.P,J5,1*%
%TO.N,BTN*%
X197183900Y-100927600D03*
%TD*%
%TO.P,J13,1*%
%TO.N,IGN_A*%
X197179600Y-79602400D03*
D11*
%TO.P,J13,2*%
X197179600Y-82142400D03*
%TO.P,J13,3*%
%TO.N,IGN_B*%
X197179600Y-84682400D03*
%TO.P,J13,4*%
X197179600Y-87222400D03*
%TD*%
D10*
%TO.P,J3,1*%
%TO.N,BUZZ*%
X186538300Y-127671400D03*
%TD*%
D13*
%TO.N,IGN_B*%
X188943000Y-118299700D03*
%TO.N,GND*%
X167307000Y-120024300D03*
X155471000Y-99498000D03*
X171067849Y-125465980D03*
X158225569Y-82805960D03*
D14*
X172495000Y-125548000D03*
D13*
X170308834Y-114346834D03*
%TO.N,CONT_B*%
X153803400Y-116866800D03*
%TO.N,3.3V*%
X177644400Y-115897000D03*
X161767100Y-113174900D03*
%TO.N,SCL*%
X136420000Y-108267500D03*
X157390400Y-111302200D03*
%TO.N,IGN_A*%
X186005000Y-113162500D03*
%TO.N,Net-(D4-A)*%
X168169600Y-121110200D03*
X185127800Y-116863900D03*
%TO.N,LED_Y*%
X176230500Y-122895600D03*
%TO.N,CONT_A*%
X165484100Y-104854900D03*
%TO.N,LED_R*%
X182210000Y-128496700D03*
%TO.N,LORA_MOSI*%
X156625000Y-87870000D03*
%TO.N,LED_BTN_K*%
X152964000Y-116796100D03*
X149822500Y-94505000D03*
%TO.N,EXP3*%
X165874600Y-115424100D03*
%TO.N,EXP2*%
X159563000Y-112805000D03*
%TO.N,EXP4*%
X158702800Y-108166200D03*
%TD*%
%TO.N,IGN_B*%
D15*
X197179600Y-93431600D02*
X197179600Y-87222400D01*
X188943000Y-101668200D02*
X197179600Y-93431600D01*
X188943000Y-118299700D02*
X188943000Y-101668200D01*
X197179600Y-87222400D02*
X197179600Y-84682400D01*
%TO.N,GND*%
X127731700Y-70628300D02*
X130070000Y-68290000D01*
X127731700Y-83799800D02*
X127731700Y-70628300D01*
%TO.N,CONT_B*%
X154081700Y-116588500D02*
X153803400Y-116866800D01*
X150464900Y-83455100D02*
X150464900Y-108154900D01*
X154081700Y-110986600D02*
X154081700Y-116588500D01*
X152510000Y-110200000D02*
X153295100Y-110200000D01*
X150464900Y-108154900D02*
X152510000Y-110200000D01*
X152930000Y-80990000D02*
X150464900Y-83455100D01*
X153295100Y-110200000D02*
X154081700Y-110986600D01*
%TO.N,3.3V*%
X162598300Y-78822100D02*
X153217900Y-69441700D01*
X161767100Y-113174900D02*
X161767100Y-117974400D01*
X161767100Y-117974400D02*
X166357000Y-122564300D01*
X190433600Y-96416100D02*
X174419500Y-112430200D01*
X189200000Y-87810000D02*
X190433600Y-89043600D01*
X152930000Y-68290000D02*
X152930000Y-69441700D01*
X174419500Y-112672100D02*
X174419500Y-112430200D01*
X153217900Y-69441700D02*
X152930000Y-69441700D01*
X174419500Y-112430200D02*
X162598300Y-100609000D01*
X177644400Y-115897000D02*
X174419500Y-112672100D01*
X190433600Y-89043600D02*
X190433600Y-96416100D01*
X162598300Y-100609000D02*
X162598300Y-78822100D01*
%TO.N,SCL*%
X157390400Y-111302200D02*
X157390400Y-116137700D01*
X128880300Y-74559700D02*
X128880300Y-99218500D01*
X128880300Y-99218500D02*
X129820100Y-100158300D01*
X130606400Y-100158300D02*
X136420000Y-105971900D01*
X157390400Y-116137700D02*
X166357000Y-125104300D01*
X129820100Y-100158300D02*
X130606400Y-100158300D01*
X130070000Y-73370000D02*
X128880300Y-74559700D01*
X136420000Y-105971900D02*
X136420000Y-108267500D01*
%TO.N,SDA*%
X131459800Y-82379800D02*
X131459800Y-96142700D01*
X130070000Y-80990000D02*
X131459800Y-82379800D01*
X165027800Y-126315100D02*
X166357000Y-127644300D01*
X161632200Y-126315100D02*
X165027800Y-126315100D01*
X131459800Y-96142700D02*
X161632200Y-126315100D01*
%TO.N,IGN_A*%
X197179600Y-82142400D02*
X197179600Y-79602400D01*
X186005000Y-101992000D02*
X195789800Y-92207200D01*
X195789800Y-83532200D02*
X197179600Y-82142400D01*
X186005000Y-113162500D02*
X186005000Y-101992000D01*
X195789800Y-92207200D02*
X195789800Y-83532200D01*
%TO.N,Net-(D4-A)*%
X187718100Y-128671900D02*
X187264400Y-129125600D01*
X170919600Y-123860200D02*
X168169600Y-121110200D01*
X185127800Y-116863900D02*
X187718100Y-119454200D01*
X175054400Y-123860200D02*
X170919600Y-123860200D01*
X180319800Y-129125600D02*
X175054400Y-123860200D01*
X187718100Y-119454200D02*
X187718100Y-128671900D01*
X187264400Y-129125600D02*
X180319800Y-129125600D01*
%TO.N,RELE_ARM*%
X162692400Y-125105000D02*
X162692400Y-123953300D01*
X150898300Y-106057100D02*
X150898300Y-85561700D01*
X156586700Y-117847600D02*
X156586700Y-110945900D01*
X150898300Y-85561700D02*
X152930000Y-83530000D01*
X156586700Y-110945900D02*
X153300800Y-107660000D01*
X162692400Y-123953300D02*
X156586700Y-117847600D01*
X153300800Y-107660000D02*
X152501200Y-107660000D01*
X152501200Y-107660000D02*
X150898300Y-106057100D01*
%TO.N,LED_Y*%
X176230500Y-122766300D02*
X174666100Y-121201900D01*
X156745200Y-106032000D02*
X153411500Y-102698300D01*
X173942500Y-121201900D02*
X166946300Y-114205700D01*
X166946300Y-114205700D02*
X163885200Y-114205700D01*
X153411500Y-102698300D02*
X152657200Y-102698300D01*
X176230500Y-122895600D02*
X176230500Y-122766300D01*
X151347800Y-90192200D02*
X152930000Y-88610000D01*
X174666100Y-121201900D02*
X173942500Y-121201900D01*
X152657200Y-102698300D02*
X151347800Y-101388900D01*
X156745200Y-107065700D02*
X156745200Y-106032000D01*
X151347800Y-101388900D02*
X151347800Y-90192200D01*
X163885200Y-114205700D02*
X156745200Y-107065700D01*
%TO.N,CONT_A*%
X165484100Y-104854900D02*
X158430700Y-97801500D01*
X158430700Y-83950700D02*
X152930000Y-78450000D01*
X158430700Y-97801500D02*
X158430700Y-83950700D01*
%TO.N,LED_R*%
X182210000Y-128496700D02*
X182210000Y-127657300D01*
X173802300Y-118780200D02*
X155062100Y-100040000D01*
X182210000Y-127657300D02*
X180850100Y-126297400D01*
X177804600Y-124110800D02*
X177804600Y-121788300D01*
X177804600Y-121788300D02*
X174796500Y-118780200D01*
X155062100Y-100040000D02*
X152515500Y-100040000D01*
X151752800Y-92327200D02*
X152930000Y-91150000D01*
X152515500Y-100040000D02*
X151752800Y-99277300D01*
X179991200Y-126297400D02*
X177804600Y-124110800D01*
X180850100Y-126297400D02*
X179991200Y-126297400D01*
X151752800Y-99277300D02*
X151752800Y-92327200D01*
X174796500Y-118780200D02*
X173802300Y-118780200D01*
%TO.N,LORA_MOSI*%
X156625000Y-83002900D02*
X156625000Y-87870000D01*
X153342100Y-79720000D02*
X156625000Y-83002900D01*
X138960000Y-79720000D02*
X153342100Y-79720000D01*
X130070000Y-70830000D02*
X138960000Y-79720000D01*
%TO.N,EXP6*%
X154319800Y-87459800D02*
X152930000Y-86070000D01*
X174419500Y-114970200D02*
X154319800Y-94870500D01*
X154319800Y-94870500D02*
X154319800Y-87459800D01*
%TO.N,LED_BTN_K*%
X149822500Y-94505000D02*
X149822500Y-113654600D01*
X149822500Y-113654600D02*
X152964000Y-116796100D01*
%TO.N,BUZZ*%
X176206300Y-116125800D02*
X173603300Y-116125800D01*
X186538300Y-126457800D02*
X176206300Y-116125800D01*
X173603300Y-116125800D02*
X153707500Y-96230000D01*
X186538300Y-127671400D02*
X186538300Y-126457800D01*
X153707500Y-96230000D02*
X152930000Y-96230000D01*
%TO.N,EXP5*%
X155679300Y-98770000D02*
X174419500Y-117510200D01*
X152930000Y-98770000D02*
X155679300Y-98770000D01*
%TO.N,EXP3*%
X174419500Y-122590200D02*
X173040700Y-122590200D01*
X173040700Y-122590200D02*
X165874600Y-115424100D01*
%TO.N,EXP2*%
X169163200Y-126283900D02*
X167873300Y-124994000D01*
X167873300Y-124994000D02*
X167873300Y-124921400D01*
X166667900Y-123716000D02*
X165838500Y-123716000D01*
X159563000Y-117440500D02*
X159563000Y-112805000D01*
X174419500Y-125130200D02*
X173265800Y-126283900D01*
X173265800Y-126283900D02*
X169163200Y-126283900D01*
X167873300Y-124921400D02*
X166667900Y-123716000D01*
X165838500Y-123716000D02*
X159563000Y-117440500D01*
%TO.N,EXP4*%
X158702800Y-108166200D02*
X158702800Y-108166300D01*
X158702800Y-108166300D02*
X162535600Y-108166300D01*
X162535600Y-108166300D02*
X174419500Y-120050200D01*
%TO.N,EXP1*%
X172116100Y-128821900D02*
X160121900Y-128821900D01*
X160121900Y-128821900D02*
X130070000Y-98770000D01*
X173267800Y-127670200D02*
X172116100Y-128821900D01*
X174419500Y-127670200D02*
X173267800Y-127670200D01*
%TD*%
%TA.AperFunction,Conductor*%
%TO.N,GND*%
G36*
X176124849Y-116373262D02*
G01*
X176155708Y-116396941D01*
X181132607Y-121373841D01*
X181171171Y-121440636D01*
X181171171Y-121517764D01*
X181132607Y-121584559D01*
X181065812Y-121623123D01*
X181027248Y-121628200D01*
X179675238Y-121628200D01*
X179638053Y-121635597D01*
X179638049Y-121635599D01*
X179595879Y-121663776D01*
X179595876Y-121663779D01*
X179567699Y-121705949D01*
X179567698Y-121705952D01*
X179560300Y-121743138D01*
X179560300Y-123468261D01*
X179567697Y-123505446D01*
X179567699Y-123505450D01*
X179595876Y-123547620D01*
X179595879Y-123547623D01*
X179638049Y-123575800D01*
X179638052Y-123575802D01*
X179675242Y-123583200D01*
X179675246Y-123583200D01*
X181400354Y-123583200D01*
X181400358Y-123583200D01*
X181437548Y-123575802D01*
X181479722Y-123547622D01*
X181507902Y-123505448D01*
X181515300Y-123468258D01*
X181515300Y-122116251D01*
X181535262Y-122041751D01*
X181589800Y-121987213D01*
X181664300Y-121967251D01*
X181738800Y-121987213D01*
X181769659Y-122010892D01*
X186198308Y-126439541D01*
X186236872Y-126506336D01*
X186236872Y-126583464D01*
X186198308Y-126650259D01*
X186131513Y-126688823D01*
X186092949Y-126693900D01*
X185675738Y-126693900D01*
X185638553Y-126701297D01*
X185638549Y-126701299D01*
X185596379Y-126729476D01*
X185596376Y-126729479D01*
X185568199Y-126771649D01*
X185568197Y-126771653D01*
X185560800Y-126808838D01*
X185560800Y-128533961D01*
X185568197Y-128571146D01*
X185568199Y-128571150D01*
X185596376Y-128613320D01*
X185596378Y-128613322D01*
X185614171Y-128625211D01*
X185665025Y-128683199D01*
X185680072Y-128758845D01*
X185655280Y-128831880D01*
X185597292Y-128882734D01*
X185531391Y-128898100D01*
X182729962Y-128898100D01*
X182655462Y-128878138D01*
X182600924Y-128823600D01*
X182580962Y-128749100D01*
X182600924Y-128674600D01*
X182600926Y-128674597D01*
X182608367Y-128661709D01*
X182637500Y-128552981D01*
X182637500Y-128440419D01*
X182608367Y-128331691D01*
X182552085Y-128234209D01*
X182481140Y-128163264D01*
X182442577Y-128096469D01*
X182437500Y-128057906D01*
X182437500Y-127612047D01*
X182402865Y-127528432D01*
X182338868Y-127464435D01*
X180978968Y-126104535D01*
X180895353Y-126069900D01*
X180895352Y-126069900D01*
X180147151Y-126069900D01*
X180072651Y-126049938D01*
X180041792Y-126026259D01*
X178075741Y-124060208D01*
X178037177Y-123993413D01*
X178032100Y-123954849D01*
X178032100Y-121743048D01*
X178032099Y-121743045D01*
X178024191Y-121723954D01*
X178016735Y-121705952D01*
X177997466Y-121659432D01*
X174925368Y-118587335D01*
X174914991Y-118576958D01*
X174917034Y-118574914D01*
X174880695Y-118533474D01*
X174865650Y-118457828D01*
X174890444Y-118384794D01*
X174931549Y-118343689D01*
X175042620Y-118269474D01*
X175178774Y-118133320D01*
X175285750Y-117973220D01*
X175359436Y-117795326D01*
X175397000Y-117606475D01*
X175397000Y-117413925D01*
X175359436Y-117225074D01*
X175285750Y-117047180D01*
X175275479Y-117031809D01*
X175178776Y-116887083D01*
X175178774Y-116887080D01*
X175042620Y-116750926D01*
X175038617Y-116748251D01*
X174882527Y-116643954D01*
X174882521Y-116643951D01*
X174882520Y-116643950D01*
X174882517Y-116643949D01*
X174882512Y-116643946D01*
X174872884Y-116639958D01*
X174811694Y-116593006D01*
X174782178Y-116521749D01*
X174792245Y-116445281D01*
X174839197Y-116384091D01*
X174910454Y-116354575D01*
X174929903Y-116353300D01*
X176050349Y-116353300D01*
X176124849Y-116373262D01*
G37*
%TD.AperFunction*%
%TA.AperFunction,Conductor*%
G36*
X162418100Y-113067513D02*
G01*
X162448955Y-113091189D01*
X163756332Y-114398566D01*
X163839947Y-114433200D01*
X163930453Y-114433200D01*
X166790349Y-114433200D01*
X166864849Y-114453162D01*
X166895707Y-114476840D01*
X173813632Y-121394766D01*
X173897247Y-121429400D01*
X173918512Y-121429400D01*
X173993012Y-121449362D01*
X174047550Y-121503900D01*
X174067512Y-121578400D01*
X174047550Y-121652900D01*
X173993012Y-121707438D01*
X173975532Y-121716058D01*
X173956484Y-121723947D01*
X173956472Y-121723954D01*
X173796383Y-121830923D01*
X173796376Y-121830929D01*
X173660229Y-121967076D01*
X173660223Y-121967083D01*
X173553254Y-122127172D01*
X173553246Y-122127187D01*
X173493794Y-122270719D01*
X173446842Y-122331909D01*
X173375585Y-122361425D01*
X173356136Y-122362700D01*
X173196652Y-122362700D01*
X173122152Y-122342738D01*
X173091293Y-122319059D01*
X166345741Y-115573507D01*
X166307177Y-115506712D01*
X166302100Y-115468148D01*
X166302100Y-115367820D01*
X166302099Y-115367816D01*
X166301417Y-115365271D01*
X166272967Y-115259091D01*
X166216685Y-115161609D01*
X166137091Y-115082015D01*
X166110175Y-115066475D01*
X166039610Y-115025733D01*
X165930883Y-114996600D01*
X165930881Y-114996600D01*
X165818319Y-114996600D01*
X165818316Y-114996600D01*
X165709589Y-115025733D01*
X165612110Y-115082014D01*
X165532514Y-115161610D01*
X165476233Y-115259089D01*
X165447100Y-115367816D01*
X165447100Y-115480383D01*
X165476233Y-115589110D01*
X165507891Y-115643941D01*
X165532515Y-115686591D01*
X165612109Y-115766185D01*
X165709591Y-115822467D01*
X165818319Y-115851600D01*
X165818321Y-115851600D01*
X165918649Y-115851600D01*
X165993149Y-115871562D01*
X166024007Y-115895240D01*
X172911832Y-122783066D01*
X172995447Y-122817700D01*
X173085953Y-122817700D01*
X173356136Y-122817700D01*
X173430636Y-122837662D01*
X173485174Y-122892200D01*
X173493794Y-122909681D01*
X173553246Y-123053212D01*
X173553254Y-123053227D01*
X173623323Y-123158091D01*
X173660226Y-123213320D01*
X173796380Y-123349474D01*
X173811851Y-123359812D01*
X173862705Y-123417799D01*
X173877752Y-123493445D01*
X173852960Y-123566480D01*
X173794972Y-123617334D01*
X173729071Y-123632700D01*
X171075551Y-123632700D01*
X171001051Y-123612738D01*
X170970192Y-123589059D01*
X168640741Y-121259608D01*
X168602177Y-121192813D01*
X168597100Y-121154249D01*
X168597100Y-121053920D01*
X168597099Y-121053916D01*
X168596100Y-121050187D01*
X168567967Y-120945191D01*
X168511685Y-120847709D01*
X168432091Y-120768115D01*
X168411487Y-120756219D01*
X168334610Y-120711833D01*
X168225883Y-120682700D01*
X168225881Y-120682700D01*
X168113319Y-120682700D01*
X168113316Y-120682700D01*
X168004589Y-120711833D01*
X167907110Y-120768114D01*
X167827514Y-120847710D01*
X167771233Y-120945189D01*
X167742100Y-121053916D01*
X167742100Y-121166483D01*
X167771233Y-121275210D01*
X167815619Y-121352087D01*
X167827515Y-121372691D01*
X167907109Y-121452285D01*
X167983987Y-121496671D01*
X167996507Y-121503900D01*
X168004591Y-121508567D01*
X168113319Y-121537700D01*
X168113321Y-121537700D01*
X168213649Y-121537700D01*
X168288149Y-121557662D01*
X168319008Y-121581341D01*
X170726735Y-123989068D01*
X170790732Y-124053065D01*
X170874347Y-124087700D01*
X173729071Y-124087700D01*
X173803571Y-124107662D01*
X173858109Y-124162200D01*
X173878071Y-124236700D01*
X173858109Y-124311200D01*
X173811852Y-124360587D01*
X173802949Y-124366536D01*
X173796381Y-124370925D01*
X173796376Y-124370929D01*
X173660229Y-124507076D01*
X173660223Y-124507083D01*
X173553254Y-124667172D01*
X173553246Y-124667187D01*
X173479565Y-124845070D01*
X173479563Y-124845076D01*
X173442000Y-125033924D01*
X173442000Y-125226475D01*
X173479563Y-125415323D01*
X173479565Y-125415329D01*
X173539020Y-125558867D01*
X173549087Y-125635335D01*
X173519571Y-125706592D01*
X173506721Y-125721245D01*
X173215208Y-126012759D01*
X173148413Y-126051323D01*
X173109849Y-126056400D01*
X169319151Y-126056400D01*
X169244651Y-126036438D01*
X169213792Y-126012759D01*
X168138459Y-124937426D01*
X168106160Y-124889088D01*
X168100800Y-124876147D01*
X168066165Y-124792532D01*
X168002168Y-124728535D01*
X166878960Y-123605327D01*
X166840396Y-123538532D01*
X166840396Y-123461404D01*
X166878960Y-123394609D01*
X166901534Y-123376083D01*
X166980120Y-123323574D01*
X167116274Y-123187420D01*
X167223250Y-123027320D01*
X167296936Y-122849426D01*
X167334500Y-122660575D01*
X167334500Y-122468025D01*
X167333948Y-122465252D01*
X167304869Y-122319059D01*
X167296936Y-122279174D01*
X167223250Y-122101280D01*
X167147032Y-121987213D01*
X167116276Y-121941183D01*
X167116274Y-121941180D01*
X166980120Y-121805026D01*
X166887499Y-121743138D01*
X166820027Y-121698054D01*
X166820021Y-121698051D01*
X166820020Y-121698050D01*
X166820017Y-121698049D01*
X166820012Y-121698046D01*
X166642129Y-121624365D01*
X166642123Y-121624363D01*
X166453275Y-121586800D01*
X166260725Y-121586800D01*
X166071876Y-121624363D01*
X166071870Y-121624365D01*
X165928333Y-121683820D01*
X165851865Y-121693887D01*
X165780608Y-121664371D01*
X165765955Y-121651521D01*
X162038241Y-117923807D01*
X161999677Y-117857012D01*
X161994600Y-117818448D01*
X161994600Y-113613693D01*
X162014562Y-113539193D01*
X162038237Y-113508338D01*
X162109185Y-113437391D01*
X162165467Y-113339909D01*
X162194600Y-113231181D01*
X162194600Y-113196551D01*
X162214562Y-113122051D01*
X162269100Y-113067513D01*
X162343600Y-113047551D01*
X162418100Y-113067513D01*
G37*
%TD.AperFunction*%
%TA.AperFunction,Conductor*%
G36*
X155597849Y-99017462D02*
G01*
X155628708Y-99041141D01*
X173506721Y-116919154D01*
X173545285Y-116985949D01*
X173545285Y-117063077D01*
X173539020Y-117081532D01*
X173479565Y-117225070D01*
X173479563Y-117225076D01*
X173442000Y-117413924D01*
X173442000Y-117606475D01*
X173468262Y-117738506D01*
X173463217Y-117815469D01*
X173420367Y-117879599D01*
X173351193Y-117913711D01*
X173274230Y-117908666D01*
X173216766Y-117872933D01*
X155190968Y-99847135D01*
X155107353Y-99812500D01*
X155107352Y-99812500D01*
X153620429Y-99812500D01*
X153545929Y-99792538D01*
X153491391Y-99738000D01*
X153471429Y-99663500D01*
X153491391Y-99589000D01*
X153537647Y-99539612D01*
X153553120Y-99529274D01*
X153689274Y-99393120D01*
X153796250Y-99233020D01*
X153855706Y-99089481D01*
X153902658Y-99028291D01*
X153973915Y-98998775D01*
X153993364Y-98997500D01*
X155523349Y-98997500D01*
X155597849Y-99017462D01*
G37*
%TD.AperFunction*%
%TA.AperFunction,Conductor*%
G36*
X151798800Y-99652213D02*
G01*
X151829657Y-99675890D01*
X152386632Y-100232866D01*
X152445757Y-100257355D01*
X152470247Y-100267500D01*
X152470248Y-100267500D01*
X152560753Y-100267500D01*
X154906149Y-100267500D01*
X154980649Y-100287462D01*
X155011508Y-100311141D01*
X162384808Y-107684441D01*
X162423372Y-107751236D01*
X162423372Y-107828364D01*
X162384808Y-107895159D01*
X162318013Y-107933723D01*
X162279449Y-107938800D01*
X159141693Y-107938800D01*
X159067193Y-107918838D01*
X159036338Y-107895162D01*
X158965291Y-107824115D01*
X158944687Y-107812219D01*
X158867810Y-107767833D01*
X158759083Y-107738700D01*
X158759081Y-107738700D01*
X158646519Y-107738700D01*
X158646516Y-107738700D01*
X158537789Y-107767833D01*
X158440310Y-107824114D01*
X158360714Y-107903710D01*
X158304432Y-108001191D01*
X158301314Y-108008721D01*
X158254362Y-108069911D01*
X158183106Y-108099428D01*
X158106637Y-108089362D01*
X158058296Y-108057062D01*
X157016341Y-107015107D01*
X156977777Y-106948312D01*
X156972700Y-106909748D01*
X156972700Y-105986748D01*
X156972699Y-105986745D01*
X156938067Y-105903134D01*
X156938065Y-105903131D01*
X153540369Y-102505436D01*
X153540368Y-102505435D01*
X153456753Y-102470800D01*
X153456752Y-102470800D01*
X152813151Y-102470800D01*
X152738651Y-102450838D01*
X152707792Y-102427159D01*
X151618941Y-101338308D01*
X151580377Y-101271513D01*
X151575300Y-101232949D01*
X151575300Y-99781251D01*
X151595262Y-99706751D01*
X151649800Y-99652213D01*
X151724300Y-99632251D01*
X151798800Y-99652213D01*
G37*
%TD.AperFunction*%
%TA.AperFunction,Conductor*%
G36*
X129331300Y-81640874D02*
G01*
X129362159Y-81664553D01*
X129446880Y-81749274D01*
X129446883Y-81749276D01*
X129606972Y-81856245D01*
X129606974Y-81856246D01*
X129606980Y-81856250D01*
X129606986Y-81856252D01*
X129606987Y-81856253D01*
X129609452Y-81857274D01*
X129784874Y-81929936D01*
X129973725Y-81967500D01*
X130166275Y-81967500D01*
X130355126Y-81929936D01*
X130498669Y-81870478D01*
X130575134Y-81860412D01*
X130646391Y-81889927D01*
X130661045Y-81902778D01*
X131188659Y-82430392D01*
X131227223Y-82497187D01*
X131232300Y-82535751D01*
X131232300Y-85572633D01*
X131212338Y-85647133D01*
X131157800Y-85701671D01*
X131083300Y-85721633D01*
X131008800Y-85701671D01*
X130954262Y-85647133D01*
X130945642Y-85629654D01*
X130942611Y-85622336D01*
X130936250Y-85606980D01*
X130829274Y-85446880D01*
X130693120Y-85310726D01*
X130693116Y-85310723D01*
X130533027Y-85203754D01*
X130533021Y-85203751D01*
X130533020Y-85203750D01*
X130533017Y-85203749D01*
X130533012Y-85203746D01*
X130355129Y-85130065D01*
X130355123Y-85130063D01*
X130166275Y-85092500D01*
X129973725Y-85092500D01*
X129784876Y-85130063D01*
X129784870Y-85130065D01*
X129606987Y-85203746D01*
X129606972Y-85203754D01*
X129446883Y-85310723D01*
X129446876Y-85310729D01*
X129362159Y-85395447D01*
X129295364Y-85434011D01*
X129218236Y-85434011D01*
X129151441Y-85395447D01*
X129112877Y-85328652D01*
X129107800Y-85290088D01*
X129107800Y-81769912D01*
X129127762Y-81695412D01*
X129182300Y-81640874D01*
X129256800Y-81620912D01*
X129331300Y-81640874D01*
G37*
%TD.AperFunction*%
%TA.AperFunction,Conductor*%
G36*
X204425000Y-65520462D02*
G01*
X204479538Y-65575000D01*
X204499500Y-65649500D01*
X204499500Y-134350500D01*
X204479538Y-134425000D01*
X204425000Y-134479538D01*
X204350500Y-134499500D01*
X120649500Y-134499500D01*
X120575000Y-134479538D01*
X120520462Y-134425000D01*
X120500500Y-134350500D01*
X120500500Y-130878706D01*
X122149500Y-130878706D01*
X122149500Y-131121293D01*
X122181160Y-131361781D01*
X122181161Y-131361787D01*
X122181162Y-131361789D01*
X122243946Y-131596100D01*
X122336776Y-131820212D01*
X122458064Y-132030289D01*
X122605735Y-132222738D01*
X122777262Y-132394265D01*
X122969711Y-132541936D01*
X123179788Y-132663224D01*
X123403900Y-132756054D01*
X123638211Y-132818838D01*
X123638217Y-132818838D01*
X123638218Y-132818839D01*
X123703600Y-132827446D01*
X123878712Y-132850500D01*
X124121288Y-132850500D01*
X124361789Y-132818838D01*
X124596100Y-132756054D01*
X124820212Y-132663224D01*
X125030289Y-132541936D01*
X125222738Y-132394265D01*
X125394265Y-132222738D01*
X125541936Y-132030289D01*
X125663224Y-131820212D01*
X125756054Y-131596100D01*
X125818838Y-131361789D01*
X125850500Y-131121288D01*
X125850500Y-130878712D01*
X125850499Y-130878706D01*
X199149500Y-130878706D01*
X199149500Y-131121293D01*
X199181160Y-131361781D01*
X199181161Y-131361787D01*
X199181162Y-131361789D01*
X199243946Y-131596100D01*
X199336776Y-131820212D01*
X199458064Y-132030289D01*
X199605735Y-132222738D01*
X199777262Y-132394265D01*
X199969711Y-132541936D01*
X200179788Y-132663224D01*
X200403900Y-132756054D01*
X200638211Y-132818838D01*
X200638217Y-132818838D01*
X200638218Y-132818839D01*
X200703600Y-132827446D01*
X200878712Y-132850500D01*
X201121288Y-132850500D01*
X201361789Y-132818838D01*
X201596100Y-132756054D01*
X201820212Y-132663224D01*
X202030289Y-132541936D01*
X202222738Y-132394265D01*
X202394265Y-132222738D01*
X202541936Y-132030289D01*
X202663224Y-131820212D01*
X202756054Y-131596100D01*
X202818838Y-131361789D01*
X202850500Y-131121288D01*
X202850500Y-130878712D01*
X202818838Y-130638211D01*
X202756054Y-130403900D01*
X202663224Y-130179788D01*
X202541936Y-129969711D01*
X202394265Y-129777262D01*
X202222738Y-129605735D01*
X202030289Y-129458064D01*
X201848486Y-129353100D01*
X201820216Y-129336778D01*
X201820214Y-129336777D01*
X201820212Y-129336776D01*
X201688932Y-129282398D01*
X201596103Y-129243947D01*
X201596101Y-129243946D01*
X201596100Y-129243946D01*
X201361789Y-129181162D01*
X201361787Y-129181161D01*
X201361781Y-129181160D01*
X201121293Y-129149500D01*
X201121288Y-129149500D01*
X200878712Y-129149500D01*
X200878706Y-129149500D01*
X200638218Y-129181160D01*
X200403896Y-129243947D01*
X200179783Y-129336778D01*
X199969712Y-129458063D01*
X199969711Y-129458064D01*
X199777262Y-129605735D01*
X199777260Y-129605736D01*
X199777256Y-129605740D01*
X199605740Y-129777256D01*
X199458063Y-129969712D01*
X199336778Y-130179783D01*
X199243947Y-130403896D01*
X199181160Y-130638218D01*
X199149500Y-130878706D01*
X125850499Y-130878706D01*
X125818838Y-130638211D01*
X125756054Y-130403900D01*
X125663224Y-130179788D01*
X125541936Y-129969711D01*
X125394265Y-129777262D01*
X125222738Y-129605735D01*
X125030289Y-129458064D01*
X124848486Y-129353100D01*
X124820216Y-129336778D01*
X124820214Y-129336777D01*
X124820212Y-129336776D01*
X124688932Y-129282398D01*
X124596103Y-129243947D01*
X124596101Y-129243946D01*
X124596100Y-129243946D01*
X124361789Y-129181162D01*
X124361787Y-129181161D01*
X124361781Y-129181160D01*
X124121293Y-129149500D01*
X124121288Y-129149500D01*
X123878712Y-129149500D01*
X123878706Y-129149500D01*
X123638218Y-129181160D01*
X123403896Y-129243947D01*
X123179783Y-129336778D01*
X122969712Y-129458063D01*
X122969711Y-129458064D01*
X122777262Y-129605735D01*
X122777260Y-129605736D01*
X122777256Y-129605740D01*
X122605740Y-129777256D01*
X122458063Y-129969712D01*
X122336778Y-130179783D01*
X122243947Y-130403896D01*
X122181160Y-130638218D01*
X122149500Y-130878706D01*
X120500500Y-130878706D01*
X120500500Y-124246038D01*
X129972000Y-124246038D01*
X129972000Y-125971161D01*
X129979397Y-126008346D01*
X129979399Y-126008350D01*
X130007576Y-126050520D01*
X130007579Y-126050523D01*
X130036579Y-126069900D01*
X130049752Y-126078702D01*
X130086942Y-126086100D01*
X130086946Y-126086100D01*
X131812054Y-126086100D01*
X131812058Y-126086100D01*
X131849248Y-126078702D01*
X131891422Y-126050522D01*
X131919602Y-126008348D01*
X131927000Y-125971158D01*
X131927000Y-124246042D01*
X131919602Y-124208852D01*
X131891422Y-124166678D01*
X131891420Y-124166676D01*
X131849250Y-124138499D01*
X131849246Y-124138497D01*
X131812061Y-124131100D01*
X131812058Y-124131100D01*
X130086942Y-124131100D01*
X130086938Y-124131100D01*
X130049753Y-124138497D01*
X130049749Y-124138499D01*
X130007579Y-124166676D01*
X130007576Y-124166679D01*
X129979399Y-124208849D01*
X129979397Y-124208853D01*
X129972000Y-124246038D01*
X120500500Y-124246038D01*
X120500500Y-113913724D01*
X129092500Y-113913724D01*
X129092500Y-114106275D01*
X129130063Y-114295123D01*
X129130065Y-114295129D01*
X129203746Y-114473012D01*
X129203754Y-114473027D01*
X129310723Y-114633116D01*
X129310726Y-114633120D01*
X129446880Y-114769274D01*
X129446883Y-114769276D01*
X129606972Y-114876245D01*
X129606974Y-114876246D01*
X129606980Y-114876250D01*
X129784874Y-114949936D01*
X129973725Y-114987500D01*
X130166275Y-114987500D01*
X130355126Y-114949936D01*
X130533020Y-114876250D01*
X130693120Y-114769274D01*
X130829274Y-114633120D01*
X130936250Y-114473020D01*
X131009936Y-114295126D01*
X131047500Y-114106275D01*
X131047500Y-113913725D01*
X131009936Y-113724874D01*
X130936250Y-113546980D01*
X130929723Y-113537212D01*
X130829276Y-113386883D01*
X130829274Y-113386880D01*
X130693120Y-113250726D01*
X130693116Y-113250723D01*
X130533027Y-113143754D01*
X130533021Y-113143751D01*
X130533020Y-113143750D01*
X130533017Y-113143749D01*
X130533012Y-113143746D01*
X130355129Y-113070065D01*
X130355123Y-113070063D01*
X130166275Y-113032500D01*
X129973725Y-113032500D01*
X129784876Y-113070063D01*
X129784870Y-113070065D01*
X129606987Y-113143746D01*
X129606972Y-113143754D01*
X129446883Y-113250723D01*
X129446876Y-113250729D01*
X129310729Y-113386876D01*
X129310723Y-113386883D01*
X129203754Y-113546972D01*
X129203746Y-113546987D01*
X129130065Y-113724870D01*
X129130063Y-113724876D01*
X129092500Y-113913724D01*
X120500500Y-113913724D01*
X120500500Y-111373724D01*
X129092500Y-111373724D01*
X129092500Y-111566275D01*
X129130063Y-111755123D01*
X129130065Y-111755129D01*
X129203746Y-111933012D01*
X129203754Y-111933027D01*
X129310723Y-112093116D01*
X129310726Y-112093120D01*
X129446880Y-112229274D01*
X129446883Y-112229276D01*
X129606972Y-112336245D01*
X129606974Y-112336246D01*
X129606980Y-112336250D01*
X129784874Y-112409936D01*
X129973725Y-112447500D01*
X130166275Y-112447500D01*
X130355126Y-112409936D01*
X130533020Y-112336250D01*
X130693120Y-112229274D01*
X130829274Y-112093120D01*
X130936250Y-111933020D01*
X131009936Y-111755126D01*
X131047500Y-111566275D01*
X131047500Y-111373725D01*
X131044467Y-111358479D01*
X131034978Y-111310774D01*
X131009936Y-111184874D01*
X130936250Y-111006980D01*
X130904936Y-110960116D01*
X130829276Y-110846883D01*
X130829274Y-110846880D01*
X130693120Y-110710726D01*
X130693116Y-110710723D01*
X130533027Y-110603754D01*
X130533021Y-110603751D01*
X130533020Y-110603750D01*
X130533017Y-110603749D01*
X130533012Y-110603746D01*
X130355129Y-110530065D01*
X130355123Y-110530063D01*
X130166275Y-110492500D01*
X129973725Y-110492500D01*
X129784876Y-110530063D01*
X129784870Y-110530065D01*
X129606987Y-110603746D01*
X129606972Y-110603754D01*
X129446883Y-110710723D01*
X129446876Y-110710729D01*
X129310729Y-110846876D01*
X129310723Y-110846883D01*
X129203754Y-111006972D01*
X129203746Y-111006987D01*
X129130065Y-111184870D01*
X129130063Y-111184876D01*
X129092500Y-111373724D01*
X120500500Y-111373724D01*
X120500500Y-108833724D01*
X129092500Y-108833724D01*
X129092500Y-109026275D01*
X129130063Y-109215123D01*
X129130065Y-109215129D01*
X129203746Y-109393012D01*
X129203754Y-109393027D01*
X129282278Y-109510545D01*
X129310726Y-109553120D01*
X129446880Y-109689274D01*
X129446883Y-109689276D01*
X129606972Y-109796245D01*
X129606974Y-109796246D01*
X129606980Y-109796250D01*
X129784874Y-109869936D01*
X129973725Y-109907500D01*
X130166275Y-109907500D01*
X130355126Y-109869936D01*
X130533020Y-109796250D01*
X130693120Y-109689274D01*
X130829274Y-109553120D01*
X130936250Y-109393020D01*
X131009936Y-109215126D01*
X131047500Y-109026275D01*
X131047500Y-108833725D01*
X131009936Y-108644874D01*
X130936250Y-108466980D01*
X130905828Y-108421451D01*
X130829276Y-108306883D01*
X130829274Y-108306880D01*
X130693120Y-108170726D01*
X130606186Y-108112638D01*
X130533027Y-108063754D01*
X130533021Y-108063751D01*
X130533020Y-108063750D01*
X130533017Y-108063749D01*
X130533012Y-108063746D01*
X130355129Y-107990065D01*
X130355123Y-107990063D01*
X130166275Y-107952500D01*
X129973725Y-107952500D01*
X129784876Y-107990063D01*
X129784870Y-107990065D01*
X129606987Y-108063746D01*
X129606972Y-108063754D01*
X129446883Y-108170723D01*
X129446876Y-108170729D01*
X129310729Y-108306876D01*
X129310723Y-108306883D01*
X129203754Y-108466972D01*
X129203746Y-108466987D01*
X129130065Y-108644870D01*
X129130063Y-108644876D01*
X129092500Y-108833724D01*
X120500500Y-108833724D01*
X120500500Y-106293724D01*
X129092500Y-106293724D01*
X129092500Y-106486275D01*
X129130063Y-106675123D01*
X129130065Y-106675129D01*
X129203746Y-106853012D01*
X129203754Y-106853027D01*
X129299997Y-106997063D01*
X129310726Y-107013120D01*
X129446880Y-107149274D01*
X129446883Y-107149276D01*
X129606972Y-107256245D01*
X129606974Y-107256246D01*
X129606980Y-107256250D01*
X129784874Y-107329936D01*
X129973725Y-107367500D01*
X130166275Y-107367500D01*
X130355126Y-107329936D01*
X130533020Y-107256250D01*
X130693120Y-107149274D01*
X130829274Y-107013120D01*
X130936250Y-106853020D01*
X131009936Y-106675126D01*
X131047500Y-106486275D01*
X131047500Y-106293725D01*
X131009936Y-106104874D01*
X130936250Y-105926980D01*
X130936027Y-105926647D01*
X130829276Y-105766883D01*
X130829274Y-105766880D01*
X130693120Y-105630726D01*
X130693116Y-105630723D01*
X130533027Y-105523754D01*
X130533021Y-105523751D01*
X130533020Y-105523750D01*
X130533017Y-105523749D01*
X130533012Y-105523746D01*
X130355129Y-105450065D01*
X130355123Y-105450063D01*
X130166275Y-105412500D01*
X129973725Y-105412500D01*
X129784876Y-105450063D01*
X129784870Y-105450065D01*
X129606987Y-105523746D01*
X129606972Y-105523754D01*
X129446883Y-105630723D01*
X129446876Y-105630729D01*
X129310729Y-105766876D01*
X129310723Y-105766883D01*
X129203754Y-105926972D01*
X129203746Y-105926987D01*
X129130065Y-106104870D01*
X129130063Y-106104876D01*
X129092500Y-106293724D01*
X120500500Y-106293724D01*
X120500500Y-103753724D01*
X129092500Y-103753724D01*
X129092500Y-103946275D01*
X129130063Y-104135123D01*
X129130065Y-104135129D01*
X129203746Y-104313012D01*
X129203754Y-104313027D01*
X129310723Y-104473116D01*
X129310726Y-104473120D01*
X129446880Y-104609274D01*
X129446883Y-104609276D01*
X129606972Y-104716245D01*
X129606974Y-104716246D01*
X129606980Y-104716250D01*
X129784874Y-104789936D01*
X129973725Y-104827500D01*
X130166275Y-104827500D01*
X130355126Y-104789936D01*
X130533020Y-104716250D01*
X130693120Y-104609274D01*
X130829274Y-104473120D01*
X130936250Y-104313020D01*
X131009936Y-104135126D01*
X131047500Y-103946275D01*
X131047500Y-103753725D01*
X131009936Y-103564874D01*
X130936250Y-103386980D01*
X130829274Y-103226880D01*
X130693120Y-103090726D01*
X130591699Y-103022958D01*
X130533027Y-102983754D01*
X130533021Y-102983751D01*
X130533020Y-102983750D01*
X130533017Y-102983749D01*
X130533012Y-102983746D01*
X130355129Y-102910065D01*
X130355123Y-102910063D01*
X130166275Y-102872500D01*
X129973725Y-102872500D01*
X129784876Y-102910063D01*
X129784870Y-102910065D01*
X129606987Y-102983746D01*
X129606972Y-102983754D01*
X129446883Y-103090723D01*
X129446876Y-103090729D01*
X129310729Y-103226876D01*
X129310723Y-103226883D01*
X129203754Y-103386972D01*
X129203746Y-103386987D01*
X129130065Y-103564870D01*
X129130063Y-103564876D01*
X129092500Y-103753724D01*
X120500500Y-103753724D01*
X120500500Y-74514447D01*
X128652800Y-74514447D01*
X128652800Y-99173247D01*
X128652800Y-99263753D01*
X128681885Y-99333969D01*
X128687435Y-99347368D01*
X128687436Y-99347369D01*
X129584605Y-100244539D01*
X129623169Y-100311334D01*
X129623169Y-100388462D01*
X129584605Y-100455257D01*
X129562027Y-100473786D01*
X129446883Y-100550723D01*
X129446876Y-100550729D01*
X129310729Y-100686876D01*
X129310723Y-100686883D01*
X129203754Y-100846972D01*
X129203746Y-100846987D01*
X129130065Y-101024870D01*
X129130063Y-101024876D01*
X129092500Y-101213724D01*
X129092500Y-101406275D01*
X129130063Y-101595123D01*
X129130065Y-101595129D01*
X129203746Y-101773012D01*
X129203754Y-101773027D01*
X129310723Y-101933116D01*
X129310726Y-101933120D01*
X129446880Y-102069274D01*
X129446883Y-102069276D01*
X129606972Y-102176245D01*
X129606974Y-102176246D01*
X129606980Y-102176250D01*
X129784874Y-102249936D01*
X129973725Y-102287500D01*
X130166275Y-102287500D01*
X130355126Y-102249936D01*
X130533020Y-102176250D01*
X130693120Y-102069274D01*
X130829274Y-101933120D01*
X130936250Y-101773020D01*
X131009936Y-101595126D01*
X131047500Y-101406275D01*
X131047500Y-101280851D01*
X131067462Y-101206351D01*
X131122000Y-101151813D01*
X131196500Y-101131851D01*
X131271000Y-101151813D01*
X131301859Y-101175492D01*
X136148859Y-106022492D01*
X136187423Y-106089287D01*
X136192500Y-106127851D01*
X136192500Y-107828706D01*
X136172538Y-107903206D01*
X136148860Y-107934064D01*
X136077916Y-108005007D01*
X136077914Y-108005010D01*
X136021633Y-108102489D01*
X135992500Y-108211216D01*
X135992500Y-108323783D01*
X136021633Y-108432510D01*
X136041530Y-108466972D01*
X136077915Y-108529991D01*
X136157509Y-108609585D01*
X136254991Y-108665867D01*
X136363719Y-108695000D01*
X136363721Y-108695000D01*
X136476279Y-108695000D01*
X136476281Y-108695000D01*
X136585009Y-108665867D01*
X136682491Y-108609585D01*
X136762085Y-108529991D01*
X136818367Y-108432509D01*
X136847500Y-108323781D01*
X136847500Y-108211219D01*
X136818367Y-108102491D01*
X136762085Y-108005009D01*
X136691140Y-107934064D01*
X136652577Y-107867269D01*
X136647500Y-107828706D01*
X136647500Y-106028951D01*
X136667462Y-105954451D01*
X136722000Y-105899913D01*
X136796500Y-105879951D01*
X136871000Y-105899913D01*
X136901858Y-105923591D01*
X159993032Y-129014766D01*
X160052157Y-129039255D01*
X160076647Y-129049400D01*
X160076648Y-129049400D01*
X160076650Y-129049400D01*
X172161352Y-129049400D01*
X172161353Y-129049400D01*
X172244968Y-129014765D01*
X173187642Y-128072090D01*
X173254436Y-128033528D01*
X173331564Y-128033528D01*
X173398359Y-128072092D01*
X173436923Y-128138887D01*
X173442000Y-128177451D01*
X173442000Y-128532761D01*
X173449397Y-128569946D01*
X173449399Y-128569950D01*
X173477576Y-128612120D01*
X173477579Y-128612123D01*
X173489461Y-128620062D01*
X173519752Y-128640302D01*
X173556942Y-128647700D01*
X173556946Y-128647700D01*
X175282054Y-128647700D01*
X175282058Y-128647700D01*
X175319248Y-128640302D01*
X175361422Y-128612122D01*
X175389602Y-128569948D01*
X175397000Y-128532758D01*
X175397000Y-126807642D01*
X175389602Y-126770452D01*
X175373106Y-126745764D01*
X175361423Y-126728279D01*
X175361420Y-126728276D01*
X175319250Y-126700099D01*
X175319246Y-126700097D01*
X175282061Y-126692700D01*
X175282058Y-126692700D01*
X173556942Y-126692700D01*
X173519752Y-126700098D01*
X173477578Y-126728278D01*
X173449398Y-126770452D01*
X173445083Y-126792141D01*
X173445083Y-126792142D01*
X173442000Y-126807638D01*
X173442000Y-127293700D01*
X173422038Y-127368200D01*
X173367500Y-127422738D01*
X173293000Y-127442700D01*
X173222545Y-127442700D01*
X173138934Y-127477332D01*
X173138931Y-127477334D01*
X172065508Y-128550759D01*
X171998713Y-128589323D01*
X171960149Y-128594400D01*
X170992512Y-128594400D01*
X170918012Y-128574438D01*
X170863474Y-128519900D01*
X170843512Y-128445400D01*
X170863474Y-128370900D01*
X170887153Y-128340041D01*
X170895505Y-128331689D01*
X170941274Y-128285920D01*
X171048250Y-128125820D01*
X171121936Y-127947926D01*
X171159500Y-127759075D01*
X171159500Y-127566525D01*
X171155959Y-127548725D01*
X171134870Y-127442700D01*
X171121936Y-127377674D01*
X171057738Y-127222687D01*
X171048253Y-127199787D01*
X171048252Y-127199786D01*
X171048250Y-127199780D01*
X171036356Y-127181980D01*
X170941276Y-127039683D01*
X170941274Y-127039680D01*
X170805120Y-126903526D01*
X170805116Y-126903523D01*
X170645027Y-126796554D01*
X170638565Y-126793100D01*
X170639622Y-126791120D01*
X170587476Y-126751111D01*
X170557957Y-126679855D01*
X170568020Y-126603387D01*
X170614970Y-126542195D01*
X170686226Y-126512676D01*
X170705681Y-126511400D01*
X173311053Y-126511400D01*
X173317423Y-126510133D01*
X173327041Y-126510763D01*
X173347644Y-126496243D01*
X173394668Y-126476765D01*
X173828455Y-126042976D01*
X173895248Y-126004414D01*
X173972376Y-126004414D01*
X173990831Y-126010678D01*
X174134374Y-126070136D01*
X174323225Y-126107700D01*
X174515775Y-126107700D01*
X174704626Y-126070136D01*
X174882520Y-125996450D01*
X175042620Y-125889474D01*
X175178774Y-125753320D01*
X175285750Y-125593220D01*
X175359436Y-125415326D01*
X175397000Y-125226475D01*
X175397000Y-125033925D01*
X175366343Y-124879798D01*
X175371388Y-124802836D01*
X175414238Y-124738707D01*
X175483412Y-124704594D01*
X175560375Y-124709639D01*
X175617839Y-124745372D01*
X180126935Y-129254468D01*
X180190932Y-129318465D01*
X180274547Y-129353100D01*
X180274548Y-129353100D01*
X187309652Y-129353100D01*
X187309653Y-129353100D01*
X187393268Y-129318465D01*
X187910966Y-128800768D01*
X187945600Y-128717152D01*
X187945600Y-128626647D01*
X187945600Y-119408947D01*
X187910965Y-119325332D01*
X187846968Y-119261335D01*
X185598941Y-117013308D01*
X185560377Y-116946513D01*
X185555300Y-116907949D01*
X185555300Y-116807620D01*
X185555299Y-116807616D01*
X185526167Y-116698891D01*
X185469885Y-116601409D01*
X185390291Y-116521815D01*
X185369687Y-116509919D01*
X185292810Y-116465533D01*
X185184083Y-116436400D01*
X185184081Y-116436400D01*
X185071519Y-116436400D01*
X185071516Y-116436400D01*
X184962789Y-116465533D01*
X184865310Y-116521814D01*
X184785714Y-116601410D01*
X184729433Y-116698889D01*
X184700300Y-116807616D01*
X184700300Y-116920183D01*
X184729433Y-117028910D01*
X184739986Y-117047187D01*
X184785715Y-117126391D01*
X184865309Y-117205985D01*
X184962791Y-117262267D01*
X185071519Y-117291400D01*
X185071521Y-117291400D01*
X185171849Y-117291400D01*
X185246349Y-117311362D01*
X185277208Y-117335041D01*
X187446959Y-119504792D01*
X187485523Y-119571587D01*
X187490600Y-119610151D01*
X187490600Y-126544900D01*
X187470638Y-126619400D01*
X187416100Y-126673938D01*
X187341600Y-126693900D01*
X186914800Y-126693900D01*
X186840300Y-126673938D01*
X186785762Y-126619400D01*
X186765800Y-126544900D01*
X186765800Y-126412550D01*
X186765800Y-126412547D01*
X186755655Y-126388057D01*
X186731166Y-126328932D01*
X176335168Y-115932935D01*
X176251553Y-115898300D01*
X176251552Y-115898300D01*
X175233512Y-115898300D01*
X175159012Y-115878338D01*
X175104474Y-115823800D01*
X175084512Y-115749300D01*
X175104474Y-115674800D01*
X175128153Y-115643941D01*
X175137585Y-115634509D01*
X175178774Y-115593320D01*
X175285750Y-115433220D01*
X175359436Y-115255326D01*
X175397000Y-115066475D01*
X175397000Y-114873925D01*
X175359436Y-114685074D01*
X175285750Y-114507180D01*
X175178774Y-114347080D01*
X175042620Y-114210926D01*
X175042616Y-114210923D01*
X174882527Y-114103954D01*
X174882521Y-114103951D01*
X174882520Y-114103950D01*
X174882517Y-114103949D01*
X174882512Y-114103946D01*
X174704629Y-114030265D01*
X174704623Y-114030263D01*
X174515775Y-113992700D01*
X174323225Y-113992700D01*
X174134376Y-114030263D01*
X174134370Y-114030265D01*
X173990832Y-114089720D01*
X173914364Y-114099787D01*
X173843107Y-114070271D01*
X173828454Y-114057421D01*
X165307048Y-105536015D01*
X165268484Y-105469220D01*
X165268484Y-105392092D01*
X165307048Y-105325297D01*
X165373843Y-105286733D01*
X165418053Y-105283837D01*
X165418053Y-105282400D01*
X165540379Y-105282400D01*
X165540381Y-105282400D01*
X165649109Y-105253267D01*
X165746591Y-105196985D01*
X165826185Y-105117391D01*
X165882467Y-105019909D01*
X165911600Y-104911181D01*
X165911600Y-104798619D01*
X165882467Y-104689891D01*
X165826185Y-104592409D01*
X165746591Y-104512815D01*
X165725987Y-104500919D01*
X165649110Y-104456533D01*
X165540383Y-104427400D01*
X165540381Y-104427400D01*
X165440052Y-104427400D01*
X165365552Y-104407438D01*
X165334693Y-104383759D01*
X158701841Y-97750907D01*
X158663277Y-97684112D01*
X158658200Y-97645548D01*
X158658200Y-83905450D01*
X158658200Y-83905447D01*
X158648055Y-83880957D01*
X158623566Y-83821832D01*
X153842777Y-79041044D01*
X153804214Y-78974250D01*
X153804214Y-78897122D01*
X153810475Y-78878677D01*
X153869936Y-78735126D01*
X153907500Y-78546275D01*
X153907500Y-78353725D01*
X153869936Y-78164874D01*
X153796250Y-77986980D01*
X153689274Y-77826880D01*
X153553120Y-77690726D01*
X153553116Y-77690723D01*
X153393027Y-77583754D01*
X153393021Y-77583751D01*
X153393020Y-77583750D01*
X153393017Y-77583749D01*
X153393012Y-77583746D01*
X153215129Y-77510065D01*
X153215123Y-77510063D01*
X153026275Y-77472500D01*
X152833725Y-77472500D01*
X152644876Y-77510063D01*
X152644870Y-77510065D01*
X152466987Y-77583746D01*
X152466972Y-77583754D01*
X152306883Y-77690723D01*
X152306876Y-77690729D01*
X152170729Y-77826876D01*
X152170723Y-77826883D01*
X152063754Y-77986972D01*
X152063746Y-77986987D01*
X151990065Y-78164870D01*
X151990063Y-78164876D01*
X151952500Y-78353724D01*
X151952500Y-78546275D01*
X151990063Y-78735123D01*
X151990065Y-78735129D01*
X152063746Y-78913012D01*
X152063754Y-78913027D01*
X152149294Y-79041045D01*
X152170726Y-79073120D01*
X152306880Y-79209274D01*
X152322351Y-79219612D01*
X152373205Y-79277599D01*
X152388252Y-79353245D01*
X152363460Y-79426280D01*
X152305472Y-79477134D01*
X152239571Y-79492500D01*
X139115952Y-79492500D01*
X139041452Y-79472538D01*
X139010593Y-79448859D01*
X137252457Y-77690723D01*
X135375458Y-75813724D01*
X151952500Y-75813724D01*
X151952500Y-76006275D01*
X151990063Y-76195123D01*
X151990065Y-76195129D01*
X152063746Y-76373012D01*
X152063754Y-76373027D01*
X152170723Y-76533116D01*
X152170726Y-76533120D01*
X152306880Y-76669274D01*
X152306883Y-76669276D01*
X152466972Y-76776245D01*
X152466974Y-76776246D01*
X152466980Y-76776250D01*
X152644874Y-76849936D01*
X152833725Y-76887500D01*
X153026275Y-76887500D01*
X153215126Y-76849936D01*
X153393020Y-76776250D01*
X153553120Y-76669274D01*
X153689274Y-76533120D01*
X153796250Y-76373020D01*
X153869936Y-76195126D01*
X153907500Y-76006275D01*
X153907500Y-75813725D01*
X153869936Y-75624874D01*
X153796250Y-75446980D01*
X153689274Y-75286880D01*
X153553120Y-75150726D01*
X153553116Y-75150723D01*
X153393027Y-75043754D01*
X153393021Y-75043751D01*
X153393020Y-75043750D01*
X153393017Y-75043749D01*
X153393012Y-75043746D01*
X153215129Y-74970065D01*
X153215123Y-74970063D01*
X153026275Y-74932500D01*
X152833725Y-74932500D01*
X152644876Y-74970063D01*
X152644870Y-74970065D01*
X152466987Y-75043746D01*
X152466972Y-75043754D01*
X152306883Y-75150723D01*
X152306876Y-75150729D01*
X152170729Y-75286876D01*
X152170723Y-75286883D01*
X152063754Y-75446972D01*
X152063746Y-75446987D01*
X151990065Y-75624870D01*
X151990063Y-75624876D01*
X151952500Y-75813724D01*
X135375458Y-75813724D01*
X132835457Y-73273724D01*
X151952500Y-73273724D01*
X151952500Y-73466275D01*
X151990063Y-73655123D01*
X151990065Y-73655129D01*
X152063746Y-73833012D01*
X152063754Y-73833027D01*
X152139503Y-73946392D01*
X152170726Y-73993120D01*
X152306880Y-74129274D01*
X152306883Y-74129276D01*
X152466972Y-74236245D01*
X152466974Y-74236246D01*
X152466980Y-74236250D01*
X152644874Y-74309936D01*
X152833725Y-74347500D01*
X153026275Y-74347500D01*
X153215126Y-74309936D01*
X153393020Y-74236250D01*
X153553120Y-74129274D01*
X153689274Y-73993120D01*
X153796250Y-73833020D01*
X153869936Y-73655126D01*
X153907500Y-73466275D01*
X153907500Y-73273725D01*
X153869936Y-73084874D01*
X153796250Y-72906980D01*
X153689274Y-72746880D01*
X153553120Y-72610726D01*
X153553116Y-72610723D01*
X153393027Y-72503754D01*
X153393021Y-72503751D01*
X153393020Y-72503750D01*
X153393017Y-72503749D01*
X153393012Y-72503746D01*
X153215129Y-72430065D01*
X153215123Y-72430063D01*
X153026275Y-72392500D01*
X152833725Y-72392500D01*
X152644876Y-72430063D01*
X152644870Y-72430065D01*
X152466987Y-72503746D01*
X152466972Y-72503754D01*
X152306883Y-72610723D01*
X152306876Y-72610729D01*
X152170729Y-72746876D01*
X152170723Y-72746883D01*
X152063754Y-72906972D01*
X152063746Y-72906987D01*
X151990065Y-73084870D01*
X151990063Y-73084876D01*
X151952500Y-73273724D01*
X132835457Y-73273724D01*
X130982777Y-71421044D01*
X130944214Y-71354250D01*
X130944214Y-71277122D01*
X130950475Y-71258677D01*
X131009936Y-71115126D01*
X131047500Y-70926275D01*
X131047500Y-70733725D01*
X131009936Y-70544874D01*
X130936250Y-70366980D01*
X130829274Y-70206880D01*
X130693120Y-70070726D01*
X130693116Y-70070723D01*
X130533027Y-69963754D01*
X130533021Y-69963751D01*
X130533020Y-69963750D01*
X130533017Y-69963749D01*
X130533012Y-69963746D01*
X130355129Y-69890065D01*
X130355123Y-69890063D01*
X130166275Y-69852500D01*
X129973725Y-69852500D01*
X129784876Y-69890063D01*
X129784870Y-69890065D01*
X129606987Y-69963746D01*
X129606972Y-69963754D01*
X129446883Y-70070723D01*
X129446876Y-70070729D01*
X129310729Y-70206876D01*
X129310723Y-70206883D01*
X129203754Y-70366972D01*
X129203746Y-70366987D01*
X129130065Y-70544870D01*
X129130063Y-70544876D01*
X129092500Y-70733724D01*
X129092500Y-70926275D01*
X129130063Y-71115123D01*
X129130065Y-71115129D01*
X129203746Y-71293012D01*
X129203754Y-71293027D01*
X129289294Y-71421045D01*
X129310726Y-71453120D01*
X129446880Y-71589274D01*
X129446883Y-71589276D01*
X129606972Y-71696245D01*
X129606974Y-71696246D01*
X129606980Y-71696250D01*
X129784874Y-71769936D01*
X129973725Y-71807500D01*
X130166275Y-71807500D01*
X130355126Y-71769936D01*
X130498669Y-71710478D01*
X130575134Y-71700412D01*
X130646391Y-71729927D01*
X130661044Y-71742777D01*
X138831132Y-79912866D01*
X138890257Y-79937355D01*
X138914747Y-79947500D01*
X138914748Y-79947500D01*
X139005253Y-79947500D01*
X152239571Y-79947500D01*
X152314071Y-79967462D01*
X152368609Y-80022000D01*
X152388571Y-80096500D01*
X152368609Y-80171000D01*
X152322352Y-80220387D01*
X152313449Y-80226336D01*
X152306881Y-80230725D01*
X152306876Y-80230729D01*
X152170729Y-80366876D01*
X152170723Y-80366883D01*
X152063754Y-80526972D01*
X152063746Y-80526987D01*
X151990065Y-80704870D01*
X151990063Y-80704876D01*
X151952500Y-80893724D01*
X151952500Y-81086275D01*
X151990063Y-81275123D01*
X151990065Y-81275129D01*
X152049519Y-81418666D01*
X152059586Y-81495134D01*
X152030070Y-81566391D01*
X152017220Y-81581044D01*
X150336032Y-83262235D01*
X150272036Y-83326231D01*
X150272035Y-83326231D01*
X150237400Y-83409847D01*
X150237400Y-93992832D01*
X150217438Y-94067332D01*
X150162900Y-94121870D01*
X150088400Y-94141832D01*
X150013900Y-94121870D01*
X150013899Y-94121869D01*
X149987512Y-94106634D01*
X149987509Y-94106633D01*
X149950289Y-94096660D01*
X149878783Y-94077500D01*
X149878781Y-94077500D01*
X149766219Y-94077500D01*
X149766216Y-94077500D01*
X149657489Y-94106633D01*
X149560010Y-94162914D01*
X149480414Y-94242510D01*
X149424133Y-94339989D01*
X149395000Y-94448716D01*
X149395000Y-94561283D01*
X149424133Y-94670010D01*
X149468519Y-94746887D01*
X149480415Y-94767491D01*
X149551360Y-94838436D01*
X149589923Y-94905229D01*
X149595000Y-94943793D01*
X149595000Y-113596449D01*
X149575038Y-113670949D01*
X149520500Y-113725487D01*
X149446000Y-113745449D01*
X149371500Y-113725487D01*
X149340641Y-113701808D01*
X131730941Y-96092108D01*
X131692377Y-96025313D01*
X131687300Y-95986749D01*
X131687300Y-82334547D01*
X131652665Y-82250932D01*
X131588668Y-82186935D01*
X130982777Y-81581044D01*
X130944214Y-81514250D01*
X130944214Y-81437122D01*
X130950475Y-81418677D01*
X131009936Y-81275126D01*
X131047500Y-81086275D01*
X131047500Y-80893725D01*
X131009936Y-80704874D01*
X130943433Y-80544322D01*
X130936253Y-80526987D01*
X130936252Y-80526986D01*
X130936250Y-80526980D01*
X130919656Y-80502146D01*
X130829276Y-80366883D01*
X130829274Y-80366880D01*
X130693120Y-80230726D01*
X130677650Y-80220389D01*
X130533027Y-80123754D01*
X130533021Y-80123751D01*
X130533020Y-80123750D01*
X130533017Y-80123749D01*
X130533012Y-80123746D01*
X130355129Y-80050065D01*
X130355123Y-80050063D01*
X130166275Y-80012500D01*
X129973725Y-80012500D01*
X129784876Y-80050063D01*
X129784870Y-80050065D01*
X129606987Y-80123746D01*
X129606972Y-80123754D01*
X129446883Y-80230723D01*
X129446876Y-80230729D01*
X129362159Y-80315447D01*
X129295364Y-80354011D01*
X129218236Y-80354011D01*
X129151441Y-80315447D01*
X129112877Y-80248652D01*
X129107800Y-80210088D01*
X129107800Y-79229912D01*
X129127762Y-79155412D01*
X129182300Y-79100874D01*
X129256800Y-79080912D01*
X129331300Y-79100874D01*
X129362159Y-79124553D01*
X129446880Y-79209274D01*
X129446883Y-79209276D01*
X129606972Y-79316245D01*
X129606974Y-79316246D01*
X129606980Y-79316250D01*
X129784874Y-79389936D01*
X129973725Y-79427500D01*
X130166275Y-79427500D01*
X130355126Y-79389936D01*
X130533020Y-79316250D01*
X130693120Y-79209274D01*
X130829274Y-79073120D01*
X130936250Y-78913020D01*
X131009936Y-78735126D01*
X131047500Y-78546275D01*
X131047500Y-78353725D01*
X131009936Y-78164874D01*
X130936250Y-77986980D01*
X130829274Y-77826880D01*
X130693120Y-77690726D01*
X130693116Y-77690723D01*
X130533027Y-77583754D01*
X130533021Y-77583751D01*
X130533020Y-77583750D01*
X130533017Y-77583749D01*
X130533012Y-77583746D01*
X130355129Y-77510065D01*
X130355123Y-77510063D01*
X130166275Y-77472500D01*
X129973725Y-77472500D01*
X129784876Y-77510063D01*
X129784870Y-77510065D01*
X129606987Y-77583746D01*
X129606972Y-77583754D01*
X129446883Y-77690723D01*
X129446876Y-77690729D01*
X129362159Y-77775447D01*
X129295364Y-77814011D01*
X129218236Y-77814011D01*
X129151441Y-77775447D01*
X129112877Y-77708652D01*
X129107800Y-77670088D01*
X129107800Y-76689912D01*
X129127762Y-76615412D01*
X129182300Y-76560874D01*
X129256800Y-76540912D01*
X129331300Y-76560874D01*
X129362159Y-76584553D01*
X129446880Y-76669274D01*
X129446883Y-76669276D01*
X129606972Y-76776245D01*
X129606974Y-76776246D01*
X129606980Y-76776250D01*
X129784874Y-76849936D01*
X129973725Y-76887500D01*
X130166275Y-76887500D01*
X130355126Y-76849936D01*
X130533020Y-76776250D01*
X130693120Y-76669274D01*
X130829274Y-76533120D01*
X130936250Y-76373020D01*
X131009936Y-76195126D01*
X131047500Y-76006275D01*
X131047500Y-75813725D01*
X131009936Y-75624874D01*
X130936250Y-75446980D01*
X130829274Y-75286880D01*
X130693120Y-75150726D01*
X130693116Y-75150723D01*
X130533027Y-75043754D01*
X130533021Y-75043751D01*
X130533020Y-75043750D01*
X130533017Y-75043749D01*
X130533012Y-75043746D01*
X130355129Y-74970065D01*
X130355123Y-74970063D01*
X130166275Y-74932500D01*
X129973725Y-74932500D01*
X129784876Y-74970063D01*
X129784870Y-74970065D01*
X129606987Y-75043746D01*
X129606972Y-75043754D01*
X129446883Y-75150723D01*
X129446876Y-75150729D01*
X129362159Y-75235447D01*
X129295364Y-75274011D01*
X129218236Y-75274011D01*
X129151441Y-75235447D01*
X129112877Y-75168652D01*
X129107800Y-75130088D01*
X129107800Y-74715650D01*
X129127762Y-74641150D01*
X129151438Y-74610294D01*
X129478955Y-74282776D01*
X129545748Y-74244214D01*
X129622876Y-74244214D01*
X129641331Y-74250478D01*
X129784874Y-74309936D01*
X129973725Y-74347500D01*
X130166275Y-74347500D01*
X130355126Y-74309936D01*
X130533020Y-74236250D01*
X130693120Y-74129274D01*
X130829274Y-73993120D01*
X130936250Y-73833020D01*
X131009936Y-73655126D01*
X131047500Y-73466275D01*
X131047500Y-73273725D01*
X131009936Y-73084874D01*
X130936250Y-72906980D01*
X130829274Y-72746880D01*
X130693120Y-72610726D01*
X130693116Y-72610723D01*
X130533027Y-72503754D01*
X130533021Y-72503751D01*
X130533020Y-72503750D01*
X130533017Y-72503749D01*
X130533012Y-72503746D01*
X130355129Y-72430065D01*
X130355123Y-72430063D01*
X130166275Y-72392500D01*
X129973725Y-72392500D01*
X129784876Y-72430063D01*
X129784870Y-72430065D01*
X129606987Y-72503746D01*
X129606972Y-72503754D01*
X129446883Y-72610723D01*
X129446876Y-72610729D01*
X129310729Y-72746876D01*
X129310723Y-72746883D01*
X129203754Y-72906972D01*
X129203746Y-72906987D01*
X129130065Y-73084870D01*
X129130063Y-73084876D01*
X129092500Y-73273724D01*
X129092500Y-73466275D01*
X129130063Y-73655123D01*
X129130065Y-73655129D01*
X129189520Y-73798667D01*
X129199587Y-73875135D01*
X129170071Y-73946392D01*
X129157221Y-73961045D01*
X128764519Y-74353747D01*
X128764517Y-74353749D01*
X128751432Y-74366835D01*
X128687435Y-74430832D01*
X128652800Y-74514447D01*
X120500500Y-74514447D01*
X120500500Y-68878706D01*
X122149500Y-68878706D01*
X122149500Y-69121293D01*
X122181160Y-69361781D01*
X122243947Y-69596103D01*
X122336778Y-69820216D01*
X122417634Y-69960263D01*
X122458064Y-70030289D01*
X122605735Y-70222738D01*
X122777262Y-70394265D01*
X122969711Y-70541936D01*
X123179788Y-70663224D01*
X123403900Y-70756054D01*
X123638211Y-70818838D01*
X123638217Y-70818838D01*
X123638218Y-70818839D01*
X123703600Y-70827446D01*
X123878712Y-70850500D01*
X124121288Y-70850500D01*
X124361789Y-70818838D01*
X124596100Y-70756054D01*
X124820212Y-70663224D01*
X125030289Y-70541936D01*
X125222738Y-70394265D01*
X125394265Y-70222738D01*
X125541936Y-70030289D01*
X125663224Y-69820212D01*
X125756054Y-69596100D01*
X125818838Y-69361789D01*
X125850500Y-69121288D01*
X125850500Y-68878712D01*
X125818838Y-68638211D01*
X125756054Y-68403900D01*
X125663224Y-68179788D01*
X125541936Y-67969711D01*
X125394265Y-67777262D01*
X125222738Y-67605735D01*
X125121101Y-67527747D01*
X125030293Y-67458066D01*
X125030291Y-67458065D01*
X124977244Y-67427438D01*
X151952500Y-67427438D01*
X151952500Y-69152561D01*
X151959897Y-69189746D01*
X151959899Y-69189750D01*
X151988076Y-69231920D01*
X151988078Y-69231922D01*
X152030252Y-69260102D01*
X152067442Y-69267500D01*
X152553500Y-69267500D01*
X152628000Y-69287462D01*
X152682538Y-69342000D01*
X152702500Y-69416500D01*
X152702500Y-69486952D01*
X152737135Y-69570568D01*
X152791203Y-69624636D01*
X152829767Y-69691431D01*
X152829767Y-69768559D01*
X152791203Y-69835354D01*
X152724408Y-69873918D01*
X152714914Y-69876132D01*
X152644873Y-69890064D01*
X152644870Y-69890065D01*
X152466987Y-69963746D01*
X152466972Y-69963754D01*
X152306883Y-70070723D01*
X152306876Y-70070729D01*
X152170729Y-70206876D01*
X152170723Y-70206883D01*
X152063754Y-70366972D01*
X152063746Y-70366987D01*
X151990065Y-70544870D01*
X151990063Y-70544876D01*
X151952500Y-70733724D01*
X151952500Y-70926275D01*
X151990063Y-71115123D01*
X151990065Y-71115129D01*
X152063746Y-71293012D01*
X152063754Y-71293027D01*
X152149294Y-71421045D01*
X152170726Y-71453120D01*
X152306880Y-71589274D01*
X152306883Y-71589276D01*
X152466972Y-71696245D01*
X152466974Y-71696246D01*
X152466980Y-71696250D01*
X152644874Y-71769936D01*
X152833725Y-71807500D01*
X153026275Y-71807500D01*
X153215126Y-71769936D01*
X153393020Y-71696250D01*
X153553120Y-71589274D01*
X153689274Y-71453120D01*
X153796250Y-71293020D01*
X153869936Y-71115126D01*
X153907500Y-70926275D01*
X153907500Y-70812751D01*
X153927462Y-70738251D01*
X153982000Y-70683713D01*
X154056500Y-70663751D01*
X154131000Y-70683713D01*
X154161859Y-70707392D01*
X162327159Y-78872692D01*
X162365723Y-78939487D01*
X162370800Y-78978051D01*
X162370800Y-100654252D01*
X162405435Y-100737868D01*
X173506721Y-111839154D01*
X173545285Y-111905949D01*
X173545285Y-111983077D01*
X173539020Y-112001532D01*
X173479565Y-112145070D01*
X173479563Y-112145076D01*
X173442000Y-112333924D01*
X173442000Y-112526475D01*
X173479563Y-112715323D01*
X173479565Y-112715329D01*
X173553246Y-112893212D01*
X173553254Y-112893227D01*
X173644393Y-113029625D01*
X173660226Y-113053320D01*
X173796380Y-113189474D01*
X173796383Y-113189476D01*
X173956472Y-113296445D01*
X173956474Y-113296446D01*
X173956480Y-113296450D01*
X174134374Y-113370136D01*
X174323225Y-113407700D01*
X174515775Y-113407700D01*
X174702564Y-113370546D01*
X174779527Y-113375591D01*
X174836991Y-113411324D01*
X177173259Y-115747592D01*
X177211823Y-115814387D01*
X177216900Y-115852951D01*
X177216900Y-115953283D01*
X177246033Y-116062010D01*
X177290419Y-116138887D01*
X177302315Y-116159491D01*
X177381909Y-116239085D01*
X177479391Y-116295367D01*
X177588119Y-116324500D01*
X177588121Y-116324500D01*
X177700679Y-116324500D01*
X177700681Y-116324500D01*
X177809409Y-116295367D01*
X177906891Y-116239085D01*
X177986485Y-116159491D01*
X178042767Y-116062009D01*
X178071900Y-115953281D01*
X178071900Y-115840719D01*
X178042767Y-115731991D01*
X177986485Y-115634509D01*
X177906891Y-115554915D01*
X177845394Y-115519409D01*
X177809410Y-115498633D01*
X177700683Y-115469500D01*
X177700681Y-115469500D01*
X177600351Y-115469500D01*
X177525851Y-115449538D01*
X177494992Y-115425859D01*
X175242681Y-113173548D01*
X175204117Y-113106753D01*
X175204117Y-113106216D01*
X185577500Y-113106216D01*
X185577500Y-113218783D01*
X185606633Y-113327510D01*
X185640909Y-113386876D01*
X185662915Y-113424991D01*
X185742509Y-113504585D01*
X185839991Y-113560867D01*
X185948719Y-113590000D01*
X185948721Y-113590000D01*
X186061279Y-113590000D01*
X186061281Y-113590000D01*
X186170009Y-113560867D01*
X186267491Y-113504585D01*
X186347085Y-113424991D01*
X186403367Y-113327509D01*
X186432500Y-113218781D01*
X186432500Y-113106219D01*
X186403367Y-112997491D01*
X186347085Y-112900009D01*
X186276140Y-112829064D01*
X186237577Y-112762269D01*
X186232500Y-112723706D01*
X186232500Y-102147951D01*
X186252462Y-102073451D01*
X186276141Y-102042592D01*
X190673185Y-97645548D01*
X195982666Y-92336068D01*
X196017300Y-92252453D01*
X196017300Y-92161947D01*
X196017300Y-87719766D01*
X196037262Y-87645266D01*
X196091800Y-87590728D01*
X196166300Y-87570766D01*
X196240800Y-87590728D01*
X196295338Y-87645266D01*
X196303958Y-87662747D01*
X196313346Y-87685412D01*
X196313354Y-87685427D01*
X196420323Y-87845516D01*
X196420326Y-87845520D01*
X196556480Y-87981674D01*
X196556483Y-87981676D01*
X196716572Y-88088645D01*
X196716575Y-88088647D01*
X196716580Y-88088650D01*
X196860123Y-88148107D01*
X196921309Y-88195057D01*
X196950825Y-88266313D01*
X196952100Y-88285763D01*
X196952100Y-93275649D01*
X196932138Y-93350149D01*
X196908459Y-93381008D01*
X188750136Y-101539331D01*
X188750135Y-101539331D01*
X188715500Y-101622947D01*
X188715500Y-117860906D01*
X188695538Y-117935406D01*
X188671860Y-117966264D01*
X188600916Y-118037207D01*
X188600914Y-118037210D01*
X188544633Y-118134689D01*
X188515500Y-118243416D01*
X188515500Y-118355983D01*
X188544633Y-118464710D01*
X188557907Y-118487700D01*
X188600915Y-118562191D01*
X188680509Y-118641785D01*
X188777991Y-118698067D01*
X188886719Y-118727200D01*
X188886721Y-118727200D01*
X188999279Y-118727200D01*
X188999281Y-118727200D01*
X189108009Y-118698067D01*
X189205491Y-118641785D01*
X189285085Y-118562191D01*
X189341367Y-118464709D01*
X189370500Y-118355981D01*
X189370500Y-118243419D01*
X189341367Y-118134691D01*
X189340575Y-118133320D01*
X189323225Y-118103268D01*
X189285085Y-118037209D01*
X189214140Y-117966264D01*
X189175577Y-117899469D01*
X189170500Y-117860906D01*
X189170500Y-101824151D01*
X189190462Y-101749651D01*
X189214141Y-101718792D01*
X190867895Y-100065038D01*
X196206400Y-100065038D01*
X196206400Y-101790161D01*
X196213797Y-101827346D01*
X196213799Y-101827350D01*
X196241976Y-101869520D01*
X196241978Y-101869522D01*
X196284152Y-101897702D01*
X196321342Y-101905100D01*
X196321346Y-101905100D01*
X198046454Y-101905100D01*
X198046458Y-101905100D01*
X198083648Y-101897702D01*
X198125822Y-101869522D01*
X198154002Y-101827348D01*
X198161400Y-101790158D01*
X198161400Y-100065042D01*
X198154002Y-100027852D01*
X198125822Y-99985678D01*
X198125820Y-99985676D01*
X198083650Y-99957499D01*
X198083646Y-99957497D01*
X198046461Y-99950100D01*
X198046458Y-99950100D01*
X196321342Y-99950100D01*
X196321338Y-99950100D01*
X196284153Y-99957497D01*
X196284149Y-99957499D01*
X196241979Y-99985676D01*
X196241976Y-99985679D01*
X196213799Y-100027849D01*
X196213797Y-100027853D01*
X196206400Y-100065038D01*
X190867895Y-100065038D01*
X197372464Y-93560469D01*
X197372465Y-93560468D01*
X197407100Y-93476853D01*
X197407100Y-88285763D01*
X197427062Y-88211263D01*
X197481600Y-88156725D01*
X197499059Y-88148114D01*
X197642620Y-88088650D01*
X197802720Y-87981674D01*
X197938874Y-87845520D01*
X198045850Y-87685420D01*
X198119536Y-87507526D01*
X198157100Y-87318675D01*
X198157100Y-87126125D01*
X198119536Y-86937274D01*
X198045850Y-86759380D01*
X197938874Y-86599280D01*
X197802720Y-86463126D01*
X197802716Y-86463123D01*
X197642627Y-86356154D01*
X197642621Y-86356151D01*
X197642620Y-86356150D01*
X197642617Y-86356149D01*
X197642612Y-86356146D01*
X197499081Y-86296694D01*
X197437891Y-86249742D01*
X197408375Y-86178485D01*
X197407100Y-86159036D01*
X197407100Y-85745763D01*
X197427062Y-85671263D01*
X197481600Y-85616725D01*
X197499059Y-85608114D01*
X197642620Y-85548650D01*
X197802720Y-85441674D01*
X197938874Y-85305520D01*
X198045850Y-85145420D01*
X198119536Y-84967526D01*
X198157100Y-84778675D01*
X198157100Y-84586125D01*
X198119536Y-84397274D01*
X198045850Y-84219380D01*
X197970526Y-84106651D01*
X197938876Y-84059283D01*
X197938874Y-84059280D01*
X197802720Y-83923126D01*
X197802716Y-83923123D01*
X197642627Y-83816154D01*
X197642621Y-83816151D01*
X197642620Y-83816150D01*
X197642617Y-83816149D01*
X197642612Y-83816146D01*
X197464729Y-83742465D01*
X197464723Y-83742463D01*
X197275875Y-83704900D01*
X197083325Y-83704900D01*
X196894476Y-83742463D01*
X196894470Y-83742465D01*
X196716587Y-83816146D01*
X196716572Y-83816154D01*
X196556483Y-83923123D01*
X196556476Y-83923129D01*
X196420329Y-84059276D01*
X196420323Y-84059283D01*
X196313354Y-84219372D01*
X196313349Y-84219381D01*
X196303958Y-84242054D01*
X196257005Y-84303243D01*
X196185748Y-84332758D01*
X196109279Y-84322691D01*
X196048090Y-84275738D01*
X196018575Y-84204481D01*
X196017300Y-84185033D01*
X196017300Y-83688150D01*
X196037262Y-83613650D01*
X196060937Y-83582795D01*
X196588555Y-83055176D01*
X196655348Y-83016614D01*
X196732476Y-83016614D01*
X196750931Y-83022878D01*
X196894474Y-83082336D01*
X197083325Y-83119900D01*
X197275875Y-83119900D01*
X197464726Y-83082336D01*
X197642620Y-83008650D01*
X197802720Y-82901674D01*
X197938874Y-82765520D01*
X198045850Y-82605420D01*
X198119536Y-82427526D01*
X198157100Y-82238675D01*
X198157100Y-82046125D01*
X198119536Y-81857274D01*
X198045850Y-81679380D01*
X197938874Y-81519280D01*
X197802720Y-81383126D01*
X197802716Y-81383123D01*
X197642627Y-81276154D01*
X197642621Y-81276151D01*
X197642620Y-81276150D01*
X197642617Y-81276149D01*
X197642612Y-81276146D01*
X197499081Y-81216694D01*
X197437891Y-81169742D01*
X197408375Y-81098485D01*
X197407100Y-81079036D01*
X197407100Y-80728900D01*
X197427062Y-80654400D01*
X197481600Y-80599862D01*
X197556100Y-80579900D01*
X198042154Y-80579900D01*
X198042158Y-80579900D01*
X198079348Y-80572502D01*
X198121522Y-80544322D01*
X198149702Y-80502148D01*
X198157100Y-80464958D01*
X198157100Y-78739842D01*
X198149702Y-78702652D01*
X198121522Y-78660478D01*
X198121520Y-78660476D01*
X198079350Y-78632299D01*
X198079346Y-78632297D01*
X198042161Y-78624900D01*
X198042158Y-78624900D01*
X196317042Y-78624900D01*
X196317038Y-78624900D01*
X196279853Y-78632297D01*
X196279849Y-78632299D01*
X196237679Y-78660476D01*
X196237676Y-78660479D01*
X196209499Y-78702649D01*
X196209497Y-78702653D01*
X196202100Y-78739838D01*
X196202100Y-80464961D01*
X196209497Y-80502146D01*
X196209499Y-80502150D01*
X196237676Y-80544320D01*
X196237678Y-80544322D01*
X196279852Y-80572502D01*
X196317042Y-80579900D01*
X196803100Y-80579900D01*
X196877600Y-80599862D01*
X196932138Y-80654400D01*
X196952100Y-80728900D01*
X196952100Y-81079036D01*
X196932138Y-81153536D01*
X196877600Y-81208074D01*
X196860119Y-81216694D01*
X196716587Y-81276146D01*
X196716572Y-81276154D01*
X196556483Y-81383123D01*
X196556476Y-81383129D01*
X196420329Y-81519276D01*
X196420323Y-81519283D01*
X196313354Y-81679372D01*
X196313346Y-81679387D01*
X196239665Y-81857270D01*
X196239663Y-81857276D01*
X196224822Y-81931891D01*
X196202100Y-82046125D01*
X196202100Y-82238675D01*
X196239664Y-82427526D01*
X196272232Y-82506154D01*
X196299120Y-82571067D01*
X196309186Y-82647536D01*
X196279670Y-82718792D01*
X196266820Y-82733445D01*
X195660932Y-83339335D01*
X195596936Y-83403331D01*
X195596935Y-83403331D01*
X195562300Y-83486947D01*
X195562300Y-92051248D01*
X195542338Y-92125748D01*
X195518659Y-92156607D01*
X185876132Y-101799135D01*
X185812136Y-101863131D01*
X185812135Y-101863131D01*
X185777500Y-101946747D01*
X185777500Y-112723706D01*
X185757538Y-112798206D01*
X185733860Y-112829064D01*
X185662916Y-112900007D01*
X185662914Y-112900010D01*
X185606633Y-112997489D01*
X185577500Y-113106216D01*
X175204117Y-113106216D01*
X175204117Y-113029625D01*
X175224149Y-112985410D01*
X175285750Y-112893220D01*
X175359436Y-112715326D01*
X175397000Y-112526475D01*
X175397000Y-112333925D01*
X175359436Y-112145074D01*
X175299978Y-112001531D01*
X175289912Y-111925063D01*
X175319428Y-111853806D01*
X175332270Y-111839161D01*
X190626465Y-96544968D01*
X190638826Y-96515126D01*
X190661100Y-96461353D01*
X190661100Y-88998347D01*
X190657294Y-88989157D01*
X190647492Y-88965494D01*
X190647491Y-88965492D01*
X190626466Y-88914732D01*
X190151046Y-88439312D01*
X190112482Y-88372517D01*
X190112482Y-88295389D01*
X190118742Y-88276946D01*
X190188014Y-88109710D01*
X190227500Y-87911199D01*
X190227500Y-87708799D01*
X190188014Y-87510288D01*
X190110559Y-87323295D01*
X190110558Y-87323293D01*
X190110556Y-87323289D01*
X190042907Y-87222046D01*
X189998112Y-87155006D01*
X189854993Y-87011887D01*
X189794364Y-86971376D01*
X189686709Y-86899442D01*
X189686696Y-86899436D01*
X189499712Y-86821985D01*
X189499708Y-86821984D01*
X189301200Y-86782499D01*
X189098800Y-86782499D01*
X188900291Y-86821984D01*
X188900287Y-86821985D01*
X188713303Y-86899436D01*
X188713290Y-86899442D01*
X188545008Y-87011886D01*
X188545003Y-87011890D01*
X188401891Y-87155002D01*
X188401887Y-87155007D01*
X188289443Y-87323289D01*
X188289437Y-87323302D01*
X188211986Y-87510286D01*
X188211985Y-87510290D01*
X188172500Y-87708798D01*
X188172500Y-87911199D01*
X188211985Y-88109707D01*
X188211986Y-88109711D01*
X188289437Y-88296695D01*
X188289443Y-88296708D01*
X188340098Y-88372517D01*
X188401888Y-88464992D01*
X188545007Y-88608111D01*
X188605636Y-88648622D01*
X188713290Y-88720555D01*
X188713294Y-88720557D01*
X188713296Y-88720558D01*
X188900289Y-88798013D01*
X189098800Y-88837499D01*
X189301200Y-88837499D01*
X189499711Y-88798013D01*
X189666934Y-88728746D01*
X189743401Y-88718680D01*
X189814658Y-88748195D01*
X189829312Y-88761046D01*
X190162459Y-89094192D01*
X190201023Y-89160987D01*
X190206100Y-89199551D01*
X190206100Y-96260148D01*
X190186138Y-96334648D01*
X190162459Y-96365507D01*
X175010545Y-111517420D01*
X174943750Y-111555984D01*
X174866622Y-111555984D01*
X174848167Y-111549720D01*
X174770186Y-111517420D01*
X174704626Y-111490264D01*
X174704622Y-111490263D01*
X174515775Y-111452700D01*
X174323225Y-111452700D01*
X174134376Y-111490263D01*
X174134370Y-111490265D01*
X173990832Y-111549720D01*
X173914364Y-111559787D01*
X173843107Y-111530271D01*
X173828454Y-111517421D01*
X162869441Y-100558408D01*
X162830877Y-100491613D01*
X162825800Y-100453049D01*
X162825800Y-91188622D01*
X162845762Y-91114122D01*
X162900300Y-91059584D01*
X162974800Y-91039622D01*
X163049300Y-91059584D01*
X163080159Y-91083263D01*
X163145007Y-91148111D01*
X163205636Y-91188622D01*
X163313290Y-91260555D01*
X163313294Y-91260557D01*
X163313296Y-91260558D01*
X163500289Y-91338013D01*
X163698800Y-91377499D01*
X163901200Y-91377499D01*
X164099711Y-91338013D01*
X164286704Y-91260558D01*
X164286707Y-91260555D01*
X164286709Y-91260555D01*
X164320911Y-91237701D01*
X164454993Y-91148111D01*
X164598112Y-91004992D01*
X164710559Y-90836703D01*
X164788014Y-90649710D01*
X164827500Y-90451199D01*
X164827500Y-90248799D01*
X164788014Y-90050288D01*
X164710559Y-89863295D01*
X164710558Y-89863293D01*
X164710556Y-89863289D01*
X164623330Y-89732748D01*
X164598112Y-89695006D01*
X164454993Y-89551887D01*
X164394364Y-89511376D01*
X164286709Y-89439442D01*
X164286696Y-89439436D01*
X164099712Y-89361985D01*
X164099708Y-89361984D01*
X163901200Y-89322499D01*
X163698800Y-89322499D01*
X163500291Y-89361984D01*
X163500287Y-89361985D01*
X163313303Y-89439436D01*
X163313290Y-89439442D01*
X163145008Y-89551886D01*
X163145003Y-89551890D01*
X163080159Y-89616735D01*
X163013364Y-89655299D01*
X162936236Y-89655299D01*
X162869441Y-89616735D01*
X162830877Y-89549940D01*
X162825800Y-89511376D01*
X162825800Y-88648622D01*
X162845762Y-88574122D01*
X162900300Y-88519584D01*
X162974800Y-88499622D01*
X163049300Y-88519584D01*
X163080159Y-88543263D01*
X163145007Y-88608111D01*
X163205636Y-88648622D01*
X163313290Y-88720555D01*
X163313294Y-88720557D01*
X163313296Y-88720558D01*
X163500289Y-88798013D01*
X163698800Y-88837499D01*
X163901200Y-88837499D01*
X164099711Y-88798013D01*
X164286704Y-88720558D01*
X164286707Y-88720555D01*
X164286709Y-88720555D01*
X164347921Y-88679654D01*
X164454993Y-88608111D01*
X164598112Y-88464992D01*
X164691738Y-88324870D01*
X164710556Y-88296708D01*
X164710556Y-88296706D01*
X164710559Y-88296703D01*
X164788014Y-88109710D01*
X164827500Y-87911199D01*
X164827500Y-87708799D01*
X164788014Y-87510288D01*
X164710559Y-87323295D01*
X164710558Y-87323293D01*
X164710556Y-87323289D01*
X164642907Y-87222046D01*
X164598112Y-87155006D01*
X164454993Y-87011887D01*
X164394364Y-86971376D01*
X164286709Y-86899442D01*
X164286696Y-86899436D01*
X164099712Y-86821985D01*
X164099708Y-86821984D01*
X163901200Y-86782499D01*
X163698800Y-86782499D01*
X163500291Y-86821984D01*
X163500287Y-86821985D01*
X163313303Y-86899436D01*
X163313290Y-86899442D01*
X163145008Y-87011886D01*
X163145003Y-87011890D01*
X163080159Y-87076735D01*
X163013364Y-87115299D01*
X162936236Y-87115299D01*
X162869441Y-87076735D01*
X162830877Y-87009940D01*
X162825800Y-86971376D01*
X162825800Y-86108622D01*
X162845762Y-86034122D01*
X162900300Y-85979584D01*
X162974800Y-85959622D01*
X163049300Y-85979584D01*
X163080159Y-86003263D01*
X163145007Y-86068111D01*
X163205636Y-86108622D01*
X163313290Y-86180555D01*
X163313294Y-86180557D01*
X163313296Y-86180558D01*
X163500289Y-86258013D01*
X163698800Y-86297499D01*
X163901200Y-86297499D01*
X164099711Y-86258013D01*
X164286704Y-86180558D01*
X164286707Y-86180555D01*
X164286709Y-86180555D01*
X164320911Y-86157701D01*
X164454993Y-86068111D01*
X164598112Y-85924992D01*
X164710559Y-85756703D01*
X164788014Y-85569710D01*
X164827500Y-85371199D01*
X164827500Y-85168799D01*
X164827500Y-85168798D01*
X188172500Y-85168798D01*
X188172500Y-85371199D01*
X188211985Y-85569707D01*
X188211986Y-85569711D01*
X188289437Y-85756695D01*
X188289443Y-85756708D01*
X188379337Y-85891242D01*
X188401888Y-85924992D01*
X188545007Y-86068111D01*
X188605636Y-86108622D01*
X188713290Y-86180555D01*
X188713294Y-86180557D01*
X188713296Y-86180558D01*
X188900289Y-86258013D01*
X189098800Y-86297499D01*
X189301200Y-86297499D01*
X189499711Y-86258013D01*
X189686704Y-86180558D01*
X189686707Y-86180555D01*
X189686709Y-86180555D01*
X189720911Y-86157701D01*
X189854993Y-86068111D01*
X189998112Y-85924992D01*
X190110559Y-85756703D01*
X190188014Y-85569710D01*
X190227500Y-85371199D01*
X190227500Y-85168799D01*
X190188014Y-84970288D01*
X190110559Y-84783295D01*
X190110558Y-84783293D01*
X190110556Y-84783289D01*
X190042907Y-84682046D01*
X189998112Y-84615006D01*
X189854993Y-84471887D01*
X189794364Y-84431376D01*
X189686709Y-84359442D01*
X189686696Y-84359436D01*
X189499712Y-84281985D01*
X189499708Y-84281984D01*
X189301200Y-84242499D01*
X189098800Y-84242499D01*
X188900291Y-84281984D01*
X188900287Y-84281985D01*
X188713303Y-84359436D01*
X188713290Y-84359442D01*
X188545008Y-84471886D01*
X188545003Y-84471890D01*
X188401891Y-84615002D01*
X188401887Y-84615007D01*
X188289443Y-84783289D01*
X188289437Y-84783302D01*
X188211986Y-84970286D01*
X188211985Y-84970290D01*
X188172500Y-85168798D01*
X164827500Y-85168798D01*
X164788014Y-84970288D01*
X164710559Y-84783295D01*
X164710558Y-84783293D01*
X164710556Y-84783289D01*
X164642907Y-84682046D01*
X164598112Y-84615006D01*
X164454993Y-84471887D01*
X164394364Y-84431376D01*
X164286709Y-84359442D01*
X164286696Y-84359436D01*
X164099712Y-84281985D01*
X164099708Y-84281984D01*
X163901200Y-84242499D01*
X163698800Y-84242499D01*
X163500291Y-84281984D01*
X163500287Y-84281985D01*
X163313303Y-84359436D01*
X163313290Y-84359442D01*
X163145008Y-84471886D01*
X163145003Y-84471890D01*
X163080159Y-84536735D01*
X163013364Y-84575299D01*
X162936236Y-84575299D01*
X162869441Y-84536735D01*
X162830877Y-84469940D01*
X162825800Y-84431376D01*
X162825800Y-83568623D01*
X162845762Y-83494123D01*
X162900300Y-83439585D01*
X162974800Y-83419623D01*
X163049300Y-83439585D01*
X163080159Y-83463264D01*
X163145007Y-83528112D01*
X163176767Y-83549333D01*
X163313290Y-83640556D01*
X163313294Y-83640558D01*
X163313296Y-83640559D01*
X163500289Y-83718014D01*
X163698800Y-83757500D01*
X163901200Y-83757500D01*
X164099711Y-83718014D01*
X164286704Y-83640559D01*
X164286707Y-83640556D01*
X164286709Y-83640556D01*
X164330866Y-83611051D01*
X164454993Y-83528112D01*
X164598112Y-83384993D01*
X164710559Y-83216704D01*
X164788014Y-83029711D01*
X164827500Y-82831200D01*
X164827500Y-82628800D01*
X164827500Y-82628799D01*
X188172500Y-82628799D01*
X188172500Y-82831200D01*
X188211985Y-83029708D01*
X188211986Y-83029712D01*
X188289437Y-83216696D01*
X188289443Y-83216709D01*
X188362625Y-83326232D01*
X188401888Y-83384993D01*
X188545007Y-83528112D01*
X188576767Y-83549333D01*
X188713290Y-83640556D01*
X188713294Y-83640558D01*
X188713296Y-83640559D01*
X188900289Y-83718014D01*
X189098800Y-83757500D01*
X189301200Y-83757500D01*
X189499711Y-83718014D01*
X189686704Y-83640559D01*
X189686707Y-83640556D01*
X189686709Y-83640556D01*
X189730866Y-83611051D01*
X189854993Y-83528112D01*
X189998112Y-83384993D01*
X190110559Y-83216704D01*
X190188014Y-83029711D01*
X190227500Y-82831200D01*
X190227500Y-82628800D01*
X190222849Y-82605420D01*
X190212323Y-82552500D01*
X190188014Y-82430289D01*
X190110559Y-82243296D01*
X190110558Y-82243294D01*
X190110556Y-82243290D01*
X190042907Y-82142047D01*
X189998112Y-82075007D01*
X189854993Y-81931888D01*
X189792194Y-81889927D01*
X189686709Y-81819443D01*
X189686696Y-81819437D01*
X189499712Y-81741986D01*
X189499708Y-81741985D01*
X189301200Y-81702500D01*
X189098800Y-81702500D01*
X188900291Y-81741985D01*
X188900287Y-81741986D01*
X188713303Y-81819437D01*
X188713290Y-81819443D01*
X188545008Y-81931887D01*
X188545003Y-81931891D01*
X188401891Y-82075003D01*
X188401887Y-82075008D01*
X188289443Y-82243290D01*
X188289437Y-82243303D01*
X188211986Y-82430287D01*
X188211985Y-82430291D01*
X188172500Y-82628799D01*
X164827500Y-82628799D01*
X164822849Y-82605420D01*
X164812323Y-82552500D01*
X164788014Y-82430289D01*
X164710559Y-82243296D01*
X164710558Y-82243294D01*
X164710556Y-82243290D01*
X164642907Y-82142047D01*
X164598112Y-82075007D01*
X164454993Y-81931888D01*
X164392194Y-81889927D01*
X164286709Y-81819443D01*
X164286696Y-81819437D01*
X164099712Y-81741986D01*
X164099708Y-81741985D01*
X163901200Y-81702500D01*
X163698800Y-81702500D01*
X163500291Y-81741985D01*
X163500287Y-81741986D01*
X163313303Y-81819437D01*
X163313290Y-81819443D01*
X163145008Y-81931887D01*
X163145003Y-81931891D01*
X163080159Y-81996736D01*
X163013364Y-82035300D01*
X162936236Y-82035300D01*
X162869441Y-81996736D01*
X162830877Y-81929941D01*
X162825800Y-81891377D01*
X162825800Y-81028622D01*
X162845762Y-80954122D01*
X162900300Y-80899584D01*
X162974800Y-80879622D01*
X163049300Y-80899584D01*
X163080159Y-80923263D01*
X163145007Y-80988111D01*
X163205636Y-81028622D01*
X163313290Y-81100555D01*
X163313294Y-81100557D01*
X163313296Y-81100558D01*
X163500289Y-81178013D01*
X163698800Y-81217499D01*
X163901200Y-81217499D01*
X164099711Y-81178013D01*
X164286704Y-81100558D01*
X164286707Y-81100555D01*
X164286709Y-81100555D01*
X164320911Y-81077701D01*
X164454993Y-80988111D01*
X164598112Y-80844992D01*
X164710559Y-80676703D01*
X164788014Y-80489710D01*
X164827500Y-80291199D01*
X164827500Y-80088799D01*
X164827500Y-80088798D01*
X188172500Y-80088798D01*
X188172500Y-80291199D01*
X188211985Y-80489707D01*
X188211986Y-80489711D01*
X188289437Y-80676695D01*
X188289443Y-80676708D01*
X188379337Y-80811242D01*
X188401888Y-80844992D01*
X188545007Y-80988111D01*
X188605636Y-81028622D01*
X188713290Y-81100555D01*
X188713294Y-81100557D01*
X188713296Y-81100558D01*
X188900289Y-81178013D01*
X189098800Y-81217499D01*
X189301200Y-81217499D01*
X189499711Y-81178013D01*
X189686704Y-81100558D01*
X189686707Y-81100555D01*
X189686709Y-81100555D01*
X189720911Y-81077701D01*
X189854993Y-80988111D01*
X189998112Y-80844992D01*
X190110559Y-80676703D01*
X190188014Y-80489710D01*
X190227500Y-80291199D01*
X190227500Y-80088799D01*
X190188014Y-79890288D01*
X190110559Y-79703295D01*
X190110558Y-79703293D01*
X190110556Y-79703289D01*
X190042907Y-79602046D01*
X189998112Y-79535006D01*
X189854993Y-79391887D01*
X189794364Y-79351376D01*
X189686709Y-79279442D01*
X189686696Y-79279436D01*
X189499712Y-79201985D01*
X189499708Y-79201984D01*
X189301200Y-79162499D01*
X189098800Y-79162499D01*
X188900291Y-79201984D01*
X188900287Y-79201985D01*
X188713303Y-79279436D01*
X188713290Y-79279442D01*
X188545008Y-79391886D01*
X188545003Y-79391890D01*
X188401891Y-79535002D01*
X188401887Y-79535007D01*
X188289443Y-79703289D01*
X188289437Y-79703302D01*
X188211986Y-79890286D01*
X188211985Y-79890290D01*
X188172500Y-80088798D01*
X164827500Y-80088798D01*
X164788014Y-79890288D01*
X164710559Y-79703295D01*
X164710558Y-79703293D01*
X164710556Y-79703289D01*
X164642907Y-79602046D01*
X164598112Y-79535006D01*
X164454993Y-79391887D01*
X164394364Y-79351376D01*
X164286709Y-79279442D01*
X164286696Y-79279436D01*
X164099712Y-79201985D01*
X164099708Y-79201984D01*
X163901200Y-79162499D01*
X163698800Y-79162499D01*
X163500291Y-79201984D01*
X163500287Y-79201985D01*
X163313303Y-79279436D01*
X163313290Y-79279442D01*
X163145008Y-79391886D01*
X163145003Y-79391890D01*
X163080159Y-79456735D01*
X163013364Y-79495299D01*
X162936236Y-79495299D01*
X162869441Y-79456735D01*
X162830877Y-79389940D01*
X162825800Y-79351376D01*
X162825800Y-78776848D01*
X162825800Y-78776847D01*
X162810472Y-78739842D01*
X162810471Y-78739840D01*
X162810471Y-78739837D01*
X162791167Y-78693234D01*
X162791166Y-78693232D01*
X161646733Y-77548799D01*
X162772500Y-77548799D01*
X162772500Y-77751200D01*
X162811985Y-77949708D01*
X162811986Y-77949712D01*
X162889437Y-78136696D01*
X162889443Y-78136709D01*
X162979337Y-78271243D01*
X163001888Y-78304993D01*
X163145007Y-78448112D01*
X163212047Y-78492907D01*
X163313290Y-78560556D01*
X163313294Y-78560558D01*
X163313296Y-78560559D01*
X163500289Y-78638014D01*
X163698800Y-78677500D01*
X163901200Y-78677500D01*
X164099711Y-78638014D01*
X164286704Y-78560559D01*
X164286707Y-78560556D01*
X164286709Y-78560556D01*
X164320911Y-78537702D01*
X164454993Y-78448112D01*
X164598112Y-78304993D01*
X164710559Y-78136704D01*
X164788014Y-77949711D01*
X164827500Y-77751200D01*
X164827500Y-77548800D01*
X164827500Y-77548799D01*
X188172500Y-77548799D01*
X188172500Y-77751200D01*
X188211985Y-77949708D01*
X188211986Y-77949712D01*
X188289437Y-78136696D01*
X188289443Y-78136709D01*
X188379337Y-78271243D01*
X188401888Y-78304993D01*
X188545007Y-78448112D01*
X188612047Y-78492907D01*
X188713290Y-78560556D01*
X188713294Y-78560558D01*
X188713296Y-78560559D01*
X188900289Y-78638014D01*
X189098800Y-78677500D01*
X189301200Y-78677500D01*
X189499711Y-78638014D01*
X189686704Y-78560559D01*
X189686707Y-78560556D01*
X189686709Y-78560556D01*
X189720911Y-78537702D01*
X189854993Y-78448112D01*
X189998112Y-78304993D01*
X190110559Y-78136704D01*
X190188014Y-77949711D01*
X190227500Y-77751200D01*
X190227500Y-77548800D01*
X190188014Y-77350289D01*
X190110559Y-77163296D01*
X190110558Y-77163294D01*
X190110556Y-77163290D01*
X190042907Y-77062047D01*
X189998112Y-76995007D01*
X189854993Y-76851888D01*
X189821243Y-76829337D01*
X189686709Y-76739443D01*
X189686696Y-76739437D01*
X189499712Y-76661986D01*
X189499708Y-76661985D01*
X189301200Y-76622500D01*
X189098800Y-76622500D01*
X188900291Y-76661985D01*
X188900287Y-76661986D01*
X188713303Y-76739437D01*
X188713290Y-76739443D01*
X188545008Y-76851887D01*
X188545003Y-76851891D01*
X188401891Y-76995003D01*
X188401887Y-76995008D01*
X188289443Y-77163290D01*
X188289437Y-77163303D01*
X188211986Y-77350287D01*
X188211985Y-77350291D01*
X188172500Y-77548799D01*
X164827500Y-77548799D01*
X164788014Y-77350289D01*
X164710559Y-77163296D01*
X164710558Y-77163294D01*
X164710556Y-77163290D01*
X164642907Y-77062047D01*
X164598112Y-76995007D01*
X164454993Y-76851888D01*
X164421243Y-76829337D01*
X164286709Y-76739443D01*
X164286696Y-76739437D01*
X164099712Y-76661986D01*
X164099708Y-76661985D01*
X163901200Y-76622500D01*
X163698800Y-76622500D01*
X163500291Y-76661985D01*
X163500287Y-76661986D01*
X163313303Y-76739437D01*
X163313290Y-76739443D01*
X163145008Y-76851887D01*
X163145003Y-76851891D01*
X163001891Y-76995003D01*
X163001887Y-76995008D01*
X162889443Y-77163290D01*
X162889437Y-77163303D01*
X162811986Y-77350287D01*
X162811985Y-77350291D01*
X162772500Y-77548799D01*
X161646733Y-77548799D01*
X159204772Y-75106838D01*
X159106732Y-75008798D01*
X188172500Y-75008798D01*
X188172500Y-75211199D01*
X188211985Y-75409707D01*
X188211986Y-75409711D01*
X188289437Y-75596695D01*
X188289443Y-75596708D01*
X188379337Y-75731242D01*
X188401888Y-75764992D01*
X188545007Y-75908111D01*
X188612047Y-75952906D01*
X188713290Y-76020555D01*
X188713294Y-76020557D01*
X188713296Y-76020558D01*
X188900289Y-76098013D01*
X189098800Y-76137499D01*
X189301200Y-76137499D01*
X189499711Y-76098013D01*
X189686704Y-76020558D01*
X189686707Y-76020555D01*
X189686709Y-76020555D01*
X189720911Y-75997701D01*
X189854993Y-75908111D01*
X189998112Y-75764992D01*
X190110559Y-75596703D01*
X190188014Y-75409710D01*
X190227500Y-75211199D01*
X190227500Y-75008799D01*
X190188014Y-74810288D01*
X190110559Y-74623295D01*
X190110558Y-74623293D01*
X190110556Y-74623289D01*
X190037829Y-74514447D01*
X189998112Y-74455006D01*
X189854993Y-74311887D01*
X189811428Y-74282778D01*
X189686709Y-74199442D01*
X189686696Y-74199436D01*
X189499712Y-74121985D01*
X189499708Y-74121984D01*
X189301200Y-74082499D01*
X189098800Y-74082499D01*
X188900291Y-74121984D01*
X188900287Y-74121985D01*
X188713303Y-74199436D01*
X188713290Y-74199442D01*
X188545008Y-74311886D01*
X188545003Y-74311890D01*
X188401891Y-74455002D01*
X188401887Y-74455007D01*
X188289443Y-74623289D01*
X188289437Y-74623302D01*
X188211986Y-74810286D01*
X188211985Y-74810290D01*
X188172500Y-75008798D01*
X159106732Y-75008798D01*
X153619792Y-69521859D01*
X153581228Y-69455064D01*
X153581228Y-69377936D01*
X153619792Y-69311141D01*
X153686587Y-69272577D01*
X153725151Y-69267500D01*
X153792554Y-69267500D01*
X153792558Y-69267500D01*
X153829748Y-69260102D01*
X153871922Y-69231922D01*
X153900102Y-69189748D01*
X153907500Y-69152558D01*
X153907500Y-68878706D01*
X199149500Y-68878706D01*
X199149500Y-69121293D01*
X199181160Y-69361781D01*
X199243947Y-69596103D01*
X199336778Y-69820216D01*
X199417634Y-69960263D01*
X199458064Y-70030289D01*
X199605735Y-70222738D01*
X199777262Y-70394265D01*
X199969711Y-70541936D01*
X200179788Y-70663224D01*
X200403900Y-70756054D01*
X200638211Y-70818838D01*
X200638217Y-70818838D01*
X200638218Y-70818839D01*
X200703600Y-70827446D01*
X200878712Y-70850500D01*
X201121288Y-70850500D01*
X201361789Y-70818838D01*
X201596100Y-70756054D01*
X201820212Y-70663224D01*
X202030289Y-70541936D01*
X202222738Y-70394265D01*
X202394265Y-70222738D01*
X202541936Y-70030289D01*
X202663224Y-69820212D01*
X202756054Y-69596100D01*
X202818838Y-69361789D01*
X202850500Y-69121288D01*
X202850500Y-68878712D01*
X202818838Y-68638211D01*
X202756054Y-68403900D01*
X202663224Y-68179788D01*
X202541936Y-67969711D01*
X202394265Y-67777262D01*
X202222738Y-67605735D01*
X202030289Y-67458064D01*
X201912830Y-67390249D01*
X201820216Y-67336778D01*
X201820214Y-67336777D01*
X201820212Y-67336776D01*
X201688932Y-67282398D01*
X201596103Y-67243947D01*
X201596101Y-67243946D01*
X201596100Y-67243946D01*
X201361789Y-67181162D01*
X201361787Y-67181161D01*
X201361781Y-67181160D01*
X201121293Y-67149500D01*
X201121288Y-67149500D01*
X200878712Y-67149500D01*
X200878706Y-67149500D01*
X200638218Y-67181160D01*
X200403896Y-67243947D01*
X200179783Y-67336778D01*
X199969712Y-67458063D01*
X199969708Y-67458066D01*
X199777262Y-67605735D01*
X199777260Y-67605736D01*
X199777256Y-67605740D01*
X199605740Y-67777256D01*
X199458063Y-67969712D01*
X199336778Y-68179783D01*
X199243947Y-68403896D01*
X199181160Y-68638218D01*
X199149500Y-68878706D01*
X153907500Y-68878706D01*
X153907500Y-67427442D01*
X153900102Y-67390252D01*
X153871922Y-67348078D01*
X153871920Y-67348076D01*
X153829750Y-67319899D01*
X153829746Y-67319897D01*
X153792561Y-67312500D01*
X153792558Y-67312500D01*
X152067442Y-67312500D01*
X152067438Y-67312500D01*
X152030253Y-67319897D01*
X152030249Y-67319899D01*
X151988079Y-67348076D01*
X151988076Y-67348079D01*
X151959899Y-67390249D01*
X151959897Y-67390253D01*
X151952500Y-67427438D01*
X124977244Y-67427438D01*
X124820216Y-67336778D01*
X124820214Y-67336777D01*
X124820212Y-67336776D01*
X124688932Y-67282398D01*
X124596103Y-67243947D01*
X124596101Y-67243946D01*
X124596100Y-67243946D01*
X124361789Y-67181162D01*
X124361787Y-67181161D01*
X124361781Y-67181160D01*
X124121293Y-67149500D01*
X124121288Y-67149500D01*
X123878712Y-67149500D01*
X123878706Y-67149500D01*
X123638218Y-67181160D01*
X123403896Y-67243947D01*
X123179783Y-67336778D01*
X122969712Y-67458063D01*
X122969708Y-67458066D01*
X122777262Y-67605735D01*
X122777260Y-67605736D01*
X122777256Y-67605740D01*
X122605740Y-67777256D01*
X122458063Y-67969712D01*
X122336778Y-68179783D01*
X122243947Y-68403896D01*
X122181160Y-68638218D01*
X122149500Y-68878706D01*
X120500500Y-68878706D01*
X120500500Y-65649500D01*
X120520462Y-65575000D01*
X120575000Y-65520462D01*
X120649500Y-65500500D01*
X204350500Y-65500500D01*
X204425000Y-65520462D01*
G37*
%TD.AperFunction*%
%TD*%
M02*
