M48
; DRILL file KiCad 10.0.6 date 2026-09-24T23:40:13
; FORMAT={-:-/ absolute / metric / decimal}
; #@! TF.CreationDate,2026-09-24T23:40:13-03:00
; #@! TF.GenerationSoftware,Kicad,Pcbnew,10.0.6
; #@! TF.FileFunction,MixedPlating,1,2
FMAT,2
METRIC
; #@! TA.AperFunction,Plated,PTH,ViaDrill
T1C0.300
; #@! TA.AperFunction,Plated,PTH,ViaDrill
T2C0.400
; #@! TA.AperFunction,Plated,PTH,ComponentDrill
T3C1.000
; #@! TA.AperFunction,NonPlated,NPTH,ComponentDrill
T4C3.200
%
G90
G05
T1
X136.42Y-108.267
X149.822Y-94.505
X152.964Y-116.796
X153.803Y-116.867
X156.625Y-87.87
X157.39Y-111.302
X158.226Y-82.806
X158.703Y-108.166
X159.563Y-112.805
X161.767Y-113.175
X165.484Y-104.855
X165.875Y-115.424
X167.307Y-120.024
X168.17Y-121.11
X170.309Y-114.347
X171.068Y-125.466
X176.23Y-122.896
X177.644Y-115.897
X182.21Y-128.497
X185.128Y-116.864
X186.005Y-113.162
X188.943Y-118.3
T2
X121.0Y-67.0
X121.0Y-73.0
X121.0Y-79.0
X121.0Y-85.0
X121.0Y-91.0
X121.0Y-97.0
X121.0Y-103.0
X121.0Y-109.0
X121.0Y-115.0
X121.0Y-121.0
X121.0Y-127.0
X121.0Y-133.0
X122.5Y-76.0
X122.5Y-82.0
X122.5Y-88.0
X122.5Y-94.0
X122.5Y-100.0
X122.5Y-106.0
X122.5Y-112.0
X122.5Y-118.0
X122.5Y-124.0
X124.0Y-73.0
X124.0Y-79.0
X124.0Y-85.0
X124.0Y-91.0
X124.0Y-97.0
X124.0Y-103.0
X124.0Y-109.0
X124.0Y-115.0
X124.0Y-121.0
X124.0Y-127.0
X125.5Y-76.0
X125.5Y-82.0
X125.5Y-88.0
X125.5Y-94.0
X125.5Y-100.0
X125.5Y-106.0
X125.5Y-112.0
X125.5Y-118.0
X125.5Y-124.0
X127.0Y-67.0
X127.0Y-85.0
X127.0Y-91.0
X127.0Y-97.0
X127.0Y-103.0
X127.0Y-109.0
X127.0Y-115.0
X127.0Y-121.0
X127.0Y-127.0
X127.0Y-133.0
X128.5Y-100.0
X128.5Y-106.0
X128.5Y-112.0
X128.5Y-118.0
X128.5Y-124.0
X128.5Y-130.0
X130.0Y-121.0
X130.0Y-133.0
X131.5Y-118.0
X131.5Y-130.0
X133.0Y-67.0
X133.0Y-79.0
X133.0Y-91.0
X133.0Y-109.0
X133.0Y-115.0
X133.0Y-121.0
X133.0Y-127.0
X133.0Y-133.0
X134.5Y-70.0
X134.5Y-82.0
X134.5Y-94.0
X134.5Y-118.0
X134.5Y-124.0
X134.5Y-130.0
X136.0Y-67.0
X136.0Y-73.0
X136.0Y-79.0
X136.0Y-91.0
X136.0Y-103.0
X136.0Y-127.0
X136.0Y-133.0
X137.5Y-70.0
X137.5Y-76.0
X137.5Y-82.0
X137.5Y-94.0
X137.5Y-100.0
X137.5Y-118.0
X137.5Y-124.0
X137.5Y-130.0
X139.0Y-67.0
X139.0Y-73.0
X139.0Y-91.0
X139.0Y-109.0
X139.0Y-121.0
X139.0Y-127.0
X139.0Y-133.0
X140.5Y-70.0
X140.5Y-76.0
X140.5Y-82.0
X140.5Y-94.0
X140.5Y-100.0
X140.5Y-112.0
X140.5Y-118.0
X140.5Y-124.0
X140.5Y-130.0
X142.0Y-67.0
X142.0Y-73.0
X142.0Y-91.0
X142.0Y-103.0
X142.0Y-109.0
X142.0Y-121.0
X142.0Y-127.0
X142.0Y-133.0
X143.5Y-70.0
X143.5Y-76.0
X143.5Y-82.0
X143.5Y-94.0
X143.5Y-100.0
X143.5Y-106.0
X143.5Y-118.0
X143.5Y-124.0
X143.5Y-130.0
X145.0Y-67.0
X145.0Y-73.0
X145.0Y-91.0
X145.0Y-103.0
X145.0Y-121.0
X145.0Y-127.0
X145.0Y-133.0
X146.5Y-70.0
X146.5Y-76.0
X146.5Y-82.0
X146.5Y-94.0
X146.5Y-100.0
X146.5Y-106.0
X146.5Y-118.0
X146.5Y-124.0
X146.5Y-130.0
X148.0Y-67.0
X148.0Y-73.0
X148.0Y-91.0
X148.0Y-103.0
X148.0Y-109.0
X148.0Y-121.0
X148.0Y-127.0
X148.0Y-133.0
X149.5Y-70.0
X149.5Y-76.0
X149.5Y-82.0
X149.5Y-124.0
X149.5Y-130.0
X151.0Y-67.0
X151.0Y-73.0
X151.0Y-121.0
X151.0Y-127.0
X151.0Y-133.0
X152.5Y-124.0
X152.5Y-130.0
X154.0Y-121.0
X154.0Y-133.0
X155.5Y-70.0
X155.5Y-76.0
X155.5Y-94.0
X155.5Y-106.0
X155.5Y-112.0
X155.5Y-118.0
X155.5Y-130.0
X157.0Y-67.0
X157.0Y-91.0
X157.0Y-109.0
X157.0Y-133.0
X158.5Y-70.0
X158.5Y-76.0
X158.5Y-106.0
X158.5Y-112.0
X160.0Y-67.0
X160.0Y-73.0
X160.0Y-79.0
X160.0Y-97.0
X160.0Y-109.0
X160.0Y-127.0
X160.0Y-133.0
X161.5Y-70.0
X161.5Y-76.0
X161.5Y-94.0
X163.0Y-67.0
X163.0Y-73.0
X163.0Y-133.0
X164.5Y-70.0
X164.5Y-100.0
X164.5Y-118.0
X164.7Y-112.5
X164.7Y-119.7
X166.0Y-67.0
X166.0Y-73.0
X166.0Y-79.0
X166.0Y-85.0
X166.0Y-97.0
X166.0Y-133.0
X167.5Y-70.0
X167.5Y-76.0
X167.5Y-88.0
X167.5Y-94.0
X167.5Y-100.0
X168.3Y-119.7
X168.9Y-123.3
X169.0Y-67.0
X169.0Y-73.0
X169.0Y-79.0
X169.0Y-85.0
X169.0Y-97.0
X169.0Y-103.0
X169.0Y-133.0
X170.5Y-70.0
X170.5Y-76.0
X170.5Y-88.0
X170.5Y-94.0
X170.5Y-100.0
X170.5Y-106.0
X172.0Y-67.0
X172.0Y-73.0
X172.0Y-79.0
X172.0Y-85.0
X172.0Y-97.0
X172.0Y-103.0
X172.0Y-133.0
X173.5Y-70.0
X173.5Y-76.0
X173.5Y-88.0
X173.5Y-94.0
X173.5Y-100.0
X173.5Y-106.0
X175.0Y-67.0
X175.0Y-73.0
X175.0Y-79.0
X175.0Y-85.0
X175.0Y-97.0
X175.0Y-103.0
X175.0Y-133.0
X176.5Y-70.0
X176.5Y-76.0
X176.5Y-88.0
X176.5Y-94.0
X176.5Y-100.0
X176.5Y-106.0
X176.5Y-112.0
X176.5Y-124.0
X178.0Y-67.0
X178.0Y-73.0
X178.0Y-79.0
X178.0Y-85.0
X178.0Y-97.0
X178.0Y-103.0
X178.0Y-115.0
X178.0Y-133.0
X179.5Y-70.0
X179.5Y-76.0
X179.5Y-88.0
X179.5Y-94.0
X179.5Y-100.0
X179.5Y-106.0
X181.0Y-67.0
X181.0Y-73.0
X181.0Y-79.0
X181.0Y-85.0
X181.0Y-97.0
X181.0Y-103.0
X181.0Y-109.0
X181.0Y-115.0
X181.0Y-133.0
X182.5Y-70.0
X182.5Y-76.0
X182.5Y-88.0
X182.5Y-94.0
X182.5Y-100.0
X182.5Y-106.0
X182.5Y-124.0
X184.0Y-67.0
X184.0Y-73.0
X184.0Y-79.0
X184.0Y-85.0
X184.0Y-97.0
X184.0Y-109.0
X184.0Y-115.0
X184.0Y-133.0
X185.5Y-70.0
X185.5Y-76.0
X185.5Y-94.0
X185.5Y-100.0
X187.0Y-67.0
X187.0Y-73.0
X187.0Y-79.0
X187.0Y-85.0
X187.0Y-91.0
X187.0Y-97.0
X187.0Y-103.0
X187.0Y-109.0
X187.0Y-133.0
X188.5Y-70.0
X190.0Y-67.0
X190.0Y-73.0
X190.0Y-103.0
X190.0Y-109.0
X190.0Y-115.0
X190.0Y-133.0
X191.5Y-70.0
X191.5Y-76.0
X191.5Y-88.0
X191.5Y-94.0
X191.5Y-106.0
X191.5Y-112.0
X191.5Y-118.0
X191.5Y-124.0
X193.0Y-67.0
X193.0Y-73.0
X193.0Y-79.0
X193.0Y-85.0
X193.0Y-91.0
X193.0Y-109.0
X193.0Y-121.0
X193.0Y-133.0
X194.5Y-70.0
X194.5Y-76.0
X194.5Y-88.0
X194.5Y-100.0
X194.5Y-106.0
X194.5Y-112.0
X194.5Y-118.0
X194.5Y-124.0
X194.5Y-130.0
X196.0Y-67.0
X196.0Y-73.0
X196.0Y-97.0
X196.0Y-103.0
X196.0Y-121.0
X196.0Y-127.0
X196.0Y-133.0
X197.5Y-70.0
X197.5Y-76.0
X197.5Y-106.0
X197.5Y-112.0
X197.5Y-118.0
X197.5Y-124.0
X197.5Y-130.0
X199.0Y-73.0
X199.0Y-79.0
X199.0Y-85.0
X199.0Y-91.0
X199.0Y-97.0
X199.0Y-103.0
X199.0Y-109.0
X199.0Y-115.0
X199.0Y-121.0
X199.0Y-127.0
X200.5Y-76.0
X200.5Y-82.0
X200.5Y-88.0
X200.5Y-94.0
X200.5Y-100.0
X200.5Y-106.0
X200.5Y-112.0
X200.5Y-118.0
X200.5Y-124.0
X202.0Y-73.0
X202.0Y-79.0
X202.0Y-85.0
X202.0Y-91.0
X202.0Y-97.0
X202.0Y-103.0
X202.0Y-109.0
X202.0Y-115.0
X202.0Y-121.0
X202.0Y-127.0
X203.5Y-70.0
X203.5Y-76.0
X203.5Y-82.0
X203.5Y-88.0
X203.5Y-94.0
X203.5Y-100.0
X203.5Y-106.0
X203.5Y-112.0
X203.5Y-118.0
X203.5Y-124.0
X203.5Y-130.0
T3
X130.07Y-68.29
X130.07Y-70.83
X130.07Y-73.37
X130.07Y-75.91
X130.07Y-78.45
X130.07Y-80.99
X130.07Y-83.53
X130.07Y-86.07
X130.07Y-88.61
X130.07Y-91.15
X130.07Y-93.69
X130.07Y-96.23
X130.07Y-98.77
X130.07Y-101.31
X130.07Y-103.85
X130.07Y-106.39
X130.07Y-108.93
X130.07Y-111.47
X130.07Y-114.01
X130.95Y-125.109
X130.95Y-127.649
X152.93Y-68.29
X152.93Y-70.83
X152.93Y-73.37
X152.93Y-75.91
X152.93Y-78.45
X152.93Y-80.99
X152.93Y-83.53
X152.93Y-86.07
X152.93Y-88.61
X152.93Y-91.15
X152.93Y-93.69
X152.93Y-96.23
X152.93Y-98.77
X152.93Y-101.31
X152.93Y-103.85
X152.93Y-106.39
X152.93Y-108.93
X152.93Y-111.47
X152.93Y-114.01
X162.692Y-125.105
X162.692Y-127.645
X163.8Y-75.11
X163.8Y-77.65
X163.8Y-80.19
X163.8Y-82.73
X163.8Y-85.27
X163.8Y-87.81
X163.8Y-90.35
X163.8Y-92.89
X166.357Y-120.024
X166.357Y-122.564
X166.357Y-125.104
X166.357Y-127.644
X170.182Y-125.123
X170.182Y-127.663
X174.419Y-109.89
X174.419Y-112.43
X174.419Y-114.97
X174.419Y-117.51
X174.419Y-120.05
X174.419Y-122.59
X174.419Y-125.13
X174.419Y-127.67
X180.538Y-122.606
X180.538Y-125.146
X180.538Y-127.686
X186.538Y-127.671
X189.2Y-75.11
X189.2Y-77.65
X189.2Y-80.19
X189.2Y-82.73
X189.2Y-85.27
X189.2Y-87.81
X189.2Y-90.35
X189.2Y-92.89
X197.172Y-110.247
X197.18Y-79.602
X197.18Y-82.142
X197.18Y-84.682
X197.18Y-87.222
X197.184Y-100.928
X197.184Y-114.429
T4
X124.0Y-69.0
X124.0Y-131.0
X201.0Y-69.0
X201.0Y-131.0
M30
