%TF.GenerationSoftware,KiCad,Pcbnew,10.0.6*%
%TF.CreationDate,2026-09-24T23:40:11-03:00*%
%TF.ProjectId,pcbignicao_smd,70636269-676e-4696-9361-6f5f736d642e,1.1*%
%TF.SameCoordinates,Original*%
%TF.FileFunction,Copper,L1,Top*%
%TF.FilePolarity,Positive*%
%FSLAX46Y46*%
G04 Gerber Fmt 4.6, Leading zero omitted, Abs format (unit mm)*
G04 Created by KiCad (PCBNEW 10.0.6) date 2026-09-24 23:40:11*
%MOMM*%
%LPD*%
G01*
G04 APERTURE LIST*
G04 Aperture macros list*
%AMRoundRect*
0 Rectangle with rounded corners*
0 $1 Rounding radius*
0 $2 $3 $4 $5 $6 $7 $8 $9 X,Y pos of 4 corners*
0 Add a 4 corners polygon primitive as box body*
4,1,4,$2,$3,$4,$5,$6,$7,$8,$9,$2,$3,0*
0 Add four circle primitives for the rounded corners*
1,1,$1+$1,$2,$3*
1,1,$1+$1,$4,$5*
1,1,$1+$1,$6,$7*
1,1,$1+$1,$8,$9*
0 Add four rect primitives between the rounded corners*
20,1,$1+$1,$2,$3,$4,$5,0*
20,1,$1+$1,$4,$5,$6,$7,0*
20,1,$1+$1,$6,$7,$8,$9,0*
20,1,$1+$1,$8,$9,$2,$3,0*%
G04 Aperture macros list end*
%TA.AperFunction,SMDPad,CuDef*%
%ADD10RoundRect,0.150000X0.150000X-0.662500X0.150000X0.662500X-0.150000X0.662500X-0.150000X-0.662500X0*%
%TD*%
%TA.AperFunction,ComponentPad*%
%ADD11R,1.700000X1.700000*%
%TD*%
%TA.AperFunction,ComponentPad*%
%ADD12C,1.700000*%
%TD*%
%TA.AperFunction,SMDPad,CuDef*%
%ADD13RoundRect,0.250000X-1.000000X-0.650000X1.000000X-0.650000X1.000000X0.650000X-1.000000X0.650000X0*%
%TD*%
%TA.AperFunction,SMDPad,CuDef*%
%ADD14RoundRect,0.225000X-0.225000X-0.375000X0.225000X-0.375000X0.225000X0.375000X-0.225000X0.375000X0*%
%TD*%
%TA.AperFunction,SMDPad,CuDef*%
%ADD15RoundRect,0.250000X0.450000X-0.262500X0.450000X0.262500X-0.450000X0.262500X-0.450000X-0.262500X0*%
%TD*%
%TA.AperFunction,SMDPad,CuDef*%
%ADD16RoundRect,0.243750X-0.456250X0.243750X-0.456250X-0.243750X0.456250X-0.243750X0.456250X0.243750X0*%
%TD*%
%TA.AperFunction,SMDPad,CuDef*%
%ADD17RoundRect,0.250000X0.262500X0.450000X-0.262500X0.450000X-0.262500X-0.450000X0.262500X-0.450000X0*%
%TD*%
%TA.AperFunction,SMDPad,CuDef*%
%ADD18C,1.000000*%
%TD*%
%TA.AperFunction,ComponentPad*%
%ADD19C,1.800000*%
%TD*%
%TA.AperFunction,SMDPad,CuDef*%
%ADD20RoundRect,0.250000X-0.450000X0.262500X-0.450000X-0.262500X0.450000X-0.262500X0.450000X0.262500X0*%
%TD*%
%TA.AperFunction,SMDPad,CuDef*%
%ADD21RoundRect,0.250000X1.000000X0.650000X-1.000000X0.650000X-1.000000X-0.650000X1.000000X-0.650000X0*%
%TD*%
%TA.AperFunction,SMDPad,CuDef*%
%ADD22RoundRect,0.250000X0.250000X0.475000X-0.250000X0.475000X-0.250000X-0.475000X0.250000X-0.475000X0*%
%TD*%
%TA.AperFunction,SMDPad,CuDef*%
%ADD23RoundRect,0.150000X-0.662500X-0.150000X0.662500X-0.150000X0.662500X0.150000X-0.662500X0.150000X0*%
%TD*%
%TA.AperFunction,SMDPad,CuDef*%
%ADD24RoundRect,0.250000X-0.262500X-0.450000X0.262500X-0.450000X0.262500X0.450000X-0.262500X0.450000X0*%
%TD*%
%TA.AperFunction,ViaPad*%
%ADD25C,0.600000*%
%TD*%
%TA.AperFunction,ViaPad*%
%ADD26C,0.800000*%
%TD*%
%TA.AperFunction,Conductor*%
%ADD27C,0.200000*%
%TD*%
%TA.AperFunction,Conductor*%
%ADD28C,0.250000*%
%TD*%
G04 APERTURE END LIST*
D10*
%TO.P,U3,1*%
%TO.N,IGN_B*%
X156436300Y-83943000D03*
%TO.P,U3,2*%
%TO.N,GND*%
X157706300Y-83943000D03*
%TO.P,U3,3*%
X157706300Y-77568000D03*
%TO.P,U3,4*%
%TO.N,CONT_B*%
X156436300Y-77568000D03*
%TD*%
D11*
%TO.P,J11,1*%
%TO.N,GND*%
X166357000Y-120024300D03*
D12*
%TO.P,J11,2*%
%TO.N,3.3V*%
X166357000Y-122564300D03*
%TO.P,J11,3*%
%TO.N,SCL*%
X166357000Y-125104300D03*
%TO.P,J11,4*%
%TO.N,SDA*%
X166357000Y-127644300D03*
%TD*%
D13*
%TO.P,D5,1*%
%TO.N,IGN_A*%
X184145500Y-119950500D03*
%TO.P,D5,2*%
%TO.N,IGN_B*%
X188145500Y-119950500D03*
%TD*%
D14*
%TO.P,D4,1*%
%TO.N,Net-(D4-K)*%
X159908500Y-122051000D03*
%TO.P,D4,2*%
%TO.N,Net-(D4-A)*%
X163208500Y-122051000D03*
%TD*%
D11*
%TO.P,J10,1*%
%TO.N,RELE_ARM*%
X162692400Y-125105000D03*
D12*
%TO.P,J10,2*%
%TO.N,RELE*%
X162692400Y-127645000D03*
%TD*%
D11*
%TO.P,J8,1,Pin_1_1*%
%TO.N,VSYS*%
X180537800Y-122605700D03*
D12*
%TO.P,J8,2,Pin_2_2*%
%TO.N,GND*%
X180537800Y-125145700D03*
%TO.P,J8,3,Pin_3_3*%
%TO.N,RELE*%
X180537800Y-127685700D03*
%TD*%
D15*
%TO.P,R5,1*%
%TO.N,RELE*%
X171400600Y-120183800D03*
%TO.P,R5,2*%
%TO.N,VSYS*%
X171400600Y-118358800D03*
%TD*%
D16*
%TO.P,D1,1*%
%TO.N,Net-(D1-Pad1)*%
X177439900Y-120861400D03*
%TO.P,D1,2*%
%TO.N,LED_Y*%
X177439900Y-122736400D03*
%TD*%
D11*
%TO.P,J7,1,Pin_1_1*%
%TO.N,EXT_5V*%
X130949500Y-125108600D03*
D12*
%TO.P,J7,2,Pin_2_2*%
%TO.N,GND*%
X130949500Y-127648600D03*
%TD*%
D11*
%TO.P,J9,1*%
%TO.N,GND*%
X170182000Y-125122800D03*
D12*
%TO.P,J9,2*%
%TO.N,LED_BTN*%
X170182000Y-127662800D03*
%TD*%
D17*
%TO.P,R6,1*%
%TO.N,3.3V*%
X167977400Y-112243800D03*
%TO.P,R6,2*%
%TO.N,CONT_A*%
X166152400Y-112243800D03*
%TD*%
D15*
%TO.P,R1,1*%
%TO.N,Net-(D1-Pad1)*%
X171508200Y-116524000D03*
%TO.P,R1,2*%
%TO.N,GND*%
X171508200Y-114699000D03*
%TD*%
D11*
%TO.P,J6,1*%
%TO.N,GND*%
X197172200Y-110246600D03*
%TD*%
D16*
%TO.P,D2,1*%
%TO.N,Net-(D2-Pad1)*%
X183522900Y-126244300D03*
%TO.P,D2,2*%
%TO.N,LED_R*%
X183522900Y-128119300D03*
%TD*%
D11*
%TO.P,J4,1*%
%TO.N,GND*%
X197184500Y-114429400D03*
%TD*%
D18*
%TO.P,FID3,*%
%TO.N,*%
X122475000Y-125975000D03*
%TD*%
D19*
%TO.P,U1,1,GND_1*%
%TO.N,GND*%
X189200000Y-92890000D03*
%TO.P,U1,2,GND_2*%
X189200000Y-90349999D03*
%TO.P,U1,3,3.3V_3*%
%TO.N,3.3V*%
X189200000Y-87809999D03*
%TO.P,U1,4,RESET_4*%
%TO.N,LORA_RST*%
X189200000Y-85269999D03*
%TO.P,U1,5,DIO0_5*%
%TO.N,LORA_DIO0*%
X189200000Y-82730000D03*
%TO.P,U1,6,DIO1_6*%
%TO.N,unconnected-(U1-DIO1-Pad6)*%
X189200000Y-80189999D03*
%TO.P,U1,7,DIO2_7*%
%TO.N,unconnected-(U1-DIO2-Pad7)*%
X189200000Y-77650000D03*
%TO.P,U1,8,DIO3_8*%
%TO.N,unconnected-(U1-DIO3-Pad8)*%
X189200000Y-75109999D03*
%TO.P,U1,9,GND_9*%
%TO.N,GND*%
X163800000Y-75109999D03*
%TO.P,U1,10,DIO4_10*%
%TO.N,unconnected-(U1-DIO4-Pad10)*%
X163800000Y-77650000D03*
%TO.P,U1,11,DIO5_11*%
%TO.N,unconnected-(U1-DIO5-Pad11)*%
X163800000Y-80189999D03*
%TO.P,U1,12,SCK_12*%
%TO.N,LORA_SCK*%
X163800000Y-82730000D03*
%TO.P,U1,13,MISO_13*%
%TO.N,LORA_MISO*%
X163800000Y-85269999D03*
%TO.P,U1,14,MOSI_14*%
%TO.N,LORA_MOSI*%
X163800000Y-87809999D03*
%TO.P,U1,15,NSS_15*%
%TO.N,LORA_NSS*%
X163800000Y-90349999D03*
%TO.P,U1,16,GND_16*%
%TO.N,GND*%
X163800000Y-92890000D03*
%TD*%
D20*
%TO.P,R2,1*%
%TO.N,Net-(D2-Pad1)*%
X177247600Y-126209400D03*
%TO.P,R2,2*%
%TO.N,GND*%
X177247600Y-128034400D03*
%TD*%
D11*
%TO.P,A1,1*%
%TO.N,3.3V*%
X152930000Y-68290000D03*
D12*
%TO.P,A1,2*%
%TO.N,unconnected-(A1-EN-Pad2)*%
X152930000Y-70830000D03*
%TO.P,A1,3*%
%TO.N,unconnected-(A1-GPIO36-Pad3)*%
X152930000Y-73370000D03*
%TO.P,A1,4*%
%TO.N,unconnected-(A1-GPIO39-Pad4)*%
X152930000Y-75910000D03*
%TO.P,A1,5*%
%TO.N,CONT_A*%
X152930000Y-78450000D03*
%TO.P,A1,6*%
%TO.N,CONT_B*%
X152930000Y-80990000D03*
%TO.P,A1,7*%
%TO.N,RELE_ARM*%
X152930000Y-83530000D03*
%TO.P,A1,8*%
%TO.N,EXP6*%
X152930000Y-86070000D03*
%TO.P,A1,9*%
%TO.N,LED_Y*%
X152930000Y-88610000D03*
%TO.P,A1,10*%
%TO.N,LED_R*%
X152930000Y-91150000D03*
%TO.P,A1,11*%
%TO.N,LED_BTN_K*%
X152930000Y-93690000D03*
%TO.P,A1,12*%
%TO.N,BUZZ*%
X152930000Y-96230000D03*
%TO.P,A1,13*%
%TO.N,EXP5*%
X152930000Y-98770000D03*
%TO.P,A1,14*%
%TO.N,GND*%
X152930000Y-101310000D03*
%TO.P,A1,15*%
%TO.N,BTN*%
X152930000Y-103850000D03*
%TO.P,A1,16*%
%TO.N,unconnected-(A1-GPIO9-Pad16)*%
X152930000Y-106390000D03*
%TO.P,A1,17*%
%TO.N,unconnected-(A1-GPIO10-Pad17)*%
X152930000Y-108930000D03*
%TO.P,A1,18*%
%TO.N,unconnected-(A1-GPIO11-Pad18)*%
X152930000Y-111470000D03*
%TO.P,A1,19*%
%TO.N,VSYS*%
X152930000Y-114010000D03*
%TO.P,A1,20*%
%TO.N,unconnected-(A1-GPIO6-Pad20)*%
X130070000Y-114010000D03*
%TO.P,A1,21*%
%TO.N,unconnected-(A1-GPIO7-Pad21)*%
X130070000Y-111470000D03*
%TO.P,A1,22*%
%TO.N,unconnected-(A1-GPIO8-Pad22)*%
X130070000Y-108930000D03*
%TO.P,A1,23*%
%TO.N,EXP3*%
X130070000Y-106390000D03*
%TO.P,A1,24*%
%TO.N,EXP2*%
X130070000Y-103850000D03*
%TO.P,A1,25*%
%TO.N,EXP4*%
X130070000Y-101310000D03*
%TO.P,A1,26*%
%TO.N,EXP1*%
X130070000Y-98770000D03*
%TO.P,A1,27*%
%TO.N,LORA_DIO0*%
X130070000Y-96230000D03*
%TO.P,A1,28*%
%TO.N,LORA_RST*%
X130070000Y-93690000D03*
%TO.P,A1,29*%
%TO.N,LORA_NSS*%
X130070000Y-91150000D03*
%TO.P,A1,30*%
%TO.N,LORA_SCK*%
X130070000Y-88610000D03*
%TO.P,A1,31*%
%TO.N,LORA_MISO*%
X130070000Y-86070000D03*
%TO.P,A1,32*%
%TO.N,GND*%
X130070000Y-83530000D03*
%TO.P,A1,33*%
%TO.N,SDA*%
X130070000Y-80990000D03*
%TO.P,A1,34*%
%TO.N,unconnected-(A1-GPIO3-Pad34)*%
X130070000Y-78450000D03*
%TO.P,A1,35*%
%TO.N,unconnected-(A1-GPIO1-Pad35)*%
X130070000Y-75910000D03*
%TO.P,A1,36*%
%TO.N,SCL*%
X130070000Y-73370000D03*
%TO.P,A1,37*%
%TO.N,LORA_MOSI*%
X130070000Y-70830000D03*
%TO.P,A1,38*%
%TO.N,GND*%
X130070000Y-68290000D03*
%TD*%
D18*
%TO.P,FID2,*%
%TO.N,*%
X203475000Y-125975000D03*
%TD*%
%TO.P,FID1,*%
%TO.N,*%
X122475000Y-73975000D03*
%TD*%
D11*
%TO.P,J12,1*%
%TO.N,EXP1*%
X174419500Y-127670200D03*
D12*
%TO.P,J12,2*%
%TO.N,EXP2*%
X174419500Y-125130200D03*
%TO.P,J12,3*%
%TO.N,EXP3*%
X174419500Y-122590200D03*
%TO.P,J12,4*%
%TO.N,EXP4*%
X174419500Y-120050200D03*
%TO.P,J12,5*%
%TO.N,EXP5*%
X174419500Y-117510200D03*
%TO.P,J12,6*%
%TO.N,EXP6*%
X174419500Y-114970200D03*
%TO.P,J12,7*%
%TO.N,3.3V*%
X174419500Y-112430200D03*
%TO.P,J12,8*%
%TO.N,GND*%
X174419500Y-109890200D03*
%TD*%
D21*
%TO.P,D3,1*%
%TO.N,VSYS*%
X167830100Y-116316400D03*
%TO.P,D3,2*%
%TO.N,EXT_5V*%
X163830100Y-116316400D03*
%TD*%
D22*
%TO.P,C1,1*%
%TO.N,3.3V*%
X181397600Y-118887200D03*
%TO.P,C1,2*%
%TO.N,GND*%
X179497600Y-118887200D03*
%TD*%
D11*
%TO.P,J5,1*%
%TO.N,BTN*%
X197183900Y-100927600D03*
%TD*%
D15*
%TO.P,R7,1*%
%TO.N,3.3V*%
X161220200Y-120006100D03*
%TO.P,R7,2*%
%TO.N,CONT_B*%
X161220200Y-118181100D03*
%TD*%
D22*
%TO.P,C2,1*%
%TO.N,3.3V*%
X156580000Y-127001700D03*
%TO.P,C2,2*%
%TO.N,GND*%
X154680000Y-127001700D03*
%TD*%
D20*
%TO.P,R4,1*%
%TO.N,3.3V*%
X194281800Y-126448600D03*
%TO.P,R4,2*%
%TO.N,Net-(D4-K)*%
X194281800Y-128273600D03*
%TD*%
D11*
%TO.P,J13,1*%
%TO.N,IGN_A*%
X197179600Y-79602400D03*
D12*
%TO.P,J13,2*%
X197179600Y-82142400D03*
%TO.P,J13,3*%
%TO.N,IGN_B*%
X197179600Y-84682400D03*
%TO.P,J13,4*%
X197179600Y-87222400D03*
%TD*%
D23*
%TO.P,U2,1*%
%TO.N,Net-(D4-A)*%
X186466600Y-115861400D03*
%TO.P,U2,2*%
%TO.N,IGN_A*%
X186466600Y-117131400D03*
%TO.P,U2,3*%
%TO.N,GND*%
X192841600Y-117131400D03*
%TO.P,U2,4*%
%TO.N,CONT_A*%
X192841600Y-115861400D03*
%TD*%
D11*
%TO.P,J3,1*%
%TO.N,BUZZ*%
X186538300Y-127671400D03*
%TD*%
D24*
%TO.P,R3,1*%
%TO.N,LED_BTN_K*%
X169918700Y-122025300D03*
%TO.P,R3,2*%
%TO.N,LED_BTN*%
X171743700Y-122025300D03*
%TD*%
D25*
%TO.N,IGN_B*%
X188943000Y-118299700D03*
D26*
%TO.N,GND*%
X187000000Y-73000000D03*
X203500000Y-82000000D03*
X182500000Y-124000000D03*
X160000000Y-109000000D03*
X164700000Y-119700000D03*
X191500000Y-112000000D03*
X176500000Y-112000000D03*
X133000000Y-133000000D03*
X187000000Y-85000000D03*
X148000000Y-103000000D03*
X143500000Y-106000000D03*
X175000000Y-97000000D03*
X125500000Y-118000000D03*
X169000000Y-79000000D03*
X136000000Y-91000000D03*
X172000000Y-79000000D03*
X125500000Y-124000000D03*
X124000000Y-109000000D03*
X203500000Y-100000000D03*
X172000000Y-85000000D03*
X128500000Y-112000000D03*
X199000000Y-85000000D03*
D25*
X167307000Y-120024300D03*
D26*
X131500000Y-118000000D03*
X181000000Y-109000000D03*
X185500000Y-100000000D03*
X172000000Y-103000000D03*
X125500000Y-100000000D03*
X121000000Y-73000000D03*
X191500000Y-124000000D03*
X152500000Y-124000000D03*
X187000000Y-79000000D03*
X169000000Y-97000000D03*
X137500000Y-70000000D03*
X199000000Y-73000000D03*
X172000000Y-133000000D03*
X122500000Y-112000000D03*
X160000000Y-67000000D03*
X122500000Y-82000000D03*
X143500000Y-124000000D03*
X175000000Y-67000000D03*
X148000000Y-73000000D03*
X187000000Y-91000000D03*
X149500000Y-82000000D03*
X161500000Y-76000000D03*
X178000000Y-73000000D03*
X200500000Y-76000000D03*
X149500000Y-70000000D03*
X194500000Y-88000000D03*
X127000000Y-127000000D03*
X175000000Y-73000000D03*
X130000000Y-133000000D03*
X199000000Y-103000000D03*
X167500000Y-100000000D03*
X134500000Y-118000000D03*
X187000000Y-67000000D03*
X190000000Y-73000000D03*
X151000000Y-73000000D03*
X197500000Y-76000000D03*
X151000000Y-67000000D03*
X148000000Y-109000000D03*
X203500000Y-112000000D03*
X143500000Y-94000000D03*
X122500000Y-76000000D03*
X193000000Y-109000000D03*
X137500000Y-118000000D03*
X133000000Y-79000000D03*
X203500000Y-106000000D03*
X193000000Y-85000000D03*
X121000000Y-115000000D03*
X122500000Y-100000000D03*
X197500000Y-130000000D03*
X173500000Y-88000000D03*
X146500000Y-82000000D03*
X136000000Y-67000000D03*
X133000000Y-91000000D03*
X122500000Y-106000000D03*
X151000000Y-127000000D03*
X172000000Y-97000000D03*
X184000000Y-67000000D03*
X166000000Y-79000000D03*
X143500000Y-82000000D03*
X178000000Y-67000000D03*
X185500000Y-76000000D03*
X181000000Y-115000000D03*
X200500000Y-94000000D03*
X176500000Y-94000000D03*
X176500000Y-100000000D03*
X137500000Y-82000000D03*
X145000000Y-91000000D03*
X193000000Y-67000000D03*
X137500000Y-94000000D03*
D25*
X171067849Y-125465980D03*
D26*
X125500000Y-112000000D03*
X133000000Y-127000000D03*
X139000000Y-133000000D03*
X145000000Y-73000000D03*
X196000000Y-133000000D03*
X145000000Y-127000000D03*
X158500000Y-70000000D03*
X128500000Y-118000000D03*
X146500000Y-124000000D03*
X199000000Y-115000000D03*
X121000000Y-67000000D03*
X148000000Y-121000000D03*
X124000000Y-115000000D03*
X146500000Y-94000000D03*
X143500000Y-130000000D03*
X164500000Y-100000000D03*
X182500000Y-94000000D03*
X163000000Y-133000000D03*
X175000000Y-79000000D03*
X202000000Y-127000000D03*
X127000000Y-91000000D03*
X137500000Y-100000000D03*
X203500000Y-76000000D03*
X178000000Y-103000000D03*
X175000000Y-133000000D03*
X136000000Y-79000000D03*
X200500000Y-82000000D03*
X202000000Y-115000000D03*
X200500000Y-100000000D03*
X127000000Y-121000000D03*
X145000000Y-103000000D03*
X143500000Y-100000000D03*
X193000000Y-73000000D03*
X155500000Y-70000000D03*
X179500000Y-76000000D03*
X124000000Y-85000000D03*
X173500000Y-106000000D03*
X163000000Y-73000000D03*
X193000000Y-133000000D03*
X181000000Y-97000000D03*
X122500000Y-88000000D03*
X184000000Y-79000000D03*
X148000000Y-91000000D03*
X175000000Y-85000000D03*
X179500000Y-88000000D03*
X140500000Y-112000000D03*
D25*
X158225569Y-82805960D03*
D26*
X190000000Y-133000000D03*
X133000000Y-121000000D03*
X194500000Y-118000000D03*
X191500000Y-76000000D03*
X121000000Y-85000000D03*
X160000000Y-73000000D03*
X154000000Y-133000000D03*
X190000000Y-109000000D03*
X182500000Y-76000000D03*
X199000000Y-79000000D03*
X125500000Y-82000000D03*
X136000000Y-133000000D03*
X193000000Y-91000000D03*
X179500000Y-106000000D03*
X181000000Y-133000000D03*
X140500000Y-124000000D03*
X133000000Y-115000000D03*
X169000000Y-85000000D03*
X152500000Y-130000000D03*
X170500000Y-76000000D03*
X187000000Y-97000000D03*
X125500000Y-76000000D03*
X203500000Y-118000000D03*
X202000000Y-109000000D03*
X142000000Y-91000000D03*
X128500000Y-106000000D03*
X140500000Y-70000000D03*
X194500000Y-130000000D03*
X191500000Y-118000000D03*
X151000000Y-121000000D03*
X167500000Y-70000000D03*
X139000000Y-127000000D03*
X121000000Y-133000000D03*
X181000000Y-85000000D03*
X133000000Y-109000000D03*
X178000000Y-97000000D03*
X193000000Y-121000000D03*
X196000000Y-127000000D03*
X184000000Y-73000000D03*
X142000000Y-103000000D03*
X203500000Y-70000000D03*
X203500000Y-88000000D03*
X182500000Y-100000000D03*
X157000000Y-109000000D03*
X166000000Y-73000000D03*
X148000000Y-67000000D03*
X124000000Y-79000000D03*
X127000000Y-103000000D03*
X134500000Y-124000000D03*
X185500000Y-94000000D03*
X170500000Y-88000000D03*
X173500000Y-76000000D03*
X139000000Y-73000000D03*
X176500000Y-124000000D03*
X190000000Y-103000000D03*
X121000000Y-109000000D03*
X182500000Y-106000000D03*
X191500000Y-70000000D03*
X146500000Y-106000000D03*
X202000000Y-73000000D03*
X194500000Y-124000000D03*
X181000000Y-103000000D03*
X202000000Y-79000000D03*
X145000000Y-67000000D03*
X157000000Y-91000000D03*
X142000000Y-133000000D03*
X155500000Y-106000000D03*
X175000000Y-103000000D03*
X155500000Y-118000000D03*
X134500000Y-130000000D03*
X121000000Y-103000000D03*
X196000000Y-103000000D03*
X176500000Y-88000000D03*
X200500000Y-112000000D03*
X164700000Y-112500000D03*
X146500000Y-100000000D03*
X143500000Y-70000000D03*
X166000000Y-67000000D03*
X158500000Y-106000000D03*
X121000000Y-91000000D03*
X137500000Y-76000000D03*
X139000000Y-109000000D03*
X140500000Y-130000000D03*
X160000000Y-79000000D03*
X128500000Y-100000000D03*
X133000000Y-67000000D03*
X139000000Y-91000000D03*
X197500000Y-70000000D03*
X182500000Y-70000000D03*
X193000000Y-79000000D03*
X173500000Y-100000000D03*
X148000000Y-133000000D03*
X130000000Y-121000000D03*
X154000000Y-121000000D03*
X161500000Y-70000000D03*
X197500000Y-112000000D03*
X134500000Y-70000000D03*
X143500000Y-76000000D03*
X194500000Y-76000000D03*
X127000000Y-67000000D03*
X184000000Y-85000000D03*
X137500000Y-130000000D03*
X200500000Y-88000000D03*
X178000000Y-115000000D03*
X134500000Y-94000000D03*
X182500000Y-88000000D03*
X167500000Y-88000000D03*
X167500000Y-76000000D03*
X140500000Y-76000000D03*
X164500000Y-70000000D03*
X155500000Y-94000000D03*
X184000000Y-115000000D03*
X170500000Y-106000000D03*
X142000000Y-67000000D03*
X124000000Y-91000000D03*
X181000000Y-67000000D03*
X170500000Y-70000000D03*
X178000000Y-79000000D03*
X194500000Y-70000000D03*
X202000000Y-91000000D03*
X190000000Y-67000000D03*
X179500000Y-94000000D03*
X168300000Y-119700000D03*
X197500000Y-118000000D03*
X181000000Y-79000000D03*
X199000000Y-91000000D03*
X124000000Y-127000000D03*
X169000000Y-73000000D03*
X146500000Y-76000000D03*
X191500000Y-94000000D03*
X166000000Y-85000000D03*
X121000000Y-121000000D03*
X142000000Y-127000000D03*
X146500000Y-130000000D03*
X173500000Y-70000000D03*
X176500000Y-76000000D03*
X127000000Y-85000000D03*
X142000000Y-121000000D03*
X202000000Y-97000000D03*
X137500000Y-124000000D03*
X122500000Y-118000000D03*
X155500000Y-130000000D03*
X121000000Y-79000000D03*
X145000000Y-133000000D03*
X127000000Y-115000000D03*
X127000000Y-133000000D03*
X125500000Y-94000000D03*
X122500000Y-124000000D03*
X131500000Y-130000000D03*
X146500000Y-70000000D03*
X121000000Y-97000000D03*
X194500000Y-100000000D03*
X179500000Y-70000000D03*
X194500000Y-106000000D03*
X139000000Y-121000000D03*
X191500000Y-88000000D03*
X203500000Y-130000000D03*
X136000000Y-127000000D03*
D25*
X170308834Y-114346834D03*
D26*
X200500000Y-118000000D03*
X161500000Y-94000000D03*
X199000000Y-121000000D03*
X142000000Y-109000000D03*
X128500000Y-130000000D03*
X172000000Y-67000000D03*
X197500000Y-124000000D03*
X173500000Y-94000000D03*
X128500000Y-124000000D03*
X124000000Y-73000000D03*
X200500000Y-106000000D03*
X155500000Y-112000000D03*
X176500000Y-70000000D03*
X127000000Y-109000000D03*
X136000000Y-103000000D03*
X185500000Y-70000000D03*
X139000000Y-67000000D03*
X146500000Y-118000000D03*
X176500000Y-106000000D03*
X124000000Y-97000000D03*
X196000000Y-97000000D03*
X184000000Y-97000000D03*
X187000000Y-133000000D03*
X167500000Y-94000000D03*
X194500000Y-112000000D03*
X140500000Y-118000000D03*
X136000000Y-73000000D03*
X191500000Y-106000000D03*
X202000000Y-85000000D03*
X125500000Y-88000000D03*
X149500000Y-76000000D03*
X121000000Y-127000000D03*
X158500000Y-76000000D03*
X181000000Y-73000000D03*
X170500000Y-94000000D03*
X200500000Y-124000000D03*
X157000000Y-67000000D03*
X178000000Y-133000000D03*
X149500000Y-124000000D03*
X199000000Y-127000000D03*
X190000000Y-115000000D03*
X169000000Y-103000000D03*
X199000000Y-97000000D03*
X187000000Y-103000000D03*
X184000000Y-133000000D03*
X160000000Y-133000000D03*
X197500000Y-106000000D03*
X196000000Y-67000000D03*
X163000000Y-67000000D03*
X178000000Y-85000000D03*
X202000000Y-121000000D03*
X148000000Y-127000000D03*
X168900000Y-123300000D03*
X203500000Y-94000000D03*
X202000000Y-103000000D03*
X157000000Y-133000000D03*
X179500000Y-100000000D03*
X196000000Y-73000000D03*
X160000000Y-97000000D03*
X184000000Y-109000000D03*
X170500000Y-100000000D03*
X124000000Y-103000000D03*
X158500000Y-112000000D03*
X140500000Y-82000000D03*
X145000000Y-121000000D03*
X199000000Y-109000000D03*
X134500000Y-82000000D03*
X160000000Y-127000000D03*
X143500000Y-118000000D03*
X151000000Y-133000000D03*
X169000000Y-67000000D03*
X166000000Y-97000000D03*
X155500000Y-76000000D03*
X140500000Y-100000000D03*
X124000000Y-121000000D03*
X169000000Y-133000000D03*
X122500000Y-94000000D03*
X127000000Y-97000000D03*
X203500000Y-124000000D03*
X149500000Y-130000000D03*
X140500000Y-94000000D03*
X188500000Y-70000000D03*
X164500000Y-118000000D03*
X166000000Y-133000000D03*
X172000000Y-73000000D03*
X125500000Y-106000000D03*
X187000000Y-109000000D03*
X196000000Y-121000000D03*
X142000000Y-73000000D03*
D25*
%TO.N,CONT_B*%
X153803400Y-116866800D03*
%TO.N,3.3V*%
X177644400Y-115897000D03*
X161767100Y-113174900D03*
%TO.N,SCL*%
X136420000Y-108267500D03*
X157390400Y-111302200D03*
%TO.N,IGN_A*%
X186005000Y-113162500D03*
%TO.N,Net-(D4-A)*%
X168169600Y-121110200D03*
X185127800Y-116863900D03*
%TO.N,LED_Y*%
X176230500Y-122895600D03*
%TO.N,CONT_A*%
X165484100Y-104854900D03*
%TO.N,LED_R*%
X182210000Y-128496700D03*
%TO.N,LORA_MOSI*%
X156625000Y-87870000D03*
%TO.N,LED_BTN_K*%
X152964000Y-116796100D03*
X149822500Y-94505000D03*
%TO.N,EXP3*%
X165874600Y-115424100D03*
%TO.N,EXP2*%
X159563000Y-112805000D03*
%TO.N,EXP4*%
X158702800Y-108166200D03*
%TD*%
%TO.N,IGN_B*%
D27*
X188145500Y-119950500D02*
X188943000Y-119153000D01*
X193993200Y-81496000D02*
X158647100Y-81496000D01*
X158647100Y-81496000D02*
X156436300Y-83706800D01*
X197179600Y-84682400D02*
X193993200Y-81496000D01*
X188943000Y-119153000D02*
X188943000Y-118299700D01*
X156436300Y-83706800D02*
X156436300Y-83943000D01*
%TO.N,GND*%
D28*
X157706300Y-83943000D02*
X158225569Y-82805960D01*
X171508200Y-114699000D02*
X170308834Y-114346834D01*
X170182000Y-125122800D02*
X171067849Y-125465980D01*
X166357000Y-120024300D02*
X167307000Y-120024300D01*
%TO.N,CONT_B*%
D27*
X152930000Y-80990000D02*
X153014300Y-80990000D01*
X159905900Y-116866800D02*
X161220200Y-118181100D01*
X153803400Y-116866800D02*
X159905900Y-116866800D01*
X153014300Y-80990000D02*
X156436300Y-77568000D01*
%TO.N,3.3V*%
X174419500Y-112430200D02*
X168163800Y-112430200D01*
X161220200Y-122956600D02*
X161220200Y-120006100D01*
X161220200Y-122956600D02*
X165964700Y-122956600D01*
X168163800Y-112430200D02*
X167977400Y-112243800D01*
X160625100Y-122956600D02*
X161220200Y-122956600D01*
X163712000Y-111230000D02*
X166963600Y-111230000D01*
X166963600Y-111230000D02*
X167977400Y-112243800D01*
X178407400Y-115897000D02*
X177644400Y-115897000D01*
X181397600Y-118887200D02*
X178407400Y-115897000D01*
X181397600Y-119675100D02*
X181397600Y-118887200D01*
X165964700Y-122956600D02*
X166357000Y-122564300D01*
X161767100Y-113174900D02*
X163712000Y-111230000D01*
X156580000Y-127001700D02*
X160625100Y-122956600D01*
X194281800Y-126448600D02*
X188171100Y-126448600D01*
X188171100Y-126448600D02*
X181397600Y-119675100D01*
%TO.N,SCL*%
X156288200Y-110200000D02*
X157390400Y-111302200D01*
X136420000Y-108267500D02*
X138352500Y-110200000D01*
X138352500Y-110200000D02*
X156288200Y-110200000D01*
%TO.N,IGN_A*%
X187611600Y-114769100D02*
X186005000Y-113162500D01*
X186466600Y-117131400D02*
X184145500Y-119452500D01*
X187611600Y-116168600D02*
X187611600Y-114769100D01*
X186466600Y-117131400D02*
X186648800Y-117131400D01*
X184145500Y-119452500D02*
X184145500Y-119950500D01*
X186648800Y-117131400D02*
X187611600Y-116168600D01*
%TO.N,Net-(D4-K)*%
X155735700Y-126223800D02*
X155735700Y-127732000D01*
X159908500Y-122051000D02*
X155735700Y-126223800D01*
X155735700Y-127732000D02*
X157323000Y-129319300D01*
X193236100Y-129319300D02*
X194281800Y-128273600D01*
X157323000Y-129319300D02*
X193236100Y-129319300D01*
%TO.N,Net-(D4-A)*%
X163965200Y-121294300D02*
X163208500Y-122051000D01*
X186130300Y-115861400D02*
X185127800Y-116863900D01*
X168169600Y-121110200D02*
X167985500Y-121294300D01*
X167985500Y-121294300D02*
X163965200Y-121294300D01*
X186466600Y-115861400D02*
X186130300Y-115861400D01*
%TO.N,RELE*%
X170263400Y-120183800D02*
X168377700Y-122069500D01*
X168377700Y-122069500D02*
X168377700Y-122221400D01*
X162692400Y-127645000D02*
X163930200Y-128882800D01*
X179340700Y-128882800D02*
X180537800Y-127685700D01*
X171400600Y-120183800D02*
X170263400Y-120183800D01*
X163963100Y-125869500D02*
X163963100Y-126374300D01*
X168377700Y-122221400D02*
X166646500Y-123952600D01*
X165880000Y-123952600D02*
X163963100Y-125869500D01*
X163963100Y-126374300D02*
X162692400Y-127645000D01*
X166646500Y-123952600D02*
X165880000Y-123952600D01*
X163930200Y-128882800D02*
X179340700Y-128882800D01*
%TO.N,VSYS*%
X152930000Y-114010000D02*
X165523700Y-114010000D01*
X175324000Y-116240200D02*
X173799200Y-116240200D01*
X167830100Y-116316400D02*
X169358200Y-116316400D01*
X169766300Y-116724400D02*
X171400600Y-118358800D01*
X169358200Y-116316400D02*
X169766300Y-116724400D01*
X173799200Y-116240200D02*
X173249100Y-115690100D01*
X180537800Y-122605700D02*
X180537800Y-121454000D01*
X180537800Y-121454000D02*
X175324000Y-116240200D01*
X165523700Y-114010000D02*
X167830100Y-116316400D01*
X170800600Y-115690100D02*
X169766300Y-116724400D01*
X173249100Y-115690100D02*
X170800600Y-115690100D01*
%TO.N,Net-(D1-Pad1)*%
X173756500Y-118772300D02*
X171508200Y-116524000D01*
X175350800Y-118772300D02*
X173756500Y-118772300D01*
X177439900Y-120861400D02*
X175350800Y-118772300D01*
%TO.N,LED_Y*%
X176230500Y-122895600D02*
X177280700Y-122895600D01*
X177280700Y-122895600D02*
X177439900Y-122736400D01*
%TO.N,EXT_5V*%
X141015400Y-116194400D02*
X132101200Y-125108600D01*
X130949500Y-125108600D02*
X132101200Y-125108600D01*
X163830100Y-116316400D02*
X163708100Y-116194400D01*
X163708100Y-116194400D02*
X141015400Y-116194400D01*
%TO.N,LED_BTN*%
X170182000Y-127662800D02*
X171743700Y-126101100D01*
X171743700Y-126101100D02*
X171743700Y-122025300D01*
%TO.N,CONT_A*%
X171027800Y-104854900D02*
X165484100Y-104854900D01*
X177790000Y-111617100D02*
X171027800Y-104854900D01*
X166152400Y-112243800D02*
X167518400Y-113609800D01*
X177790000Y-112544200D02*
X177790000Y-111617100D01*
X177790000Y-112544200D02*
X189524400Y-112544200D01*
X176724400Y-113609800D02*
X177790000Y-112544200D01*
X167518400Y-113609800D02*
X176724400Y-113609800D01*
X189524400Y-112544200D02*
X192841600Y-115861400D01*
%TO.N,Net-(D2-Pad1)*%
X177247600Y-126209400D02*
X177368200Y-126330000D01*
X183437200Y-126330000D02*
X183522900Y-126244300D01*
X177368200Y-126330000D02*
X183437200Y-126330000D01*
%TO.N,LED_R*%
X182210000Y-128496700D02*
X183145500Y-128496700D01*
X183145500Y-128496700D02*
X183522900Y-128119300D01*
%TO.N,LORA_RST*%
X131280000Y-92480000D02*
X130070000Y-93690000D01*
X189200000Y-85270000D02*
X182850000Y-91620000D01*
X157799400Y-92480000D02*
X131280000Y-92480000D01*
X158659400Y-91620000D02*
X157799400Y-92480000D01*
X182850000Y-91620000D02*
X158659400Y-91620000D01*
%TO.N,LORA_DIO0*%
X130070000Y-96230000D02*
X148948400Y-96230000D01*
X148948400Y-96230000D02*
X150218400Y-94960000D01*
X189651900Y-86539900D02*
X190450200Y-85741600D01*
X190450200Y-85741600D02*
X190450200Y-83980200D01*
X180214300Y-94960000D02*
X188634400Y-86539900D01*
X150218400Y-94960000D02*
X180214300Y-94960000D01*
X188634400Y-86539900D02*
X189651900Y-86539900D01*
X190450200Y-83980200D02*
X189200000Y-82730000D01*
%TO.N,LORA_SCK*%
X163070000Y-86540000D02*
X162341700Y-87268300D01*
X164231800Y-86540000D02*
X163070000Y-86540000D01*
X165026300Y-85745500D02*
X164231800Y-86540000D01*
X162341700Y-87268300D02*
X131411700Y-87268300D01*
X131411700Y-87268300D02*
X130070000Y-88610000D01*
X163800000Y-82730000D02*
X165026300Y-83956300D01*
X165026300Y-83956300D02*
X165026300Y-85745500D01*
%TO.N,LORA_MISO*%
X155958500Y-84917400D02*
X156311100Y-85270000D01*
X156311100Y-85270000D02*
X163800000Y-85270000D01*
X131222600Y-84917400D02*
X155958500Y-84917400D01*
X130070000Y-86070000D02*
X131222600Y-84917400D01*
%TO.N,LORA_MOSI*%
X163740000Y-87870000D02*
X163800000Y-87810000D01*
X156625000Y-87870000D02*
X163740000Y-87870000D01*
%TO.N,LORA_NSS*%
X163800000Y-90350000D02*
X163433800Y-89983800D01*
X163433800Y-89983800D02*
X131236200Y-89983800D01*
X131236200Y-89983800D02*
X130070000Y-91150000D01*
%TO.N,LED_BTN_K*%
X170299700Y-118872600D02*
X170624000Y-119196900D01*
X171939700Y-119196900D02*
X172427400Y-119684600D01*
X162063000Y-119032500D02*
X162222900Y-118872600D01*
X155075700Y-119032500D02*
X162063000Y-119032500D01*
X172427400Y-119684600D02*
X172427400Y-120654900D01*
X172427400Y-120654900D02*
X172071500Y-121010800D01*
X152964000Y-116796100D02*
X152964000Y-116920800D01*
X152930000Y-93690000D02*
X150637500Y-93690000D01*
X172071500Y-121010800D02*
X170933200Y-121010800D01*
X170933200Y-121010800D02*
X169918700Y-122025300D01*
X152964000Y-116920800D02*
X155075700Y-119032500D01*
X170624000Y-119196900D02*
X171939700Y-119196900D01*
X162222900Y-118872600D02*
X170299700Y-118872600D01*
X150637500Y-93690000D02*
X149822500Y-94505000D01*
%TO.N,BTN*%
X193109800Y-103850000D02*
X196032200Y-100927600D01*
X197183900Y-100927600D02*
X196032200Y-100927600D01*
X152930000Y-103850000D02*
X193109800Y-103850000D01*
%TO.N,EXP3*%
X129677500Y-110200000D02*
X131950600Y-110200000D01*
X128917800Y-107542200D02*
X128917800Y-109440300D01*
X153476600Y-115176400D02*
X153548500Y-115104500D01*
X128917800Y-109440300D02*
X129677500Y-110200000D01*
X131950600Y-110200000D02*
X136927000Y-115176400D01*
X153548500Y-115104500D02*
X165555000Y-115104500D01*
X165555000Y-115104500D02*
X165874600Y-115424100D01*
X130070000Y-106390000D02*
X128917800Y-107542200D01*
X136927000Y-115176400D02*
X153476600Y-115176400D01*
%TO.N,EXP2*%
X139025000Y-112805000D02*
X130070000Y-103850000D01*
X159563000Y-112805000D02*
X139025000Y-112805000D01*
%TO.N,EXP4*%
X158196600Y-107660000D02*
X158702800Y-108166200D01*
X136420000Y-107660000D02*
X158196600Y-107660000D01*
X130070000Y-101310000D02*
X136420000Y-107660000D01*
%TD*%
%TA.AperFunction,Conductor*%
%TO.N,GND*%
G36*
X165556240Y-123327062D02*
G01*
X165587098Y-123350740D01*
X165640072Y-123403714D01*
X165671253Y-123426368D01*
X165719791Y-123486308D01*
X165731856Y-123562487D01*
X165704215Y-123634492D01*
X165671102Y-123664319D01*
X165672534Y-123666186D01*
X165664790Y-123672127D01*
X164047259Y-125289659D01*
X163980464Y-125328223D01*
X163903336Y-125328223D01*
X163836541Y-125289659D01*
X163797977Y-125222864D01*
X163792900Y-125184300D01*
X163792900Y-124230330D01*
X163792899Y-124230322D01*
X163778366Y-124157260D01*
X163723001Y-124074399D01*
X163723000Y-124074398D01*
X163640139Y-124019033D01*
X163567077Y-124004500D01*
X163567074Y-124004500D01*
X161817726Y-124004500D01*
X161817722Y-124004500D01*
X161744660Y-124019033D01*
X161661799Y-124074398D01*
X161661798Y-124074399D01*
X161606433Y-124157260D01*
X161591900Y-124230322D01*
X161591900Y-125979677D01*
X161606433Y-126052739D01*
X161654161Y-126124169D01*
X161661799Y-126135601D01*
X161744660Y-126190966D01*
X161817726Y-126205500D01*
X161817730Y-126205500D01*
X163276499Y-126205500D01*
X163350999Y-126225462D01*
X163405537Y-126280000D01*
X163425499Y-126354500D01*
X163405537Y-126429000D01*
X163381858Y-126459859D01*
X163256202Y-126585515D01*
X163189407Y-126624079D01*
X163112279Y-126624079D01*
X163104804Y-126621864D01*
X163073757Y-126611776D01*
X162950100Y-126571597D01*
X162852486Y-126556137D01*
X162779011Y-126544500D01*
X162605789Y-126544500D01*
X162539437Y-126555009D01*
X162434699Y-126571597D01*
X162272109Y-126624427D01*
X162269955Y-126625127D01*
X162269949Y-126625129D01*
X162269949Y-126625130D01*
X162115606Y-126703771D01*
X161975475Y-126805583D01*
X161852983Y-126928075D01*
X161751171Y-127068206D01*
X161672530Y-127222549D01*
X161672525Y-127222561D01*
X161618997Y-127387299D01*
X161600628Y-127503282D01*
X161591900Y-127558389D01*
X161591900Y-127731611D01*
X161603537Y-127805086D01*
X161618997Y-127902700D01*
X161649383Y-127996216D01*
X161672527Y-128067445D01*
X161750812Y-128221088D01*
X161751171Y-128221793D01*
X161771303Y-128249502D01*
X161852986Y-128361928D01*
X161975472Y-128484414D01*
X161975475Y-128484416D01*
X162112502Y-128583973D01*
X162115612Y-128586232D01*
X162269955Y-128664873D01*
X162310642Y-128678093D01*
X162375327Y-128720100D01*
X162410342Y-128788822D01*
X162406305Y-128865844D01*
X162364298Y-128930529D01*
X162295576Y-128965544D01*
X162264598Y-128968800D01*
X157529900Y-128968800D01*
X157455400Y-128948838D01*
X157424541Y-128925159D01*
X156730940Y-128231558D01*
X156692376Y-128164763D01*
X156692376Y-128087635D01*
X156730940Y-128020840D01*
X156797735Y-127982276D01*
X156836299Y-127977199D01*
X156877864Y-127977199D01*
X156877872Y-127977199D01*
X156937483Y-127970791D01*
X157072318Y-127920501D01*
X157072329Y-127920497D01*
X157072333Y-127920495D01*
X157129938Y-127877371D01*
X157187546Y-127834246D01*
X157273796Y-127719031D01*
X157324091Y-127584183D01*
X157330500Y-127524573D01*
X157330499Y-126808598D01*
X157350461Y-126734099D01*
X157374136Y-126703244D01*
X160726640Y-123350741D01*
X160793435Y-123312177D01*
X160831999Y-123307100D01*
X161174056Y-123307100D01*
X165481740Y-123307100D01*
X165556240Y-123327062D01*
G37*
%TD.AperFunction*%
%TA.AperFunction,Conductor*%
G36*
X185335393Y-112914662D02*
G01*
X185389931Y-112969200D01*
X185409893Y-113043700D01*
X185404814Y-113082271D01*
X185404500Y-113083442D01*
X185404500Y-113241558D01*
X185409254Y-113259300D01*
X185445423Y-113394284D01*
X185524480Y-113531216D01*
X185636284Y-113643020D01*
X185773216Y-113722077D01*
X185925943Y-113763000D01*
X185977389Y-113763000D01*
X186051889Y-113782962D01*
X186082748Y-113806641D01*
X187167459Y-114891351D01*
X187206023Y-114958146D01*
X187211100Y-114996710D01*
X187211100Y-115161900D01*
X187191138Y-115236400D01*
X187136600Y-115290938D01*
X187062100Y-115310900D01*
X185772581Y-115310900D01*
X185678795Y-115325754D01*
X185678793Y-115325755D01*
X185565757Y-115383350D01*
X185476050Y-115473057D01*
X185418454Y-115586094D01*
X185418454Y-115586096D01*
X185403600Y-115679881D01*
X185403600Y-115679882D01*
X185403600Y-115679885D01*
X185403600Y-116030698D01*
X185383638Y-116105198D01*
X185359960Y-116136056D01*
X185226260Y-116269758D01*
X185159465Y-116308323D01*
X185120900Y-116313400D01*
X185055325Y-116313400D01*
X184915312Y-116350916D01*
X184789788Y-116423388D01*
X184687288Y-116525888D01*
X184614816Y-116651412D01*
X184577300Y-116791423D01*
X184577300Y-116936376D01*
X184614816Y-117076387D01*
X184687288Y-117201911D01*
X184687289Y-117201912D01*
X184687291Y-117201915D01*
X184789785Y-117304409D01*
X184789787Y-117304410D01*
X184789788Y-117304411D01*
X184915312Y-117376883D01*
X184915314Y-117376883D01*
X184915315Y-117376884D01*
X185055325Y-117414400D01*
X185200275Y-117414400D01*
X185200280Y-117414399D01*
X185224975Y-117407782D01*
X185302103Y-117407780D01*
X185368898Y-117446343D01*
X185393618Y-117485683D01*
X185396076Y-117484384D01*
X185396940Y-117486018D01*
X185398717Y-117493798D01*
X185404179Y-117502490D01*
X185404994Y-117504819D01*
X185401513Y-117506037D01*
X185414117Y-117561209D01*
X185391397Y-117634915D01*
X185370579Y-117661026D01*
X184325248Y-118706359D01*
X184258453Y-118744923D01*
X184219889Y-118750000D01*
X183102394Y-118750000D01*
X183013936Y-118760622D01*
X182873158Y-118816138D01*
X182873158Y-118816139D01*
X182752579Y-118907576D01*
X182752576Y-118907579D01*
X182661139Y-119028158D01*
X182661138Y-119028158D01*
X182605622Y-119168936D01*
X182595000Y-119257394D01*
X182595000Y-120017100D01*
X182575038Y-120091600D01*
X182520500Y-120146138D01*
X182446000Y-120166100D01*
X182371500Y-120146138D01*
X182340641Y-120122459D01*
X182067663Y-119849481D01*
X182029099Y-119782686D01*
X182029099Y-119705558D01*
X182053740Y-119654832D01*
X182091396Y-119604531D01*
X182141691Y-119469683D01*
X182143423Y-119453570D01*
X182148099Y-119410085D01*
X182148099Y-119410082D01*
X182148100Y-119410073D01*
X182148099Y-118364328D01*
X182141691Y-118304717D01*
X182127188Y-118265833D01*
X182091397Y-118169870D01*
X182091395Y-118169866D01*
X182005147Y-118054655D01*
X182005144Y-118054652D01*
X181889933Y-117968404D01*
X181889929Y-117968402D01*
X181755082Y-117918108D01*
X181695476Y-117911700D01*
X181099736Y-117911700D01*
X181099711Y-117911702D01*
X181040121Y-117918108D01*
X181031045Y-117920253D01*
X181030411Y-117917573D01*
X180968593Y-117923464D01*
X180898441Y-117891410D01*
X180887972Y-117881891D01*
X179762407Y-116756326D01*
X178622612Y-115616530D01*
X178542689Y-115570386D01*
X178453544Y-115546500D01*
X178134142Y-115546500D01*
X178059642Y-115526538D01*
X178028784Y-115502860D01*
X178022499Y-115496575D01*
X177982415Y-115456491D01*
X177982412Y-115456489D01*
X177982411Y-115456488D01*
X177856887Y-115384016D01*
X177716875Y-115346500D01*
X177571925Y-115346500D01*
X177431912Y-115384016D01*
X177306388Y-115456488D01*
X177203888Y-115558988D01*
X177131416Y-115684512D01*
X177093900Y-115824523D01*
X177093900Y-115969476D01*
X177131416Y-116109487D01*
X177203888Y-116235011D01*
X177203889Y-116235012D01*
X177203891Y-116235015D01*
X177306385Y-116337509D01*
X177306387Y-116337510D01*
X177306388Y-116337511D01*
X177431912Y-116409983D01*
X177431914Y-116409983D01*
X177431915Y-116409984D01*
X177571925Y-116447500D01*
X177716875Y-116447500D01*
X177856885Y-116409984D01*
X177982415Y-116337509D01*
X178028784Y-116291140D01*
X178095579Y-116252577D01*
X178134142Y-116247500D01*
X178200500Y-116247500D01*
X178275000Y-116267462D01*
X178305859Y-116291141D01*
X180603459Y-118588740D01*
X180642023Y-118655535D01*
X180647100Y-118694099D01*
X180647100Y-119410063D01*
X180647102Y-119410088D01*
X180653508Y-119469678D01*
X180653509Y-119469684D01*
X180703802Y-119604529D01*
X180703804Y-119604533D01*
X180790052Y-119719744D01*
X180790055Y-119719747D01*
X180905266Y-119805995D01*
X180905270Y-119805997D01*
X181018620Y-119848273D01*
X181040114Y-119856290D01*
X181040120Y-119856292D01*
X181049187Y-119858435D01*
X181048644Y-119860731D01*
X181107955Y-119883656D01*
X181125456Y-119898638D01*
X187545929Y-126319111D01*
X187584493Y-126385906D01*
X187584493Y-126463034D01*
X187545929Y-126529829D01*
X187479134Y-126568393D01*
X187420388Y-126570316D01*
X187420260Y-126571618D01*
X187412977Y-126570900D01*
X187412974Y-126570900D01*
X185663626Y-126570900D01*
X185663622Y-126570900D01*
X185590560Y-126585433D01*
X185507699Y-126640798D01*
X185507698Y-126640799D01*
X185452333Y-126723660D01*
X185437800Y-126796722D01*
X185437800Y-128546077D01*
X185452333Y-128619139D01*
X185507698Y-128702000D01*
X185518076Y-128712378D01*
X185515384Y-128715069D01*
X185549434Y-128753889D01*
X185564487Y-128829534D01*
X185539700Y-128902571D01*
X185481716Y-128953429D01*
X185415805Y-128968800D01*
X184439279Y-128968800D01*
X184364779Y-128948838D01*
X184310241Y-128894300D01*
X184290279Y-128819800D01*
X184310241Y-128745300D01*
X184325992Y-128724772D01*
X184325844Y-128724662D01*
X184332229Y-128716132D01*
X184332231Y-128716131D01*
X184417403Y-128602354D01*
X184467071Y-128469191D01*
X184473400Y-128410321D01*
X184473399Y-127828280D01*
X184467071Y-127769409D01*
X184417403Y-127636246D01*
X184332231Y-127522469D01*
X184218454Y-127437297D01*
X184197215Y-127429375D01*
X184085290Y-127387628D01*
X184026435Y-127381301D01*
X184026426Y-127381300D01*
X184026421Y-127381300D01*
X184026414Y-127381300D01*
X183019384Y-127381300D01*
X182986879Y-127384794D01*
X182960509Y-127387629D01*
X182960507Y-127387629D01*
X182960504Y-127387630D01*
X182827348Y-127437296D01*
X182827344Y-127437298D01*
X182713569Y-127522469D01*
X182628398Y-127636244D01*
X182628396Y-127636248D01*
X182578728Y-127769409D01*
X182572401Y-127828264D01*
X182572400Y-127828285D01*
X182572400Y-127829704D01*
X182572305Y-127830058D01*
X182572187Y-127832261D01*
X182571721Y-127832236D01*
X182552438Y-127904204D01*
X182497900Y-127958742D01*
X182423400Y-127978704D01*
X182384836Y-127973627D01*
X182282478Y-127946200D01*
X182282475Y-127946200D01*
X182137525Y-127946200D01*
X181997512Y-127983716D01*
X181871988Y-128056188D01*
X181865156Y-128063020D01*
X181798360Y-128101581D01*
X181721232Y-128101579D01*
X181654438Y-128063012D01*
X181615877Y-127996216D01*
X181612635Y-127934352D01*
X181638300Y-127772311D01*
X181638300Y-127599089D01*
X181611202Y-127427999D01*
X181557673Y-127263255D01*
X181479032Y-127108912D01*
X181475938Y-127104654D01*
X181396178Y-126994874D01*
X181377214Y-126968772D01*
X181343298Y-126934856D01*
X181304736Y-126868064D01*
X181304736Y-126790936D01*
X181343300Y-126724141D01*
X181410095Y-126685577D01*
X181448659Y-126680500D01*
X182518739Y-126680500D01*
X182593239Y-126700462D01*
X182638018Y-126740206D01*
X182713569Y-126841131D01*
X182827346Y-126926303D01*
X182960509Y-126975971D01*
X183019379Y-126982300D01*
X184026420Y-126982299D01*
X184085291Y-126975971D01*
X184218454Y-126926303D01*
X184332231Y-126841131D01*
X184417403Y-126727354D01*
X184467071Y-126594191D01*
X184473400Y-126535321D01*
X184473399Y-125953280D01*
X184467071Y-125894409D01*
X184417403Y-125761246D01*
X184332231Y-125647469D01*
X184218454Y-125562297D01*
X184169447Y-125544018D01*
X184085290Y-125512628D01*
X184026435Y-125506301D01*
X184026426Y-125506300D01*
X184026421Y-125506300D01*
X184026414Y-125506300D01*
X183019384Y-125506300D01*
X182986879Y-125509794D01*
X182960509Y-125512629D01*
X182960507Y-125512629D01*
X182960504Y-125512630D01*
X182827348Y-125562296D01*
X182827344Y-125562298D01*
X182713569Y-125647469D01*
X182628398Y-125761244D01*
X182628396Y-125761248D01*
X182583144Y-125882571D01*
X182538405Y-125945398D01*
X182468246Y-125977437D01*
X182443539Y-125979500D01*
X178340591Y-125979500D01*
X178266091Y-125959538D01*
X178211553Y-125905000D01*
X178192445Y-125846429D01*
X178191691Y-125839420D01*
X178191691Y-125839417D01*
X178162535Y-125761246D01*
X178141397Y-125704570D01*
X178141395Y-125704566D01*
X178055147Y-125589355D01*
X178055144Y-125589352D01*
X177939933Y-125503104D01*
X177939929Y-125503102D01*
X177805082Y-125452808D01*
X177745476Y-125446400D01*
X176749736Y-125446400D01*
X176749711Y-125446402D01*
X176690121Y-125452808D01*
X176690115Y-125452809D01*
X176555270Y-125503102D01*
X176555266Y-125503104D01*
X176440055Y-125589352D01*
X176440052Y-125589355D01*
X176353804Y-125704566D01*
X176353802Y-125704570D01*
X176303508Y-125839417D01*
X176297100Y-125899014D01*
X176297100Y-126519763D01*
X176297102Y-126519788D01*
X176303508Y-126579378D01*
X176303509Y-126579384D01*
X176353802Y-126714229D01*
X176353804Y-126714233D01*
X176440052Y-126829444D01*
X176440055Y-126829447D01*
X176555266Y-126915695D01*
X176555270Y-126915697D01*
X176690117Y-126965991D01*
X176749714Y-126972399D01*
X176749718Y-126972399D01*
X176749727Y-126972400D01*
X177745472Y-126972399D01*
X177805083Y-126965991D01*
X177911492Y-126926303D01*
X177939929Y-126915697D01*
X177939933Y-126915695D01*
X178005569Y-126866559D01*
X178055146Y-126829446D01*
X178107901Y-126758975D01*
X178121951Y-126740207D01*
X178182578Y-126692530D01*
X178241231Y-126680500D01*
X179626941Y-126680500D01*
X179701441Y-126700462D01*
X179755979Y-126755000D01*
X179775941Y-126829500D01*
X179755979Y-126904000D01*
X179732303Y-126934854D01*
X179713729Y-126953429D01*
X179698388Y-126968770D01*
X179698383Y-126968775D01*
X179596571Y-127108906D01*
X179517930Y-127263249D01*
X179517925Y-127263261D01*
X179464397Y-127427999D01*
X179451315Y-127510600D01*
X179437300Y-127599089D01*
X179437300Y-127772311D01*
X179446390Y-127829704D01*
X179464397Y-127943400D01*
X179514663Y-128098099D01*
X179518700Y-128175121D01*
X179483685Y-128243843D01*
X179478315Y-128249502D01*
X179239159Y-128488659D01*
X179172364Y-128527223D01*
X179133800Y-128532300D01*
X175669000Y-128532300D01*
X175594500Y-128512338D01*
X175539962Y-128457800D01*
X175520000Y-128383300D01*
X175520000Y-126795530D01*
X175519999Y-126795522D01*
X175515959Y-126775214D01*
X175505466Y-126722460D01*
X175450101Y-126639599D01*
X175432787Y-126628030D01*
X175367239Y-126584233D01*
X175294177Y-126569700D01*
X175294174Y-126569700D01*
X173544826Y-126569700D01*
X173544822Y-126569700D01*
X173471760Y-126584233D01*
X173388899Y-126639598D01*
X173388898Y-126639599D01*
X173333533Y-126722460D01*
X173319000Y-126795522D01*
X173319000Y-128383300D01*
X173299038Y-128457800D01*
X173244500Y-128512338D01*
X173170000Y-128532300D01*
X171202993Y-128532300D01*
X171128493Y-128512338D01*
X171073955Y-128457800D01*
X171053993Y-128383300D01*
X171073955Y-128308800D01*
X171082450Y-128295719D01*
X171116029Y-128249502D01*
X171123232Y-128239588D01*
X171201873Y-128085245D01*
X171255402Y-127920501D01*
X171282500Y-127749411D01*
X171282500Y-127576189D01*
X171255402Y-127405099D01*
X171205135Y-127250397D01*
X171201099Y-127173376D01*
X171236114Y-127104654D01*
X171241463Y-127099016D01*
X172024169Y-126316312D01*
X172070314Y-126236388D01*
X172072262Y-126229118D01*
X172074705Y-126220001D01*
X172086051Y-126177655D01*
X172094200Y-126147244D01*
X172094200Y-125043589D01*
X173319000Y-125043589D01*
X173319000Y-125216811D01*
X173319959Y-125222864D01*
X173346097Y-125387900D01*
X173367188Y-125452809D01*
X173399627Y-125552645D01*
X173477036Y-125704569D01*
X173478271Y-125706993D01*
X173574486Y-125839420D01*
X173580086Y-125847128D01*
X173702572Y-125969614D01*
X173739427Y-125996391D01*
X173829194Y-126061611D01*
X173842712Y-126071432D01*
X173997055Y-126150073D01*
X174161799Y-126203602D01*
X174332889Y-126230700D01*
X174332893Y-126230700D01*
X174506107Y-126230700D01*
X174506111Y-126230700D01*
X174677201Y-126203602D01*
X174841945Y-126150073D01*
X174996288Y-126071432D01*
X175136428Y-125969614D01*
X175258914Y-125847128D01*
X175360732Y-125706988D01*
X175439373Y-125552645D01*
X175492902Y-125387901D01*
X175520000Y-125216811D01*
X175520000Y-125043589D01*
X175492902Y-124872499D01*
X175439373Y-124707755D01*
X175360732Y-124553412D01*
X175341914Y-124527512D01*
X175258916Y-124413275D01*
X175258914Y-124413272D01*
X175136428Y-124290786D01*
X175100780Y-124264886D01*
X174996293Y-124188971D01*
X174996290Y-124188969D01*
X174996288Y-124188968D01*
X174841945Y-124110327D01*
X174794321Y-124094853D01*
X174677200Y-124056797D01*
X174579586Y-124041337D01*
X174506111Y-124029700D01*
X174332889Y-124029700D01*
X174275213Y-124038835D01*
X174161799Y-124056797D01*
X173997061Y-124110325D01*
X173997055Y-124110327D01*
X173997049Y-124110329D01*
X173997049Y-124110330D01*
X173842706Y-124188971D01*
X173702575Y-124290783D01*
X173580083Y-124413275D01*
X173478271Y-124553406D01*
X173399630Y-124707749D01*
X173399625Y-124707761D01*
X173346097Y-124872499D01*
X173327728Y-124988482D01*
X173319000Y-125043589D01*
X172094200Y-125043589D01*
X172094200Y-123080110D01*
X172114162Y-123005610D01*
X172168700Y-122951072D01*
X172191122Y-122940508D01*
X172248531Y-122919096D01*
X172248532Y-122919095D01*
X172248533Y-122919095D01*
X172343636Y-122847900D01*
X172363746Y-122832846D01*
X172449996Y-122717631D01*
X172500291Y-122582783D01*
X172502023Y-122566670D01*
X172506699Y-122523185D01*
X172506700Y-122523167D01*
X172506700Y-122503589D01*
X173319000Y-122503589D01*
X173319000Y-122676811D01*
X173325466Y-122717633D01*
X173346097Y-122847900D01*
X173380080Y-122952486D01*
X173399627Y-123012645D01*
X173456874Y-123124998D01*
X173478271Y-123166993D01*
X173580066Y-123307100D01*
X173580086Y-123307128D01*
X173702572Y-123429614D01*
X173842712Y-123531432D01*
X173997055Y-123610073D01*
X174161799Y-123663602D01*
X174332889Y-123690700D01*
X174332893Y-123690700D01*
X174506107Y-123690700D01*
X174506111Y-123690700D01*
X174677201Y-123663602D01*
X174841945Y-123610073D01*
X174996288Y-123531432D01*
X175136428Y-123429614D01*
X175258914Y-123307128D01*
X175343886Y-123190174D01*
X175360730Y-123166991D01*
X175360732Y-123166988D01*
X175428677Y-123033636D01*
X175480284Y-122976321D01*
X175553637Y-122952486D01*
X175629080Y-122968522D01*
X175686397Y-123020130D01*
X175705358Y-123062715D01*
X175717515Y-123108085D01*
X175789988Y-123233611D01*
X175789989Y-123233612D01*
X175789991Y-123233615D01*
X175892485Y-123336109D01*
X175892487Y-123336110D01*
X175892488Y-123336111D01*
X176018012Y-123408583D01*
X176018014Y-123408583D01*
X176018015Y-123408584D01*
X176158025Y-123446100D01*
X176302975Y-123446100D01*
X176442985Y-123408584D01*
X176520606Y-123363769D01*
X176595103Y-123343807D01*
X176669603Y-123363768D01*
X176684397Y-123373526D01*
X176744346Y-123418403D01*
X176877509Y-123468071D01*
X176936379Y-123474400D01*
X177943420Y-123474399D01*
X178002291Y-123468071D01*
X178135454Y-123418403D01*
X178249231Y-123333231D01*
X178334403Y-123219454D01*
X178384071Y-123086291D01*
X178390400Y-123027421D01*
X178390399Y-122445380D01*
X178384071Y-122386509D01*
X178334403Y-122253346D01*
X178249231Y-122139569D01*
X178135454Y-122054397D01*
X178100984Y-122041540D01*
X178002290Y-122004728D01*
X177943435Y-121998401D01*
X177943426Y-121998400D01*
X177943421Y-121998400D01*
X177943414Y-121998400D01*
X176936384Y-121998400D01*
X176903879Y-122001894D01*
X176877509Y-122004729D01*
X176877507Y-122004729D01*
X176877504Y-122004730D01*
X176744348Y-122054396D01*
X176744344Y-122054398D01*
X176630569Y-122139569D01*
X176583910Y-122201899D01*
X176545397Y-122253346D01*
X176539708Y-122268600D01*
X176539592Y-122268910D01*
X176494852Y-122331736D01*
X176424693Y-122363775D01*
X176361422Y-122360761D01*
X176302975Y-122345100D01*
X176158025Y-122345100D01*
X176018012Y-122382616D01*
X175892488Y-122455088D01*
X175789983Y-122557593D01*
X175784396Y-122564874D01*
X175723202Y-122611821D01*
X175646733Y-122621882D01*
X175575479Y-122592359D01*
X175528532Y-122531165D01*
X175519031Y-122497475D01*
X175492902Y-122332499D01*
X175439373Y-122167755D01*
X175360732Y-122013412D01*
X175354423Y-122004729D01*
X175327040Y-121967039D01*
X175258914Y-121873272D01*
X175136428Y-121750786D01*
X175112219Y-121733197D01*
X174996293Y-121648971D01*
X174996290Y-121648969D01*
X174996288Y-121648968D01*
X174841945Y-121570327D01*
X174794321Y-121554853D01*
X174677200Y-121516797D01*
X174571919Y-121500123D01*
X174506111Y-121489700D01*
X174332889Y-121489700D01*
X174267081Y-121500123D01*
X174161799Y-121516797D01*
X173997061Y-121570325D01*
X173997055Y-121570327D01*
X173997049Y-121570329D01*
X173997049Y-121570330D01*
X173842706Y-121648971D01*
X173702575Y-121750783D01*
X173702572Y-121750786D01*
X173580086Y-121873272D01*
X173554928Y-121907899D01*
X173478271Y-122013406D01*
X173399630Y-122167749D01*
X173399625Y-122167761D01*
X173346097Y-122332499D01*
X173333583Y-122411515D01*
X173319000Y-122503589D01*
X172506700Y-122503589D01*
X172506700Y-122497735D01*
X172506699Y-121527436D01*
X172506699Y-121527428D01*
X172500291Y-121467817D01*
X172473044Y-121394764D01*
X172449997Y-121332970D01*
X172449994Y-121332966D01*
X172439613Y-121319098D01*
X172410947Y-121247494D01*
X172421923Y-121171151D01*
X172453531Y-121124449D01*
X172707870Y-120870112D01*
X172754014Y-120790188D01*
X172759267Y-120770584D01*
X172762183Y-120759702D01*
X172762183Y-120759699D01*
X172769588Y-120732063D01*
X172777900Y-120701044D01*
X172777900Y-119638456D01*
X172754014Y-119549312D01*
X172740674Y-119526207D01*
X172707870Y-119469388D01*
X172303371Y-119064889D01*
X172264807Y-118998094D01*
X172264807Y-118920966D01*
X172289451Y-118870235D01*
X172294396Y-118863631D01*
X172344691Y-118728783D01*
X172351100Y-118669173D01*
X172351099Y-118222296D01*
X172371061Y-118147798D01*
X172425599Y-118093260D01*
X172500099Y-118073298D01*
X172574599Y-118093260D01*
X172605455Y-118116937D01*
X173476031Y-118987512D01*
X173541288Y-119052769D01*
X173575556Y-119072554D01*
X173630089Y-119127087D01*
X173650052Y-119201587D01*
X173630091Y-119276087D01*
X173606413Y-119306945D01*
X173580083Y-119333275D01*
X173478271Y-119473406D01*
X173399630Y-119627749D01*
X173399625Y-119627761D01*
X173346097Y-119792499D01*
X173335291Y-119860731D01*
X173319000Y-119963589D01*
X173319000Y-120136811D01*
X173323639Y-120166100D01*
X173346097Y-120307900D01*
X173368987Y-120378346D01*
X173399627Y-120472645D01*
X173477840Y-120626147D01*
X173478271Y-120626993D01*
X173576862Y-120762691D01*
X173580086Y-120767128D01*
X173702572Y-120889614D01*
X173702575Y-120889616D01*
X173810028Y-120967686D01*
X173842712Y-120991432D01*
X173997055Y-121070073D01*
X174161799Y-121123602D01*
X174332889Y-121150700D01*
X174332893Y-121150700D01*
X174506107Y-121150700D01*
X174506111Y-121150700D01*
X174677201Y-121123602D01*
X174841945Y-121070073D01*
X174996288Y-120991432D01*
X175136428Y-120889614D01*
X175258914Y-120767128D01*
X175360732Y-120626988D01*
X175439373Y-120472645D01*
X175492902Y-120307901D01*
X175520000Y-120136811D01*
X175520000Y-119963589D01*
X175492902Y-119792499D01*
X175492900Y-119792493D01*
X175492671Y-119791046D01*
X175500733Y-119714340D01*
X175546068Y-119651942D01*
X175616528Y-119620571D01*
X175693234Y-119628633D01*
X175745196Y-119662378D01*
X176455817Y-120372999D01*
X176494381Y-120439794D01*
X176495311Y-120502089D01*
X176496725Y-120502241D01*
X176489401Y-120570364D01*
X176489400Y-120570385D01*
X176489400Y-121152414D01*
X176489794Y-121156077D01*
X176495729Y-121211291D01*
X176495729Y-121211293D01*
X176495730Y-121211295D01*
X176511798Y-121254373D01*
X176545397Y-121344454D01*
X176630569Y-121458231D01*
X176744346Y-121543403D01*
X176877509Y-121593071D01*
X176936379Y-121599400D01*
X177943420Y-121599399D01*
X178002291Y-121593071D01*
X178135454Y-121543403D01*
X178249231Y-121458231D01*
X178334403Y-121344454D01*
X178384071Y-121211291D01*
X178390400Y-121152421D01*
X178390399Y-120570380D01*
X178384071Y-120511509D01*
X178334403Y-120378346D01*
X178249231Y-120264569D01*
X178135454Y-120179397D01*
X178099804Y-120166100D01*
X178002290Y-120129728D01*
X177943435Y-120123401D01*
X177943426Y-120123400D01*
X177943421Y-120123400D01*
X177943414Y-120123400D01*
X177259300Y-120123400D01*
X177184800Y-120103438D01*
X177153941Y-120079759D01*
X175566012Y-118491830D01*
X175486089Y-118445686D01*
X175396940Y-118421799D01*
X175390174Y-118420908D01*
X175318917Y-118391390D01*
X175271966Y-118330199D01*
X175261901Y-118253731D01*
X175289082Y-118185604D01*
X175360732Y-118086988D01*
X175439373Y-117932645D01*
X175492902Y-117767901D01*
X175520000Y-117596811D01*
X175520000Y-117423589D01*
X175499201Y-117292271D01*
X175507263Y-117215570D01*
X175552598Y-117153172D01*
X175623058Y-117121801D01*
X175699764Y-117129863D01*
X175751726Y-117163608D01*
X179838959Y-121250841D01*
X179877523Y-121317636D01*
X179877523Y-121394764D01*
X179838959Y-121461559D01*
X179772164Y-121500123D01*
X179733600Y-121505200D01*
X179663122Y-121505200D01*
X179590060Y-121519733D01*
X179507199Y-121575098D01*
X179507198Y-121575099D01*
X179451833Y-121657960D01*
X179437300Y-121731022D01*
X179437300Y-123480377D01*
X179451833Y-123553439D01*
X179489672Y-123610069D01*
X179507199Y-123636301D01*
X179590060Y-123691666D01*
X179663126Y-123706200D01*
X179663130Y-123706200D01*
X181412470Y-123706200D01*
X181412474Y-123706200D01*
X181485540Y-123691666D01*
X181568401Y-123636301D01*
X181623766Y-123553440D01*
X181638300Y-123480374D01*
X181638300Y-121731026D01*
X181623766Y-121657960D01*
X181568401Y-121575099D01*
X181561260Y-121570327D01*
X181485539Y-121519733D01*
X181412477Y-121505200D01*
X181412474Y-121505200D01*
X181028715Y-121505200D01*
X180954215Y-121485238D01*
X180899677Y-121430700D01*
X180884792Y-121394764D01*
X180864414Y-121318712D01*
X180848570Y-121291270D01*
X180818270Y-121238788D01*
X175539212Y-115959730D01*
X175459287Y-115913585D01*
X175454057Y-115912184D01*
X175451253Y-115911433D01*
X175451248Y-115911430D01*
X175451248Y-115911431D01*
X175422898Y-115903835D01*
X175363253Y-115887853D01*
X175296458Y-115849288D01*
X175257895Y-115782493D01*
X175257895Y-115705365D01*
X175281272Y-115656354D01*
X175360732Y-115546988D01*
X175439373Y-115392645D01*
X175492902Y-115227901D01*
X175520000Y-115056811D01*
X175520000Y-114883589D01*
X175492902Y-114712499D01*
X175439373Y-114547755D01*
X175360732Y-114393412D01*
X175354285Y-114384539D01*
X175269397Y-114267701D01*
X175258914Y-114253272D01*
X175220298Y-114214656D01*
X175181736Y-114147864D01*
X175181736Y-114070736D01*
X175220300Y-114003941D01*
X175287095Y-113965377D01*
X175325659Y-113960300D01*
X176770544Y-113960300D01*
X176859688Y-113936414D01*
X176882248Y-113923389D01*
X176939612Y-113890270D01*
X177891541Y-112938341D01*
X177958336Y-112899777D01*
X177996900Y-112894700D01*
X185260893Y-112894700D01*
X185335393Y-112914662D01*
G37*
%TD.AperFunction*%
%TA.AperFunction,Conductor*%
G36*
X170937059Y-121713339D02*
G01*
X170975623Y-121780134D01*
X170980700Y-121818698D01*
X170980700Y-122523163D01*
X170980702Y-122523188D01*
X170987108Y-122582778D01*
X170987109Y-122582784D01*
X171037402Y-122717629D01*
X171037404Y-122717633D01*
X171123652Y-122832844D01*
X171123655Y-122832847D01*
X171238867Y-122919095D01*
X171238868Y-122919095D01*
X171238869Y-122919096D01*
X171296270Y-122940505D01*
X171359095Y-122985241D01*
X171391136Y-123055398D01*
X171393200Y-123080110D01*
X171393200Y-125894200D01*
X171373238Y-125968700D01*
X171349559Y-125999559D01*
X170745802Y-126603315D01*
X170679007Y-126641879D01*
X170601879Y-126641879D01*
X170594404Y-126639664D01*
X170547518Y-126624430D01*
X170439700Y-126589397D01*
X170342086Y-126573937D01*
X170268611Y-126562300D01*
X170095389Y-126562300D01*
X170029037Y-126572809D01*
X169924299Y-126589397D01*
X169769797Y-126639599D01*
X169759555Y-126642927D01*
X169759549Y-126642929D01*
X169759549Y-126642930D01*
X169605206Y-126721571D01*
X169465075Y-126823383D01*
X169342583Y-126945875D01*
X169240771Y-127086006D01*
X169162130Y-127240349D01*
X169162125Y-127240361D01*
X169108597Y-127405099D01*
X169091888Y-127510600D01*
X169081500Y-127576189D01*
X169081500Y-127749411D01*
X169093137Y-127822886D01*
X169108597Y-127920500D01*
X169127020Y-127977199D01*
X169162127Y-128085245D01*
X169231702Y-128221793D01*
X169240771Y-128239593D01*
X169281550Y-128295719D01*
X169309191Y-128367724D01*
X169297126Y-128443903D01*
X169248588Y-128503843D01*
X169176583Y-128531484D01*
X169161007Y-128532300D01*
X167364552Y-128532300D01*
X167290052Y-128512338D01*
X167235514Y-128457800D01*
X167215552Y-128383300D01*
X167235514Y-128308800D01*
X167244009Y-128295719D01*
X167290625Y-128231558D01*
X167298232Y-128221088D01*
X167376873Y-128066745D01*
X167430402Y-127902001D01*
X167457500Y-127730911D01*
X167457500Y-127557689D01*
X167430402Y-127386599D01*
X167376873Y-127221855D01*
X167298232Y-127067512D01*
X167196414Y-126927372D01*
X167073928Y-126804886D01*
X167054728Y-126790936D01*
X166933793Y-126703071D01*
X166933790Y-126703069D01*
X166933788Y-126703068D01*
X166779445Y-126624427D01*
X166731821Y-126608953D01*
X166614700Y-126570897D01*
X166517086Y-126555437D01*
X166443611Y-126543800D01*
X166270389Y-126543800D01*
X166204037Y-126554309D01*
X166099299Y-126570897D01*
X165942446Y-126621863D01*
X165934555Y-126624427D01*
X165934549Y-126624429D01*
X165934549Y-126624430D01*
X165780206Y-126703071D01*
X165640075Y-126804883D01*
X165517583Y-126927375D01*
X165415771Y-127067506D01*
X165337130Y-127221849D01*
X165337125Y-127221861D01*
X165283597Y-127386599D01*
X165275568Y-127437296D01*
X165256500Y-127557689D01*
X165256500Y-127730911D01*
X165268137Y-127804386D01*
X165283597Y-127902000D01*
X165321653Y-128019121D01*
X165337127Y-128066745D01*
X165387070Y-128164763D01*
X165415771Y-128221093D01*
X165469991Y-128295719D01*
X165497632Y-128367724D01*
X165485567Y-128443903D01*
X165437029Y-128503843D01*
X165365024Y-128531484D01*
X165349448Y-128532300D01*
X164137100Y-128532300D01*
X164062600Y-128512338D01*
X164031741Y-128488659D01*
X163751884Y-128208802D01*
X163713320Y-128142007D01*
X163713320Y-128064879D01*
X163715520Y-128057450D01*
X163765802Y-127902701D01*
X163792900Y-127731611D01*
X163792900Y-127558389D01*
X163765802Y-127387299D01*
X163715535Y-127232597D01*
X163711499Y-127155577D01*
X163746514Y-127086855D01*
X163751862Y-127081218D01*
X164243570Y-126589512D01*
X164289714Y-126509588D01*
X164301584Y-126465288D01*
X164313600Y-126420444D01*
X164313600Y-126076400D01*
X164333562Y-126001900D01*
X164357241Y-125971041D01*
X164680813Y-125647469D01*
X165034035Y-125294246D01*
X165100828Y-125255684D01*
X165177956Y-125255684D01*
X165244751Y-125294248D01*
X165280832Y-125356743D01*
X165281789Y-125356433D01*
X165283250Y-125360931D01*
X165283315Y-125361043D01*
X165283415Y-125361440D01*
X165318844Y-125470477D01*
X165337127Y-125526745D01*
X165398639Y-125647469D01*
X165415771Y-125681093D01*
X165517583Y-125821224D01*
X165517586Y-125821228D01*
X165640072Y-125943714D01*
X165653245Y-125953285D01*
X165762423Y-126032608D01*
X165780212Y-126045532D01*
X165934555Y-126124173D01*
X166099299Y-126177702D01*
X166270389Y-126204800D01*
X166270393Y-126204800D01*
X166443607Y-126204800D01*
X166443611Y-126204800D01*
X166614701Y-126177702D01*
X166779445Y-126124173D01*
X166933788Y-126045532D01*
X167073928Y-125943714D01*
X167196414Y-125821228D01*
X167298232Y-125681088D01*
X167376873Y-125526745D01*
X167430402Y-125362001D01*
X167457500Y-125190911D01*
X167457500Y-125017689D01*
X167430402Y-124846599D01*
X167376873Y-124681855D01*
X167298232Y-124527512D01*
X167196414Y-124387372D01*
X167073928Y-124264886D01*
X167073920Y-124264880D01*
X167073913Y-124264874D01*
X167073710Y-124264727D01*
X167073642Y-124264643D01*
X167069475Y-124261084D01*
X167070135Y-124260311D01*
X167025179Y-124204782D01*
X167013122Y-124128602D01*
X167040771Y-124056600D01*
X167055938Y-124038842D01*
X168658170Y-122436612D01*
X168704314Y-122356688D01*
X168728200Y-122267543D01*
X168728200Y-122267537D01*
X168729474Y-122257863D01*
X168733040Y-122258332D01*
X168748162Y-122201899D01*
X168771838Y-122171043D01*
X168901342Y-122041539D01*
X168968136Y-122002976D01*
X169045264Y-122002976D01*
X169112059Y-122041540D01*
X169150623Y-122108335D01*
X169155700Y-122146899D01*
X169155700Y-122523163D01*
X169155702Y-122523188D01*
X169162108Y-122582778D01*
X169162109Y-122582784D01*
X169212402Y-122717629D01*
X169212404Y-122717633D01*
X169298652Y-122832844D01*
X169298655Y-122832847D01*
X169413866Y-122919095D01*
X169413870Y-122919097D01*
X169548717Y-122969391D01*
X169608314Y-122975799D01*
X169608318Y-122975799D01*
X169608327Y-122975800D01*
X170229072Y-122975799D01*
X170288683Y-122969391D01*
X170384647Y-122933598D01*
X170423529Y-122919097D01*
X170423533Y-122919095D01*
X170518636Y-122847900D01*
X170538746Y-122832846D01*
X170624996Y-122717631D01*
X170675291Y-122582783D01*
X170677023Y-122566670D01*
X170681699Y-122523185D01*
X170681699Y-122523182D01*
X170681700Y-122523173D01*
X170681699Y-121819698D01*
X170701661Y-121745199D01*
X170725336Y-121714344D01*
X170726343Y-121713337D01*
X170793136Y-121674775D01*
X170870264Y-121674775D01*
X170937059Y-121713339D01*
G37*
%TD.AperFunction*%
%TA.AperFunction,Conductor*%
G36*
X170167300Y-119243062D02*
G01*
X170198159Y-119266741D01*
X170408787Y-119477369D01*
X170408789Y-119477370D01*
X170408793Y-119477373D01*
X170442154Y-119496634D01*
X170496692Y-119551171D01*
X170516655Y-119625671D01*
X170507261Y-119677740D01*
X170485395Y-119736368D01*
X170440658Y-119799195D01*
X170370500Y-119831237D01*
X170345789Y-119833300D01*
X170217252Y-119833300D01*
X170131451Y-119856291D01*
X170131450Y-119856290D01*
X170128112Y-119857185D01*
X170048188Y-119903329D01*
X168943518Y-121007998D01*
X168876723Y-121046562D01*
X168799595Y-121046562D01*
X168732800Y-121007998D01*
X168694237Y-120941205D01*
X168682584Y-120897715D01*
X168620500Y-120790183D01*
X168610111Y-120772188D01*
X168610110Y-120772187D01*
X168610109Y-120772185D01*
X168507615Y-120669691D01*
X168507612Y-120669689D01*
X168507611Y-120669688D01*
X168382087Y-120597216D01*
X168242075Y-120559700D01*
X168097125Y-120559700D01*
X167957112Y-120597216D01*
X167831588Y-120669688D01*
X167729089Y-120772187D01*
X167729086Y-120772191D01*
X167673022Y-120869299D01*
X167618485Y-120923837D01*
X167543985Y-120943800D01*
X163919056Y-120943800D01*
X163829911Y-120967686D01*
X163829910Y-120967686D01*
X163749992Y-121013828D01*
X163749986Y-121013832D01*
X163605538Y-121158280D01*
X163538743Y-121196843D01*
X163484252Y-121201066D01*
X163478996Y-121200501D01*
X163478992Y-121200500D01*
X163478985Y-121200500D01*
X163478978Y-121200500D01*
X162938021Y-121200500D01*
X162912649Y-121203227D01*
X162881386Y-121206588D01*
X162881383Y-121206588D01*
X162881382Y-121206589D01*
X162881380Y-121206589D01*
X162753276Y-121254371D01*
X162753272Y-121254373D01*
X162643813Y-121336313D01*
X162561873Y-121445772D01*
X162561871Y-121445776D01*
X162514087Y-121573886D01*
X162508001Y-121630500D01*
X162508000Y-121630521D01*
X162508001Y-122457100D01*
X162488039Y-122531600D01*
X162433501Y-122586138D01*
X162359001Y-122606100D01*
X161719700Y-122606100D01*
X161645200Y-122586138D01*
X161590662Y-122531600D01*
X161570700Y-122457100D01*
X161570700Y-120918099D01*
X161590662Y-120843599D01*
X161645200Y-120789061D01*
X161714157Y-120770584D01*
X161714089Y-120769312D01*
X161718051Y-120769099D01*
X161718072Y-120769099D01*
X161777683Y-120762691D01*
X161873647Y-120726898D01*
X161912529Y-120712397D01*
X161912533Y-120712395D01*
X161970138Y-120669271D01*
X162027746Y-120626146D01*
X162096502Y-120534300D01*
X162113995Y-120510933D01*
X162113997Y-120510929D01*
X162163447Y-120378346D01*
X162164291Y-120376083D01*
X162166023Y-120359970D01*
X162170699Y-120316485D01*
X162170699Y-120316482D01*
X162170700Y-120316473D01*
X162170699Y-119695728D01*
X162164291Y-119636117D01*
X162129348Y-119542432D01*
X162122018Y-119465655D01*
X162154059Y-119395497D01*
X162194452Y-119361328D01*
X162198285Y-119359114D01*
X162198288Y-119359114D01*
X162216696Y-119348486D01*
X162278212Y-119312970D01*
X162324441Y-119266741D01*
X162391236Y-119228177D01*
X162429800Y-119223100D01*
X170092800Y-119223100D01*
X170167300Y-119243062D01*
G37*
%TD.AperFunction*%
%TA.AperFunction,Conductor*%
G36*
X159773500Y-117237262D02*
G01*
X159804359Y-117260941D01*
X160233314Y-117689896D01*
X160271878Y-117756691D01*
X160276101Y-117811182D01*
X160269701Y-117870712D01*
X160269700Y-117870732D01*
X160269700Y-118491463D01*
X160269702Y-118491485D01*
X160272453Y-118517073D01*
X160260569Y-118593280D01*
X160212173Y-118653335D01*
X160140234Y-118681146D01*
X160124307Y-118682000D01*
X155282600Y-118682000D01*
X155208100Y-118662038D01*
X155177241Y-118638359D01*
X154091557Y-117552675D01*
X154052993Y-117485880D01*
X154052993Y-117408752D01*
X154091557Y-117341957D01*
X154122417Y-117318278D01*
X154141408Y-117307313D01*
X154141407Y-117307313D01*
X154141415Y-117307309D01*
X154187784Y-117260940D01*
X154254579Y-117222377D01*
X154293142Y-117217300D01*
X159699000Y-117217300D01*
X159773500Y-117237262D01*
G37*
%TD.AperFunction*%
%TA.AperFunction,Conductor*%
G36*
X165554099Y-115874721D02*
G01*
X165662112Y-115937083D01*
X165662114Y-115937083D01*
X165662115Y-115937084D01*
X165802125Y-115974600D01*
X165947075Y-115974600D01*
X166087085Y-115937084D01*
X166106099Y-115926106D01*
X166180596Y-115906143D01*
X166255096Y-115926103D01*
X166309636Y-115980639D01*
X166329600Y-116055139D01*
X166329600Y-117014263D01*
X166329602Y-117014288D01*
X166336008Y-117073878D01*
X166336009Y-117073884D01*
X166386302Y-117208729D01*
X166386304Y-117208733D01*
X166472552Y-117323944D01*
X166472555Y-117323947D01*
X166587766Y-117410195D01*
X166587770Y-117410197D01*
X166722617Y-117460491D01*
X166782214Y-117466899D01*
X166782218Y-117466899D01*
X166782227Y-117466900D01*
X168877972Y-117466899D01*
X168937583Y-117460491D01*
X169036514Y-117423592D01*
X169072429Y-117410197D01*
X169072433Y-117410195D01*
X169163586Y-117341957D01*
X169187646Y-117323946D01*
X169253027Y-117236609D01*
X169273895Y-117208733D01*
X169273897Y-117208729D01*
X169323553Y-117075593D01*
X169368291Y-117012766D01*
X169438449Y-116980725D01*
X169515228Y-116988056D01*
X169568521Y-117022306D01*
X170413721Y-117867558D01*
X170452283Y-117934354D01*
X170456505Y-117988840D01*
X170450101Y-118048409D01*
X170450100Y-118048432D01*
X170450100Y-118373100D01*
X170430138Y-118447600D01*
X170375600Y-118502138D01*
X170301100Y-118522100D01*
X162319700Y-118522100D01*
X162245200Y-118502138D01*
X162190662Y-118447600D01*
X162170700Y-118373100D01*
X162170699Y-117870736D01*
X162170699Y-117870732D01*
X162170699Y-117870728D01*
X162164291Y-117811117D01*
X162149788Y-117772233D01*
X162113997Y-117676270D01*
X162113995Y-117676266D01*
X162027747Y-117561055D01*
X162027744Y-117561052D01*
X161912533Y-117474804D01*
X161912529Y-117474802D01*
X161777682Y-117424508D01*
X161718085Y-117418100D01*
X161718073Y-117418100D01*
X161014600Y-117418100D01*
X160940100Y-117398138D01*
X160909241Y-117374459D01*
X160334041Y-116799259D01*
X160295477Y-116732464D01*
X160295477Y-116655336D01*
X160334041Y-116588541D01*
X160400836Y-116549977D01*
X160439400Y-116544900D01*
X162180601Y-116544900D01*
X162255101Y-116564862D01*
X162309639Y-116619400D01*
X162329601Y-116693900D01*
X162329601Y-117014263D01*
X162329602Y-117014288D01*
X162336008Y-117073878D01*
X162336009Y-117073884D01*
X162386302Y-117208729D01*
X162386304Y-117208733D01*
X162472552Y-117323944D01*
X162472555Y-117323947D01*
X162587766Y-117410195D01*
X162587770Y-117410197D01*
X162722617Y-117460491D01*
X162782214Y-117466899D01*
X162782218Y-117466899D01*
X162782227Y-117466900D01*
X164877972Y-117466899D01*
X164937583Y-117460491D01*
X165036514Y-117423592D01*
X165072429Y-117410197D01*
X165072433Y-117410195D01*
X165163586Y-117341957D01*
X165187646Y-117323946D01*
X165253027Y-117236609D01*
X165273895Y-117208733D01*
X165273897Y-117208729D01*
X165323257Y-117076387D01*
X165324191Y-117073883D01*
X165329035Y-117028831D01*
X165330599Y-117014285D01*
X165330599Y-117014282D01*
X165330600Y-117014273D01*
X165330599Y-116003757D01*
X165350561Y-115929259D01*
X165405099Y-115874721D01*
X165479599Y-115854759D01*
X165554099Y-115874721D01*
G37*
%TD.AperFunction*%
%TA.AperFunction,Conductor*%
G36*
X165315807Y-111600462D02*
G01*
X165370345Y-111655000D01*
X165390307Y-111729500D01*
X165389454Y-111745419D01*
X165389401Y-111745910D01*
X165389400Y-111745932D01*
X165389400Y-112741663D01*
X165389402Y-112741688D01*
X165395808Y-112801278D01*
X165395809Y-112801284D01*
X165446102Y-112936129D01*
X165446104Y-112936133D01*
X165532352Y-113051344D01*
X165532355Y-113051347D01*
X165647566Y-113137595D01*
X165647570Y-113137597D01*
X165782417Y-113187891D01*
X165842014Y-113194299D01*
X165842018Y-113194299D01*
X165842027Y-113194300D01*
X166462772Y-113194299D01*
X166522318Y-113187898D01*
X166598525Y-113199782D01*
X166643603Y-113230685D01*
X167303188Y-113890270D01*
X167360552Y-113923389D01*
X167360551Y-113923389D01*
X167383108Y-113936412D01*
X167383112Y-113936414D01*
X167472256Y-113960300D01*
X167472257Y-113960300D01*
X167564544Y-113960300D01*
X173513341Y-113960300D01*
X173587841Y-113980262D01*
X173642379Y-114034800D01*
X173662341Y-114109300D01*
X173642379Y-114183800D01*
X173618703Y-114214654D01*
X173580088Y-114253270D01*
X173580083Y-114253275D01*
X173478271Y-114393406D01*
X173399630Y-114547749D01*
X173399627Y-114547756D01*
X173346097Y-114712499D01*
X173331299Y-114805938D01*
X173319000Y-114883589D01*
X173319000Y-115056811D01*
X173336498Y-115167293D01*
X173328436Y-115243997D01*
X173283102Y-115306395D01*
X173212642Y-115337766D01*
X173189333Y-115339600D01*
X170754456Y-115339600D01*
X170665310Y-115363486D01*
X170585387Y-115409630D01*
X169871615Y-116123401D01*
X169804820Y-116161965D01*
X169727692Y-116161965D01*
X169660911Y-116123414D01*
X169602192Y-116064710D01*
X169602178Y-116064697D01*
X169573401Y-116035920D01*
X169573384Y-116035907D01*
X169529641Y-116010659D01*
X169529629Y-116010647D01*
X169529628Y-116010651D01*
X169493469Y-115989775D01*
X169493449Y-115989769D01*
X169493448Y-115989769D01*
X169449709Y-115978055D01*
X169449708Y-115978054D01*
X169449708Y-115978052D01*
X169449692Y-115978050D01*
X169441037Y-115975731D01*
X169374241Y-115937168D01*
X169335676Y-115870374D01*
X169330599Y-115831808D01*
X169330599Y-115618536D01*
X169330599Y-115618532D01*
X169330599Y-115618528D01*
X169324191Y-115558917D01*
X169292168Y-115473058D01*
X169273897Y-115424070D01*
X169273895Y-115424066D01*
X169187647Y-115308855D01*
X169187644Y-115308852D01*
X169072433Y-115222604D01*
X169072429Y-115222602D01*
X168937582Y-115172308D01*
X168877985Y-115165900D01*
X168877973Y-115165900D01*
X167237000Y-115165900D01*
X167162500Y-115145938D01*
X167131641Y-115122259D01*
X165738912Y-113729530D01*
X165658989Y-113683386D01*
X165569844Y-113659500D01*
X162381054Y-113659500D01*
X162306554Y-113639538D01*
X162252016Y-113585000D01*
X162232054Y-113510500D01*
X162252016Y-113436000D01*
X162252017Y-113435999D01*
X162280082Y-113387388D01*
X162280081Y-113387388D01*
X162280084Y-113387385D01*
X162317600Y-113247375D01*
X162317600Y-113181800D01*
X162337562Y-113107300D01*
X162361241Y-113076441D01*
X163813541Y-111624141D01*
X163880336Y-111585577D01*
X163918900Y-111580500D01*
X165241307Y-111580500D01*
X165315807Y-111600462D01*
G37*
%TD.AperFunction*%
%TA.AperFunction,Conductor*%
G36*
X152019834Y-108030462D02*
G01*
X152074372Y-108085000D01*
X152094334Y-108159500D01*
X152074372Y-108234000D01*
X152065877Y-108247080D01*
X151988773Y-108353203D01*
X151988769Y-108353210D01*
X151988768Y-108353212D01*
X151919659Y-108488846D01*
X151910130Y-108507549D01*
X151910125Y-108507561D01*
X151856597Y-108672299D01*
X151839463Y-108780483D01*
X151829500Y-108843389D01*
X151829500Y-109016611D01*
X151841137Y-109090086D01*
X151856597Y-109187700D01*
X151894653Y-109304821D01*
X151910127Y-109352445D01*
X151988768Y-109506788D01*
X151988771Y-109506792D01*
X151988773Y-109506796D01*
X152065877Y-109612920D01*
X152093518Y-109684925D01*
X152081453Y-109761103D01*
X152032914Y-109821043D01*
X151960909Y-109848684D01*
X151945334Y-109849500D01*
X138559400Y-109849500D01*
X138484900Y-109829538D01*
X138454041Y-109805859D01*
X137014141Y-108365959D01*
X136975577Y-108299164D01*
X136970500Y-108260600D01*
X136970500Y-108195025D01*
X136969225Y-108185339D01*
X136971314Y-108185063D01*
X136971317Y-108120930D01*
X137009883Y-108054137D01*
X137076680Y-108015576D01*
X137115238Y-108010500D01*
X151945334Y-108010500D01*
X152019834Y-108030462D01*
G37*
%TD.AperFunction*%
%TA.AperFunction,Conductor*%
G36*
X182422900Y-91990462D02*
G01*
X182477438Y-92045000D01*
X182497400Y-92119500D01*
X182477438Y-92194000D01*
X182453759Y-92224859D01*
X180112759Y-94565859D01*
X180045964Y-94604423D01*
X180007400Y-94609500D01*
X153914666Y-94609500D01*
X153840166Y-94589538D01*
X153785628Y-94535000D01*
X153765666Y-94460500D01*
X153785628Y-94386000D01*
X153794123Y-94372920D01*
X153871226Y-94266796D01*
X153871228Y-94266793D01*
X153871232Y-94266788D01*
X153949873Y-94112445D01*
X154003402Y-93947701D01*
X154030500Y-93776611D01*
X154030500Y-93603389D01*
X154003402Y-93432299D01*
X153949873Y-93267555D01*
X153871232Y-93113212D01*
X153871227Y-93113205D01*
X153871226Y-93113203D01*
X153837716Y-93067080D01*
X153810075Y-92995075D01*
X153822141Y-92918897D01*
X153870679Y-92858957D01*
X153942684Y-92831316D01*
X153958259Y-92830500D01*
X157845544Y-92830500D01*
X157934688Y-92806614D01*
X158014612Y-92760470D01*
X158760941Y-92014141D01*
X158827736Y-91975577D01*
X158866300Y-91970500D01*
X182348400Y-91970500D01*
X182422900Y-91990462D01*
G37*
%TD.AperFunction*%
%TA.AperFunction,Conductor*%
G36*
X162579915Y-90354262D02*
G01*
X162634453Y-90408800D01*
X162652579Y-90459987D01*
X162677829Y-90619408D01*
X162716231Y-90737599D01*
X162733789Y-90791638D01*
X162816005Y-90952994D01*
X162816005Y-90952995D01*
X162874074Y-91032920D01*
X162901714Y-91104926D01*
X162889648Y-91181104D01*
X162841110Y-91241044D01*
X162769104Y-91268684D01*
X162753530Y-91269500D01*
X158613256Y-91269500D01*
X158524110Y-91293386D01*
X158444187Y-91339530D01*
X157697859Y-92085859D01*
X157631064Y-92124423D01*
X157592500Y-92129500D01*
X153866559Y-92129500D01*
X153792059Y-92109538D01*
X153737521Y-92055000D01*
X153717559Y-91980500D01*
X153737521Y-91906000D01*
X153761196Y-91875145D01*
X153769414Y-91866928D01*
X153871232Y-91726788D01*
X153949873Y-91572445D01*
X154003402Y-91407701D01*
X154030500Y-91236611D01*
X154030500Y-91063389D01*
X154003402Y-90892299D01*
X153949873Y-90727555D01*
X153871232Y-90573212D01*
X153871227Y-90573205D01*
X153869537Y-90570878D01*
X153869092Y-90569718D01*
X153868167Y-90568209D01*
X153868446Y-90568037D01*
X153841898Y-90498872D01*
X153853965Y-90422694D01*
X153902504Y-90362755D01*
X153974510Y-90335116D01*
X153990082Y-90334300D01*
X162505415Y-90334300D01*
X162579915Y-90354262D01*
G37*
%TD.AperFunction*%
%TA.AperFunction,Conductor*%
G36*
X188165699Y-81916462D02*
G01*
X188220237Y-81971000D01*
X188240199Y-82045500D01*
X188220237Y-82120000D01*
X188218247Y-82123345D01*
X188216006Y-82127001D01*
X188133789Y-82288360D01*
X188133789Y-82288361D01*
X188077829Y-82460591D01*
X188049500Y-82639454D01*
X188049500Y-82820546D01*
X188077829Y-82999409D01*
X188133789Y-83171639D01*
X188216004Y-83332994D01*
X188322447Y-83479501D01*
X188450499Y-83607553D01*
X188597006Y-83713996D01*
X188758361Y-83796211D01*
X188930591Y-83852171D01*
X188934769Y-83852832D01*
X189005230Y-83884200D01*
X189050567Y-83946596D01*
X189058633Y-84023301D01*
X189027265Y-84093763D01*
X188964869Y-84139100D01*
X188934783Y-84147163D01*
X188930596Y-84147826D01*
X188758360Y-84203788D01*
X188597004Y-84286004D01*
X188597003Y-84286004D01*
X188450500Y-84392445D01*
X188450497Y-84392447D01*
X188322448Y-84520496D01*
X188322446Y-84520499D01*
X188216005Y-84667002D01*
X188216005Y-84667003D01*
X188133789Y-84828359D01*
X188110662Y-84899538D01*
X188077829Y-85000590D01*
X188049500Y-85179453D01*
X188049500Y-85360545D01*
X188058426Y-85416900D01*
X188077829Y-85539413D01*
X188135598Y-85717206D01*
X188134342Y-85717614D01*
X188143505Y-85787284D01*
X188113980Y-85858537D01*
X188101141Y-85873175D01*
X182748459Y-91225859D01*
X182681664Y-91264423D01*
X182643100Y-91269500D01*
X164846470Y-91269500D01*
X164771970Y-91249538D01*
X164717432Y-91195000D01*
X164697470Y-91120500D01*
X164717432Y-91046000D01*
X164725926Y-91032920D01*
X164731299Y-91025523D01*
X164783996Y-90952993D01*
X164866211Y-90791638D01*
X164922171Y-90619408D01*
X164950500Y-90440545D01*
X164950500Y-90259453D01*
X164922171Y-90080590D01*
X164866211Y-89908360D01*
X164783996Y-89747005D01*
X164677553Y-89600498D01*
X164549501Y-89472446D01*
X164402994Y-89366003D01*
X164241639Y-89283788D01*
X164069408Y-89227827D01*
X164065223Y-89227165D01*
X163994762Y-89195795D01*
X163949427Y-89133397D01*
X163941364Y-89056692D01*
X163972734Y-88986231D01*
X164035132Y-88940896D01*
X164065223Y-88932833D01*
X164065362Y-88932810D01*
X164069409Y-88932170D01*
X164241639Y-88876210D01*
X164402994Y-88793995D01*
X164549501Y-88687552D01*
X164677553Y-88559500D01*
X164783996Y-88412993D01*
X164866211Y-88251638D01*
X164922171Y-88079408D01*
X164950500Y-87900545D01*
X164950500Y-87719453D01*
X164922171Y-87540590D01*
X164866211Y-87368360D01*
X164783996Y-87207005D01*
X164677553Y-87060498D01*
X164549501Y-86932446D01*
X164547627Y-86930572D01*
X164509063Y-86863777D01*
X164509063Y-86786649D01*
X164547625Y-86719856D01*
X165306770Y-85960712D01*
X165352914Y-85880788D01*
X165360872Y-85851087D01*
X165376800Y-85791644D01*
X165376800Y-83910156D01*
X165352914Y-83821012D01*
X165352912Y-83821008D01*
X165333682Y-83787700D01*
X165333682Y-83787701D01*
X165306771Y-83741089D01*
X164898858Y-83333176D01*
X164860294Y-83266381D01*
X164860294Y-83189253D01*
X164864814Y-83175936D01*
X164866208Y-83171643D01*
X164866211Y-83171639D01*
X164915497Y-83019951D01*
X164922170Y-82999414D01*
X164929488Y-82953212D01*
X164950500Y-82820546D01*
X164950500Y-82639454D01*
X164922171Y-82460591D01*
X164866211Y-82288361D01*
X164783996Y-82127006D01*
X164783994Y-82127003D01*
X164783993Y-82127001D01*
X164781753Y-82123345D01*
X164759852Y-82049392D01*
X164777861Y-81974396D01*
X164830956Y-81918452D01*
X164904909Y-81896551D01*
X164908801Y-81896500D01*
X188091199Y-81896500D01*
X188165699Y-81916462D01*
G37*
%TD.AperFunction*%
%TA.AperFunction,Conductor*%
G36*
X162765699Y-81916462D02*
G01*
X162820237Y-81971000D01*
X162840199Y-82045500D01*
X162820237Y-82120000D01*
X162818247Y-82123345D01*
X162816006Y-82127001D01*
X162733789Y-82288360D01*
X162733789Y-82288361D01*
X162677829Y-82460591D01*
X162649500Y-82639454D01*
X162649500Y-82820546D01*
X162677829Y-82999409D01*
X162733789Y-83171639D01*
X162816004Y-83332994D01*
X162922447Y-83479501D01*
X163050499Y-83607553D01*
X163197006Y-83713996D01*
X163358361Y-83796211D01*
X163530591Y-83852171D01*
X163534769Y-83852832D01*
X163605230Y-83884200D01*
X163650567Y-83946596D01*
X163658633Y-84023301D01*
X163627265Y-84093763D01*
X163564869Y-84139100D01*
X163534783Y-84147163D01*
X163530596Y-84147826D01*
X163358360Y-84203788D01*
X163197004Y-84286004D01*
X163197003Y-84286004D01*
X163050500Y-84392445D01*
X163050497Y-84392447D01*
X162922448Y-84520496D01*
X162922446Y-84520499D01*
X162816005Y-84667002D01*
X162816005Y-84667003D01*
X162731131Y-84833576D01*
X162729948Y-84832973D01*
X162687196Y-84888700D01*
X162615942Y-84918223D01*
X162596479Y-84919500D01*
X157163706Y-84919500D01*
X157089206Y-84899538D01*
X157034668Y-84845000D01*
X157014706Y-84770500D01*
X157023067Y-84721289D01*
X157033946Y-84690199D01*
X157036800Y-84659766D01*
X157036800Y-83734411D01*
X157056762Y-83659911D01*
X157080441Y-83629052D01*
X158769352Y-81940141D01*
X158836147Y-81901577D01*
X158874711Y-81896500D01*
X162691199Y-81896500D01*
X162765699Y-81916462D01*
G37*
%TD.AperFunction*%
%TA.AperFunction,Conductor*%
G36*
X204425000Y-65520462D02*
G01*
X204479538Y-65575000D01*
X204499500Y-65649500D01*
X204499500Y-125083441D01*
X204479538Y-125157941D01*
X204425000Y-125212479D01*
X204350500Y-125232441D01*
X204276000Y-125212479D01*
X204245145Y-125188803D01*
X204191928Y-125135586D01*
X204065310Y-125043592D01*
X204051793Y-125033771D01*
X204051790Y-125033769D01*
X204051788Y-125033768D01*
X203897445Y-124955127D01*
X203849821Y-124939653D01*
X203732700Y-124901597D01*
X203635086Y-124886137D01*
X203561611Y-124874500D01*
X203388389Y-124874500D01*
X203322037Y-124885009D01*
X203217299Y-124901597D01*
X203052561Y-124955125D01*
X203052555Y-124955127D01*
X203052549Y-124955129D01*
X203052549Y-124955130D01*
X202898206Y-125033771D01*
X202758075Y-125135583D01*
X202635583Y-125258075D01*
X202533771Y-125398206D01*
X202455130Y-125552549D01*
X202455125Y-125552561D01*
X202401597Y-125717299D01*
X202394637Y-125761246D01*
X202374500Y-125888389D01*
X202374500Y-126061611D01*
X202384408Y-126124169D01*
X202401597Y-126232700D01*
X202439653Y-126349821D01*
X202455127Y-126397445D01*
X202525375Y-126535314D01*
X202533771Y-126551793D01*
X202610295Y-126657118D01*
X202635586Y-126691928D01*
X202758072Y-126814414D01*
X202770417Y-126823383D01*
X202897475Y-126915697D01*
X202898212Y-126916232D01*
X203052555Y-126994873D01*
X203217299Y-127048402D01*
X203388389Y-127075500D01*
X203388393Y-127075500D01*
X203561607Y-127075500D01*
X203561611Y-127075500D01*
X203732701Y-127048402D01*
X203897445Y-126994873D01*
X204051788Y-126916232D01*
X204191928Y-126814414D01*
X204245143Y-126761198D01*
X204311936Y-126722636D01*
X204389064Y-126722636D01*
X204455859Y-126761200D01*
X204494423Y-126827995D01*
X204499500Y-126866559D01*
X204499500Y-134350500D01*
X204479538Y-134425000D01*
X204425000Y-134479538D01*
X204350500Y-134499500D01*
X120649500Y-134499500D01*
X120575000Y-134479538D01*
X120520462Y-134425000D01*
X120500500Y-134350500D01*
X120500500Y-130878706D01*
X122149500Y-130878706D01*
X122149500Y-131121293D01*
X122181160Y-131361781D01*
X122181161Y-131361787D01*
X122181162Y-131361789D01*
X122243946Y-131596100D01*
X122336776Y-131820212D01*
X122458064Y-132030289D01*
X122605735Y-132222738D01*
X122777262Y-132394265D01*
X122969711Y-132541936D01*
X123179788Y-132663224D01*
X123403900Y-132756054D01*
X123638211Y-132818838D01*
X123638217Y-132818838D01*
X123638218Y-132818839D01*
X123703600Y-132827446D01*
X123878712Y-132850500D01*
X124121288Y-132850500D01*
X124361789Y-132818838D01*
X124596100Y-132756054D01*
X124820212Y-132663224D01*
X125030289Y-132541936D01*
X125222738Y-132394265D01*
X125394265Y-132222738D01*
X125541936Y-132030289D01*
X125663224Y-131820212D01*
X125756054Y-131596100D01*
X125818838Y-131361789D01*
X125850500Y-131121288D01*
X125850500Y-130878712D01*
X125850499Y-130878706D01*
X199149500Y-130878706D01*
X199149500Y-131121293D01*
X199181160Y-131361781D01*
X199181161Y-131361787D01*
X199181162Y-131361789D01*
X199243946Y-131596100D01*
X199336776Y-131820212D01*
X199458064Y-132030289D01*
X199605735Y-132222738D01*
X199777262Y-132394265D01*
X199969711Y-132541936D01*
X200179788Y-132663224D01*
X200403900Y-132756054D01*
X200638211Y-132818838D01*
X200638217Y-132818838D01*
X200638218Y-132818839D01*
X200703600Y-132827446D01*
X200878712Y-132850500D01*
X201121288Y-132850500D01*
X201361789Y-132818838D01*
X201596100Y-132756054D01*
X201820212Y-132663224D01*
X202030289Y-132541936D01*
X202222738Y-132394265D01*
X202394265Y-132222738D01*
X202541936Y-132030289D01*
X202663224Y-131820212D01*
X202756054Y-131596100D01*
X202818838Y-131361789D01*
X202850500Y-131121288D01*
X202850500Y-130878712D01*
X202818838Y-130638211D01*
X202756054Y-130403900D01*
X202663224Y-130179788D01*
X202541936Y-129969711D01*
X202394265Y-129777262D01*
X202222738Y-129605735D01*
X202030289Y-129458064D01*
X201960263Y-129417634D01*
X201820216Y-129336778D01*
X201820214Y-129336777D01*
X201820212Y-129336776D01*
X201688932Y-129282398D01*
X201596103Y-129243947D01*
X201596101Y-129243946D01*
X201596100Y-129243946D01*
X201361789Y-129181162D01*
X201361787Y-129181161D01*
X201361781Y-129181160D01*
X201121293Y-129149500D01*
X201121288Y-129149500D01*
X200878712Y-129149500D01*
X200878706Y-129149500D01*
X200638218Y-129181160D01*
X200403896Y-129243947D01*
X200179783Y-129336778D01*
X199969712Y-129458063D01*
X199969711Y-129458064D01*
X199777262Y-129605735D01*
X199777260Y-129605736D01*
X199777256Y-129605740D01*
X199605740Y-129777256D01*
X199458063Y-129969712D01*
X199336778Y-130179783D01*
X199243947Y-130403896D01*
X199181160Y-130638218D01*
X199149500Y-130878706D01*
X125850499Y-130878706D01*
X125818838Y-130638211D01*
X125756054Y-130403900D01*
X125663224Y-130179788D01*
X125541936Y-129969711D01*
X125394265Y-129777262D01*
X125222738Y-129605735D01*
X125030289Y-129458064D01*
X124960263Y-129417634D01*
X124820216Y-129336778D01*
X124820214Y-129336777D01*
X124820212Y-129336776D01*
X124688932Y-129282398D01*
X124596103Y-129243947D01*
X124596101Y-129243946D01*
X124596100Y-129243946D01*
X124361789Y-129181162D01*
X124361787Y-129181161D01*
X124361781Y-129181160D01*
X124121293Y-129149500D01*
X124121288Y-129149500D01*
X123878712Y-129149500D01*
X123878706Y-129149500D01*
X123638218Y-129181160D01*
X123403896Y-129243947D01*
X123179783Y-129336778D01*
X122969712Y-129458063D01*
X122969711Y-129458064D01*
X122777262Y-129605735D01*
X122777260Y-129605736D01*
X122777256Y-129605740D01*
X122605740Y-129777256D01*
X122458063Y-129969712D01*
X122336778Y-130179783D01*
X122243947Y-130403896D01*
X122181160Y-130638218D01*
X122149500Y-130878706D01*
X120500500Y-130878706D01*
X120500500Y-125888389D01*
X121374500Y-125888389D01*
X121374500Y-126061611D01*
X121384408Y-126124169D01*
X121401597Y-126232700D01*
X121439653Y-126349821D01*
X121455127Y-126397445D01*
X121525375Y-126535314D01*
X121533771Y-126551793D01*
X121610295Y-126657118D01*
X121635586Y-126691928D01*
X121758072Y-126814414D01*
X121770417Y-126823383D01*
X121897475Y-126915697D01*
X121898212Y-126916232D01*
X122052555Y-126994873D01*
X122217299Y-127048402D01*
X122388389Y-127075500D01*
X122388393Y-127075500D01*
X122561607Y-127075500D01*
X122561611Y-127075500D01*
X122732701Y-127048402D01*
X122897445Y-126994873D01*
X123051788Y-126916232D01*
X123191928Y-126814414D01*
X123314414Y-126691928D01*
X123416232Y-126551788D01*
X123494873Y-126397445D01*
X123548402Y-126232701D01*
X123575500Y-126061611D01*
X123575500Y-125888389D01*
X123548402Y-125717299D01*
X123494873Y-125552555D01*
X123416232Y-125398212D01*
X123409589Y-125389069D01*
X123314416Y-125258075D01*
X123314414Y-125258072D01*
X123191928Y-125135586D01*
X123065310Y-125043592D01*
X123051793Y-125033771D01*
X123051790Y-125033769D01*
X123051788Y-125033768D01*
X122897445Y-124955127D01*
X122849821Y-124939653D01*
X122732700Y-124901597D01*
X122635086Y-124886137D01*
X122561611Y-124874500D01*
X122388389Y-124874500D01*
X122322037Y-124885009D01*
X122217299Y-124901597D01*
X122052561Y-124955125D01*
X122052555Y-124955127D01*
X122052549Y-124955129D01*
X122052549Y-124955130D01*
X121898206Y-125033771D01*
X121758075Y-125135583D01*
X121635583Y-125258075D01*
X121533771Y-125398206D01*
X121455130Y-125552549D01*
X121455125Y-125552561D01*
X121401597Y-125717299D01*
X121394637Y-125761246D01*
X121374500Y-125888389D01*
X120500500Y-125888389D01*
X120500500Y-113923389D01*
X128969500Y-113923389D01*
X128969500Y-114096611D01*
X128971510Y-114109300D01*
X128996597Y-114267700D01*
X129026750Y-114360500D01*
X129050127Y-114432445D01*
X129118399Y-114566436D01*
X129128771Y-114586793D01*
X129148909Y-114614510D01*
X129230586Y-114726928D01*
X129353072Y-114849414D01*
X129353075Y-114849416D01*
X129470859Y-114934992D01*
X129493212Y-114951232D01*
X129647555Y-115029873D01*
X129812299Y-115083402D01*
X129983389Y-115110500D01*
X129983393Y-115110500D01*
X130156607Y-115110500D01*
X130156611Y-115110500D01*
X130327701Y-115083402D01*
X130492445Y-115029873D01*
X130646788Y-114951232D01*
X130786928Y-114849414D01*
X130909414Y-114726928D01*
X131011232Y-114586788D01*
X131089873Y-114432445D01*
X131143402Y-114267701D01*
X131170500Y-114096611D01*
X131170500Y-113923389D01*
X131143402Y-113752299D01*
X131089873Y-113587555D01*
X131011232Y-113433212D01*
X130909414Y-113293072D01*
X130786928Y-113170586D01*
X130786924Y-113170583D01*
X130646793Y-113068771D01*
X130646790Y-113068769D01*
X130646788Y-113068768D01*
X130492445Y-112990127D01*
X130428039Y-112969200D01*
X130327700Y-112936597D01*
X130230086Y-112921137D01*
X130156611Y-112909500D01*
X129983389Y-112909500D01*
X129917037Y-112920009D01*
X129812299Y-112936597D01*
X129647561Y-112990125D01*
X129647555Y-112990127D01*
X129647549Y-112990129D01*
X129647549Y-112990130D01*
X129493206Y-113068771D01*
X129353075Y-113170583D01*
X129230583Y-113293075D01*
X129128771Y-113433206D01*
X129050130Y-113587549D01*
X129050125Y-113587561D01*
X128996597Y-113752299D01*
X128991741Y-113782962D01*
X128969500Y-113923389D01*
X120500500Y-113923389D01*
X120500500Y-107496055D01*
X128567300Y-107496055D01*
X128567300Y-107496056D01*
X128567300Y-109486444D01*
X128574402Y-109512949D01*
X128574403Y-109512952D01*
X128591184Y-109575583D01*
X128591185Y-109575586D01*
X128637330Y-109655512D01*
X129379915Y-110398097D01*
X129418479Y-110464892D01*
X129418479Y-110542020D01*
X129379915Y-110608815D01*
X129362146Y-110623992D01*
X129353083Y-110630577D01*
X129353070Y-110630588D01*
X129230583Y-110753075D01*
X129128771Y-110893206D01*
X129050130Y-111047549D01*
X129050125Y-111047561D01*
X128996597Y-111212299D01*
X128981266Y-111309100D01*
X128969500Y-111383389D01*
X128969500Y-111556611D01*
X128980196Y-111624141D01*
X128996597Y-111727700D01*
X129007834Y-111762282D01*
X129050127Y-111892445D01*
X129127705Y-112044700D01*
X129128771Y-112046793D01*
X129220103Y-112172499D01*
X129230586Y-112186928D01*
X129353072Y-112309414D01*
X129353075Y-112309416D01*
X129492699Y-112410860D01*
X129493212Y-112411232D01*
X129647555Y-112489873D01*
X129812299Y-112543402D01*
X129983389Y-112570500D01*
X129983393Y-112570500D01*
X130156607Y-112570500D01*
X130156611Y-112570500D01*
X130327701Y-112543402D01*
X130492445Y-112489873D01*
X130646788Y-112411232D01*
X130786928Y-112309414D01*
X130909414Y-112186928D01*
X131011232Y-112046788D01*
X131089873Y-111892445D01*
X131143402Y-111727701D01*
X131170500Y-111556611D01*
X131170500Y-111383389D01*
X131143402Y-111212299D01*
X131089873Y-111047555D01*
X131011232Y-110893212D01*
X131011227Y-110893205D01*
X131011226Y-110893203D01*
X130934123Y-110787080D01*
X130906482Y-110715075D01*
X130918547Y-110638897D01*
X130967086Y-110578957D01*
X131039091Y-110551316D01*
X131054666Y-110550500D01*
X131743700Y-110550500D01*
X131818200Y-110570462D01*
X131849059Y-110594141D01*
X134260062Y-113005143D01*
X136646531Y-115391612D01*
X136711788Y-115456869D01*
X136770292Y-115490647D01*
X136780559Y-115496575D01*
X136791712Y-115503014D01*
X136880856Y-115526900D01*
X153522744Y-115526900D01*
X153611888Y-115503014D01*
X153660476Y-115474961D01*
X153734975Y-115455000D01*
X162181303Y-115455000D01*
X162255803Y-115474962D01*
X162310341Y-115529500D01*
X162330303Y-115604000D01*
X162329738Y-115614534D01*
X162329814Y-115614539D01*
X162329600Y-115618532D01*
X162329600Y-115694900D01*
X162309638Y-115769400D01*
X162255100Y-115823938D01*
X162180600Y-115843900D01*
X140969250Y-115843900D01*
X140943298Y-115850855D01*
X140943297Y-115850855D01*
X140943296Y-115850856D01*
X140880112Y-115867786D01*
X140880110Y-115867786D01*
X140880110Y-115867787D01*
X140800187Y-115913930D01*
X132304359Y-124409759D01*
X132237564Y-124448323D01*
X132160436Y-124448323D01*
X132093641Y-124409759D01*
X132055077Y-124342964D01*
X132050000Y-124304400D01*
X132050000Y-124233930D01*
X132049999Y-124233922D01*
X132035466Y-124160860D01*
X131980101Y-124077999D01*
X131980100Y-124077998D01*
X131897239Y-124022633D01*
X131824177Y-124008100D01*
X131824174Y-124008100D01*
X130074826Y-124008100D01*
X130074822Y-124008100D01*
X130001760Y-124022633D01*
X129918899Y-124077998D01*
X129918898Y-124077999D01*
X129863533Y-124160860D01*
X129849000Y-124233922D01*
X129849000Y-125983277D01*
X129863533Y-126056339D01*
X129918238Y-126138211D01*
X129918899Y-126139201D01*
X130001760Y-126194566D01*
X130074826Y-126209100D01*
X130074830Y-126209100D01*
X131824170Y-126209100D01*
X131824174Y-126209100D01*
X131897240Y-126194566D01*
X131980101Y-126139201D01*
X132035466Y-126056340D01*
X132050000Y-125983274D01*
X132050000Y-125599515D01*
X132069962Y-125525015D01*
X132124500Y-125470477D01*
X132160433Y-125455592D01*
X132236488Y-125435214D01*
X132316412Y-125389070D01*
X141116941Y-116588541D01*
X141183736Y-116549977D01*
X141222300Y-116544900D01*
X152267208Y-116544900D01*
X152341708Y-116564862D01*
X152396246Y-116619400D01*
X152416208Y-116693900D01*
X152413592Y-116713783D01*
X152414775Y-116713939D01*
X152413500Y-116723625D01*
X152413500Y-116868576D01*
X152451016Y-117008587D01*
X152523488Y-117134111D01*
X152523489Y-117134112D01*
X152523491Y-117134115D01*
X152625985Y-117236609D01*
X152625987Y-117236610D01*
X152625988Y-117236611D01*
X152751512Y-117309083D01*
X152751514Y-117309083D01*
X152751515Y-117309084D01*
X152831962Y-117330640D01*
X152856504Y-117337216D01*
X152923298Y-117375780D01*
X154860488Y-119312970D01*
X154940412Y-119359114D01*
X155029556Y-119383000D01*
X155121844Y-119383000D01*
X160155915Y-119383000D01*
X160230415Y-119402962D01*
X160284953Y-119457500D01*
X160304915Y-119532000D01*
X160295521Y-119584069D01*
X160276108Y-119636117D01*
X160269700Y-119695714D01*
X160269700Y-120316463D01*
X160269702Y-120316488D01*
X160276108Y-120376078D01*
X160276109Y-120376084D01*
X160326402Y-120510929D01*
X160326404Y-120510933D01*
X160412652Y-120626144D01*
X160412655Y-120626147D01*
X160527866Y-120712395D01*
X160527870Y-120712397D01*
X160662717Y-120762691D01*
X160722314Y-120769099D01*
X160722321Y-120769099D01*
X160722327Y-120769100D01*
X160722332Y-120769099D01*
X160726308Y-120769313D01*
X160726239Y-120770597D01*
X160795145Y-120789030D01*
X160849706Y-120843544D01*
X160869700Y-120918036D01*
X160869700Y-121463321D01*
X160849738Y-121537821D01*
X160795200Y-121592359D01*
X160720700Y-121612321D01*
X160646200Y-121592359D01*
X160591662Y-121537821D01*
X160581095Y-121515393D01*
X160575399Y-121500123D01*
X160555128Y-121445774D01*
X160473187Y-121336313D01*
X160363726Y-121254372D01*
X160343293Y-121246751D01*
X160235613Y-121206587D01*
X160178999Y-121200501D01*
X160178990Y-121200500D01*
X160178985Y-121200500D01*
X160178978Y-121200500D01*
X159638021Y-121200500D01*
X159612649Y-121203227D01*
X159581386Y-121206588D01*
X159581383Y-121206588D01*
X159581382Y-121206589D01*
X159581380Y-121206589D01*
X159453276Y-121254371D01*
X159453272Y-121254373D01*
X159343813Y-121336313D01*
X159261873Y-121445772D01*
X159261871Y-121445776D01*
X159214087Y-121573886D01*
X159208001Y-121630500D01*
X159208000Y-121630521D01*
X159208000Y-122194100D01*
X159188038Y-122268600D01*
X159164359Y-122299459D01*
X155455227Y-126008591D01*
X155418947Y-126071430D01*
X155418948Y-126071431D01*
X155409086Y-126088511D01*
X155385200Y-126177655D01*
X155385200Y-127778146D01*
X155401459Y-127838825D01*
X155401460Y-127838829D01*
X155401461Y-127838830D01*
X155409086Y-127867288D01*
X155455230Y-127947212D01*
X157107788Y-129599770D01*
X157187712Y-129645914D01*
X157276856Y-129669800D01*
X193282244Y-129669800D01*
X193371388Y-129645914D01*
X193451312Y-129599770D01*
X193970841Y-129080239D01*
X194037636Y-129041676D01*
X194076200Y-129036599D01*
X194779664Y-129036599D01*
X194779672Y-129036599D01*
X194839283Y-129030191D01*
X194935247Y-128994398D01*
X194974129Y-128979897D01*
X194974133Y-128979895D01*
X195047251Y-128925158D01*
X195089346Y-128893646D01*
X195158474Y-128801303D01*
X195175595Y-128778433D01*
X195175597Y-128778429D01*
X195199228Y-128715069D01*
X195225891Y-128643583D01*
X195232300Y-128583973D01*
X195232299Y-127963228D01*
X195225891Y-127903617D01*
X195200018Y-127834247D01*
X195175597Y-127768770D01*
X195175595Y-127768766D01*
X195089347Y-127653555D01*
X195089344Y-127653552D01*
X194974133Y-127567304D01*
X194974129Y-127567302D01*
X194839282Y-127517008D01*
X194779676Y-127510600D01*
X193783936Y-127510600D01*
X193783911Y-127510602D01*
X193724321Y-127517008D01*
X193724315Y-127517009D01*
X193589470Y-127567302D01*
X193589466Y-127567304D01*
X193474255Y-127653552D01*
X193474252Y-127653555D01*
X193388004Y-127768766D01*
X193388002Y-127768770D01*
X193337708Y-127903617D01*
X193331300Y-127963214D01*
X193331300Y-128583963D01*
X193331301Y-128583974D01*
X193337702Y-128643519D01*
X193325816Y-128719726D01*
X193294915Y-128764801D01*
X193134560Y-128925158D01*
X193067765Y-128963723D01*
X193029200Y-128968800D01*
X187660795Y-128968800D01*
X187586295Y-128948838D01*
X187531757Y-128894300D01*
X187511795Y-128819800D01*
X187531757Y-128745300D01*
X187560625Y-128714479D01*
X187558524Y-128712378D01*
X187568897Y-128702003D01*
X187568901Y-128702001D01*
X187624266Y-128619140D01*
X187638800Y-128546074D01*
X187638800Y-126796726D01*
X187638799Y-126796722D01*
X187638082Y-126789440D01*
X187639680Y-126789282D01*
X187644130Y-126721254D01*
X187686971Y-126657118D01*
X187756141Y-126622996D01*
X187833104Y-126628030D01*
X187890588Y-126663770D01*
X187955888Y-126729070D01*
X188007682Y-126758973D01*
X188007684Y-126758974D01*
X188007685Y-126758975D01*
X188035807Y-126775212D01*
X188035809Y-126775212D01*
X188035812Y-126775214D01*
X188124956Y-126799100D01*
X188124957Y-126799100D01*
X188217244Y-126799100D01*
X193226989Y-126799100D01*
X193301489Y-126819062D01*
X193356027Y-126873600D01*
X193366595Y-126896031D01*
X193388002Y-126953429D01*
X193388004Y-126953433D01*
X193474252Y-127068644D01*
X193474255Y-127068647D01*
X193589466Y-127154895D01*
X193589470Y-127154897D01*
X193724317Y-127205191D01*
X193783914Y-127211599D01*
X193783918Y-127211599D01*
X193783927Y-127211600D01*
X194779672Y-127211599D01*
X194839283Y-127205191D01*
X194935247Y-127169398D01*
X194974129Y-127154897D01*
X194974133Y-127154895D01*
X195035566Y-127108906D01*
X195089346Y-127068646D01*
X195144573Y-126994873D01*
X195175595Y-126953433D01*
X195175597Y-126953429D01*
X195217481Y-126841131D01*
X195225891Y-126818583D01*
X195232300Y-126758973D01*
X195232299Y-126138228D01*
X195225891Y-126078617D01*
X195199772Y-126008588D01*
X195175597Y-125943770D01*
X195175595Y-125943766D01*
X195089347Y-125828555D01*
X195089344Y-125828552D01*
X194974133Y-125742304D01*
X194974129Y-125742302D01*
X194839282Y-125692008D01*
X194779676Y-125685600D01*
X193783936Y-125685600D01*
X193783911Y-125685602D01*
X193724321Y-125692008D01*
X193724315Y-125692009D01*
X193589470Y-125742302D01*
X193589466Y-125742304D01*
X193474255Y-125828552D01*
X193474252Y-125828555D01*
X193388004Y-125943766D01*
X193388002Y-125943770D01*
X193366595Y-126001169D01*
X193321857Y-126063996D01*
X193251699Y-126096037D01*
X193226989Y-126098100D01*
X188378000Y-126098100D01*
X188303500Y-126078138D01*
X188272641Y-126054459D01*
X183623541Y-121405359D01*
X183584977Y-121338564D01*
X183584977Y-121261436D01*
X183623541Y-121194641D01*
X183690336Y-121156077D01*
X183728900Y-121151000D01*
X185188601Y-121151000D01*
X185188602Y-121151000D01*
X185277064Y-121140377D01*
X185417842Y-121084861D01*
X185538422Y-120993422D01*
X185629861Y-120872842D01*
X185685377Y-120732064D01*
X185696000Y-120643602D01*
X185696000Y-119257398D01*
X185696000Y-119257394D01*
X186595000Y-119257394D01*
X186595000Y-120643605D01*
X186605622Y-120732063D01*
X186661138Y-120872841D01*
X186751068Y-120991432D01*
X186752578Y-120993422D01*
X186873158Y-121084861D01*
X187013936Y-121140377D01*
X187102398Y-121151000D01*
X187102399Y-121151000D01*
X189188601Y-121151000D01*
X189188602Y-121151000D01*
X189277064Y-121140377D01*
X189417842Y-121084861D01*
X189538422Y-120993422D01*
X189629861Y-120872842D01*
X189685377Y-120732064D01*
X189696000Y-120643602D01*
X189696000Y-119257398D01*
X189685377Y-119168936D01*
X189629861Y-119028158D01*
X189588484Y-118973594D01*
X189538423Y-118907579D01*
X189538420Y-118907576D01*
X189467190Y-118853561D01*
X189419890Y-118792640D01*
X189409387Y-118716230D01*
X189428181Y-118660342D01*
X189502577Y-118531484D01*
X189543500Y-118378757D01*
X189543500Y-118220643D01*
X189502577Y-118067916D01*
X189423520Y-117930984D01*
X189311716Y-117819180D01*
X189174784Y-117740123D01*
X189022057Y-117699200D01*
X188863943Y-117699200D01*
X188711216Y-117740123D01*
X188711214Y-117740123D01*
X188711214Y-117740124D01*
X188574283Y-117819180D01*
X188462480Y-117930983D01*
X188383424Y-118067914D01*
X188342500Y-118220641D01*
X188342500Y-118378758D01*
X188383424Y-118531488D01*
X188387161Y-118540509D01*
X188384583Y-118541576D01*
X188400508Y-118600991D01*
X188380550Y-118675492D01*
X188326016Y-118730033D01*
X188251517Y-118750000D01*
X187102394Y-118750000D01*
X187013936Y-118760622D01*
X186873158Y-118816138D01*
X186873158Y-118816139D01*
X186752579Y-118907576D01*
X186752576Y-118907579D01*
X186661139Y-119028158D01*
X186661138Y-119028158D01*
X186605622Y-119168936D01*
X186595000Y-119257394D01*
X185696000Y-119257394D01*
X185685377Y-119168936D01*
X185629861Y-119028158D01*
X185588484Y-118973594D01*
X185538423Y-118907579D01*
X185538421Y-118907577D01*
X185514424Y-118889380D01*
X185467123Y-118828458D01*
X185456620Y-118752049D01*
X185485729Y-118680625D01*
X185499087Y-118665304D01*
X186388852Y-117775541D01*
X186455647Y-117736977D01*
X186494211Y-117731900D01*
X187183359Y-117731900D01*
X187183366Y-117731900D01*
X187213799Y-117729046D01*
X187341982Y-117684193D01*
X187451250Y-117603550D01*
X187531893Y-117494282D01*
X187576746Y-117366099D01*
X187579600Y-117335666D01*
X187579600Y-116927134D01*
X187576746Y-116896701D01*
X187574786Y-116891099D01*
X187569021Y-116814187D01*
X187602485Y-116744697D01*
X187610065Y-116736527D01*
X187727192Y-116619400D01*
X187932080Y-116414513D01*
X187984807Y-116323188D01*
X188012100Y-116221327D01*
X188012100Y-116115873D01*
X188012100Y-114833844D01*
X188012101Y-114833831D01*
X188012101Y-114716378D01*
X188012101Y-114716374D01*
X187984807Y-114614513D01*
X187984806Y-114614512D01*
X187984806Y-114614510D01*
X187946265Y-114547756D01*
X187946264Y-114547755D01*
X187932079Y-114523186D01*
X187908534Y-114499641D01*
X187857513Y-114448620D01*
X187857510Y-114448618D01*
X186649141Y-113240248D01*
X186610577Y-113173453D01*
X186605500Y-113134889D01*
X186605500Y-113083443D01*
X186605186Y-113082271D01*
X186605185Y-113081057D01*
X186604225Y-113073757D01*
X186605185Y-113073630D01*
X186605182Y-113005143D01*
X186643743Y-112938346D01*
X186710536Y-112899779D01*
X186749107Y-112894700D01*
X189317500Y-112894700D01*
X189392000Y-112914662D01*
X189422859Y-112938341D01*
X191810459Y-115325941D01*
X191849023Y-115392736D01*
X191849023Y-115469864D01*
X191837860Y-115498945D01*
X191793454Y-115586094D01*
X191793454Y-115586096D01*
X191778600Y-115679881D01*
X191778600Y-115679882D01*
X191778600Y-115679885D01*
X191778600Y-116042918D01*
X191790155Y-116115873D01*
X191793454Y-116136704D01*
X191851050Y-116249742D01*
X191940758Y-116339450D01*
X192053796Y-116397046D01*
X192147581Y-116411900D01*
X193535618Y-116411899D01*
X193629404Y-116397046D01*
X193742442Y-116339450D01*
X193832150Y-116249742D01*
X193889746Y-116136704D01*
X193904600Y-116042919D01*
X193904599Y-115679882D01*
X193889746Y-115586096D01*
X193832150Y-115473058D01*
X193742442Y-115383350D01*
X193703457Y-115363486D01*
X193629405Y-115325754D01*
X193613773Y-115323278D01*
X193535619Y-115310900D01*
X193535614Y-115310900D01*
X192848500Y-115310900D01*
X192774000Y-115290938D01*
X192743141Y-115267259D01*
X189739612Y-112263730D01*
X189659687Y-112217585D01*
X189649991Y-112214987D01*
X189570544Y-112193700D01*
X178289500Y-112193700D01*
X178215000Y-112173738D01*
X178160462Y-112119200D01*
X178140500Y-112044700D01*
X178140500Y-111570956D01*
X178116614Y-111481812D01*
X178116612Y-111481808D01*
X178095483Y-111445211D01*
X178095483Y-111445212D01*
X178070470Y-111401888D01*
X171243012Y-104574430D01*
X171230011Y-104566924D01*
X171163089Y-104528286D01*
X171073944Y-104504400D01*
X165973842Y-104504400D01*
X165899342Y-104484438D01*
X165868492Y-104460768D01*
X165862589Y-104454865D01*
X165824021Y-104388076D01*
X165824015Y-104310948D01*
X165862573Y-104244150D01*
X165929365Y-104205580D01*
X165967941Y-104200500D01*
X193155944Y-104200500D01*
X193245088Y-104176614D01*
X193325012Y-104130470D01*
X195829041Y-101626441D01*
X195895836Y-101587877D01*
X195972964Y-101587877D01*
X196039759Y-101626441D01*
X196078323Y-101693236D01*
X196083400Y-101731800D01*
X196083400Y-101802277D01*
X196097933Y-101875339D01*
X196105587Y-101886793D01*
X196153299Y-101958201D01*
X196236160Y-102013566D01*
X196309226Y-102028100D01*
X196309230Y-102028100D01*
X198058570Y-102028100D01*
X198058574Y-102028100D01*
X198131640Y-102013566D01*
X198214501Y-101958201D01*
X198269866Y-101875340D01*
X198284400Y-101802274D01*
X198284400Y-100052926D01*
X198269866Y-99979860D01*
X198214501Y-99896999D01*
X198134287Y-99843402D01*
X198131639Y-99841633D01*
X198058577Y-99827100D01*
X198058574Y-99827100D01*
X196309226Y-99827100D01*
X196309222Y-99827100D01*
X196236160Y-99841633D01*
X196153299Y-99896998D01*
X196153298Y-99896999D01*
X196097933Y-99979860D01*
X196083400Y-100052922D01*
X196083400Y-100436684D01*
X196063438Y-100511184D01*
X196008900Y-100565722D01*
X195972967Y-100580606D01*
X195926451Y-100593071D01*
X195926449Y-100593071D01*
X195926448Y-100593072D01*
X195917083Y-100595581D01*
X195896912Y-100600985D01*
X195816987Y-100647130D01*
X193008259Y-103455859D01*
X192941464Y-103494423D01*
X192902900Y-103499500D01*
X154077838Y-103499500D01*
X154003338Y-103479538D01*
X153948800Y-103425000D01*
X153945078Y-103418144D01*
X153871230Y-103273209D01*
X153769416Y-103133075D01*
X153769414Y-103133072D01*
X153646928Y-103010586D01*
X153646924Y-103010583D01*
X153506793Y-102908771D01*
X153506790Y-102908769D01*
X153506788Y-102908768D01*
X153352445Y-102830127D01*
X153304821Y-102814653D01*
X153187700Y-102776597D01*
X153090086Y-102761137D01*
X153016611Y-102749500D01*
X152843389Y-102749500D01*
X152777037Y-102760009D01*
X152672299Y-102776597D01*
X152507561Y-102830125D01*
X152507555Y-102830127D01*
X152507549Y-102830129D01*
X152507549Y-102830130D01*
X152353206Y-102908771D01*
X152213075Y-103010583D01*
X152090583Y-103133075D01*
X151988771Y-103273206D01*
X151910130Y-103427549D01*
X151910125Y-103427561D01*
X151856597Y-103592299D01*
X151838228Y-103708282D01*
X151829500Y-103763389D01*
X151829500Y-103936611D01*
X151841137Y-104010086D01*
X151856597Y-104107700D01*
X151863996Y-104130470D01*
X151910127Y-104272445D01*
X151987348Y-104424000D01*
X151988771Y-104426793D01*
X152062511Y-104528286D01*
X152090586Y-104566928D01*
X152213072Y-104689414D01*
X152353212Y-104791232D01*
X152507555Y-104869873D01*
X152672299Y-104923402D01*
X152843389Y-104950500D01*
X152843393Y-104950500D01*
X153016607Y-104950500D01*
X153016611Y-104950500D01*
X153187701Y-104923402D01*
X153352445Y-104869873D01*
X153506788Y-104791232D01*
X153646928Y-104689414D01*
X153769414Y-104566928D01*
X153871232Y-104426788D01*
X153945078Y-104281856D01*
X153996687Y-104224538D01*
X154070040Y-104200704D01*
X154077838Y-104200500D01*
X165000259Y-104200500D01*
X165074759Y-104220462D01*
X165129297Y-104275000D01*
X165149259Y-104349500D01*
X165129297Y-104424000D01*
X165105621Y-104454854D01*
X165056076Y-104504400D01*
X165043589Y-104516887D01*
X165043588Y-104516888D01*
X164971116Y-104642412D01*
X164933600Y-104782423D01*
X164933600Y-104927376D01*
X164971116Y-105067387D01*
X165043588Y-105192911D01*
X165043589Y-105192912D01*
X165043591Y-105192915D01*
X165146085Y-105295409D01*
X165146087Y-105295410D01*
X165146088Y-105295411D01*
X165271612Y-105367883D01*
X165271614Y-105367883D01*
X165271615Y-105367884D01*
X165411625Y-105405400D01*
X165556575Y-105405400D01*
X165696585Y-105367884D01*
X165822115Y-105295409D01*
X165868484Y-105249040D01*
X165935279Y-105210477D01*
X165973842Y-105205400D01*
X170820900Y-105205400D01*
X170895400Y-105225362D01*
X170926259Y-105249041D01*
X177395859Y-111718641D01*
X177434423Y-111785436D01*
X177439500Y-111824000D01*
X177439500Y-112337300D01*
X177419538Y-112411800D01*
X177395859Y-112442659D01*
X176622859Y-113215659D01*
X176556064Y-113254223D01*
X176517500Y-113259300D01*
X175469846Y-113259300D01*
X175395346Y-113239338D01*
X175340808Y-113184800D01*
X175320846Y-113110300D01*
X175340808Y-113035800D01*
X175349303Y-113022720D01*
X175360726Y-113006996D01*
X175360728Y-113006993D01*
X175360732Y-113006988D01*
X175439373Y-112852645D01*
X175492902Y-112687901D01*
X175520000Y-112516811D01*
X175520000Y-112343589D01*
X175492902Y-112172499D01*
X175439373Y-112007755D01*
X175360732Y-111853412D01*
X175258914Y-111713272D01*
X175136428Y-111590786D01*
X175136424Y-111590783D01*
X174996293Y-111488971D01*
X174996290Y-111488969D01*
X174996288Y-111488968D01*
X174841945Y-111410327D01*
X174794321Y-111394853D01*
X174677200Y-111356797D01*
X174579586Y-111341337D01*
X174506111Y-111329700D01*
X174332889Y-111329700D01*
X174266537Y-111340209D01*
X174161799Y-111356797D01*
X174023030Y-111401887D01*
X173997055Y-111410327D01*
X173997049Y-111410329D01*
X173997049Y-111410330D01*
X173842706Y-111488971D01*
X173702575Y-111590783D01*
X173580083Y-111713275D01*
X173478269Y-111853409D01*
X173404422Y-111998344D01*
X173352813Y-112055662D01*
X173279460Y-112079496D01*
X173271662Y-112079700D01*
X168889399Y-112079700D01*
X168814899Y-112059738D01*
X168760361Y-112005200D01*
X168740399Y-111930700D01*
X168740399Y-111745936D01*
X168740399Y-111745932D01*
X168740399Y-111745928D01*
X168733991Y-111686317D01*
X168701969Y-111600462D01*
X168683697Y-111551470D01*
X168683695Y-111551466D01*
X168597447Y-111436255D01*
X168597444Y-111436252D01*
X168482233Y-111350004D01*
X168482229Y-111350002D01*
X168347382Y-111299708D01*
X168287776Y-111293300D01*
X167667036Y-111293300D01*
X167667025Y-111293301D01*
X167607479Y-111299702D01*
X167531272Y-111287816D01*
X167486196Y-111256914D01*
X167178812Y-110949530D01*
X167098889Y-110903386D01*
X167009744Y-110879500D01*
X163665856Y-110879500D01*
X163576710Y-110903386D01*
X163496787Y-110949530D01*
X161865559Y-112580759D01*
X161798764Y-112619323D01*
X161760200Y-112624400D01*
X161694625Y-112624400D01*
X161554612Y-112661916D01*
X161429088Y-112734388D01*
X161326588Y-112836888D01*
X161254116Y-112962412D01*
X161216600Y-113102423D01*
X161216600Y-113247376D01*
X161254117Y-113387388D01*
X161282183Y-113435999D01*
X161302146Y-113510499D01*
X161282184Y-113584999D01*
X161227647Y-113639537D01*
X161153147Y-113659500D01*
X154077838Y-113659500D01*
X154003338Y-113639538D01*
X153948800Y-113585000D01*
X153945078Y-113578144D01*
X153911842Y-113512915D01*
X153871232Y-113433212D01*
X153841348Y-113392081D01*
X153813707Y-113320077D01*
X153825772Y-113243898D01*
X153874309Y-113183958D01*
X153946314Y-113156316D01*
X153961891Y-113155500D01*
X159073258Y-113155500D01*
X159147758Y-113175462D01*
X159178616Y-113199140D01*
X159224985Y-113245509D01*
X159224987Y-113245510D01*
X159224988Y-113245511D01*
X159350512Y-113317983D01*
X159350514Y-113317983D01*
X159350515Y-113317984D01*
X159490525Y-113355500D01*
X159635475Y-113355500D01*
X159775485Y-113317984D01*
X159901015Y-113245509D01*
X160003509Y-113143015D01*
X160075984Y-113017485D01*
X160113500Y-112877475D01*
X160113500Y-112732525D01*
X160075984Y-112592515D01*
X160075983Y-112592514D01*
X160075983Y-112592512D01*
X160003511Y-112466988D01*
X160003510Y-112466987D01*
X160003509Y-112466985D01*
X159901015Y-112364491D01*
X159901012Y-112364489D01*
X159901011Y-112364488D01*
X159775487Y-112292016D01*
X159635475Y-112254500D01*
X159490525Y-112254500D01*
X159350512Y-112292016D01*
X159224988Y-112364488D01*
X159178616Y-112410860D01*
X159111821Y-112449423D01*
X159073258Y-112454500D01*
X153861559Y-112454500D01*
X153787059Y-112434538D01*
X153732521Y-112380000D01*
X153712559Y-112305500D01*
X153732521Y-112231000D01*
X153756196Y-112200145D01*
X153769414Y-112186928D01*
X153871232Y-112046788D01*
X153949873Y-111892445D01*
X154003402Y-111727701D01*
X154030500Y-111556611D01*
X154030500Y-111383389D01*
X154003402Y-111212299D01*
X153949873Y-111047555D01*
X153871232Y-110893212D01*
X153871227Y-110893205D01*
X153871226Y-110893203D01*
X153794123Y-110787080D01*
X153766482Y-110715075D01*
X153778547Y-110638897D01*
X153827086Y-110578957D01*
X153899091Y-110551316D01*
X153914666Y-110550500D01*
X156081300Y-110550500D01*
X156155800Y-110570462D01*
X156186659Y-110594141D01*
X156796259Y-111203741D01*
X156834823Y-111270536D01*
X156839900Y-111309100D01*
X156839900Y-111374676D01*
X156877416Y-111514687D01*
X156949888Y-111640211D01*
X156949889Y-111640212D01*
X156949891Y-111640215D01*
X157052385Y-111742709D01*
X157052387Y-111742710D01*
X157052388Y-111742711D01*
X157177912Y-111815183D01*
X157177914Y-111815183D01*
X157177915Y-111815184D01*
X157317925Y-111852700D01*
X157462875Y-111852700D01*
X157602885Y-111815184D01*
X157728415Y-111742709D01*
X157830909Y-111640215D01*
X157903384Y-111514685D01*
X157940900Y-111374675D01*
X157940900Y-111229725D01*
X157903384Y-111089715D01*
X157903383Y-111089714D01*
X157903383Y-111089712D01*
X157830911Y-110964188D01*
X157830910Y-110964187D01*
X157830909Y-110964185D01*
X157728415Y-110861691D01*
X157728412Y-110861689D01*
X157728411Y-110861688D01*
X157602887Y-110789216D01*
X157462875Y-110751700D01*
X157397300Y-110751700D01*
X157322800Y-110731738D01*
X157291941Y-110708059D01*
X156503412Y-109919530D01*
X156423487Y-109873385D01*
X156418257Y-109871984D01*
X156415453Y-109871233D01*
X156415448Y-109871230D01*
X156415448Y-109871231D01*
X156334344Y-109849500D01*
X153914666Y-109849500D01*
X153840166Y-109829538D01*
X153785628Y-109775000D01*
X153765666Y-109700500D01*
X153785628Y-109626000D01*
X153794123Y-109612920D01*
X153854189Y-109530244D01*
X153871232Y-109506788D01*
X153949873Y-109352445D01*
X154003402Y-109187701D01*
X154030500Y-109016611D01*
X154030500Y-108843389D01*
X154003402Y-108672299D01*
X153949873Y-108507555D01*
X153871232Y-108353212D01*
X153871227Y-108353205D01*
X153871226Y-108353203D01*
X153794123Y-108247080D01*
X153766482Y-108175075D01*
X153778547Y-108098897D01*
X153827086Y-108038957D01*
X153899091Y-108011316D01*
X153914666Y-108010500D01*
X157989700Y-108010500D01*
X158064200Y-108030462D01*
X158095059Y-108054141D01*
X158108659Y-108067741D01*
X158147223Y-108134536D01*
X158152300Y-108173100D01*
X158152300Y-108238676D01*
X158189816Y-108378687D01*
X158262288Y-108504211D01*
X158262289Y-108504212D01*
X158262291Y-108504215D01*
X158364785Y-108606709D01*
X158364787Y-108606710D01*
X158364788Y-108606711D01*
X158490312Y-108679183D01*
X158490314Y-108679183D01*
X158490315Y-108679184D01*
X158630325Y-108716700D01*
X158775275Y-108716700D01*
X158915285Y-108679184D01*
X159040815Y-108606709D01*
X159143309Y-108504215D01*
X159215784Y-108378685D01*
X159253300Y-108238675D01*
X159253300Y-108093725D01*
X159215784Y-107953715D01*
X159215783Y-107953714D01*
X159215783Y-107953712D01*
X159143311Y-107828188D01*
X159143310Y-107828187D01*
X159143309Y-107828185D01*
X159040815Y-107725691D01*
X159040812Y-107725689D01*
X159040811Y-107725688D01*
X158915287Y-107653216D01*
X158775275Y-107615700D01*
X158709700Y-107615700D01*
X158635200Y-107595738D01*
X158604341Y-107572059D01*
X158411812Y-107379530D01*
X158331887Y-107333385D01*
X158326657Y-107331984D01*
X158323853Y-107331233D01*
X158323848Y-107331230D01*
X158323848Y-107331231D01*
X158242744Y-107309500D01*
X153914666Y-107309500D01*
X153840166Y-107289538D01*
X153785628Y-107235000D01*
X153765666Y-107160500D01*
X153785628Y-107086000D01*
X153794123Y-107072920D01*
X153871226Y-106966796D01*
X153871228Y-106966793D01*
X153871232Y-106966788D01*
X153949873Y-106812445D01*
X154003402Y-106647701D01*
X154030500Y-106476611D01*
X154030500Y-106303389D01*
X154003402Y-106132299D01*
X153949873Y-105967555D01*
X153871232Y-105813212D01*
X153769414Y-105673072D01*
X153646928Y-105550586D01*
X153646924Y-105550583D01*
X153506793Y-105448771D01*
X153506790Y-105448769D01*
X153506788Y-105448768D01*
X153352445Y-105370127D01*
X153304821Y-105354653D01*
X153187700Y-105316597D01*
X153090086Y-105301137D01*
X153016611Y-105289500D01*
X152843389Y-105289500D01*
X152777037Y-105300009D01*
X152672299Y-105316597D01*
X152514461Y-105367883D01*
X152507555Y-105370127D01*
X152507549Y-105370129D01*
X152507549Y-105370130D01*
X152353206Y-105448771D01*
X152213075Y-105550583D01*
X152090583Y-105673075D01*
X151988771Y-105813206D01*
X151910130Y-105967549D01*
X151910125Y-105967561D01*
X151856597Y-106132299D01*
X151838228Y-106248282D01*
X151829500Y-106303389D01*
X151829500Y-106476611D01*
X151841137Y-106550086D01*
X151856597Y-106647700D01*
X151894653Y-106764821D01*
X151910127Y-106812445D01*
X151988768Y-106966788D01*
X151988771Y-106966792D01*
X151988773Y-106966796D01*
X152065877Y-107072920D01*
X152093518Y-107144925D01*
X152081453Y-107221103D01*
X152032914Y-107281043D01*
X151960909Y-107308684D01*
X151945334Y-107309500D01*
X136626900Y-107309500D01*
X136552400Y-107289538D01*
X136521541Y-107265859D01*
X131129484Y-101873802D01*
X131090920Y-101807007D01*
X131090920Y-101729879D01*
X131093120Y-101722450D01*
X131143402Y-101567701D01*
X131170500Y-101396611D01*
X131170500Y-101223389D01*
X131143402Y-101052299D01*
X131089873Y-100887555D01*
X131011232Y-100733212D01*
X130909414Y-100593072D01*
X130786928Y-100470586D01*
X130740266Y-100436684D01*
X130646793Y-100368771D01*
X130646790Y-100368769D01*
X130646788Y-100368768D01*
X130492445Y-100290127D01*
X130444821Y-100274653D01*
X130327700Y-100236597D01*
X130230086Y-100221137D01*
X130156611Y-100209500D01*
X129983389Y-100209500D01*
X129917037Y-100220009D01*
X129812299Y-100236597D01*
X129647561Y-100290125D01*
X129647555Y-100290127D01*
X129647549Y-100290129D01*
X129647549Y-100290130D01*
X129493206Y-100368771D01*
X129353075Y-100470583D01*
X129353072Y-100470586D01*
X129230586Y-100593072D01*
X129195121Y-100641885D01*
X129128771Y-100733206D01*
X129050130Y-100887549D01*
X129050125Y-100887561D01*
X128996597Y-101052299D01*
X128978228Y-101168282D01*
X128969500Y-101223389D01*
X128969500Y-101396611D01*
X128981137Y-101470086D01*
X128996597Y-101567700D01*
X129015684Y-101626441D01*
X129050127Y-101732445D01*
X129122935Y-101875339D01*
X129128771Y-101886793D01*
X129220878Y-102013566D01*
X129230586Y-102026928D01*
X129353072Y-102149414D01*
X129493212Y-102251232D01*
X129647555Y-102329873D01*
X129812299Y-102383402D01*
X129983389Y-102410500D01*
X129983393Y-102410500D01*
X130156607Y-102410500D01*
X130156611Y-102410500D01*
X130327701Y-102383402D01*
X130482403Y-102333135D01*
X130559421Y-102329099D01*
X130628143Y-102364114D01*
X130633802Y-102369484D01*
X135981288Y-107716970D01*
X136019852Y-107783765D01*
X136019852Y-107860893D01*
X135984940Y-107921366D01*
X135985432Y-107921744D01*
X135982566Y-107925478D01*
X135981294Y-107927682D01*
X135979492Y-107929483D01*
X135979488Y-107929488D01*
X135907016Y-108055012D01*
X135869500Y-108195023D01*
X135869500Y-108339976D01*
X135907016Y-108479987D01*
X135979488Y-108605511D01*
X135979489Y-108605512D01*
X135979491Y-108605515D01*
X136081985Y-108708009D01*
X136081987Y-108708010D01*
X136081988Y-108708011D01*
X136207512Y-108780483D01*
X136207514Y-108780483D01*
X136207515Y-108780484D01*
X136347525Y-108818000D01*
X136413100Y-108818000D01*
X136487600Y-108837962D01*
X136518459Y-108861641D01*
X138137288Y-110480470D01*
X138217212Y-110526614D01*
X138306356Y-110550500D01*
X138306357Y-110550500D01*
X138398644Y-110550500D01*
X151945334Y-110550500D01*
X152019834Y-110570462D01*
X152074372Y-110625000D01*
X152094334Y-110699500D01*
X152074372Y-110774000D01*
X152065877Y-110787080D01*
X151988773Y-110893203D01*
X151988769Y-110893210D01*
X151988768Y-110893212D01*
X151960073Y-110949530D01*
X151910130Y-111047549D01*
X151910125Y-111047561D01*
X151856597Y-111212299D01*
X151841266Y-111309100D01*
X151829500Y-111383389D01*
X151829500Y-111556611D01*
X151840196Y-111624141D01*
X151856597Y-111727700D01*
X151867834Y-111762282D01*
X151910127Y-111892445D01*
X151987705Y-112044700D01*
X151988771Y-112046793D01*
X152080103Y-112172499D01*
X152090586Y-112186928D01*
X152103801Y-112200143D01*
X152142364Y-112266936D01*
X152142364Y-112344064D01*
X152103800Y-112410859D01*
X152037005Y-112449423D01*
X151998441Y-112454500D01*
X139231900Y-112454500D01*
X139157400Y-112434538D01*
X139126541Y-112410859D01*
X131129484Y-104413802D01*
X131090920Y-104347007D01*
X131090920Y-104269879D01*
X131093120Y-104262450D01*
X131143402Y-104107701D01*
X131170500Y-103936611D01*
X131170500Y-103763389D01*
X131143402Y-103592299D01*
X131089873Y-103427555D01*
X131011232Y-103273212D01*
X130909414Y-103133072D01*
X130786928Y-103010586D01*
X130786924Y-103010583D01*
X130646793Y-102908771D01*
X130646790Y-102908769D01*
X130646788Y-102908768D01*
X130492445Y-102830127D01*
X130444821Y-102814653D01*
X130327700Y-102776597D01*
X130230086Y-102761137D01*
X130156611Y-102749500D01*
X129983389Y-102749500D01*
X129917037Y-102760009D01*
X129812299Y-102776597D01*
X129647561Y-102830125D01*
X129647555Y-102830127D01*
X129647549Y-102830129D01*
X129647549Y-102830130D01*
X129493206Y-102908771D01*
X129353075Y-103010583D01*
X129230583Y-103133075D01*
X129128771Y-103273206D01*
X129050130Y-103427549D01*
X129050125Y-103427561D01*
X128996597Y-103592299D01*
X128978228Y-103708282D01*
X128969500Y-103763389D01*
X128969500Y-103936611D01*
X128981137Y-104010086D01*
X128996597Y-104107700D01*
X129003996Y-104130470D01*
X129050127Y-104272445D01*
X129127348Y-104424000D01*
X129128771Y-104426793D01*
X129202511Y-104528286D01*
X129230586Y-104566928D01*
X129353072Y-104689414D01*
X129493212Y-104791232D01*
X129647555Y-104869873D01*
X129812299Y-104923402D01*
X129983389Y-104950500D01*
X129983393Y-104950500D01*
X130156607Y-104950500D01*
X130156611Y-104950500D01*
X130327701Y-104923402D01*
X130482403Y-104873135D01*
X130559421Y-104869099D01*
X130628143Y-104904114D01*
X130633802Y-104909484D01*
X138809787Y-113085469D01*
X138825819Y-113094725D01*
X138851879Y-113109771D01*
X138851883Y-113109773D01*
X138889712Y-113131614D01*
X138978856Y-113155500D01*
X151898109Y-113155500D01*
X151972609Y-113175462D01*
X152027147Y-113230000D01*
X152047109Y-113304500D01*
X152027147Y-113379000D01*
X152018651Y-113392082D01*
X151988772Y-113433205D01*
X151988769Y-113433210D01*
X151988768Y-113433212D01*
X151949389Y-113510499D01*
X151910130Y-113587549D01*
X151910125Y-113587561D01*
X151856597Y-113752299D01*
X151851741Y-113782962D01*
X151829500Y-113923389D01*
X151829500Y-114096611D01*
X151831510Y-114109300D01*
X151856597Y-114267700D01*
X151886750Y-114360500D01*
X151910127Y-114432445D01*
X151988768Y-114586788D01*
X151988771Y-114586792D01*
X151990604Y-114589315D01*
X151991087Y-114590573D01*
X151991833Y-114591791D01*
X151991607Y-114591929D01*
X152018247Y-114661319D01*
X152006185Y-114737498D01*
X151957649Y-114797440D01*
X151885645Y-114825083D01*
X151870064Y-114825900D01*
X137133899Y-114825900D01*
X137059399Y-114805938D01*
X137028540Y-114782259D01*
X134610772Y-112364491D01*
X132165812Y-109919530D01*
X132085887Y-109873385D01*
X132080657Y-109871984D01*
X132077853Y-109871233D01*
X132077848Y-109871230D01*
X132077848Y-109871231D01*
X131996744Y-109849500D01*
X131054666Y-109849500D01*
X130980166Y-109829538D01*
X130925628Y-109775000D01*
X130905666Y-109700500D01*
X130925628Y-109626000D01*
X130934123Y-109612920D01*
X130994189Y-109530244D01*
X131011232Y-109506788D01*
X131089873Y-109352445D01*
X131143402Y-109187701D01*
X131170500Y-109016611D01*
X131170500Y-108843389D01*
X131143402Y-108672299D01*
X131089873Y-108507555D01*
X131011232Y-108353212D01*
X131011225Y-108353203D01*
X130909416Y-108213075D01*
X130909414Y-108213072D01*
X130786928Y-108090586D01*
X130736766Y-108054141D01*
X130646793Y-107988771D01*
X130646790Y-107988769D01*
X130646788Y-107988768D01*
X130492445Y-107910127D01*
X130444821Y-107894653D01*
X130327700Y-107856597D01*
X130230086Y-107841137D01*
X130156611Y-107829500D01*
X129983389Y-107829500D01*
X129917037Y-107840009D01*
X129812299Y-107856597D01*
X129647561Y-107910125D01*
X129647555Y-107910127D01*
X129493212Y-107988768D01*
X129493208Y-107988770D01*
X129487997Y-107991426D01*
X129487236Y-107989932D01*
X129421155Y-108009485D01*
X129346164Y-107991457D01*
X129290233Y-107938349D01*
X129268350Y-107864390D01*
X129268300Y-107860535D01*
X129268300Y-107749099D01*
X129288262Y-107674599D01*
X129311938Y-107643743D01*
X129506198Y-107449482D01*
X129572991Y-107410920D01*
X129650119Y-107410920D01*
X129657580Y-107413130D01*
X129812299Y-107463402D01*
X129983389Y-107490500D01*
X129983393Y-107490500D01*
X130156607Y-107490500D01*
X130156611Y-107490500D01*
X130327701Y-107463402D01*
X130492445Y-107409873D01*
X130646788Y-107331232D01*
X130786928Y-107229414D01*
X130909414Y-107106928D01*
X131011232Y-106966788D01*
X131089873Y-106812445D01*
X131143402Y-106647701D01*
X131170500Y-106476611D01*
X131170500Y-106303389D01*
X131143402Y-106132299D01*
X131089873Y-105967555D01*
X131011232Y-105813212D01*
X130909414Y-105673072D01*
X130786928Y-105550586D01*
X130786924Y-105550583D01*
X130646793Y-105448771D01*
X130646790Y-105448769D01*
X130646788Y-105448768D01*
X130492445Y-105370127D01*
X130444821Y-105354653D01*
X130327700Y-105316597D01*
X130230086Y-105301137D01*
X130156611Y-105289500D01*
X129983389Y-105289500D01*
X129917037Y-105300009D01*
X129812299Y-105316597D01*
X129654461Y-105367883D01*
X129647555Y-105370127D01*
X129647549Y-105370129D01*
X129647549Y-105370130D01*
X129493206Y-105448771D01*
X129353075Y-105550583D01*
X129230583Y-105673075D01*
X129128771Y-105813206D01*
X129050130Y-105967549D01*
X129050125Y-105967561D01*
X128996597Y-106132299D01*
X128978228Y-106248282D01*
X128969500Y-106303389D01*
X128969500Y-106476611D01*
X128981137Y-106550086D01*
X128996597Y-106647700D01*
X129046863Y-106802399D01*
X129050900Y-106879421D01*
X129015885Y-106948143D01*
X129010515Y-106953802D01*
X128637330Y-107326987D01*
X128591186Y-107406910D01*
X128567300Y-107496055D01*
X120500500Y-107496055D01*
X120500500Y-98683389D01*
X128969500Y-98683389D01*
X128969500Y-98856611D01*
X128981137Y-98930086D01*
X128996597Y-99027700D01*
X129034653Y-99144821D01*
X129050127Y-99192445D01*
X129050130Y-99192450D01*
X129128771Y-99346793D01*
X129230583Y-99486924D01*
X129230586Y-99486928D01*
X129353072Y-99609414D01*
X129493212Y-99711232D01*
X129647555Y-99789873D01*
X129812299Y-99843402D01*
X129983389Y-99870500D01*
X129983393Y-99870500D01*
X130156607Y-99870500D01*
X130156611Y-99870500D01*
X130327701Y-99843402D01*
X130492445Y-99789873D01*
X130646788Y-99711232D01*
X130786928Y-99609414D01*
X130909414Y-99486928D01*
X131011232Y-99346788D01*
X131089873Y-99192445D01*
X131143402Y-99027701D01*
X131170500Y-98856611D01*
X131170500Y-98683389D01*
X151829500Y-98683389D01*
X151829500Y-98856611D01*
X151841137Y-98930086D01*
X151856597Y-99027700D01*
X151894653Y-99144821D01*
X151910127Y-99192445D01*
X151910130Y-99192450D01*
X151988771Y-99346793D01*
X152090583Y-99486924D01*
X152090586Y-99486928D01*
X152213072Y-99609414D01*
X152353212Y-99711232D01*
X152507555Y-99789873D01*
X152672299Y-99843402D01*
X152843389Y-99870500D01*
X152843393Y-99870500D01*
X153016607Y-99870500D01*
X153016611Y-99870500D01*
X153187701Y-99843402D01*
X153352445Y-99789873D01*
X153506788Y-99711232D01*
X153646928Y-99609414D01*
X153769414Y-99486928D01*
X153871232Y-99346788D01*
X153949873Y-99192445D01*
X154003402Y-99027701D01*
X154030500Y-98856611D01*
X154030500Y-98683389D01*
X154003402Y-98512299D01*
X153949873Y-98347555D01*
X153871232Y-98193212D01*
X153769414Y-98053072D01*
X153646928Y-97930586D01*
X153646924Y-97930583D01*
X153506793Y-97828771D01*
X153506790Y-97828769D01*
X153506788Y-97828768D01*
X153352445Y-97750127D01*
X153304821Y-97734653D01*
X153187700Y-97696597D01*
X153090086Y-97681137D01*
X153016611Y-97669500D01*
X152843389Y-97669500D01*
X152777037Y-97680009D01*
X152672299Y-97696597D01*
X152507561Y-97750125D01*
X152507555Y-97750127D01*
X152507549Y-97750129D01*
X152507549Y-97750130D01*
X152353206Y-97828771D01*
X152213075Y-97930583D01*
X152090583Y-98053075D01*
X151988771Y-98193206D01*
X151910130Y-98347549D01*
X151910125Y-98347561D01*
X151856597Y-98512299D01*
X151838228Y-98628282D01*
X151829500Y-98683389D01*
X131170500Y-98683389D01*
X131143402Y-98512299D01*
X131089873Y-98347555D01*
X131011232Y-98193212D01*
X130909414Y-98053072D01*
X130786928Y-97930586D01*
X130786924Y-97930583D01*
X130646793Y-97828771D01*
X130646790Y-97828769D01*
X130646788Y-97828768D01*
X130492445Y-97750127D01*
X130444821Y-97734653D01*
X130327700Y-97696597D01*
X130230086Y-97681137D01*
X130156611Y-97669500D01*
X129983389Y-97669500D01*
X129917037Y-97680009D01*
X129812299Y-97696597D01*
X129647561Y-97750125D01*
X129647555Y-97750127D01*
X129647549Y-97750129D01*
X129647549Y-97750130D01*
X129493206Y-97828771D01*
X129353075Y-97930583D01*
X129230583Y-98053075D01*
X129128771Y-98193206D01*
X129050130Y-98347549D01*
X129050125Y-98347561D01*
X128996597Y-98512299D01*
X128978228Y-98628282D01*
X128969500Y-98683389D01*
X120500500Y-98683389D01*
X120500500Y-85983389D01*
X128969500Y-85983389D01*
X128969500Y-86156611D01*
X128978492Y-86213386D01*
X128996597Y-86327700D01*
X129002169Y-86344847D01*
X129050127Y-86492445D01*
X129114817Y-86619406D01*
X129128771Y-86646793D01*
X129189119Y-86729854D01*
X129230586Y-86786928D01*
X129353072Y-86909414D01*
X129363491Y-86916984D01*
X129461004Y-86987832D01*
X129493212Y-87011232D01*
X129647555Y-87089873D01*
X129812299Y-87143402D01*
X129983389Y-87170500D01*
X129983393Y-87170500D01*
X130156607Y-87170500D01*
X130156611Y-87170500D01*
X130327701Y-87143402D01*
X130492445Y-87089873D01*
X130646788Y-87011232D01*
X130786928Y-86909414D01*
X130909414Y-86786928D01*
X131011232Y-86646788D01*
X131089873Y-86492445D01*
X131143402Y-86327701D01*
X131170500Y-86156611D01*
X131170500Y-85983389D01*
X131143402Y-85812299D01*
X131093135Y-85657597D01*
X131089099Y-85580577D01*
X131124114Y-85511855D01*
X131129485Y-85506196D01*
X131324142Y-85311541D01*
X131390937Y-85272977D01*
X131429500Y-85267900D01*
X151860781Y-85267900D01*
X151935281Y-85287862D01*
X151989819Y-85342400D01*
X152009781Y-85416900D01*
X151990814Y-85487685D01*
X151991426Y-85487997D01*
X151989959Y-85490874D01*
X151989819Y-85491400D01*
X151988934Y-85492887D01*
X151988769Y-85493210D01*
X151988768Y-85493212D01*
X151938645Y-85591585D01*
X151910130Y-85647549D01*
X151910125Y-85647561D01*
X151856597Y-85812299D01*
X151845750Y-85880788D01*
X151829500Y-85983389D01*
X151829500Y-86156611D01*
X151838492Y-86213386D01*
X151856597Y-86327700D01*
X151862169Y-86344847D01*
X151910127Y-86492445D01*
X151988768Y-86646788D01*
X151988771Y-86646792D01*
X151988772Y-86646794D01*
X152013783Y-86681218D01*
X152041425Y-86753223D01*
X152029360Y-86829402D01*
X151980823Y-86889342D01*
X151908818Y-86916984D01*
X151893241Y-86917800D01*
X131365556Y-86917800D01*
X131276411Y-86941686D01*
X131276410Y-86941686D01*
X131196492Y-86987828D01*
X131196487Y-86987832D01*
X130633802Y-87550515D01*
X130567007Y-87589079D01*
X130489879Y-87589079D01*
X130482404Y-87586864D01*
X130451357Y-87576776D01*
X130327700Y-87536597D01*
X130230086Y-87521137D01*
X130156611Y-87509500D01*
X129983389Y-87509500D01*
X129917037Y-87520009D01*
X129812299Y-87536597D01*
X129657600Y-87586863D01*
X129647555Y-87590127D01*
X129647549Y-87590129D01*
X129647549Y-87590130D01*
X129493206Y-87668771D01*
X129353075Y-87770583D01*
X129230583Y-87893075D01*
X129128771Y-88033206D01*
X129050130Y-88187549D01*
X129050125Y-88187561D01*
X128996597Y-88352299D01*
X128985796Y-88420499D01*
X128969500Y-88523389D01*
X128969500Y-88696611D01*
X128981137Y-88770086D01*
X128996597Y-88867700D01*
X129026750Y-88960499D01*
X129050127Y-89032445D01*
X129101565Y-89133397D01*
X129128771Y-89186793D01*
X129158585Y-89227828D01*
X129230586Y-89326928D01*
X129353072Y-89449414D01*
X129493212Y-89551232D01*
X129647555Y-89629873D01*
X129812299Y-89683402D01*
X129983389Y-89710500D01*
X129983393Y-89710500D01*
X130156607Y-89710500D01*
X130156611Y-89710500D01*
X130327701Y-89683402D01*
X130492445Y-89629873D01*
X130646788Y-89551232D01*
X130786928Y-89449414D01*
X130909414Y-89326928D01*
X131011232Y-89186788D01*
X131089873Y-89032445D01*
X131143402Y-88867701D01*
X131170500Y-88696611D01*
X131170500Y-88523389D01*
X131143402Y-88352299D01*
X131093135Y-88197597D01*
X131089099Y-88120576D01*
X131124114Y-88051854D01*
X131129462Y-88046217D01*
X131513240Y-87662441D01*
X131580035Y-87623877D01*
X131618599Y-87618800D01*
X152005141Y-87618800D01*
X152079641Y-87638762D01*
X152134179Y-87693300D01*
X152154141Y-87767800D01*
X152134179Y-87842300D01*
X152110503Y-87873154D01*
X152090588Y-87893070D01*
X152090583Y-87893075D01*
X151988771Y-88033206D01*
X151910130Y-88187549D01*
X151910125Y-88187561D01*
X151856597Y-88352299D01*
X151845796Y-88420499D01*
X151829500Y-88523389D01*
X151829500Y-88696611D01*
X151841137Y-88770086D01*
X151856597Y-88867700D01*
X151886750Y-88960499D01*
X151910127Y-89032445D01*
X151961565Y-89133397D01*
X151988771Y-89186793D01*
X152018585Y-89227828D01*
X152090586Y-89326928D01*
X152142601Y-89378943D01*
X152181164Y-89445736D01*
X152181164Y-89522864D01*
X152142600Y-89589659D01*
X152075805Y-89628223D01*
X152037241Y-89633300D01*
X131190056Y-89633300D01*
X131100910Y-89657186D01*
X131020987Y-89703330D01*
X130633802Y-90090515D01*
X130567007Y-90129079D01*
X130489879Y-90129079D01*
X130482404Y-90126864D01*
X130451357Y-90116776D01*
X130327700Y-90076597D01*
X130230086Y-90061137D01*
X130156611Y-90049500D01*
X129983389Y-90049500D01*
X129917037Y-90060009D01*
X129812299Y-90076597D01*
X129657600Y-90126863D01*
X129647555Y-90130127D01*
X129647549Y-90130129D01*
X129647549Y-90130130D01*
X129493206Y-90208771D01*
X129353075Y-90310583D01*
X129230583Y-90433075D01*
X129128771Y-90573206D01*
X129050130Y-90727549D01*
X129050125Y-90727561D01*
X128996597Y-90892299D01*
X128978228Y-91008282D01*
X128969500Y-91063389D01*
X128969500Y-91236611D01*
X128973905Y-91264423D01*
X128996597Y-91407700D01*
X129034653Y-91524821D01*
X129050127Y-91572445D01*
X129050130Y-91572450D01*
X129128771Y-91726793D01*
X129230583Y-91866924D01*
X129230586Y-91866928D01*
X129353072Y-91989414D01*
X129387106Y-92014141D01*
X129485816Y-92085859D01*
X129493212Y-92091232D01*
X129647555Y-92169873D01*
X129812299Y-92223402D01*
X129983389Y-92250500D01*
X129983393Y-92250500D01*
X130156607Y-92250500D01*
X130156611Y-92250500D01*
X130327701Y-92223402D01*
X130492445Y-92169873D01*
X130646788Y-92091232D01*
X130786928Y-91989414D01*
X130909414Y-91866928D01*
X131011232Y-91726788D01*
X131089873Y-91572445D01*
X131143402Y-91407701D01*
X131170500Y-91236611D01*
X131170500Y-91063389D01*
X131143402Y-90892299D01*
X131093135Y-90737597D01*
X131089099Y-90660577D01*
X131124114Y-90591855D01*
X131129485Y-90586196D01*
X131337742Y-90377941D01*
X131404537Y-90339377D01*
X131443100Y-90334300D01*
X151869918Y-90334300D01*
X151944418Y-90354262D01*
X151998956Y-90408800D01*
X152018918Y-90483300D01*
X151998956Y-90557800D01*
X151990463Y-90570878D01*
X151988772Y-90573205D01*
X151988769Y-90573210D01*
X151988768Y-90573212D01*
X151979269Y-90591855D01*
X151910130Y-90727549D01*
X151910125Y-90727561D01*
X151856597Y-90892299D01*
X151838228Y-91008282D01*
X151829500Y-91063389D01*
X151829500Y-91236611D01*
X151833905Y-91264423D01*
X151856597Y-91407700D01*
X151894653Y-91524821D01*
X151910127Y-91572445D01*
X151910130Y-91572450D01*
X151988771Y-91726793D01*
X152090583Y-91866924D01*
X152090586Y-91866928D01*
X152098801Y-91875143D01*
X152137364Y-91941936D01*
X152137364Y-92019064D01*
X152098800Y-92085859D01*
X152032005Y-92124423D01*
X151993441Y-92129500D01*
X131233856Y-92129500D01*
X131144711Y-92153386D01*
X131144710Y-92153386D01*
X131064792Y-92199528D01*
X131064787Y-92199532D01*
X130633802Y-92630515D01*
X130567007Y-92669079D01*
X130489878Y-92669079D01*
X130482404Y-92666864D01*
X130451357Y-92656776D01*
X130327700Y-92616597D01*
X130230086Y-92601137D01*
X130156611Y-92589500D01*
X129983389Y-92589500D01*
X129917037Y-92600009D01*
X129812299Y-92616597D01*
X129657600Y-92666863D01*
X129647555Y-92670127D01*
X129647549Y-92670129D01*
X129647549Y-92670130D01*
X129493206Y-92748771D01*
X129353075Y-92850583D01*
X129230583Y-92973075D01*
X129128771Y-93113206D01*
X129050130Y-93267549D01*
X129050125Y-93267561D01*
X128996597Y-93432299D01*
X128978228Y-93548282D01*
X128969500Y-93603389D01*
X128969500Y-93776611D01*
X128981137Y-93850086D01*
X128996597Y-93947700D01*
X128998807Y-93954500D01*
X129050127Y-94112445D01*
X129077917Y-94166985D01*
X129128771Y-94266793D01*
X129215381Y-94386000D01*
X129230586Y-94406928D01*
X129353072Y-94529414D01*
X129399785Y-94563353D01*
X129463300Y-94609500D01*
X129493212Y-94631232D01*
X129647555Y-94709873D01*
X129812299Y-94763402D01*
X129983389Y-94790500D01*
X129983393Y-94790500D01*
X130156607Y-94790500D01*
X130156611Y-94790500D01*
X130327701Y-94763402D01*
X130492445Y-94709873D01*
X130646788Y-94631232D01*
X130786928Y-94529414D01*
X130909414Y-94406928D01*
X131011232Y-94266788D01*
X131089873Y-94112445D01*
X131143402Y-93947701D01*
X131170500Y-93776611D01*
X131170500Y-93603389D01*
X131143402Y-93432299D01*
X131093135Y-93277597D01*
X131089099Y-93200576D01*
X131124114Y-93131854D01*
X131129485Y-93126195D01*
X131381541Y-92874141D01*
X131448336Y-92835577D01*
X131486899Y-92830500D01*
X151901741Y-92830500D01*
X151976241Y-92850462D01*
X152030779Y-92905000D01*
X152050741Y-92979500D01*
X152030779Y-93054000D01*
X152022284Y-93067080D01*
X151988772Y-93113204D01*
X151988771Y-93113206D01*
X151914922Y-93258144D01*
X151863313Y-93315462D01*
X151789960Y-93339296D01*
X151782162Y-93339500D01*
X150591356Y-93339500D01*
X150502210Y-93363386D01*
X150422287Y-93409530D01*
X149920959Y-93910859D01*
X149854164Y-93949423D01*
X149815600Y-93954500D01*
X149750025Y-93954500D01*
X149610012Y-93992016D01*
X149484488Y-94064488D01*
X149381988Y-94166988D01*
X149309516Y-94292512D01*
X149272000Y-94432523D01*
X149272000Y-94577476D01*
X149309516Y-94717487D01*
X149381988Y-94843011D01*
X149381989Y-94843012D01*
X149381991Y-94843015D01*
X149484485Y-94945509D01*
X149484487Y-94945510D01*
X149492239Y-94951459D01*
X149489987Y-94954393D01*
X149531011Y-94995345D01*
X149551039Y-95069827D01*
X149531143Y-95144345D01*
X149507398Y-95175318D01*
X148846859Y-95835859D01*
X148780064Y-95874423D01*
X148741500Y-95879500D01*
X131217838Y-95879500D01*
X131143338Y-95859538D01*
X131088800Y-95805000D01*
X131085078Y-95798144D01*
X131011230Y-95653209D01*
X130909416Y-95513075D01*
X130909414Y-95513072D01*
X130786928Y-95390586D01*
X130736766Y-95354141D01*
X130646793Y-95288771D01*
X130646790Y-95288769D01*
X130646788Y-95288768D01*
X130492445Y-95210127D01*
X130444821Y-95194653D01*
X130327700Y-95156597D01*
X130230086Y-95141137D01*
X130156611Y-95129500D01*
X129983389Y-95129500D01*
X129917037Y-95140009D01*
X129812299Y-95156597D01*
X129647561Y-95210125D01*
X129647555Y-95210127D01*
X129647549Y-95210129D01*
X129647549Y-95210130D01*
X129493206Y-95288771D01*
X129353075Y-95390583D01*
X129230583Y-95513075D01*
X129128771Y-95653206D01*
X129050130Y-95807549D01*
X129050125Y-95807561D01*
X128996597Y-95972299D01*
X128978228Y-96088282D01*
X128969500Y-96143389D01*
X128969500Y-96316611D01*
X128981137Y-96390086D01*
X128996597Y-96487700D01*
X129003996Y-96510470D01*
X129050127Y-96652445D01*
X129054923Y-96661856D01*
X129128771Y-96806793D01*
X129230583Y-96946924D01*
X129230586Y-96946928D01*
X129353072Y-97069414D01*
X129493212Y-97171232D01*
X129647555Y-97249873D01*
X129812299Y-97303402D01*
X129983389Y-97330500D01*
X129983393Y-97330500D01*
X130156607Y-97330500D01*
X130156611Y-97330500D01*
X130327701Y-97303402D01*
X130492445Y-97249873D01*
X130646788Y-97171232D01*
X130786928Y-97069414D01*
X130909414Y-96946928D01*
X131011232Y-96806788D01*
X131085078Y-96661856D01*
X131136687Y-96604538D01*
X131210040Y-96580704D01*
X131217838Y-96580500D01*
X148994544Y-96580500D01*
X149083688Y-96556614D01*
X149163612Y-96510470D01*
X150319941Y-95354141D01*
X150386736Y-95315577D01*
X150425300Y-95310500D01*
X151945334Y-95310500D01*
X152019834Y-95330462D01*
X152074372Y-95385000D01*
X152094334Y-95459500D01*
X152074372Y-95534000D01*
X152065877Y-95547080D01*
X151988773Y-95653203D01*
X151910130Y-95807549D01*
X151910125Y-95807561D01*
X151856597Y-95972299D01*
X151838228Y-96088282D01*
X151829500Y-96143389D01*
X151829500Y-96316611D01*
X151841137Y-96390086D01*
X151856597Y-96487700D01*
X151863996Y-96510470D01*
X151910127Y-96652445D01*
X151914923Y-96661856D01*
X151988771Y-96806793D01*
X152090583Y-96946924D01*
X152090586Y-96946928D01*
X152213072Y-97069414D01*
X152353212Y-97171232D01*
X152507555Y-97249873D01*
X152672299Y-97303402D01*
X152843389Y-97330500D01*
X152843393Y-97330500D01*
X153016607Y-97330500D01*
X153016611Y-97330500D01*
X153187701Y-97303402D01*
X153352445Y-97249873D01*
X153506788Y-97171232D01*
X153646928Y-97069414D01*
X153769414Y-96946928D01*
X153871232Y-96806788D01*
X153949873Y-96652445D01*
X154003402Y-96487701D01*
X154030500Y-96316611D01*
X154030500Y-96143389D01*
X154003402Y-95972299D01*
X153949873Y-95807555D01*
X153871232Y-95653212D01*
X153871227Y-95653205D01*
X153871226Y-95653203D01*
X153794123Y-95547080D01*
X153766482Y-95475075D01*
X153778547Y-95398897D01*
X153827086Y-95338957D01*
X153899091Y-95311316D01*
X153914666Y-95310500D01*
X180260444Y-95310500D01*
X180349588Y-95286614D01*
X180429512Y-95240470D01*
X187804430Y-87865550D01*
X187871223Y-87826988D01*
X187948351Y-87826988D01*
X188015146Y-87865552D01*
X188053710Y-87932347D01*
X188056953Y-87947602D01*
X188077829Y-88079408D01*
X188133789Y-88251638D01*
X188216004Y-88412993D01*
X188322447Y-88559500D01*
X188450499Y-88687552D01*
X188597006Y-88793995D01*
X188758361Y-88876210D01*
X188930591Y-88932170D01*
X189109454Y-88960499D01*
X189109458Y-88960499D01*
X189290542Y-88960499D01*
X189290546Y-88960499D01*
X189469409Y-88932170D01*
X189641639Y-88876210D01*
X189802994Y-88793995D01*
X189949501Y-88687552D01*
X190077553Y-88559500D01*
X190183996Y-88412993D01*
X190266211Y-88251638D01*
X190322171Y-88079408D01*
X190350500Y-87900545D01*
X190350500Y-87719453D01*
X190322171Y-87540590D01*
X190266211Y-87368360D01*
X190183996Y-87207005D01*
X190077553Y-87060498D01*
X189957627Y-86940572D01*
X189919063Y-86873777D01*
X189919063Y-86796649D01*
X189957625Y-86729856D01*
X190730670Y-85956812D01*
X190776814Y-85876888D01*
X190783727Y-85851087D01*
X190800700Y-85787744D01*
X190800700Y-83934056D01*
X190776814Y-83844912D01*
X190763015Y-83821012D01*
X190730670Y-83764988D01*
X190298858Y-83333176D01*
X190260294Y-83266381D01*
X190260294Y-83189253D01*
X190264814Y-83175936D01*
X190266208Y-83171643D01*
X190266211Y-83171639D01*
X190315497Y-83019951D01*
X190322170Y-82999414D01*
X190329488Y-82953212D01*
X190350500Y-82820546D01*
X190350500Y-82639454D01*
X190322171Y-82460591D01*
X190266211Y-82288361D01*
X190183996Y-82127006D01*
X190183994Y-82127003D01*
X190183993Y-82127001D01*
X190181753Y-82123345D01*
X190159852Y-82049392D01*
X190177861Y-81974396D01*
X190230956Y-81918452D01*
X190304909Y-81896551D01*
X190308801Y-81896500D01*
X193765589Y-81896500D01*
X193840089Y-81916462D01*
X193870948Y-81940141D01*
X196063092Y-84132285D01*
X196101656Y-84199080D01*
X196101656Y-84276208D01*
X196099441Y-84283686D01*
X196057429Y-84412989D01*
X196048205Y-84471232D01*
X196029100Y-84591854D01*
X196029100Y-84772946D01*
X196057429Y-84951809D01*
X196113389Y-85124039D01*
X196195604Y-85285394D01*
X196302047Y-85431901D01*
X196430099Y-85559953D01*
X196576606Y-85666396D01*
X196737961Y-85748611D01*
X196910191Y-85804571D01*
X196910192Y-85804571D01*
X196910195Y-85804572D01*
X196914379Y-85805235D01*
X196984838Y-85836606D01*
X197030173Y-85899004D01*
X197038234Y-85975710D01*
X197006863Y-86046169D01*
X196944465Y-86091504D01*
X196914379Y-86099565D01*
X196910195Y-86100227D01*
X196737960Y-86156189D01*
X196576604Y-86238405D01*
X196576603Y-86238405D01*
X196430100Y-86344846D01*
X196430097Y-86344848D01*
X196302048Y-86472897D01*
X196302046Y-86472900D01*
X196195605Y-86619403D01*
X196195605Y-86619404D01*
X196113389Y-86780760D01*
X196100519Y-86820370D01*
X196057429Y-86952991D01*
X196029100Y-87131854D01*
X196029100Y-87312946D01*
X196057429Y-87491809D01*
X196113389Y-87664039D01*
X196195604Y-87825394D01*
X196302047Y-87971901D01*
X196430099Y-88099953D01*
X196576606Y-88206396D01*
X196737961Y-88288611D01*
X196910191Y-88344571D01*
X197089054Y-88372900D01*
X197089058Y-88372900D01*
X197270142Y-88372900D01*
X197270146Y-88372900D01*
X197449009Y-88344571D01*
X197621239Y-88288611D01*
X197782594Y-88206396D01*
X197929101Y-88099953D01*
X198057153Y-87971901D01*
X198163596Y-87825394D01*
X198245811Y-87664039D01*
X198301771Y-87491809D01*
X198330100Y-87312946D01*
X198330100Y-87131854D01*
X198301771Y-86952991D01*
X198245811Y-86780761D01*
X198163596Y-86619406D01*
X198057153Y-86472899D01*
X197929101Y-86344847D01*
X197782594Y-86238404D01*
X197621239Y-86156189D01*
X197594657Y-86147552D01*
X197449008Y-86100228D01*
X197444823Y-86099566D01*
X197374362Y-86068196D01*
X197329027Y-86005798D01*
X197320964Y-85929093D01*
X197352334Y-85858632D01*
X197414732Y-85813297D01*
X197444823Y-85805234D01*
X197444962Y-85805211D01*
X197449009Y-85804571D01*
X197621239Y-85748611D01*
X197782594Y-85666396D01*
X197929101Y-85559953D01*
X198057153Y-85431901D01*
X198163596Y-85285394D01*
X198245811Y-85124039D01*
X198301771Y-84951809D01*
X198330100Y-84772946D01*
X198330100Y-84591854D01*
X198301771Y-84412991D01*
X198245811Y-84240761D01*
X198163596Y-84079406D01*
X198057153Y-83932899D01*
X197929101Y-83804847D01*
X197782594Y-83698404D01*
X197621239Y-83616189D01*
X197594654Y-83607551D01*
X197449008Y-83560228D01*
X197444823Y-83559566D01*
X197374362Y-83528196D01*
X197329027Y-83465798D01*
X197320964Y-83389093D01*
X197352334Y-83318632D01*
X197414732Y-83273297D01*
X197444823Y-83265234D01*
X197444962Y-83265211D01*
X197449009Y-83264571D01*
X197621239Y-83208611D01*
X197782594Y-83126396D01*
X197929101Y-83019953D01*
X198057153Y-82891901D01*
X198163596Y-82745394D01*
X198245811Y-82584039D01*
X198301771Y-82411809D01*
X198330100Y-82232946D01*
X198330100Y-82051854D01*
X198301771Y-81872991D01*
X198245811Y-81700761D01*
X198163596Y-81539406D01*
X198057153Y-81392899D01*
X197929101Y-81264847D01*
X197782594Y-81158404D01*
X197621239Y-81076189D01*
X197593090Y-81067043D01*
X197520961Y-81043607D01*
X197456276Y-81001600D01*
X197421260Y-80932878D01*
X197425296Y-80855856D01*
X197467303Y-80791171D01*
X197536025Y-80756155D01*
X197567001Y-80752899D01*
X198074464Y-80752899D01*
X198074467Y-80752899D01*
X198089540Y-80751150D01*
X198099591Y-80749985D01*
X198202365Y-80704606D01*
X198281806Y-80625165D01*
X198327185Y-80522391D01*
X198330100Y-80497265D01*
X198330099Y-78707536D01*
X198327185Y-78682409D01*
X198281806Y-78579635D01*
X198202365Y-78500194D01*
X198202364Y-78500193D01*
X198099594Y-78454816D01*
X198099591Y-78454815D01*
X198099582Y-78454814D01*
X198074465Y-78451900D01*
X198074459Y-78451900D01*
X196284733Y-78451900D01*
X196259610Y-78454814D01*
X196259607Y-78454815D01*
X196156835Y-78500193D01*
X196077393Y-78579635D01*
X196032016Y-78682405D01*
X196032015Y-78682408D01*
X196032015Y-78682409D01*
X196029100Y-78707535D01*
X196029100Y-78707536D01*
X196029100Y-78707540D01*
X196029100Y-80497266D01*
X196032014Y-80522389D01*
X196032015Y-80522392D01*
X196077393Y-80625164D01*
X196077394Y-80625165D01*
X196156835Y-80704606D01*
X196259609Y-80749985D01*
X196284735Y-80752900D01*
X196792196Y-80752899D01*
X196866694Y-80772861D01*
X196921232Y-80827399D01*
X196941194Y-80901899D01*
X196921232Y-80976399D01*
X196866694Y-81030937D01*
X196838238Y-81043606D01*
X196737964Y-81076186D01*
X196737963Y-81076187D01*
X196576604Y-81158405D01*
X196576603Y-81158405D01*
X196430100Y-81264846D01*
X196430097Y-81264848D01*
X196302048Y-81392897D01*
X196302046Y-81392900D01*
X196195605Y-81539403D01*
X196195605Y-81539404D01*
X196113389Y-81700760D01*
X196111385Y-81706928D01*
X196057429Y-81872991D01*
X196029100Y-82051854D01*
X196029100Y-82232946D01*
X196057429Y-82411809D01*
X196071982Y-82456598D01*
X196113389Y-82584039D01*
X196170146Y-82695430D01*
X196186182Y-82770872D01*
X196162348Y-82844226D01*
X196105031Y-82895835D01*
X196029589Y-82911871D01*
X195956235Y-82888037D01*
X195932027Y-82868434D01*
X195109093Y-82045500D01*
X194239113Y-81175520D01*
X194239110Y-81175518D01*
X194239106Y-81175515D01*
X194147791Y-81122794D01*
X194147788Y-81122793D01*
X194120495Y-81115480D01*
X194045929Y-81095500D01*
X194045927Y-81095500D01*
X190256641Y-81095500D01*
X190182141Y-81075538D01*
X190127603Y-81021000D01*
X190107641Y-80946500D01*
X190127603Y-80872000D01*
X190136098Y-80858920D01*
X190183989Y-80793003D01*
X190183989Y-80793001D01*
X190183996Y-80792993D01*
X190266211Y-80631638D01*
X190322171Y-80459408D01*
X190350500Y-80280545D01*
X190350500Y-80099453D01*
X190322171Y-79920590D01*
X190266211Y-79748360D01*
X190183996Y-79587005D01*
X190077553Y-79440498D01*
X189949501Y-79312446D01*
X189802994Y-79206003D01*
X189641639Y-79123788D01*
X189469407Y-79067827D01*
X189465219Y-79067164D01*
X189394760Y-79035790D01*
X189349428Y-78973391D01*
X189341368Y-78896685D01*
X189372742Y-78826226D01*
X189435141Y-78780894D01*
X189465229Y-78772833D01*
X189469409Y-78772171D01*
X189641639Y-78716211D01*
X189802994Y-78633996D01*
X189949501Y-78527553D01*
X190077553Y-78399501D01*
X190183996Y-78252994D01*
X190266211Y-78091639D01*
X190322171Y-77919409D01*
X190350500Y-77740546D01*
X190350500Y-77559454D01*
X190322171Y-77380591D01*
X190266211Y-77208361D01*
X190183996Y-77047006D01*
X190077553Y-76900499D01*
X189949501Y-76772447D01*
X189802994Y-76666004D01*
X189641639Y-76583789D01*
X189622129Y-76577450D01*
X189469407Y-76527828D01*
X189465212Y-76527164D01*
X189394753Y-76495790D01*
X189349421Y-76433390D01*
X189341362Y-76356684D01*
X189372736Y-76286225D01*
X189435136Y-76240893D01*
X189465221Y-76232833D01*
X189469409Y-76232170D01*
X189641639Y-76176210D01*
X189802994Y-76093995D01*
X189949501Y-75987552D01*
X190077553Y-75859500D01*
X190183996Y-75712993D01*
X190266211Y-75551638D01*
X190322171Y-75379408D01*
X190350500Y-75200545D01*
X190350500Y-75019453D01*
X190322171Y-74840590D01*
X190266211Y-74668360D01*
X190183996Y-74507005D01*
X190077553Y-74360498D01*
X189949501Y-74232446D01*
X189802994Y-74126003D01*
X189641639Y-74043788D01*
X189469409Y-73987828D01*
X189290546Y-73959499D01*
X189109454Y-73959499D01*
X188930591Y-73987828D01*
X188758360Y-74043788D01*
X188597004Y-74126004D01*
X188597003Y-74126004D01*
X188450500Y-74232445D01*
X188450497Y-74232447D01*
X188322448Y-74360496D01*
X188322446Y-74360499D01*
X188216005Y-74507002D01*
X188216005Y-74507003D01*
X188133789Y-74668359D01*
X188126131Y-74691928D01*
X188077829Y-74840590D01*
X188049500Y-75019453D01*
X188049500Y-75200545D01*
X188077829Y-75379408D01*
X188133789Y-75551638D01*
X188216004Y-75712993D01*
X188322447Y-75859500D01*
X188450499Y-75987552D01*
X188597006Y-76093995D01*
X188758361Y-76176210D01*
X188924382Y-76230152D01*
X188930594Y-76232171D01*
X188934775Y-76232833D01*
X189005236Y-76264200D01*
X189050573Y-76326597D01*
X189058638Y-76403302D01*
X189027271Y-76473763D01*
X188964874Y-76519100D01*
X188934789Y-76527163D01*
X188930596Y-76527827D01*
X188758360Y-76583789D01*
X188597004Y-76666005D01*
X188597003Y-76666005D01*
X188450500Y-76772446D01*
X188450497Y-76772448D01*
X188322448Y-76900497D01*
X188322446Y-76900500D01*
X188216005Y-77047003D01*
X188216005Y-77047004D01*
X188133789Y-77208360D01*
X188133789Y-77208361D01*
X188077829Y-77380591D01*
X188049500Y-77559454D01*
X188049500Y-77740546D01*
X188077829Y-77919409D01*
X188133789Y-78091639D01*
X188216004Y-78252994D01*
X188322447Y-78399501D01*
X188450499Y-78527553D01*
X188597006Y-78633996D01*
X188758361Y-78716211D01*
X188930591Y-78772171D01*
X188934769Y-78772832D01*
X189005230Y-78804200D01*
X189050567Y-78866596D01*
X189058633Y-78943301D01*
X189027265Y-79013763D01*
X188964869Y-79059100D01*
X188934783Y-79067163D01*
X188930596Y-79067826D01*
X188758360Y-79123788D01*
X188597004Y-79206004D01*
X188597003Y-79206004D01*
X188450500Y-79312445D01*
X188450497Y-79312447D01*
X188322448Y-79440496D01*
X188322446Y-79440499D01*
X188216005Y-79587002D01*
X188216005Y-79587003D01*
X188133789Y-79748359D01*
X188133789Y-79748360D01*
X188077829Y-79920590D01*
X188049500Y-80099453D01*
X188049500Y-80280545D01*
X188077829Y-80459408D01*
X188133789Y-80631638D01*
X188205746Y-80772861D01*
X188216005Y-80792994D01*
X188216010Y-80793003D01*
X188263902Y-80858920D01*
X188291543Y-80930925D01*
X188279477Y-81007103D01*
X188230939Y-81067043D01*
X188158934Y-81094684D01*
X188143359Y-81095500D01*
X164856641Y-81095500D01*
X164782141Y-81075538D01*
X164727603Y-81021000D01*
X164707641Y-80946500D01*
X164727603Y-80872000D01*
X164736098Y-80858920D01*
X164783989Y-80793003D01*
X164783989Y-80793001D01*
X164783996Y-80792993D01*
X164866211Y-80631638D01*
X164922171Y-80459408D01*
X164950500Y-80280545D01*
X164950500Y-80099453D01*
X164922171Y-79920590D01*
X164866211Y-79748360D01*
X164783996Y-79587005D01*
X164677553Y-79440498D01*
X164549501Y-79312446D01*
X164402994Y-79206003D01*
X164241639Y-79123788D01*
X164069407Y-79067827D01*
X164065219Y-79067164D01*
X163994760Y-79035790D01*
X163949428Y-78973391D01*
X163941368Y-78896685D01*
X163972742Y-78826226D01*
X164035141Y-78780894D01*
X164065229Y-78772833D01*
X164069409Y-78772171D01*
X164241639Y-78716211D01*
X164402994Y-78633996D01*
X164549501Y-78527553D01*
X164677553Y-78399501D01*
X164783996Y-78252994D01*
X164866211Y-78091639D01*
X164922171Y-77919409D01*
X164950500Y-77740546D01*
X164950500Y-77559454D01*
X164922171Y-77380591D01*
X164866211Y-77208361D01*
X164783996Y-77047006D01*
X164677553Y-76900499D01*
X164549501Y-76772447D01*
X164402994Y-76666004D01*
X164241639Y-76583789D01*
X164069409Y-76527829D01*
X163890546Y-76499500D01*
X163709454Y-76499500D01*
X163534796Y-76527163D01*
X163530591Y-76527829D01*
X163358360Y-76583789D01*
X163197004Y-76666005D01*
X163197003Y-76666005D01*
X163050500Y-76772446D01*
X163050497Y-76772448D01*
X162922448Y-76900497D01*
X162922446Y-76900500D01*
X162816005Y-77047003D01*
X162816005Y-77047004D01*
X162733789Y-77208360D01*
X162733789Y-77208361D01*
X162677829Y-77380591D01*
X162649500Y-77559454D01*
X162649500Y-77740546D01*
X162677829Y-77919409D01*
X162733789Y-78091639D01*
X162816004Y-78252994D01*
X162922447Y-78399501D01*
X163050499Y-78527553D01*
X163197006Y-78633996D01*
X163358361Y-78716211D01*
X163530591Y-78772171D01*
X163534769Y-78772832D01*
X163605230Y-78804200D01*
X163650567Y-78866596D01*
X163658633Y-78943301D01*
X163627265Y-79013763D01*
X163564869Y-79059100D01*
X163534783Y-79067163D01*
X163530596Y-79067826D01*
X163358360Y-79123788D01*
X163197004Y-79206004D01*
X163197003Y-79206004D01*
X163050500Y-79312445D01*
X163050497Y-79312447D01*
X162922448Y-79440496D01*
X162922446Y-79440499D01*
X162816005Y-79587002D01*
X162816005Y-79587003D01*
X162733789Y-79748359D01*
X162733789Y-79748360D01*
X162677829Y-79920590D01*
X162649500Y-80099453D01*
X162649500Y-80280545D01*
X162677829Y-80459408D01*
X162733789Y-80631638D01*
X162805746Y-80772861D01*
X162816005Y-80792994D01*
X162816010Y-80793003D01*
X162863902Y-80858920D01*
X162891543Y-80930925D01*
X162879477Y-81007103D01*
X162830939Y-81067043D01*
X162758934Y-81094684D01*
X162743359Y-81095500D01*
X158594369Y-81095500D01*
X158492513Y-81122792D01*
X158488199Y-81125284D01*
X158488192Y-81125288D01*
X158401186Y-81175520D01*
X156787136Y-82789569D01*
X156720341Y-82828133D01*
X156667871Y-82832560D01*
X156651936Y-82831066D01*
X156640566Y-82830000D01*
X156232034Y-82830000D01*
X156232024Y-82830000D01*
X156201604Y-82832853D01*
X156073416Y-82877707D01*
X155964151Y-82958348D01*
X155964148Y-82958351D01*
X155883507Y-83067616D01*
X155838653Y-83195804D01*
X155835800Y-83226224D01*
X155835800Y-84417900D01*
X155815838Y-84492400D01*
X155761300Y-84546938D01*
X155686800Y-84566900D01*
X153809159Y-84566900D01*
X153734659Y-84546938D01*
X153680121Y-84492400D01*
X153660159Y-84417900D01*
X153680121Y-84343400D01*
X153703796Y-84312545D01*
X153769414Y-84246928D01*
X153871232Y-84106788D01*
X153949873Y-83952445D01*
X154003402Y-83787701D01*
X154030500Y-83616611D01*
X154030500Y-83443389D01*
X154003402Y-83272299D01*
X153949873Y-83107555D01*
X153871232Y-82953212D01*
X153823879Y-82888037D01*
X153792049Y-82844226D01*
X153769414Y-82813072D01*
X153646928Y-82690586D01*
X153646924Y-82690583D01*
X153506793Y-82588771D01*
X153506790Y-82588769D01*
X153506788Y-82588768D01*
X153352445Y-82510127D01*
X153304821Y-82494653D01*
X153187700Y-82456597D01*
X153090086Y-82441137D01*
X153016611Y-82429500D01*
X152843389Y-82429500D01*
X152777037Y-82440009D01*
X152672299Y-82456597D01*
X152507561Y-82510125D01*
X152507555Y-82510127D01*
X152507549Y-82510129D01*
X152507549Y-82510130D01*
X152353206Y-82588771D01*
X152213075Y-82690583D01*
X152090583Y-82813075D01*
X151988771Y-82953206D01*
X151910130Y-83107549D01*
X151910125Y-83107561D01*
X151856597Y-83272299D01*
X151846956Y-83333176D01*
X151829500Y-83443389D01*
X151829500Y-83616611D01*
X151836358Y-83659911D01*
X151856597Y-83787700D01*
X151880380Y-83860894D01*
X151910127Y-83952445D01*
X151986065Y-84101482D01*
X151988771Y-84106793D01*
X152047118Y-84187100D01*
X152090586Y-84246928D01*
X152156201Y-84312543D01*
X152194764Y-84379336D01*
X152194764Y-84456464D01*
X152156200Y-84523259D01*
X152089405Y-84561823D01*
X152050841Y-84566900D01*
X131176456Y-84566900D01*
X131087310Y-84590786D01*
X131007387Y-84636930D01*
X130633802Y-85010515D01*
X130567007Y-85049079D01*
X130489879Y-85049079D01*
X130482404Y-85046864D01*
X130451357Y-85036776D01*
X130327700Y-84996597D01*
X130230086Y-84981137D01*
X130156611Y-84969500D01*
X129983389Y-84969500D01*
X129917037Y-84980009D01*
X129812299Y-84996597D01*
X129657600Y-85046863D01*
X129647555Y-85050127D01*
X129647549Y-85050129D01*
X129647549Y-85050130D01*
X129493206Y-85128771D01*
X129353075Y-85230583D01*
X129230583Y-85353075D01*
X129128771Y-85493206D01*
X129050130Y-85647549D01*
X129050125Y-85647561D01*
X128996597Y-85812299D01*
X128985750Y-85880788D01*
X128969500Y-85983389D01*
X120500500Y-85983389D01*
X120500500Y-80903389D01*
X128969500Y-80903389D01*
X128969500Y-81076611D01*
X128976815Y-81122793D01*
X128996597Y-81247700D01*
X129002169Y-81264847D01*
X129050127Y-81412445D01*
X129114817Y-81539406D01*
X129128771Y-81566793D01*
X129226105Y-81700760D01*
X129230586Y-81706928D01*
X129353072Y-81829414D01*
X129353075Y-81829416D01*
X129475621Y-81918452D01*
X129493212Y-81931232D01*
X129647555Y-82009873D01*
X129812299Y-82063402D01*
X129983389Y-82090500D01*
X129983393Y-82090500D01*
X130156607Y-82090500D01*
X130156611Y-82090500D01*
X130327701Y-82063402D01*
X130492445Y-82009873D01*
X130646788Y-81931232D01*
X130786928Y-81829414D01*
X130909414Y-81706928D01*
X131011232Y-81566788D01*
X131089873Y-81412445D01*
X131143402Y-81247701D01*
X131170500Y-81076611D01*
X131170500Y-80903389D01*
X151829500Y-80903389D01*
X151829500Y-81076611D01*
X151836815Y-81122793D01*
X151856597Y-81247700D01*
X151862169Y-81264847D01*
X151910127Y-81412445D01*
X151974817Y-81539406D01*
X151988771Y-81566793D01*
X152086105Y-81700760D01*
X152090586Y-81706928D01*
X152213072Y-81829414D01*
X152213075Y-81829416D01*
X152335621Y-81918452D01*
X152353212Y-81931232D01*
X152507555Y-82009873D01*
X152672299Y-82063402D01*
X152843389Y-82090500D01*
X152843393Y-82090500D01*
X153016607Y-82090500D01*
X153016611Y-82090500D01*
X153187701Y-82063402D01*
X153352445Y-82009873D01*
X153506788Y-81931232D01*
X153646928Y-81829414D01*
X153769414Y-81706928D01*
X153871232Y-81566788D01*
X153949873Y-81412445D01*
X154003402Y-81247701D01*
X154030500Y-81076611D01*
X154030500Y-80903389D01*
X154003402Y-80732299D01*
X153973809Y-80641224D01*
X153969773Y-80564202D01*
X154004788Y-80495481D01*
X154010138Y-80489842D01*
X155900843Y-78599138D01*
X155967636Y-78560576D01*
X156044764Y-78560576D01*
X156073840Y-78571737D01*
X156160994Y-78616145D01*
X156160996Y-78616146D01*
X156254781Y-78631000D01*
X156617818Y-78630999D01*
X156711604Y-78616146D01*
X156824642Y-78558550D01*
X156914350Y-78468842D01*
X156971946Y-78355804D01*
X156986800Y-78262019D01*
X156986799Y-76873982D01*
X156971946Y-76780196D01*
X156914350Y-76667158D01*
X156824642Y-76577450D01*
X156711605Y-76519854D01*
X156695973Y-76517378D01*
X156617819Y-76505000D01*
X156617814Y-76505000D01*
X156254781Y-76505000D01*
X156160995Y-76519854D01*
X156160993Y-76519855D01*
X156047957Y-76577450D01*
X155958250Y-76667157D01*
X155900654Y-76780194D01*
X155900654Y-76780196D01*
X155885800Y-76873981D01*
X155885800Y-76873982D01*
X155885800Y-76873985D01*
X155885800Y-77561099D01*
X155865838Y-77635599D01*
X155842159Y-77666458D01*
X153552240Y-79956376D01*
X153485445Y-79994940D01*
X153408317Y-79994940D01*
X153379239Y-79983778D01*
X153352457Y-79970132D01*
X153352449Y-79970129D01*
X153352445Y-79970127D01*
X153304821Y-79954653D01*
X153187700Y-79916597D01*
X153090086Y-79901137D01*
X153016611Y-79889500D01*
X152843389Y-79889500D01*
X152777037Y-79900009D01*
X152672299Y-79916597D01*
X152507561Y-79970125D01*
X152507555Y-79970127D01*
X152507549Y-79970129D01*
X152507549Y-79970130D01*
X152353206Y-80048771D01*
X152213075Y-80150583D01*
X152090583Y-80273075D01*
X151988771Y-80413206D01*
X151910130Y-80567549D01*
X151910125Y-80567561D01*
X151856597Y-80732299D01*
X151838228Y-80848282D01*
X151829500Y-80903389D01*
X131170500Y-80903389D01*
X131143402Y-80732299D01*
X131089873Y-80567555D01*
X131011232Y-80413212D01*
X130909414Y-80273072D01*
X130786928Y-80150586D01*
X130716550Y-80099453D01*
X130646793Y-80048771D01*
X130646790Y-80048769D01*
X130646788Y-80048768D01*
X130492445Y-79970127D01*
X130444821Y-79954653D01*
X130327700Y-79916597D01*
X130230086Y-79901137D01*
X130156611Y-79889500D01*
X129983389Y-79889500D01*
X129917037Y-79900009D01*
X129812299Y-79916597D01*
X129647561Y-79970125D01*
X129647555Y-79970127D01*
X129647549Y-79970129D01*
X129647549Y-79970130D01*
X129493206Y-80048771D01*
X129353075Y-80150583D01*
X129230583Y-80273075D01*
X129128771Y-80413206D01*
X129050130Y-80567549D01*
X129050125Y-80567561D01*
X128996597Y-80732299D01*
X128978228Y-80848282D01*
X128969500Y-80903389D01*
X120500500Y-80903389D01*
X120500500Y-78363389D01*
X128969500Y-78363389D01*
X128969500Y-78536611D01*
X128979404Y-78599140D01*
X128996597Y-78707700D01*
X129020380Y-78780894D01*
X129050127Y-78872445D01*
X129122132Y-79013763D01*
X129128771Y-79026793D01*
X129158585Y-79067828D01*
X129230586Y-79166928D01*
X129353072Y-79289414D01*
X129493212Y-79391232D01*
X129647555Y-79469873D01*
X129812299Y-79523402D01*
X129983389Y-79550500D01*
X129983393Y-79550500D01*
X130156607Y-79550500D01*
X130156611Y-79550500D01*
X130327701Y-79523402D01*
X130492445Y-79469873D01*
X130646788Y-79391232D01*
X130786928Y-79289414D01*
X130909414Y-79166928D01*
X131011232Y-79026788D01*
X131089873Y-78872445D01*
X131143402Y-78707701D01*
X131170500Y-78536611D01*
X131170500Y-78363389D01*
X151829500Y-78363389D01*
X151829500Y-78536611D01*
X151839404Y-78599140D01*
X151856597Y-78707700D01*
X151880380Y-78780894D01*
X151910127Y-78872445D01*
X151982132Y-79013763D01*
X151988771Y-79026793D01*
X152018585Y-79067828D01*
X152090586Y-79166928D01*
X152213072Y-79289414D01*
X152353212Y-79391232D01*
X152507555Y-79469873D01*
X152672299Y-79523402D01*
X152843389Y-79550500D01*
X152843393Y-79550500D01*
X153016607Y-79550500D01*
X153016611Y-79550500D01*
X153187701Y-79523402D01*
X153352445Y-79469873D01*
X153506788Y-79391232D01*
X153646928Y-79289414D01*
X153769414Y-79166928D01*
X153871232Y-79026788D01*
X153949873Y-78872445D01*
X154003402Y-78707701D01*
X154030500Y-78536611D01*
X154030500Y-78363389D01*
X154003402Y-78192299D01*
X153949873Y-78027555D01*
X153871232Y-77873212D01*
X153769414Y-77733072D01*
X153646928Y-77610586D01*
X153646924Y-77610583D01*
X153506793Y-77508771D01*
X153506790Y-77508769D01*
X153506788Y-77508768D01*
X153352445Y-77430127D01*
X153304821Y-77414653D01*
X153187700Y-77376597D01*
X153090086Y-77361137D01*
X153016611Y-77349500D01*
X152843389Y-77349500D01*
X152777037Y-77360009D01*
X152672299Y-77376597D01*
X152507561Y-77430125D01*
X152507555Y-77430127D01*
X152507549Y-77430129D01*
X152507549Y-77430130D01*
X152353206Y-77508771D01*
X152213075Y-77610583D01*
X152090583Y-77733075D01*
X151988771Y-77873206D01*
X151910130Y-78027549D01*
X151910125Y-78027561D01*
X151856597Y-78192299D01*
X151845556Y-78262014D01*
X151829500Y-78363389D01*
X131170500Y-78363389D01*
X131143402Y-78192299D01*
X131089873Y-78027555D01*
X131011232Y-77873212D01*
X130909414Y-77733072D01*
X130786928Y-77610586D01*
X130786924Y-77610583D01*
X130646793Y-77508771D01*
X130646790Y-77508769D01*
X130646788Y-77508768D01*
X130492445Y-77430127D01*
X130444821Y-77414653D01*
X130327700Y-77376597D01*
X130230086Y-77361137D01*
X130156611Y-77349500D01*
X129983389Y-77349500D01*
X129917037Y-77360009D01*
X129812299Y-77376597D01*
X129647561Y-77430125D01*
X129647555Y-77430127D01*
X129647549Y-77430129D01*
X129647549Y-77430130D01*
X129493206Y-77508771D01*
X129353075Y-77610583D01*
X129230583Y-77733075D01*
X129128771Y-77873206D01*
X129050130Y-78027549D01*
X129050125Y-78027561D01*
X128996597Y-78192299D01*
X128985556Y-78262014D01*
X128969500Y-78363389D01*
X120500500Y-78363389D01*
X120500500Y-75823389D01*
X128969500Y-75823389D01*
X128969500Y-75996611D01*
X128981137Y-76070086D01*
X128996597Y-76167700D01*
X129026750Y-76260499D01*
X129050127Y-76332445D01*
X129122132Y-76473763D01*
X129128771Y-76486793D01*
X129230583Y-76626924D01*
X129230586Y-76626928D01*
X129353072Y-76749414D01*
X129493212Y-76851232D01*
X129647555Y-76929873D01*
X129812299Y-76983402D01*
X129983389Y-77010500D01*
X129983393Y-77010500D01*
X130156607Y-77010500D01*
X130156611Y-77010500D01*
X130327701Y-76983402D01*
X130492445Y-76929873D01*
X130646788Y-76851232D01*
X130786928Y-76749414D01*
X130909414Y-76626928D01*
X131011232Y-76486788D01*
X131089873Y-76332445D01*
X131143402Y-76167701D01*
X131170500Y-75996611D01*
X131170500Y-75823389D01*
X151829500Y-75823389D01*
X151829500Y-75996611D01*
X151841137Y-76070086D01*
X151856597Y-76167700D01*
X151886750Y-76260499D01*
X151910127Y-76332445D01*
X151982132Y-76473763D01*
X151988771Y-76486793D01*
X152090583Y-76626924D01*
X152090586Y-76626928D01*
X152213072Y-76749414D01*
X152353212Y-76851232D01*
X152507555Y-76929873D01*
X152672299Y-76983402D01*
X152843389Y-77010500D01*
X152843393Y-77010500D01*
X153016607Y-77010500D01*
X153016611Y-77010500D01*
X153187701Y-76983402D01*
X153352445Y-76929873D01*
X153506788Y-76851232D01*
X153646928Y-76749414D01*
X153769414Y-76626928D01*
X153871232Y-76486788D01*
X153949873Y-76332445D01*
X154003402Y-76167701D01*
X154030500Y-75996611D01*
X154030500Y-75823389D01*
X154003402Y-75652299D01*
X153949873Y-75487555D01*
X153871232Y-75333212D01*
X153769414Y-75193072D01*
X153646928Y-75070586D01*
X153646924Y-75070583D01*
X153506793Y-74968771D01*
X153506790Y-74968769D01*
X153506788Y-74968768D01*
X153352445Y-74890127D01*
X153304821Y-74874653D01*
X153187700Y-74836597D01*
X153090086Y-74821137D01*
X153016611Y-74809500D01*
X152843389Y-74809500D01*
X152777037Y-74820009D01*
X152672299Y-74836597D01*
X152507561Y-74890125D01*
X152507555Y-74890127D01*
X152507549Y-74890129D01*
X152507549Y-74890130D01*
X152353206Y-74968771D01*
X152213075Y-75070583D01*
X152090583Y-75193075D01*
X151988771Y-75333206D01*
X151910130Y-75487549D01*
X151910125Y-75487561D01*
X151856597Y-75652299D01*
X151838228Y-75768282D01*
X151829500Y-75823389D01*
X131170500Y-75823389D01*
X131143402Y-75652299D01*
X131089873Y-75487555D01*
X131011232Y-75333212D01*
X130909414Y-75193072D01*
X130786928Y-75070586D01*
X130786924Y-75070583D01*
X130646793Y-74968771D01*
X130646790Y-74968769D01*
X130646788Y-74968768D01*
X130492445Y-74890127D01*
X130444821Y-74874653D01*
X130327700Y-74836597D01*
X130230086Y-74821137D01*
X130156611Y-74809500D01*
X129983389Y-74809500D01*
X129917037Y-74820009D01*
X129812299Y-74836597D01*
X129647561Y-74890125D01*
X129647555Y-74890127D01*
X129647549Y-74890129D01*
X129647549Y-74890130D01*
X129493206Y-74968771D01*
X129353075Y-75070583D01*
X129230583Y-75193075D01*
X129128771Y-75333206D01*
X129050130Y-75487549D01*
X129050125Y-75487561D01*
X128996597Y-75652299D01*
X128978228Y-75768282D01*
X128969500Y-75823389D01*
X120500500Y-75823389D01*
X120500500Y-73888389D01*
X121374500Y-73888389D01*
X121374500Y-74061611D01*
X121378510Y-74086928D01*
X121401597Y-74232700D01*
X121427113Y-74311228D01*
X121455127Y-74397445D01*
X121510951Y-74507005D01*
X121533771Y-74551793D01*
X121618462Y-74668359D01*
X121635586Y-74691928D01*
X121758072Y-74814414D01*
X121758075Y-74814416D01*
X121862285Y-74890130D01*
X121898212Y-74916232D01*
X122052555Y-74994873D01*
X122217299Y-75048402D01*
X122388389Y-75075500D01*
X122388393Y-75075500D01*
X122561607Y-75075500D01*
X122561611Y-75075500D01*
X122732701Y-75048402D01*
X122897445Y-74994873D01*
X123051788Y-74916232D01*
X123191928Y-74814414D01*
X123314414Y-74691928D01*
X123416232Y-74551788D01*
X123494873Y-74397445D01*
X123548402Y-74232701D01*
X123575500Y-74061611D01*
X123575500Y-73888389D01*
X123548402Y-73717299D01*
X123494873Y-73552555D01*
X123416232Y-73398212D01*
X123416228Y-73398206D01*
X123416226Y-73398202D01*
X123392188Y-73365118D01*
X123392186Y-73365116D01*
X123332808Y-73283389D01*
X128969500Y-73283389D01*
X128969500Y-73456611D01*
X128981137Y-73530086D01*
X128996597Y-73627700D01*
X129025710Y-73717299D01*
X129050127Y-73792445D01*
X129099013Y-73888389D01*
X129128771Y-73946793D01*
X129138003Y-73959499D01*
X129230586Y-74086928D01*
X129353072Y-74209414D01*
X129493212Y-74311232D01*
X129647555Y-74389873D01*
X129812299Y-74443402D01*
X129983389Y-74470500D01*
X129983393Y-74470500D01*
X130156607Y-74470500D01*
X130156611Y-74470500D01*
X130327701Y-74443402D01*
X130492445Y-74389873D01*
X130646788Y-74311232D01*
X130786928Y-74209414D01*
X130909414Y-74086928D01*
X131011232Y-73946788D01*
X131089873Y-73792445D01*
X131143402Y-73627701D01*
X131170500Y-73456611D01*
X131170500Y-73283389D01*
X151829500Y-73283389D01*
X151829500Y-73456611D01*
X151841137Y-73530086D01*
X151856597Y-73627700D01*
X151885710Y-73717299D01*
X151910127Y-73792445D01*
X151959013Y-73888389D01*
X151988771Y-73946793D01*
X151998003Y-73959499D01*
X152090586Y-74086928D01*
X152213072Y-74209414D01*
X152353212Y-74311232D01*
X152507555Y-74389873D01*
X152672299Y-74443402D01*
X152843389Y-74470500D01*
X152843393Y-74470500D01*
X153016607Y-74470500D01*
X153016611Y-74470500D01*
X153187701Y-74443402D01*
X153352445Y-74389873D01*
X153506788Y-74311232D01*
X153646928Y-74209414D01*
X153769414Y-74086928D01*
X153871232Y-73946788D01*
X153949873Y-73792445D01*
X154003402Y-73627701D01*
X154030500Y-73456611D01*
X154030500Y-73283389D01*
X154003402Y-73112299D01*
X153949873Y-72947555D01*
X153871232Y-72793212D01*
X153769414Y-72653072D01*
X153646928Y-72530586D01*
X153646924Y-72530583D01*
X153506793Y-72428771D01*
X153506790Y-72428769D01*
X153506788Y-72428768D01*
X153352445Y-72350127D01*
X153304821Y-72334653D01*
X153187700Y-72296597D01*
X153090086Y-72281137D01*
X153016611Y-72269500D01*
X152843389Y-72269500D01*
X152777037Y-72280009D01*
X152672299Y-72296597D01*
X152507561Y-72350125D01*
X152507555Y-72350127D01*
X152507549Y-72350129D01*
X152507549Y-72350130D01*
X152353206Y-72428771D01*
X152213075Y-72530583D01*
X152090583Y-72653075D01*
X151988771Y-72793206D01*
X151910130Y-72947549D01*
X151910125Y-72947561D01*
X151856597Y-73112299D01*
X151838228Y-73228282D01*
X151829500Y-73283389D01*
X131170500Y-73283389D01*
X131143402Y-73112299D01*
X131089873Y-72947555D01*
X131011232Y-72793212D01*
X130909414Y-72653072D01*
X130786928Y-72530586D01*
X130786924Y-72530583D01*
X130646793Y-72428771D01*
X130646790Y-72428769D01*
X130646788Y-72428768D01*
X130492445Y-72350127D01*
X130444821Y-72334653D01*
X130327700Y-72296597D01*
X130230086Y-72281137D01*
X130156611Y-72269500D01*
X129983389Y-72269500D01*
X129917037Y-72280009D01*
X129812299Y-72296597D01*
X129647561Y-72350125D01*
X129647555Y-72350127D01*
X129647549Y-72350129D01*
X129647549Y-72350130D01*
X129493206Y-72428771D01*
X129353075Y-72530583D01*
X129230583Y-72653075D01*
X129128771Y-72793206D01*
X129050130Y-72947549D01*
X129050125Y-72947561D01*
X128996597Y-73112299D01*
X128978228Y-73228282D01*
X128969500Y-73283389D01*
X123332808Y-73283389D01*
X123314416Y-73258075D01*
X123314414Y-73258072D01*
X123191928Y-73135586D01*
X123191924Y-73135583D01*
X123051793Y-73033771D01*
X123051790Y-73033769D01*
X123051788Y-73033768D01*
X122897445Y-72955127D01*
X122849821Y-72939653D01*
X122732700Y-72901597D01*
X122635086Y-72886137D01*
X122561611Y-72874500D01*
X122388389Y-72874500D01*
X122322037Y-72885009D01*
X122217299Y-72901597D01*
X122052561Y-72955125D01*
X122052555Y-72955127D01*
X122052549Y-72955129D01*
X122052549Y-72955130D01*
X121898206Y-73033771D01*
X121758075Y-73135583D01*
X121635583Y-73258075D01*
X121533771Y-73398206D01*
X121455130Y-73552549D01*
X121455125Y-73552561D01*
X121401597Y-73717299D01*
X121389697Y-73792438D01*
X121374500Y-73888389D01*
X120500500Y-73888389D01*
X120500500Y-68878706D01*
X122149500Y-68878706D01*
X122149500Y-69121293D01*
X122181160Y-69361781D01*
X122243947Y-69596103D01*
X122336778Y-69820216D01*
X122417634Y-69960263D01*
X122458064Y-70030289D01*
X122605735Y-70222738D01*
X122777262Y-70394265D01*
X122969711Y-70541936D01*
X123179788Y-70663224D01*
X123403900Y-70756054D01*
X123638211Y-70818838D01*
X123638217Y-70818838D01*
X123638218Y-70818839D01*
X123703600Y-70827446D01*
X123878712Y-70850500D01*
X124121288Y-70850500D01*
X124361789Y-70818838D01*
X124596100Y-70756054D01*
X124626676Y-70743389D01*
X128969500Y-70743389D01*
X128969500Y-70916611D01*
X128981137Y-70990086D01*
X128996597Y-71087700D01*
X129034653Y-71204821D01*
X129050127Y-71252445D01*
X129050130Y-71252450D01*
X129128771Y-71406793D01*
X129230583Y-71546924D01*
X129230586Y-71546928D01*
X129353072Y-71669414D01*
X129493212Y-71771232D01*
X129647555Y-71849873D01*
X129812299Y-71903402D01*
X129983389Y-71930500D01*
X129983393Y-71930500D01*
X130156607Y-71930500D01*
X130156611Y-71930500D01*
X130327701Y-71903402D01*
X130492445Y-71849873D01*
X130646788Y-71771232D01*
X130786928Y-71669414D01*
X130909414Y-71546928D01*
X131011232Y-71406788D01*
X131089873Y-71252445D01*
X131143402Y-71087701D01*
X131170500Y-70916611D01*
X131170500Y-70743389D01*
X151829500Y-70743389D01*
X151829500Y-70916611D01*
X151841137Y-70990086D01*
X151856597Y-71087700D01*
X151894653Y-71204821D01*
X151910127Y-71252445D01*
X151910130Y-71252450D01*
X151988771Y-71406793D01*
X152090583Y-71546924D01*
X152090586Y-71546928D01*
X152213072Y-71669414D01*
X152353212Y-71771232D01*
X152507555Y-71849873D01*
X152672299Y-71903402D01*
X152843389Y-71930500D01*
X152843393Y-71930500D01*
X153016607Y-71930500D01*
X153016611Y-71930500D01*
X153187701Y-71903402D01*
X153352445Y-71849873D01*
X153506788Y-71771232D01*
X153646928Y-71669414D01*
X153769414Y-71546928D01*
X153871232Y-71406788D01*
X153949873Y-71252445D01*
X154003402Y-71087701D01*
X154030500Y-70916611D01*
X154030500Y-70743389D01*
X154003402Y-70572299D01*
X153949873Y-70407555D01*
X153871232Y-70253212D01*
X153849091Y-70222738D01*
X153769416Y-70113075D01*
X153769414Y-70113072D01*
X153646928Y-69990586D01*
X153646924Y-69990583D01*
X153506793Y-69888771D01*
X153506790Y-69888769D01*
X153506788Y-69888768D01*
X153352445Y-69810127D01*
X153304821Y-69794653D01*
X153187700Y-69756597D01*
X153090086Y-69741137D01*
X153016611Y-69729500D01*
X152843389Y-69729500D01*
X152777037Y-69740009D01*
X152672299Y-69756597D01*
X152507561Y-69810125D01*
X152507555Y-69810127D01*
X152507549Y-69810129D01*
X152507549Y-69810130D01*
X152353206Y-69888771D01*
X152213075Y-69990583D01*
X152090583Y-70113075D01*
X151988771Y-70253206D01*
X151910130Y-70407549D01*
X151910125Y-70407561D01*
X151856597Y-70572299D01*
X151842197Y-70663221D01*
X151829500Y-70743389D01*
X131170500Y-70743389D01*
X131143402Y-70572299D01*
X131089873Y-70407555D01*
X131011232Y-70253212D01*
X130989091Y-70222738D01*
X130909416Y-70113075D01*
X130909414Y-70113072D01*
X130786928Y-69990586D01*
X130786924Y-69990583D01*
X130646793Y-69888771D01*
X130646790Y-69888769D01*
X130646788Y-69888768D01*
X130492445Y-69810127D01*
X130444821Y-69794653D01*
X130327700Y-69756597D01*
X130230086Y-69741137D01*
X130156611Y-69729500D01*
X129983389Y-69729500D01*
X129917037Y-69740009D01*
X129812299Y-69756597D01*
X129647561Y-69810125D01*
X129647555Y-69810127D01*
X129647549Y-69810129D01*
X129647549Y-69810130D01*
X129493206Y-69888771D01*
X129353075Y-69990583D01*
X129230583Y-70113075D01*
X129128771Y-70253206D01*
X129050130Y-70407549D01*
X129050125Y-70407561D01*
X128996597Y-70572299D01*
X128982197Y-70663221D01*
X128969500Y-70743389D01*
X124626676Y-70743389D01*
X124820212Y-70663224D01*
X125030289Y-70541936D01*
X125222738Y-70394265D01*
X125394265Y-70222738D01*
X125541936Y-70030289D01*
X125663224Y-69820212D01*
X125756054Y-69596100D01*
X125818838Y-69361789D01*
X125850500Y-69121288D01*
X125850500Y-68878712D01*
X125818838Y-68638211D01*
X125756054Y-68403900D01*
X125663224Y-68179788D01*
X125541936Y-67969711D01*
X125394265Y-67777262D01*
X125222738Y-67605735D01*
X125103383Y-67514151D01*
X125030293Y-67458066D01*
X125030291Y-67458065D01*
X124956258Y-67415322D01*
X151829500Y-67415322D01*
X151829500Y-69164677D01*
X151844033Y-69237739D01*
X151844034Y-69237740D01*
X151899399Y-69320601D01*
X151982260Y-69375966D01*
X152055326Y-69390500D01*
X152055330Y-69390500D01*
X153804670Y-69390500D01*
X153804674Y-69390500D01*
X153877740Y-69375966D01*
X153960601Y-69320601D01*
X154015966Y-69237740D01*
X154030500Y-69164674D01*
X154030500Y-68878706D01*
X199149500Y-68878706D01*
X199149500Y-69121293D01*
X199181160Y-69361781D01*
X199243947Y-69596103D01*
X199336778Y-69820216D01*
X199417634Y-69960263D01*
X199458064Y-70030289D01*
X199605735Y-70222738D01*
X199777262Y-70394265D01*
X199969711Y-70541936D01*
X200179788Y-70663224D01*
X200403900Y-70756054D01*
X200638211Y-70818838D01*
X200638217Y-70818838D01*
X200638218Y-70818839D01*
X200703600Y-70827446D01*
X200878712Y-70850500D01*
X201121288Y-70850500D01*
X201361789Y-70818838D01*
X201596100Y-70756054D01*
X201820212Y-70663224D01*
X202030289Y-70541936D01*
X202222738Y-70394265D01*
X202394265Y-70222738D01*
X202541936Y-70030289D01*
X202663224Y-69820212D01*
X202756054Y-69596100D01*
X202818838Y-69361789D01*
X202850500Y-69121288D01*
X202850500Y-68878712D01*
X202818838Y-68638211D01*
X202756054Y-68403900D01*
X202663224Y-68179788D01*
X202541936Y-67969711D01*
X202394265Y-67777262D01*
X202222738Y-67605735D01*
X202030289Y-67458064D01*
X201829711Y-67342260D01*
X201820216Y-67336778D01*
X201820214Y-67336777D01*
X201820212Y-67336776D01*
X201633405Y-67259398D01*
X201596103Y-67243947D01*
X201596101Y-67243946D01*
X201596100Y-67243946D01*
X201361789Y-67181162D01*
X201361787Y-67181161D01*
X201361781Y-67181160D01*
X201121293Y-67149500D01*
X201121288Y-67149500D01*
X200878712Y-67149500D01*
X200878706Y-67149500D01*
X200638218Y-67181160D01*
X200403896Y-67243947D01*
X200179783Y-67336778D01*
X199969712Y-67458063D01*
X199969708Y-67458066D01*
X199777262Y-67605735D01*
X199777260Y-67605736D01*
X199777256Y-67605740D01*
X199605740Y-67777256D01*
X199458063Y-67969712D01*
X199336778Y-68179783D01*
X199243947Y-68403896D01*
X199181160Y-68638218D01*
X199149500Y-68878706D01*
X154030500Y-68878706D01*
X154030500Y-67415326D01*
X154015966Y-67342260D01*
X153960601Y-67259399D01*
X153937476Y-67243947D01*
X153877739Y-67204033D01*
X153804677Y-67189500D01*
X153804674Y-67189500D01*
X152055326Y-67189500D01*
X152055322Y-67189500D01*
X151982260Y-67204033D01*
X151899399Y-67259398D01*
X151899398Y-67259399D01*
X151844033Y-67342260D01*
X151829500Y-67415322D01*
X124956258Y-67415322D01*
X124820216Y-67336778D01*
X124820214Y-67336777D01*
X124820212Y-67336776D01*
X124633405Y-67259398D01*
X124596103Y-67243947D01*
X124596101Y-67243946D01*
X124596100Y-67243946D01*
X124361789Y-67181162D01*
X124361787Y-67181161D01*
X124361781Y-67181160D01*
X124121293Y-67149500D01*
X124121288Y-67149500D01*
X123878712Y-67149500D01*
X123878706Y-67149500D01*
X123638218Y-67181160D01*
X123403896Y-67243947D01*
X123179783Y-67336778D01*
X122969712Y-67458063D01*
X122969708Y-67458066D01*
X122777262Y-67605735D01*
X122777260Y-67605736D01*
X122777256Y-67605740D01*
X122605740Y-67777256D01*
X122458063Y-67969712D01*
X122336778Y-68179783D01*
X122243947Y-68403896D01*
X122181160Y-68638218D01*
X122149500Y-68878706D01*
X120500500Y-68878706D01*
X120500500Y-65649500D01*
X120520462Y-65575000D01*
X120575000Y-65520462D01*
X120649500Y-65500500D01*
X204350500Y-65500500D01*
X204425000Y-65520462D01*
G37*
%TD.AperFunction*%
%TD*%
M02*
