%TF.GenerationSoftware,KiCad,Pcbnew,10.0.6*%
%TF.CreationDate,2026-09-25T15:20:53-03:00*%
%TF.ProjectId,pcbignicao_smd,70636269-676e-4696-9361-6f5f736d642e,2.1*%
%TF.SameCoordinates,Original*%
%TF.FileFunction,Legend,Bot*%
%TF.FilePolarity,Positive*%
%FSLAX46Y46*%
G04 Gerber Fmt 4.6, Leading zero omitted, Abs format (unit mm)*
G04 Created by KiCad (PCBNEW 10.0.6) date 2026-09-25 15:20:53*
%MOMM*%
%LPD*%
G01*
G04 APERTURE LIST*
%ADD10C,0.210000*%
G04 APERTURE END LIST*
D10*
X185736665Y-75919296D02*
X186203332Y-75252630D01*
X186536665Y-75919296D02*
X186536665Y-74519296D01*
X186536665Y-74519296D02*
X186003332Y-74519296D01*
X186003332Y-74519296D02*
X185869999Y-74585963D01*
X185869999Y-74585963D02*
X185803332Y-74652630D01*
X185803332Y-74652630D02*
X185736665Y-74785963D01*
X185736665Y-74785963D02*
X185736665Y-74985963D01*
X185736665Y-74985963D02*
X185803332Y-75119296D01*
X185803332Y-75119296D02*
X185869999Y-75185963D01*
X185869999Y-75185963D02*
X186003332Y-75252630D01*
X186003332Y-75252630D02*
X186536665Y-75252630D01*
X185136665Y-75185963D02*
X184669999Y-75185963D01*
X184469999Y-75919296D02*
X185136665Y-75919296D01*
X185136665Y-75919296D02*
X185136665Y-74519296D01*
X185136665Y-74519296D02*
X184469999Y-74519296D01*
X184069998Y-74519296D02*
X183603332Y-75919296D01*
X183603332Y-75919296D02*
X183136665Y-74519296D01*
X180869998Y-75919296D02*
X181669998Y-75919296D01*
X181269998Y-75919296D02*
X181269998Y-74519296D01*
X181269998Y-74519296D02*
X181403331Y-74719296D01*
X181403331Y-74719296D02*
X181536665Y-74852630D01*
X181536665Y-74852630D02*
X181669998Y-74919296D01*
X180269998Y-75785963D02*
X180203332Y-75852630D01*
X180203332Y-75852630D02*
X180269998Y-75919296D01*
X180269998Y-75919296D02*
X180336665Y-75852630D01*
X180336665Y-75852630D02*
X180269998Y-75785963D01*
X180269998Y-75785963D02*
X180269998Y-75919296D01*
X179336665Y-74519296D02*
X179203331Y-74519296D01*
X179203331Y-74519296D02*
X179069998Y-74585963D01*
X179069998Y-74585963D02*
X179003331Y-74652630D01*
X179003331Y-74652630D02*
X178936665Y-74785963D01*
X178936665Y-74785963D02*
X178869998Y-75052630D01*
X178869998Y-75052630D02*
X178869998Y-75385963D01*
X178869998Y-75385963D02*
X178936665Y-75652630D01*
X178936665Y-75652630D02*
X179003331Y-75785963D01*
X179003331Y-75785963D02*
X179069998Y-75852630D01*
X179069998Y-75852630D02*
X179203331Y-75919296D01*
X179203331Y-75919296D02*
X179336665Y-75919296D01*
X179336665Y-75919296D02*
X179469998Y-75852630D01*
X179469998Y-75852630D02*
X179536665Y-75785963D01*
X179536665Y-75785963D02*
X179603331Y-75652630D01*
X179603331Y-75652630D02*
X179669998Y-75385963D01*
X179669998Y-75385963D02*
X179669998Y-75052630D01*
X179669998Y-75052630D02*
X179603331Y-74785963D01*
X179603331Y-74785963D02*
X179536665Y-74652630D01*
X179536665Y-74652630D02*
X179469998Y-74585963D01*
X179469998Y-74585963D02*
X179336665Y-74519296D01*
M02*
