%TF.GenerationSoftware,KiCad,Pcbnew,10.0.6*%
%TF.CreationDate,2026-09-24T16:35:56-03:00*%
%TF.ProjectId,pcbignicao,70636269-676e-4696-9361-6f2e6b696361,1.1*%
%TF.SameCoordinates,Original*%
%TF.FileFunction,Legend,Top*%
%TF.FilePolarity,Positive*%
%FSLAX46Y46*%
G04 Gerber Fmt 4.6, Leading zero omitted, Abs format (unit mm)*
G04 Created by KiCad (PCBNEW 10.0.6) date 2026-09-24 16:35:56*
%MOMM*%
%LPD*%
G01*
G04 APERTURE LIST*
%ADD10C,0.150000*%
%ADD11C,0.130000*%
%ADD12C,0.120000*%
%ADD13C,0.360000*%
G04 APERTURE END LIST*
D10*
X173992833Y-115450014D02*
X173659500Y-114973823D01*
X173421405Y-115450014D02*
X173421405Y-114450014D01*
X173421405Y-114450014D02*
X173802357Y-114450014D01*
X173802357Y-114450014D02*
X173897595Y-114497633D01*
X173897595Y-114497633D02*
X173945214Y-114545252D01*
X173945214Y-114545252D02*
X173992833Y-114640490D01*
X173992833Y-114640490D02*
X173992833Y-114783347D01*
X173992833Y-114783347D02*
X173945214Y-114878585D01*
X173945214Y-114878585D02*
X173897595Y-114926204D01*
X173897595Y-114926204D02*
X173802357Y-114973823D01*
X173802357Y-114973823D02*
X173421405Y-114973823D01*
X174897595Y-114450014D02*
X174421405Y-114450014D01*
X174421405Y-114450014D02*
X174373786Y-114926204D01*
X174373786Y-114926204D02*
X174421405Y-114878585D01*
X174421405Y-114878585D02*
X174516643Y-114830966D01*
X174516643Y-114830966D02*
X174754738Y-114830966D01*
X174754738Y-114830966D02*
X174849976Y-114878585D01*
X174849976Y-114878585D02*
X174897595Y-114926204D01*
X174897595Y-114926204D02*
X174945214Y-115021442D01*
X174945214Y-115021442D02*
X174945214Y-115259537D01*
X174945214Y-115259537D02*
X174897595Y-115354775D01*
X174897595Y-115354775D02*
X174849976Y-115402395D01*
X174849976Y-115402395D02*
X174754738Y-115450014D01*
X174754738Y-115450014D02*
X174516643Y-115450014D01*
X174516643Y-115450014D02*
X174421405Y-115402395D01*
X174421405Y-115402395D02*
X174373786Y-115354775D01*
X170903605Y-126008694D02*
X170903605Y-125008694D01*
X170903605Y-125008694D02*
X171141700Y-125008694D01*
X171141700Y-125008694D02*
X171284557Y-125056313D01*
X171284557Y-125056313D02*
X171379795Y-125151551D01*
X171379795Y-125151551D02*
X171427414Y-125246789D01*
X171427414Y-125246789D02*
X171475033Y-125437265D01*
X171475033Y-125437265D02*
X171475033Y-125580122D01*
X171475033Y-125580122D02*
X171427414Y-125770598D01*
X171427414Y-125770598D02*
X171379795Y-125865836D01*
X171379795Y-125865836D02*
X171284557Y-125961075D01*
X171284557Y-125961075D02*
X171141700Y-126008694D01*
X171141700Y-126008694D02*
X170903605Y-126008694D01*
X171808367Y-125008694D02*
X172427414Y-125008694D01*
X172427414Y-125008694D02*
X172094081Y-125389646D01*
X172094081Y-125389646D02*
X172236938Y-125389646D01*
X172236938Y-125389646D02*
X172332176Y-125437265D01*
X172332176Y-125437265D02*
X172379795Y-125484884D01*
X172379795Y-125484884D02*
X172427414Y-125580122D01*
X172427414Y-125580122D02*
X172427414Y-125818217D01*
X172427414Y-125818217D02*
X172379795Y-125913455D01*
X172379795Y-125913455D02*
X172332176Y-125961075D01*
X172332176Y-125961075D02*
X172236938Y-126008694D01*
X172236938Y-126008694D02*
X171951224Y-126008694D01*
X171951224Y-126008694D02*
X171855986Y-125961075D01*
X171855986Y-125961075D02*
X171808367Y-125913455D01*
X189466667Y-77129819D02*
X189466667Y-76129819D01*
X189466667Y-76129819D02*
X189800000Y-76844104D01*
X189800000Y-76844104D02*
X190133333Y-76129819D01*
X190133333Y-76129819D02*
X190133333Y-77129819D01*
X190609524Y-77129819D02*
X190609524Y-76129819D01*
X190609524Y-76606009D02*
X191180952Y-76606009D01*
X191180952Y-77129819D02*
X191180952Y-76129819D01*
X191609524Y-76225057D02*
X191657143Y-76177438D01*
X191657143Y-76177438D02*
X191752381Y-76129819D01*
X191752381Y-76129819D02*
X191990476Y-76129819D01*
X191990476Y-76129819D02*
X192085714Y-76177438D01*
X192085714Y-76177438D02*
X192133333Y-76225057D01*
X192133333Y-76225057D02*
X192180952Y-76320295D01*
X192180952Y-76320295D02*
X192180952Y-76415533D01*
X192180952Y-76415533D02*
X192133333Y-76558390D01*
X192133333Y-76558390D02*
X191561905Y-77129819D01*
X191561905Y-77129819D02*
X192180952Y-77129819D01*
X179966305Y-110425619D02*
X179966305Y-109425619D01*
X179966305Y-109425619D02*
X180204400Y-109425619D01*
X180204400Y-109425619D02*
X180347257Y-109473238D01*
X180347257Y-109473238D02*
X180442495Y-109568476D01*
X180442495Y-109568476D02*
X180490114Y-109663714D01*
X180490114Y-109663714D02*
X180537733Y-109854190D01*
X180537733Y-109854190D02*
X180537733Y-109997047D01*
X180537733Y-109997047D02*
X180490114Y-110187523D01*
X180490114Y-110187523D02*
X180442495Y-110282761D01*
X180442495Y-110282761D02*
X180347257Y-110378000D01*
X180347257Y-110378000D02*
X180204400Y-110425619D01*
X180204400Y-110425619D02*
X179966305Y-110425619D01*
X180918686Y-109520857D02*
X180966305Y-109473238D01*
X180966305Y-109473238D02*
X181061543Y-109425619D01*
X181061543Y-109425619D02*
X181299638Y-109425619D01*
X181299638Y-109425619D02*
X181394876Y-109473238D01*
X181394876Y-109473238D02*
X181442495Y-109520857D01*
X181442495Y-109520857D02*
X181490114Y-109616095D01*
X181490114Y-109616095D02*
X181490114Y-109711333D01*
X181490114Y-109711333D02*
X181442495Y-109854190D01*
X181442495Y-109854190D02*
X180871067Y-110425619D01*
X180871067Y-110425619D02*
X181490114Y-110425619D01*
D11*
X131189166Y-128946704D02*
X131189166Y-128096704D01*
X131189166Y-128096704D02*
X131472500Y-128703847D01*
X131472500Y-128703847D02*
X131755833Y-128096704D01*
X131755833Y-128096704D02*
X131755833Y-128946704D01*
X132160595Y-128946704D02*
X132160595Y-128096704D01*
X132160595Y-128501466D02*
X132646310Y-128501466D01*
X132646310Y-128946704D02*
X132646310Y-128096704D01*
X132970119Y-128096704D02*
X133496310Y-128096704D01*
X133496310Y-128096704D02*
X133212976Y-128420513D01*
X133212976Y-128420513D02*
X133334405Y-128420513D01*
X133334405Y-128420513D02*
X133415357Y-128460989D01*
X133415357Y-128460989D02*
X133455833Y-128501466D01*
X133455833Y-128501466D02*
X133496310Y-128582418D01*
X133496310Y-128582418D02*
X133496310Y-128784799D01*
X133496310Y-128784799D02*
X133455833Y-128865751D01*
X133455833Y-128865751D02*
X133415357Y-128906228D01*
X133415357Y-128906228D02*
X133334405Y-128946704D01*
X133334405Y-128946704D02*
X133091548Y-128946704D01*
X133091548Y-128946704D02*
X133010595Y-128906228D01*
X133010595Y-128906228D02*
X132970119Y-128865751D01*
D10*
X150663851Y-75249819D02*
X150663851Y-75964104D01*
X150663851Y-75964104D02*
X150616232Y-76106961D01*
X150616232Y-76106961D02*
X150520994Y-76202200D01*
X150520994Y-76202200D02*
X150378137Y-76249819D01*
X150378137Y-76249819D02*
X150282899Y-76249819D01*
X151663851Y-76249819D02*
X151092423Y-76249819D01*
X151378137Y-76249819D02*
X151378137Y-75249819D01*
X151378137Y-75249819D02*
X151282899Y-75392676D01*
X151282899Y-75392676D02*
X151187661Y-75487914D01*
X151187661Y-75487914D02*
X151092423Y-75535533D01*
X152044804Y-75345057D02*
X152092423Y-75297438D01*
X152092423Y-75297438D02*
X152187661Y-75249819D01*
X152187661Y-75249819D02*
X152425756Y-75249819D01*
X152425756Y-75249819D02*
X152520994Y-75297438D01*
X152520994Y-75297438D02*
X152568613Y-75345057D01*
X152568613Y-75345057D02*
X152616232Y-75440295D01*
X152616232Y-75440295D02*
X152616232Y-75535533D01*
X152616232Y-75535533D02*
X152568613Y-75678390D01*
X152568613Y-75678390D02*
X151997185Y-76249819D01*
X151997185Y-76249819D02*
X152616232Y-76249819D01*
D11*
X155792005Y-109889467D02*
X155792005Y-110496610D01*
X155792005Y-110496610D02*
X155751528Y-110618038D01*
X155751528Y-110618038D02*
X155670576Y-110698991D01*
X155670576Y-110698991D02*
X155549147Y-110739467D01*
X155549147Y-110739467D02*
X155468195Y-110739467D01*
X156642005Y-110739467D02*
X156156290Y-110739467D01*
X156399147Y-110739467D02*
X156399147Y-109889467D01*
X156399147Y-109889467D02*
X156318195Y-110010895D01*
X156318195Y-110010895D02*
X156237243Y-110091848D01*
X156237243Y-110091848D02*
X156156290Y-110132324D01*
X157168195Y-109889467D02*
X157249148Y-109889467D01*
X157249148Y-109889467D02*
X157330100Y-109929943D01*
X157330100Y-109929943D02*
X157370576Y-109970419D01*
X157370576Y-109970419D02*
X157411052Y-110051371D01*
X157411052Y-110051371D02*
X157451529Y-110213276D01*
X157451529Y-110213276D02*
X157451529Y-110415657D01*
X157451529Y-110415657D02*
X157411052Y-110577562D01*
X157411052Y-110577562D02*
X157370576Y-110658514D01*
X157370576Y-110658514D02*
X157330100Y-110698991D01*
X157330100Y-110698991D02*
X157249148Y-110739467D01*
X157249148Y-110739467D02*
X157168195Y-110739467D01*
X157168195Y-110739467D02*
X157087243Y-110698991D01*
X157087243Y-110698991D02*
X157046767Y-110658514D01*
X157046767Y-110658514D02*
X157006290Y-110577562D01*
X157006290Y-110577562D02*
X156965814Y-110415657D01*
X156965814Y-110415657D02*
X156965814Y-110213276D01*
X156965814Y-110213276D02*
X157006290Y-110051371D01*
X157006290Y-110051371D02*
X157046767Y-109970419D01*
X157046767Y-109970419D02*
X157087243Y-109929943D01*
X157087243Y-109929943D02*
X157168195Y-109889467D01*
D10*
X171801666Y-130454819D02*
X171801666Y-131169104D01*
X171801666Y-131169104D02*
X171754047Y-131311961D01*
X171754047Y-131311961D02*
X171658809Y-131407200D01*
X171658809Y-131407200D02*
X171515952Y-131454819D01*
X171515952Y-131454819D02*
X171420714Y-131454819D01*
X172420714Y-130883390D02*
X172325476Y-130835771D01*
X172325476Y-130835771D02*
X172277857Y-130788152D01*
X172277857Y-130788152D02*
X172230238Y-130692914D01*
X172230238Y-130692914D02*
X172230238Y-130645295D01*
X172230238Y-130645295D02*
X172277857Y-130550057D01*
X172277857Y-130550057D02*
X172325476Y-130502438D01*
X172325476Y-130502438D02*
X172420714Y-130454819D01*
X172420714Y-130454819D02*
X172611190Y-130454819D01*
X172611190Y-130454819D02*
X172706428Y-130502438D01*
X172706428Y-130502438D02*
X172754047Y-130550057D01*
X172754047Y-130550057D02*
X172801666Y-130645295D01*
X172801666Y-130645295D02*
X172801666Y-130692914D01*
X172801666Y-130692914D02*
X172754047Y-130788152D01*
X172754047Y-130788152D02*
X172706428Y-130835771D01*
X172706428Y-130835771D02*
X172611190Y-130883390D01*
X172611190Y-130883390D02*
X172420714Y-130883390D01*
X172420714Y-130883390D02*
X172325476Y-130931009D01*
X172325476Y-130931009D02*
X172277857Y-130978628D01*
X172277857Y-130978628D02*
X172230238Y-131073866D01*
X172230238Y-131073866D02*
X172230238Y-131264342D01*
X172230238Y-131264342D02*
X172277857Y-131359580D01*
X172277857Y-131359580D02*
X172325476Y-131407200D01*
X172325476Y-131407200D02*
X172420714Y-131454819D01*
X172420714Y-131454819D02*
X172611190Y-131454819D01*
X172611190Y-131454819D02*
X172706428Y-131407200D01*
X172706428Y-131407200D02*
X172754047Y-131359580D01*
X172754047Y-131359580D02*
X172801666Y-131264342D01*
X172801666Y-131264342D02*
X172801666Y-131073866D01*
X172801666Y-131073866D02*
X172754047Y-130978628D01*
X172754047Y-130978628D02*
X172706428Y-130931009D01*
X172706428Y-130931009D02*
X172611190Y-130883390D01*
X172190476Y-75249819D02*
X172190476Y-75964104D01*
X172190476Y-75964104D02*
X172142857Y-76106961D01*
X172142857Y-76106961D02*
X172047619Y-76202200D01*
X172047619Y-76202200D02*
X171904762Y-76249819D01*
X171904762Y-76249819D02*
X171809524Y-76249819D01*
X173190476Y-76249819D02*
X172619048Y-76249819D01*
X172904762Y-76249819D02*
X172904762Y-75249819D01*
X172904762Y-75249819D02*
X172809524Y-75392676D01*
X172809524Y-75392676D02*
X172714286Y-75487914D01*
X172714286Y-75487914D02*
X172619048Y-75535533D01*
X174142857Y-76249819D02*
X173571429Y-76249819D01*
X173857143Y-76249819D02*
X173857143Y-75249819D01*
X173857143Y-75249819D02*
X173761905Y-75392676D01*
X173761905Y-75392676D02*
X173666667Y-75487914D01*
X173666667Y-75487914D02*
X173571429Y-75535533D01*
X177773233Y-103796892D02*
X177725614Y-103844512D01*
X177725614Y-103844512D02*
X177582757Y-103892131D01*
X177582757Y-103892131D02*
X177487519Y-103892131D01*
X177487519Y-103892131D02*
X177344662Y-103844512D01*
X177344662Y-103844512D02*
X177249424Y-103749273D01*
X177249424Y-103749273D02*
X177201805Y-103654035D01*
X177201805Y-103654035D02*
X177154186Y-103463559D01*
X177154186Y-103463559D02*
X177154186Y-103320702D01*
X177154186Y-103320702D02*
X177201805Y-103130226D01*
X177201805Y-103130226D02*
X177249424Y-103034988D01*
X177249424Y-103034988D02*
X177344662Y-102939750D01*
X177344662Y-102939750D02*
X177487519Y-102892131D01*
X177487519Y-102892131D02*
X177582757Y-102892131D01*
X177582757Y-102892131D02*
X177725614Y-102939750D01*
X177725614Y-102939750D02*
X177773233Y-102987369D01*
X178725614Y-103892131D02*
X178154186Y-103892131D01*
X178439900Y-103892131D02*
X178439900Y-102892131D01*
X178439900Y-102892131D02*
X178344662Y-103034988D01*
X178344662Y-103034988D02*
X178249424Y-103130226D01*
X178249424Y-103130226D02*
X178154186Y-103177845D01*
X136111978Y-77249819D02*
X136111978Y-77964104D01*
X136111978Y-77964104D02*
X136064359Y-78106961D01*
X136064359Y-78106961D02*
X135969121Y-78202200D01*
X135969121Y-78202200D02*
X135826264Y-78249819D01*
X135826264Y-78249819D02*
X135731026Y-78249819D01*
X136492931Y-77249819D02*
X137159597Y-77249819D01*
X137159597Y-77249819D02*
X136731026Y-78249819D01*
D11*
X152787433Y-105667267D02*
X152504099Y-105262505D01*
X152301718Y-105667267D02*
X152301718Y-104817267D01*
X152301718Y-104817267D02*
X152625528Y-104817267D01*
X152625528Y-104817267D02*
X152706480Y-104857743D01*
X152706480Y-104857743D02*
X152746957Y-104898219D01*
X152746957Y-104898219D02*
X152787433Y-104979171D01*
X152787433Y-104979171D02*
X152787433Y-105100600D01*
X152787433Y-105100600D02*
X152746957Y-105181552D01*
X152746957Y-105181552D02*
X152706480Y-105222029D01*
X152706480Y-105222029D02*
X152625528Y-105262505D01*
X152625528Y-105262505D02*
X152301718Y-105262505D01*
X153516004Y-104817267D02*
X153354099Y-104817267D01*
X153354099Y-104817267D02*
X153273147Y-104857743D01*
X153273147Y-104857743D02*
X153232671Y-104898219D01*
X153232671Y-104898219D02*
X153151718Y-105019648D01*
X153151718Y-105019648D02*
X153111242Y-105181552D01*
X153111242Y-105181552D02*
X153111242Y-105505362D01*
X153111242Y-105505362D02*
X153151718Y-105586314D01*
X153151718Y-105586314D02*
X153192195Y-105626791D01*
X153192195Y-105626791D02*
X153273147Y-105667267D01*
X153273147Y-105667267D02*
X153435052Y-105667267D01*
X153435052Y-105667267D02*
X153516004Y-105626791D01*
X153516004Y-105626791D02*
X153556480Y-105586314D01*
X153556480Y-105586314D02*
X153596957Y-105505362D01*
X153596957Y-105505362D02*
X153596957Y-105302981D01*
X153596957Y-105302981D02*
X153556480Y-105222029D01*
X153556480Y-105222029D02*
X153516004Y-105181552D01*
X153516004Y-105181552D02*
X153435052Y-105141076D01*
X153435052Y-105141076D02*
X153273147Y-105141076D01*
X153273147Y-105141076D02*
X153192195Y-105181552D01*
X153192195Y-105181552D02*
X153151718Y-105222029D01*
X153151718Y-105222029D02*
X153111242Y-105302981D01*
D10*
X131059167Y-75791331D02*
X131059167Y-74791331D01*
X131059167Y-74791331D02*
X131392500Y-75505616D01*
X131392500Y-75505616D02*
X131725833Y-74791331D01*
X131725833Y-74791331D02*
X131725833Y-75791331D01*
X132202024Y-75791331D02*
X132202024Y-74791331D01*
X132202024Y-75267521D02*
X132773452Y-75267521D01*
X132773452Y-75791331D02*
X132773452Y-74791331D01*
X133773452Y-75791331D02*
X133202024Y-75791331D01*
X133487738Y-75791331D02*
X133487738Y-74791331D01*
X133487738Y-74791331D02*
X133392500Y-74934188D01*
X133392500Y-74934188D02*
X133297262Y-75029426D01*
X133297262Y-75029426D02*
X133202024Y-75077045D01*
X140066665Y-126426569D02*
X140066665Y-127140854D01*
X140066665Y-127140854D02*
X140019046Y-127283711D01*
X140019046Y-127283711D02*
X139923808Y-127378950D01*
X139923808Y-127378950D02*
X139780951Y-127426569D01*
X139780951Y-127426569D02*
X139685713Y-127426569D01*
X140971427Y-126426569D02*
X140780951Y-126426569D01*
X140780951Y-126426569D02*
X140685713Y-126474188D01*
X140685713Y-126474188D02*
X140638094Y-126521807D01*
X140638094Y-126521807D02*
X140542856Y-126664664D01*
X140542856Y-126664664D02*
X140495237Y-126855140D01*
X140495237Y-126855140D02*
X140495237Y-127236092D01*
X140495237Y-127236092D02*
X140542856Y-127331330D01*
X140542856Y-127331330D02*
X140590475Y-127378950D01*
X140590475Y-127378950D02*
X140685713Y-127426569D01*
X140685713Y-127426569D02*
X140876189Y-127426569D01*
X140876189Y-127426569D02*
X140971427Y-127378950D01*
X140971427Y-127378950D02*
X141019046Y-127331330D01*
X141019046Y-127331330D02*
X141066665Y-127236092D01*
X141066665Y-127236092D02*
X141066665Y-126997997D01*
X141066665Y-126997997D02*
X141019046Y-126902759D01*
X141019046Y-126902759D02*
X140971427Y-126855140D01*
X140971427Y-126855140D02*
X140876189Y-126807521D01*
X140876189Y-126807521D02*
X140685713Y-126807521D01*
X140685713Y-126807521D02*
X140590475Y-126855140D01*
X140590475Y-126855140D02*
X140542856Y-126902759D01*
X140542856Y-126902759D02*
X140495237Y-126997997D01*
X189466667Y-127806569D02*
X189466667Y-126806569D01*
X189466667Y-126806569D02*
X189800000Y-127520854D01*
X189800000Y-127520854D02*
X190133333Y-126806569D01*
X190133333Y-126806569D02*
X190133333Y-127806569D01*
X190609524Y-127806569D02*
X190609524Y-126806569D01*
X190609524Y-127282759D02*
X191180952Y-127282759D01*
X191180952Y-127806569D02*
X191180952Y-126806569D01*
X192085714Y-127139902D02*
X192085714Y-127806569D01*
X191847619Y-126758950D02*
X191609524Y-127473235D01*
X191609524Y-127473235D02*
X192228571Y-127473235D01*
X155105266Y-127445469D02*
X155105266Y-128159754D01*
X155105266Y-128159754D02*
X155057647Y-128302611D01*
X155057647Y-128302611D02*
X154962409Y-128397850D01*
X154962409Y-128397850D02*
X154819552Y-128445469D01*
X154819552Y-128445469D02*
X154724314Y-128445469D01*
X156010028Y-127778802D02*
X156010028Y-128445469D01*
X155771933Y-127397850D02*
X155533838Y-128112135D01*
X155533838Y-128112135D02*
X156152885Y-128112135D01*
X171166195Y-106491244D02*
X171166195Y-107300767D01*
X171166195Y-107300767D02*
X171213814Y-107396005D01*
X171213814Y-107396005D02*
X171261433Y-107443625D01*
X171261433Y-107443625D02*
X171356671Y-107491244D01*
X171356671Y-107491244D02*
X171547147Y-107491244D01*
X171547147Y-107491244D02*
X171642385Y-107443625D01*
X171642385Y-107443625D02*
X171690004Y-107396005D01*
X171690004Y-107396005D02*
X171737623Y-107300767D01*
X171737623Y-107300767D02*
X171737623Y-106491244D01*
X172118576Y-106491244D02*
X172737623Y-106491244D01*
X172737623Y-106491244D02*
X172404290Y-106872196D01*
X172404290Y-106872196D02*
X172547147Y-106872196D01*
X172547147Y-106872196D02*
X172642385Y-106919815D01*
X172642385Y-106919815D02*
X172690004Y-106967434D01*
X172690004Y-106967434D02*
X172737623Y-107062672D01*
X172737623Y-107062672D02*
X172737623Y-107300767D01*
X172737623Y-107300767D02*
X172690004Y-107396005D01*
X172690004Y-107396005D02*
X172642385Y-107443625D01*
X172642385Y-107443625D02*
X172547147Y-107491244D01*
X172547147Y-107491244D02*
X172261433Y-107491244D01*
X172261433Y-107491244D02*
X172166195Y-107443625D01*
X172166195Y-107443625D02*
X172118576Y-107396005D01*
X189513095Y-88265131D02*
X189513095Y-89074654D01*
X189513095Y-89074654D02*
X189560714Y-89169892D01*
X189560714Y-89169892D02*
X189608333Y-89217512D01*
X189608333Y-89217512D02*
X189703571Y-89265131D01*
X189703571Y-89265131D02*
X189894047Y-89265131D01*
X189894047Y-89265131D02*
X189989285Y-89217512D01*
X189989285Y-89217512D02*
X190036904Y-89169892D01*
X190036904Y-89169892D02*
X190084523Y-89074654D01*
X190084523Y-89074654D02*
X190084523Y-88265131D01*
X191084523Y-89265131D02*
X190513095Y-89265131D01*
X190798809Y-89265131D02*
X190798809Y-88265131D01*
X190798809Y-88265131D02*
X190703571Y-88407988D01*
X190703571Y-88407988D02*
X190608333Y-88503226D01*
X190608333Y-88503226D02*
X190513095Y-88550845D01*
D11*
X155972458Y-123402966D02*
X155689124Y-122998204D01*
X155486743Y-123402966D02*
X155486743Y-122552966D01*
X155486743Y-122552966D02*
X155810553Y-122552966D01*
X155810553Y-122552966D02*
X155891505Y-122593442D01*
X155891505Y-122593442D02*
X155931982Y-122633918D01*
X155931982Y-122633918D02*
X155972458Y-122714870D01*
X155972458Y-122714870D02*
X155972458Y-122836299D01*
X155972458Y-122836299D02*
X155931982Y-122917251D01*
X155931982Y-122917251D02*
X155891505Y-122957728D01*
X155891505Y-122957728D02*
X155810553Y-122998204D01*
X155810553Y-122998204D02*
X155486743Y-122998204D01*
X156701029Y-122836299D02*
X156701029Y-123402966D01*
X156498648Y-122512490D02*
X156296267Y-123119632D01*
X156296267Y-123119632D02*
X156822458Y-123119632D01*
D10*
X163969110Y-105889369D02*
X163969110Y-104889369D01*
X163969110Y-104889369D02*
X164207205Y-104889369D01*
X164207205Y-104889369D02*
X164350062Y-104936988D01*
X164350062Y-104936988D02*
X164445300Y-105032226D01*
X164445300Y-105032226D02*
X164492919Y-105127464D01*
X164492919Y-105127464D02*
X164540538Y-105317940D01*
X164540538Y-105317940D02*
X164540538Y-105460797D01*
X164540538Y-105460797D02*
X164492919Y-105651273D01*
X164492919Y-105651273D02*
X164445300Y-105746511D01*
X164445300Y-105746511D02*
X164350062Y-105841750D01*
X164350062Y-105841750D02*
X164207205Y-105889369D01*
X164207205Y-105889369D02*
X163969110Y-105889369D01*
X165397681Y-105222702D02*
X165397681Y-105889369D01*
X165159586Y-104841750D02*
X164921491Y-105556035D01*
X164921491Y-105556035D02*
X165540538Y-105556035D01*
X160648395Y-108737619D02*
X160648395Y-107737619D01*
X161219823Y-108737619D02*
X160791252Y-108166190D01*
X161219823Y-107737619D02*
X160648395Y-108309047D01*
X175609233Y-127264369D02*
X175275900Y-126788178D01*
X175037805Y-127264369D02*
X175037805Y-126264369D01*
X175037805Y-126264369D02*
X175418757Y-126264369D01*
X175418757Y-126264369D02*
X175513995Y-126311988D01*
X175513995Y-126311988D02*
X175561614Y-126359607D01*
X175561614Y-126359607D02*
X175609233Y-126454845D01*
X175609233Y-126454845D02*
X175609233Y-126597702D01*
X175609233Y-126597702D02*
X175561614Y-126692940D01*
X175561614Y-126692940D02*
X175513995Y-126740559D01*
X175513995Y-126740559D02*
X175418757Y-126788178D01*
X175418757Y-126788178D02*
X175037805Y-126788178D01*
X176561614Y-127264369D02*
X175990186Y-127264369D01*
X176275900Y-127264369D02*
X176275900Y-126264369D01*
X176275900Y-126264369D02*
X176180662Y-126407226D01*
X176180662Y-126407226D02*
X176085424Y-126502464D01*
X176085424Y-126502464D02*
X175990186Y-126550083D01*
D11*
X159385119Y-119853867D02*
X159101785Y-119449105D01*
X158899404Y-119853867D02*
X158899404Y-119003867D01*
X158899404Y-119003867D02*
X159223214Y-119003867D01*
X159223214Y-119003867D02*
X159304166Y-119044343D01*
X159304166Y-119044343D02*
X159344643Y-119084819D01*
X159344643Y-119084819D02*
X159385119Y-119165771D01*
X159385119Y-119165771D02*
X159385119Y-119287200D01*
X159385119Y-119287200D02*
X159344643Y-119368152D01*
X159344643Y-119368152D02*
X159304166Y-119408629D01*
X159304166Y-119408629D02*
X159223214Y-119449105D01*
X159223214Y-119449105D02*
X158899404Y-119449105D01*
X159668452Y-119003867D02*
X160194643Y-119003867D01*
X160194643Y-119003867D02*
X159911309Y-119327676D01*
X159911309Y-119327676D02*
X160032738Y-119327676D01*
X160032738Y-119327676D02*
X160113690Y-119368152D01*
X160113690Y-119368152D02*
X160154166Y-119408629D01*
X160154166Y-119408629D02*
X160194643Y-119489581D01*
X160194643Y-119489581D02*
X160194643Y-119691962D01*
X160194643Y-119691962D02*
X160154166Y-119772914D01*
X160154166Y-119772914D02*
X160113690Y-119813391D01*
X160113690Y-119813391D02*
X160032738Y-119853867D01*
X160032738Y-119853867D02*
X159789881Y-119853867D01*
X159789881Y-119853867D02*
X159708928Y-119813391D01*
X159708928Y-119813391D02*
X159668452Y-119772914D01*
D10*
X166563132Y-115017780D02*
X166515513Y-115065400D01*
X166515513Y-115065400D02*
X166372656Y-115113019D01*
X166372656Y-115113019D02*
X166277418Y-115113019D01*
X166277418Y-115113019D02*
X166134561Y-115065400D01*
X166134561Y-115065400D02*
X166039323Y-114970161D01*
X166039323Y-114970161D02*
X165991704Y-114874923D01*
X165991704Y-114874923D02*
X165944085Y-114684447D01*
X165944085Y-114684447D02*
X165944085Y-114541590D01*
X165944085Y-114541590D02*
X165991704Y-114351114D01*
X165991704Y-114351114D02*
X166039323Y-114255876D01*
X166039323Y-114255876D02*
X166134561Y-114160638D01*
X166134561Y-114160638D02*
X166277418Y-114113019D01*
X166277418Y-114113019D02*
X166372656Y-114113019D01*
X166372656Y-114113019D02*
X166515513Y-114160638D01*
X166515513Y-114160638D02*
X166563132Y-114208257D01*
X166944085Y-114208257D02*
X166991704Y-114160638D01*
X166991704Y-114160638D02*
X167086942Y-114113019D01*
X167086942Y-114113019D02*
X167325037Y-114113019D01*
X167325037Y-114113019D02*
X167420275Y-114160638D01*
X167420275Y-114160638D02*
X167467894Y-114208257D01*
X167467894Y-114208257D02*
X167515513Y-114303495D01*
X167515513Y-114303495D02*
X167515513Y-114398733D01*
X167515513Y-114398733D02*
X167467894Y-114541590D01*
X167467894Y-114541590D02*
X166896466Y-115113019D01*
X166896466Y-115113019D02*
X167515513Y-115113019D01*
X132671666Y-130454819D02*
X132671666Y-131169104D01*
X132671666Y-131169104D02*
X132624047Y-131311961D01*
X132624047Y-131311961D02*
X132528809Y-131407200D01*
X132528809Y-131407200D02*
X132385952Y-131454819D01*
X132385952Y-131454819D02*
X132290714Y-131454819D01*
X133624047Y-130454819D02*
X133147857Y-130454819D01*
X133147857Y-130454819D02*
X133100238Y-130931009D01*
X133100238Y-130931009D02*
X133147857Y-130883390D01*
X133147857Y-130883390D02*
X133243095Y-130835771D01*
X133243095Y-130835771D02*
X133481190Y-130835771D01*
X133481190Y-130835771D02*
X133576428Y-130883390D01*
X133576428Y-130883390D02*
X133624047Y-130931009D01*
X133624047Y-130931009D02*
X133671666Y-131026247D01*
X133671666Y-131026247D02*
X133671666Y-131264342D01*
X133671666Y-131264342D02*
X133624047Y-131359580D01*
X133624047Y-131359580D02*
X133576428Y-131407200D01*
X133576428Y-131407200D02*
X133481190Y-131454819D01*
X133481190Y-131454819D02*
X133243095Y-131454819D01*
X133243095Y-131454819D02*
X133147857Y-131407200D01*
X133147857Y-131407200D02*
X133100238Y-131359580D01*
X154190476Y-125196485D02*
X154190476Y-125910770D01*
X154190476Y-125910770D02*
X154142857Y-126053627D01*
X154142857Y-126053627D02*
X154047619Y-126148866D01*
X154047619Y-126148866D02*
X153904762Y-126196485D01*
X153904762Y-126196485D02*
X153809524Y-126196485D01*
X155190476Y-126196485D02*
X154619048Y-126196485D01*
X154904762Y-126196485D02*
X154904762Y-125196485D01*
X154904762Y-125196485D02*
X154809524Y-125339342D01*
X154809524Y-125339342D02*
X154714286Y-125434580D01*
X154714286Y-125434580D02*
X154619048Y-125482199D01*
X155523810Y-125196485D02*
X156142857Y-125196485D01*
X156142857Y-125196485D02*
X155809524Y-125577437D01*
X155809524Y-125577437D02*
X155952381Y-125577437D01*
X155952381Y-125577437D02*
X156047619Y-125625056D01*
X156047619Y-125625056D02*
X156095238Y-125672675D01*
X156095238Y-125672675D02*
X156142857Y-125767913D01*
X156142857Y-125767913D02*
X156142857Y-126006008D01*
X156142857Y-126006008D02*
X156095238Y-126101246D01*
X156095238Y-126101246D02*
X156047619Y-126148866D01*
X156047619Y-126148866D02*
X155952381Y-126196485D01*
X155952381Y-126196485D02*
X155666667Y-126196485D01*
X155666667Y-126196485D02*
X155571429Y-126148866D01*
X155571429Y-126148866D02*
X155523810Y-126101246D01*
X152970491Y-83496090D02*
X152970491Y-84210375D01*
X152970491Y-84210375D02*
X152922872Y-84353232D01*
X152922872Y-84353232D02*
X152827634Y-84448471D01*
X152827634Y-84448471D02*
X152684777Y-84496090D01*
X152684777Y-84496090D02*
X152589539Y-84496090D01*
X153351444Y-83496090D02*
X153970491Y-83496090D01*
X153970491Y-83496090D02*
X153637158Y-83877042D01*
X153637158Y-83877042D02*
X153780015Y-83877042D01*
X153780015Y-83877042D02*
X153875253Y-83924661D01*
X153875253Y-83924661D02*
X153922872Y-83972280D01*
X153922872Y-83972280D02*
X153970491Y-84067518D01*
X153970491Y-84067518D02*
X153970491Y-84305613D01*
X153970491Y-84305613D02*
X153922872Y-84400851D01*
X153922872Y-84400851D02*
X153875253Y-84448471D01*
X153875253Y-84448471D02*
X153780015Y-84496090D01*
X153780015Y-84496090D02*
X153494301Y-84496090D01*
X153494301Y-84496090D02*
X153399063Y-84448471D01*
X153399063Y-84448471D02*
X153351444Y-84400851D01*
X184156695Y-116462694D02*
X184156695Y-117272217D01*
X184156695Y-117272217D02*
X184204314Y-117367455D01*
X184204314Y-117367455D02*
X184251933Y-117415075D01*
X184251933Y-117415075D02*
X184347171Y-117462694D01*
X184347171Y-117462694D02*
X184537647Y-117462694D01*
X184537647Y-117462694D02*
X184632885Y-117415075D01*
X184632885Y-117415075D02*
X184680504Y-117367455D01*
X184680504Y-117367455D02*
X184728123Y-117272217D01*
X184728123Y-117272217D02*
X184728123Y-116462694D01*
X185156695Y-116557932D02*
X185204314Y-116510313D01*
X185204314Y-116510313D02*
X185299552Y-116462694D01*
X185299552Y-116462694D02*
X185537647Y-116462694D01*
X185537647Y-116462694D02*
X185632885Y-116510313D01*
X185632885Y-116510313D02*
X185680504Y-116557932D01*
X185680504Y-116557932D02*
X185728123Y-116653170D01*
X185728123Y-116653170D02*
X185728123Y-116748408D01*
X185728123Y-116748408D02*
X185680504Y-116891265D01*
X185680504Y-116891265D02*
X185109076Y-117462694D01*
X185109076Y-117462694D02*
X185728123Y-117462694D01*
X161000904Y-121318919D02*
X161000904Y-120318919D01*
X161000904Y-120318919D02*
X161238999Y-120318919D01*
X161238999Y-120318919D02*
X161381856Y-120366538D01*
X161381856Y-120366538D02*
X161477094Y-120461776D01*
X161477094Y-120461776D02*
X161524713Y-120557014D01*
X161524713Y-120557014D02*
X161572332Y-120747490D01*
X161572332Y-120747490D02*
X161572332Y-120890347D01*
X161572332Y-120890347D02*
X161524713Y-121080823D01*
X161524713Y-121080823D02*
X161477094Y-121176061D01*
X161477094Y-121176061D02*
X161381856Y-121271300D01*
X161381856Y-121271300D02*
X161238999Y-121318919D01*
X161238999Y-121318919D02*
X161000904Y-121318919D01*
X162524713Y-121318919D02*
X161953285Y-121318919D01*
X162238999Y-121318919D02*
X162238999Y-120318919D01*
X162238999Y-120318919D02*
X162143761Y-120461776D01*
X162143761Y-120461776D02*
X162048523Y-120557014D01*
X162048523Y-120557014D02*
X161953285Y-120604633D01*
X182959916Y-130454818D02*
X182959916Y-131169103D01*
X182959916Y-131169103D02*
X182912297Y-131311960D01*
X182912297Y-131311960D02*
X182817059Y-131407199D01*
X182817059Y-131407199D02*
X182674202Y-131454818D01*
X182674202Y-131454818D02*
X182578964Y-131454818D01*
X183483726Y-131454818D02*
X183674202Y-131454818D01*
X183674202Y-131454818D02*
X183769440Y-131407199D01*
X183769440Y-131407199D02*
X183817059Y-131359579D01*
X183817059Y-131359579D02*
X183912297Y-131216722D01*
X183912297Y-131216722D02*
X183959916Y-131026246D01*
X183959916Y-131026246D02*
X183959916Y-130645294D01*
X183959916Y-130645294D02*
X183912297Y-130550056D01*
X183912297Y-130550056D02*
X183864678Y-130502437D01*
X183864678Y-130502437D02*
X183769440Y-130454818D01*
X183769440Y-130454818D02*
X183578964Y-130454818D01*
X183578964Y-130454818D02*
X183483726Y-130502437D01*
X183483726Y-130502437D02*
X183436107Y-130550056D01*
X183436107Y-130550056D02*
X183388488Y-130645294D01*
X183388488Y-130645294D02*
X183388488Y-130883389D01*
X183388488Y-130883389D02*
X183436107Y-130978627D01*
X183436107Y-130978627D02*
X183483726Y-131026246D01*
X183483726Y-131026246D02*
X183578964Y-131073865D01*
X183578964Y-131073865D02*
X183769440Y-131073865D01*
X183769440Y-131073865D02*
X183864678Y-131026246D01*
X183864678Y-131026246D02*
X183912297Y-130978627D01*
X183912297Y-130978627D02*
X183959916Y-130883389D01*
X144643482Y-109179419D02*
X144310149Y-108703228D01*
X144072054Y-109179419D02*
X144072054Y-108179419D01*
X144072054Y-108179419D02*
X144453006Y-108179419D01*
X144453006Y-108179419D02*
X144548244Y-108227038D01*
X144548244Y-108227038D02*
X144595863Y-108274657D01*
X144595863Y-108274657D02*
X144643482Y-108369895D01*
X144643482Y-108369895D02*
X144643482Y-108512752D01*
X144643482Y-108512752D02*
X144595863Y-108607990D01*
X144595863Y-108607990D02*
X144548244Y-108655609D01*
X144548244Y-108655609D02*
X144453006Y-108703228D01*
X144453006Y-108703228D02*
X144072054Y-108703228D01*
X145024435Y-108274657D02*
X145072054Y-108227038D01*
X145072054Y-108227038D02*
X145167292Y-108179419D01*
X145167292Y-108179419D02*
X145405387Y-108179419D01*
X145405387Y-108179419D02*
X145500625Y-108227038D01*
X145500625Y-108227038D02*
X145548244Y-108274657D01*
X145548244Y-108274657D02*
X145595863Y-108369895D01*
X145595863Y-108369895D02*
X145595863Y-108465133D01*
X145595863Y-108465133D02*
X145548244Y-108607990D01*
X145548244Y-108607990D02*
X144976816Y-109179419D01*
X144976816Y-109179419D02*
X145595863Y-109179419D01*
D11*
X138392857Y-132973610D02*
X138797619Y-132973610D01*
X138311905Y-133216467D02*
X138595238Y-132366467D01*
X138595238Y-132366467D02*
X138878572Y-133216467D01*
X139607143Y-133216467D02*
X139121428Y-133216467D01*
X139364285Y-133216467D02*
X139364285Y-132366467D01*
X139364285Y-132366467D02*
X139283333Y-132487895D01*
X139283333Y-132487895D02*
X139202381Y-132568848D01*
X139202381Y-132568848D02*
X139121428Y-132609324D01*
D10*
X157594555Y-121849319D02*
X157594555Y-120849319D01*
X157594555Y-120849319D02*
X157832650Y-120849319D01*
X157832650Y-120849319D02*
X157975507Y-120896938D01*
X157975507Y-120896938D02*
X158070745Y-120992176D01*
X158070745Y-120992176D02*
X158118364Y-121087414D01*
X158118364Y-121087414D02*
X158165983Y-121277890D01*
X158165983Y-121277890D02*
X158165983Y-121420747D01*
X158165983Y-121420747D02*
X158118364Y-121611223D01*
X158118364Y-121611223D02*
X158070745Y-121706461D01*
X158070745Y-121706461D02*
X157975507Y-121801700D01*
X157975507Y-121801700D02*
X157832650Y-121849319D01*
X157832650Y-121849319D02*
X157594555Y-121849319D01*
X159070745Y-120849319D02*
X158594555Y-120849319D01*
X158594555Y-120849319D02*
X158546936Y-121325509D01*
X158546936Y-121325509D02*
X158594555Y-121277890D01*
X158594555Y-121277890D02*
X158689793Y-121230271D01*
X158689793Y-121230271D02*
X158927888Y-121230271D01*
X158927888Y-121230271D02*
X159023126Y-121277890D01*
X159023126Y-121277890D02*
X159070745Y-121325509D01*
X159070745Y-121325509D02*
X159118364Y-121420747D01*
X159118364Y-121420747D02*
X159118364Y-121658842D01*
X159118364Y-121658842D02*
X159070745Y-121754080D01*
X159070745Y-121754080D02*
X159023126Y-121801700D01*
X159023126Y-121801700D02*
X158927888Y-121849319D01*
X158927888Y-121849319D02*
X158689793Y-121849319D01*
X158689793Y-121849319D02*
X158594555Y-121801700D01*
X158594555Y-121801700D02*
X158546936Y-121754080D01*
X154239219Y-116576404D02*
X153239219Y-116576404D01*
X154239219Y-116004976D02*
X153667790Y-116433547D01*
X153239219Y-116004976D02*
X153810647Y-116576404D01*
X187183133Y-109416319D02*
X186849800Y-108940128D01*
X186611705Y-109416319D02*
X186611705Y-108416319D01*
X186611705Y-108416319D02*
X186992657Y-108416319D01*
X186992657Y-108416319D02*
X187087895Y-108463938D01*
X187087895Y-108463938D02*
X187135514Y-108511557D01*
X187135514Y-108511557D02*
X187183133Y-108606795D01*
X187183133Y-108606795D02*
X187183133Y-108749652D01*
X187183133Y-108749652D02*
X187135514Y-108844890D01*
X187135514Y-108844890D02*
X187087895Y-108892509D01*
X187087895Y-108892509D02*
X186992657Y-108940128D01*
X186992657Y-108940128D02*
X186611705Y-108940128D01*
X187516467Y-108416319D02*
X188183133Y-108416319D01*
X188183133Y-108416319D02*
X187754562Y-109416319D01*
%TO.C,R5*%
D12*
X171234500Y-110942100D02*
X171234500Y-111712100D01*
X171234500Y-119022100D02*
X171234500Y-118252100D01*
X169864500Y-111712100D02*
X172604500Y-111712100D01*
X172604500Y-118252100D01*
X169864500Y-118252100D01*
X169864500Y-111712100D01*
%TO.C,D3*%
X160046700Y-126215500D02*
X161066700Y-126215500D01*
X161846700Y-124745500D02*
X161846700Y-127685500D01*
X161966700Y-124745500D02*
X161966700Y-127685500D01*
X162086700Y-124745500D02*
X162086700Y-127685500D01*
X167526700Y-126215500D02*
X166506700Y-126215500D01*
X161066700Y-124745500D02*
X166506700Y-124745500D01*
X166506700Y-127685500D01*
X161066700Y-127685500D01*
X161066700Y-124745500D01*
%TO.C,D2*%
X173499400Y-108425800D02*
X173499400Y-111515800D01*
X173499400Y-108425970D02*
G75*
G02*
X179049400Y-109970800I2560000J-1544830D01*
G01*
X179049400Y-109970800D02*
G75*
G02*
X173499400Y-111515630I-2990000J0D01*
G01*
X178559400Y-109970800D02*
G75*
G02*
X173559400Y-109970800I-2500000J0D01*
G01*
X173559400Y-109970800D02*
G75*
G02*
X178559400Y-109970800I2500000J0D01*
G01*
%TO.C,J12*%
X142230000Y-74580000D02*
X142230000Y-73200000D01*
X143610000Y-74580000D02*
X142230000Y-74580000D01*
X144880000Y-71820000D02*
X162770000Y-71820000D01*
X144880000Y-74580000D02*
X144880000Y-71820000D01*
X144880000Y-74580000D02*
X162770000Y-74580000D01*
X162770000Y-74580000D02*
X162770000Y-71820000D01*
%TO.C,J10*%
X153825100Y-105938000D02*
X153825100Y-104558000D01*
X155205100Y-105938000D02*
X153825100Y-105938000D01*
X156475100Y-103178000D02*
X159125100Y-103178000D01*
X156475100Y-105938000D02*
X156475100Y-103178000D01*
X156475100Y-105938000D02*
X159125100Y-105938000D01*
X159125100Y-105938000D02*
X159125100Y-103178000D01*
%TO.C,J8*%
X163080000Y-132380000D02*
X163080000Y-131000000D01*
X164460000Y-132380000D02*
X163080000Y-132380000D01*
X165730000Y-129620000D02*
X170920000Y-129620000D01*
X165730000Y-132380000D02*
X165730000Y-129620000D01*
X165730000Y-132380000D02*
X170920000Y-132380000D01*
X170920000Y-132380000D02*
X170920000Y-129620000D01*
%TO.C,J11*%
X167810000Y-74580000D02*
X167810000Y-73200000D01*
X169190000Y-74580000D02*
X167810000Y-74580000D01*
X170460000Y-71820000D02*
X178190000Y-71820000D01*
X170460000Y-74580000D02*
X170460000Y-71820000D01*
X170460000Y-74580000D02*
X178190000Y-74580000D01*
X178190000Y-74580000D02*
X178190000Y-71820000D01*
%TO.C,C1*%
X171144900Y-102956999D02*
X176384900Y-102956999D01*
X171144900Y-105697000D02*
X171144900Y-102956999D01*
X176384900Y-102956999D02*
X176384900Y-105697000D01*
X176384900Y-105697000D02*
X171144900Y-105697000D01*
%TO.C,J7*%
X134345000Y-74580000D02*
X134345000Y-73200000D01*
X135725000Y-74580000D02*
X134345000Y-74580000D01*
X136994999Y-71820001D02*
X139645000Y-71820001D01*
X136994999Y-74580000D02*
X136994999Y-71820001D01*
X136994999Y-74580000D02*
X139645000Y-74580000D01*
X139645000Y-74580000D02*
X139645000Y-71820001D01*
%TO.C,R6*%
X152929100Y-92085800D02*
X152929100Y-92855800D01*
X152929100Y-100165800D02*
X152929100Y-99395800D01*
X151559100Y-92855800D02*
X154299100Y-92855800D01*
X154299100Y-99395800D01*
X151559100Y-99395800D01*
X151559100Y-92855800D01*
%TO.C,J6*%
X139020000Y-129620000D02*
X140400000Y-129620000D01*
X139020000Y-131000000D02*
X139020000Y-129620000D01*
X139020000Y-132270000D02*
X139020000Y-132380000D01*
X139020000Y-132270000D02*
X141780000Y-132270000D01*
X139020000Y-132380000D02*
X141780000Y-132380000D01*
X141780000Y-132270000D02*
X141780000Y-132380000D01*
%TO.C,J4*%
X154058600Y-119582400D02*
X155438600Y-119582400D01*
X154058600Y-120962400D02*
X154058600Y-119582400D01*
X154058600Y-122232400D02*
X154058600Y-122342400D01*
X154058600Y-122232400D02*
X156818600Y-122232400D01*
X154058600Y-122342400D02*
X156818600Y-122342400D01*
X156818600Y-122232400D02*
X156818600Y-122342400D01*
%TO.C,U3*%
X162993100Y-103289800D02*
X162993100Y-108489800D01*
X162993100Y-108489800D02*
X164243100Y-108489800D01*
X166243100Y-108489800D02*
X167493100Y-108489800D01*
X167493100Y-103289800D02*
X162993100Y-103289800D01*
X167493100Y-108489800D02*
X167493100Y-103289800D01*
X164243100Y-108489800D02*
G75*
G02*
X166243100Y-108489800I1000000J0D01*
G01*
%TO.C,U1*%
X155350000Y-77349999D02*
X188649999Y-77349999D01*
X188649999Y-101650000D01*
X155350000Y-101650000D01*
X155350000Y-77349999D01*
D13*
X154579999Y-80609999D02*
G75*
G02*
X154219999Y-80609999I-180000J0D01*
G01*
X154219999Y-80609999D02*
G75*
G02*
X154579999Y-80609999I180000J0D01*
G01*
%TO.C,R4*%
D12*
X154952500Y-108821500D02*
X154952500Y-109591500D01*
X154952500Y-116901500D02*
X154952500Y-116131500D01*
X153582500Y-109591500D02*
X156322500Y-109591500D01*
X156322500Y-116131500D01*
X153582500Y-116131500D01*
X153582500Y-109591500D01*
%TO.C,D4*%
X161950300Y-110082800D02*
X162600300Y-110082800D01*
X163200300Y-108962800D02*
X163200300Y-111202800D01*
X163320300Y-108962800D02*
X163320300Y-111202800D01*
X163440300Y-108962800D02*
X163440300Y-111202800D01*
X167490300Y-110082800D02*
X166840300Y-110082800D01*
X162600300Y-108962800D02*
X166840300Y-108962800D01*
X166840300Y-111202800D01*
X162600300Y-111202800D01*
X162600300Y-108962800D01*
%TO.C,R1*%
X171735900Y-122791300D02*
X172505900Y-122791300D01*
X179815900Y-122791300D02*
X179045900Y-122791300D01*
X172505900Y-121421300D02*
X179045900Y-121421300D01*
X179045900Y-124161300D01*
X172505900Y-124161300D01*
X172505900Y-121421300D01*
%TO.C,R3*%
X158162500Y-108572400D02*
X158162500Y-109342400D01*
X158162500Y-116652400D02*
X158162500Y-115882400D01*
X156792500Y-109342400D02*
X159532500Y-109342400D01*
X159532500Y-115882400D01*
X156792500Y-115882400D01*
X156792500Y-109342400D01*
%TO.C,C2*%
X159750025Y-113183200D02*
X160250025Y-113183200D01*
X160000025Y-112933200D02*
X160000025Y-113433200D01*
X162554800Y-112078200D02*
X162554800Y-117238200D01*
X162594800Y-112078200D02*
X162594800Y-117238200D01*
X162634800Y-112079200D02*
X162634800Y-117237200D01*
X162674800Y-112081200D02*
X162674800Y-117235200D01*
X162714800Y-112083200D02*
X162714800Y-117233200D01*
X162754800Y-112086200D02*
X162754800Y-117230200D01*
X162794800Y-112089200D02*
X162794800Y-113618200D01*
X162794800Y-115698200D02*
X162794800Y-117227200D01*
X162834800Y-112093200D02*
X162834800Y-113618200D01*
X162834800Y-115698200D02*
X162834800Y-117223200D01*
X162874800Y-112098200D02*
X162874800Y-113618200D01*
X162874800Y-115698200D02*
X162874800Y-117218200D01*
X162914800Y-112103200D02*
X162914800Y-113618200D01*
X162914800Y-115698200D02*
X162914800Y-117213200D01*
X162954800Y-112109200D02*
X162954800Y-113618200D01*
X162954800Y-115698200D02*
X162954800Y-117207200D01*
X162994800Y-112115200D02*
X162994800Y-113618200D01*
X162994800Y-115698200D02*
X162994800Y-117201200D01*
X163034800Y-112122200D02*
X163034800Y-113618200D01*
X163034800Y-115698200D02*
X163034800Y-117194200D01*
X163074800Y-112130200D02*
X163074800Y-113618200D01*
X163074800Y-115698200D02*
X163074800Y-117186200D01*
X163114800Y-112139200D02*
X163114800Y-113618200D01*
X163114800Y-115698200D02*
X163114800Y-117177200D01*
X163154800Y-112148200D02*
X163154800Y-113618200D01*
X163154800Y-115698200D02*
X163154800Y-117168200D01*
X163194800Y-112157200D02*
X163194800Y-113618200D01*
X163194800Y-115698200D02*
X163194800Y-117159200D01*
X163234800Y-112168200D02*
X163234800Y-113618200D01*
X163234800Y-115698200D02*
X163234800Y-117148200D01*
X163274800Y-112179200D02*
X163274800Y-113618200D01*
X163274800Y-115698200D02*
X163274800Y-117137200D01*
X163314800Y-112191200D02*
X163314800Y-113618200D01*
X163314800Y-115698200D02*
X163314800Y-117125200D01*
X163354800Y-112203200D02*
X163354800Y-113618200D01*
X163354800Y-115698200D02*
X163354800Y-117113200D01*
X163394800Y-112216200D02*
X163394800Y-113618200D01*
X163394800Y-115698200D02*
X163394800Y-117100200D01*
X163434800Y-112230200D02*
X163434800Y-113618200D01*
X163434800Y-115698200D02*
X163434800Y-117086200D01*
X163474800Y-112245200D02*
X163474800Y-113618200D01*
X163474800Y-115698200D02*
X163474800Y-117071200D01*
X163514800Y-112260200D02*
X163514800Y-113618200D01*
X163514800Y-115698200D02*
X163514800Y-117056200D01*
X163554800Y-112276200D02*
X163554800Y-113618200D01*
X163554800Y-115698200D02*
X163554800Y-117040200D01*
X163594800Y-112293200D02*
X163594800Y-113618200D01*
X163594800Y-115698200D02*
X163594800Y-117023200D01*
X163634800Y-112311200D02*
X163634800Y-113618200D01*
X163634800Y-115698200D02*
X163634800Y-117005200D01*
X163674800Y-112329200D02*
X163674800Y-113618200D01*
X163674800Y-115698200D02*
X163674800Y-116987200D01*
X163714800Y-112349200D02*
X163714800Y-113618200D01*
X163714800Y-115698200D02*
X163714800Y-116967200D01*
X163754800Y-112369200D02*
X163754800Y-113618200D01*
X163754800Y-115698200D02*
X163754800Y-116947200D01*
X163794800Y-112390200D02*
X163794800Y-113618200D01*
X163794800Y-115698200D02*
X163794800Y-116926200D01*
X163834800Y-112412200D02*
X163834800Y-113618200D01*
X163834800Y-115698200D02*
X163834800Y-116904200D01*
X163874800Y-112435200D02*
X163874800Y-113618200D01*
X163874800Y-115698200D02*
X163874800Y-116881200D01*
X163914800Y-112459200D02*
X163914800Y-113618200D01*
X163914800Y-115698200D02*
X163914800Y-116857200D01*
X163954800Y-112483200D02*
X163954800Y-113618200D01*
X163954800Y-115698200D02*
X163954800Y-116833200D01*
X163994800Y-112509200D02*
X163994800Y-113618200D01*
X163994800Y-115698200D02*
X163994800Y-116807200D01*
X164034800Y-112536200D02*
X164034800Y-113618200D01*
X164034800Y-115698200D02*
X164034800Y-116780200D01*
X164074800Y-112564200D02*
X164074800Y-113618200D01*
X164074800Y-115698200D02*
X164074800Y-116752200D01*
X164114800Y-112593200D02*
X164114800Y-113618200D01*
X164114800Y-115698200D02*
X164114800Y-116723200D01*
X164154800Y-112623200D02*
X164154800Y-113618200D01*
X164154800Y-115698200D02*
X164154800Y-116693200D01*
X164194800Y-112655200D02*
X164194800Y-113618200D01*
X164194800Y-115698200D02*
X164194800Y-116661200D01*
X164234800Y-112688200D02*
X164234800Y-113618200D01*
X164234800Y-115698200D02*
X164234800Y-116628200D01*
X164274800Y-112722200D02*
X164274800Y-113618200D01*
X164274800Y-115698200D02*
X164274800Y-116594200D01*
X164314800Y-112757200D02*
X164314800Y-113618200D01*
X164314800Y-115698200D02*
X164314800Y-116559200D01*
X164354800Y-112794200D02*
X164354800Y-113618200D01*
X164354800Y-115698200D02*
X164354800Y-116522200D01*
X164394800Y-112833200D02*
X164394800Y-113618200D01*
X164394800Y-115698200D02*
X164394800Y-116483200D01*
X164434800Y-112873200D02*
X164434800Y-113618200D01*
X164434800Y-115698200D02*
X164434800Y-116443200D01*
X164474800Y-112915200D02*
X164474800Y-113618200D01*
X164474800Y-115698200D02*
X164474800Y-116401200D01*
X164514800Y-112959200D02*
X164514800Y-113618200D01*
X164514800Y-115698200D02*
X164514800Y-116357200D01*
X164554800Y-113006200D02*
X164554800Y-113618200D01*
X164554800Y-115698200D02*
X164554800Y-116310200D01*
X164594800Y-113054200D02*
X164594800Y-113618200D01*
X164594800Y-115698200D02*
X164594800Y-116262200D01*
X164634800Y-113105200D02*
X164634800Y-113618200D01*
X164634800Y-115698200D02*
X164634800Y-116211200D01*
X164674800Y-113159200D02*
X164674800Y-113618200D01*
X164674800Y-115698200D02*
X164674800Y-116157200D01*
X164714800Y-113215200D02*
X164714800Y-113618200D01*
X164714800Y-115698200D02*
X164714800Y-116101200D01*
X164754800Y-113275200D02*
X164754800Y-113618200D01*
X164754800Y-115698200D02*
X164754800Y-116041200D01*
X164794800Y-113339200D02*
X164794800Y-113618200D01*
X164794800Y-115698200D02*
X164794800Y-115977200D01*
X164834800Y-113407200D02*
X164834800Y-113618200D01*
X164834800Y-115698200D02*
X164834800Y-115909200D01*
X164874800Y-113481200D02*
X164874800Y-115835200D01*
X164914800Y-113560200D02*
X164914800Y-115756200D01*
X164954800Y-113647200D02*
X164954800Y-115669200D01*
X164994800Y-113744200D02*
X164994800Y-115572200D01*
X165034800Y-113853200D02*
X165034800Y-115463200D01*
X165074800Y-113981200D02*
X165074800Y-115335200D01*
X165114800Y-114141200D02*
X165114800Y-115175200D01*
X165154800Y-114375200D02*
X165154800Y-114941200D01*
X165174800Y-114658200D02*
G75*
G02*
X159934800Y-114658200I-2620000J0D01*
G01*
X159934800Y-114658200D02*
G75*
G02*
X165174800Y-114658200I2620000J0D01*
G01*
%TO.C,J5*%
X134220000Y-129620000D02*
X135600000Y-129620000D01*
X134220000Y-131000000D02*
X134220000Y-129620000D01*
X134220000Y-132270000D02*
X134220000Y-132380000D01*
X134220000Y-132270000D02*
X136980000Y-132270000D01*
X134220000Y-132380000D02*
X136980000Y-132380000D01*
X136980000Y-132270000D02*
X136980000Y-132380000D01*
%TO.C,J13*%
X149810000Y-132380000D02*
X149810000Y-131000000D01*
X151190000Y-132380000D02*
X149810000Y-132380000D01*
X152460000Y-129620000D02*
X160190000Y-129620000D01*
X152460000Y-132380000D02*
X152460000Y-129620000D01*
X152460000Y-132380000D02*
X160190000Y-132380000D01*
X160190000Y-132380000D02*
X160190000Y-129620000D01*
%TO.C,J3*%
X151207200Y-89417700D02*
X151207200Y-88037700D01*
X152587200Y-89417700D02*
X151207200Y-89417700D01*
X153857200Y-86657700D02*
X153967200Y-86657700D01*
X153857200Y-89417700D02*
X153857200Y-86657700D01*
X153857200Y-89417700D02*
X153967200Y-89417700D01*
X153967200Y-89417700D02*
X153967200Y-86657700D01*
%TO.C,U2*%
X175983600Y-115554500D02*
X175983600Y-120754500D01*
X175983600Y-120754500D02*
X180483600Y-120754500D01*
X177233600Y-115554500D02*
X175983600Y-115554500D01*
X180483600Y-115554500D02*
X179233600Y-115554500D01*
X180483600Y-120754500D02*
X180483600Y-115554500D01*
X179233600Y-115554500D02*
G75*
G02*
X177233600Y-115554500I-1000000J0D01*
G01*
%TO.C,D1*%
X163214000Y-119319100D02*
X163214000Y-122409100D01*
X163214000Y-119319270D02*
G75*
G02*
X168764000Y-120864100I2560000J-1544830D01*
G01*
X168764000Y-120864100D02*
G75*
G02*
X163214000Y-122408930I-2990000J0D01*
G01*
X168274000Y-120864100D02*
G75*
G02*
X163274000Y-120864100I-2500000J0D01*
G01*
X163274000Y-120864100D02*
G75*
G02*
X168274000Y-120864100I2500000J0D01*
G01*
%TO.C,J9*%
X175345000Y-132380000D02*
X175345000Y-131000000D01*
X176725000Y-132380000D02*
X175345000Y-132380000D01*
X177995000Y-132380000D02*
X180645000Y-132380000D01*
%TO.C,R2*%
X151828400Y-104684600D02*
X151828400Y-105454600D01*
X151828400Y-112764600D02*
X151828400Y-111994600D01*
X150458400Y-105454600D02*
X153198400Y-105454600D01*
X153198400Y-111994600D01*
X150458400Y-111994600D01*
X150458400Y-105454600D01*
%TO.C,A1*%
X128520000Y-127550000D02*
X135513334Y-127550000D01*
X128520001Y-76390000D02*
X128520000Y-127550000D01*
X131710000Y-127520000D02*
X131710000Y-76470000D01*
X135513334Y-123600000D02*
X135513334Y-127550000D01*
X135513334Y-127550000D02*
X135513334Y-128770000D01*
X135513334Y-128770000D02*
X142506666Y-128770000D01*
X142506666Y-123600000D02*
X135513334Y-123600000D01*
X142506666Y-127550000D02*
X142506666Y-123600000D01*
X142506666Y-127550000D02*
X149499999Y-127550000D01*
X142506666Y-128770000D02*
X142506666Y-127550000D01*
X146310000Y-127520000D02*
X146310000Y-76420000D01*
X149499999Y-127550000D02*
X149500000Y-76390000D01*
X149500000Y-76390000D02*
X128520001Y-76390000D01*
%TO.C,D5*%
X151684400Y-117654500D02*
X151684400Y-118674500D01*
X151684400Y-125134500D02*
X151684400Y-124114500D01*
X153154400Y-119454500D02*
X150214400Y-119454500D01*
X153154400Y-119574500D02*
X150214400Y-119574500D01*
X153154400Y-119694500D02*
X150214400Y-119694500D01*
X150214400Y-118674500D02*
X153154400Y-118674500D01*
X153154400Y-124114500D01*
X150214400Y-124114500D01*
X150214400Y-118674500D01*
%TO.C,R7*%
X184424800Y-104921500D02*
X184424800Y-105691500D01*
X184424800Y-113001500D02*
X184424800Y-112231500D01*
X183054800Y-105691500D02*
X185794800Y-105691500D01*
X185794800Y-112231500D01*
X183054800Y-112231500D01*
X183054800Y-105691500D01*
%TD*%
M02*
