M48
; DRILL file KiCad 10.0.6 date 2026-09-25T15:20:55
; FORMAT={-:-/ absolute / metric / decimal}
; #@! TF.CreationDate,2026-09-25T15:20:55-03:00
; #@! TF.GenerationSoftware,Kicad,Pcbnew,10.0.6
; #@! TF.FileFunction,MixedPlating,1,2
FMAT,2
METRIC
; #@! TA.AperFunction,Plated,PTH,ViaDrill
T1C0.300
; #@! TA.AperFunction,Plated,PTH,ViaDrill
T2C0.400
; #@! TA.AperFunction,Plated,PTH,ComponentDrill
T3C0.800
; #@! TA.AperFunction,Plated,PTH,ComponentDrill
T4C0.900
; #@! TA.AperFunction,Plated,PTH,ComponentDrill
T5C1.000
; #@! TA.AperFunction,Plated,PTH,ComponentDrill
T6C1.100
; #@! TA.AperFunction,NonPlated,NPTH,ComponentDrill
T7C3.200
%
G90
G05
T1
X134.082Y-112.816
X134.088Y-115.252
X138.707Y-87.255
X145.002Y-115.253
X145.241Y-118.17
X150.275Y-101.757
X153.777Y-105.223
X157.156Y-98.271
X157.56Y-96.744
X158.145Y-101.684
X165.777Y-91.166
X177.051Y-96.652
T2
X128.195Y-111.295
X130.195Y-75.295
X132.195Y-103.295
X132.195Y-119.295
X132.195Y-127.295
X138.195Y-131.295
X140.195Y-71.295
X140.195Y-95.295
X140.195Y-103.295
X140.195Y-119.295
X144.195Y-79.295
X144.195Y-111.295
X146.195Y-131.295
X148.195Y-71.295
X150.195Y-123.295
X152.195Y-111.295
X154.195Y-83.295
X158.195Y-75.295
X158.195Y-123.295
X162.195Y-83.295
X162.195Y-99.295
X162.195Y-131.295
X170.195Y-75.295
X170.195Y-99.295
X170.195Y-115.295
X174.195Y-83.295
X174.195Y-107.295
X174.195Y-131.295
X178.195Y-75.295
X178.195Y-115.295
X178.195Y-123.295
X182.195Y-83.295
X182.195Y-99.295
X182.195Y-107.295
X182.195Y-131.295
X184.195Y-71.295
X188.195Y-127.295
X190.195Y-75.295
X190.195Y-83.295
X190.195Y-91.295
X190.195Y-99.295
X190.195Y-107.295
X190.195Y-115.295
T3
X151.828Y-103.645
X151.828Y-113.805
X152.929Y-91.046
X152.929Y-101.206
X154.952Y-107.781
X154.952Y-117.941
X158.162Y-107.532
X158.162Y-117.692
X160.91Y-110.083
X161.305Y-114.658
X161.433Y-104.62
X161.433Y-107.16
X163.805Y-114.658
X168.53Y-110.083
X169.053Y-104.62
X169.053Y-107.16
X170.696Y-122.791
X171.234Y-109.902
X171.234Y-120.062
X172.515Y-104.327
X174.424Y-116.884
X174.424Y-119.424
X175.015Y-104.327
X180.856Y-122.791
X182.044Y-116.884
X182.044Y-119.424
X184.425Y-103.881
X184.425Y-114.041
T4
X164.504Y-120.864
X167.044Y-120.864
X174.789Y-109.971
X177.329Y-109.971
T5
X130.12Y-77.84
X130.12Y-80.38
X130.12Y-82.92
X130.12Y-85.46
X130.12Y-88.0
X130.12Y-90.54
X130.12Y-93.08
X130.12Y-95.62
X130.12Y-98.16
X130.12Y-100.7
X130.12Y-103.24
X130.12Y-105.78
X130.12Y-108.32
X130.12Y-110.86
X130.12Y-113.4
X130.12Y-115.94
X130.12Y-118.48
X130.12Y-121.02
X130.12Y-123.56
X130.12Y-126.1
X135.6Y-131.0
X135.725Y-73.2
X138.265Y-73.2
X140.4Y-131.0
X143.61Y-73.2
X146.15Y-73.2
X147.9Y-77.84
X147.9Y-80.38
X147.9Y-82.92
X147.9Y-85.46
X147.9Y-88.0
X147.9Y-90.54
X147.9Y-93.08
X147.9Y-95.62
X147.9Y-98.16
X147.9Y-100.7
X147.9Y-103.24
X147.9Y-105.78
X147.9Y-108.32
X147.9Y-110.86
X147.9Y-113.4
X147.9Y-115.94
X147.9Y-118.48
X147.9Y-121.02
X147.9Y-123.56
X147.9Y-126.1
X148.69Y-73.2
X151.19Y-131.0
X151.23Y-73.2
X152.587Y-88.038
X153.73Y-131.0
X153.77Y-73.2
X155.205Y-104.558
X155.439Y-120.962
X156.27Y-131.0
X156.31Y-73.2
X157.745Y-104.558
X158.81Y-131.0
X158.85Y-73.2
X159.3Y-80.61
X159.3Y-83.15
X159.3Y-85.69
X159.3Y-88.23
X159.3Y-90.77
X159.3Y-93.31
X159.3Y-95.85
X159.3Y-98.39
X161.39Y-73.2
X164.46Y-131.0
X167.0Y-131.0
X169.19Y-73.2
X169.54Y-131.0
X171.73Y-73.2
X174.27Y-73.2
X176.725Y-131.0
X176.81Y-73.2
X179.265Y-131.0
X184.7Y-80.61
X184.7Y-83.15
X184.7Y-85.69
X184.7Y-88.23
X184.7Y-90.77
X184.7Y-93.31
X184.7Y-95.85
X184.7Y-98.39
T6
X151.684Y-116.314
X151.684Y-126.474
X158.707Y-126.215
X168.867Y-126.215
T7
X129.4Y-72.4
X129.4Y-131.8
X190.8Y-72.4
X190.8Y-132.0
M30
