%TF.GenerationSoftware,KiCad,Pcbnew,10.0.6*%
%TF.CreationDate,2026-09-25T16:02:12-03:00*%
%TF.ProjectId,pcbcomando,70636263-6f6d-4616-9e64-6f2e6b696361,1.2*%
%TF.SameCoordinates,Original*%
%TF.FileFunction,Legend,Bot*%
%TF.FilePolarity,Positive*%
%FSLAX46Y46*%
G04 Gerber Fmt 4.6, Leading zero omitted, Abs format (unit mm)*
G04 Created by KiCad (PCBNEW 10.0.6) date 2026-09-25 16:02:12*
%MOMM*%
%LPD*%
G01*
G04 APERTURE LIST*
%ADD10C,0.210000*%
G04 APERTURE END LIST*
D10*
X182900001Y-124703413D02*
X182900001Y-126103413D01*
X182900001Y-124770080D02*
X182766668Y-124703413D01*
X182766668Y-124703413D02*
X182500001Y-124703413D01*
X182500001Y-124703413D02*
X182366668Y-124770080D01*
X182366668Y-124770080D02*
X182300001Y-124836746D01*
X182300001Y-124836746D02*
X182233335Y-124970080D01*
X182233335Y-124970080D02*
X182233335Y-125370080D01*
X182233335Y-125370080D02*
X182300001Y-125503413D01*
X182300001Y-125503413D02*
X182366668Y-125570080D01*
X182366668Y-125570080D02*
X182500001Y-125636746D01*
X182500001Y-125636746D02*
X182766668Y-125636746D01*
X182766668Y-125636746D02*
X182900001Y-125570080D01*
X181033334Y-125570080D02*
X181166668Y-125636746D01*
X181166668Y-125636746D02*
X181433334Y-125636746D01*
X181433334Y-125636746D02*
X181566668Y-125570080D01*
X181566668Y-125570080D02*
X181633334Y-125503413D01*
X181633334Y-125503413D02*
X181700001Y-125370080D01*
X181700001Y-125370080D02*
X181700001Y-124970080D01*
X181700001Y-124970080D02*
X181633334Y-124836746D01*
X181633334Y-124836746D02*
X181566668Y-124770080D01*
X181566668Y-124770080D02*
X181433334Y-124703413D01*
X181433334Y-124703413D02*
X181166668Y-124703413D01*
X181166668Y-124703413D02*
X181033334Y-124770080D01*
X180433334Y-125636746D02*
X180433334Y-124236746D01*
X180433334Y-124770080D02*
X180300001Y-124703413D01*
X180300001Y-124703413D02*
X180033334Y-124703413D01*
X180033334Y-124703413D02*
X179900001Y-124770080D01*
X179900001Y-124770080D02*
X179833334Y-124836746D01*
X179833334Y-124836746D02*
X179766668Y-124970080D01*
X179766668Y-124970080D02*
X179766668Y-125370080D01*
X179766668Y-125370080D02*
X179833334Y-125503413D01*
X179833334Y-125503413D02*
X179900001Y-125570080D01*
X179900001Y-125570080D02*
X180033334Y-125636746D01*
X180033334Y-125636746D02*
X180300001Y-125636746D01*
X180300001Y-125636746D02*
X180433334Y-125570080D01*
X178566667Y-125570080D02*
X178700001Y-125636746D01*
X178700001Y-125636746D02*
X178966667Y-125636746D01*
X178966667Y-125636746D02*
X179100001Y-125570080D01*
X179100001Y-125570080D02*
X179166667Y-125503413D01*
X179166667Y-125503413D02*
X179233334Y-125370080D01*
X179233334Y-125370080D02*
X179233334Y-124970080D01*
X179233334Y-124970080D02*
X179166667Y-124836746D01*
X179166667Y-124836746D02*
X179100001Y-124770080D01*
X179100001Y-124770080D02*
X178966667Y-124703413D01*
X178966667Y-124703413D02*
X178700001Y-124703413D01*
X178700001Y-124703413D02*
X178566667Y-124770080D01*
X177766667Y-125636746D02*
X177900001Y-125570080D01*
X177900001Y-125570080D02*
X177966667Y-125503413D01*
X177966667Y-125503413D02*
X178033334Y-125370080D01*
X178033334Y-125370080D02*
X178033334Y-124970080D01*
X178033334Y-124970080D02*
X177966667Y-124836746D01*
X177966667Y-124836746D02*
X177900001Y-124770080D01*
X177900001Y-124770080D02*
X177766667Y-124703413D01*
X177766667Y-124703413D02*
X177566667Y-124703413D01*
X177566667Y-124703413D02*
X177433334Y-124770080D01*
X177433334Y-124770080D02*
X177366667Y-124836746D01*
X177366667Y-124836746D02*
X177300001Y-124970080D01*
X177300001Y-124970080D02*
X177300001Y-125370080D01*
X177300001Y-125370080D02*
X177366667Y-125503413D01*
X177366667Y-125503413D02*
X177433334Y-125570080D01*
X177433334Y-125570080D02*
X177566667Y-125636746D01*
X177566667Y-125636746D02*
X177766667Y-125636746D01*
X176700000Y-125636746D02*
X176700000Y-124703413D01*
X176700000Y-124836746D02*
X176633334Y-124770080D01*
X176633334Y-124770080D02*
X176500000Y-124703413D01*
X176500000Y-124703413D02*
X176300000Y-124703413D01*
X176300000Y-124703413D02*
X176166667Y-124770080D01*
X176166667Y-124770080D02*
X176100000Y-124903413D01*
X176100000Y-124903413D02*
X176100000Y-125636746D01*
X176100000Y-124903413D02*
X176033334Y-124770080D01*
X176033334Y-124770080D02*
X175900000Y-124703413D01*
X175900000Y-124703413D02*
X175700000Y-124703413D01*
X175700000Y-124703413D02*
X175566667Y-124770080D01*
X175566667Y-124770080D02*
X175500000Y-124903413D01*
X175500000Y-124903413D02*
X175500000Y-125636746D01*
X174233333Y-125636746D02*
X174233333Y-124903413D01*
X174233333Y-124903413D02*
X174300000Y-124770080D01*
X174300000Y-124770080D02*
X174433333Y-124703413D01*
X174433333Y-124703413D02*
X174700000Y-124703413D01*
X174700000Y-124703413D02*
X174833333Y-124770080D01*
X174233333Y-125570080D02*
X174366667Y-125636746D01*
X174366667Y-125636746D02*
X174700000Y-125636746D01*
X174700000Y-125636746D02*
X174833333Y-125570080D01*
X174833333Y-125570080D02*
X174900000Y-125436746D01*
X174900000Y-125436746D02*
X174900000Y-125303413D01*
X174900000Y-125303413D02*
X174833333Y-125170080D01*
X174833333Y-125170080D02*
X174700000Y-125103413D01*
X174700000Y-125103413D02*
X174366667Y-125103413D01*
X174366667Y-125103413D02*
X174233333Y-125036746D01*
X173566666Y-124703413D02*
X173566666Y-125636746D01*
X173566666Y-124836746D02*
X173500000Y-124770080D01*
X173500000Y-124770080D02*
X173366666Y-124703413D01*
X173366666Y-124703413D02*
X173166666Y-124703413D01*
X173166666Y-124703413D02*
X173033333Y-124770080D01*
X173033333Y-124770080D02*
X172966666Y-124903413D01*
X172966666Y-124903413D02*
X172966666Y-125636746D01*
X171699999Y-125636746D02*
X171699999Y-124236746D01*
X171699999Y-125570080D02*
X171833333Y-125636746D01*
X171833333Y-125636746D02*
X172099999Y-125636746D01*
X172099999Y-125636746D02*
X172233333Y-125570080D01*
X172233333Y-125570080D02*
X172299999Y-125503413D01*
X172299999Y-125503413D02*
X172366666Y-125370080D01*
X172366666Y-125370080D02*
X172366666Y-124970080D01*
X172366666Y-124970080D02*
X172299999Y-124836746D01*
X172299999Y-124836746D02*
X172233333Y-124770080D01*
X172233333Y-124770080D02*
X172099999Y-124703413D01*
X172099999Y-124703413D02*
X171833333Y-124703413D01*
X171833333Y-124703413D02*
X171699999Y-124770080D01*
X170833332Y-125636746D02*
X170966666Y-125570080D01*
X170966666Y-125570080D02*
X171033332Y-125503413D01*
X171033332Y-125503413D02*
X171099999Y-125370080D01*
X171099999Y-125370080D02*
X171099999Y-124970080D01*
X171099999Y-124970080D02*
X171033332Y-124836746D01*
X171033332Y-124836746D02*
X170966666Y-124770080D01*
X170966666Y-124770080D02*
X170833332Y-124703413D01*
X170833332Y-124703413D02*
X170633332Y-124703413D01*
X170633332Y-124703413D02*
X170499999Y-124770080D01*
X170499999Y-124770080D02*
X170433332Y-124836746D01*
X170433332Y-124836746D02*
X170366666Y-124970080D01*
X170366666Y-124970080D02*
X170366666Y-125370080D01*
X170366666Y-125370080D02*
X170433332Y-125503413D01*
X170433332Y-125503413D02*
X170499999Y-125570080D01*
X170499999Y-125570080D02*
X170633332Y-125636746D01*
X170633332Y-125636746D02*
X170833332Y-125636746D01*
X167899998Y-125636746D02*
X168366665Y-124970080D01*
X168699998Y-125636746D02*
X168699998Y-124236746D01*
X168699998Y-124236746D02*
X168166665Y-124236746D01*
X168166665Y-124236746D02*
X168033332Y-124303413D01*
X168033332Y-124303413D02*
X167966665Y-124370080D01*
X167966665Y-124370080D02*
X167899998Y-124503413D01*
X167899998Y-124503413D02*
X167899998Y-124703413D01*
X167899998Y-124703413D02*
X167966665Y-124836746D01*
X167966665Y-124836746D02*
X168033332Y-124903413D01*
X168033332Y-124903413D02*
X168166665Y-124970080D01*
X168166665Y-124970080D02*
X168699998Y-124970080D01*
X167299998Y-124903413D02*
X166833332Y-124903413D01*
X166633332Y-125636746D02*
X167299998Y-125636746D01*
X167299998Y-125636746D02*
X167299998Y-124236746D01*
X167299998Y-124236746D02*
X166633332Y-124236746D01*
X166233331Y-124236746D02*
X165766665Y-125636746D01*
X165766665Y-125636746D02*
X165299998Y-124236746D01*
X163033331Y-125636746D02*
X163833331Y-125636746D01*
X163433331Y-125636746D02*
X163433331Y-124236746D01*
X163433331Y-124236746D02*
X163566664Y-124436746D01*
X163566664Y-124436746D02*
X163699998Y-124570080D01*
X163699998Y-124570080D02*
X163833331Y-124636746D01*
X162433331Y-125503413D02*
X162366665Y-125570080D01*
X162366665Y-125570080D02*
X162433331Y-125636746D01*
X162433331Y-125636746D02*
X162499998Y-125570080D01*
X162499998Y-125570080D02*
X162433331Y-125503413D01*
X162433331Y-125503413D02*
X162433331Y-125636746D01*
X161033331Y-125636746D02*
X161833331Y-125636746D01*
X161433331Y-125636746D02*
X161433331Y-124236746D01*
X161433331Y-124236746D02*
X161566664Y-124436746D01*
X161566664Y-124436746D02*
X161699998Y-124570080D01*
X161699998Y-124570080D02*
X161833331Y-124636746D01*
M02*
