%TF.GenerationSoftware,KiCad,Pcbnew,10.0.6*%
%TF.CreationDate,2026-09-25T16:02:12-03:00*%
%TF.ProjectId,pcbcomando,70636263-6f6d-4616-9e64-6f2e6b696361,1.2*%
%TF.SameCoordinates,Original*%
%TF.FileFunction,Copper,L1,Top*%
%TF.FilePolarity,Positive*%
%FSLAX46Y46*%
G04 Gerber Fmt 4.6, Leading zero omitted, Abs format (unit mm)*
G04 Created by KiCad (PCBNEW 10.0.6) date 2026-09-25 16:02:12*
%MOMM*%
%LPD*%
G01*
G04 APERTURE LIST*
G04 Aperture macros list*
%AMRoundRect*
0 Rectangle with rounded corners*
0 $1 Rounding radius*
0 $2 $3 $4 $5 $6 $7 $8 $9 X,Y pos of 4 corners*
0 Add a 4 corners polygon primitive as box body*
4,1,4,$2,$3,$4,$5,$6,$7,$8,$9,$2,$3,0*
0 Add four circle primitives for the rounded corners*
1,1,$1+$1,$2,$3*
1,1,$1+$1,$4,$5*
1,1,$1+$1,$6,$7*
1,1,$1+$1,$8,$9*
0 Add four rect primitives between the rounded corners*
20,1,$1+$1,$2,$3,$4,$5,0*
20,1,$1+$1,$4,$5,$6,$7,0*
20,1,$1+$1,$6,$7,$8,$9,0*
20,1,$1+$1,$8,$9,$2,$3,0*%
G04 Aperture macros list end*
%TA.AperFunction,ComponentPad*%
%ADD10RoundRect,0.249999X-0.850001X-0.850001X0.850001X-0.850001X0.850001X0.850001X-0.850001X0.850001X0*%
%TD*%
%TA.AperFunction,ComponentPad*%
%ADD11C,2.200000*%
%TD*%
%TA.AperFunction,ComponentPad*%
%ADD12R,1.800000X1.800000*%
%TD*%
%TA.AperFunction,ComponentPad*%
%ADD13C,1.800000*%
%TD*%
%TA.AperFunction,ComponentPad*%
%ADD14C,1.600000*%
%TD*%
%TA.AperFunction,ComponentPad*%
%ADD15R,1.700000X1.700000*%
%TD*%
%TA.AperFunction,ComponentPad*%
%ADD16C,1.700000*%
%TD*%
%TA.AperFunction,ComponentPad*%
%ADD17RoundRect,0.250000X-0.550000X-0.550000X0.550000X-0.550000X0.550000X0.550000X-0.550000X0.550000X0*%
%TD*%
%TA.AperFunction,ComponentPad*%
%ADD18O,2.400000X1.800000*%
%TD*%
%TA.AperFunction,ViaPad*%
%ADD19C,0.800000*%
%TD*%
%TA.AperFunction,ViaPad*%
%ADD20C,0.600000*%
%TD*%
%TA.AperFunction,Conductor*%
%ADD21C,0.500000*%
%TD*%
%TA.AperFunction,Conductor*%
%ADD22C,0.200000*%
%TD*%
%TA.AperFunction,Conductor*%
%ADD23C,0.400000*%
%TD*%
G04 APERTURE END LIST*
D10*
%TO.P,D3,1*%
%TO.N,VSYS*%
X140000000Y-129400000D03*
D11*
%TO.P,D3,2*%
%TO.N,EXT_5V*%
X150160000Y-129400000D03*
%TD*%
D12*
%TO.P,D2,1*%
%TO.N,Net-(D2-Pad1)*%
X157020000Y-127120000D03*
D13*
%TO.P,D2,2*%
%TO.N,LED_R*%
X159560000Y-127120000D03*
%TD*%
D14*
%TO.P,C1,1*%
%TO.N,3.3V*%
X185500000Y-103800000D03*
%TO.P,C1,2*%
%TO.N,GND*%
X188000000Y-103800000D03*
%TD*%
D15*
%TO.P,J7,1*%
%TO.N,EXT_5V*%
X187020000Y-125850000D03*
D16*
%TO.P,J7,2*%
%TO.N,GND*%
X187020000Y-128390000D03*
%TD*%
D15*
%TO.P,J6,1*%
%TO.N,GND*%
X187020000Y-121620000D03*
%TD*%
%TO.P,J4,1*%
%TO.N,GND*%
X177020000Y-121620000D03*
%TD*%
D13*
%TO.P,U1,1*%
%TO.N,GND*%
X183720000Y-97010000D03*
%TO.P,U1,2*%
X183720000Y-94469999D03*
%TO.P,U1,3*%
%TO.N,3.3V*%
X183720000Y-91929999D03*
%TO.P,U1,4*%
%TO.N,LORA_RST*%
X183720000Y-89389999D03*
%TO.P,U1,5*%
%TO.N,LORA_DIO0*%
X183720000Y-86850000D03*
%TO.P,U1,6*%
%TO.N,unconnected-(U1-DIO1-Pad6)*%
X183720000Y-84309999D03*
%TO.P,U1,7*%
%TO.N,unconnected-(U1-DIO2-Pad7)*%
X183720000Y-81770000D03*
%TO.P,U1,8*%
%TO.N,unconnected-(U1-DIO3-Pad8)*%
X183720000Y-79229999D03*
%TO.P,U1,9*%
%TO.N,GND*%
X158320000Y-79229999D03*
%TO.P,U1,10*%
%TO.N,unconnected-(U1-DIO4-Pad10)*%
X158320000Y-81770000D03*
%TO.P,U1,11*%
%TO.N,unconnected-(U1-DIO5-Pad11)*%
X158320000Y-84309999D03*
%TO.P,U1,12*%
%TO.N,LORA_SCK*%
X158320000Y-86850000D03*
%TO.P,U1,13*%
%TO.N,LORA_MISO*%
X158320000Y-89389999D03*
%TO.P,U1,14*%
%TO.N,LORA_MOSI*%
X158320000Y-91929999D03*
%TO.P,U1,15*%
%TO.N,LORA_NSS*%
X158320000Y-94469999D03*
%TO.P,U1,16*%
%TO.N,GND*%
X158320000Y-97010000D03*
%TD*%
D14*
%TO.P,R1,1*%
%TO.N,Net-(D1-Pad1)*%
X168020000Y-117620000D03*
%TO.P,R1,2*%
%TO.N,GND*%
X178180000Y-117620000D03*
%TD*%
D17*
%TO.P,C2,1,~_1*%
%TO.N,3.3V*%
X176520000Y-105620000D03*
D14*
%TO.P,C2,2,~_2*%
%TO.N,GND*%
X179020000Y-105620000D03*
%TD*%
D15*
%TO.P,J5,1*%
%TO.N,BTN*%
X182020000Y-121620000D03*
%TD*%
%TO.P,J3,1*%
%TO.N,BUZZ*%
X172020000Y-121620000D03*
%TD*%
D12*
%TO.P,D1,1*%
%TO.N,Net-(D1-Pad1)*%
X157020000Y-117620000D03*
D13*
%TO.P,D1,2*%
%TO.N,LED_Y*%
X159560000Y-117620000D03*
%TD*%
D14*
%TO.P,R2,1*%
%TO.N,Net-(D2-Pad1)*%
X168020000Y-127120000D03*
%TO.P,R2,2*%
%TO.N,GND*%
X178180000Y-127120000D03*
%TD*%
D18*
%TO.P,A1,1,GP0_1*%
%TO.N,LORA_MISO*%
X150410000Y-124750000D03*
%TO.P,A1,2,GP1_2*%
%TO.N,LORA_NSS*%
X150410000Y-122210000D03*
%TO.P,A1,3,GND_3*%
%TO.N,GND*%
X150410000Y-119670000D03*
%TO.P,A1,4,GP2_4*%
%TO.N,LORA_SCK*%
X150410000Y-117130000D03*
%TO.P,A1,5,GP3_5*%
%TO.N,LORA_MOSI*%
X150410000Y-114590000D03*
%TO.P,A1,6,GP4_6*%
%TO.N,LORA_RST*%
X150410000Y-112050000D03*
%TO.P,A1,7,GP5_7*%
%TO.N,unconnected-(A1-GP5-Pad7)*%
X150410000Y-109510000D03*
%TO.P,A1,8,GND_8*%
%TO.N,GND*%
X150410000Y-106970000D03*
%TO.P,A1,9,GP6_9*%
%TO.N,unconnected-(A1-GP6-Pad9)*%
X150410000Y-104430000D03*
%TO.P,A1,10,GP7_10*%
%TO.N,unconnected-(A1-GP7-Pad10)*%
X150410000Y-101890000D03*
%TO.P,A1,11,GP8_11*%
%TO.N,unconnected-(A1-GP8-Pad11)*%
X150410000Y-99350000D03*
%TO.P,A1,12,GP9_12*%
%TO.N,unconnected-(A1-GP9-Pad12)*%
X150410000Y-96810000D03*
%TO.P,A1,13,GND_13*%
%TO.N,GND*%
X150410000Y-94270000D03*
%TO.P,A1,14,GP10_14*%
%TO.N,unconnected-(A1-GP10-Pad14)*%
X150410000Y-91730000D03*
%TO.P,A1,15,GP11_15*%
%TO.N,LED_Y*%
X150410000Y-89190000D03*
%TO.P,A1,16,GP12_16*%
%TO.N,LED_R*%
X150410000Y-86650000D03*
%TO.P,A1,17,GP13_17*%
%TO.N,BTN*%
X150410000Y-84110000D03*
%TO.P,A1,18,GND_18*%
%TO.N,GND*%
X150410000Y-81570000D03*
%TO.P,A1,19,GP14_19*%
%TO.N,unconnected-(A1-GP14-Pad19)*%
X150410000Y-79030000D03*
%TO.P,A1,20,GP15_20*%
%TO.N,LORA_DIO0*%
X150410000Y-76490000D03*
%TO.P,A1,21,GP16_21*%
%TO.N,unconnected-(A1-GP16-Pad21)*%
X132630000Y-76490000D03*
%TO.P,A1,22,GP17_22*%
%TO.N,unconnected-(A1-GP17-Pad22)*%
X132630000Y-79030000D03*
%TO.P,A1,23,GND_23*%
%TO.N,GND*%
X132630000Y-81570000D03*
%TO.P,A1,24,GP18_24*%
%TO.N,unconnected-(A1-GP18-Pad24)*%
X132630000Y-84110000D03*
%TO.P,A1,25,GP19_25*%
%TO.N,BUZZ*%
X132630000Y-86650000D03*
%TO.P,A1,26,GP20_26*%
%TO.N,unconnected-(A1-GP20-Pad26)*%
X132630000Y-89190000D03*
%TO.P,A1,27,GP21_27*%
%TO.N,unconnected-(A1-GP21-Pad27)*%
X132630000Y-91730000D03*
%TO.P,A1,28,GND_28*%
%TO.N,GND*%
X132630000Y-94270000D03*
%TO.P,A1,29,GP22_29*%
%TO.N,unconnected-(A1-GP22-Pad29)*%
X132630000Y-96810000D03*
%TO.P,A1,30,RUN_30*%
%TO.N,unconnected-(A1-RUN-Pad30)*%
X132630000Y-99350000D03*
%TO.P,A1,31,ADC0/GP26_31*%
%TO.N,unconnected-(A1-ADC0{slash}GP26-Pad31)*%
X132630000Y-101890000D03*
%TO.P,A1,32,ADC1/GP27_32*%
%TO.N,unconnected-(A1-ADC1{slash}GP27-Pad32)*%
X132630000Y-104430000D03*
%TO.P,A1,33,GND_33*%
%TO.N,GND*%
X132630000Y-106970000D03*
%TO.P,A1,34,ADC2/GP28_34*%
%TO.N,unconnected-(A1-ADC2{slash}GP28-Pad34)*%
X132630000Y-109510000D03*
%TO.P,A1,35,ADC_VREF_35*%
%TO.N,unconnected-(A1-ADC_VREF-Pad35)*%
X132630000Y-112050000D03*
%TO.P,A1,36,3V3(OUT)_36*%
%TO.N,3.3V*%
X132630000Y-114590000D03*
%TO.P,A1,37,~{3V3_EN}_37*%
%TO.N,unconnected-(A1-~{3V3_EN}-Pad37)*%
X132630000Y-117130000D03*
%TO.P,A1,38,GND_38*%
%TO.N,GND*%
X132630000Y-119670000D03*
%TO.P,A1,39,VSYS_39*%
%TO.N,VSYS*%
X132630000Y-122210000D03*
%TO.P,A1,40,VBUS_40*%
%TO.N,unconnected-(A1-VBUS-Pad40)*%
X132630000Y-124750000D03*
%TD*%
D19*
%TO.N,GND*%
X130730000Y-119438600D03*
X189000000Y-130000000D03*
X131600000Y-130000000D03*
X131199999Y-74200000D03*
X183253700Y-118565200D03*
X162900000Y-97900000D03*
X158330000Y-104600000D03*
X185500000Y-113000000D03*
X162100000Y-102400000D03*
X189000000Y-74200000D03*
X184000000Y-99330000D03*
X130730000Y-94650000D03*
X155000000Y-123500000D03*
D20*
X152231800Y-94375000D03*
D19*
X183253700Y-106782000D03*
X161600000Y-95700000D03*
X130730000Y-107268600D03*
X179500000Y-120000000D03*
X170000000Y-108000000D03*
D20*
X152231800Y-107268600D03*
D19*
%TO.N,BUZZ*%
X161326900Y-103160000D03*
%TO.N,LED_Y*%
X160546100Y-95740000D03*
%TD*%
%TO.N,VSYS*%
D21*
X132810000Y-122210000D02*
X140000000Y-129400000D01*
X132630000Y-122210000D02*
X132810000Y-122210000D01*
%TO.N,EXT_5V*%
X150160000Y-129400000D02*
X183470000Y-129400000D01*
X183470000Y-129400000D02*
X187020000Y-125850000D01*
%TO.N,Net-(D2-Pad1)*%
D22*
X157020000Y-127120000D02*
X158221700Y-127120000D01*
X166818300Y-128321700D02*
X159047800Y-128321700D01*
X158221700Y-127495600D02*
X158221700Y-127120000D01*
X168020000Y-127120000D02*
X166818300Y-128321700D01*
X159047800Y-128321700D02*
X158221700Y-127495600D01*
%TO.N,3.3V*%
D21*
X183720000Y-91930000D02*
X185500000Y-91930000D01*
X132630000Y-114590000D02*
X132630000Y-113320000D01*
X185500000Y-91930000D02*
X185500000Y-103800000D01*
X132630000Y-113320000D02*
X168752000Y-113320000D01*
X176520000Y-105620000D02*
X178340000Y-103800000D01*
X168752000Y-113320000D02*
X176520000Y-105620000D01*
X178340000Y-103800000D02*
X185500000Y-103800000D01*
%TO.N,GND*%
D22*
X132630000Y-119670000D02*
X131128300Y-119670000D01*
X130730000Y-119438600D02*
X130896900Y-119438600D01*
D23*
X158320000Y-79230000D02*
X157181700Y-80368300D01*
D22*
X155685000Y-94375000D02*
X158320000Y-97010000D01*
X132630000Y-106970000D02*
X131128300Y-106970000D01*
X181868300Y-117620000D02*
X178180000Y-117620000D01*
D23*
X150410000Y-106970000D02*
X132630000Y-106970000D01*
X152231800Y-94375000D02*
X155685000Y-94375000D01*
X157181700Y-80368300D02*
X150410000Y-80368300D01*
D22*
X130730000Y-94650000D02*
X130748300Y-94650000D01*
X150410000Y-119670000D02*
X132630000Y-119670000D01*
D23*
X150410000Y-81570000D02*
X150410000Y-80368300D01*
D22*
X187020000Y-121620000D02*
X185868300Y-121620000D01*
X177020000Y-121620000D02*
X175868300Y-121620000D01*
X151911700Y-106970000D02*
X152210300Y-107268600D01*
X182813500Y-118565200D02*
X181868300Y-117620000D01*
X130896900Y-119438600D02*
X131128300Y-119670000D01*
D23*
X150410000Y-94270000D02*
X152126800Y-94270000D01*
D22*
X173918300Y-119670000D02*
X150410000Y-119670000D01*
X175868300Y-121620000D02*
X173918300Y-119670000D01*
X130829700Y-107268600D02*
X131128300Y-106970000D01*
X152210300Y-107268600D02*
X152231800Y-107268600D01*
X132630000Y-94270000D02*
X131128300Y-94270000D01*
X150410000Y-106970000D02*
X151911700Y-106970000D01*
X152126800Y-94270000D02*
X152231800Y-94375000D01*
X182813500Y-118565200D02*
X183253700Y-118565200D01*
X130730000Y-107268600D02*
X130829700Y-107268600D01*
X185868300Y-121620000D02*
X182813500Y-118565200D01*
X130748300Y-94650000D02*
X131128300Y-94270000D01*
%TO.N,LORA_RST*%
X162261700Y-110848300D02*
X183720000Y-89390000D01*
X150410000Y-112050000D02*
X150410000Y-110848300D01*
X150410000Y-110848300D02*
X162261700Y-110848300D01*
%TO.N,LORA_DIO0*%
X150410000Y-76490000D02*
X173360000Y-76490000D01*
X173360000Y-76490000D02*
X183720000Y-86850000D01*
%TO.N,Net-(D1-Pad1)*%
X159047800Y-116418300D02*
X158221700Y-117244400D01*
X166818300Y-116418300D02*
X159047800Y-116418300D01*
X157020000Y-117620000D02*
X158221700Y-117620000D01*
X168020000Y-117620000D02*
X166818300Y-116418300D01*
X158221700Y-117244400D02*
X158221700Y-117620000D01*
%TO.N,BUZZ*%
X149140000Y-103160000D02*
X161326900Y-103160000D01*
X133831700Y-87851700D02*
X149140000Y-103160000D01*
X132630000Y-86650000D02*
X132630000Y-87851700D01*
X132630000Y-87851700D02*
X133831700Y-87851700D01*
%TO.N,LED_Y*%
X157842800Y-95740000D02*
X160546100Y-95740000D01*
X151911700Y-89190000D02*
X151911700Y-89808900D01*
X151911700Y-89808900D02*
X157842800Y-95740000D01*
X150410000Y-89190000D02*
X151911700Y-89190000D01*
%TD*%
%TA.AperFunction,Conductor*%
%TO.N,GND*%
G36*
X184871066Y-95267513D02*
G01*
X184871066Y-95267512D01*
X184898182Y-95230192D01*
X184953512Y-95187527D01*
X185023125Y-95181548D01*
X185084920Y-95214154D01*
X185119278Y-95274993D01*
X185122500Y-95303078D01*
X185122500Y-96176921D01*
X185102815Y-96243960D01*
X185050011Y-96289715D01*
X184980853Y-96299659D01*
X184917297Y-96270634D01*
X184898181Y-96249806D01*
X184871066Y-96212485D01*
X184871065Y-96212485D01*
X184202962Y-96880589D01*
X184185925Y-96817007D01*
X184120099Y-96702993D01*
X184027007Y-96609901D01*
X183912993Y-96544075D01*
X183849407Y-96527037D01*
X184517513Y-95858932D01*
X184491892Y-95840318D01*
X184449226Y-95784988D01*
X184443247Y-95715375D01*
X184475852Y-95653579D01*
X184491892Y-95639680D01*
X184517513Y-95621064D01*
X183849409Y-94952961D01*
X183912993Y-94935924D01*
X184027007Y-94870098D01*
X184120099Y-94777006D01*
X184185925Y-94662992D01*
X184202962Y-94599408D01*
X184871066Y-95267513D01*
G37*
%TD.AperFunction*%
%TA.AperFunction,Conductor*%
G36*
X185065539Y-92327185D02*
G01*
X185111294Y-92379989D01*
X185122500Y-92431500D01*
X185122500Y-93636920D01*
X185102815Y-93703959D01*
X185050011Y-93749714D01*
X184980853Y-93759658D01*
X184917297Y-93730633D01*
X184898181Y-93709805D01*
X184871066Y-93672484D01*
X184871065Y-93672484D01*
X184202962Y-94340588D01*
X184185925Y-94277006D01*
X184120099Y-94162992D01*
X184027007Y-94069900D01*
X183912993Y-94004074D01*
X183849407Y-93987036D01*
X184517513Y-93318931D01*
X184453756Y-93272610D01*
X184257410Y-93172566D01*
X184099473Y-93121250D01*
X184041798Y-93081813D01*
X184014599Y-93017454D01*
X184026513Y-92948608D01*
X184073757Y-92897132D01*
X184090339Y-92888758D01*
X184206697Y-92840561D01*
X184206697Y-92840560D01*
X184206704Y-92840558D01*
X184374993Y-92728111D01*
X184518112Y-92584992D01*
X184630559Y-92416703D01*
X184644085Y-92384047D01*
X184687924Y-92329645D01*
X184754218Y-92307579D01*
X184758646Y-92307500D01*
X184998500Y-92307500D01*
X185065539Y-92327185D01*
G37*
%TD.AperFunction*%
%TA.AperFunction,Conductor*%
G36*
X189462539Y-73640185D02*
G01*
X189508294Y-73692989D01*
X189519500Y-73744500D01*
X189519500Y-103507985D01*
X189499815Y-103575024D01*
X189447011Y-103620779D01*
X189377853Y-103630723D01*
X189314297Y-103601698D01*
X189276523Y-103542920D01*
X189273027Y-103527384D01*
X189267989Y-103495581D01*
X189204755Y-103300968D01*
X189111859Y-103118650D01*
X189079474Y-103074077D01*
X189079474Y-103074076D01*
X188400000Y-103753551D01*
X188400000Y-103747339D01*
X188372741Y-103645606D01*
X188320080Y-103554394D01*
X188245606Y-103479920D01*
X188154394Y-103427259D01*
X188052661Y-103400000D01*
X188046446Y-103400000D01*
X188725922Y-102720524D01*
X188725921Y-102720523D01*
X188681359Y-102688147D01*
X188681350Y-102688141D01*
X188499031Y-102595244D01*
X188304417Y-102532009D01*
X188102317Y-102500000D01*
X187897683Y-102500000D01*
X187695582Y-102532009D01*
X187500968Y-102595244D01*
X187318644Y-102688143D01*
X187274077Y-102720523D01*
X187274077Y-102720524D01*
X187953554Y-103400000D01*
X187947339Y-103400000D01*
X187845606Y-103427259D01*
X187754394Y-103479920D01*
X187679920Y-103554394D01*
X187627259Y-103645606D01*
X187600000Y-103747339D01*
X187600000Y-103753553D01*
X186920524Y-103074077D01*
X186920523Y-103074077D01*
X186888143Y-103118644D01*
X186795244Y-103300968D01*
X186732009Y-103495582D01*
X186700000Y-103697682D01*
X186700000Y-103902317D01*
X186732009Y-104104417D01*
X186795244Y-104299031D01*
X186888141Y-104481350D01*
X186888147Y-104481359D01*
X186920523Y-104525921D01*
X186920524Y-104525922D01*
X187600000Y-103846446D01*
X187600000Y-103852661D01*
X187627259Y-103954394D01*
X187679920Y-104045606D01*
X187754394Y-104120080D01*
X187845606Y-104172741D01*
X187947339Y-104200000D01*
X187953553Y-104200000D01*
X187274076Y-104879474D01*
X187318650Y-104911859D01*
X187500968Y-105004755D01*
X187695582Y-105067990D01*
X187897683Y-105100000D01*
X188102317Y-105100000D01*
X188304417Y-105067990D01*
X188499031Y-105004755D01*
X188681349Y-104911859D01*
X188725921Y-104879474D01*
X188046447Y-104200000D01*
X188052661Y-104200000D01*
X188154394Y-104172741D01*
X188245606Y-104120080D01*
X188320080Y-104045606D01*
X188372741Y-103954394D01*
X188400000Y-103852661D01*
X188400000Y-103846448D01*
X189079474Y-104525922D01*
X189079474Y-104525921D01*
X189111859Y-104481349D01*
X189204755Y-104299031D01*
X189267990Y-104104417D01*
X189273027Y-104072616D01*
X189302956Y-104009481D01*
X189362268Y-103972550D01*
X189432130Y-103973548D01*
X189490363Y-104012158D01*
X189518477Y-104076122D01*
X189519500Y-104092014D01*
X189519500Y-130495500D01*
X189499815Y-130562539D01*
X189447011Y-130608294D01*
X189395500Y-130619500D01*
X150951484Y-130619500D01*
X150884445Y-130599815D01*
X150838690Y-130547011D01*
X150828746Y-130477853D01*
X150857771Y-130414297D01*
X150878599Y-130395182D01*
X150959656Y-130336290D01*
X150959654Y-130336290D01*
X150959663Y-130336285D01*
X151096285Y-130199663D01*
X151209852Y-130043350D01*
X151297569Y-129871197D01*
X151300174Y-129863179D01*
X151339611Y-129805506D01*
X151403970Y-129778308D01*
X151418104Y-129777500D01*
X183519697Y-129777500D01*
X183519699Y-129777500D01*
X183615710Y-129751774D01*
X183701790Y-129702075D01*
X185517672Y-127886192D01*
X185578993Y-127852709D01*
X185648685Y-127857693D01*
X185704618Y-127899565D01*
X185729035Y-127965029D01*
X185723282Y-128012192D01*
X185703243Y-128073865D01*
X185703242Y-128073872D01*
X185670000Y-128283753D01*
X185670000Y-128496246D01*
X185703242Y-128706127D01*
X185703242Y-128706130D01*
X185768904Y-128908217D01*
X185865375Y-129097550D01*
X185904728Y-129151716D01*
X186537037Y-128519408D01*
X186554075Y-128582993D01*
X186619901Y-128697007D01*
X186712993Y-128790099D01*
X186827007Y-128855925D01*
X186890590Y-128872962D01*
X186258282Y-129505269D01*
X186258282Y-129505270D01*
X186312449Y-129544624D01*
X186501782Y-129641095D01*
X186703870Y-129706757D01*
X186913754Y-129740000D01*
X187126246Y-129740000D01*
X187336127Y-129706757D01*
X187336130Y-129706757D01*
X187538217Y-129641095D01*
X187727554Y-129544622D01*
X187781716Y-129505270D01*
X187781717Y-129505270D01*
X187149408Y-128872962D01*
X187212993Y-128855925D01*
X187327007Y-128790099D01*
X187420099Y-128697007D01*
X187485925Y-128582993D01*
X187502962Y-128519408D01*
X188135270Y-129151717D01*
X188135270Y-129151716D01*
X188174622Y-129097554D01*
X188271095Y-128908217D01*
X188336757Y-128706130D01*
X188336757Y-128706127D01*
X188370000Y-128496246D01*
X188370000Y-128283753D01*
X188336757Y-128073872D01*
X188336757Y-128073869D01*
X188271095Y-127871782D01*
X188174624Y-127682449D01*
X188135270Y-127628282D01*
X188135269Y-127628282D01*
X187502962Y-128260590D01*
X187485925Y-128197007D01*
X187420099Y-128082993D01*
X187327007Y-127989901D01*
X187212993Y-127924075D01*
X187149408Y-127907037D01*
X187781716Y-127274728D01*
X187727550Y-127235375D01*
X187538217Y-127138904D01*
X187336130Y-127073242D01*
X187331398Y-127072107D01*
X187331951Y-127069800D01*
X187277627Y-127044062D01*
X187240683Y-126984758D01*
X187241666Y-126914895D01*
X187280263Y-126856654D01*
X187344221Y-126828526D01*
X187360140Y-126827500D01*
X187882559Y-126827500D01*
X187889957Y-126826028D01*
X187919748Y-126820102D01*
X187961922Y-126791922D01*
X187990102Y-126749748D01*
X187997500Y-126712558D01*
X187997500Y-124987442D01*
X187990102Y-124950252D01*
X187990101Y-124950250D01*
X187961922Y-124908077D01*
X187919749Y-124879898D01*
X187882559Y-124872500D01*
X187882558Y-124872500D01*
X186157442Y-124872500D01*
X186157441Y-124872500D01*
X186120250Y-124879898D01*
X186078077Y-124908077D01*
X186049898Y-124950250D01*
X186042500Y-124987441D01*
X186042500Y-126242273D01*
X186022815Y-126309312D01*
X186006181Y-126329954D01*
X183349954Y-128986181D01*
X183288631Y-129019666D01*
X183262273Y-129022500D01*
X151418104Y-129022500D01*
X151351065Y-129002815D01*
X151305310Y-128950011D01*
X151300176Y-128936827D01*
X151297569Y-128928803D01*
X151297567Y-128928800D01*
X151297567Y-128928798D01*
X151209852Y-128756650D01*
X151096284Y-128600336D01*
X150959663Y-128463715D01*
X150803349Y-128350147D01*
X150631194Y-128262429D01*
X150447441Y-128202725D01*
X150256611Y-128172500D01*
X150256606Y-128172500D01*
X150063394Y-128172500D01*
X150063389Y-128172500D01*
X149872558Y-128202725D01*
X149688805Y-128262429D01*
X149516650Y-128350147D01*
X149360336Y-128463715D01*
X149223715Y-128600336D01*
X149110147Y-128756650D01*
X149022429Y-128928805D01*
X148962725Y-129112558D01*
X148932500Y-129303388D01*
X148932500Y-129496611D01*
X148962725Y-129687441D01*
X149022429Y-129871194D01*
X149110147Y-130043349D01*
X149223715Y-130199663D01*
X149360338Y-130336286D01*
X149360343Y-130336290D01*
X149441401Y-130395182D01*
X149484067Y-130450511D01*
X149490046Y-130520125D01*
X149457441Y-130581920D01*
X149396602Y-130616277D01*
X149368516Y-130619500D01*
X141288203Y-130619500D01*
X141221164Y-130599815D01*
X141175409Y-130547011D01*
X141165465Y-130477853D01*
X141176803Y-130441040D01*
X141216808Y-130359207D01*
X141216809Y-130359204D01*
X141227500Y-130285828D01*
X141227500Y-128514171D01*
X141216809Y-128440795D01*
X141161475Y-128327608D01*
X141072391Y-128238524D01*
X140959204Y-128183190D01*
X140885829Y-128172500D01*
X140885828Y-128172500D01*
X139357728Y-128172500D01*
X139290689Y-128152815D01*
X139270047Y-128136181D01*
X138355066Y-127221200D01*
X137341307Y-126207441D01*
X155992500Y-126207441D01*
X155992500Y-128032558D01*
X155999898Y-128069749D01*
X156028077Y-128111922D01*
X156070250Y-128140101D01*
X156070252Y-128140102D01*
X156098205Y-128145662D01*
X156107441Y-128147500D01*
X156107442Y-128147500D01*
X157932559Y-128147500D01*
X157939957Y-128146028D01*
X157969748Y-128140102D01*
X158011922Y-128111922D01*
X158040102Y-128069748D01*
X158047500Y-128032558D01*
X158047500Y-127942495D01*
X158067185Y-127875456D01*
X158119989Y-127829701D01*
X158189147Y-127819757D01*
X158252703Y-127848782D01*
X158259177Y-127854810D01*
X158601373Y-128197007D01*
X158918932Y-128514566D01*
X158918934Y-128514568D01*
X158983601Y-128541352D01*
X159002547Y-128549200D01*
X159002549Y-128549200D01*
X166863552Y-128549200D01*
X166863553Y-128549200D01*
X166947168Y-128514565D01*
X167479034Y-127982697D01*
X167540357Y-127949213D01*
X167610048Y-127954197D01*
X167614168Y-127955818D01*
X167749458Y-128011857D01*
X167928644Y-128047499D01*
X167928648Y-128047500D01*
X167928649Y-128047500D01*
X168111352Y-128047500D01*
X168111353Y-128047499D01*
X168138586Y-128042082D01*
X168196326Y-128030598D01*
X168241002Y-128021711D01*
X168290542Y-128011857D01*
X168459336Y-127941940D01*
X168611247Y-127840436D01*
X168740436Y-127711247D01*
X168841940Y-127559336D01*
X168911857Y-127390542D01*
X168947500Y-127211351D01*
X168947500Y-127028649D01*
X168947500Y-127028646D01*
X168945319Y-127017682D01*
X176880000Y-127017682D01*
X176880000Y-127222317D01*
X176912009Y-127424417D01*
X176975244Y-127619031D01*
X177068141Y-127801350D01*
X177068147Y-127801359D01*
X177100523Y-127845921D01*
X177100524Y-127845922D01*
X177780000Y-127166446D01*
X177780000Y-127172661D01*
X177807259Y-127274394D01*
X177859920Y-127365606D01*
X177934394Y-127440080D01*
X178025606Y-127492741D01*
X178127339Y-127520000D01*
X178133553Y-127520000D01*
X177454076Y-128199474D01*
X177498650Y-128231859D01*
X177680968Y-128324755D01*
X177875582Y-128387990D01*
X178077683Y-128420000D01*
X178282317Y-128420000D01*
X178484417Y-128387990D01*
X178679031Y-128324755D01*
X178861349Y-128231859D01*
X178905921Y-128199474D01*
X178226447Y-127520000D01*
X178232661Y-127520000D01*
X178334394Y-127492741D01*
X178425606Y-127440080D01*
X178500080Y-127365606D01*
X178552741Y-127274394D01*
X178580000Y-127172661D01*
X178580000Y-127166447D01*
X179259474Y-127845921D01*
X179291859Y-127801349D01*
X179384755Y-127619031D01*
X179447990Y-127424417D01*
X179480000Y-127222317D01*
X179480000Y-127017682D01*
X179447990Y-126815582D01*
X179384755Y-126620968D01*
X179291859Y-126438650D01*
X179259474Y-126394077D01*
X179259474Y-126394076D01*
X178580000Y-127073551D01*
X178580000Y-127067339D01*
X178552741Y-126965606D01*
X178500080Y-126874394D01*
X178425606Y-126799920D01*
X178334394Y-126747259D01*
X178232661Y-126720000D01*
X178226446Y-126720000D01*
X178905922Y-126040524D01*
X178905921Y-126040523D01*
X178861359Y-126008147D01*
X178861350Y-126008141D01*
X178679031Y-125915244D01*
X178484417Y-125852009D01*
X178282317Y-125820000D01*
X178077683Y-125820000D01*
X177875582Y-125852009D01*
X177680968Y-125915244D01*
X177498644Y-126008143D01*
X177454077Y-126040523D01*
X177454077Y-126040524D01*
X178133554Y-126720000D01*
X178127339Y-126720000D01*
X178025606Y-126747259D01*
X177934394Y-126799920D01*
X177859920Y-126874394D01*
X177807259Y-126965606D01*
X177780000Y-127067339D01*
X177780000Y-127073553D01*
X177100524Y-126394077D01*
X177100523Y-126394077D01*
X177068143Y-126438644D01*
X176975244Y-126620968D01*
X176912009Y-126815582D01*
X176880000Y-127017682D01*
X168945319Y-127017682D01*
X168924873Y-126914895D01*
X168911857Y-126849458D01*
X168841940Y-126680664D01*
X168841939Y-126680663D01*
X168841936Y-126680657D01*
X168740436Y-126528753D01*
X168740433Y-126528749D01*
X168611250Y-126399566D01*
X168611246Y-126399563D01*
X168459342Y-126298063D01*
X168459333Y-126298058D01*
X168290542Y-126228143D01*
X168290534Y-126228141D01*
X168196316Y-126209400D01*
X168111355Y-126192500D01*
X168111351Y-126192500D01*
X167928649Y-126192500D01*
X167928644Y-126192500D01*
X167749465Y-126228141D01*
X167749457Y-126228143D01*
X167580666Y-126298058D01*
X167580657Y-126298063D01*
X167428753Y-126399563D01*
X167428749Y-126399566D01*
X167299566Y-126528749D01*
X167299563Y-126528753D01*
X167198063Y-126680657D01*
X167198058Y-126680666D01*
X167128143Y-126849457D01*
X167128141Y-126849465D01*
X167092500Y-127028644D01*
X167092500Y-127211355D01*
X167128141Y-127390534D01*
X167128143Y-127390542D01*
X167184181Y-127525830D01*
X167191650Y-127595300D01*
X167160375Y-127657779D01*
X167157301Y-127660964D01*
X166760386Y-128057881D01*
X166699063Y-128091366D01*
X166672705Y-128094200D01*
X160338268Y-128094200D01*
X160271229Y-128074515D01*
X160225474Y-128021711D01*
X160215530Y-127952553D01*
X160244555Y-127888997D01*
X160250587Y-127882519D01*
X160358109Y-127774996D01*
X160358112Y-127774993D01*
X160470559Y-127606704D01*
X160548014Y-127419711D01*
X160587500Y-127221200D01*
X160587500Y-127018800D01*
X160548014Y-126820289D01*
X160470559Y-126633296D01*
X160470558Y-126633295D01*
X160470555Y-126633289D01*
X160358112Y-126465007D01*
X160358109Y-126465003D01*
X160214996Y-126321890D01*
X160214992Y-126321887D01*
X160046710Y-126209444D01*
X160046701Y-126209439D01*
X159859711Y-126131986D01*
X159859703Y-126131984D01*
X159661204Y-126092500D01*
X159661200Y-126092500D01*
X159458800Y-126092500D01*
X159458795Y-126092500D01*
X159260296Y-126131984D01*
X159260288Y-126131986D01*
X159073298Y-126209439D01*
X159073289Y-126209444D01*
X158905007Y-126321887D01*
X158905003Y-126321890D01*
X158761890Y-126465003D01*
X158761887Y-126465007D01*
X158649444Y-126633289D01*
X158649439Y-126633298D01*
X158571986Y-126820288D01*
X158571984Y-126820293D01*
X158562781Y-126866561D01*
X158530395Y-126928472D01*
X158469679Y-126963045D01*
X158399909Y-126959304D01*
X158353483Y-126930049D01*
X158350570Y-126927136D01*
X158266953Y-126892500D01*
X158171500Y-126892500D01*
X158104461Y-126872815D01*
X158058706Y-126820011D01*
X158047500Y-126768500D01*
X158047500Y-126207441D01*
X158044528Y-126192500D01*
X158040102Y-126170252D01*
X158040101Y-126170250D01*
X158011922Y-126128077D01*
X157969749Y-126099898D01*
X157932559Y-126092500D01*
X157932558Y-126092500D01*
X156107442Y-126092500D01*
X156107441Y-126092500D01*
X156070250Y-126099898D01*
X156028077Y-126128077D01*
X155999898Y-126170250D01*
X155992500Y-126207441D01*
X137341307Y-126207441D01*
X135782660Y-124648795D01*
X149082500Y-124648795D01*
X149082500Y-124851204D01*
X149121984Y-125049703D01*
X149121986Y-125049711D01*
X149199439Y-125236701D01*
X149199444Y-125236710D01*
X149311887Y-125404992D01*
X149311890Y-125404996D01*
X149455003Y-125548109D01*
X149455007Y-125548112D01*
X149623289Y-125660555D01*
X149623295Y-125660558D01*
X149623296Y-125660559D01*
X149810289Y-125738014D01*
X150008795Y-125777499D01*
X150008799Y-125777500D01*
X150008800Y-125777500D01*
X150811201Y-125777500D01*
X150811202Y-125777499D01*
X151009711Y-125738014D01*
X151196704Y-125660559D01*
X151364993Y-125548112D01*
X151508112Y-125404993D01*
X151620559Y-125236704D01*
X151698014Y-125049711D01*
X151737500Y-124851200D01*
X151737500Y-124648800D01*
X151698014Y-124450289D01*
X151620559Y-124263296D01*
X151620558Y-124263295D01*
X151620555Y-124263289D01*
X151508112Y-124095007D01*
X151508109Y-124095003D01*
X151364996Y-123951890D01*
X151364992Y-123951887D01*
X151196710Y-123839444D01*
X151196701Y-123839439D01*
X151009711Y-123761986D01*
X151009703Y-123761984D01*
X150811204Y-123722500D01*
X150811200Y-123722500D01*
X150008800Y-123722500D01*
X150008795Y-123722500D01*
X149810296Y-123761984D01*
X149810288Y-123761986D01*
X149623298Y-123839439D01*
X149623289Y-123839444D01*
X149455007Y-123951887D01*
X149455003Y-123951890D01*
X149311890Y-124095003D01*
X149311887Y-124095007D01*
X149199444Y-124263289D01*
X149199439Y-124263298D01*
X149121986Y-124450288D01*
X149121984Y-124450296D01*
X149082500Y-124648795D01*
X135782660Y-124648795D01*
X133896218Y-122762353D01*
X133862734Y-122701031D01*
X133867718Y-122631339D01*
X133869308Y-122627296D01*
X133918014Y-122509711D01*
X133957500Y-122311200D01*
X133957500Y-122108800D01*
X133918014Y-121910289D01*
X133840559Y-121723296D01*
X133840558Y-121723295D01*
X133840555Y-121723289D01*
X133728112Y-121555007D01*
X133728109Y-121555003D01*
X133584996Y-121411890D01*
X133584992Y-121411887D01*
X133416710Y-121299444D01*
X133416700Y-121299439D01*
X133300338Y-121251240D01*
X133245935Y-121207399D01*
X133223870Y-121141104D01*
X133241149Y-121073405D01*
X133292287Y-121025795D01*
X133309474Y-121018748D01*
X133467408Y-120967433D01*
X133663760Y-120867386D01*
X133842041Y-120737857D01*
X133997857Y-120582041D01*
X134127386Y-120403760D01*
X134227432Y-120207410D01*
X134295526Y-119997838D01*
X134295526Y-119997835D01*
X134307855Y-119920000D01*
X133063012Y-119920000D01*
X133095925Y-119862993D01*
X133130000Y-119735826D01*
X133130000Y-119604174D01*
X133095925Y-119477007D01*
X133063012Y-119420000D01*
X134307855Y-119420000D01*
X148732145Y-119420000D01*
X149976988Y-119420000D01*
X149944075Y-119477007D01*
X149910000Y-119604174D01*
X149910000Y-119735826D01*
X149944075Y-119862993D01*
X149976988Y-119920000D01*
X148732145Y-119920000D01*
X148744473Y-119997835D01*
X148744473Y-119997838D01*
X148812567Y-120207410D01*
X148912613Y-120403760D01*
X149042142Y-120582041D01*
X149197958Y-120737857D01*
X149376239Y-120867386D01*
X149572592Y-120967433D01*
X149572590Y-120967433D01*
X149730525Y-121018748D01*
X149788201Y-121058185D01*
X149815400Y-121122543D01*
X149803486Y-121191390D01*
X149756242Y-121242866D01*
X149739661Y-121251240D01*
X149623299Y-121299439D01*
X149623289Y-121299444D01*
X149455007Y-121411887D01*
X149455003Y-121411890D01*
X149311890Y-121555003D01*
X149311887Y-121555007D01*
X149199444Y-121723289D01*
X149199439Y-121723298D01*
X149121986Y-121910288D01*
X149121984Y-121910296D01*
X149082500Y-122108795D01*
X149082500Y-122311204D01*
X149121984Y-122509703D01*
X149121986Y-122509711D01*
X149199439Y-122696701D01*
X149199444Y-122696710D01*
X149311887Y-122864992D01*
X149311890Y-122864996D01*
X149455003Y-123008109D01*
X149455007Y-123008112D01*
X149623289Y-123120555D01*
X149623295Y-123120558D01*
X149623296Y-123120559D01*
X149810289Y-123198014D01*
X150008795Y-123237499D01*
X150008799Y-123237500D01*
X150008800Y-123237500D01*
X150811201Y-123237500D01*
X150811202Y-123237499D01*
X151009711Y-123198014D01*
X151196704Y-123120559D01*
X151364993Y-123008112D01*
X151508112Y-122864993D01*
X151620559Y-122696704D01*
X151698014Y-122509711D01*
X151737500Y-122311200D01*
X151737500Y-122108800D01*
X151698014Y-121910289D01*
X151620559Y-121723296D01*
X151620558Y-121723295D01*
X151620555Y-121723289D01*
X151508112Y-121555007D01*
X151508109Y-121555003D01*
X151364996Y-121411890D01*
X151364992Y-121411887D01*
X151196710Y-121299444D01*
X151196700Y-121299439D01*
X151080338Y-121251240D01*
X151025935Y-121207399D01*
X151003870Y-121141104D01*
X151021149Y-121073405D01*
X151072287Y-121025795D01*
X151089474Y-121018748D01*
X151247408Y-120967433D01*
X151443760Y-120867386D01*
X151595086Y-120757441D01*
X171042500Y-120757441D01*
X171042500Y-122482558D01*
X171049898Y-122519749D01*
X171078077Y-122561922D01*
X171120250Y-122590101D01*
X171120252Y-122590102D01*
X171148205Y-122595662D01*
X171157441Y-122597500D01*
X171157442Y-122597500D01*
X172882559Y-122597500D01*
X172889957Y-122596028D01*
X172919748Y-122590102D01*
X172961922Y-122561922D01*
X172990102Y-122519748D01*
X172997500Y-122482558D01*
X172997500Y-120757442D01*
X172990481Y-120722155D01*
X175670000Y-120722155D01*
X175670000Y-121370000D01*
X176586988Y-121370000D01*
X176554075Y-121427007D01*
X176520000Y-121554174D01*
X176520000Y-121685826D01*
X176554075Y-121812993D01*
X176586988Y-121870000D01*
X175670000Y-121870000D01*
X175670000Y-122517844D01*
X175676401Y-122577372D01*
X175676403Y-122577379D01*
X175726645Y-122712086D01*
X175726649Y-122712093D01*
X175812809Y-122827187D01*
X175812812Y-122827190D01*
X175927906Y-122913350D01*
X175927913Y-122913354D01*
X176062620Y-122963596D01*
X176062627Y-122963598D01*
X176122155Y-122969999D01*
X176122172Y-122970000D01*
X176770000Y-122970000D01*
X176770000Y-122053012D01*
X176827007Y-122085925D01*
X176954174Y-122120000D01*
X177085826Y-122120000D01*
X177212993Y-122085925D01*
X177270000Y-122053012D01*
X177270000Y-122970000D01*
X177917828Y-122970000D01*
X177917844Y-122969999D01*
X177977372Y-122963598D01*
X177977379Y-122963596D01*
X178112086Y-122913354D01*
X178112093Y-122913350D01*
X178227187Y-122827190D01*
X178227190Y-122827187D01*
X178313350Y-122712093D01*
X178313354Y-122712086D01*
X178363596Y-122577379D01*
X178363598Y-122577372D01*
X178369999Y-122517844D01*
X178370000Y-122517827D01*
X178370000Y-121870000D01*
X177453012Y-121870000D01*
X177485925Y-121812993D01*
X177520000Y-121685826D01*
X177520000Y-121554174D01*
X177485925Y-121427007D01*
X177453012Y-121370000D01*
X178370000Y-121370000D01*
X178370000Y-120757441D01*
X181042500Y-120757441D01*
X181042500Y-122482558D01*
X181049898Y-122519749D01*
X181078077Y-122561922D01*
X181120250Y-122590101D01*
X181120252Y-122590102D01*
X181148205Y-122595662D01*
X181157441Y-122597500D01*
X181157442Y-122597500D01*
X182882559Y-122597500D01*
X182889957Y-122596028D01*
X182919748Y-122590102D01*
X182961922Y-122561922D01*
X182990102Y-122519748D01*
X182997500Y-122482558D01*
X182997500Y-120757442D01*
X182990481Y-120722155D01*
X185670000Y-120722155D01*
X185670000Y-121370000D01*
X186586988Y-121370000D01*
X186554075Y-121427007D01*
X186520000Y-121554174D01*
X186520000Y-121685826D01*
X186554075Y-121812993D01*
X186586988Y-121870000D01*
X185670000Y-121870000D01*
X185670000Y-122517844D01*
X185676401Y-122577372D01*
X185676403Y-122577379D01*
X185726645Y-122712086D01*
X185726649Y-122712093D01*
X185812809Y-122827187D01*
X185812812Y-122827190D01*
X185927906Y-122913350D01*
X185927913Y-122913354D01*
X186062620Y-122963596D01*
X186062627Y-122963598D01*
X186122155Y-122969999D01*
X186122172Y-122970000D01*
X186770000Y-122970000D01*
X186770000Y-122053012D01*
X186827007Y-122085925D01*
X186954174Y-122120000D01*
X187085826Y-122120000D01*
X187212993Y-122085925D01*
X187270000Y-122053012D01*
X187270000Y-122970000D01*
X187917828Y-122970000D01*
X187917844Y-122969999D01*
X187977372Y-122963598D01*
X187977379Y-122963596D01*
X188112086Y-122913354D01*
X188112093Y-122913350D01*
X188227187Y-122827190D01*
X188227190Y-122827187D01*
X188313350Y-122712093D01*
X188313354Y-122712086D01*
X188363596Y-122577379D01*
X188363598Y-122577372D01*
X188369999Y-122517844D01*
X188370000Y-122517827D01*
X188370000Y-121870000D01*
X187453012Y-121870000D01*
X187485925Y-121812993D01*
X187520000Y-121685826D01*
X187520000Y-121554174D01*
X187485925Y-121427007D01*
X187453012Y-121370000D01*
X188370000Y-121370000D01*
X188370000Y-120722172D01*
X188369999Y-120722155D01*
X188363598Y-120662627D01*
X188363596Y-120662620D01*
X188313354Y-120527913D01*
X188313350Y-120527906D01*
X188227190Y-120412812D01*
X188227187Y-120412809D01*
X188112093Y-120326649D01*
X188112086Y-120326645D01*
X187977379Y-120276403D01*
X187977372Y-120276401D01*
X187917844Y-120270000D01*
X187270000Y-120270000D01*
X187270000Y-121186988D01*
X187212993Y-121154075D01*
X187085826Y-121120000D01*
X186954174Y-121120000D01*
X186827007Y-121154075D01*
X186770000Y-121186988D01*
X186770000Y-120270000D01*
X186122155Y-120270000D01*
X186062627Y-120276401D01*
X186062620Y-120276403D01*
X185927913Y-120326645D01*
X185927906Y-120326649D01*
X185812812Y-120412809D01*
X185812809Y-120412812D01*
X185726649Y-120527906D01*
X185726645Y-120527913D01*
X185676403Y-120662620D01*
X185676401Y-120662627D01*
X185670000Y-120722155D01*
X182990481Y-120722155D01*
X182990102Y-120720252D01*
X182990101Y-120720250D01*
X182961922Y-120678077D01*
X182919749Y-120649898D01*
X182882559Y-120642500D01*
X182882558Y-120642500D01*
X181157442Y-120642500D01*
X181157441Y-120642500D01*
X181120250Y-120649898D01*
X181078077Y-120678077D01*
X181049898Y-120720250D01*
X181042500Y-120757441D01*
X178370000Y-120757441D01*
X178370000Y-120722172D01*
X178369999Y-120722155D01*
X178363598Y-120662627D01*
X178363596Y-120662620D01*
X178313354Y-120527913D01*
X178313350Y-120527906D01*
X178227190Y-120412812D01*
X178227187Y-120412809D01*
X178112093Y-120326649D01*
X178112086Y-120326645D01*
X177977379Y-120276403D01*
X177977372Y-120276401D01*
X177917844Y-120270000D01*
X177270000Y-120270000D01*
X177270000Y-121186988D01*
X177212993Y-121154075D01*
X177085826Y-121120000D01*
X176954174Y-121120000D01*
X176827007Y-121154075D01*
X176770000Y-121186988D01*
X176770000Y-120270000D01*
X176122155Y-120270000D01*
X176062627Y-120276401D01*
X176062620Y-120276403D01*
X175927913Y-120326645D01*
X175927906Y-120326649D01*
X175812812Y-120412809D01*
X175812809Y-120412812D01*
X175726649Y-120527906D01*
X175726645Y-120527913D01*
X175676403Y-120662620D01*
X175676401Y-120662627D01*
X175670000Y-120722155D01*
X172990481Y-120722155D01*
X172990102Y-120720252D01*
X172990101Y-120720250D01*
X172961922Y-120678077D01*
X172919749Y-120649898D01*
X172882559Y-120642500D01*
X172882558Y-120642500D01*
X171157442Y-120642500D01*
X171157441Y-120642500D01*
X171120250Y-120649898D01*
X171078077Y-120678077D01*
X171049898Y-120720250D01*
X171042500Y-120757441D01*
X151595086Y-120757441D01*
X151622041Y-120737857D01*
X151696230Y-120663669D01*
X151777857Y-120582041D01*
X151907386Y-120403760D01*
X152007432Y-120207410D01*
X152075526Y-119997838D01*
X152075526Y-119997835D01*
X152087855Y-119920000D01*
X150843012Y-119920000D01*
X150875925Y-119862993D01*
X150910000Y-119735826D01*
X150910000Y-119604174D01*
X150875925Y-119477007D01*
X150843012Y-119420000D01*
X152087855Y-119420000D01*
X152075526Y-119342164D01*
X152075526Y-119342161D01*
X152007432Y-119132589D01*
X151907386Y-118936239D01*
X151777857Y-118757958D01*
X151622041Y-118602142D01*
X151443760Y-118472613D01*
X151247410Y-118372567D01*
X151089473Y-118321251D01*
X151031798Y-118281814D01*
X151004599Y-118217455D01*
X151016513Y-118148609D01*
X151063757Y-118097133D01*
X151080339Y-118088759D01*
X151196697Y-118040562D01*
X151196697Y-118040561D01*
X151196704Y-118040559D01*
X151364993Y-117928112D01*
X151508112Y-117784993D01*
X151620559Y-117616704D01*
X151698014Y-117429711D01*
X151737500Y-117231200D01*
X151737500Y-117028800D01*
X151698014Y-116830289D01*
X151647129Y-116707441D01*
X155992500Y-116707441D01*
X155992500Y-118532558D01*
X155999898Y-118569749D01*
X156028077Y-118611922D01*
X156070250Y-118640101D01*
X156070252Y-118640102D01*
X156098205Y-118645662D01*
X156107441Y-118647500D01*
X156107442Y-118647500D01*
X157932559Y-118647500D01*
X157939957Y-118646028D01*
X157969748Y-118640102D01*
X158011922Y-118611922D01*
X158040102Y-118569748D01*
X158047500Y-118532558D01*
X158047500Y-117971500D01*
X158067185Y-117904461D01*
X158119989Y-117858706D01*
X158171500Y-117847500D01*
X158266952Y-117847500D01*
X158266953Y-117847500D01*
X158350568Y-117812865D01*
X158353479Y-117809954D01*
X158414801Y-117776466D01*
X158484493Y-117781447D01*
X158540428Y-117823316D01*
X158562781Y-117873438D01*
X158571984Y-117919706D01*
X158571986Y-117919711D01*
X158649439Y-118106701D01*
X158649444Y-118106710D01*
X158761887Y-118274992D01*
X158761890Y-118274996D01*
X158905003Y-118418109D01*
X158905007Y-118418112D01*
X159073289Y-118530555D01*
X159073295Y-118530558D01*
X159073296Y-118530559D01*
X159260289Y-118608014D01*
X159458795Y-118647499D01*
X159458799Y-118647500D01*
X159458800Y-118647500D01*
X159661201Y-118647500D01*
X159661202Y-118647499D01*
X159859711Y-118608014D01*
X160046704Y-118530559D01*
X160214993Y-118418112D01*
X160358112Y-118274993D01*
X160470559Y-118106704D01*
X160548014Y-117919711D01*
X160587500Y-117721200D01*
X160587500Y-117518800D01*
X160548014Y-117320289D01*
X160470559Y-117133296D01*
X160470558Y-117133295D01*
X160470555Y-117133289D01*
X160358112Y-116965007D01*
X160358109Y-116965003D01*
X160250587Y-116857481D01*
X160217102Y-116796158D01*
X160222086Y-116726466D01*
X160263958Y-116670533D01*
X160329422Y-116646116D01*
X160338268Y-116645800D01*
X166672705Y-116645800D01*
X166739744Y-116665485D01*
X166760386Y-116682119D01*
X167157301Y-117079034D01*
X167190786Y-117140357D01*
X167185802Y-117210049D01*
X167184181Y-117214167D01*
X167128144Y-117349453D01*
X167128141Y-117349465D01*
X167092500Y-117528644D01*
X167092500Y-117711355D01*
X167128141Y-117890534D01*
X167128143Y-117890542D01*
X167198058Y-118059333D01*
X167198063Y-118059342D01*
X167299563Y-118211246D01*
X167299566Y-118211250D01*
X167428749Y-118340433D01*
X167428753Y-118340436D01*
X167580657Y-118441936D01*
X167580663Y-118441939D01*
X167580664Y-118441940D01*
X167749458Y-118511857D01*
X167928644Y-118547499D01*
X167928648Y-118547500D01*
X167928649Y-118547500D01*
X168111352Y-118547500D01*
X168111353Y-118547499D01*
X168138586Y-118542082D01*
X168196326Y-118530598D01*
X168236166Y-118522672D01*
X168290542Y-118511857D01*
X168459336Y-118441940D01*
X168611247Y-118340436D01*
X168740436Y-118211247D01*
X168841940Y-118059336D01*
X168911857Y-117890542D01*
X168947500Y-117711351D01*
X168947500Y-117528649D01*
X168947500Y-117528646D01*
X168945319Y-117517682D01*
X176880000Y-117517682D01*
X176880000Y-117722317D01*
X176912009Y-117924417D01*
X176975244Y-118119031D01*
X177068141Y-118301350D01*
X177068147Y-118301359D01*
X177100523Y-118345921D01*
X177100524Y-118345922D01*
X177780000Y-117666446D01*
X177780000Y-117672661D01*
X177807259Y-117774394D01*
X177859920Y-117865606D01*
X177934394Y-117940080D01*
X178025606Y-117992741D01*
X178127339Y-118020000D01*
X178133553Y-118020000D01*
X177454076Y-118699474D01*
X177498650Y-118731859D01*
X177680968Y-118824755D01*
X177875582Y-118887990D01*
X178077683Y-118920000D01*
X178282317Y-118920000D01*
X178484417Y-118887990D01*
X178679031Y-118824755D01*
X178861349Y-118731859D01*
X178905921Y-118699474D01*
X178226447Y-118020000D01*
X178232661Y-118020000D01*
X178334394Y-117992741D01*
X178425606Y-117940080D01*
X178500080Y-117865606D01*
X178552741Y-117774394D01*
X178580000Y-117672661D01*
X178580000Y-117666447D01*
X179259474Y-118345921D01*
X179291859Y-118301349D01*
X179384755Y-118119031D01*
X179447990Y-117924417D01*
X179480000Y-117722317D01*
X179480000Y-117517682D01*
X179447990Y-117315582D01*
X179384755Y-117120968D01*
X179291859Y-116938650D01*
X179259474Y-116894077D01*
X179259474Y-116894076D01*
X178580000Y-117573551D01*
X178580000Y-117567339D01*
X178552741Y-117465606D01*
X178500080Y-117374394D01*
X178425606Y-117299920D01*
X178334394Y-117247259D01*
X178232661Y-117220000D01*
X178226446Y-117220000D01*
X178905922Y-116540524D01*
X178905921Y-116540523D01*
X178861359Y-116508147D01*
X178861350Y-116508141D01*
X178679031Y-116415244D01*
X178484417Y-116352009D01*
X178282317Y-116320000D01*
X178077683Y-116320000D01*
X177875582Y-116352009D01*
X177680968Y-116415244D01*
X177498644Y-116508143D01*
X177454077Y-116540523D01*
X177454077Y-116540524D01*
X178133554Y-117220000D01*
X178127339Y-117220000D01*
X178025606Y-117247259D01*
X177934394Y-117299920D01*
X177859920Y-117374394D01*
X177807259Y-117465606D01*
X177780000Y-117567339D01*
X177780000Y-117573553D01*
X177100524Y-116894077D01*
X177100523Y-116894077D01*
X177068143Y-116938644D01*
X176975244Y-117120968D01*
X176912009Y-117315582D01*
X176880000Y-117517682D01*
X168945319Y-117517682D01*
X168911858Y-117349465D01*
X168911857Y-117349458D01*
X168841940Y-117180664D01*
X168841939Y-117180663D01*
X168841936Y-117180657D01*
X168740436Y-117028753D01*
X168740433Y-117028749D01*
X168611250Y-116899566D01*
X168611246Y-116899563D01*
X168459342Y-116798063D01*
X168459333Y-116798058D01*
X168290542Y-116728143D01*
X168290534Y-116728141D01*
X168196316Y-116709400D01*
X168111355Y-116692500D01*
X168111351Y-116692500D01*
X167928649Y-116692500D01*
X167928644Y-116692500D01*
X167749465Y-116728141D01*
X167749453Y-116728144D01*
X167614168Y-116784181D01*
X167544699Y-116791650D01*
X167482220Y-116760375D01*
X167479035Y-116757301D01*
X166947170Y-116225436D01*
X166947165Y-116225434D01*
X166863553Y-116190800D01*
X159093053Y-116190800D01*
X159002547Y-116190800D01*
X159002545Y-116190800D01*
X159002543Y-116190801D01*
X158918934Y-116225431D01*
X158918932Y-116225433D01*
X158259181Y-116885185D01*
X158197858Y-116918670D01*
X158128166Y-116913686D01*
X158072233Y-116871814D01*
X158047816Y-116806350D01*
X158047500Y-116797504D01*
X158047500Y-116707441D01*
X158044528Y-116692500D01*
X158040102Y-116670252D01*
X158023764Y-116645800D01*
X158011922Y-116628077D01*
X157969749Y-116599898D01*
X157932559Y-116592500D01*
X157932558Y-116592500D01*
X156107442Y-116592500D01*
X156107441Y-116592500D01*
X156070250Y-116599898D01*
X156028077Y-116628077D01*
X155999898Y-116670250D01*
X155992500Y-116707441D01*
X151647129Y-116707441D01*
X151629750Y-116665485D01*
X151620562Y-116643302D01*
X151620555Y-116643289D01*
X151508112Y-116475007D01*
X151508109Y-116475003D01*
X151364996Y-116331890D01*
X151364992Y-116331887D01*
X151196710Y-116219444D01*
X151196701Y-116219439D01*
X151009711Y-116141986D01*
X151009703Y-116141984D01*
X150811204Y-116102500D01*
X150811200Y-116102500D01*
X150008800Y-116102500D01*
X150008795Y-116102500D01*
X149810296Y-116141984D01*
X149810288Y-116141986D01*
X149623298Y-116219439D01*
X149623289Y-116219444D01*
X149455007Y-116331887D01*
X149455003Y-116331890D01*
X149311890Y-116475003D01*
X149311887Y-116475007D01*
X149199444Y-116643289D01*
X149199439Y-116643298D01*
X149121986Y-116830288D01*
X149121984Y-116830296D01*
X149082500Y-117028795D01*
X149082500Y-117231204D01*
X149121984Y-117429703D01*
X149121986Y-117429711D01*
X149199439Y-117616701D01*
X149199444Y-117616710D01*
X149311887Y-117784992D01*
X149311890Y-117784996D01*
X149455003Y-117928109D01*
X149455007Y-117928112D01*
X149623289Y-118040555D01*
X149623298Y-118040560D01*
X149739661Y-118088759D01*
X149794064Y-118132600D01*
X149816129Y-118198894D01*
X149798850Y-118266593D01*
X149747713Y-118314204D01*
X149730526Y-118321251D01*
X149572589Y-118372567D01*
X149376239Y-118472613D01*
X149197958Y-118602142D01*
X149042142Y-118757958D01*
X148912613Y-118936239D01*
X148812567Y-119132589D01*
X148744473Y-119342161D01*
X148744473Y-119342164D01*
X148732145Y-119420000D01*
X134307855Y-119420000D01*
X134295526Y-119342164D01*
X134295526Y-119342161D01*
X134227432Y-119132589D01*
X134127386Y-118936239D01*
X133997857Y-118757958D01*
X133842041Y-118602142D01*
X133663760Y-118472613D01*
X133467410Y-118372567D01*
X133309473Y-118321251D01*
X133251798Y-118281814D01*
X133224599Y-118217455D01*
X133236513Y-118148609D01*
X133283757Y-118097133D01*
X133300339Y-118088759D01*
X133416697Y-118040562D01*
X133416697Y-118040561D01*
X133416704Y-118040559D01*
X133584993Y-117928112D01*
X133728112Y-117784993D01*
X133840559Y-117616704D01*
X133918014Y-117429711D01*
X133957500Y-117231200D01*
X133957500Y-117028800D01*
X133918014Y-116830289D01*
X133841596Y-116645800D01*
X133840560Y-116643298D01*
X133840555Y-116643289D01*
X133728112Y-116475007D01*
X133728109Y-116475003D01*
X133584996Y-116331890D01*
X133584992Y-116331887D01*
X133416710Y-116219444D01*
X133416701Y-116219439D01*
X133229711Y-116141986D01*
X133229703Y-116141984D01*
X133031204Y-116102500D01*
X133031200Y-116102500D01*
X132228800Y-116102500D01*
X132228795Y-116102500D01*
X132030296Y-116141984D01*
X132030288Y-116141986D01*
X131843298Y-116219439D01*
X131843289Y-116219444D01*
X131675007Y-116331887D01*
X131675003Y-116331890D01*
X131531890Y-116475003D01*
X131531887Y-116475007D01*
X131419444Y-116643289D01*
X131419439Y-116643298D01*
X131341986Y-116830288D01*
X131341984Y-116830296D01*
X131302500Y-117028795D01*
X131302500Y-117231204D01*
X131341984Y-117429703D01*
X131341986Y-117429711D01*
X131419439Y-117616701D01*
X131419444Y-117616710D01*
X131531887Y-117784992D01*
X131531890Y-117784996D01*
X131675003Y-117928109D01*
X131675007Y-117928112D01*
X131843289Y-118040555D01*
X131843298Y-118040560D01*
X131959661Y-118088759D01*
X132014064Y-118132600D01*
X132036129Y-118198894D01*
X132018850Y-118266593D01*
X131967713Y-118314204D01*
X131950526Y-118321251D01*
X131792589Y-118372567D01*
X131596239Y-118472613D01*
X131417958Y-118602142D01*
X131262142Y-118757958D01*
X131132613Y-118936239D01*
X131032567Y-119132589D01*
X130964473Y-119342161D01*
X130964473Y-119342164D01*
X130952145Y-119420000D01*
X132196988Y-119420000D01*
X132164075Y-119477007D01*
X132130000Y-119604174D01*
X132130000Y-119735826D01*
X132164075Y-119862993D01*
X132196988Y-119920000D01*
X130952145Y-119920000D01*
X130964473Y-119997835D01*
X130964473Y-119997838D01*
X131032567Y-120207410D01*
X131132613Y-120403760D01*
X131262142Y-120582041D01*
X131417958Y-120737857D01*
X131596239Y-120867386D01*
X131792592Y-120967433D01*
X131792590Y-120967433D01*
X131950525Y-121018748D01*
X132008201Y-121058185D01*
X132035400Y-121122543D01*
X132023486Y-121191390D01*
X131976242Y-121242866D01*
X131959661Y-121251240D01*
X131843299Y-121299439D01*
X131843289Y-121299444D01*
X131675007Y-121411887D01*
X131675003Y-121411890D01*
X131531890Y-121555003D01*
X131531887Y-121555007D01*
X131419444Y-121723289D01*
X131419439Y-121723298D01*
X131341986Y-121910288D01*
X131341984Y-121910296D01*
X131302500Y-122108795D01*
X131302500Y-122311204D01*
X131341984Y-122509703D01*
X131341986Y-122509711D01*
X131419439Y-122696701D01*
X131419444Y-122696710D01*
X131531887Y-122864992D01*
X131531890Y-122864996D01*
X131675003Y-123008109D01*
X131675007Y-123008112D01*
X131843289Y-123120555D01*
X131843295Y-123120558D01*
X131843296Y-123120559D01*
X132030289Y-123198014D01*
X132228795Y-123237499D01*
X132228799Y-123237500D01*
X132228800Y-123237500D01*
X133031201Y-123237500D01*
X133031202Y-123237499D01*
X133095166Y-123224776D01*
X133193430Y-123205231D01*
X133263021Y-123211458D01*
X133305302Y-123239167D01*
X138736181Y-128670046D01*
X138769666Y-128731369D01*
X138772500Y-128757727D01*
X138772500Y-130285828D01*
X138783190Y-130359204D01*
X138783191Y-130359207D01*
X138823197Y-130441040D01*
X138834957Y-130509913D01*
X138807613Y-130574210D01*
X138749849Y-130613517D01*
X138711797Y-130619500D01*
X130644500Y-130619500D01*
X130577461Y-130599815D01*
X130531706Y-130547011D01*
X130520500Y-130495500D01*
X130520500Y-124648795D01*
X131302500Y-124648795D01*
X131302500Y-124851204D01*
X131341984Y-125049703D01*
X131341986Y-125049711D01*
X131419439Y-125236701D01*
X131419444Y-125236710D01*
X131531887Y-125404992D01*
X131531890Y-125404996D01*
X131675003Y-125548109D01*
X131675007Y-125548112D01*
X131843289Y-125660555D01*
X131843295Y-125660558D01*
X131843296Y-125660559D01*
X132030289Y-125738014D01*
X132228795Y-125777499D01*
X132228799Y-125777500D01*
X132228800Y-125777500D01*
X133031201Y-125777500D01*
X133031202Y-125777499D01*
X133229711Y-125738014D01*
X133416704Y-125660559D01*
X133584993Y-125548112D01*
X133728112Y-125404993D01*
X133840559Y-125236704D01*
X133918014Y-125049711D01*
X133957500Y-124851200D01*
X133957500Y-124648800D01*
X133918014Y-124450289D01*
X133840559Y-124263296D01*
X133840558Y-124263295D01*
X133840555Y-124263289D01*
X133728112Y-124095007D01*
X133728109Y-124095003D01*
X133584996Y-123951890D01*
X133584992Y-123951887D01*
X133416710Y-123839444D01*
X133416701Y-123839439D01*
X133229711Y-123761986D01*
X133229703Y-123761984D01*
X133031204Y-123722500D01*
X133031200Y-123722500D01*
X132228800Y-123722500D01*
X132228795Y-123722500D01*
X132030296Y-123761984D01*
X132030288Y-123761986D01*
X131843298Y-123839439D01*
X131843289Y-123839444D01*
X131675007Y-123951887D01*
X131675003Y-123951890D01*
X131531890Y-124095003D01*
X131531887Y-124095007D01*
X131419444Y-124263289D01*
X131419439Y-124263298D01*
X131341986Y-124450288D01*
X131341984Y-124450296D01*
X131302500Y-124648795D01*
X130520500Y-124648795D01*
X130520500Y-106720000D01*
X130952145Y-106720000D01*
X132196988Y-106720000D01*
X132164075Y-106777007D01*
X132130000Y-106904174D01*
X132130000Y-107035826D01*
X132164075Y-107162993D01*
X132196988Y-107220000D01*
X130952145Y-107220000D01*
X130964473Y-107297835D01*
X130964473Y-107297838D01*
X131032567Y-107507410D01*
X131132613Y-107703760D01*
X131262142Y-107882041D01*
X131417958Y-108037857D01*
X131596239Y-108167386D01*
X131792592Y-108267433D01*
X131792590Y-108267433D01*
X131950525Y-108318748D01*
X132008201Y-108358185D01*
X132035400Y-108422543D01*
X132023486Y-108491390D01*
X131976242Y-108542866D01*
X131959661Y-108551240D01*
X131843299Y-108599439D01*
X131843289Y-108599444D01*
X131675007Y-108711887D01*
X131675003Y-108711890D01*
X131531890Y-108855003D01*
X131531887Y-108855007D01*
X131419444Y-109023289D01*
X131419439Y-109023298D01*
X131341986Y-109210288D01*
X131341984Y-109210296D01*
X131302500Y-109408795D01*
X131302500Y-109611204D01*
X131341984Y-109809703D01*
X131341986Y-109809711D01*
X131419439Y-109996701D01*
X131419444Y-109996710D01*
X131531887Y-110164992D01*
X131531890Y-110164996D01*
X131675003Y-110308109D01*
X131675007Y-110308112D01*
X131843289Y-110420555D01*
X131843295Y-110420558D01*
X131843296Y-110420559D01*
X132030289Y-110498014D01*
X132228795Y-110537499D01*
X132228799Y-110537500D01*
X132228800Y-110537500D01*
X133031201Y-110537500D01*
X133031202Y-110537499D01*
X133229711Y-110498014D01*
X133416704Y-110420559D01*
X133584993Y-110308112D01*
X133728112Y-110164993D01*
X133840559Y-109996704D01*
X133918014Y-109809711D01*
X133957500Y-109611200D01*
X133957500Y-109408800D01*
X133918014Y-109210289D01*
X133840559Y-109023296D01*
X133840558Y-109023295D01*
X133840555Y-109023289D01*
X133728112Y-108855007D01*
X133728109Y-108855003D01*
X133584996Y-108711890D01*
X133584992Y-108711887D01*
X133416710Y-108599444D01*
X133416700Y-108599439D01*
X133300338Y-108551240D01*
X133245935Y-108507399D01*
X133223870Y-108441104D01*
X133241149Y-108373405D01*
X133292287Y-108325795D01*
X133309474Y-108318748D01*
X133467408Y-108267433D01*
X133663760Y-108167386D01*
X133842041Y-108037857D01*
X133997857Y-107882041D01*
X134127386Y-107703760D01*
X134227432Y-107507410D01*
X134295526Y-107297838D01*
X134295526Y-107297835D01*
X134307855Y-107220000D01*
X133063012Y-107220000D01*
X133095925Y-107162993D01*
X133130000Y-107035826D01*
X133130000Y-106904174D01*
X133095925Y-106777007D01*
X133063012Y-106720000D01*
X134307855Y-106720000D01*
X134295526Y-106642164D01*
X134295526Y-106642161D01*
X134227432Y-106432589D01*
X134127386Y-106236239D01*
X133997857Y-106057958D01*
X133842041Y-105902142D01*
X133663760Y-105772613D01*
X133467410Y-105672567D01*
X133309473Y-105621251D01*
X133251798Y-105581814D01*
X133224599Y-105517455D01*
X133236513Y-105448609D01*
X133283757Y-105397133D01*
X133300339Y-105388759D01*
X133416697Y-105340562D01*
X133416697Y-105340561D01*
X133416704Y-105340559D01*
X133584993Y-105228112D01*
X133728112Y-105084993D01*
X133840559Y-104916704D01*
X133918014Y-104729711D01*
X133957500Y-104531200D01*
X133957500Y-104328800D01*
X133918014Y-104130289D01*
X133840559Y-103943296D01*
X133840558Y-103943295D01*
X133840555Y-103943289D01*
X133728112Y-103775007D01*
X133728109Y-103775003D01*
X133584996Y-103631890D01*
X133584992Y-103631887D01*
X133416710Y-103519444D01*
X133416701Y-103519439D01*
X133229711Y-103441986D01*
X133229703Y-103441984D01*
X133031204Y-103402500D01*
X133031200Y-103402500D01*
X132228800Y-103402500D01*
X132228795Y-103402500D01*
X132030296Y-103441984D01*
X132030288Y-103441986D01*
X131843298Y-103519439D01*
X131843289Y-103519444D01*
X131675007Y-103631887D01*
X131675003Y-103631890D01*
X131531890Y-103775003D01*
X131531887Y-103775007D01*
X131419444Y-103943289D01*
X131419439Y-103943298D01*
X131341986Y-104130288D01*
X131341984Y-104130296D01*
X131302500Y-104328795D01*
X131302500Y-104531204D01*
X131341984Y-104729703D01*
X131341986Y-104729711D01*
X131419439Y-104916701D01*
X131419444Y-104916710D01*
X131531887Y-105084992D01*
X131531890Y-105084996D01*
X131675003Y-105228109D01*
X131675007Y-105228112D01*
X131843289Y-105340555D01*
X131843298Y-105340560D01*
X131959661Y-105388759D01*
X132014064Y-105432600D01*
X132036129Y-105498894D01*
X132018850Y-105566593D01*
X131967713Y-105614204D01*
X131950526Y-105621251D01*
X131792589Y-105672567D01*
X131596239Y-105772613D01*
X131417958Y-105902142D01*
X131262142Y-106057958D01*
X131132613Y-106236239D01*
X131032567Y-106432589D01*
X130964473Y-106642161D01*
X130964473Y-106642164D01*
X130952145Y-106720000D01*
X130520500Y-106720000D01*
X130520500Y-101788795D01*
X131302500Y-101788795D01*
X131302500Y-101991204D01*
X131341984Y-102189703D01*
X131341986Y-102189711D01*
X131419439Y-102376701D01*
X131419444Y-102376710D01*
X131531887Y-102544992D01*
X131531890Y-102544996D01*
X131675003Y-102688109D01*
X131675007Y-102688112D01*
X131843289Y-102800555D01*
X131843295Y-102800558D01*
X131843296Y-102800559D01*
X132030289Y-102878014D01*
X132169075Y-102905620D01*
X132228795Y-102917499D01*
X132228799Y-102917500D01*
X132228800Y-102917500D01*
X133031201Y-102917500D01*
X133031202Y-102917499D01*
X133229711Y-102878014D01*
X133416704Y-102800559D01*
X133584993Y-102688112D01*
X133728112Y-102544993D01*
X133840559Y-102376704D01*
X133918014Y-102189711D01*
X133957500Y-101991200D01*
X133957500Y-101788800D01*
X133918014Y-101590289D01*
X133840559Y-101403296D01*
X133840558Y-101403295D01*
X133840555Y-101403289D01*
X133728112Y-101235007D01*
X133728109Y-101235003D01*
X133584996Y-101091890D01*
X133584992Y-101091887D01*
X133416710Y-100979444D01*
X133416701Y-100979439D01*
X133229711Y-100901986D01*
X133229703Y-100901984D01*
X133031204Y-100862500D01*
X133031200Y-100862500D01*
X132228800Y-100862500D01*
X132228795Y-100862500D01*
X132030296Y-100901984D01*
X132030288Y-100901986D01*
X131843298Y-100979439D01*
X131843289Y-100979444D01*
X131675007Y-101091887D01*
X131675003Y-101091890D01*
X131531890Y-101235003D01*
X131531887Y-101235007D01*
X131419444Y-101403289D01*
X131419439Y-101403298D01*
X131341986Y-101590288D01*
X131341984Y-101590296D01*
X131302500Y-101788795D01*
X130520500Y-101788795D01*
X130520500Y-99248795D01*
X131302500Y-99248795D01*
X131302500Y-99451204D01*
X131341984Y-99649703D01*
X131341986Y-99649711D01*
X131419439Y-99836701D01*
X131419444Y-99836710D01*
X131531887Y-100004992D01*
X131531890Y-100004996D01*
X131675003Y-100148109D01*
X131675007Y-100148112D01*
X131843289Y-100260555D01*
X131843295Y-100260558D01*
X131843296Y-100260559D01*
X132030289Y-100338014D01*
X132228795Y-100377499D01*
X132228799Y-100377500D01*
X132228800Y-100377500D01*
X133031201Y-100377500D01*
X133031202Y-100377499D01*
X133229711Y-100338014D01*
X133416704Y-100260559D01*
X133584993Y-100148112D01*
X133728112Y-100004993D01*
X133840559Y-99836704D01*
X133918014Y-99649711D01*
X133957500Y-99451200D01*
X133957500Y-99248800D01*
X133918014Y-99050289D01*
X133840559Y-98863296D01*
X133840558Y-98863295D01*
X133840555Y-98863289D01*
X133728112Y-98695007D01*
X133728109Y-98695003D01*
X133584996Y-98551890D01*
X133584992Y-98551887D01*
X133416710Y-98439444D01*
X133416701Y-98439439D01*
X133229711Y-98361986D01*
X133229703Y-98361984D01*
X133031204Y-98322500D01*
X133031200Y-98322500D01*
X132228800Y-98322500D01*
X132228795Y-98322500D01*
X132030296Y-98361984D01*
X132030288Y-98361986D01*
X131843298Y-98439439D01*
X131843289Y-98439444D01*
X131675007Y-98551887D01*
X131675003Y-98551890D01*
X131531890Y-98695003D01*
X131531887Y-98695007D01*
X131419444Y-98863289D01*
X131419439Y-98863298D01*
X131341986Y-99050288D01*
X131341984Y-99050296D01*
X131302500Y-99248795D01*
X130520500Y-99248795D01*
X130520500Y-94020000D01*
X130952145Y-94020000D01*
X132196988Y-94020000D01*
X132164075Y-94077007D01*
X132130000Y-94204174D01*
X132130000Y-94335826D01*
X132164075Y-94462993D01*
X132196988Y-94520000D01*
X130952145Y-94520000D01*
X130964473Y-94597835D01*
X130964473Y-94597838D01*
X131032567Y-94807410D01*
X131132613Y-95003760D01*
X131262142Y-95182041D01*
X131417958Y-95337857D01*
X131596239Y-95467386D01*
X131792592Y-95567433D01*
X131792590Y-95567433D01*
X131950525Y-95618748D01*
X132008201Y-95658185D01*
X132035400Y-95722543D01*
X132023486Y-95791390D01*
X131976242Y-95842866D01*
X131959661Y-95851240D01*
X131843299Y-95899439D01*
X131843289Y-95899444D01*
X131675007Y-96011887D01*
X131675003Y-96011890D01*
X131531890Y-96155003D01*
X131531887Y-96155007D01*
X131419444Y-96323289D01*
X131419439Y-96323298D01*
X131341986Y-96510288D01*
X131341984Y-96510296D01*
X131302500Y-96708795D01*
X131302500Y-96911204D01*
X131341984Y-97109703D01*
X131341986Y-97109711D01*
X131419439Y-97296701D01*
X131419444Y-97296710D01*
X131531887Y-97464992D01*
X131531890Y-97464996D01*
X131675003Y-97608109D01*
X131675007Y-97608112D01*
X131843289Y-97720555D01*
X131843298Y-97720560D01*
X131885658Y-97738106D01*
X132030289Y-97798014D01*
X132228795Y-97837499D01*
X132228799Y-97837500D01*
X132228800Y-97837500D01*
X133031201Y-97837500D01*
X133031202Y-97837499D01*
X133229711Y-97798014D01*
X133416704Y-97720559D01*
X133584993Y-97608112D01*
X133728112Y-97464993D01*
X133840559Y-97296704D01*
X133918014Y-97109711D01*
X133957500Y-96911200D01*
X133957500Y-96708800D01*
X133918014Y-96510289D01*
X133840559Y-96323296D01*
X133840558Y-96323295D01*
X133840555Y-96323289D01*
X133728112Y-96155007D01*
X133728109Y-96155003D01*
X133584996Y-96011890D01*
X133584992Y-96011887D01*
X133416710Y-95899444D01*
X133416700Y-95899439D01*
X133300338Y-95851240D01*
X133245935Y-95807399D01*
X133223870Y-95741104D01*
X133241149Y-95673405D01*
X133292287Y-95625795D01*
X133309474Y-95618748D01*
X133467408Y-95567433D01*
X133663760Y-95467386D01*
X133842041Y-95337857D01*
X133997857Y-95182041D01*
X134127386Y-95003760D01*
X134227432Y-94807410D01*
X134295526Y-94597838D01*
X134295526Y-94597835D01*
X134307855Y-94520000D01*
X133063012Y-94520000D01*
X133095925Y-94462993D01*
X133130000Y-94335826D01*
X133130000Y-94204174D01*
X133095925Y-94077007D01*
X133063012Y-94020000D01*
X134307855Y-94020000D01*
X134295526Y-93942164D01*
X134295526Y-93942161D01*
X134227432Y-93732589D01*
X134127386Y-93536239D01*
X133997857Y-93357958D01*
X133842041Y-93202142D01*
X133663760Y-93072613D01*
X133467410Y-92972567D01*
X133309473Y-92921251D01*
X133251798Y-92881814D01*
X133224599Y-92817455D01*
X133236513Y-92748609D01*
X133283757Y-92697133D01*
X133300339Y-92688759D01*
X133416697Y-92640562D01*
X133416697Y-92640561D01*
X133416704Y-92640559D01*
X133584993Y-92528112D01*
X133728112Y-92384993D01*
X133840559Y-92216704D01*
X133918014Y-92029711D01*
X133957500Y-91831200D01*
X133957500Y-91628800D01*
X133918014Y-91430289D01*
X133840559Y-91243296D01*
X133840558Y-91243295D01*
X133840555Y-91243289D01*
X133728112Y-91075007D01*
X133728109Y-91075003D01*
X133584996Y-90931890D01*
X133584992Y-90931887D01*
X133416710Y-90819444D01*
X133416701Y-90819439D01*
X133229711Y-90741986D01*
X133229703Y-90741984D01*
X133031204Y-90702500D01*
X133031200Y-90702500D01*
X132228800Y-90702500D01*
X132228795Y-90702500D01*
X132030296Y-90741984D01*
X132030288Y-90741986D01*
X131843298Y-90819439D01*
X131843289Y-90819444D01*
X131675007Y-90931887D01*
X131675003Y-90931890D01*
X131531890Y-91075003D01*
X131531887Y-91075007D01*
X131419444Y-91243289D01*
X131419439Y-91243298D01*
X131341986Y-91430288D01*
X131341984Y-91430296D01*
X131302500Y-91628795D01*
X131302500Y-91831204D01*
X131341984Y-92029703D01*
X131341986Y-92029711D01*
X131419439Y-92216701D01*
X131419444Y-92216710D01*
X131531887Y-92384992D01*
X131531890Y-92384996D01*
X131675003Y-92528109D01*
X131675007Y-92528112D01*
X131843289Y-92640555D01*
X131843298Y-92640560D01*
X131959661Y-92688759D01*
X132014064Y-92732600D01*
X132036129Y-92798894D01*
X132018850Y-92866593D01*
X131967713Y-92914204D01*
X131950526Y-92921251D01*
X131792589Y-92972567D01*
X131596239Y-93072613D01*
X131417958Y-93202142D01*
X131262142Y-93357958D01*
X131132613Y-93536239D01*
X131032567Y-93732589D01*
X130964473Y-93942161D01*
X130964473Y-93942164D01*
X130952145Y-94020000D01*
X130520500Y-94020000D01*
X130520500Y-86548795D01*
X131302500Y-86548795D01*
X131302500Y-86751204D01*
X131341984Y-86949703D01*
X131341986Y-86949711D01*
X131419439Y-87136701D01*
X131419444Y-87136710D01*
X131531887Y-87304992D01*
X131531890Y-87304996D01*
X131675003Y-87448109D01*
X131675007Y-87448112D01*
X131843289Y-87560555D01*
X131843295Y-87560558D01*
X131843296Y-87560559D01*
X132030289Y-87638014D01*
X132228795Y-87677499D01*
X132228799Y-87677500D01*
X132228800Y-87677500D01*
X132278500Y-87677500D01*
X132345539Y-87697185D01*
X132391294Y-87749989D01*
X132402500Y-87801500D01*
X132402500Y-87806447D01*
X132402500Y-87896953D01*
X132437135Y-87980568D01*
X132437136Y-87980569D01*
X132441476Y-87991046D01*
X132448945Y-88060515D01*
X132417671Y-88122995D01*
X132357582Y-88158648D01*
X132326915Y-88162500D01*
X132228795Y-88162500D01*
X132030296Y-88201984D01*
X132030288Y-88201986D01*
X131843298Y-88279439D01*
X131843289Y-88279444D01*
X131675007Y-88391887D01*
X131675003Y-88391890D01*
X131531890Y-88535003D01*
X131531887Y-88535007D01*
X131419444Y-88703289D01*
X131419439Y-88703298D01*
X131341986Y-88890288D01*
X131341984Y-88890296D01*
X131302500Y-89088795D01*
X131302500Y-89291204D01*
X131341984Y-89489703D01*
X131341986Y-89489711D01*
X131419439Y-89676701D01*
X131419444Y-89676710D01*
X131531887Y-89844992D01*
X131531890Y-89844996D01*
X131675003Y-89988109D01*
X131675007Y-89988112D01*
X131843289Y-90100555D01*
X131843295Y-90100558D01*
X131843296Y-90100559D01*
X132030289Y-90178014D01*
X132228795Y-90217499D01*
X132228799Y-90217500D01*
X132228800Y-90217500D01*
X133031201Y-90217500D01*
X133031202Y-90217499D01*
X133229711Y-90178014D01*
X133416704Y-90100559D01*
X133584993Y-89988112D01*
X133728112Y-89844993D01*
X133840559Y-89676704D01*
X133918014Y-89489711D01*
X133957500Y-89291200D01*
X133957500Y-89088800D01*
X133918014Y-88890289D01*
X133840559Y-88703296D01*
X133840558Y-88703295D01*
X133840555Y-88703289D01*
X133728112Y-88535007D01*
X133728109Y-88535003D01*
X133584996Y-88391890D01*
X133584992Y-88391887D01*
X133456905Y-88306302D01*
X133412100Y-88252690D01*
X133403393Y-88183365D01*
X133433547Y-88120338D01*
X133492990Y-88083618D01*
X133525796Y-88079200D01*
X133686105Y-88079200D01*
X133753144Y-88098885D01*
X133773786Y-88115519D01*
X148947135Y-103288868D01*
X149011132Y-103352865D01*
X149094747Y-103387500D01*
X149411986Y-103387500D01*
X149479025Y-103407185D01*
X149524780Y-103459989D01*
X149534724Y-103529147D01*
X149505699Y-103592703D01*
X149480876Y-103614602D01*
X149455011Y-103631884D01*
X149455003Y-103631890D01*
X149311890Y-103775003D01*
X149311887Y-103775007D01*
X149199444Y-103943289D01*
X149199439Y-103943298D01*
X149121986Y-104130288D01*
X149121984Y-104130296D01*
X149082500Y-104328795D01*
X149082500Y-104531204D01*
X149121984Y-104729703D01*
X149121986Y-104729711D01*
X149199439Y-104916701D01*
X149199444Y-104916710D01*
X149311887Y-105084992D01*
X149311890Y-105084996D01*
X149455003Y-105228109D01*
X149455007Y-105228112D01*
X149623289Y-105340555D01*
X149623298Y-105340560D01*
X149739661Y-105388759D01*
X149794064Y-105432600D01*
X149816129Y-105498894D01*
X149798850Y-105566593D01*
X149747713Y-105614204D01*
X149730526Y-105621251D01*
X149572589Y-105672567D01*
X149376239Y-105772613D01*
X149197958Y-105902142D01*
X149042142Y-106057958D01*
X148912613Y-106236239D01*
X148812567Y-106432589D01*
X148744473Y-106642161D01*
X148744473Y-106642164D01*
X148732145Y-106720000D01*
X149976988Y-106720000D01*
X149944075Y-106777007D01*
X149910000Y-106904174D01*
X149910000Y-107035826D01*
X149944075Y-107162993D01*
X149976988Y-107220000D01*
X148732145Y-107220000D01*
X148744473Y-107297835D01*
X148744473Y-107297838D01*
X148812567Y-107507410D01*
X148912613Y-107703760D01*
X149042142Y-107882041D01*
X149197958Y-108037857D01*
X149376239Y-108167386D01*
X149572592Y-108267433D01*
X149572590Y-108267433D01*
X149730525Y-108318748D01*
X149788201Y-108358185D01*
X149815400Y-108422543D01*
X149803486Y-108491390D01*
X149756242Y-108542866D01*
X149739661Y-108551240D01*
X149623299Y-108599439D01*
X149623289Y-108599444D01*
X149455007Y-108711887D01*
X149455003Y-108711890D01*
X149311890Y-108855003D01*
X149311887Y-108855007D01*
X149199444Y-109023289D01*
X149199439Y-109023298D01*
X149121986Y-109210288D01*
X149121984Y-109210296D01*
X149082500Y-109408795D01*
X149082500Y-109611204D01*
X149121984Y-109809703D01*
X149121986Y-109809711D01*
X149199439Y-109996701D01*
X149199444Y-109996710D01*
X149311887Y-110164992D01*
X149311890Y-110164996D01*
X149455003Y-110308109D01*
X149455007Y-110308112D01*
X149623289Y-110420555D01*
X149623295Y-110420558D01*
X149623296Y-110420559D01*
X149810289Y-110498014D01*
X150008795Y-110537499D01*
X150008799Y-110537500D01*
X150106915Y-110537500D01*
X150173954Y-110557185D01*
X150219709Y-110609989D01*
X150229653Y-110679147D01*
X150221476Y-110708954D01*
X150217136Y-110719430D01*
X150217135Y-110719432D01*
X150195758Y-110771039D01*
X150182500Y-110803046D01*
X150182500Y-110898500D01*
X150162815Y-110965539D01*
X150110011Y-111011294D01*
X150058500Y-111022500D01*
X150008795Y-111022500D01*
X149810296Y-111061984D01*
X149810288Y-111061986D01*
X149623298Y-111139439D01*
X149623289Y-111139444D01*
X149455007Y-111251887D01*
X149455003Y-111251890D01*
X149311890Y-111395003D01*
X149311887Y-111395007D01*
X149199444Y-111563289D01*
X149199439Y-111563298D01*
X149121986Y-111750288D01*
X149121984Y-111750296D01*
X149082500Y-111948795D01*
X149082500Y-112151204D01*
X149121984Y-112349703D01*
X149121986Y-112349711D01*
X149199439Y-112536701D01*
X149199444Y-112536710D01*
X149311887Y-112704992D01*
X149311890Y-112704996D01*
X149337713Y-112730819D01*
X149371198Y-112792142D01*
X149366214Y-112861834D01*
X149324342Y-112917767D01*
X149258878Y-112942184D01*
X149250032Y-112942500D01*
X133789968Y-112942500D01*
X133722929Y-112922815D01*
X133677174Y-112870011D01*
X133667230Y-112800853D01*
X133696255Y-112737297D01*
X133702287Y-112730819D01*
X133728109Y-112704996D01*
X133728112Y-112704993D01*
X133840559Y-112536704D01*
X133918014Y-112349711D01*
X133957500Y-112151200D01*
X133957500Y-111948800D01*
X133918014Y-111750289D01*
X133840559Y-111563296D01*
X133840558Y-111563295D01*
X133840555Y-111563289D01*
X133728112Y-111395007D01*
X133728109Y-111395003D01*
X133584996Y-111251890D01*
X133584992Y-111251887D01*
X133416710Y-111139444D01*
X133416701Y-111139439D01*
X133229711Y-111061986D01*
X133229703Y-111061984D01*
X133031204Y-111022500D01*
X133031200Y-111022500D01*
X132228800Y-111022500D01*
X132228795Y-111022500D01*
X132030296Y-111061984D01*
X132030288Y-111061986D01*
X131843298Y-111139439D01*
X131843289Y-111139444D01*
X131675007Y-111251887D01*
X131675003Y-111251890D01*
X131531890Y-111395003D01*
X131531887Y-111395007D01*
X131419444Y-111563289D01*
X131419439Y-111563298D01*
X131341986Y-111750288D01*
X131341984Y-111750296D01*
X131302500Y-111948795D01*
X131302500Y-112151204D01*
X131341984Y-112349703D01*
X131341986Y-112349711D01*
X131419439Y-112536701D01*
X131419444Y-112536710D01*
X131531887Y-112704992D01*
X131531890Y-112704996D01*
X131675003Y-112848109D01*
X131675007Y-112848112D01*
X131843289Y-112960555D01*
X131843295Y-112960558D01*
X131843296Y-112960559D01*
X132030289Y-113038014D01*
X132170501Y-113065903D01*
X132232409Y-113098287D01*
X132266983Y-113159003D01*
X132266082Y-113219613D01*
X132252500Y-113270301D01*
X132252500Y-113456021D01*
X132232815Y-113523060D01*
X132180011Y-113568815D01*
X132152691Y-113577638D01*
X132030296Y-113601984D01*
X132030288Y-113601986D01*
X131843298Y-113679439D01*
X131843289Y-113679444D01*
X131675007Y-113791887D01*
X131675003Y-113791890D01*
X131531890Y-113935003D01*
X131531887Y-113935007D01*
X131419444Y-114103289D01*
X131419439Y-114103298D01*
X131341986Y-114290288D01*
X131341984Y-114290296D01*
X131302500Y-114488795D01*
X131302500Y-114691204D01*
X131341984Y-114889703D01*
X131341986Y-114889711D01*
X131419439Y-115076701D01*
X131419444Y-115076710D01*
X131531887Y-115244992D01*
X131531890Y-115244996D01*
X131675003Y-115388109D01*
X131675007Y-115388112D01*
X131843289Y-115500555D01*
X131843295Y-115500558D01*
X131843296Y-115500559D01*
X132030289Y-115578014D01*
X132228795Y-115617499D01*
X132228799Y-115617500D01*
X132228800Y-115617500D01*
X133031201Y-115617500D01*
X133031202Y-115617499D01*
X133229711Y-115578014D01*
X133416704Y-115500559D01*
X133584993Y-115388112D01*
X133728112Y-115244993D01*
X133840559Y-115076704D01*
X133918014Y-114889711D01*
X133957500Y-114691200D01*
X133957500Y-114488800D01*
X133918014Y-114290289D01*
X133840559Y-114103296D01*
X133840558Y-114103295D01*
X133840555Y-114103289D01*
X133728112Y-113935007D01*
X133728109Y-113935003D01*
X133702287Y-113909181D01*
X133668802Y-113847858D01*
X133673786Y-113778166D01*
X133715658Y-113722233D01*
X133781122Y-113697816D01*
X133789968Y-113697500D01*
X149250032Y-113697500D01*
X149317071Y-113717185D01*
X149362826Y-113769989D01*
X149372770Y-113839147D01*
X149343745Y-113902703D01*
X149337713Y-113909181D01*
X149311890Y-113935003D01*
X149311887Y-113935007D01*
X149199444Y-114103289D01*
X149199439Y-114103298D01*
X149121986Y-114290288D01*
X149121984Y-114290296D01*
X149082500Y-114488795D01*
X149082500Y-114691204D01*
X149121984Y-114889703D01*
X149121986Y-114889711D01*
X149199439Y-115076701D01*
X149199444Y-115076710D01*
X149311887Y-115244992D01*
X149311890Y-115244996D01*
X149455003Y-115388109D01*
X149455007Y-115388112D01*
X149623289Y-115500555D01*
X149623295Y-115500558D01*
X149623296Y-115500559D01*
X149810289Y-115578014D01*
X150008795Y-115617499D01*
X150008799Y-115617500D01*
X150008800Y-115617500D01*
X150811201Y-115617500D01*
X150811202Y-115617499D01*
X151009711Y-115578014D01*
X151196704Y-115500559D01*
X151364993Y-115388112D01*
X151508112Y-115244993D01*
X151620559Y-115076704D01*
X151698014Y-114889711D01*
X151737500Y-114691200D01*
X151737500Y-114488800D01*
X151698014Y-114290289D01*
X151620559Y-114103296D01*
X151620558Y-114103295D01*
X151620555Y-114103289D01*
X151508112Y-113935007D01*
X151508109Y-113935003D01*
X151482287Y-113909181D01*
X151448802Y-113847858D01*
X151453786Y-113778166D01*
X151495658Y-113722233D01*
X151561122Y-113697816D01*
X151569968Y-113697500D01*
X168751046Y-113697500D01*
X168751591Y-113697500D01*
X168800039Y-113697714D01*
X168800039Y-113697713D01*
X168800063Y-113697714D01*
X168800719Y-113697628D01*
X168801279Y-113697556D01*
X168801679Y-113697505D01*
X168801698Y-113697500D01*
X168801699Y-113697500D01*
X168848982Y-113684830D01*
X168896162Y-113672411D01*
X168896166Y-113672408D01*
X168896187Y-113672403D01*
X168896776Y-113672160D01*
X168897233Y-113671972D01*
X168897691Y-113671784D01*
X168897707Y-113671774D01*
X168897709Y-113671774D01*
X168939998Y-113647357D01*
X168982460Y-113623091D01*
X168982463Y-113623087D01*
X168982475Y-113623081D01*
X168982883Y-113622769D01*
X168983236Y-113622499D01*
X168983782Y-113622082D01*
X168983787Y-113622076D01*
X168983790Y-113622075D01*
X169018329Y-113587535D01*
X175152148Y-107507410D01*
X176084285Y-106583433D01*
X176145755Y-106550218D01*
X176171580Y-106547499D01*
X177105826Y-106547499D01*
X177179204Y-106536809D01*
X177292390Y-106481476D01*
X177381476Y-106392390D01*
X177436809Y-106279204D01*
X177447500Y-106205827D01*
X177447499Y-105277726D01*
X177467183Y-105210688D01*
X177483813Y-105190051D01*
X177576297Y-105097567D01*
X177637618Y-105064084D01*
X177707310Y-105069068D01*
X177763243Y-105110940D01*
X177787660Y-105176404D01*
X177781907Y-105223568D01*
X177752010Y-105315578D01*
X177752010Y-105315581D01*
X177720000Y-105517682D01*
X177720000Y-105722317D01*
X177752009Y-105924417D01*
X177815244Y-106119031D01*
X177908141Y-106301350D01*
X177908147Y-106301359D01*
X177940523Y-106345921D01*
X177940524Y-106345922D01*
X178620000Y-105666446D01*
X178620000Y-105672661D01*
X178647259Y-105774394D01*
X178699920Y-105865606D01*
X178774394Y-105940080D01*
X178865606Y-105992741D01*
X178967339Y-106020000D01*
X178973553Y-106020000D01*
X178294076Y-106699474D01*
X178338650Y-106731859D01*
X178520968Y-106824755D01*
X178715582Y-106887990D01*
X178917683Y-106920000D01*
X179122317Y-106920000D01*
X179324417Y-106887990D01*
X179519031Y-106824755D01*
X179701349Y-106731859D01*
X179745921Y-106699474D01*
X179066447Y-106020000D01*
X179072661Y-106020000D01*
X179174394Y-105992741D01*
X179265606Y-105940080D01*
X179340080Y-105865606D01*
X179392741Y-105774394D01*
X179420000Y-105672661D01*
X179420000Y-105666447D01*
X180099474Y-106345921D01*
X180131859Y-106301349D01*
X180224755Y-106119031D01*
X180287990Y-105924417D01*
X180320000Y-105722317D01*
X180320000Y-105517682D01*
X180287990Y-105315582D01*
X180224755Y-105120968D01*
X180131859Y-104938650D01*
X180099474Y-104894077D01*
X180099474Y-104894076D01*
X179420000Y-105573551D01*
X179420000Y-105567339D01*
X179392741Y-105465606D01*
X179340080Y-105374394D01*
X179265606Y-105299920D01*
X179174394Y-105247259D01*
X179072661Y-105220000D01*
X179066446Y-105220000D01*
X179745922Y-104540524D01*
X179745921Y-104540523D01*
X179701359Y-104508147D01*
X179701350Y-104508141D01*
X179514686Y-104413031D01*
X179515431Y-104411568D01*
X179466606Y-104372230D01*
X179444534Y-104305939D01*
X179461807Y-104238237D01*
X179512939Y-104190622D01*
X179568455Y-104177500D01*
X184570685Y-104177500D01*
X184637724Y-104197185D01*
X184672982Y-104235401D01*
X184674675Y-104234271D01*
X184779563Y-104391246D01*
X184779566Y-104391250D01*
X184908749Y-104520433D01*
X184908753Y-104520436D01*
X185060657Y-104621936D01*
X185060663Y-104621939D01*
X185060664Y-104621940D01*
X185229458Y-104691857D01*
X185408644Y-104727499D01*
X185408648Y-104727500D01*
X185408649Y-104727500D01*
X185591352Y-104727500D01*
X185591353Y-104727499D01*
X185618586Y-104722082D01*
X185676326Y-104710598D01*
X185716166Y-104702672D01*
X185770542Y-104691857D01*
X185939336Y-104621940D01*
X186091247Y-104520436D01*
X186220436Y-104391247D01*
X186321940Y-104239336D01*
X186391857Y-104070542D01*
X186427500Y-103891351D01*
X186427500Y-103708649D01*
X186427500Y-103708646D01*
X186402329Y-103582103D01*
X186391857Y-103529458D01*
X186333056Y-103387500D01*
X186321941Y-103360666D01*
X186321936Y-103360657D01*
X186220436Y-103208753D01*
X186220433Y-103208749D01*
X186091247Y-103079563D01*
X185934271Y-102974676D01*
X185935579Y-102972718D01*
X185933030Y-102970213D01*
X185920297Y-102964398D01*
X185908606Y-102946206D01*
X185893184Y-102931048D01*
X185889328Y-102916209D01*
X185882523Y-102905620D01*
X185877500Y-102870685D01*
X185877500Y-91880303D01*
X185877500Y-91880301D01*
X185851774Y-91784291D01*
X185802075Y-91698210D01*
X185731790Y-91627925D01*
X185645709Y-91578226D01*
X185549699Y-91552500D01*
X185549696Y-91552500D01*
X184758647Y-91552500D01*
X184691608Y-91532815D01*
X184645853Y-91480011D01*
X184644095Y-91475974D01*
X184630559Y-91443295D01*
X184630555Y-91443288D01*
X184518112Y-91275006D01*
X184518109Y-91275002D01*
X184374996Y-91131889D01*
X184374992Y-91131886D01*
X184206710Y-91019443D01*
X184206701Y-91019438D01*
X184019711Y-90941985D01*
X184019703Y-90941983D01*
X183821204Y-90902499D01*
X183821200Y-90902499D01*
X183618800Y-90902499D01*
X183618795Y-90902499D01*
X183420296Y-90941983D01*
X183420288Y-90941985D01*
X183233298Y-91019438D01*
X183233289Y-91019443D01*
X183065007Y-91131886D01*
X183065003Y-91131889D01*
X182921890Y-91275002D01*
X182921887Y-91275006D01*
X182809444Y-91443288D01*
X182809439Y-91443297D01*
X182731986Y-91630287D01*
X182731984Y-91630295D01*
X182692500Y-91828794D01*
X182692500Y-92031203D01*
X182731984Y-92229702D01*
X182731986Y-92229710D01*
X182809439Y-92416700D01*
X182809444Y-92416709D01*
X182921887Y-92584991D01*
X182921890Y-92584995D01*
X183065003Y-92728108D01*
X183065007Y-92728111D01*
X183233289Y-92840554D01*
X183233298Y-92840559D01*
X183349661Y-92888758D01*
X183404064Y-92932599D01*
X183426129Y-92998893D01*
X183408850Y-93066592D01*
X183357713Y-93114203D01*
X183340526Y-93121250D01*
X183182589Y-93172566D01*
X182986233Y-93272615D01*
X182922485Y-93318930D01*
X182922485Y-93318931D01*
X183590590Y-93987036D01*
X183527007Y-94004074D01*
X183412993Y-94069900D01*
X183319901Y-94162992D01*
X183254075Y-94277006D01*
X183237037Y-94340589D01*
X182568932Y-93672484D01*
X182568931Y-93672484D01*
X182522616Y-93736232D01*
X182422567Y-93932588D01*
X182354473Y-94142163D01*
X182320000Y-94359817D01*
X182320000Y-94580180D01*
X182354473Y-94797834D01*
X182422567Y-95007409D01*
X182522611Y-95203755D01*
X182568932Y-95267512D01*
X183237037Y-94599407D01*
X183254075Y-94662992D01*
X183319901Y-94777006D01*
X183412993Y-94870098D01*
X183527007Y-94935924D01*
X183590590Y-94952961D01*
X182922485Y-95621064D01*
X182922485Y-95621065D01*
X182948105Y-95639679D01*
X182990772Y-95695009D01*
X182996751Y-95764622D01*
X182964146Y-95826417D01*
X182948106Y-95840316D01*
X182922485Y-95858930D01*
X182922485Y-95858932D01*
X183590590Y-96527037D01*
X183527007Y-96544075D01*
X183412993Y-96609901D01*
X183319901Y-96702993D01*
X183254075Y-96817007D01*
X183237037Y-96880590D01*
X182568932Y-96212485D01*
X182568931Y-96212485D01*
X182522616Y-96276233D01*
X182422567Y-96472589D01*
X182354473Y-96682164D01*
X182320000Y-96899818D01*
X182320000Y-97120181D01*
X182354473Y-97337835D01*
X182422567Y-97547410D01*
X182522611Y-97743756D01*
X182568932Y-97807513D01*
X183237037Y-97139408D01*
X183254075Y-97202993D01*
X183319901Y-97317007D01*
X183412993Y-97410099D01*
X183527007Y-97475925D01*
X183590590Y-97492962D01*
X182922485Y-98161065D01*
X182922485Y-98161066D01*
X182986243Y-98207388D01*
X183182589Y-98307432D01*
X183392164Y-98375526D01*
X183609819Y-98410000D01*
X183830181Y-98410000D01*
X184047835Y-98375526D01*
X184257410Y-98307432D01*
X184453760Y-98207386D01*
X184517513Y-98161066D01*
X184517514Y-98161066D01*
X183849409Y-97492962D01*
X183912993Y-97475925D01*
X184027007Y-97410099D01*
X184120099Y-97317007D01*
X184185925Y-97202993D01*
X184202962Y-97139409D01*
X184871066Y-97807514D01*
X184871066Y-97807513D01*
X184898182Y-97770193D01*
X184953512Y-97727528D01*
X185023125Y-97721549D01*
X185084920Y-97754155D01*
X185119278Y-97814994D01*
X185122500Y-97843079D01*
X185122500Y-102870685D01*
X185102815Y-102937724D01*
X185064604Y-102972993D01*
X185065729Y-102974676D01*
X184908752Y-103079563D01*
X184779566Y-103208749D01*
X184779563Y-103208753D01*
X184674675Y-103365729D01*
X184672708Y-103364414D01*
X184631099Y-103406787D01*
X184570685Y-103422500D01*
X178290301Y-103422500D01*
X178194290Y-103448226D01*
X178194283Y-103448229D01*
X178108216Y-103497919D01*
X178108208Y-103497925D01*
X176949952Y-104656181D01*
X176888629Y-104689666D01*
X176862271Y-104692500D01*
X175934174Y-104692500D01*
X175860795Y-104703191D01*
X175747607Y-104758525D01*
X175658525Y-104847607D01*
X175603190Y-104960797D01*
X175592500Y-105034172D01*
X175592500Y-105956163D01*
X175572815Y-106023202D01*
X175555795Y-106044229D01*
X168632857Y-112906566D01*
X168571387Y-112939781D01*
X168545562Y-112942500D01*
X151569968Y-112942500D01*
X151502929Y-112922815D01*
X151457174Y-112870011D01*
X151447230Y-112800853D01*
X151476255Y-112737297D01*
X151482287Y-112730819D01*
X151508109Y-112704996D01*
X151508112Y-112704993D01*
X151620559Y-112536704D01*
X151698014Y-112349711D01*
X151737500Y-112151200D01*
X151737500Y-111948800D01*
X151698014Y-111750289D01*
X151620559Y-111563296D01*
X151620558Y-111563295D01*
X151620555Y-111563289D01*
X151508112Y-111395007D01*
X151508109Y-111395003D01*
X151400587Y-111287481D01*
X151367102Y-111226158D01*
X151372086Y-111156466D01*
X151413958Y-111100533D01*
X151479422Y-111076116D01*
X151488268Y-111075800D01*
X162306952Y-111075800D01*
X162306953Y-111075800D01*
X162390568Y-111041165D01*
X183102500Y-90329232D01*
X183163821Y-90295749D01*
X183233513Y-90300733D01*
X183237630Y-90302353D01*
X183420289Y-90378013D01*
X183618795Y-90417498D01*
X183618799Y-90417499D01*
X183618800Y-90417499D01*
X183821201Y-90417499D01*
X183821202Y-90417498D01*
X184019711Y-90378013D01*
X184206704Y-90300558D01*
X184374993Y-90188111D01*
X184518112Y-90044992D01*
X184630559Y-89876703D01*
X184708014Y-89689710D01*
X184747500Y-89491199D01*
X184747500Y-89288799D01*
X184708014Y-89090288D01*
X184630559Y-88903295D01*
X184630558Y-88903294D01*
X184630555Y-88903288D01*
X184518112Y-88735006D01*
X184518109Y-88735002D01*
X184374996Y-88591889D01*
X184374992Y-88591886D01*
X184206710Y-88479443D01*
X184206701Y-88479438D01*
X184019711Y-88401985D01*
X184019703Y-88401983D01*
X183821204Y-88362499D01*
X183821200Y-88362499D01*
X183618800Y-88362499D01*
X183618795Y-88362499D01*
X183420296Y-88401983D01*
X183420288Y-88401985D01*
X183233298Y-88479438D01*
X183233289Y-88479443D01*
X183065007Y-88591886D01*
X183065003Y-88591889D01*
X182921890Y-88735002D01*
X182921887Y-88735006D01*
X182809444Y-88903288D01*
X182809439Y-88903297D01*
X182731986Y-89090287D01*
X182731984Y-89090295D01*
X182692500Y-89288794D01*
X182692500Y-89491203D01*
X182731984Y-89689702D01*
X182731987Y-89689714D01*
X182807644Y-89872367D01*
X182815113Y-89941836D01*
X182783838Y-90004315D01*
X182780764Y-90007500D01*
X162203786Y-110584481D01*
X162142463Y-110617966D01*
X162116105Y-110620800D01*
X151305796Y-110620800D01*
X151238757Y-110601115D01*
X151193002Y-110548311D01*
X151183058Y-110479153D01*
X151212083Y-110415597D01*
X151236905Y-110393698D01*
X151286486Y-110360568D01*
X151364993Y-110308112D01*
X151508112Y-110164993D01*
X151620559Y-109996704D01*
X151698014Y-109809711D01*
X151737500Y-109611200D01*
X151737500Y-109408800D01*
X151698014Y-109210289D01*
X151620559Y-109023296D01*
X151620558Y-109023295D01*
X151620555Y-109023289D01*
X151508112Y-108855007D01*
X151508109Y-108855003D01*
X151364996Y-108711890D01*
X151364992Y-108711887D01*
X151196710Y-108599444D01*
X151196700Y-108599439D01*
X151080338Y-108551240D01*
X151025935Y-108507399D01*
X151003870Y-108441104D01*
X151021149Y-108373405D01*
X151072287Y-108325795D01*
X151089474Y-108318748D01*
X151247408Y-108267433D01*
X151443760Y-108167386D01*
X151622041Y-108037857D01*
X151777857Y-107882041D01*
X151907386Y-107703760D01*
X152007432Y-107507410D01*
X152075526Y-107297838D01*
X152075526Y-107297835D01*
X152087855Y-107220000D01*
X150843012Y-107220000D01*
X150875925Y-107162993D01*
X150910000Y-107035826D01*
X150910000Y-106904174D01*
X150875925Y-106777007D01*
X150843012Y-106720000D01*
X152087855Y-106720000D01*
X152075526Y-106642164D01*
X152075526Y-106642161D01*
X152007432Y-106432589D01*
X151907386Y-106236239D01*
X151777857Y-106057958D01*
X151622041Y-105902142D01*
X151443760Y-105772613D01*
X151247410Y-105672567D01*
X151089473Y-105621251D01*
X151031798Y-105581814D01*
X151004599Y-105517455D01*
X151016513Y-105448609D01*
X151063757Y-105397133D01*
X151080339Y-105388759D01*
X151196697Y-105340562D01*
X151196697Y-105340561D01*
X151196704Y-105340559D01*
X151364993Y-105228112D01*
X151508112Y-105084993D01*
X151620559Y-104916704D01*
X151698014Y-104729711D01*
X151737500Y-104531200D01*
X151737500Y-104328800D01*
X151698014Y-104130289D01*
X151620559Y-103943296D01*
X151620558Y-103943295D01*
X151620555Y-103943289D01*
X151508112Y-103775007D01*
X151508109Y-103775003D01*
X151364996Y-103631890D01*
X151364988Y-103631884D01*
X151339124Y-103614602D01*
X151294318Y-103560990D01*
X151285611Y-103491665D01*
X151315765Y-103428638D01*
X151375208Y-103391918D01*
X151408014Y-103387500D01*
X160777551Y-103387500D01*
X160844590Y-103407185D01*
X160884938Y-103449500D01*
X160904792Y-103483889D01*
X160904794Y-103483892D01*
X160904795Y-103483893D01*
X161003007Y-103582105D01*
X161123293Y-103651552D01*
X161257453Y-103687500D01*
X161257455Y-103687500D01*
X161396345Y-103687500D01*
X161396347Y-103687500D01*
X161530507Y-103651552D01*
X161650793Y-103582105D01*
X161749005Y-103483893D01*
X161818452Y-103363607D01*
X161854400Y-103229447D01*
X161854400Y-103090553D01*
X161818452Y-102956393D01*
X161749005Y-102836107D01*
X161650793Y-102737895D01*
X161650792Y-102737894D01*
X161650789Y-102737892D01*
X161530509Y-102668449D01*
X161530508Y-102668448D01*
X161530507Y-102668448D01*
X161396347Y-102632500D01*
X161257453Y-102632500D01*
X161123293Y-102668448D01*
X161123290Y-102668449D01*
X161003010Y-102737892D01*
X161003005Y-102737896D01*
X160904796Y-102836105D01*
X160904792Y-102836110D01*
X160884938Y-102870500D01*
X160834371Y-102918715D01*
X160777551Y-102932500D01*
X151408014Y-102932500D01*
X151340975Y-102912815D01*
X151295220Y-102860011D01*
X151285276Y-102790853D01*
X151314301Y-102727297D01*
X151339124Y-102705398D01*
X151357908Y-102692845D01*
X151364993Y-102688112D01*
X151508112Y-102544993D01*
X151620559Y-102376704D01*
X151698014Y-102189711D01*
X151737500Y-101991200D01*
X151737500Y-101788800D01*
X151698014Y-101590289D01*
X151620559Y-101403296D01*
X151620558Y-101403295D01*
X151620555Y-101403289D01*
X151508112Y-101235007D01*
X151508109Y-101235003D01*
X151364996Y-101091890D01*
X151364992Y-101091887D01*
X151196710Y-100979444D01*
X151196701Y-100979439D01*
X151009711Y-100901986D01*
X151009703Y-100901984D01*
X150811204Y-100862500D01*
X150811200Y-100862500D01*
X150008800Y-100862500D01*
X150008795Y-100862500D01*
X149810296Y-100901984D01*
X149810288Y-100901986D01*
X149623298Y-100979439D01*
X149623289Y-100979444D01*
X149455007Y-101091887D01*
X149455003Y-101091890D01*
X149311890Y-101235003D01*
X149311887Y-101235007D01*
X149199444Y-101403289D01*
X149199439Y-101403298D01*
X149121986Y-101590288D01*
X149121984Y-101590296D01*
X149082500Y-101788795D01*
X149082500Y-101991204D01*
X149121984Y-102189703D01*
X149121986Y-102189711D01*
X149199439Y-102376701D01*
X149199444Y-102376710D01*
X149311887Y-102544992D01*
X149311890Y-102544996D01*
X149455003Y-102688109D01*
X149455011Y-102688115D01*
X149480876Y-102705398D01*
X149525682Y-102759010D01*
X149534389Y-102828335D01*
X149504235Y-102891362D01*
X149444792Y-102928082D01*
X149411986Y-102932500D01*
X149285595Y-102932500D01*
X149218556Y-102912815D01*
X149197914Y-102896181D01*
X145550528Y-99248795D01*
X149082500Y-99248795D01*
X149082500Y-99451204D01*
X149121984Y-99649703D01*
X149121986Y-99649711D01*
X149199439Y-99836701D01*
X149199444Y-99836710D01*
X149311887Y-100004992D01*
X149311890Y-100004996D01*
X149455003Y-100148109D01*
X149455007Y-100148112D01*
X149623289Y-100260555D01*
X149623295Y-100260558D01*
X149623296Y-100260559D01*
X149810289Y-100338014D01*
X150008795Y-100377499D01*
X150008799Y-100377500D01*
X150008800Y-100377500D01*
X150811201Y-100377500D01*
X150811202Y-100377499D01*
X151009711Y-100338014D01*
X151196704Y-100260559D01*
X151364993Y-100148112D01*
X151508112Y-100004993D01*
X151620559Y-99836704D01*
X151698014Y-99649711D01*
X151737500Y-99451200D01*
X151737500Y-99248800D01*
X151698014Y-99050289D01*
X151620559Y-98863296D01*
X151620558Y-98863295D01*
X151620555Y-98863289D01*
X151508112Y-98695007D01*
X151508109Y-98695003D01*
X151364996Y-98551890D01*
X151364992Y-98551887D01*
X151196710Y-98439444D01*
X151196701Y-98439439D01*
X151009711Y-98361986D01*
X151009703Y-98361984D01*
X150811204Y-98322500D01*
X150811200Y-98322500D01*
X150008800Y-98322500D01*
X150008795Y-98322500D01*
X149810296Y-98361984D01*
X149810288Y-98361986D01*
X149623298Y-98439439D01*
X149623289Y-98439444D01*
X149455007Y-98551887D01*
X149455003Y-98551890D01*
X149311890Y-98695003D01*
X149311887Y-98695007D01*
X149199444Y-98863289D01*
X149199439Y-98863298D01*
X149121986Y-99050288D01*
X149121984Y-99050296D01*
X149082500Y-99248795D01*
X145550528Y-99248795D01*
X144503221Y-98201488D01*
X140872352Y-94570618D01*
X140321734Y-94020000D01*
X148732145Y-94020000D01*
X149976988Y-94020000D01*
X149944075Y-94077007D01*
X149910000Y-94204174D01*
X149910000Y-94335826D01*
X149944075Y-94462993D01*
X149976988Y-94520000D01*
X148732145Y-94520000D01*
X148744473Y-94597835D01*
X148744473Y-94597838D01*
X148812567Y-94807410D01*
X148912613Y-95003760D01*
X149042142Y-95182041D01*
X149197958Y-95337857D01*
X149376239Y-95467386D01*
X149572592Y-95567433D01*
X149572590Y-95567433D01*
X149730525Y-95618748D01*
X149788201Y-95658185D01*
X149815400Y-95722543D01*
X149803486Y-95791390D01*
X149756242Y-95842866D01*
X149739661Y-95851240D01*
X149623299Y-95899439D01*
X149623289Y-95899444D01*
X149455007Y-96011887D01*
X149455003Y-96011890D01*
X149311890Y-96155003D01*
X149311887Y-96155007D01*
X149199444Y-96323289D01*
X149199439Y-96323298D01*
X149121986Y-96510288D01*
X149121984Y-96510296D01*
X149082500Y-96708795D01*
X149082500Y-96911204D01*
X149121984Y-97109703D01*
X149121986Y-97109711D01*
X149199439Y-97296701D01*
X149199444Y-97296710D01*
X149311887Y-97464992D01*
X149311890Y-97464996D01*
X149455003Y-97608109D01*
X149455007Y-97608112D01*
X149623289Y-97720555D01*
X149623298Y-97720560D01*
X149665658Y-97738106D01*
X149810289Y-97798014D01*
X150008795Y-97837499D01*
X150008799Y-97837500D01*
X150008800Y-97837500D01*
X150811201Y-97837500D01*
X150811202Y-97837499D01*
X151009711Y-97798014D01*
X151196704Y-97720559D01*
X151364993Y-97608112D01*
X151508112Y-97464993D01*
X151620559Y-97296704D01*
X151698014Y-97109711D01*
X151737500Y-96911200D01*
X151737500Y-96708800D01*
X151698014Y-96510289D01*
X151620559Y-96323296D01*
X151620558Y-96323295D01*
X151620555Y-96323289D01*
X151508112Y-96155007D01*
X151508109Y-96155003D01*
X151364996Y-96011890D01*
X151364992Y-96011887D01*
X151196710Y-95899444D01*
X151196700Y-95899439D01*
X151080338Y-95851240D01*
X151025935Y-95807399D01*
X151003870Y-95741104D01*
X151021149Y-95673405D01*
X151072287Y-95625795D01*
X151089474Y-95618748D01*
X151247408Y-95567433D01*
X151443760Y-95467386D01*
X151622041Y-95337857D01*
X151777857Y-95182041D01*
X151907386Y-95003760D01*
X152007432Y-94807410D01*
X152075526Y-94597838D01*
X152075526Y-94597835D01*
X152087855Y-94520000D01*
X150843012Y-94520000D01*
X150875925Y-94462993D01*
X150910000Y-94335826D01*
X150910000Y-94204174D01*
X150875925Y-94077007D01*
X150843012Y-94020000D01*
X152087855Y-94020000D01*
X152075526Y-93942164D01*
X152075526Y-93942161D01*
X152007432Y-93732589D01*
X151907386Y-93536239D01*
X151777857Y-93357958D01*
X151622041Y-93202142D01*
X151443760Y-93072613D01*
X151247410Y-92972567D01*
X151089473Y-92921251D01*
X151031798Y-92881814D01*
X151004599Y-92817455D01*
X151016513Y-92748609D01*
X151063757Y-92697133D01*
X151080339Y-92688759D01*
X151196697Y-92640562D01*
X151196697Y-92640561D01*
X151196704Y-92640559D01*
X151364993Y-92528112D01*
X151508112Y-92384993D01*
X151620559Y-92216704D01*
X151698014Y-92029711D01*
X151737500Y-91831200D01*
X151737500Y-91628800D01*
X151698014Y-91430289D01*
X151620559Y-91243296D01*
X151620558Y-91243295D01*
X151620555Y-91243289D01*
X151508112Y-91075007D01*
X151508109Y-91075003D01*
X151364996Y-90931890D01*
X151364992Y-90931887D01*
X151196710Y-90819444D01*
X151196701Y-90819439D01*
X151009711Y-90741986D01*
X151009703Y-90741984D01*
X150811204Y-90702500D01*
X150811200Y-90702500D01*
X150008800Y-90702500D01*
X150008795Y-90702500D01*
X149810296Y-90741984D01*
X149810288Y-90741986D01*
X149623298Y-90819439D01*
X149623289Y-90819444D01*
X149455007Y-90931887D01*
X149455003Y-90931890D01*
X149311890Y-91075003D01*
X149311887Y-91075007D01*
X149199444Y-91243289D01*
X149199439Y-91243298D01*
X149121986Y-91430288D01*
X149121984Y-91430296D01*
X149082500Y-91628795D01*
X149082500Y-91831204D01*
X149121984Y-92029703D01*
X149121986Y-92029711D01*
X149199439Y-92216701D01*
X149199444Y-92216710D01*
X149311887Y-92384992D01*
X149311890Y-92384996D01*
X149455003Y-92528109D01*
X149455007Y-92528112D01*
X149623289Y-92640555D01*
X149623298Y-92640560D01*
X149739661Y-92688759D01*
X149794064Y-92732600D01*
X149816129Y-92798894D01*
X149798850Y-92866593D01*
X149747713Y-92914204D01*
X149730526Y-92921251D01*
X149572589Y-92972567D01*
X149376239Y-93072613D01*
X149197958Y-93202142D01*
X149042142Y-93357958D01*
X148912613Y-93536239D01*
X148812567Y-93732589D01*
X148744473Y-93942161D01*
X148744473Y-93942164D01*
X148732145Y-94020000D01*
X140321734Y-94020000D01*
X135390529Y-89088795D01*
X149082500Y-89088795D01*
X149082500Y-89291204D01*
X149121984Y-89489703D01*
X149121986Y-89489711D01*
X149199439Y-89676701D01*
X149199444Y-89676710D01*
X149311887Y-89844992D01*
X149311890Y-89844996D01*
X149455003Y-89988109D01*
X149455007Y-89988112D01*
X149623289Y-90100555D01*
X149623295Y-90100558D01*
X149623296Y-90100559D01*
X149810289Y-90178014D01*
X150008795Y-90217499D01*
X150008799Y-90217500D01*
X150008800Y-90217500D01*
X150811201Y-90217500D01*
X150811202Y-90217499D01*
X151009711Y-90178014D01*
X151196704Y-90100559D01*
X151364993Y-89988112D01*
X151498719Y-89854385D01*
X151560040Y-89820902D01*
X151629732Y-89825886D01*
X151685666Y-89867757D01*
X151700959Y-89894614D01*
X151718834Y-89937766D01*
X151718836Y-89937770D01*
X157490637Y-95709570D01*
X157524122Y-95770893D01*
X157526574Y-95806980D01*
X157522485Y-95858932D01*
X158190591Y-96527037D01*
X158127007Y-96544075D01*
X158012993Y-96609901D01*
X157919901Y-96702993D01*
X157854075Y-96817007D01*
X157837037Y-96880590D01*
X157168932Y-96212485D01*
X157168931Y-96212485D01*
X157122616Y-96276233D01*
X157022567Y-96472589D01*
X156954473Y-96682164D01*
X156920000Y-96899818D01*
X156920000Y-97120181D01*
X156954473Y-97337835D01*
X157022567Y-97547410D01*
X157122611Y-97743756D01*
X157168932Y-97807513D01*
X157837037Y-97139408D01*
X157854075Y-97202993D01*
X157919901Y-97317007D01*
X158012993Y-97410099D01*
X158127007Y-97475925D01*
X158190590Y-97492962D01*
X157522485Y-98161065D01*
X157522485Y-98161066D01*
X157586243Y-98207388D01*
X157782589Y-98307432D01*
X157992164Y-98375526D01*
X158209819Y-98410000D01*
X158430181Y-98410000D01*
X158647835Y-98375526D01*
X158857410Y-98307432D01*
X159053760Y-98207386D01*
X159117513Y-98161066D01*
X159117514Y-98161066D01*
X158449409Y-97492962D01*
X158512993Y-97475925D01*
X158627007Y-97410099D01*
X158720099Y-97317007D01*
X158785925Y-97202993D01*
X158802962Y-97139409D01*
X159471066Y-97807514D01*
X159471066Y-97807513D01*
X159517386Y-97743760D01*
X159617432Y-97547410D01*
X159685526Y-97337835D01*
X159720000Y-97120181D01*
X159720000Y-96899818D01*
X159685526Y-96682164D01*
X159617432Y-96472589D01*
X159517386Y-96276239D01*
X159436120Y-96164386D01*
X159412640Y-96098579D01*
X159428465Y-96030525D01*
X159478571Y-95981830D01*
X159536438Y-95967500D01*
X159996751Y-95967500D01*
X160063790Y-95987185D01*
X160104138Y-96029500D01*
X160123992Y-96063889D01*
X160123994Y-96063892D01*
X160123995Y-96063893D01*
X160222207Y-96162105D01*
X160222208Y-96162106D01*
X160222210Y-96162107D01*
X160247869Y-96176921D01*
X160342493Y-96231552D01*
X160476653Y-96267500D01*
X160476655Y-96267500D01*
X160615545Y-96267500D01*
X160615547Y-96267500D01*
X160749707Y-96231552D01*
X160869993Y-96162105D01*
X160968205Y-96063893D01*
X161037652Y-95943607D01*
X161073600Y-95809447D01*
X161073600Y-95670553D01*
X161037652Y-95536393D01*
X160968205Y-95416107D01*
X160869993Y-95317895D01*
X160869992Y-95317894D01*
X160869989Y-95317892D01*
X160749709Y-95248449D01*
X160749708Y-95248448D01*
X160749707Y-95248448D01*
X160615547Y-95212500D01*
X160476653Y-95212500D01*
X160342493Y-95248448D01*
X160342490Y-95248449D01*
X160222210Y-95317892D01*
X160222205Y-95317896D01*
X160123996Y-95416105D01*
X160123992Y-95416110D01*
X160104138Y-95450500D01*
X160053571Y-95498715D01*
X159996751Y-95512500D01*
X159018013Y-95512500D01*
X158950974Y-95492815D01*
X158905219Y-95440011D01*
X158895275Y-95370853D01*
X158924300Y-95307297D01*
X158949122Y-95285398D01*
X158964693Y-95274993D01*
X158974993Y-95268111D01*
X159118112Y-95124992D01*
X159230559Y-94956703D01*
X159308014Y-94769710D01*
X159347500Y-94571199D01*
X159347500Y-94368799D01*
X159308014Y-94170288D01*
X159230559Y-93983295D01*
X159230558Y-93983294D01*
X159230555Y-93983288D01*
X159118112Y-93815006D01*
X159118109Y-93815002D01*
X158974996Y-93671889D01*
X158974992Y-93671886D01*
X158806710Y-93559443D01*
X158806701Y-93559438D01*
X158619711Y-93481985D01*
X158619703Y-93481983D01*
X158421204Y-93442499D01*
X158421200Y-93442499D01*
X158218800Y-93442499D01*
X158218795Y-93442499D01*
X158020296Y-93481983D01*
X158020288Y-93481985D01*
X157833298Y-93559438D01*
X157833289Y-93559443D01*
X157665007Y-93671886D01*
X157665003Y-93671889D01*
X157521890Y-93815002D01*
X157521887Y-93815006D01*
X157409444Y-93983288D01*
X157409439Y-93983297D01*
X157331986Y-94170287D01*
X157331984Y-94170295D01*
X157292500Y-94368794D01*
X157292500Y-94568605D01*
X157272815Y-94635644D01*
X157220011Y-94681399D01*
X157150853Y-94691343D01*
X157087297Y-94662318D01*
X157080819Y-94656286D01*
X154253327Y-91828794D01*
X157292500Y-91828794D01*
X157292500Y-92031203D01*
X157331984Y-92229702D01*
X157331986Y-92229710D01*
X157409439Y-92416700D01*
X157409444Y-92416709D01*
X157521887Y-92584991D01*
X157521890Y-92584995D01*
X157665003Y-92728108D01*
X157665007Y-92728111D01*
X157833289Y-92840554D01*
X157833295Y-92840557D01*
X157833296Y-92840558D01*
X158020289Y-92918013D01*
X158174102Y-92948608D01*
X158218795Y-92957498D01*
X158218799Y-92957499D01*
X158218800Y-92957499D01*
X158421201Y-92957499D01*
X158421202Y-92957498D01*
X158619711Y-92918013D01*
X158806704Y-92840558D01*
X158974993Y-92728111D01*
X159118112Y-92584992D01*
X159230559Y-92416703D01*
X159308014Y-92229710D01*
X159347500Y-92031199D01*
X159347500Y-91828799D01*
X159308014Y-91630288D01*
X159230559Y-91443295D01*
X159230558Y-91443294D01*
X159230555Y-91443288D01*
X159118112Y-91275006D01*
X159118109Y-91275002D01*
X158974996Y-91131889D01*
X158974992Y-91131886D01*
X158806710Y-91019443D01*
X158806701Y-91019438D01*
X158619711Y-90941985D01*
X158619703Y-90941983D01*
X158421204Y-90902499D01*
X158421200Y-90902499D01*
X158218800Y-90902499D01*
X158218795Y-90902499D01*
X158020296Y-90941983D01*
X158020288Y-90941985D01*
X157833298Y-91019438D01*
X157833289Y-91019443D01*
X157665007Y-91131886D01*
X157665003Y-91131889D01*
X157521890Y-91275002D01*
X157521887Y-91275006D01*
X157409444Y-91443288D01*
X157409439Y-91443297D01*
X157331986Y-91630287D01*
X157331984Y-91630295D01*
X157292500Y-91828794D01*
X154253327Y-91828794D01*
X152175519Y-89750986D01*
X152142034Y-89689663D01*
X152139200Y-89663305D01*
X152139200Y-89288794D01*
X157292500Y-89288794D01*
X157292500Y-89491203D01*
X157331984Y-89689702D01*
X157331986Y-89689710D01*
X157409439Y-89876700D01*
X157409444Y-89876709D01*
X157521887Y-90044991D01*
X157521890Y-90044995D01*
X157665003Y-90188108D01*
X157665007Y-90188111D01*
X157833289Y-90300554D01*
X157833295Y-90300557D01*
X157833296Y-90300558D01*
X158020289Y-90378013D01*
X158218795Y-90417498D01*
X158218799Y-90417499D01*
X158218800Y-90417499D01*
X158421201Y-90417499D01*
X158421202Y-90417498D01*
X158619711Y-90378013D01*
X158806704Y-90300558D01*
X158974993Y-90188111D01*
X159118112Y-90044992D01*
X159230559Y-89876703D01*
X159308014Y-89689710D01*
X159347500Y-89491199D01*
X159347500Y-89288799D01*
X159308014Y-89090288D01*
X159230559Y-88903295D01*
X159230558Y-88903294D01*
X159230555Y-88903288D01*
X159118112Y-88735006D01*
X159118109Y-88735002D01*
X158974996Y-88591889D01*
X158974992Y-88591886D01*
X158806710Y-88479443D01*
X158806701Y-88479438D01*
X158619711Y-88401985D01*
X158619703Y-88401983D01*
X158421204Y-88362499D01*
X158421200Y-88362499D01*
X158218800Y-88362499D01*
X158218795Y-88362499D01*
X158020296Y-88401983D01*
X158020288Y-88401985D01*
X157833298Y-88479438D01*
X157833289Y-88479443D01*
X157665007Y-88591886D01*
X157665003Y-88591889D01*
X157521890Y-88735002D01*
X157521887Y-88735006D01*
X157409444Y-88903288D01*
X157409439Y-88903297D01*
X157331986Y-89090287D01*
X157331984Y-89090295D01*
X157292500Y-89288794D01*
X152139200Y-89288794D01*
X152139200Y-89144748D01*
X152139200Y-89144747D01*
X152104565Y-89061132D01*
X152104563Y-89061130D01*
X152104563Y-89061129D01*
X152040570Y-88997136D01*
X151956953Y-88962500D01*
X151810779Y-88962500D01*
X151743740Y-88942815D01*
X151697985Y-88890011D01*
X151696218Y-88885953D01*
X151620560Y-88703298D01*
X151620555Y-88703289D01*
X151508112Y-88535007D01*
X151508109Y-88535003D01*
X151364996Y-88391890D01*
X151364992Y-88391887D01*
X151196710Y-88279444D01*
X151196701Y-88279439D01*
X151009711Y-88201986D01*
X151009703Y-88201984D01*
X150811204Y-88162500D01*
X150811200Y-88162500D01*
X150008800Y-88162500D01*
X150008795Y-88162500D01*
X149810296Y-88201984D01*
X149810288Y-88201986D01*
X149623298Y-88279439D01*
X149623289Y-88279444D01*
X149455007Y-88391887D01*
X149455003Y-88391890D01*
X149311890Y-88535003D01*
X149311887Y-88535007D01*
X149199444Y-88703289D01*
X149199439Y-88703298D01*
X149121986Y-88890288D01*
X149121984Y-88890296D01*
X149082500Y-89088795D01*
X135390529Y-89088795D01*
X133960570Y-87658836D01*
X133934673Y-87648109D01*
X133876953Y-87624200D01*
X133708268Y-87624200D01*
X133641229Y-87604515D01*
X133595474Y-87551711D01*
X133585530Y-87482553D01*
X133614555Y-87418997D01*
X133620587Y-87412519D01*
X133728109Y-87304996D01*
X133728112Y-87304993D01*
X133840559Y-87136704D01*
X133918014Y-86949711D01*
X133957500Y-86751200D01*
X133957500Y-86548800D01*
X133957499Y-86548795D01*
X149082500Y-86548795D01*
X149082500Y-86751204D01*
X149121984Y-86949703D01*
X149121986Y-86949711D01*
X149199439Y-87136701D01*
X149199444Y-87136710D01*
X149311887Y-87304992D01*
X149311890Y-87304996D01*
X149455003Y-87448109D01*
X149455007Y-87448112D01*
X149623289Y-87560555D01*
X149623295Y-87560558D01*
X149623296Y-87560559D01*
X149810289Y-87638014D01*
X150008795Y-87677499D01*
X150008799Y-87677500D01*
X150008800Y-87677500D01*
X150811201Y-87677500D01*
X150811202Y-87677499D01*
X151009711Y-87638014D01*
X151196704Y-87560559D01*
X151364993Y-87448112D01*
X151508112Y-87304993D01*
X151620559Y-87136704D01*
X151698014Y-86949711D01*
X151737500Y-86751200D01*
X151737500Y-86748795D01*
X157292500Y-86748795D01*
X157292500Y-86951204D01*
X157331984Y-87149703D01*
X157331986Y-87149711D01*
X157409439Y-87336701D01*
X157409444Y-87336710D01*
X157521887Y-87504992D01*
X157521890Y-87504996D01*
X157665003Y-87648109D01*
X157665007Y-87648112D01*
X157833289Y-87760555D01*
X157833295Y-87760558D01*
X157833296Y-87760559D01*
X158020289Y-87838014D01*
X158218795Y-87877499D01*
X158218799Y-87877500D01*
X158218800Y-87877500D01*
X158421201Y-87877500D01*
X158421202Y-87877499D01*
X158619711Y-87838014D01*
X158806704Y-87760559D01*
X158974993Y-87648112D01*
X159118112Y-87504993D01*
X159230559Y-87336704D01*
X159308014Y-87149711D01*
X159347500Y-86951200D01*
X159347500Y-86748800D01*
X159308014Y-86550289D01*
X159230559Y-86363296D01*
X159230558Y-86363295D01*
X159230555Y-86363289D01*
X159118112Y-86195007D01*
X159118109Y-86195003D01*
X158974996Y-86051890D01*
X158974992Y-86051887D01*
X158806710Y-85939444D01*
X158806701Y-85939439D01*
X158619711Y-85861986D01*
X158619703Y-85861984D01*
X158421204Y-85822500D01*
X158421200Y-85822500D01*
X158218800Y-85822500D01*
X158218795Y-85822500D01*
X158020296Y-85861984D01*
X158020288Y-85861986D01*
X157833298Y-85939439D01*
X157833289Y-85939444D01*
X157665007Y-86051887D01*
X157665003Y-86051890D01*
X157521890Y-86195003D01*
X157521887Y-86195007D01*
X157409444Y-86363289D01*
X157409439Y-86363298D01*
X157331986Y-86550288D01*
X157331984Y-86550296D01*
X157292500Y-86748795D01*
X151737500Y-86748795D01*
X151737500Y-86548800D01*
X151698014Y-86350289D01*
X151633694Y-86195007D01*
X151620560Y-86163298D01*
X151620555Y-86163289D01*
X151508112Y-85995007D01*
X151508109Y-85995003D01*
X151364996Y-85851890D01*
X151364992Y-85851887D01*
X151196710Y-85739444D01*
X151196701Y-85739439D01*
X151009711Y-85661986D01*
X151009703Y-85661984D01*
X150811204Y-85622500D01*
X150811200Y-85622500D01*
X150008800Y-85622500D01*
X150008795Y-85622500D01*
X149810296Y-85661984D01*
X149810288Y-85661986D01*
X149623298Y-85739439D01*
X149623289Y-85739444D01*
X149455007Y-85851887D01*
X149455003Y-85851890D01*
X149311890Y-85995003D01*
X149311887Y-85995007D01*
X149199444Y-86163289D01*
X149199439Y-86163298D01*
X149121986Y-86350288D01*
X149121984Y-86350296D01*
X149082500Y-86548795D01*
X133957499Y-86548795D01*
X133918014Y-86350289D01*
X133853694Y-86195007D01*
X133840560Y-86163298D01*
X133840555Y-86163289D01*
X133728112Y-85995007D01*
X133728109Y-85995003D01*
X133584996Y-85851890D01*
X133584992Y-85851887D01*
X133416710Y-85739444D01*
X133416701Y-85739439D01*
X133229711Y-85661986D01*
X133229703Y-85661984D01*
X133031204Y-85622500D01*
X133031200Y-85622500D01*
X132228800Y-85622500D01*
X132228795Y-85622500D01*
X132030296Y-85661984D01*
X132030288Y-85661986D01*
X131843298Y-85739439D01*
X131843289Y-85739444D01*
X131675007Y-85851887D01*
X131675003Y-85851890D01*
X131531890Y-85995003D01*
X131531887Y-85995007D01*
X131419444Y-86163289D01*
X131419439Y-86163298D01*
X131341986Y-86350288D01*
X131341984Y-86350296D01*
X131302500Y-86548795D01*
X130520500Y-86548795D01*
X130520500Y-81320000D01*
X130952145Y-81320000D01*
X132196988Y-81320000D01*
X132164075Y-81377007D01*
X132130000Y-81504174D01*
X132130000Y-81635826D01*
X132164075Y-81762993D01*
X132196988Y-81820000D01*
X130952145Y-81820000D01*
X130964473Y-81897835D01*
X130964473Y-81897838D01*
X131032567Y-82107410D01*
X131132613Y-82303760D01*
X131262142Y-82482041D01*
X131417958Y-82637857D01*
X131596239Y-82767386D01*
X131792592Y-82867433D01*
X131792590Y-82867433D01*
X131950525Y-82918748D01*
X132008201Y-82958185D01*
X132035400Y-83022543D01*
X132023486Y-83091390D01*
X131976242Y-83142866D01*
X131959661Y-83151240D01*
X131843299Y-83199439D01*
X131843289Y-83199444D01*
X131675007Y-83311887D01*
X131675003Y-83311890D01*
X131531890Y-83455003D01*
X131531887Y-83455007D01*
X131419444Y-83623289D01*
X131419439Y-83623298D01*
X131341986Y-83810288D01*
X131341984Y-83810296D01*
X131302500Y-84008795D01*
X131302500Y-84211204D01*
X131341984Y-84409703D01*
X131341986Y-84409711D01*
X131419439Y-84596701D01*
X131419444Y-84596710D01*
X131531887Y-84764992D01*
X131531890Y-84764996D01*
X131675003Y-84908109D01*
X131675007Y-84908112D01*
X131843289Y-85020555D01*
X131843295Y-85020558D01*
X131843296Y-85020559D01*
X132030289Y-85098014D01*
X132228795Y-85137499D01*
X132228799Y-85137500D01*
X132228800Y-85137500D01*
X133031201Y-85137500D01*
X133031202Y-85137499D01*
X133229711Y-85098014D01*
X133416704Y-85020559D01*
X133584993Y-84908112D01*
X133728112Y-84764993D01*
X133840559Y-84596704D01*
X133918014Y-84409711D01*
X133957500Y-84211200D01*
X133957500Y-84008800D01*
X133918014Y-83810289D01*
X133840559Y-83623296D01*
X133840558Y-83623295D01*
X133840555Y-83623289D01*
X133728112Y-83455007D01*
X133728109Y-83455003D01*
X133584996Y-83311890D01*
X133584992Y-83311887D01*
X133416710Y-83199444D01*
X133416700Y-83199439D01*
X133300338Y-83151240D01*
X133245935Y-83107399D01*
X133223870Y-83041104D01*
X133241149Y-82973405D01*
X133292287Y-82925795D01*
X133309474Y-82918748D01*
X133467408Y-82867433D01*
X133663760Y-82767386D01*
X133842041Y-82637857D01*
X133997857Y-82482041D01*
X134127386Y-82303760D01*
X134227432Y-82107410D01*
X134295526Y-81897838D01*
X134295526Y-81897835D01*
X134307855Y-81820000D01*
X133063012Y-81820000D01*
X133095925Y-81762993D01*
X133130000Y-81635826D01*
X133130000Y-81504174D01*
X133095925Y-81377007D01*
X133063012Y-81320000D01*
X134307855Y-81320000D01*
X148732145Y-81320000D01*
X149976988Y-81320000D01*
X149944075Y-81377007D01*
X149910000Y-81504174D01*
X149910000Y-81635826D01*
X149944075Y-81762993D01*
X149976988Y-81820000D01*
X148732145Y-81820000D01*
X148744473Y-81897835D01*
X148744473Y-81897838D01*
X148812567Y-82107410D01*
X148912613Y-82303760D01*
X149042142Y-82482041D01*
X149197958Y-82637857D01*
X149376239Y-82767386D01*
X149572592Y-82867433D01*
X149572590Y-82867433D01*
X149730525Y-82918748D01*
X149788201Y-82958185D01*
X149815400Y-83022543D01*
X149803486Y-83091390D01*
X149756242Y-83142866D01*
X149739661Y-83151240D01*
X149623299Y-83199439D01*
X149623289Y-83199444D01*
X149455007Y-83311887D01*
X149455003Y-83311890D01*
X149311890Y-83455003D01*
X149311887Y-83455007D01*
X149199444Y-83623289D01*
X149199439Y-83623298D01*
X149121986Y-83810288D01*
X149121984Y-83810296D01*
X149082500Y-84008795D01*
X149082500Y-84211204D01*
X149121984Y-84409703D01*
X149121986Y-84409711D01*
X149199439Y-84596701D01*
X149199444Y-84596710D01*
X149311887Y-84764992D01*
X149311890Y-84764996D01*
X149455003Y-84908109D01*
X149455007Y-84908112D01*
X149623289Y-85020555D01*
X149623295Y-85020558D01*
X149623296Y-85020559D01*
X149810289Y-85098014D01*
X150008795Y-85137499D01*
X150008799Y-85137500D01*
X150008800Y-85137500D01*
X150811201Y-85137500D01*
X150811202Y-85137499D01*
X151009711Y-85098014D01*
X151196704Y-85020559D01*
X151364993Y-84908112D01*
X151508112Y-84764993D01*
X151620559Y-84596704D01*
X151698014Y-84409711D01*
X151737500Y-84211200D01*
X151737500Y-84208794D01*
X157292500Y-84208794D01*
X157292500Y-84411203D01*
X157331984Y-84609702D01*
X157331986Y-84609710D01*
X157409439Y-84796700D01*
X157409444Y-84796709D01*
X157521887Y-84964991D01*
X157521890Y-84964995D01*
X157665003Y-85108108D01*
X157665007Y-85108111D01*
X157833289Y-85220554D01*
X157833295Y-85220557D01*
X157833296Y-85220558D01*
X158020289Y-85298013D01*
X158218795Y-85337498D01*
X158218799Y-85337499D01*
X158218800Y-85337499D01*
X158421201Y-85337499D01*
X158421202Y-85337498D01*
X158619711Y-85298013D01*
X158806704Y-85220558D01*
X158974993Y-85108111D01*
X159118112Y-84964992D01*
X159230559Y-84796703D01*
X159308014Y-84609710D01*
X159347500Y-84411199D01*
X159347500Y-84208799D01*
X159308014Y-84010288D01*
X159230559Y-83823295D01*
X159230558Y-83823294D01*
X159230555Y-83823288D01*
X159118112Y-83655006D01*
X159118109Y-83655002D01*
X158974996Y-83511889D01*
X158974992Y-83511886D01*
X158806710Y-83399443D01*
X158806701Y-83399438D01*
X158619711Y-83321985D01*
X158619703Y-83321983D01*
X158421204Y-83282499D01*
X158421200Y-83282499D01*
X158218800Y-83282499D01*
X158218795Y-83282499D01*
X158020296Y-83321983D01*
X158020288Y-83321985D01*
X157833298Y-83399438D01*
X157833289Y-83399443D01*
X157665007Y-83511886D01*
X157665003Y-83511889D01*
X157521890Y-83655002D01*
X157521887Y-83655006D01*
X157409444Y-83823288D01*
X157409439Y-83823297D01*
X157331986Y-84010287D01*
X157331984Y-84010295D01*
X157292500Y-84208794D01*
X151737500Y-84208794D01*
X151737500Y-84008800D01*
X151698014Y-83810289D01*
X151620559Y-83623296D01*
X151620558Y-83623295D01*
X151620555Y-83623289D01*
X151508112Y-83455007D01*
X151508109Y-83455003D01*
X151364996Y-83311890D01*
X151364992Y-83311887D01*
X151196710Y-83199444D01*
X151196700Y-83199439D01*
X151080338Y-83151240D01*
X151025935Y-83107399D01*
X151003870Y-83041104D01*
X151021149Y-82973405D01*
X151072287Y-82925795D01*
X151089474Y-82918748D01*
X151247408Y-82867433D01*
X151443760Y-82767386D01*
X151622041Y-82637857D01*
X151777857Y-82482041D01*
X151907386Y-82303760D01*
X152007432Y-82107410D01*
X152075526Y-81897838D01*
X152075526Y-81897835D01*
X152087855Y-81820000D01*
X150843012Y-81820000D01*
X150875925Y-81762993D01*
X150910000Y-81635826D01*
X150910000Y-81504174D01*
X150875925Y-81377007D01*
X150843012Y-81320000D01*
X152087855Y-81320000D01*
X152075526Y-81242164D01*
X152075526Y-81242161D01*
X152007432Y-81032589D01*
X151907386Y-80836239D01*
X151777857Y-80657958D01*
X151622041Y-80502142D01*
X151443760Y-80372613D01*
X151247410Y-80272567D01*
X151089473Y-80221251D01*
X151031798Y-80181814D01*
X151004599Y-80117455D01*
X151016513Y-80048609D01*
X151063757Y-79997133D01*
X151080339Y-79988759D01*
X151196697Y-79940562D01*
X151196697Y-79940561D01*
X151196704Y-79940559D01*
X151364993Y-79828112D01*
X151508112Y-79684993D01*
X151620559Y-79516704D01*
X151698014Y-79329711D01*
X151737500Y-79131200D01*
X151737500Y-79119817D01*
X156920000Y-79119817D01*
X156920000Y-79340180D01*
X156954473Y-79557834D01*
X157022567Y-79767409D01*
X157122611Y-79963755D01*
X157168932Y-80027512D01*
X157837037Y-79359407D01*
X157854075Y-79422992D01*
X157919901Y-79537006D01*
X158012993Y-79630098D01*
X158127007Y-79695924D01*
X158190590Y-79712961D01*
X157522485Y-80381064D01*
X157522485Y-80381065D01*
X157586243Y-80427387D01*
X157782589Y-80527431D01*
X157940527Y-80578748D01*
X157998202Y-80618185D01*
X158025401Y-80682544D01*
X158013487Y-80751390D01*
X157966243Y-80802866D01*
X157949662Y-80811240D01*
X157833299Y-80859439D01*
X157833289Y-80859444D01*
X157665007Y-80971887D01*
X157665003Y-80971890D01*
X157521890Y-81115003D01*
X157521887Y-81115007D01*
X157409444Y-81283289D01*
X157409439Y-81283298D01*
X157331986Y-81470288D01*
X157331984Y-81470296D01*
X157292500Y-81668795D01*
X157292500Y-81871204D01*
X157331984Y-82069703D01*
X157331986Y-82069711D01*
X157409439Y-82256701D01*
X157409444Y-82256710D01*
X157521887Y-82424992D01*
X157521890Y-82424996D01*
X157665003Y-82568109D01*
X157665007Y-82568112D01*
X157833289Y-82680555D01*
X157833295Y-82680558D01*
X157833296Y-82680559D01*
X158020289Y-82758014D01*
X158218795Y-82797499D01*
X158218799Y-82797500D01*
X158218800Y-82797500D01*
X158421201Y-82797500D01*
X158421202Y-82797499D01*
X158619711Y-82758014D01*
X158806704Y-82680559D01*
X158974993Y-82568112D01*
X159118112Y-82424993D01*
X159230559Y-82256704D01*
X159308014Y-82069711D01*
X159347500Y-81871200D01*
X159347500Y-81668800D01*
X159308014Y-81470289D01*
X159230559Y-81283296D01*
X159230558Y-81283295D01*
X159230555Y-81283289D01*
X159118112Y-81115007D01*
X159118109Y-81115003D01*
X158974996Y-80971890D01*
X158974992Y-80971887D01*
X158806710Y-80859444D01*
X158806701Y-80859439D01*
X158690337Y-80811240D01*
X158635934Y-80767399D01*
X158613869Y-80701105D01*
X158631148Y-80633406D01*
X158682285Y-80585795D01*
X158699472Y-80578748D01*
X158857410Y-80527431D01*
X159053760Y-80427385D01*
X159117513Y-80381065D01*
X159117514Y-80381065D01*
X158449409Y-79712961D01*
X158512993Y-79695924D01*
X158627007Y-79630098D01*
X158720099Y-79537006D01*
X158785925Y-79422992D01*
X158802962Y-79359409D01*
X159471066Y-80027513D01*
X159471066Y-80027512D01*
X159517386Y-79963759D01*
X159617432Y-79767409D01*
X159685526Y-79557834D01*
X159720000Y-79340180D01*
X159720000Y-79119817D01*
X159685526Y-78902163D01*
X159617432Y-78692588D01*
X159517388Y-78496242D01*
X159471066Y-78432484D01*
X159471065Y-78432484D01*
X158802962Y-79100588D01*
X158785925Y-79037006D01*
X158720099Y-78922992D01*
X158627007Y-78829900D01*
X158512993Y-78764074D01*
X158449407Y-78747036D01*
X159117513Y-78078931D01*
X159053756Y-78032610D01*
X158857410Y-77932566D01*
X158647835Y-77864472D01*
X158430181Y-77829999D01*
X158209819Y-77829999D01*
X157992164Y-77864472D01*
X157782589Y-77932566D01*
X157586233Y-78032615D01*
X157522485Y-78078930D01*
X157522485Y-78078931D01*
X158190590Y-78747036D01*
X158127007Y-78764074D01*
X158012993Y-78829900D01*
X157919901Y-78922992D01*
X157854075Y-79037006D01*
X157837037Y-79100589D01*
X157168932Y-78432484D01*
X157168931Y-78432484D01*
X157122616Y-78496232D01*
X157022567Y-78692588D01*
X156954473Y-78902163D01*
X156920000Y-79119817D01*
X151737500Y-79119817D01*
X151737500Y-78928800D01*
X151698014Y-78730289D01*
X151620559Y-78543296D01*
X151620558Y-78543295D01*
X151620555Y-78543289D01*
X151508112Y-78375007D01*
X151508109Y-78375003D01*
X151364996Y-78231890D01*
X151364991Y-78231886D01*
X151361110Y-78229293D01*
X151361108Y-78229292D01*
X151196710Y-78119444D01*
X151196701Y-78119439D01*
X151009711Y-78041986D01*
X151009703Y-78041984D01*
X150811204Y-78002500D01*
X150811200Y-78002500D01*
X150008800Y-78002500D01*
X150008795Y-78002500D01*
X149810296Y-78041984D01*
X149810288Y-78041986D01*
X149623298Y-78119439D01*
X149623289Y-78119444D01*
X149455007Y-78231887D01*
X149455003Y-78231890D01*
X149311890Y-78375003D01*
X149311887Y-78375007D01*
X149199444Y-78543289D01*
X149199439Y-78543298D01*
X149121986Y-78730288D01*
X149121984Y-78730296D01*
X149082500Y-78928795D01*
X149082500Y-79131204D01*
X149121984Y-79329703D01*
X149121986Y-79329711D01*
X149199439Y-79516701D01*
X149199444Y-79516710D01*
X149311887Y-79684992D01*
X149311890Y-79684996D01*
X149455003Y-79828109D01*
X149455007Y-79828112D01*
X149623289Y-79940555D01*
X149623298Y-79940560D01*
X149739661Y-79988759D01*
X149794064Y-80032600D01*
X149816129Y-80098894D01*
X149798850Y-80166593D01*
X149747713Y-80214204D01*
X149730526Y-80221251D01*
X149572589Y-80272567D01*
X149376239Y-80372613D01*
X149197958Y-80502142D01*
X149042142Y-80657958D01*
X148912613Y-80836239D01*
X148812567Y-81032589D01*
X148744473Y-81242161D01*
X148744473Y-81242164D01*
X148732145Y-81320000D01*
X134307855Y-81320000D01*
X134295526Y-81242164D01*
X134295526Y-81242161D01*
X134227432Y-81032589D01*
X134127386Y-80836239D01*
X133997857Y-80657958D01*
X133842041Y-80502142D01*
X133663760Y-80372613D01*
X133467410Y-80272567D01*
X133309473Y-80221251D01*
X133251798Y-80181814D01*
X133224599Y-80117455D01*
X133236513Y-80048609D01*
X133283757Y-79997133D01*
X133300339Y-79988759D01*
X133416697Y-79940562D01*
X133416697Y-79940561D01*
X133416704Y-79940559D01*
X133584993Y-79828112D01*
X133728112Y-79684993D01*
X133840559Y-79516704D01*
X133918014Y-79329711D01*
X133957500Y-79131200D01*
X133957500Y-78928800D01*
X133918014Y-78730289D01*
X133840559Y-78543296D01*
X133840558Y-78543295D01*
X133840555Y-78543289D01*
X133728112Y-78375007D01*
X133728109Y-78375003D01*
X133584996Y-78231890D01*
X133584992Y-78231887D01*
X133416710Y-78119444D01*
X133416701Y-78119439D01*
X133229711Y-78041986D01*
X133229703Y-78041984D01*
X133031204Y-78002500D01*
X133031200Y-78002500D01*
X132228800Y-78002500D01*
X132228795Y-78002500D01*
X132030296Y-78041984D01*
X132030288Y-78041986D01*
X131843298Y-78119439D01*
X131843289Y-78119444D01*
X131675007Y-78231887D01*
X131675003Y-78231890D01*
X131531890Y-78375003D01*
X131531887Y-78375007D01*
X131419444Y-78543289D01*
X131419439Y-78543298D01*
X131341986Y-78730288D01*
X131341984Y-78730296D01*
X131302500Y-78928795D01*
X131302500Y-79131204D01*
X131341984Y-79329703D01*
X131341986Y-79329711D01*
X131419439Y-79516701D01*
X131419444Y-79516710D01*
X131531887Y-79684992D01*
X131531890Y-79684996D01*
X131675003Y-79828109D01*
X131675007Y-79828112D01*
X131843289Y-79940555D01*
X131843298Y-79940560D01*
X131959661Y-79988759D01*
X132014064Y-80032600D01*
X132036129Y-80098894D01*
X132018850Y-80166593D01*
X131967713Y-80214204D01*
X131950526Y-80221251D01*
X131792589Y-80272567D01*
X131596239Y-80372613D01*
X131417958Y-80502142D01*
X131262142Y-80657958D01*
X131132613Y-80836239D01*
X131032567Y-81032589D01*
X130964473Y-81242161D01*
X130964473Y-81242164D01*
X130952145Y-81320000D01*
X130520500Y-81320000D01*
X130520500Y-76388795D01*
X131302500Y-76388795D01*
X131302500Y-76591204D01*
X131341984Y-76789703D01*
X131341986Y-76789711D01*
X131419439Y-76976701D01*
X131419444Y-76976710D01*
X131531887Y-77144992D01*
X131531890Y-77144996D01*
X131675003Y-77288109D01*
X131675007Y-77288112D01*
X131843289Y-77400555D01*
X131843295Y-77400558D01*
X131843296Y-77400559D01*
X132030289Y-77478014D01*
X132228795Y-77517499D01*
X132228799Y-77517500D01*
X132228800Y-77517500D01*
X133031201Y-77517500D01*
X133031202Y-77517499D01*
X133229711Y-77478014D01*
X133416704Y-77400559D01*
X133584993Y-77288112D01*
X133728112Y-77144993D01*
X133840559Y-76976704D01*
X133918014Y-76789711D01*
X133957500Y-76591200D01*
X133957500Y-76388800D01*
X133957499Y-76388795D01*
X149082500Y-76388795D01*
X149082500Y-76591204D01*
X149121984Y-76789703D01*
X149121986Y-76789711D01*
X149199439Y-76976701D01*
X149199444Y-76976710D01*
X149311887Y-77144992D01*
X149311890Y-77144996D01*
X149455003Y-77288109D01*
X149455007Y-77288112D01*
X149623289Y-77400555D01*
X149623295Y-77400558D01*
X149623296Y-77400559D01*
X149810289Y-77478014D01*
X150008795Y-77517499D01*
X150008799Y-77517500D01*
X150008800Y-77517500D01*
X150811201Y-77517500D01*
X150811202Y-77517499D01*
X151009711Y-77478014D01*
X151196704Y-77400559D01*
X151364993Y-77288112D01*
X151508112Y-77144993D01*
X151620559Y-76976704D01*
X151696218Y-76794047D01*
X151740059Y-76739644D01*
X151806353Y-76717579D01*
X151810779Y-76717500D01*
X173214405Y-76717500D01*
X173281444Y-76737185D01*
X173302086Y-76753819D01*
X182780764Y-86232498D01*
X182814249Y-86293821D01*
X182809265Y-86363513D01*
X182807644Y-86367631D01*
X182731987Y-86550284D01*
X182731984Y-86550296D01*
X182692500Y-86748795D01*
X182692500Y-86951204D01*
X182731984Y-87149703D01*
X182731986Y-87149711D01*
X182809439Y-87336701D01*
X182809444Y-87336710D01*
X182921887Y-87504992D01*
X182921890Y-87504996D01*
X183065003Y-87648109D01*
X183065007Y-87648112D01*
X183233289Y-87760555D01*
X183233295Y-87760558D01*
X183233296Y-87760559D01*
X183420289Y-87838014D01*
X183618795Y-87877499D01*
X183618799Y-87877500D01*
X183618800Y-87877500D01*
X183821201Y-87877500D01*
X183821202Y-87877499D01*
X184019711Y-87838014D01*
X184206704Y-87760559D01*
X184374993Y-87648112D01*
X184518112Y-87504993D01*
X184630559Y-87336704D01*
X184708014Y-87149711D01*
X184747500Y-86951200D01*
X184747500Y-86748800D01*
X184708014Y-86550289D01*
X184630559Y-86363296D01*
X184630558Y-86363295D01*
X184630555Y-86363289D01*
X184518112Y-86195007D01*
X184518109Y-86195003D01*
X184374996Y-86051890D01*
X184374992Y-86051887D01*
X184206710Y-85939444D01*
X184206701Y-85939439D01*
X184019711Y-85861986D01*
X184019703Y-85861984D01*
X183821204Y-85822500D01*
X183821200Y-85822500D01*
X183618800Y-85822500D01*
X183618795Y-85822500D01*
X183420296Y-85861984D01*
X183420284Y-85861987D01*
X183237631Y-85937644D01*
X183168162Y-85945113D01*
X183105683Y-85913837D01*
X183102498Y-85910764D01*
X181400528Y-84208794D01*
X182692500Y-84208794D01*
X182692500Y-84411203D01*
X182731984Y-84609702D01*
X182731986Y-84609710D01*
X182809439Y-84796700D01*
X182809444Y-84796709D01*
X182921887Y-84964991D01*
X182921890Y-84964995D01*
X183065003Y-85108108D01*
X183065007Y-85108111D01*
X183233289Y-85220554D01*
X183233295Y-85220557D01*
X183233296Y-85220558D01*
X183420289Y-85298013D01*
X183618795Y-85337498D01*
X183618799Y-85337499D01*
X183618800Y-85337499D01*
X183821201Y-85337499D01*
X183821202Y-85337498D01*
X184019711Y-85298013D01*
X184206704Y-85220558D01*
X184374993Y-85108111D01*
X184518112Y-84964992D01*
X184630559Y-84796703D01*
X184708014Y-84609710D01*
X184747500Y-84411199D01*
X184747500Y-84208799D01*
X184708014Y-84010288D01*
X184630559Y-83823295D01*
X184630558Y-83823294D01*
X184630555Y-83823288D01*
X184518112Y-83655006D01*
X184518109Y-83655002D01*
X184374996Y-83511889D01*
X184374992Y-83511886D01*
X184206710Y-83399443D01*
X184206701Y-83399438D01*
X184019711Y-83321985D01*
X184019703Y-83321983D01*
X183821204Y-83282499D01*
X183821200Y-83282499D01*
X183618800Y-83282499D01*
X183618795Y-83282499D01*
X183420296Y-83321983D01*
X183420288Y-83321985D01*
X183233298Y-83399438D01*
X183233289Y-83399443D01*
X183065007Y-83511886D01*
X183065003Y-83511889D01*
X182921890Y-83655002D01*
X182921887Y-83655006D01*
X182809444Y-83823288D01*
X182809439Y-83823297D01*
X182731986Y-84010287D01*
X182731984Y-84010295D01*
X182692500Y-84208794D01*
X181400528Y-84208794D01*
X178860529Y-81668795D01*
X182692500Y-81668795D01*
X182692500Y-81871204D01*
X182731984Y-82069703D01*
X182731986Y-82069711D01*
X182809439Y-82256701D01*
X182809444Y-82256710D01*
X182921887Y-82424992D01*
X182921890Y-82424996D01*
X183065003Y-82568109D01*
X183065007Y-82568112D01*
X183233289Y-82680555D01*
X183233295Y-82680558D01*
X183233296Y-82680559D01*
X183420289Y-82758014D01*
X183618795Y-82797499D01*
X183618799Y-82797500D01*
X183618800Y-82797500D01*
X183821201Y-82797500D01*
X183821202Y-82797499D01*
X184019711Y-82758014D01*
X184206704Y-82680559D01*
X184374993Y-82568112D01*
X184518112Y-82424993D01*
X184630559Y-82256704D01*
X184708014Y-82069711D01*
X184747500Y-81871200D01*
X184747500Y-81668800D01*
X184708014Y-81470289D01*
X184630559Y-81283296D01*
X184630558Y-81283295D01*
X184630555Y-81283289D01*
X184518112Y-81115007D01*
X184518109Y-81115003D01*
X184374996Y-80971890D01*
X184374992Y-80971887D01*
X184206710Y-80859444D01*
X184206701Y-80859439D01*
X184019711Y-80781986D01*
X184019703Y-80781984D01*
X183821204Y-80742500D01*
X183821200Y-80742500D01*
X183618800Y-80742500D01*
X183618795Y-80742500D01*
X183420296Y-80781984D01*
X183420288Y-80781986D01*
X183233298Y-80859439D01*
X183233289Y-80859444D01*
X183065007Y-80971887D01*
X183065003Y-80971890D01*
X182921890Y-81115003D01*
X182921887Y-81115007D01*
X182809444Y-81283289D01*
X182809439Y-81283298D01*
X182731986Y-81470288D01*
X182731984Y-81470296D01*
X182692500Y-81668795D01*
X178860529Y-81668795D01*
X176320528Y-79128794D01*
X182692500Y-79128794D01*
X182692500Y-79331203D01*
X182731984Y-79529702D01*
X182731986Y-79529710D01*
X182809439Y-79716700D01*
X182809444Y-79716709D01*
X182921887Y-79884991D01*
X182921890Y-79884995D01*
X183065003Y-80028108D01*
X183065007Y-80028111D01*
X183233289Y-80140554D01*
X183233295Y-80140557D01*
X183233296Y-80140558D01*
X183420289Y-80218013D01*
X183618795Y-80257498D01*
X183618799Y-80257499D01*
X183618800Y-80257499D01*
X183821201Y-80257499D01*
X183821202Y-80257498D01*
X184019711Y-80218013D01*
X184206704Y-80140558D01*
X184374993Y-80028111D01*
X184518112Y-79884992D01*
X184630559Y-79716703D01*
X184708014Y-79529710D01*
X184747500Y-79331199D01*
X184747500Y-79128799D01*
X184708014Y-78930288D01*
X184630559Y-78743295D01*
X184630558Y-78743294D01*
X184630555Y-78743288D01*
X184518112Y-78575006D01*
X184518109Y-78575002D01*
X184374996Y-78431889D01*
X184374992Y-78431886D01*
X184206710Y-78319443D01*
X184206701Y-78319438D01*
X184019711Y-78241985D01*
X184019703Y-78241983D01*
X183821204Y-78202499D01*
X183821200Y-78202499D01*
X183618800Y-78202499D01*
X183618795Y-78202499D01*
X183420296Y-78241983D01*
X183420288Y-78241985D01*
X183233298Y-78319438D01*
X183233289Y-78319443D01*
X183065007Y-78431886D01*
X183065003Y-78431889D01*
X182921890Y-78575002D01*
X182921887Y-78575006D01*
X182809444Y-78743288D01*
X182809439Y-78743297D01*
X182731986Y-78930287D01*
X182731984Y-78930295D01*
X182692500Y-79128794D01*
X176320528Y-79128794D01*
X173488870Y-76297136D01*
X173405253Y-76262500D01*
X151810779Y-76262500D01*
X151743740Y-76242815D01*
X151697985Y-76190011D01*
X151696218Y-76185953D01*
X151620560Y-76003298D01*
X151620555Y-76003289D01*
X151508112Y-75835007D01*
X151508109Y-75835003D01*
X151364996Y-75691890D01*
X151364992Y-75691887D01*
X151196710Y-75579444D01*
X151196701Y-75579439D01*
X151009711Y-75501986D01*
X151009703Y-75501984D01*
X150811204Y-75462500D01*
X150811200Y-75462500D01*
X150008800Y-75462500D01*
X150008795Y-75462500D01*
X149810296Y-75501984D01*
X149810288Y-75501986D01*
X149623298Y-75579439D01*
X149623289Y-75579444D01*
X149455007Y-75691887D01*
X149455003Y-75691890D01*
X149311890Y-75835003D01*
X149311887Y-75835007D01*
X149199444Y-76003289D01*
X149199439Y-76003298D01*
X149121986Y-76190288D01*
X149121984Y-76190296D01*
X149082500Y-76388795D01*
X133957499Y-76388795D01*
X133918014Y-76190289D01*
X133840559Y-76003296D01*
X133840558Y-76003295D01*
X133840555Y-76003289D01*
X133728112Y-75835007D01*
X133728109Y-75835003D01*
X133584996Y-75691890D01*
X133584992Y-75691887D01*
X133416710Y-75579444D01*
X133416701Y-75579439D01*
X133229711Y-75501986D01*
X133229703Y-75501984D01*
X133031204Y-75462500D01*
X133031200Y-75462500D01*
X132228800Y-75462500D01*
X132228795Y-75462500D01*
X132030296Y-75501984D01*
X132030288Y-75501986D01*
X131843298Y-75579439D01*
X131843289Y-75579444D01*
X131675007Y-75691887D01*
X131675003Y-75691890D01*
X131531890Y-75835003D01*
X131531887Y-75835007D01*
X131419444Y-76003289D01*
X131419439Y-76003298D01*
X131341986Y-76190288D01*
X131341984Y-76190296D01*
X131302500Y-76388795D01*
X130520500Y-76388795D01*
X130520500Y-73744500D01*
X130540185Y-73677461D01*
X130592989Y-73631706D01*
X130644500Y-73620500D01*
X189395500Y-73620500D01*
X189462539Y-73640185D01*
G37*
%TD.AperFunction*%
%TD*%
M02*
