%TF.GenerationSoftware,KiCad,Pcbnew,10.0.6*%
%TF.CreationDate,2026-09-18T22:19:53-03:00*%
%TF.ProjectId,pcbcomando,70636263-6f6d-4616-9e64-6f2e6b696361,1.1*%
%TF.SameCoordinates,Original*%
%TF.FileFunction,Legend,Top*%
%TF.FilePolarity,Positive*%
%FSLAX46Y46*%
G04 Gerber Fmt 4.6, Leading zero omitted, Abs format (unit mm)*
G04 Created by KiCad (PCBNEW 10.0.6) date 2026-09-18 22:19:53*
%MOMM*%
%LPD*%
G01*
G04 APERTURE LIST*
G04 Aperture macros list*
%AMRoundRect*
0 Rectangle with rounded corners*
0 $1 Rounding radius*
0 $2 $3 $4 $5 $6 $7 $8 $9 X,Y pos of 4 corners*
0 Add a 4 corners polygon primitive as box body*
4,1,4,$2,$3,$4,$5,$6,$7,$8,$9,$2,$3,0*
0 Add four circle primitives for the rounded corners*
1,1,$1+$1,$2,$3*
1,1,$1+$1,$4,$5*
1,1,$1+$1,$6,$7*
1,1,$1+$1,$8,$9*
0 Add four rect primitives between the rounded corners*
20,1,$1+$1,$2,$3,$4,$5,0*
20,1,$1+$1,$4,$5,$6,$7,0*
20,1,$1+$1,$6,$7,$8,$9,0*
20,1,$1+$1,$8,$9,$2,$3,0*%
G04 Aperture macros list end*
%ADD10C,0.125000*%
%ADD11C,0.150000*%
%ADD12C,0.120000*%
%ADD13C,0.360000*%
%ADD14RoundRect,0.249999X-0.850001X-0.850001X0.850001X-0.850001X0.850001X0.850001X-0.850001X0.850001X0*%
%ADD15C,2.200000*%
%ADD16R,1.800000X1.800000*%
%ADD17C,1.800000*%
%ADD18C,1.600000*%
%ADD19R,1.700000X1.700000*%
%ADD20C,1.700000*%
%ADD21RoundRect,0.250000X-0.550000X-0.550000X0.550000X-0.550000X0.550000X0.550000X-0.550000X0.550000X0*%
%ADD22O,2.400000X1.800000*%
G04 APERTURE END LIST*
D10*
X136261905Y-129856119D02*
X136261905Y-128856119D01*
X136261905Y-128856119D02*
X136500000Y-128856119D01*
X136500000Y-128856119D02*
X136642857Y-128903738D01*
X136642857Y-128903738D02*
X136738095Y-128998976D01*
X136738095Y-128998976D02*
X136785714Y-129094214D01*
X136785714Y-129094214D02*
X136833333Y-129284690D01*
X136833333Y-129284690D02*
X136833333Y-129427547D01*
X136833333Y-129427547D02*
X136785714Y-129618023D01*
X136785714Y-129618023D02*
X136738095Y-129713261D01*
X136738095Y-129713261D02*
X136642857Y-129808500D01*
X136642857Y-129808500D02*
X136500000Y-129856119D01*
X136500000Y-129856119D02*
X136261905Y-129856119D01*
X137166667Y-128856119D02*
X137785714Y-128856119D01*
X137785714Y-128856119D02*
X137452381Y-129237071D01*
X137452381Y-129237071D02*
X137595238Y-129237071D01*
X137595238Y-129237071D02*
X137690476Y-129284690D01*
X137690476Y-129284690D02*
X137738095Y-129332309D01*
X137738095Y-129332309D02*
X137785714Y-129427547D01*
X137785714Y-129427547D02*
X137785714Y-129665642D01*
X137785714Y-129665642D02*
X137738095Y-129760880D01*
X137738095Y-129760880D02*
X137690476Y-129808500D01*
X137690476Y-129808500D02*
X137595238Y-129856119D01*
X137595238Y-129856119D02*
X137309524Y-129856119D01*
X137309524Y-129856119D02*
X137214286Y-129808500D01*
X137214286Y-129808500D02*
X137166667Y-129760880D01*
D11*
X157551905Y-123614819D02*
X157551905Y-122614819D01*
X157551905Y-122614819D02*
X157790000Y-122614819D01*
X157790000Y-122614819D02*
X157932857Y-122662438D01*
X157932857Y-122662438D02*
X158028095Y-122757676D01*
X158028095Y-122757676D02*
X158075714Y-122852914D01*
X158075714Y-122852914D02*
X158123333Y-123043390D01*
X158123333Y-123043390D02*
X158123333Y-123186247D01*
X158123333Y-123186247D02*
X158075714Y-123376723D01*
X158075714Y-123376723D02*
X158028095Y-123471961D01*
X158028095Y-123471961D02*
X157932857Y-123567200D01*
X157932857Y-123567200D02*
X157790000Y-123614819D01*
X157790000Y-123614819D02*
X157551905Y-123614819D01*
X158504286Y-122710057D02*
X158551905Y-122662438D01*
X158551905Y-122662438D02*
X158647143Y-122614819D01*
X158647143Y-122614819D02*
X158885238Y-122614819D01*
X158885238Y-122614819D02*
X158980476Y-122662438D01*
X158980476Y-122662438D02*
X159028095Y-122710057D01*
X159028095Y-122710057D02*
X159075714Y-122805295D01*
X159075714Y-122805295D02*
X159075714Y-122900533D01*
X159075714Y-122900533D02*
X159028095Y-123043390D01*
X159028095Y-123043390D02*
X158456667Y-123614819D01*
X158456667Y-123614819D02*
X159075714Y-123614819D01*
D10*
X186583333Y-101660880D02*
X186535714Y-101708500D01*
X186535714Y-101708500D02*
X186392857Y-101756119D01*
X186392857Y-101756119D02*
X186297619Y-101756119D01*
X186297619Y-101756119D02*
X186154762Y-101708500D01*
X186154762Y-101708500D02*
X186059524Y-101613261D01*
X186059524Y-101613261D02*
X186011905Y-101518023D01*
X186011905Y-101518023D02*
X185964286Y-101327547D01*
X185964286Y-101327547D02*
X185964286Y-101184690D01*
X185964286Y-101184690D02*
X186011905Y-100994214D01*
X186011905Y-100994214D02*
X186059524Y-100898976D01*
X186059524Y-100898976D02*
X186154762Y-100803738D01*
X186154762Y-100803738D02*
X186297619Y-100756119D01*
X186297619Y-100756119D02*
X186392857Y-100756119D01*
X186392857Y-100756119D02*
X186535714Y-100803738D01*
X186535714Y-100803738D02*
X186583333Y-100851357D01*
X187535714Y-101756119D02*
X186964286Y-101756119D01*
X187250000Y-101756119D02*
X187250000Y-100756119D01*
X187250000Y-100756119D02*
X187154762Y-100898976D01*
X187154762Y-100898976D02*
X187059524Y-100994214D01*
X187059524Y-100994214D02*
X186964286Y-101041833D01*
X186686666Y-123206119D02*
X186686666Y-123920404D01*
X186686666Y-123920404D02*
X186639047Y-124063261D01*
X186639047Y-124063261D02*
X186543809Y-124158500D01*
X186543809Y-124158500D02*
X186400952Y-124206119D01*
X186400952Y-124206119D02*
X186305714Y-124206119D01*
X187067619Y-123206119D02*
X187734285Y-123206119D01*
X187734285Y-123206119D02*
X187305714Y-124206119D01*
D11*
X186686666Y-118694819D02*
X186686666Y-119409104D01*
X186686666Y-119409104D02*
X186639047Y-119551961D01*
X186639047Y-119551961D02*
X186543809Y-119647200D01*
X186543809Y-119647200D02*
X186400952Y-119694819D01*
X186400952Y-119694819D02*
X186305714Y-119694819D01*
X187591428Y-118694819D02*
X187400952Y-118694819D01*
X187400952Y-118694819D02*
X187305714Y-118742438D01*
X187305714Y-118742438D02*
X187258095Y-118790057D01*
X187258095Y-118790057D02*
X187162857Y-118932914D01*
X187162857Y-118932914D02*
X187115238Y-119123390D01*
X187115238Y-119123390D02*
X187115238Y-119504342D01*
X187115238Y-119504342D02*
X187162857Y-119599580D01*
X187162857Y-119599580D02*
X187210476Y-119647200D01*
X187210476Y-119647200D02*
X187305714Y-119694819D01*
X187305714Y-119694819D02*
X187496190Y-119694819D01*
X187496190Y-119694819D02*
X187591428Y-119647200D01*
X187591428Y-119647200D02*
X187639047Y-119599580D01*
X187639047Y-119599580D02*
X187686666Y-119504342D01*
X187686666Y-119504342D02*
X187686666Y-119266247D01*
X187686666Y-119266247D02*
X187639047Y-119171009D01*
X187639047Y-119171009D02*
X187591428Y-119123390D01*
X187591428Y-119123390D02*
X187496190Y-119075771D01*
X187496190Y-119075771D02*
X187305714Y-119075771D01*
X187305714Y-119075771D02*
X187210476Y-119123390D01*
X187210476Y-119123390D02*
X187162857Y-119171009D01*
X187162857Y-119171009D02*
X187115238Y-119266247D01*
X176686666Y-118694819D02*
X176686666Y-119409104D01*
X176686666Y-119409104D02*
X176639047Y-119551961D01*
X176639047Y-119551961D02*
X176543809Y-119647200D01*
X176543809Y-119647200D02*
X176400952Y-119694819D01*
X176400952Y-119694819D02*
X176305714Y-119694819D01*
X177591428Y-119028152D02*
X177591428Y-119694819D01*
X177353333Y-118647200D02*
X177115238Y-119361485D01*
X177115238Y-119361485D02*
X177734285Y-119361485D01*
D10*
X170258095Y-73776119D02*
X170258095Y-74585642D01*
X170258095Y-74585642D02*
X170305714Y-74680880D01*
X170305714Y-74680880D02*
X170353333Y-74728500D01*
X170353333Y-74728500D02*
X170448571Y-74776119D01*
X170448571Y-74776119D02*
X170639047Y-74776119D01*
X170639047Y-74776119D02*
X170734285Y-74728500D01*
X170734285Y-74728500D02*
X170781904Y-74680880D01*
X170781904Y-74680880D02*
X170829523Y-74585642D01*
X170829523Y-74585642D02*
X170829523Y-73776119D01*
X171829523Y-74776119D02*
X171258095Y-74776119D01*
X171543809Y-74776119D02*
X171543809Y-73776119D01*
X171543809Y-73776119D02*
X171448571Y-73918976D01*
X171448571Y-73918976D02*
X171353333Y-74014214D01*
X171353333Y-74014214D02*
X171258095Y-74061833D01*
D11*
X172933333Y-115704819D02*
X172600000Y-115228628D01*
X172361905Y-115704819D02*
X172361905Y-114704819D01*
X172361905Y-114704819D02*
X172742857Y-114704819D01*
X172742857Y-114704819D02*
X172838095Y-114752438D01*
X172838095Y-114752438D02*
X172885714Y-114800057D01*
X172885714Y-114800057D02*
X172933333Y-114895295D01*
X172933333Y-114895295D02*
X172933333Y-115038152D01*
X172933333Y-115038152D02*
X172885714Y-115133390D01*
X172885714Y-115133390D02*
X172838095Y-115181009D01*
X172838095Y-115181009D02*
X172742857Y-115228628D01*
X172742857Y-115228628D02*
X172361905Y-115228628D01*
X173885714Y-115704819D02*
X173314286Y-115704819D01*
X173600000Y-115704819D02*
X173600000Y-114704819D01*
X173600000Y-114704819D02*
X173504762Y-114847676D01*
X173504762Y-114847676D02*
X173409524Y-114942914D01*
X173409524Y-114942914D02*
X173314286Y-114990533D01*
X177603333Y-102229580D02*
X177555714Y-102277200D01*
X177555714Y-102277200D02*
X177412857Y-102324819D01*
X177412857Y-102324819D02*
X177317619Y-102324819D01*
X177317619Y-102324819D02*
X177174762Y-102277200D01*
X177174762Y-102277200D02*
X177079524Y-102181961D01*
X177079524Y-102181961D02*
X177031905Y-102086723D01*
X177031905Y-102086723D02*
X176984286Y-101896247D01*
X176984286Y-101896247D02*
X176984286Y-101753390D01*
X176984286Y-101753390D02*
X177031905Y-101562914D01*
X177031905Y-101562914D02*
X177079524Y-101467676D01*
X177079524Y-101467676D02*
X177174762Y-101372438D01*
X177174762Y-101372438D02*
X177317619Y-101324819D01*
X177317619Y-101324819D02*
X177412857Y-101324819D01*
X177412857Y-101324819D02*
X177555714Y-101372438D01*
X177555714Y-101372438D02*
X177603333Y-101420057D01*
X177984286Y-101420057D02*
X178031905Y-101372438D01*
X178031905Y-101372438D02*
X178127143Y-101324819D01*
X178127143Y-101324819D02*
X178365238Y-101324819D01*
X178365238Y-101324819D02*
X178460476Y-101372438D01*
X178460476Y-101372438D02*
X178508095Y-101420057D01*
X178508095Y-101420057D02*
X178555714Y-101515295D01*
X178555714Y-101515295D02*
X178555714Y-101610533D01*
X178555714Y-101610533D02*
X178508095Y-101753390D01*
X178508095Y-101753390D02*
X177936667Y-102324819D01*
X177936667Y-102324819D02*
X178555714Y-102324819D01*
X181686666Y-118694819D02*
X181686666Y-119409104D01*
X181686666Y-119409104D02*
X181639047Y-119551961D01*
X181639047Y-119551961D02*
X181543809Y-119647200D01*
X181543809Y-119647200D02*
X181400952Y-119694819D01*
X181400952Y-119694819D02*
X181305714Y-119694819D01*
X182639047Y-118694819D02*
X182162857Y-118694819D01*
X182162857Y-118694819D02*
X182115238Y-119171009D01*
X182115238Y-119171009D02*
X182162857Y-119123390D01*
X182162857Y-119123390D02*
X182258095Y-119075771D01*
X182258095Y-119075771D02*
X182496190Y-119075771D01*
X182496190Y-119075771D02*
X182591428Y-119123390D01*
X182591428Y-119123390D02*
X182639047Y-119171009D01*
X182639047Y-119171009D02*
X182686666Y-119266247D01*
X182686666Y-119266247D02*
X182686666Y-119504342D01*
X182686666Y-119504342D02*
X182639047Y-119599580D01*
X182639047Y-119599580D02*
X182591428Y-119647200D01*
X182591428Y-119647200D02*
X182496190Y-119694819D01*
X182496190Y-119694819D02*
X182258095Y-119694819D01*
X182258095Y-119694819D02*
X182162857Y-119647200D01*
X182162857Y-119647200D02*
X182115238Y-119599580D01*
X171686666Y-123354819D02*
X171686666Y-124069104D01*
X171686666Y-124069104D02*
X171639047Y-124211961D01*
X171639047Y-124211961D02*
X171543809Y-124307200D01*
X171543809Y-124307200D02*
X171400952Y-124354819D01*
X171400952Y-124354819D02*
X171305714Y-124354819D01*
X172067619Y-123354819D02*
X172686666Y-123354819D01*
X172686666Y-123354819D02*
X172353333Y-123735771D01*
X172353333Y-123735771D02*
X172496190Y-123735771D01*
X172496190Y-123735771D02*
X172591428Y-123783390D01*
X172591428Y-123783390D02*
X172639047Y-123831009D01*
X172639047Y-123831009D02*
X172686666Y-123926247D01*
X172686666Y-123926247D02*
X172686666Y-124164342D01*
X172686666Y-124164342D02*
X172639047Y-124259580D01*
X172639047Y-124259580D02*
X172591428Y-124307200D01*
X172591428Y-124307200D02*
X172496190Y-124354819D01*
X172496190Y-124354819D02*
X172210476Y-124354819D01*
X172210476Y-124354819D02*
X172115238Y-124307200D01*
X172115238Y-124307200D02*
X172067619Y-124259580D01*
X157551905Y-114114819D02*
X157551905Y-113114819D01*
X157551905Y-113114819D02*
X157790000Y-113114819D01*
X157790000Y-113114819D02*
X157932857Y-113162438D01*
X157932857Y-113162438D02*
X158028095Y-113257676D01*
X158028095Y-113257676D02*
X158075714Y-113352914D01*
X158075714Y-113352914D02*
X158123333Y-113543390D01*
X158123333Y-113543390D02*
X158123333Y-113686247D01*
X158123333Y-113686247D02*
X158075714Y-113876723D01*
X158075714Y-113876723D02*
X158028095Y-113971961D01*
X158028095Y-113971961D02*
X157932857Y-114067200D01*
X157932857Y-114067200D02*
X157790000Y-114114819D01*
X157790000Y-114114819D02*
X157551905Y-114114819D01*
X159075714Y-114114819D02*
X158504286Y-114114819D01*
X158790000Y-114114819D02*
X158790000Y-113114819D01*
X158790000Y-113114819D02*
X158694762Y-113257676D01*
X158694762Y-113257676D02*
X158599524Y-113352914D01*
X158599524Y-113352914D02*
X158504286Y-113400533D01*
X174333333Y-125204819D02*
X174000000Y-124728628D01*
X173761905Y-125204819D02*
X173761905Y-124204819D01*
X173761905Y-124204819D02*
X174142857Y-124204819D01*
X174142857Y-124204819D02*
X174238095Y-124252438D01*
X174238095Y-124252438D02*
X174285714Y-124300057D01*
X174285714Y-124300057D02*
X174333333Y-124395295D01*
X174333333Y-124395295D02*
X174333333Y-124538152D01*
X174333333Y-124538152D02*
X174285714Y-124633390D01*
X174285714Y-124633390D02*
X174238095Y-124681009D01*
X174238095Y-124681009D02*
X174142857Y-124728628D01*
X174142857Y-124728628D02*
X173761905Y-124728628D01*
X174714286Y-124300057D02*
X174761905Y-124252438D01*
X174761905Y-124252438D02*
X174857143Y-124204819D01*
X174857143Y-124204819D02*
X175095238Y-124204819D01*
X175095238Y-124204819D02*
X175190476Y-124252438D01*
X175190476Y-124252438D02*
X175238095Y-124300057D01*
X175238095Y-124300057D02*
X175285714Y-124395295D01*
X175285714Y-124395295D02*
X175285714Y-124490533D01*
X175285714Y-124490533D02*
X175238095Y-124633390D01*
X175238095Y-124633390D02*
X174666667Y-125204819D01*
X174666667Y-125204819D02*
X175285714Y-125204819D01*
X140205714Y-107389104D02*
X140681904Y-107389104D01*
X140110476Y-107674819D02*
X140443809Y-106674819D01*
X140443809Y-106674819D02*
X140777142Y-107674819D01*
X141634285Y-107674819D02*
X141062857Y-107674819D01*
X141348571Y-107674819D02*
X141348571Y-106674819D01*
X141348571Y-106674819D02*
X141253333Y-106817676D01*
X141253333Y-106817676D02*
X141158095Y-106912914D01*
X141158095Y-106912914D02*
X141062857Y-106960533D01*
%TO.C,D3*%
D12*
X141340000Y-129400000D02*
X142360000Y-129400000D01*
X143140000Y-127930000D02*
X143140000Y-130870000D01*
X143260000Y-127930000D02*
X143260000Y-130870000D01*
X143380000Y-127930000D02*
X143380000Y-130870000D01*
X148820000Y-129400000D02*
X147800000Y-129400000D01*
X142360000Y-127930000D02*
X147800000Y-127930000D01*
X147800000Y-130870000D01*
X142360000Y-130870000D01*
X142360000Y-127930000D01*
%TO.C,D2*%
X155730000Y-125575000D02*
X155730000Y-128665000D01*
X155730000Y-125575170D02*
G75*
G02*
X161280000Y-127120000I2560000J-1544830D01*
G01*
X161280000Y-127120000D02*
G75*
G02*
X155730000Y-128664830I-2990000J0D01*
G01*
X160790000Y-127120000D02*
G75*
G02*
X155790000Y-127120000I-2500000J0D01*
G01*
X155790000Y-127120000D02*
G75*
G02*
X160790000Y-127120000I2500000J0D01*
G01*
%TO.C,C1*%
X184130000Y-102429999D02*
X189370000Y-102429999D01*
X184130000Y-105170000D02*
X184130000Y-102429999D01*
X189370000Y-102429999D02*
X189370000Y-105170000D01*
X189370000Y-105170000D02*
X184130000Y-105170000D01*
%TO.C,J7*%
X185640000Y-124470000D02*
X187020000Y-124470000D01*
X185640000Y-125850000D02*
X185640000Y-124470000D01*
X185640000Y-127119999D02*
X185640000Y-129770000D01*
X185640000Y-127119999D02*
X188399999Y-127119999D01*
X185640000Y-129770000D02*
X188399999Y-129770000D01*
X188399999Y-127119999D02*
X188399999Y-129770000D01*
%TO.C,J6*%
X185640000Y-120240000D02*
X187020000Y-120240000D01*
X185640000Y-121620000D02*
X185640000Y-120240000D01*
X185640000Y-122890000D02*
X185640000Y-123000000D01*
X185640000Y-122890000D02*
X188400000Y-122890000D01*
X185640000Y-123000000D02*
X188400000Y-123000000D01*
X188400000Y-122890000D02*
X188400000Y-123000000D01*
%TO.C,J4*%
X175640000Y-120240000D02*
X177020000Y-120240000D01*
X175640000Y-121620000D02*
X175640000Y-120240000D01*
X175640000Y-122890000D02*
X175640000Y-123000000D01*
X175640000Y-122890000D02*
X178400000Y-122890000D01*
X175640000Y-123000000D02*
X178400000Y-123000000D01*
X178400000Y-122890000D02*
X178400000Y-123000000D01*
%TO.C,U1*%
X154370000Y-75969999D02*
X187669999Y-75969999D01*
X187669999Y-100270000D01*
X154370000Y-100270000D01*
X154370000Y-75969999D01*
D13*
X153599999Y-79229999D02*
G75*
G02*
X153239999Y-79229999I-180000J0D01*
G01*
X153239999Y-79229999D02*
G75*
G02*
X153599999Y-79229999I180000J0D01*
G01*
%TO.C,R1*%
D12*
X169060000Y-117620000D02*
X169830000Y-117620000D01*
X177140000Y-117620000D02*
X176370000Y-117620000D01*
X169830000Y-116250000D02*
X176370000Y-116250000D01*
X176370000Y-118990000D01*
X169830000Y-118990000D01*
X169830000Y-116250000D01*
%TO.C,C2*%
X174965225Y-104145000D02*
X175465225Y-104145000D01*
X175215225Y-103895000D02*
X175215225Y-104395000D01*
X177770000Y-103040000D02*
X177770000Y-108200000D01*
X177810000Y-103040000D02*
X177810000Y-108200000D01*
X177850000Y-103041000D02*
X177850000Y-108199000D01*
X177890000Y-103043000D02*
X177890000Y-108197000D01*
X177930000Y-103045000D02*
X177930000Y-108195000D01*
X177970000Y-103048000D02*
X177970000Y-108192000D01*
X178010000Y-103051000D02*
X178010000Y-104580000D01*
X178010000Y-106660000D02*
X178010000Y-108189000D01*
X178050000Y-103055000D02*
X178050000Y-104580000D01*
X178050000Y-106660000D02*
X178050000Y-108185000D01*
X178090000Y-103060000D02*
X178090000Y-104580000D01*
X178090000Y-106660000D02*
X178090000Y-108180000D01*
X178130000Y-103065000D02*
X178130000Y-104580000D01*
X178130000Y-106660000D02*
X178130000Y-108175000D01*
X178170000Y-103071000D02*
X178170000Y-104580000D01*
X178170000Y-106660000D02*
X178170000Y-108169000D01*
X178210000Y-103077000D02*
X178210000Y-104580000D01*
X178210000Y-106660000D02*
X178210000Y-108163000D01*
X178250000Y-103084000D02*
X178250000Y-104580000D01*
X178250000Y-106660000D02*
X178250000Y-108156000D01*
X178290000Y-103092000D02*
X178290000Y-104580000D01*
X178290000Y-106660000D02*
X178290000Y-108148000D01*
X178330000Y-103101000D02*
X178330000Y-104580000D01*
X178330000Y-106660000D02*
X178330000Y-108139000D01*
X178370000Y-103110000D02*
X178370000Y-104580000D01*
X178370000Y-106660000D02*
X178370000Y-108130000D01*
X178410000Y-103119000D02*
X178410000Y-104580000D01*
X178410000Y-106660000D02*
X178410000Y-108121000D01*
X178450000Y-103130000D02*
X178450000Y-104580000D01*
X178450000Y-106660000D02*
X178450000Y-108110000D01*
X178490000Y-103141000D02*
X178490000Y-104580000D01*
X178490000Y-106660000D02*
X178490000Y-108099000D01*
X178530000Y-103153000D02*
X178530000Y-104580000D01*
X178530000Y-106660000D02*
X178530000Y-108087000D01*
X178570000Y-103165000D02*
X178570000Y-104580000D01*
X178570000Y-106660000D02*
X178570000Y-108075000D01*
X178610000Y-103178000D02*
X178610000Y-104580000D01*
X178610000Y-106660000D02*
X178610000Y-108062000D01*
X178650000Y-103192000D02*
X178650000Y-104580000D01*
X178650000Y-106660000D02*
X178650000Y-108048000D01*
X178690000Y-103207000D02*
X178690000Y-104580000D01*
X178690000Y-106660000D02*
X178690000Y-108033000D01*
X178730000Y-103222000D02*
X178730000Y-104580000D01*
X178730000Y-106660000D02*
X178730000Y-108018000D01*
X178770000Y-103238000D02*
X178770000Y-104580000D01*
X178770000Y-106660000D02*
X178770000Y-108002000D01*
X178810000Y-103255000D02*
X178810000Y-104580000D01*
X178810000Y-106660000D02*
X178810000Y-107985000D01*
X178850000Y-103273000D02*
X178850000Y-104580000D01*
X178850000Y-106660000D02*
X178850000Y-107967000D01*
X178890000Y-103291000D02*
X178890000Y-104580000D01*
X178890000Y-106660000D02*
X178890000Y-107949000D01*
X178930000Y-103311000D02*
X178930000Y-104580000D01*
X178930000Y-106660000D02*
X178930000Y-107929000D01*
X178970000Y-103331000D02*
X178970000Y-104580000D01*
X178970000Y-106660000D02*
X178970000Y-107909000D01*
X179010000Y-103352000D02*
X179010000Y-104580000D01*
X179010000Y-106660000D02*
X179010000Y-107888000D01*
X179050000Y-103374000D02*
X179050000Y-104580000D01*
X179050000Y-106660000D02*
X179050000Y-107866000D01*
X179090000Y-103397000D02*
X179090000Y-104580000D01*
X179090000Y-106660000D02*
X179090000Y-107843000D01*
X179130000Y-103421000D02*
X179130000Y-104580000D01*
X179130000Y-106660000D02*
X179130000Y-107819000D01*
X179170000Y-103445000D02*
X179170000Y-104580000D01*
X179170000Y-106660000D02*
X179170000Y-107795000D01*
X179210000Y-103471000D02*
X179210000Y-104580000D01*
X179210000Y-106660000D02*
X179210000Y-107769000D01*
X179250000Y-103498000D02*
X179250000Y-104580000D01*
X179250000Y-106660000D02*
X179250000Y-107742000D01*
X179290000Y-103526000D02*
X179290000Y-104580000D01*
X179290000Y-106660000D02*
X179290000Y-107714000D01*
X179330000Y-103555000D02*
X179330000Y-104580000D01*
X179330000Y-106660000D02*
X179330000Y-107685000D01*
X179370000Y-103585000D02*
X179370000Y-104580000D01*
X179370000Y-106660000D02*
X179370000Y-107655000D01*
X179410000Y-103617000D02*
X179410000Y-104580000D01*
X179410000Y-106660000D02*
X179410000Y-107623000D01*
X179450000Y-103650000D02*
X179450000Y-104580000D01*
X179450000Y-106660000D02*
X179450000Y-107590000D01*
X179490000Y-103684000D02*
X179490000Y-104580000D01*
X179490000Y-106660000D02*
X179490000Y-107556000D01*
X179530000Y-103719000D02*
X179530000Y-104580000D01*
X179530000Y-106660000D02*
X179530000Y-107521000D01*
X179570000Y-103756000D02*
X179570000Y-104580000D01*
X179570000Y-106660000D02*
X179570000Y-107484000D01*
X179610000Y-103795000D02*
X179610000Y-104580000D01*
X179610000Y-106660000D02*
X179610000Y-107445000D01*
X179650000Y-103835000D02*
X179650000Y-104580000D01*
X179650000Y-106660000D02*
X179650000Y-107405000D01*
X179690000Y-103877000D02*
X179690000Y-104580000D01*
X179690000Y-106660000D02*
X179690000Y-107363000D01*
X179730000Y-103921000D02*
X179730000Y-104580000D01*
X179730000Y-106660000D02*
X179730000Y-107319000D01*
X179770000Y-103968000D02*
X179770000Y-104580000D01*
X179770000Y-106660000D02*
X179770000Y-107272000D01*
X179810000Y-104016000D02*
X179810000Y-104580000D01*
X179810000Y-106660000D02*
X179810000Y-107224000D01*
X179850000Y-104067000D02*
X179850000Y-104580000D01*
X179850000Y-106660000D02*
X179850000Y-107173000D01*
X179890000Y-104121000D02*
X179890000Y-104580000D01*
X179890000Y-106660000D02*
X179890000Y-107119000D01*
X179930000Y-104177000D02*
X179930000Y-104580000D01*
X179930000Y-106660000D02*
X179930000Y-107063000D01*
X179970000Y-104237000D02*
X179970000Y-104580000D01*
X179970000Y-106660000D02*
X179970000Y-107003000D01*
X180010000Y-104301000D02*
X180010000Y-104580000D01*
X180010000Y-106660000D02*
X180010000Y-106939000D01*
X180050000Y-104369000D02*
X180050000Y-104580000D01*
X180050000Y-106660000D02*
X180050000Y-106871000D01*
X180090000Y-104443000D02*
X180090000Y-106797000D01*
X180130000Y-104522000D02*
X180130000Y-106718000D01*
X180170000Y-104609000D02*
X180170000Y-106631000D01*
X180210000Y-104706000D02*
X180210000Y-106534000D01*
X180250000Y-104815000D02*
X180250000Y-106425000D01*
X180290000Y-104943000D02*
X180290000Y-106297000D01*
X180330000Y-105103000D02*
X180330000Y-106137000D01*
X180370000Y-105337000D02*
X180370000Y-105903000D01*
X180390000Y-105620000D02*
G75*
G02*
X175150000Y-105620000I-2620000J0D01*
G01*
X175150000Y-105620000D02*
G75*
G02*
X180390000Y-105620000I2620000J0D01*
G01*
%TO.C,J5*%
X180640000Y-120240000D02*
X182020000Y-120240000D01*
X180640000Y-121620000D02*
X180640000Y-120240000D01*
X180640000Y-122890000D02*
X180640000Y-123000000D01*
X180640000Y-122890000D02*
X183400000Y-122890000D01*
X180640000Y-123000000D02*
X183400000Y-123000000D01*
X183400000Y-122890000D02*
X183400000Y-123000000D01*
%TO.C,J3*%
X170640000Y-120240000D02*
X172020000Y-120240000D01*
X170640000Y-121620000D02*
X170640000Y-120240000D01*
X170640000Y-122890000D02*
X170640000Y-123000000D01*
X170640000Y-122890000D02*
X173400000Y-122890000D01*
X170640000Y-123000000D02*
X173400000Y-123000000D01*
X173400000Y-122890000D02*
X173400000Y-123000000D01*
%TO.C,D1*%
X155730000Y-116075000D02*
X155730000Y-119165000D01*
X155730000Y-116075170D02*
G75*
G02*
X161280000Y-117620000I2560000J-1544830D01*
G01*
X161280000Y-117620000D02*
G75*
G02*
X155730000Y-119164830I-2990000J0D01*
G01*
X160790000Y-117620000D02*
G75*
G02*
X155790000Y-117620000I-2500000J0D01*
G01*
X155790000Y-117620000D02*
G75*
G02*
X160790000Y-117620000I2500000J0D01*
G01*
%TO.C,R2*%
X169060000Y-127120000D02*
X169830000Y-127120000D01*
X177140000Y-127120000D02*
X176370000Y-127120000D01*
X169830000Y-125750000D02*
X176370000Y-125750000D01*
X176370000Y-128490000D01*
X169830000Y-128490000D01*
X169830000Y-125750000D01*
%TO.C,A1*%
X131030000Y-126200000D02*
X138023334Y-126200000D01*
X131030001Y-75040000D02*
X131030000Y-126200000D01*
X134220000Y-126170000D02*
X134220000Y-75120000D01*
X138023334Y-122250000D02*
X138023334Y-126200000D01*
X138023334Y-126200000D02*
X138023334Y-127420000D01*
X138023334Y-127420000D02*
X145016666Y-127420000D01*
X145016666Y-122250000D02*
X138023334Y-122250000D01*
X145016666Y-126200000D02*
X145016666Y-122250000D01*
X145016666Y-126200000D02*
X152009999Y-126200000D01*
X145016666Y-127420000D02*
X145016666Y-126200000D01*
X148820000Y-126170000D02*
X148820000Y-75070000D01*
X152009999Y-126200000D02*
X152010000Y-75040000D01*
X152010000Y-75040000D02*
X131030001Y-75040000D01*
%TD*%
%LPC*%
D14*
%TO.C,D3*%
X140000000Y-129400000D03*
D15*
X150160000Y-129400000D03*
%TD*%
D16*
%TO.C,D2*%
X157020000Y-127120000D03*
D17*
X159560000Y-127120000D03*
%TD*%
D18*
%TO.C,C1*%
X185500000Y-103800000D03*
X188000000Y-103800000D03*
%TD*%
D19*
%TO.C,J7*%
X187020000Y-125850000D03*
D20*
X187020000Y-128390000D03*
%TD*%
D19*
%TO.C,J6*%
X187020000Y-121620000D03*
%TD*%
%TO.C,J4*%
X177020000Y-121620000D03*
%TD*%
D17*
%TO.C,U1*%
X183720000Y-97010000D03*
X183720000Y-94469999D03*
X183720000Y-91929999D03*
X183720000Y-89389999D03*
X183720000Y-86850000D03*
X183720000Y-84309999D03*
X183720000Y-81770000D03*
X183720000Y-79229999D03*
X158320000Y-79229999D03*
X158320000Y-81770000D03*
X158320000Y-84309999D03*
X158320000Y-86850000D03*
X158320000Y-89389999D03*
X158320000Y-91929999D03*
X158320000Y-94469999D03*
X158320000Y-97010000D03*
%TD*%
D18*
%TO.C,R1*%
X168020000Y-117620000D03*
X178180000Y-117620000D03*
%TD*%
D21*
%TO.C,C2*%
X176520000Y-105620000D03*
D18*
X179020000Y-105620000D03*
%TD*%
D19*
%TO.C,J5*%
X182020000Y-121620000D03*
%TD*%
%TO.C,J3*%
X172020000Y-121620000D03*
%TD*%
D16*
%TO.C,D1*%
X157020000Y-117620000D03*
D17*
X159560000Y-117620000D03*
%TD*%
D18*
%TO.C,R2*%
X168020000Y-127120000D03*
X178180000Y-127120000D03*
%TD*%
D22*
%TO.C,A1*%
X150410000Y-124750000D03*
X150410000Y-122210000D03*
X150410000Y-119670000D03*
X150410000Y-117130000D03*
X150410000Y-114590000D03*
X150410000Y-112050000D03*
X150410000Y-109510000D03*
X150410000Y-106970000D03*
X150410000Y-104430000D03*
X150410000Y-101890000D03*
X150410000Y-99350000D03*
X150410000Y-96810000D03*
X150410000Y-94270000D03*
X150410000Y-91730000D03*
X150410000Y-89190000D03*
X150410000Y-86650000D03*
X150410000Y-84110000D03*
X150410000Y-81570000D03*
X150410000Y-79030000D03*
X150410000Y-76490000D03*
X132630000Y-76490000D03*
X132630000Y-79030000D03*
X132630000Y-81570000D03*
X132630000Y-84110000D03*
X132630000Y-86650000D03*
X132630000Y-89190000D03*
X132630000Y-91730000D03*
X132630000Y-94270000D03*
X132630000Y-96810000D03*
X132630000Y-99350000D03*
X132630000Y-101890000D03*
X132630000Y-104430000D03*
X132630000Y-106970000D03*
X132630000Y-109510000D03*
X132630000Y-112050000D03*
X132630000Y-114590000D03*
X132630000Y-117130000D03*
X132630000Y-119670000D03*
X132630000Y-122210000D03*
X132630000Y-124750000D03*
%TD*%
%LPD*%
M02*
