%TF.GenerationSoftware,KiCad,Pcbnew,10.0.6*%
%TF.CreationDate,2026-09-18T22:19:53-03:00*%
%TF.ProjectId,pcbcomando,70636263-6f6d-4616-9e64-6f2e6b696361,1.1*%
%TF.SameCoordinates,Original*%
%TF.FileFunction,Copper,L1,Top*%
%TF.FilePolarity,Positive*%
%FSLAX46Y46*%
G04 Gerber Fmt 4.6, Leading zero omitted, Abs format (unit mm)*
G04 Created by KiCad (PCBNEW 10.0.6) date 2026-09-18 22:19:53*
%MOMM*%
%LPD*%
G01*
G04 APERTURE LIST*
G04 Aperture macros list*
%AMRoundRect*
0 Rectangle with rounded corners*
0 $1 Rounding radius*
0 $2 $3 $4 $5 $6 $7 $8 $9 X,Y pos of 4 corners*
0 Add a 4 corners polygon primitive as box body*
4,1,4,$2,$3,$4,$5,$6,$7,$8,$9,$2,$3,0*
0 Add four circle primitives for the rounded corners*
1,1,$1+$1,$2,$3*
1,1,$1+$1,$4,$5*
1,1,$1+$1,$6,$7*
1,1,$1+$1,$8,$9*
0 Add four rect primitives between the rounded corners*
20,1,$1+$1,$2,$3,$4,$5,0*
20,1,$1+$1,$4,$5,$6,$7,0*
20,1,$1+$1,$6,$7,$8,$9,0*
20,1,$1+$1,$8,$9,$2,$3,0*%
G04 Aperture macros list end*
%TA.AperFunction,ComponentPad*%
%ADD10RoundRect,0.249999X-0.850001X-0.850001X0.850001X-0.850001X0.850001X0.850001X-0.850001X0.850001X0*%
%TD*%
%TA.AperFunction,ComponentPad*%
%ADD11C,2.200000*%
%TD*%
%TA.AperFunction,ComponentPad*%
%ADD12R,1.800000X1.800000*%
%TD*%
%TA.AperFunction,ComponentPad*%
%ADD13C,1.800000*%
%TD*%
%TA.AperFunction,ComponentPad*%
%ADD14C,1.600000*%
%TD*%
%TA.AperFunction,ComponentPad*%
%ADD15R,1.700000X1.700000*%
%TD*%
%TA.AperFunction,ComponentPad*%
%ADD16C,1.700000*%
%TD*%
%TA.AperFunction,ComponentPad*%
%ADD17RoundRect,0.250000X-0.550000X-0.550000X0.550000X-0.550000X0.550000X0.550000X-0.550000X0.550000X0*%
%TD*%
%TA.AperFunction,ComponentPad*%
%ADD18O,2.400000X1.800000*%
%TD*%
%TA.AperFunction,ViaPad*%
%ADD19C,0.800000*%
%TD*%
%TA.AperFunction,ViaPad*%
%ADD20C,0.600000*%
%TD*%
%TA.AperFunction,Conductor*%
%ADD21C,0.500000*%
%TD*%
%TA.AperFunction,Conductor*%
%ADD22C,0.200000*%
%TD*%
%TA.AperFunction,Conductor*%
%ADD23C,0.300000*%
%TD*%
G04 APERTURE END LIST*
D10*
%TO.P,D3,1*%
%TO.N,VSYS*%
X140000000Y-129400000D03*
D11*
%TO.P,D3,2*%
%TO.N,EXT_5V*%
X150160000Y-129400000D03*
%TD*%
D12*
%TO.P,D2,1*%
%TO.N,Net-(D2-Pad1)*%
X157020000Y-127120000D03*
D13*
%TO.P,D2,2*%
%TO.N,LED_R*%
X159560000Y-127120000D03*
%TD*%
D14*
%TO.P,C1,1*%
%TO.N,3.3V*%
X185500000Y-103800000D03*
%TO.P,C1,2*%
%TO.N,GND*%
X188000000Y-103800000D03*
%TD*%
D15*
%TO.P,J7,1*%
%TO.N,EXT_5V*%
X187020000Y-125850000D03*
D16*
%TO.P,J7,2*%
%TO.N,GND*%
X187020000Y-128390000D03*
%TD*%
D15*
%TO.P,J6,1*%
%TO.N,GND*%
X187020000Y-121620000D03*
%TD*%
%TO.P,J4,1*%
%TO.N,GND*%
X177020000Y-121620000D03*
%TD*%
D13*
%TO.P,U1,1*%
%TO.N,GND*%
X183720000Y-97010000D03*
%TO.P,U1,2*%
X183720000Y-94469999D03*
%TO.P,U1,3*%
%TO.N,3.3V*%
X183720000Y-91929999D03*
%TO.P,U1,4*%
%TO.N,LORA_RST*%
X183720000Y-89389999D03*
%TO.P,U1,5*%
%TO.N,LORA_DIO0*%
X183720000Y-86850000D03*
%TO.P,U1,6*%
%TO.N,unconnected-(U1-DIO1-Pad6)*%
X183720000Y-84309999D03*
%TO.P,U1,7*%
%TO.N,unconnected-(U1-DIO2-Pad7)*%
X183720000Y-81770000D03*
%TO.P,U1,8*%
%TO.N,unconnected-(U1-DIO3-Pad8)*%
X183720000Y-79229999D03*
%TO.P,U1,9*%
%TO.N,GND*%
X158320000Y-79229999D03*
%TO.P,U1,10*%
%TO.N,unconnected-(U1-DIO4-Pad10)*%
X158320000Y-81770000D03*
%TO.P,U1,11*%
%TO.N,unconnected-(U1-DIO5-Pad11)*%
X158320000Y-84309999D03*
%TO.P,U1,12*%
%TO.N,LORA_SCK*%
X158320000Y-86850000D03*
%TO.P,U1,13*%
%TO.N,LORA_MISO*%
X158320000Y-89389999D03*
%TO.P,U1,14*%
%TO.N,LORA_MOSI*%
X158320000Y-91929999D03*
%TO.P,U1,15*%
%TO.N,LORA_NSS*%
X158320000Y-94469999D03*
%TO.P,U1,16*%
%TO.N,GND*%
X158320000Y-97010000D03*
%TD*%
D14*
%TO.P,R1,1*%
%TO.N,Net-(D1-Pad1)*%
X168020000Y-117620000D03*
%TO.P,R1,2*%
%TO.N,GND*%
X178180000Y-117620000D03*
%TD*%
D17*
%TO.P,C2,1,~_1*%
%TO.N,3.3V*%
X176520000Y-105620000D03*
D14*
%TO.P,C2,2,~_2*%
%TO.N,GND*%
X179020000Y-105620000D03*
%TD*%
D15*
%TO.P,J5,1*%
%TO.N,BTN*%
X182020000Y-121620000D03*
%TD*%
%TO.P,J3,1*%
%TO.N,BUZZ*%
X172020000Y-121620000D03*
%TD*%
D12*
%TO.P,D1,1*%
%TO.N,Net-(D1-Pad1)*%
X157020000Y-117620000D03*
D13*
%TO.P,D1,2*%
%TO.N,LED_Y*%
X159560000Y-117620000D03*
%TD*%
D14*
%TO.P,R2,1*%
%TO.N,Net-(D2-Pad1)*%
X168020000Y-127120000D03*
%TO.P,R2,2*%
%TO.N,GND*%
X178180000Y-127120000D03*
%TD*%
D18*
%TO.P,A1,1,GP0_1*%
%TO.N,LORA_MISO*%
X150410000Y-124750000D03*
%TO.P,A1,2,GP1_2*%
%TO.N,LORA_NSS*%
X150410000Y-122210000D03*
%TO.P,A1,3,GND_3*%
%TO.N,GND*%
X150410000Y-119670000D03*
%TO.P,A1,4,GP2_4*%
%TO.N,LORA_SCK*%
X150410000Y-117130000D03*
%TO.P,A1,5,GP3_5*%
%TO.N,LORA_MOSI*%
X150410000Y-114590000D03*
%TO.P,A1,6,GP4_6*%
%TO.N,LORA_RST*%
X150410000Y-112050000D03*
%TO.P,A1,7,GP5_7*%
%TO.N,unconnected-(A1-GP5-Pad7)*%
X150410000Y-109510000D03*
%TO.P,A1,8,GND_8*%
%TO.N,GND*%
X150410000Y-106970000D03*
%TO.P,A1,9,GP6_9*%
%TO.N,unconnected-(A1-GP6-Pad9)*%
X150410000Y-104430000D03*
%TO.P,A1,10,GP7_10*%
%TO.N,unconnected-(A1-GP7-Pad10)*%
X150410000Y-101890000D03*
%TO.P,A1,11,GP8_11*%
%TO.N,unconnected-(A1-GP8-Pad11)*%
X150410000Y-99350000D03*
%TO.P,A1,12,GP9_12*%
%TO.N,unconnected-(A1-GP9-Pad12)*%
X150410000Y-96810000D03*
%TO.P,A1,13,GND_13*%
%TO.N,GND*%
X150410000Y-94270000D03*
%TO.P,A1,14,GP10_14*%
%TO.N,unconnected-(A1-GP10-Pad14)*%
X150410000Y-91730000D03*
%TO.P,A1,15,GP11_15*%
%TO.N,LED_Y*%
X150410000Y-89190000D03*
%TO.P,A1,16,GP12_16*%
%TO.N,LED_R*%
X150410000Y-86650000D03*
%TO.P,A1,17,GP13_17*%
%TO.N,BTN*%
X150410000Y-84110000D03*
%TO.P,A1,18,GND_18*%
%TO.N,GND*%
X150410000Y-81570000D03*
%TO.P,A1,19,GP14_19*%
%TO.N,unconnected-(A1-GP14-Pad19)*%
X150410000Y-79030000D03*
%TO.P,A1,20,GP15_20*%
%TO.N,LORA_DIO0*%
X150410000Y-76490000D03*
%TO.P,A1,21,GP16_21*%
%TO.N,unconnected-(A1-GP16-Pad21)*%
X132630000Y-76490000D03*
%TO.P,A1,22,GP17_22*%
%TO.N,unconnected-(A1-GP17-Pad22)*%
X132630000Y-79030000D03*
%TO.P,A1,23,GND_23*%
%TO.N,GND*%
X132630000Y-81570000D03*
%TO.P,A1,24,GP18_24*%
%TO.N,unconnected-(A1-GP18-Pad24)*%
X132630000Y-84110000D03*
%TO.P,A1,25,GP19_25*%
%TO.N,BUZZ*%
X132630000Y-86650000D03*
%TO.P,A1,26,GP20_26*%
%TO.N,unconnected-(A1-GP20-Pad26)*%
X132630000Y-89190000D03*
%TO.P,A1,27,GP21_27*%
%TO.N,unconnected-(A1-GP21-Pad27)*%
X132630000Y-91730000D03*
%TO.P,A1,28,GND_28*%
%TO.N,GND*%
X132630000Y-94270000D03*
%TO.P,A1,29,GP22_29*%
%TO.N,unconnected-(A1-GP22-Pad29)*%
X132630000Y-96810000D03*
%TO.P,A1,30,RUN_30*%
%TO.N,unconnected-(A1-RUN-Pad30)*%
X132630000Y-99350000D03*
%TO.P,A1,31,ADC0/GP26_31*%
%TO.N,unconnected-(A1-ADC0{slash}GP26-Pad31)*%
X132630000Y-101890000D03*
%TO.P,A1,32,ADC1/GP27_32*%
%TO.N,unconnected-(A1-ADC1{slash}GP27-Pad32)*%
X132630000Y-104430000D03*
%TO.P,A1,33,GND_33*%
%TO.N,GND*%
X132630000Y-106970000D03*
%TO.P,A1,34,ADC2/GP28_34*%
%TO.N,unconnected-(A1-ADC2{slash}GP28-Pad34)*%
X132630000Y-109510000D03*
%TO.P,A1,35,ADC_VREF_35*%
%TO.N,unconnected-(A1-ADC_VREF-Pad35)*%
X132630000Y-112050000D03*
%TO.P,A1,36,3V3(OUT)_36*%
%TO.N,3.3V*%
X132630000Y-114590000D03*
%TO.P,A1,37,~{3V3_EN}_37*%
%TO.N,unconnected-(A1-~{3V3_EN}-Pad37)*%
X132630000Y-117130000D03*
%TO.P,A1,38,GND_38*%
%TO.N,GND*%
X132630000Y-119670000D03*
%TO.P,A1,39,VSYS_39*%
%TO.N,VSYS*%
X132630000Y-122210000D03*
%TO.P,A1,40,VBUS_40*%
%TO.N,unconnected-(A1-VBUS-Pad40)*%
X132630000Y-124750000D03*
%TD*%
D19*
%TO.N,GND*%
X130730000Y-119438600D03*
X189000000Y-130000000D03*
X131600000Y-130000000D03*
X131199999Y-74200000D03*
X183253700Y-118565200D03*
X162900000Y-97900000D03*
X158330000Y-104600000D03*
X185500000Y-113000000D03*
X162100000Y-102400000D03*
X189000000Y-74200000D03*
X184000000Y-99330000D03*
X130730000Y-94650000D03*
X155000000Y-123500000D03*
D20*
X152231800Y-94375000D03*
D19*
X183253700Y-106782000D03*
X161600000Y-95700000D03*
X130730000Y-107268600D03*
X179500000Y-120000000D03*
X170000000Y-108000000D03*
D20*
X152231800Y-107268600D03*
D19*
%TO.N,BUZZ*%
X161326900Y-103160000D03*
%TO.N,LED_Y*%
X160546100Y-95740000D03*
%TD*%
%TO.N,VSYS*%
D21*
X132810000Y-122210000D02*
X140000000Y-129400000D01*
X132630000Y-122210000D02*
X132810000Y-122210000D01*
%TO.N,EXT_5V*%
X150160000Y-129400000D02*
X183470000Y-129400000D01*
X183470000Y-129400000D02*
X187020000Y-125850000D01*
%TO.N,Net-(D2-Pad1)*%
D22*
X157020000Y-127120000D02*
X158221700Y-127120000D01*
X166818300Y-128321700D02*
X159047800Y-128321700D01*
X158221700Y-127495600D02*
X158221700Y-127120000D01*
X168020000Y-127120000D02*
X166818300Y-128321700D01*
X159047800Y-128321700D02*
X158221700Y-127495600D01*
%TO.N,3.3V*%
D21*
X183720000Y-91930000D02*
X185500000Y-91930000D01*
D23*
X132630000Y-114590000D02*
X132630000Y-113320000D01*
D21*
X185500000Y-91930000D02*
X185500000Y-103800000D01*
D23*
X132630000Y-113320000D02*
X168752000Y-113320000D01*
D21*
X176520000Y-105620000D02*
X178340000Y-103800000D01*
X168752000Y-113320000D02*
X176520000Y-105620000D01*
X178340000Y-103800000D02*
X185500000Y-103800000D01*
%TO.N,GND*%
D22*
X132630000Y-119670000D02*
X131128300Y-119670000D01*
X130730000Y-119438600D02*
X130896900Y-119438600D01*
X158320000Y-79230000D02*
X157181700Y-80368300D01*
X155685000Y-94375000D02*
X158320000Y-97010000D01*
X132630000Y-106970000D02*
X131128300Y-106970000D01*
X181868300Y-117620000D02*
X178180000Y-117620000D01*
X150410000Y-106970000D02*
X132630000Y-106970000D01*
X152231800Y-94375000D02*
X155685000Y-94375000D01*
X157181700Y-80368300D02*
X150410000Y-80368300D01*
X130730000Y-94650000D02*
X130748300Y-94650000D01*
X150410000Y-119670000D02*
X132630000Y-119670000D01*
X150410000Y-81570000D02*
X150410000Y-80368300D01*
X187020000Y-121620000D02*
X185868300Y-121620000D01*
X177020000Y-121620000D02*
X175868300Y-121620000D01*
X151911700Y-106970000D02*
X152210300Y-107268600D01*
X182813500Y-118565200D02*
X181868300Y-117620000D01*
X130896900Y-119438600D02*
X131128300Y-119670000D01*
X150410000Y-94270000D02*
X152126800Y-94270000D01*
X173918300Y-119670000D02*
X150410000Y-119670000D01*
X175868300Y-121620000D02*
X173918300Y-119670000D01*
X130829700Y-107268600D02*
X131128300Y-106970000D01*
X152210300Y-107268600D02*
X152231800Y-107268600D01*
X132630000Y-94270000D02*
X131128300Y-94270000D01*
X150410000Y-106970000D02*
X151911700Y-106970000D01*
X152126800Y-94270000D02*
X152231800Y-94375000D01*
X182813500Y-118565200D02*
X183253700Y-118565200D01*
X130730000Y-107268600D02*
X130829700Y-107268600D01*
X185868300Y-121620000D02*
X182813500Y-118565200D01*
X130748300Y-94650000D02*
X131128300Y-94270000D01*
%TO.N,LORA_RST*%
X162261700Y-110848300D02*
X183720000Y-89390000D01*
X150410000Y-112050000D02*
X150410000Y-110848300D01*
X150410000Y-110848300D02*
X162261700Y-110848300D01*
%TO.N,LORA_DIO0*%
X150410000Y-76490000D02*
X173360000Y-76490000D01*
X173360000Y-76490000D02*
X183720000Y-86850000D01*
%TO.N,Net-(D1-Pad1)*%
X159047800Y-116418300D02*
X158221700Y-117244400D01*
X166818300Y-116418300D02*
X159047800Y-116418300D01*
X157020000Y-117620000D02*
X158221700Y-117620000D01*
X168020000Y-117620000D02*
X166818300Y-116418300D01*
X158221700Y-117244400D02*
X158221700Y-117620000D01*
%TO.N,BUZZ*%
X149140000Y-103160000D02*
X161326900Y-103160000D01*
X133831700Y-87851700D02*
X149140000Y-103160000D01*
X132630000Y-86650000D02*
X132630000Y-87851700D01*
X132630000Y-87851700D02*
X133831700Y-87851700D01*
%TO.N,LED_Y*%
X157842800Y-95740000D02*
X160546100Y-95740000D01*
X151911700Y-89190000D02*
X151911700Y-89808900D01*
X151911700Y-89808900D02*
X157842800Y-95740000D01*
X150410000Y-89190000D02*
X151911700Y-89190000D01*
%TD*%
%TA.AperFunction,Conductor*%
%TO.N,GND*%
G36*
X189463039Y-73639685D02*
G01*
X189508794Y-73692489D01*
X189520000Y-73744000D01*
X189520000Y-103511142D01*
X189500315Y-103578181D01*
X189447511Y-103623936D01*
X189378353Y-103633880D01*
X189314797Y-103604855D01*
X189277023Y-103546077D01*
X189273527Y-103530541D01*
X189267989Y-103495581D01*
X189204755Y-103300968D01*
X189111859Y-103118650D01*
X189079474Y-103074077D01*
X189079474Y-103074076D01*
X188400000Y-103753551D01*
X188400000Y-103747339D01*
X188372741Y-103645606D01*
X188320080Y-103554394D01*
X188245606Y-103479920D01*
X188154394Y-103427259D01*
X188052661Y-103400000D01*
X188046446Y-103400000D01*
X188725922Y-102720524D01*
X188725921Y-102720523D01*
X188681359Y-102688147D01*
X188681350Y-102688141D01*
X188499031Y-102595244D01*
X188304417Y-102532009D01*
X188102317Y-102500000D01*
X187897683Y-102500000D01*
X187695582Y-102532009D01*
X187500968Y-102595244D01*
X187318644Y-102688143D01*
X187274077Y-102720523D01*
X187274077Y-102720524D01*
X187953554Y-103400000D01*
X187947339Y-103400000D01*
X187845606Y-103427259D01*
X187754394Y-103479920D01*
X187679920Y-103554394D01*
X187627259Y-103645606D01*
X187600000Y-103747339D01*
X187600000Y-103753553D01*
X186920524Y-103074077D01*
X186920523Y-103074077D01*
X186888143Y-103118644D01*
X186795244Y-103300968D01*
X186763047Y-103400061D01*
X186723609Y-103457736D01*
X186659250Y-103484934D01*
X186590404Y-103473019D01*
X186538928Y-103425774D01*
X186527186Y-103400062D01*
X186519873Y-103377555D01*
X186441232Y-103223212D01*
X186339414Y-103083072D01*
X186216928Y-102960586D01*
X186210164Y-102955672D01*
X186101615Y-102876806D01*
X186098274Y-102872474D01*
X186093297Y-102870201D01*
X186077164Y-102845098D01*
X186058949Y-102821476D01*
X186057696Y-102814804D01*
X186055523Y-102811423D01*
X186050500Y-102776488D01*
X186050500Y-91857527D01*
X186050500Y-91857525D01*
X186012984Y-91717515D01*
X185973357Y-91648880D01*
X185940511Y-91591988D01*
X185940506Y-91591982D01*
X185838017Y-91489493D01*
X185838011Y-91489488D01*
X185712488Y-91417017D01*
X185712489Y-91417017D01*
X185701006Y-91413940D01*
X185572475Y-91379500D01*
X185572472Y-91379500D01*
X184862847Y-91379500D01*
X184795808Y-91359815D01*
X184752362Y-91311794D01*
X184746761Y-91300801D01*
X184688152Y-91220134D01*
X184635690Y-91147926D01*
X184502073Y-91014309D01*
X184349199Y-90903239D01*
X184324568Y-90890689D01*
X184180836Y-90817453D01*
X184106472Y-90793290D01*
X184059195Y-90777929D01*
X184001521Y-90738492D01*
X183974323Y-90674133D01*
X183986238Y-90605287D01*
X184033482Y-90553811D01*
X184059194Y-90542068D01*
X184180832Y-90502546D01*
X184349199Y-90416759D01*
X184502073Y-90305689D01*
X184635690Y-90172072D01*
X184746760Y-90019198D01*
X184832547Y-89850831D01*
X184890940Y-89671117D01*
X184895392Y-89643007D01*
X184920500Y-89484485D01*
X184920500Y-89295512D01*
X184890940Y-89108880D01*
X184832545Y-88929162D01*
X184746759Y-88760799D01*
X184635690Y-88607926D01*
X184502073Y-88474309D01*
X184349199Y-88363239D01*
X184180836Y-88277453D01*
X184059198Y-88237930D01*
X184001523Y-88198492D01*
X183974325Y-88134133D01*
X183986240Y-88065286D01*
X184033485Y-88013811D01*
X184059197Y-88002068D01*
X184180832Y-87962547D01*
X184349199Y-87876760D01*
X184502073Y-87765690D01*
X184635690Y-87632073D01*
X184746760Y-87479199D01*
X184832547Y-87310832D01*
X184890940Y-87131118D01*
X184894153Y-87110832D01*
X184920500Y-86944486D01*
X184920500Y-86755513D01*
X184890940Y-86568881D01*
X184832545Y-86389163D01*
X184746759Y-86220800D01*
X184723777Y-86189168D01*
X184635690Y-86067927D01*
X184502073Y-85934310D01*
X184349199Y-85823240D01*
X184180836Y-85737454D01*
X184059195Y-85697930D01*
X184001520Y-85658492D01*
X183974322Y-85594133D01*
X183986237Y-85525286D01*
X184033482Y-85473811D01*
X184059194Y-85462068D01*
X184180832Y-85422546D01*
X184349199Y-85336759D01*
X184502073Y-85225689D01*
X184635690Y-85092072D01*
X184746760Y-84939198D01*
X184832547Y-84770831D01*
X184890940Y-84591117D01*
X184894153Y-84570832D01*
X184920500Y-84404485D01*
X184920500Y-84215512D01*
X184890940Y-84028880D01*
X184832545Y-83849162D01*
X184746759Y-83680799D01*
X184635690Y-83527926D01*
X184502073Y-83394309D01*
X184349199Y-83283239D01*
X184180836Y-83197453D01*
X184059198Y-83157930D01*
X184001523Y-83118492D01*
X183974325Y-83054133D01*
X183986240Y-82985286D01*
X184033485Y-82933811D01*
X184059197Y-82922068D01*
X184180832Y-82882547D01*
X184349199Y-82796760D01*
X184502073Y-82685690D01*
X184635690Y-82552073D01*
X184746760Y-82399199D01*
X184832547Y-82230832D01*
X184890940Y-82051118D01*
X184915217Y-81897838D01*
X184920500Y-81864486D01*
X184920500Y-81675513D01*
X184890940Y-81488881D01*
X184854589Y-81377007D01*
X184832547Y-81309168D01*
X184832545Y-81309165D01*
X184832545Y-81309163D01*
X184746759Y-81140800D01*
X184635690Y-80987927D01*
X184502073Y-80854310D01*
X184349199Y-80743240D01*
X184308367Y-80722435D01*
X184180836Y-80657454D01*
X184059195Y-80617930D01*
X184001520Y-80578492D01*
X183974322Y-80514133D01*
X183986237Y-80445286D01*
X184033482Y-80393811D01*
X184059194Y-80382068D01*
X184180832Y-80342546D01*
X184349199Y-80256759D01*
X184502073Y-80145689D01*
X184635690Y-80012072D01*
X184746760Y-79859198D01*
X184832547Y-79690831D01*
X184890940Y-79511117D01*
X184894153Y-79490832D01*
X184920500Y-79324485D01*
X184920500Y-79135512D01*
X184890940Y-78948880D01*
X184832545Y-78769162D01*
X184746759Y-78600799D01*
X184635690Y-78447926D01*
X184502073Y-78314309D01*
X184349199Y-78203239D01*
X184180836Y-78117453D01*
X184001118Y-78059058D01*
X183814486Y-78029499D01*
X183814481Y-78029499D01*
X183625519Y-78029499D01*
X183625514Y-78029499D01*
X183438881Y-78059058D01*
X183259163Y-78117453D01*
X183090800Y-78203239D01*
X183003579Y-78266609D01*
X182937927Y-78314309D01*
X182937925Y-78314311D01*
X182937924Y-78314311D01*
X182804312Y-78447923D01*
X182804312Y-78447924D01*
X182804310Y-78447926D01*
X182769206Y-78496242D01*
X182693240Y-78600799D01*
X182607454Y-78769162D01*
X182549059Y-78948880D01*
X182519500Y-79135512D01*
X182519500Y-79324485D01*
X182549059Y-79511117D01*
X182607454Y-79690835D01*
X182693240Y-79859198D01*
X182804310Y-80012072D01*
X182937927Y-80145689D01*
X183090801Y-80256759D01*
X183170347Y-80297289D01*
X183259163Y-80342544D01*
X183259165Y-80342544D01*
X183259168Y-80342546D01*
X183380804Y-80382068D01*
X183438479Y-80421506D01*
X183465677Y-80485865D01*
X183453762Y-80554711D01*
X183406518Y-80606187D01*
X183380805Y-80617930D01*
X183259162Y-80657455D01*
X183090800Y-80743240D01*
X183003579Y-80806610D01*
X182937927Y-80854310D01*
X182937925Y-80854312D01*
X182937924Y-80854312D01*
X182804312Y-80987924D01*
X182804312Y-80987925D01*
X182804310Y-80987927D01*
X182771861Y-81032589D01*
X182693240Y-81140800D01*
X182607454Y-81309163D01*
X182549059Y-81488881D01*
X182519500Y-81675513D01*
X182519500Y-81864486D01*
X182549059Y-82051118D01*
X182607454Y-82230836D01*
X182693240Y-82399199D01*
X182804310Y-82552073D01*
X182937927Y-82685690D01*
X183090801Y-82796760D01*
X183170347Y-82837290D01*
X183259163Y-82882545D01*
X183259165Y-82882545D01*
X183259168Y-82882547D01*
X183380801Y-82922068D01*
X183438476Y-82961506D01*
X183465674Y-83025865D01*
X183453759Y-83094711D01*
X183406515Y-83146187D01*
X183380802Y-83157930D01*
X183259162Y-83197454D01*
X183090800Y-83283239D01*
X183003579Y-83346609D01*
X182937927Y-83394309D01*
X182937925Y-83394311D01*
X182937924Y-83394311D01*
X182804312Y-83527923D01*
X182804312Y-83527924D01*
X182804310Y-83527926D01*
X182756610Y-83593578D01*
X182693240Y-83680799D01*
X182607454Y-83849162D01*
X182549059Y-84028880D01*
X182519500Y-84215512D01*
X182519500Y-84404485D01*
X182549059Y-84591117D01*
X182607455Y-84770837D01*
X182667796Y-84889263D01*
X182680692Y-84957932D01*
X182654415Y-85022672D01*
X182597309Y-85062929D01*
X182527503Y-85065921D01*
X182469630Y-85033238D01*
X178290704Y-80854312D01*
X173605913Y-76169520D01*
X173560250Y-76143156D01*
X173514589Y-76116793D01*
X173463657Y-76103146D01*
X173412727Y-76089500D01*
X173412726Y-76089500D01*
X151929275Y-76089500D01*
X151862236Y-76069815D01*
X151818790Y-76021795D01*
X151736759Y-75860800D01*
X151625690Y-75707927D01*
X151492073Y-75574310D01*
X151339199Y-75463240D01*
X151170836Y-75377454D01*
X150991118Y-75319059D01*
X150804486Y-75289500D01*
X150804481Y-75289500D01*
X150015519Y-75289500D01*
X150015514Y-75289500D01*
X149828881Y-75319059D01*
X149649163Y-75377454D01*
X149480800Y-75463240D01*
X149393579Y-75526610D01*
X149327927Y-75574310D01*
X149327925Y-75574312D01*
X149327924Y-75574312D01*
X149194312Y-75707924D01*
X149194312Y-75707925D01*
X149194310Y-75707927D01*
X149146610Y-75773579D01*
X149083240Y-75860800D01*
X148997454Y-76029163D01*
X148939059Y-76208881D01*
X148909500Y-76395513D01*
X148909500Y-76584486D01*
X148939059Y-76771118D01*
X148997454Y-76950836D01*
X149083240Y-77119199D01*
X149194310Y-77272073D01*
X149327927Y-77405690D01*
X149480801Y-77516760D01*
X149560347Y-77557290D01*
X149649163Y-77602545D01*
X149649165Y-77602545D01*
X149649168Y-77602547D01*
X149738734Y-77631649D01*
X149770803Y-77642069D01*
X149828478Y-77681507D01*
X149855676Y-77745866D01*
X149843761Y-77814712D01*
X149796516Y-77866188D01*
X149770803Y-77877931D01*
X149649163Y-77917454D01*
X149480800Y-78003240D01*
X149403974Y-78059058D01*
X149327927Y-78114310D01*
X149327925Y-78114312D01*
X149327924Y-78114312D01*
X149194312Y-78247924D01*
X149194312Y-78247925D01*
X149194310Y-78247927D01*
X149146610Y-78313579D01*
X149083240Y-78400800D01*
X148997454Y-78569163D01*
X148939059Y-78748881D01*
X148909500Y-78935513D01*
X148909500Y-79124486D01*
X148939059Y-79311118D01*
X148997454Y-79490836D01*
X149044696Y-79583552D01*
X149083240Y-79659199D01*
X149194310Y-79812073D01*
X149327927Y-79945690D01*
X149480801Y-80056760D01*
X149511550Y-80072427D01*
X149521629Y-80077563D01*
X149572425Y-80125538D01*
X149589220Y-80193359D01*
X149566682Y-80259494D01*
X149521629Y-80298533D01*
X149376239Y-80372613D01*
X149197958Y-80502142D01*
X149042142Y-80657958D01*
X148912613Y-80836239D01*
X148812567Y-81032589D01*
X148744473Y-81242161D01*
X148744473Y-81242164D01*
X148732145Y-81320000D01*
X149976988Y-81320000D01*
X149944075Y-81377007D01*
X149910000Y-81504174D01*
X149910000Y-81635826D01*
X149944075Y-81762993D01*
X149976988Y-81820000D01*
X148732145Y-81820000D01*
X148744473Y-81897835D01*
X148744473Y-81897838D01*
X148812567Y-82107410D01*
X148912613Y-82303760D01*
X149042142Y-82482041D01*
X149197958Y-82637857D01*
X149376239Y-82767386D01*
X149521629Y-82841466D01*
X149572425Y-82889440D01*
X149589220Y-82957261D01*
X149566683Y-83023396D01*
X149521631Y-83062435D01*
X149480805Y-83083238D01*
X149480801Y-83083240D01*
X149327927Y-83194310D01*
X149327925Y-83194312D01*
X149327924Y-83194312D01*
X149194312Y-83327924D01*
X149194312Y-83327925D01*
X149194310Y-83327927D01*
X149146610Y-83393579D01*
X149083240Y-83480800D01*
X148997454Y-83649163D01*
X148939059Y-83828881D01*
X148909500Y-84015513D01*
X148909500Y-84204486D01*
X148939059Y-84391118D01*
X148997454Y-84570836D01*
X149083240Y-84739199D01*
X149194310Y-84892073D01*
X149327927Y-85025690D01*
X149480801Y-85136760D01*
X149560347Y-85177290D01*
X149649163Y-85222545D01*
X149649165Y-85222545D01*
X149649168Y-85222547D01*
X149738734Y-85251649D01*
X149770803Y-85262069D01*
X149828478Y-85301507D01*
X149855676Y-85365866D01*
X149843761Y-85434712D01*
X149796516Y-85486188D01*
X149770803Y-85497931D01*
X149649163Y-85537454D01*
X149480800Y-85623240D01*
X149444657Y-85649500D01*
X149327927Y-85734310D01*
X149327925Y-85734312D01*
X149327924Y-85734312D01*
X149194312Y-85867924D01*
X149194312Y-85867925D01*
X149194310Y-85867927D01*
X149146610Y-85933579D01*
X149083240Y-86020800D01*
X148997454Y-86189163D01*
X148939059Y-86368881D01*
X148909500Y-86555513D01*
X148909500Y-86744486D01*
X148939059Y-86931118D01*
X148997454Y-87110836D01*
X149083240Y-87279199D01*
X149194310Y-87432073D01*
X149327927Y-87565690D01*
X149480801Y-87676760D01*
X149560347Y-87717290D01*
X149649163Y-87762545D01*
X149649165Y-87762545D01*
X149649168Y-87762547D01*
X149738734Y-87791649D01*
X149770803Y-87802069D01*
X149828478Y-87841507D01*
X149855676Y-87905866D01*
X149843761Y-87974712D01*
X149796516Y-88026188D01*
X149770803Y-88037931D01*
X149649163Y-88077454D01*
X149480800Y-88163240D01*
X149432281Y-88198492D01*
X149327927Y-88274310D01*
X149327925Y-88274312D01*
X149327924Y-88274312D01*
X149194312Y-88407924D01*
X149194312Y-88407925D01*
X149194310Y-88407927D01*
X149146610Y-88473579D01*
X149083240Y-88560800D01*
X148997454Y-88729163D01*
X148939059Y-88908881D01*
X148909500Y-89095513D01*
X148909500Y-89284486D01*
X148939059Y-89471118D01*
X148997454Y-89650836D01*
X149011971Y-89679326D01*
X149083240Y-89819199D01*
X149194310Y-89972073D01*
X149327927Y-90105690D01*
X149480801Y-90216760D01*
X149560347Y-90257290D01*
X149649163Y-90302545D01*
X149649165Y-90302545D01*
X149649168Y-90302547D01*
X149738734Y-90331649D01*
X149770803Y-90342069D01*
X149828478Y-90381507D01*
X149855676Y-90445866D01*
X149843761Y-90514712D01*
X149796516Y-90566188D01*
X149770803Y-90577931D01*
X149649163Y-90617454D01*
X149480800Y-90703240D01*
X149433646Y-90737500D01*
X149327927Y-90814310D01*
X149327925Y-90814312D01*
X149327924Y-90814312D01*
X149194312Y-90947924D01*
X149194312Y-90947925D01*
X149194310Y-90947927D01*
X149146610Y-91013579D01*
X149083240Y-91100800D01*
X148997454Y-91269163D01*
X148939059Y-91448881D01*
X148909500Y-91635513D01*
X148909500Y-91824486D01*
X148939059Y-92011118D01*
X148997454Y-92190836D01*
X149083240Y-92359199D01*
X149194310Y-92512073D01*
X149327927Y-92645690D01*
X149480801Y-92756760D01*
X149511550Y-92772427D01*
X149521629Y-92777563D01*
X149572425Y-92825538D01*
X149589220Y-92893359D01*
X149566682Y-92959494D01*
X149521629Y-92998533D01*
X149376239Y-93072613D01*
X149197958Y-93202142D01*
X149042142Y-93357958D01*
X148912613Y-93536239D01*
X148812567Y-93732589D01*
X148744473Y-93942161D01*
X148744473Y-93942164D01*
X148732145Y-94020000D01*
X149976988Y-94020000D01*
X149944075Y-94077007D01*
X149910000Y-94204174D01*
X149910000Y-94335826D01*
X149944075Y-94462993D01*
X149976988Y-94520000D01*
X148732145Y-94520000D01*
X148744473Y-94597835D01*
X148744473Y-94597838D01*
X148812567Y-94807410D01*
X148912613Y-95003760D01*
X149042142Y-95182041D01*
X149197958Y-95337857D01*
X149376239Y-95467386D01*
X149521629Y-95541466D01*
X149572425Y-95589440D01*
X149589220Y-95657261D01*
X149566683Y-95723396D01*
X149521631Y-95762435D01*
X149480805Y-95783238D01*
X149480801Y-95783240D01*
X149327927Y-95894310D01*
X149327925Y-95894312D01*
X149327924Y-95894312D01*
X149194312Y-96027924D01*
X149194312Y-96027925D01*
X149194310Y-96027927D01*
X149162426Y-96071811D01*
X149083240Y-96180800D01*
X148997454Y-96349163D01*
X148939059Y-96528881D01*
X148909500Y-96715513D01*
X148909500Y-96904486D01*
X148939059Y-97091118D01*
X148997454Y-97270836D01*
X149068413Y-97410099D01*
X149083240Y-97439199D01*
X149194310Y-97592073D01*
X149327927Y-97725690D01*
X149480801Y-97836760D01*
X149556307Y-97875232D01*
X149649163Y-97922545D01*
X149649165Y-97922545D01*
X149649168Y-97922547D01*
X149688981Y-97935483D01*
X149770803Y-97962069D01*
X149828478Y-98001507D01*
X149855676Y-98065866D01*
X149843761Y-98134712D01*
X149796516Y-98186188D01*
X149770803Y-98197931D01*
X149649163Y-98237454D01*
X149480800Y-98323240D01*
X149408836Y-98375526D01*
X149327927Y-98434310D01*
X149327925Y-98434312D01*
X149327924Y-98434312D01*
X149194312Y-98567924D01*
X149194312Y-98567925D01*
X149194310Y-98567927D01*
X149146610Y-98633579D01*
X149083240Y-98720800D01*
X148997454Y-98889163D01*
X148939059Y-99068881D01*
X148909500Y-99255513D01*
X148909500Y-99444486D01*
X148939059Y-99631118D01*
X148997454Y-99810836D01*
X149083240Y-99979199D01*
X149194310Y-100132073D01*
X149327927Y-100265690D01*
X149480801Y-100376760D01*
X149560347Y-100417290D01*
X149649163Y-100462545D01*
X149649165Y-100462545D01*
X149649168Y-100462547D01*
X149738734Y-100491649D01*
X149770803Y-100502069D01*
X149828478Y-100541507D01*
X149855676Y-100605866D01*
X149843761Y-100674712D01*
X149796516Y-100726188D01*
X149770803Y-100737931D01*
X149649163Y-100777454D01*
X149480800Y-100863240D01*
X149393579Y-100926610D01*
X149327927Y-100974310D01*
X149327925Y-100974312D01*
X149327924Y-100974312D01*
X149194312Y-101107924D01*
X149194312Y-101107925D01*
X149194310Y-101107927D01*
X149146610Y-101173579D01*
X149083240Y-101260800D01*
X148997454Y-101429163D01*
X148939059Y-101608881D01*
X148909500Y-101795513D01*
X148909500Y-101984487D01*
X148921052Y-102057427D01*
X148912097Y-102126720D01*
X148867101Y-102180172D01*
X148800349Y-102200811D01*
X148733035Y-102182086D01*
X148710898Y-102164505D01*
X134077615Y-87531222D01*
X134077613Y-87531220D01*
X133986288Y-87478493D01*
X133982743Y-87476446D01*
X133934528Y-87425878D01*
X133921306Y-87357271D01*
X133944428Y-87296171D01*
X133956760Y-87279199D01*
X134042547Y-87110832D01*
X134100940Y-86931118D01*
X134130500Y-86744486D01*
X134130500Y-86555513D01*
X134100940Y-86368881D01*
X134042545Y-86189163D01*
X133956759Y-86020800D01*
X133845690Y-85867927D01*
X133712073Y-85734310D01*
X133559199Y-85623240D01*
X133390836Y-85537454D01*
X133272625Y-85499045D01*
X133269195Y-85497930D01*
X133211521Y-85458493D01*
X133184323Y-85394134D01*
X133196238Y-85325288D01*
X133243482Y-85273812D01*
X133269194Y-85262069D01*
X133390832Y-85222547D01*
X133559199Y-85136760D01*
X133712073Y-85025690D01*
X133845690Y-84892073D01*
X133956760Y-84739199D01*
X134042547Y-84570832D01*
X134100940Y-84391118D01*
X134130500Y-84204486D01*
X134130500Y-84015513D01*
X134100940Y-83828881D01*
X134052825Y-83680800D01*
X134042547Y-83649168D01*
X134042545Y-83649165D01*
X134042545Y-83649163D01*
X133956759Y-83480800D01*
X133845690Y-83327927D01*
X133712073Y-83194310D01*
X133559199Y-83083240D01*
X133559198Y-83083239D01*
X133559196Y-83083238D01*
X133518369Y-83062435D01*
X133467573Y-83014460D01*
X133450779Y-82946639D01*
X133473317Y-82880504D01*
X133518371Y-82841466D01*
X133663758Y-82767388D01*
X133842041Y-82637857D01*
X133997857Y-82482041D01*
X134127386Y-82303760D01*
X134227432Y-82107410D01*
X134295526Y-81897838D01*
X134295526Y-81897835D01*
X134307855Y-81820000D01*
X133063012Y-81820000D01*
X133095925Y-81762993D01*
X133130000Y-81635826D01*
X133130000Y-81504174D01*
X133095925Y-81377007D01*
X133063012Y-81320000D01*
X134307855Y-81320000D01*
X134295526Y-81242164D01*
X134295526Y-81242161D01*
X134227432Y-81032589D01*
X134127386Y-80836239D01*
X133997857Y-80657958D01*
X133842041Y-80502142D01*
X133663760Y-80372613D01*
X133518370Y-80298533D01*
X133467574Y-80250558D01*
X133450779Y-80182737D01*
X133473316Y-80116602D01*
X133518371Y-80077563D01*
X133559197Y-80056761D01*
X133559196Y-80056761D01*
X133559199Y-80056760D01*
X133712073Y-79945690D01*
X133845690Y-79812073D01*
X133956760Y-79659199D01*
X134042547Y-79490832D01*
X134100940Y-79311118D01*
X134113788Y-79229998D01*
X134130500Y-79124486D01*
X134130500Y-78935513D01*
X134100940Y-78748881D01*
X134052825Y-78600800D01*
X134042547Y-78569168D01*
X134042545Y-78569165D01*
X134042545Y-78569163D01*
X133956759Y-78400800D01*
X133845690Y-78247927D01*
X133712073Y-78114310D01*
X133559199Y-78003240D01*
X133390836Y-77917454D01*
X133316472Y-77893291D01*
X133269195Y-77877930D01*
X133211521Y-77838493D01*
X133184323Y-77774134D01*
X133196238Y-77705288D01*
X133243482Y-77653812D01*
X133269194Y-77642069D01*
X133390832Y-77602547D01*
X133559199Y-77516760D01*
X133712073Y-77405690D01*
X133845690Y-77272073D01*
X133956760Y-77119199D01*
X134042547Y-76950832D01*
X134100940Y-76771118D01*
X134130500Y-76584486D01*
X134130500Y-76395513D01*
X134100940Y-76208881D01*
X134042545Y-76029163D01*
X133956759Y-75860800D01*
X133845690Y-75707927D01*
X133712073Y-75574310D01*
X133559199Y-75463240D01*
X133390836Y-75377454D01*
X133211118Y-75319059D01*
X133024486Y-75289500D01*
X133024481Y-75289500D01*
X132235519Y-75289500D01*
X132235514Y-75289500D01*
X132048881Y-75319059D01*
X131869163Y-75377454D01*
X131700800Y-75463240D01*
X131613579Y-75526610D01*
X131547927Y-75574310D01*
X131547925Y-75574312D01*
X131547924Y-75574312D01*
X131414312Y-75707924D01*
X131414312Y-75707925D01*
X131414310Y-75707927D01*
X131366610Y-75773579D01*
X131303240Y-75860800D01*
X131217454Y-76029163D01*
X131159059Y-76208881D01*
X131129500Y-76395513D01*
X131129500Y-76584486D01*
X131159059Y-76771118D01*
X131217454Y-76950836D01*
X131303240Y-77119199D01*
X131414310Y-77272073D01*
X131547927Y-77405690D01*
X131700801Y-77516760D01*
X131780347Y-77557290D01*
X131869163Y-77602545D01*
X131869165Y-77602545D01*
X131869168Y-77602547D01*
X131958734Y-77631649D01*
X131990803Y-77642069D01*
X132048478Y-77681507D01*
X132075676Y-77745866D01*
X132063761Y-77814712D01*
X132016516Y-77866188D01*
X131990803Y-77877931D01*
X131869163Y-77917454D01*
X131700800Y-78003240D01*
X131623974Y-78059058D01*
X131547927Y-78114310D01*
X131547925Y-78114312D01*
X131547924Y-78114312D01*
X131414312Y-78247924D01*
X131414312Y-78247925D01*
X131414310Y-78247927D01*
X131366610Y-78313579D01*
X131303240Y-78400800D01*
X131217454Y-78569163D01*
X131159059Y-78748881D01*
X131129500Y-78935513D01*
X131129500Y-79124486D01*
X131159059Y-79311118D01*
X131217454Y-79490836D01*
X131264696Y-79583552D01*
X131303240Y-79659199D01*
X131414310Y-79812073D01*
X131547927Y-79945690D01*
X131700801Y-80056760D01*
X131731550Y-80072427D01*
X131741629Y-80077563D01*
X131792425Y-80125538D01*
X131809220Y-80193359D01*
X131786682Y-80259494D01*
X131741629Y-80298533D01*
X131596239Y-80372613D01*
X131417958Y-80502142D01*
X131262142Y-80657958D01*
X131132613Y-80836239D01*
X131032567Y-81032589D01*
X130964473Y-81242161D01*
X130964473Y-81242164D01*
X130952145Y-81320000D01*
X132196988Y-81320000D01*
X132164075Y-81377007D01*
X132130000Y-81504174D01*
X132130000Y-81635826D01*
X132164075Y-81762993D01*
X132196988Y-81820000D01*
X130952145Y-81820000D01*
X130964473Y-81897835D01*
X130964473Y-81897838D01*
X131032567Y-82107410D01*
X131132613Y-82303760D01*
X131262142Y-82482041D01*
X131417958Y-82637857D01*
X131596239Y-82767386D01*
X131741629Y-82841466D01*
X131792425Y-82889440D01*
X131809220Y-82957261D01*
X131786683Y-83023396D01*
X131741631Y-83062435D01*
X131700805Y-83083238D01*
X131700801Y-83083240D01*
X131547927Y-83194310D01*
X131547925Y-83194312D01*
X131547924Y-83194312D01*
X131414312Y-83327924D01*
X131414312Y-83327925D01*
X131414310Y-83327927D01*
X131366610Y-83393579D01*
X131303240Y-83480800D01*
X131217454Y-83649163D01*
X131159059Y-83828881D01*
X131129500Y-84015513D01*
X131129500Y-84204486D01*
X131159059Y-84391118D01*
X131217454Y-84570836D01*
X131303240Y-84739199D01*
X131414310Y-84892073D01*
X131547927Y-85025690D01*
X131700801Y-85136760D01*
X131780347Y-85177290D01*
X131869163Y-85222545D01*
X131869165Y-85222545D01*
X131869168Y-85222547D01*
X131958734Y-85251649D01*
X131990803Y-85262069D01*
X132048478Y-85301507D01*
X132075676Y-85365866D01*
X132063761Y-85434712D01*
X132016516Y-85486188D01*
X131990803Y-85497931D01*
X131869163Y-85537454D01*
X131700800Y-85623240D01*
X131664657Y-85649500D01*
X131547927Y-85734310D01*
X131547925Y-85734312D01*
X131547924Y-85734312D01*
X131414312Y-85867924D01*
X131414312Y-85867925D01*
X131414310Y-85867927D01*
X131366610Y-85933579D01*
X131303240Y-86020800D01*
X131217454Y-86189163D01*
X131159059Y-86368881D01*
X131129500Y-86555513D01*
X131129500Y-86744486D01*
X131159059Y-86931118D01*
X131217454Y-87110836D01*
X131303240Y-87279199D01*
X131414310Y-87432073D01*
X131547927Y-87565690D01*
X131700801Y-87676760D01*
X131780347Y-87717290D01*
X131869163Y-87762545D01*
X131869165Y-87762545D01*
X131869168Y-87762547D01*
X131958734Y-87791649D01*
X131990803Y-87802069D01*
X132048478Y-87841507D01*
X132075676Y-87905866D01*
X132063761Y-87974712D01*
X132016516Y-88026188D01*
X131990803Y-88037931D01*
X131869163Y-88077454D01*
X131700800Y-88163240D01*
X131652281Y-88198492D01*
X131547927Y-88274310D01*
X131547925Y-88274312D01*
X131547924Y-88274312D01*
X131414312Y-88407924D01*
X131414312Y-88407925D01*
X131414310Y-88407927D01*
X131366610Y-88473579D01*
X131303240Y-88560800D01*
X131217454Y-88729163D01*
X131159059Y-88908881D01*
X131129500Y-89095513D01*
X131129500Y-89284486D01*
X131159059Y-89471118D01*
X131217454Y-89650836D01*
X131231971Y-89679326D01*
X131303240Y-89819199D01*
X131414310Y-89972073D01*
X131547927Y-90105690D01*
X131700801Y-90216760D01*
X131780347Y-90257290D01*
X131869163Y-90302545D01*
X131869165Y-90302545D01*
X131869168Y-90302547D01*
X131958734Y-90331649D01*
X131990803Y-90342069D01*
X132048478Y-90381507D01*
X132075676Y-90445866D01*
X132063761Y-90514712D01*
X132016516Y-90566188D01*
X131990803Y-90577931D01*
X131869163Y-90617454D01*
X131700800Y-90703240D01*
X131653646Y-90737500D01*
X131547927Y-90814310D01*
X131547925Y-90814312D01*
X131547924Y-90814312D01*
X131414312Y-90947924D01*
X131414312Y-90947925D01*
X131414310Y-90947927D01*
X131366610Y-91013579D01*
X131303240Y-91100800D01*
X131217454Y-91269163D01*
X131159059Y-91448881D01*
X131129500Y-91635513D01*
X131129500Y-91824486D01*
X131159059Y-92011118D01*
X131217454Y-92190836D01*
X131303240Y-92359199D01*
X131414310Y-92512073D01*
X131547927Y-92645690D01*
X131700801Y-92756760D01*
X131731550Y-92772427D01*
X131741629Y-92777563D01*
X131792425Y-92825538D01*
X131809220Y-92893359D01*
X131786682Y-92959494D01*
X131741629Y-92998533D01*
X131596239Y-93072613D01*
X131417958Y-93202142D01*
X131262142Y-93357958D01*
X131132613Y-93536239D01*
X131032567Y-93732589D01*
X130964473Y-93942161D01*
X130964473Y-93942164D01*
X130952145Y-94020000D01*
X132196988Y-94020000D01*
X132164075Y-94077007D01*
X132130000Y-94204174D01*
X132130000Y-94335826D01*
X132164075Y-94462993D01*
X132196988Y-94520000D01*
X130952145Y-94520000D01*
X130964473Y-94597835D01*
X130964473Y-94597838D01*
X131032567Y-94807410D01*
X131132613Y-95003760D01*
X131262142Y-95182041D01*
X131417958Y-95337857D01*
X131596239Y-95467386D01*
X131741629Y-95541466D01*
X131792425Y-95589440D01*
X131809220Y-95657261D01*
X131786683Y-95723396D01*
X131741631Y-95762435D01*
X131700805Y-95783238D01*
X131700801Y-95783240D01*
X131547927Y-95894310D01*
X131547925Y-95894312D01*
X131547924Y-95894312D01*
X131414312Y-96027924D01*
X131414312Y-96027925D01*
X131414310Y-96027927D01*
X131382426Y-96071811D01*
X131303240Y-96180800D01*
X131217454Y-96349163D01*
X131159059Y-96528881D01*
X131129500Y-96715513D01*
X131129500Y-96904486D01*
X131159059Y-97091118D01*
X131217454Y-97270836D01*
X131288413Y-97410099D01*
X131303240Y-97439199D01*
X131414310Y-97592073D01*
X131547927Y-97725690D01*
X131700801Y-97836760D01*
X131776307Y-97875232D01*
X131869163Y-97922545D01*
X131869165Y-97922545D01*
X131869168Y-97922547D01*
X131908981Y-97935483D01*
X131990803Y-97962069D01*
X132048478Y-98001507D01*
X132075676Y-98065866D01*
X132063761Y-98134712D01*
X132016516Y-98186188D01*
X131990803Y-98197931D01*
X131869163Y-98237454D01*
X131700800Y-98323240D01*
X131628836Y-98375526D01*
X131547927Y-98434310D01*
X131547925Y-98434312D01*
X131547924Y-98434312D01*
X131414312Y-98567924D01*
X131414312Y-98567925D01*
X131414310Y-98567927D01*
X131366610Y-98633579D01*
X131303240Y-98720800D01*
X131217454Y-98889163D01*
X131159059Y-99068881D01*
X131129500Y-99255513D01*
X131129500Y-99444486D01*
X131159059Y-99631118D01*
X131217454Y-99810836D01*
X131303240Y-99979199D01*
X131414310Y-100132073D01*
X131547927Y-100265690D01*
X131700801Y-100376760D01*
X131780347Y-100417290D01*
X131869163Y-100462545D01*
X131869165Y-100462545D01*
X131869168Y-100462547D01*
X131958734Y-100491649D01*
X131990803Y-100502069D01*
X132048478Y-100541507D01*
X132075676Y-100605866D01*
X132063761Y-100674712D01*
X132016516Y-100726188D01*
X131990803Y-100737931D01*
X131869163Y-100777454D01*
X131700800Y-100863240D01*
X131613579Y-100926610D01*
X131547927Y-100974310D01*
X131547925Y-100974312D01*
X131547924Y-100974312D01*
X131414312Y-101107924D01*
X131414312Y-101107925D01*
X131414310Y-101107927D01*
X131366610Y-101173579D01*
X131303240Y-101260800D01*
X131217454Y-101429163D01*
X131159059Y-101608881D01*
X131129500Y-101795513D01*
X131129500Y-101984486D01*
X131159059Y-102171118D01*
X131217454Y-102350836D01*
X131272822Y-102459500D01*
X131303240Y-102519199D01*
X131414310Y-102672073D01*
X131547927Y-102805690D01*
X131700801Y-102916760D01*
X131777161Y-102955667D01*
X131869163Y-103002545D01*
X131869165Y-103002545D01*
X131869168Y-103002547D01*
X131958734Y-103031649D01*
X131990803Y-103042069D01*
X132048478Y-103081507D01*
X132075676Y-103145866D01*
X132063761Y-103214712D01*
X132016516Y-103266188D01*
X131990803Y-103277931D01*
X131869163Y-103317454D01*
X131700800Y-103403240D01*
X131641333Y-103446446D01*
X131547927Y-103514310D01*
X131547925Y-103514312D01*
X131547924Y-103514312D01*
X131414312Y-103647924D01*
X131414312Y-103647925D01*
X131414310Y-103647927D01*
X131382595Y-103691579D01*
X131303240Y-103800800D01*
X131217454Y-103969163D01*
X131159059Y-104148881D01*
X131129500Y-104335513D01*
X131129500Y-104524486D01*
X131159059Y-104711118D01*
X131217454Y-104890836D01*
X131241708Y-104938436D01*
X131303240Y-105059199D01*
X131414310Y-105212073D01*
X131547927Y-105345690D01*
X131700801Y-105456760D01*
X131731550Y-105472427D01*
X131741629Y-105477563D01*
X131792425Y-105525538D01*
X131809220Y-105593359D01*
X131786682Y-105659494D01*
X131741629Y-105698533D01*
X131596239Y-105772613D01*
X131417958Y-105902142D01*
X131262142Y-106057958D01*
X131132613Y-106236239D01*
X131032567Y-106432589D01*
X130964473Y-106642161D01*
X130964473Y-106642164D01*
X130952145Y-106720000D01*
X132196988Y-106720000D01*
X132164075Y-106777007D01*
X132130000Y-106904174D01*
X132130000Y-107035826D01*
X132164075Y-107162993D01*
X132196988Y-107220000D01*
X130952145Y-107220000D01*
X130964473Y-107297835D01*
X130964473Y-107297838D01*
X131032567Y-107507410D01*
X131132613Y-107703760D01*
X131262142Y-107882041D01*
X131417958Y-108037857D01*
X131596239Y-108167386D01*
X131741629Y-108241466D01*
X131792425Y-108289440D01*
X131809220Y-108357261D01*
X131786683Y-108423396D01*
X131741631Y-108462435D01*
X131700805Y-108483238D01*
X131700801Y-108483240D01*
X131547927Y-108594310D01*
X131547925Y-108594312D01*
X131547924Y-108594312D01*
X131414312Y-108727924D01*
X131414312Y-108727925D01*
X131414310Y-108727927D01*
X131366610Y-108793579D01*
X131303240Y-108880800D01*
X131217454Y-109049163D01*
X131159059Y-109228881D01*
X131129500Y-109415513D01*
X131129500Y-109604486D01*
X131159059Y-109791118D01*
X131217454Y-109970836D01*
X131303240Y-110139199D01*
X131414310Y-110292073D01*
X131547927Y-110425690D01*
X131700801Y-110536760D01*
X131780347Y-110577290D01*
X131869163Y-110622545D01*
X131869165Y-110622545D01*
X131869168Y-110622547D01*
X131958734Y-110651649D01*
X131990803Y-110662069D01*
X132048478Y-110701507D01*
X132075676Y-110765866D01*
X132063761Y-110834712D01*
X132016516Y-110886188D01*
X131990803Y-110897931D01*
X131869163Y-110937454D01*
X131700800Y-111023240D01*
X131613579Y-111086610D01*
X131547927Y-111134310D01*
X131547925Y-111134312D01*
X131547924Y-111134312D01*
X131414312Y-111267924D01*
X131414312Y-111267925D01*
X131414310Y-111267927D01*
X131394143Y-111295685D01*
X131303240Y-111420800D01*
X131217454Y-111589163D01*
X131159059Y-111768881D01*
X131129500Y-111955513D01*
X131129500Y-112144486D01*
X131159059Y-112331118D01*
X131217454Y-112510836D01*
X131303240Y-112679199D01*
X131414310Y-112832073D01*
X131547927Y-112965690D01*
X131700801Y-113076760D01*
X131780347Y-113117290D01*
X131869163Y-113162545D01*
X131869165Y-113162545D01*
X131869168Y-113162547D01*
X131990804Y-113202069D01*
X132048479Y-113241507D01*
X132075677Y-113305866D01*
X132063762Y-113374712D01*
X132016518Y-113426188D01*
X131990805Y-113437930D01*
X131962372Y-113447168D01*
X131869163Y-113477454D01*
X131700800Y-113563240D01*
X131613579Y-113626610D01*
X131547927Y-113674310D01*
X131547925Y-113674312D01*
X131547924Y-113674312D01*
X131414312Y-113807924D01*
X131414312Y-113807925D01*
X131414310Y-113807927D01*
X131395431Y-113833912D01*
X131303240Y-113960800D01*
X131217454Y-114129163D01*
X131159059Y-114308881D01*
X131129500Y-114495513D01*
X131129500Y-114684486D01*
X131159059Y-114871118D01*
X131217454Y-115050836D01*
X131303240Y-115219199D01*
X131414310Y-115372073D01*
X131547927Y-115505690D01*
X131700801Y-115616760D01*
X131780347Y-115657290D01*
X131869163Y-115702545D01*
X131869165Y-115702545D01*
X131869168Y-115702547D01*
X131958734Y-115731649D01*
X131990803Y-115742069D01*
X132048478Y-115781507D01*
X132075676Y-115845866D01*
X132063761Y-115914712D01*
X132016516Y-115966188D01*
X131990803Y-115977931D01*
X131869163Y-116017454D01*
X131700800Y-116103240D01*
X131613579Y-116166610D01*
X131547927Y-116214310D01*
X131547925Y-116214312D01*
X131547924Y-116214312D01*
X131414312Y-116347924D01*
X131414312Y-116347925D01*
X131414310Y-116347927D01*
X131366610Y-116413579D01*
X131303240Y-116500800D01*
X131217454Y-116669163D01*
X131159059Y-116848881D01*
X131129500Y-117035513D01*
X131129500Y-117224486D01*
X131159059Y-117411118D01*
X131217454Y-117590836D01*
X131284448Y-117722317D01*
X131303240Y-117759199D01*
X131414310Y-117912073D01*
X131547927Y-118045690D01*
X131700801Y-118156760D01*
X131731550Y-118172427D01*
X131741629Y-118177563D01*
X131792425Y-118225538D01*
X131809220Y-118293359D01*
X131786682Y-118359494D01*
X131741629Y-118398533D01*
X131596239Y-118472613D01*
X131417958Y-118602142D01*
X131262142Y-118757958D01*
X131132613Y-118936239D01*
X131032567Y-119132589D01*
X130964473Y-119342161D01*
X130964473Y-119342164D01*
X130952145Y-119420000D01*
X132196988Y-119420000D01*
X132164075Y-119477007D01*
X132130000Y-119604174D01*
X132130000Y-119735826D01*
X132164075Y-119862993D01*
X132196988Y-119920000D01*
X130952145Y-119920000D01*
X130964473Y-119997835D01*
X130964473Y-119997838D01*
X131032567Y-120207410D01*
X131132613Y-120403760D01*
X131262142Y-120582041D01*
X131417958Y-120737857D01*
X131596239Y-120867386D01*
X131741629Y-120941466D01*
X131792425Y-120989440D01*
X131809220Y-121057261D01*
X131786683Y-121123396D01*
X131741631Y-121162435D01*
X131700805Y-121183238D01*
X131700801Y-121183240D01*
X131547927Y-121294310D01*
X131547925Y-121294312D01*
X131547924Y-121294312D01*
X131414312Y-121427924D01*
X131414312Y-121427925D01*
X131414310Y-121427927D01*
X131366610Y-121493579D01*
X131303240Y-121580800D01*
X131217454Y-121749163D01*
X131159059Y-121928881D01*
X131129500Y-122115513D01*
X131129500Y-122304486D01*
X131159059Y-122491118D01*
X131217454Y-122670836D01*
X131268236Y-122770500D01*
X131303240Y-122839199D01*
X131414310Y-122992073D01*
X131547927Y-123125690D01*
X131700801Y-123236760D01*
X131780347Y-123277290D01*
X131869163Y-123322545D01*
X131869165Y-123322545D01*
X131869168Y-123322547D01*
X131958734Y-123351649D01*
X131990803Y-123362069D01*
X132048478Y-123401507D01*
X132075676Y-123465866D01*
X132063761Y-123534712D01*
X132016516Y-123586188D01*
X131990803Y-123597931D01*
X131869163Y-123637454D01*
X131700800Y-123723240D01*
X131613579Y-123786610D01*
X131547927Y-123834310D01*
X131547925Y-123834312D01*
X131547924Y-123834312D01*
X131414312Y-123967924D01*
X131414312Y-123967925D01*
X131414310Y-123967927D01*
X131366610Y-124033579D01*
X131303240Y-124120800D01*
X131217454Y-124289163D01*
X131159059Y-124468881D01*
X131129500Y-124655513D01*
X131129500Y-124844486D01*
X131159059Y-125031118D01*
X131217454Y-125210836D01*
X131303240Y-125379199D01*
X131414310Y-125532073D01*
X131547927Y-125665690D01*
X131700801Y-125776760D01*
X131780347Y-125817290D01*
X131869163Y-125862545D01*
X131869165Y-125862545D01*
X131869168Y-125862547D01*
X131965497Y-125893846D01*
X132048881Y-125920940D01*
X132235514Y-125950500D01*
X132235519Y-125950500D01*
X133024486Y-125950500D01*
X133211118Y-125920940D01*
X133228648Y-125915244D01*
X133390832Y-125862547D01*
X133559199Y-125776760D01*
X133712073Y-125665690D01*
X133845690Y-125532073D01*
X133956760Y-125379199D01*
X134042547Y-125210832D01*
X134100940Y-125031118D01*
X134112973Y-124955143D01*
X134130500Y-124844486D01*
X134130500Y-124655514D01*
X134124994Y-124620753D01*
X134133948Y-124551459D01*
X134178944Y-124498007D01*
X134245695Y-124477367D01*
X134313009Y-124496091D01*
X134335148Y-124513673D01*
X138563181Y-128741705D01*
X138596666Y-128803028D01*
X138599500Y-128829386D01*
X138599500Y-130293096D01*
X138610122Y-130381563D01*
X138610123Y-130381565D01*
X138620673Y-130408319D01*
X138637312Y-130450510D01*
X138643593Y-130520097D01*
X138611256Y-130582033D01*
X138550567Y-130616654D01*
X138521957Y-130620000D01*
X130644000Y-130620000D01*
X130576961Y-130600315D01*
X130531206Y-130547511D01*
X130520000Y-130496000D01*
X130520000Y-73744000D01*
X130539685Y-73676961D01*
X130592489Y-73631206D01*
X130644000Y-73620000D01*
X189396000Y-73620000D01*
X189463039Y-73639685D01*
G37*
%TD.AperFunction*%
%TA.AperFunction,Conductor*%
G36*
X187600000Y-103852661D02*
G01*
X187627259Y-103954394D01*
X187679920Y-104045606D01*
X187754394Y-104120080D01*
X187845606Y-104172741D01*
X187947339Y-104200000D01*
X187953553Y-104200000D01*
X187274076Y-104879474D01*
X187318650Y-104911859D01*
X187500968Y-105004755D01*
X187695582Y-105067990D01*
X187897683Y-105100000D01*
X188102317Y-105100000D01*
X188304417Y-105067990D01*
X188499031Y-105004755D01*
X188681349Y-104911859D01*
X188725921Y-104879474D01*
X188046447Y-104200000D01*
X188052661Y-104200000D01*
X188154394Y-104172741D01*
X188245606Y-104120080D01*
X188320080Y-104045606D01*
X188372741Y-103954394D01*
X188400000Y-103852661D01*
X188400000Y-103846448D01*
X189079474Y-104525922D01*
X189079474Y-104525921D01*
X189111859Y-104481349D01*
X189204755Y-104299031D01*
X189267990Y-104104417D01*
X189273527Y-104069459D01*
X189303456Y-104006324D01*
X189362768Y-103969393D01*
X189432630Y-103970391D01*
X189490863Y-104009001D01*
X189518977Y-104072965D01*
X189520000Y-104088857D01*
X189520000Y-130496000D01*
X189500315Y-130563039D01*
X189447511Y-130608794D01*
X189396000Y-130620000D01*
X151219969Y-130620000D01*
X151152930Y-130600315D01*
X151107175Y-130547511D01*
X151097231Y-130478353D01*
X151126256Y-130414797D01*
X151132288Y-130408319D01*
X151159045Y-130381562D01*
X151228242Y-130312365D01*
X151357815Y-130134022D01*
X151416827Y-130018204D01*
X151464802Y-129967409D01*
X151527312Y-129950500D01*
X183542472Y-129950500D01*
X183542474Y-129950500D01*
X183542475Y-129950500D01*
X183682485Y-129912984D01*
X183808015Y-129840510D01*
X185458407Y-128190117D01*
X185519727Y-128156634D01*
X185589419Y-128161618D01*
X185645352Y-128203490D01*
X185669769Y-128268954D01*
X185669734Y-128278881D01*
X185670000Y-128278881D01*
X185670000Y-128496246D01*
X185703242Y-128706127D01*
X185703242Y-128706130D01*
X185768904Y-128908217D01*
X185865375Y-129097550D01*
X185904728Y-129151716D01*
X186537037Y-128519408D01*
X186554075Y-128582993D01*
X186619901Y-128697007D01*
X186712993Y-128790099D01*
X186827007Y-128855925D01*
X186890590Y-128872962D01*
X186258282Y-129505269D01*
X186258282Y-129505270D01*
X186312449Y-129544624D01*
X186501782Y-129641095D01*
X186703870Y-129706757D01*
X186913754Y-129740000D01*
X187126246Y-129740000D01*
X187336127Y-129706757D01*
X187336130Y-129706757D01*
X187538217Y-129641095D01*
X187727554Y-129544622D01*
X187781716Y-129505270D01*
X187781717Y-129505270D01*
X187149408Y-128872962D01*
X187212993Y-128855925D01*
X187327007Y-128790099D01*
X187420099Y-128697007D01*
X187485925Y-128582993D01*
X187502962Y-128519408D01*
X188135270Y-129151717D01*
X188135270Y-129151716D01*
X188174622Y-129097554D01*
X188271095Y-128908217D01*
X188336757Y-128706130D01*
X188336757Y-128706127D01*
X188370000Y-128496246D01*
X188370000Y-128283753D01*
X188336757Y-128073872D01*
X188336757Y-128073869D01*
X188271095Y-127871782D01*
X188174624Y-127682449D01*
X188135270Y-127628282D01*
X188135269Y-127628282D01*
X187502962Y-128260590D01*
X187485925Y-128197007D01*
X187420099Y-128082993D01*
X187327007Y-127989901D01*
X187212993Y-127924075D01*
X187149408Y-127907037D01*
X187781716Y-127274728D01*
X187727550Y-127235375D01*
X187726786Y-127234986D01*
X187726546Y-127234759D01*
X187723396Y-127232829D01*
X187723801Y-127232167D01*
X187675988Y-127187013D01*
X187659191Y-127119192D01*
X187681726Y-127053057D01*
X187736440Y-127009604D01*
X187783077Y-127000499D01*
X187914856Y-127000499D01*
X187914864Y-127000499D01*
X187914879Y-127000497D01*
X187914882Y-127000497D01*
X187939987Y-126997586D01*
X187939988Y-126997585D01*
X187939991Y-126997585D01*
X188042765Y-126952206D01*
X188122206Y-126872765D01*
X188167585Y-126769991D01*
X188170500Y-126744865D01*
X188170499Y-124955136D01*
X188170497Y-124955117D01*
X188167586Y-124930012D01*
X188167585Y-124930010D01*
X188167585Y-124930009D01*
X188122206Y-124827235D01*
X188042765Y-124747794D01*
X188042763Y-124747793D01*
X187939992Y-124702415D01*
X187914865Y-124699500D01*
X186125143Y-124699500D01*
X186125117Y-124699502D01*
X186100012Y-124702413D01*
X186100008Y-124702415D01*
X185997235Y-124747793D01*
X185917794Y-124827234D01*
X185872415Y-124930006D01*
X185872415Y-124930008D01*
X185869500Y-124955131D01*
X185869500Y-126170612D01*
X185849815Y-126237651D01*
X185833181Y-126258293D01*
X183278294Y-128813181D01*
X183216971Y-128846666D01*
X183190613Y-128849500D01*
X167156255Y-128849500D01*
X167089216Y-128829815D01*
X167043461Y-128777011D01*
X167033517Y-128707853D01*
X167062542Y-128644297D01*
X167068574Y-128637819D01*
X167123400Y-128582993D01*
X167520401Y-128185990D01*
X167581722Y-128152507D01*
X167646393Y-128155741D01*
X167762299Y-128193402D01*
X167933389Y-128220500D01*
X167933390Y-128220500D01*
X168106610Y-128220500D01*
X168106611Y-128220500D01*
X168277701Y-128193402D01*
X168442445Y-128139873D01*
X168596788Y-128061232D01*
X168736928Y-127959414D01*
X168859414Y-127836928D01*
X168961232Y-127696788D01*
X169039873Y-127542445D01*
X169093402Y-127377701D01*
X169120500Y-127206611D01*
X169120500Y-127033389D01*
X169118012Y-127017682D01*
X176880000Y-127017682D01*
X176880000Y-127222317D01*
X176912009Y-127424417D01*
X176975244Y-127619031D01*
X177068141Y-127801350D01*
X177068147Y-127801359D01*
X177100523Y-127845921D01*
X177100524Y-127845922D01*
X177780000Y-127166446D01*
X177780000Y-127172661D01*
X177807259Y-127274394D01*
X177859920Y-127365606D01*
X177934394Y-127440080D01*
X178025606Y-127492741D01*
X178127339Y-127520000D01*
X178133553Y-127520000D01*
X177454076Y-128199474D01*
X177498650Y-128231859D01*
X177680968Y-128324755D01*
X177875582Y-128387990D01*
X178077683Y-128420000D01*
X178282317Y-128420000D01*
X178484417Y-128387990D01*
X178679031Y-128324755D01*
X178861349Y-128231859D01*
X178905921Y-128199474D01*
X178226447Y-127520000D01*
X178232661Y-127520000D01*
X178334394Y-127492741D01*
X178425606Y-127440080D01*
X178500080Y-127365606D01*
X178552741Y-127274394D01*
X178580000Y-127172661D01*
X178580000Y-127166447D01*
X179259474Y-127845921D01*
X179291859Y-127801349D01*
X179384755Y-127619031D01*
X179447990Y-127424417D01*
X179480000Y-127222317D01*
X179480000Y-127017682D01*
X179447990Y-126815582D01*
X179384755Y-126620968D01*
X179291859Y-126438650D01*
X179259474Y-126394077D01*
X179259474Y-126394076D01*
X178580000Y-127073551D01*
X178580000Y-127067339D01*
X178552741Y-126965606D01*
X178500080Y-126874394D01*
X178425606Y-126799920D01*
X178334394Y-126747259D01*
X178232661Y-126720000D01*
X178226446Y-126720000D01*
X178905922Y-126040524D01*
X178905921Y-126040523D01*
X178861359Y-126008147D01*
X178861350Y-126008141D01*
X178679031Y-125915244D01*
X178484417Y-125852009D01*
X178282317Y-125820000D01*
X178077683Y-125820000D01*
X177875582Y-125852009D01*
X177680968Y-125915244D01*
X177498644Y-126008143D01*
X177454077Y-126040523D01*
X177454077Y-126040524D01*
X178133554Y-126720000D01*
X178127339Y-126720000D01*
X178025606Y-126747259D01*
X177934394Y-126799920D01*
X177859920Y-126874394D01*
X177807259Y-126965606D01*
X177780000Y-127067339D01*
X177780000Y-127073553D01*
X177100524Y-126394077D01*
X177100523Y-126394077D01*
X177068143Y-126438644D01*
X176975244Y-126620968D01*
X176912009Y-126815582D01*
X176880000Y-127017682D01*
X169118012Y-127017682D01*
X169093402Y-126862299D01*
X169039873Y-126697555D01*
X168961232Y-126543212D01*
X168859414Y-126403072D01*
X168736928Y-126280586D01*
X168631946Y-126204312D01*
X168609634Y-126188101D01*
X168596787Y-126178767D01*
X168442447Y-126100128D01*
X168442446Y-126100127D01*
X168442445Y-126100127D01*
X168277701Y-126046598D01*
X168277699Y-126046597D01*
X168277698Y-126046597D01*
X168146271Y-126025781D01*
X168106611Y-126019500D01*
X167933389Y-126019500D01*
X167893728Y-126025781D01*
X167762302Y-126046597D01*
X167597552Y-126100128D01*
X167443211Y-126178768D01*
X167383744Y-126221974D01*
X167303072Y-126280586D01*
X167303070Y-126280588D01*
X167303069Y-126280588D01*
X167180588Y-126403069D01*
X167180588Y-126403070D01*
X167180586Y-126403072D01*
X167154737Y-126438650D01*
X167078768Y-126543211D01*
X167000128Y-126697552D01*
X166946597Y-126862302D01*
X166924709Y-127000499D01*
X166919500Y-127033389D01*
X166919500Y-127206611D01*
X166920747Y-127214486D01*
X166946597Y-127377698D01*
X166984256Y-127493600D01*
X166986251Y-127563441D01*
X166954006Y-127619599D01*
X166688724Y-127884882D01*
X166627404Y-127918366D01*
X166601045Y-127921200D01*
X160701471Y-127921200D01*
X160634432Y-127901515D01*
X160588677Y-127848711D01*
X160578733Y-127779553D01*
X160590986Y-127740905D01*
X160672545Y-127580836D01*
X160672545Y-127580835D01*
X160672547Y-127580832D01*
X160730940Y-127401118D01*
X160734649Y-127377698D01*
X160760500Y-127214486D01*
X160760500Y-127025513D01*
X160730940Y-126838881D01*
X160672545Y-126659163D01*
X160627290Y-126570347D01*
X160586760Y-126490801D01*
X160475690Y-126337927D01*
X160342073Y-126204310D01*
X160189199Y-126093240D01*
X160020836Y-126007454D01*
X159841118Y-125949059D01*
X159654486Y-125919500D01*
X159654481Y-125919500D01*
X159465519Y-125919500D01*
X159465514Y-125919500D01*
X159278881Y-125949059D01*
X159099163Y-126007454D01*
X158930800Y-126093240D01*
X158852661Y-126150012D01*
X158777927Y-126204310D01*
X158777925Y-126204312D01*
X158777924Y-126204312D01*
X158644312Y-126337924D01*
X158644312Y-126337925D01*
X158644310Y-126337927D01*
X158596981Y-126403069D01*
X158533240Y-126490800D01*
X158454984Y-126644387D01*
X158407009Y-126695183D01*
X158339188Y-126711978D01*
X158273053Y-126689441D01*
X158229602Y-126634725D01*
X158220499Y-126588092D01*
X158220499Y-126175143D01*
X158220499Y-126175136D01*
X158220497Y-126175117D01*
X158217586Y-126150012D01*
X158217585Y-126150010D01*
X158217585Y-126150009D01*
X158172206Y-126047235D01*
X158092765Y-125967794D01*
X158053598Y-125950500D01*
X157989992Y-125922415D01*
X157964865Y-125919500D01*
X156075143Y-125919500D01*
X156075117Y-125919502D01*
X156050012Y-125922413D01*
X156050008Y-125922415D01*
X155947235Y-125967793D01*
X155867794Y-126047234D01*
X155822415Y-126150006D01*
X155822415Y-126150008D01*
X155819500Y-126175131D01*
X155819500Y-128064856D01*
X155819502Y-128064882D01*
X155822413Y-128089987D01*
X155822415Y-128089991D01*
X155867793Y-128192764D01*
X155867794Y-128192765D01*
X155947235Y-128272206D01*
X156050009Y-128317585D01*
X156075135Y-128320500D01*
X157964864Y-128320499D01*
X157964879Y-128320497D01*
X157964882Y-128320497D01*
X157989987Y-128317586D01*
X157989988Y-128317585D01*
X157989991Y-128317585D01*
X158092765Y-128272206D01*
X158172206Y-128192765D01*
X158172206Y-128192764D01*
X158174658Y-128190313D01*
X158235981Y-128156828D01*
X158305673Y-128161812D01*
X158350020Y-128190313D01*
X158797526Y-128637819D01*
X158831011Y-128699142D01*
X158826027Y-128768834D01*
X158784155Y-128824767D01*
X158718691Y-128849184D01*
X158709845Y-128849500D01*
X151527312Y-128849500D01*
X151460273Y-128829815D01*
X151416827Y-128781795D01*
X151414906Y-128778024D01*
X151357815Y-128665978D01*
X151242241Y-128506903D01*
X151228247Y-128487641D01*
X151228243Y-128487636D01*
X151072363Y-128331756D01*
X151072358Y-128331752D01*
X150894025Y-128202187D01*
X150894024Y-128202186D01*
X150894022Y-128202185D01*
X150831096Y-128170122D01*
X150697606Y-128102104D01*
X150697603Y-128102103D01*
X150487952Y-128033985D01*
X150379086Y-128016742D01*
X150270222Y-127999500D01*
X150049778Y-127999500D01*
X149982707Y-128010123D01*
X149832047Y-128033985D01*
X149622396Y-128102103D01*
X149622393Y-128102104D01*
X149425974Y-128202187D01*
X149247641Y-128331752D01*
X149247636Y-128331756D01*
X149091756Y-128487636D01*
X149091752Y-128487641D01*
X148962187Y-128665974D01*
X148862104Y-128862393D01*
X148862103Y-128862396D01*
X148793985Y-129072047D01*
X148793985Y-129072049D01*
X148759500Y-129289778D01*
X148759500Y-129510222D01*
X148764949Y-129544624D01*
X148793985Y-129727952D01*
X148862103Y-129937603D01*
X148862104Y-129937606D01*
X148962187Y-130134025D01*
X149091752Y-130312358D01*
X149091756Y-130312363D01*
X149187712Y-130408319D01*
X149221197Y-130469642D01*
X149216213Y-130539334D01*
X149174341Y-130595267D01*
X149108877Y-130619684D01*
X149100031Y-130620000D01*
X141478043Y-130620000D01*
X141411004Y-130600315D01*
X141365249Y-130547511D01*
X141355305Y-130478353D01*
X141362688Y-130450510D01*
X141389877Y-130381565D01*
X141400500Y-130293103D01*
X141400499Y-128506898D01*
X141389877Y-128418435D01*
X141334361Y-128277657D01*
X141334359Y-128277654D01*
X141242923Y-128157076D01*
X141122345Y-128065640D01*
X141122339Y-128065637D01*
X140981566Y-128010123D01*
X140966821Y-128008352D01*
X140893103Y-127999500D01*
X140893098Y-127999500D01*
X139429386Y-127999500D01*
X139362347Y-127979815D01*
X139341705Y-127963181D01*
X134097948Y-122719423D01*
X134064463Y-122658100D01*
X134067697Y-122593425D01*
X134100940Y-122491118D01*
X134117063Y-122389316D01*
X134130500Y-122304486D01*
X134130500Y-122115513D01*
X134100940Y-121928881D01*
X134042545Y-121749163D01*
X133956759Y-121580800D01*
X133937414Y-121554174D01*
X133845690Y-121427927D01*
X133712073Y-121294310D01*
X133559199Y-121183240D01*
X133559198Y-121183239D01*
X133559196Y-121183238D01*
X133518369Y-121162435D01*
X133467573Y-121114460D01*
X133450779Y-121046639D01*
X133473317Y-120980504D01*
X133518371Y-120941466D01*
X133663758Y-120867388D01*
X133842041Y-120737857D01*
X133997857Y-120582041D01*
X134127386Y-120403760D01*
X134227432Y-120207410D01*
X134295526Y-119997838D01*
X134295526Y-119997835D01*
X134307855Y-119920000D01*
X133063012Y-119920000D01*
X133095925Y-119862993D01*
X133130000Y-119735826D01*
X133130000Y-119604174D01*
X133095925Y-119477007D01*
X133063012Y-119420000D01*
X134307855Y-119420000D01*
X134295526Y-119342164D01*
X134295526Y-119342161D01*
X134227432Y-119132589D01*
X134127386Y-118936239D01*
X133997857Y-118757958D01*
X133842041Y-118602142D01*
X133663760Y-118472613D01*
X133518370Y-118398533D01*
X133467574Y-118350558D01*
X133450779Y-118282737D01*
X133473316Y-118216602D01*
X133518371Y-118177563D01*
X133559197Y-118156761D01*
X133559196Y-118156761D01*
X133559199Y-118156760D01*
X133712073Y-118045690D01*
X133845690Y-117912073D01*
X133956760Y-117759199D01*
X134042547Y-117590832D01*
X134100940Y-117411118D01*
X134130500Y-117224486D01*
X134130500Y-117035513D01*
X134100940Y-116848881D01*
X134055772Y-116709870D01*
X134042547Y-116669168D01*
X134042545Y-116669165D01*
X134042545Y-116669163D01*
X133980419Y-116547234D01*
X133956760Y-116500801D01*
X133845690Y-116347927D01*
X133712073Y-116214310D01*
X133559199Y-116103240D01*
X133548562Y-116097820D01*
X133390836Y-116017454D01*
X133316472Y-115993291D01*
X133269195Y-115977930D01*
X133211521Y-115938493D01*
X133184323Y-115874134D01*
X133196238Y-115805288D01*
X133243482Y-115753812D01*
X133269194Y-115742069D01*
X133390832Y-115702547D01*
X133559199Y-115616760D01*
X133712073Y-115505690D01*
X133845690Y-115372073D01*
X133956760Y-115219199D01*
X134042547Y-115050832D01*
X134100940Y-114871118D01*
X134130500Y-114684486D01*
X134130500Y-114495513D01*
X134100940Y-114308881D01*
X134042545Y-114129163D01*
X133956758Y-113960798D01*
X133955830Y-113959283D01*
X133955653Y-113958628D01*
X133954548Y-113956460D01*
X133955003Y-113956227D01*
X133937591Y-113891836D01*
X133958711Y-113825235D01*
X134012486Y-113780625D01*
X134061562Y-113770500D01*
X148978438Y-113770500D01*
X149045477Y-113790185D01*
X149091232Y-113842989D01*
X149101176Y-113912147D01*
X149085229Y-113956346D01*
X149085452Y-113956460D01*
X149084549Y-113958231D01*
X149084170Y-113959283D01*
X149083241Y-113960798D01*
X148997454Y-114129163D01*
X148939059Y-114308881D01*
X148909500Y-114495513D01*
X148909500Y-114684486D01*
X148939059Y-114871118D01*
X148997454Y-115050836D01*
X149083240Y-115219199D01*
X149194310Y-115372073D01*
X149327927Y-115505690D01*
X149480801Y-115616760D01*
X149560347Y-115657290D01*
X149649163Y-115702545D01*
X149649165Y-115702545D01*
X149649168Y-115702547D01*
X149738734Y-115731649D01*
X149770803Y-115742069D01*
X149828478Y-115781507D01*
X149855676Y-115845866D01*
X149843761Y-115914712D01*
X149796516Y-115966188D01*
X149770803Y-115977931D01*
X149649163Y-116017454D01*
X149480800Y-116103240D01*
X149393579Y-116166610D01*
X149327927Y-116214310D01*
X149327925Y-116214312D01*
X149327924Y-116214312D01*
X149194312Y-116347924D01*
X149194312Y-116347925D01*
X149194310Y-116347927D01*
X149146610Y-116413579D01*
X149083240Y-116500800D01*
X148997454Y-116669163D01*
X148939059Y-116848881D01*
X148909500Y-117035513D01*
X148909500Y-117224486D01*
X148939059Y-117411118D01*
X148997454Y-117590836D01*
X149064448Y-117722317D01*
X149083240Y-117759199D01*
X149194310Y-117912073D01*
X149327927Y-118045690D01*
X149480801Y-118156760D01*
X149511550Y-118172427D01*
X149521629Y-118177563D01*
X149572425Y-118225538D01*
X149589220Y-118293359D01*
X149566682Y-118359494D01*
X149521629Y-118398533D01*
X149376239Y-118472613D01*
X149197958Y-118602142D01*
X149042142Y-118757958D01*
X148912613Y-118936239D01*
X148812567Y-119132589D01*
X148744473Y-119342161D01*
X148744473Y-119342164D01*
X148732145Y-119420000D01*
X149976988Y-119420000D01*
X149944075Y-119477007D01*
X149910000Y-119604174D01*
X149910000Y-119735826D01*
X149944075Y-119862993D01*
X149976988Y-119920000D01*
X148732145Y-119920000D01*
X148744473Y-119997835D01*
X148744473Y-119997838D01*
X148812567Y-120207410D01*
X148912613Y-120403760D01*
X149042142Y-120582041D01*
X149197958Y-120737857D01*
X149376239Y-120867386D01*
X149521629Y-120941466D01*
X149572425Y-120989440D01*
X149589220Y-121057261D01*
X149566683Y-121123396D01*
X149521631Y-121162435D01*
X149480805Y-121183238D01*
X149480801Y-121183240D01*
X149327927Y-121294310D01*
X149327925Y-121294312D01*
X149327924Y-121294312D01*
X149194312Y-121427924D01*
X149194312Y-121427925D01*
X149194310Y-121427927D01*
X149146610Y-121493579D01*
X149083240Y-121580800D01*
X148997454Y-121749163D01*
X148939059Y-121928881D01*
X148909500Y-122115513D01*
X148909500Y-122304486D01*
X148939059Y-122491118D01*
X148997454Y-122670836D01*
X149048236Y-122770500D01*
X149083240Y-122839199D01*
X149194310Y-122992073D01*
X149327927Y-123125690D01*
X149480801Y-123236760D01*
X149560347Y-123277290D01*
X149649163Y-123322545D01*
X149649165Y-123322545D01*
X149649168Y-123322547D01*
X149738734Y-123351649D01*
X149770803Y-123362069D01*
X149828478Y-123401507D01*
X149855676Y-123465866D01*
X149843761Y-123534712D01*
X149796516Y-123586188D01*
X149770803Y-123597931D01*
X149649163Y-123637454D01*
X149480800Y-123723240D01*
X149393579Y-123786610D01*
X149327927Y-123834310D01*
X149327925Y-123834312D01*
X149327924Y-123834312D01*
X149194312Y-123967924D01*
X149194312Y-123967925D01*
X149194310Y-123967927D01*
X149146610Y-124033579D01*
X149083240Y-124120800D01*
X148997454Y-124289163D01*
X148939059Y-124468881D01*
X148909500Y-124655513D01*
X148909500Y-124844486D01*
X148939059Y-125031118D01*
X148997454Y-125210836D01*
X149083240Y-125379199D01*
X149194310Y-125532073D01*
X149327927Y-125665690D01*
X149480801Y-125776760D01*
X149560347Y-125817290D01*
X149649163Y-125862545D01*
X149649165Y-125862545D01*
X149649168Y-125862547D01*
X149745497Y-125893846D01*
X149828881Y-125920940D01*
X150015514Y-125950500D01*
X150015519Y-125950500D01*
X150804486Y-125950500D01*
X150991118Y-125920940D01*
X151008648Y-125915244D01*
X151170832Y-125862547D01*
X151339199Y-125776760D01*
X151492073Y-125665690D01*
X151625690Y-125532073D01*
X151736760Y-125379199D01*
X151822547Y-125210832D01*
X151880940Y-125031118D01*
X151892973Y-124955143D01*
X151910500Y-124844486D01*
X151910500Y-124655513D01*
X151880940Y-124468881D01*
X151822545Y-124289163D01*
X151736759Y-124120800D01*
X151625690Y-123967927D01*
X151492073Y-123834310D01*
X151339199Y-123723240D01*
X151309668Y-123708193D01*
X151170836Y-123637454D01*
X151096472Y-123613291D01*
X151049195Y-123597930D01*
X150991521Y-123558493D01*
X150964323Y-123494134D01*
X150976238Y-123425288D01*
X151023482Y-123373812D01*
X151049194Y-123362069D01*
X151170832Y-123322547D01*
X151339199Y-123236760D01*
X151492073Y-123125690D01*
X151625690Y-122992073D01*
X151736760Y-122839199D01*
X151822547Y-122670832D01*
X151880940Y-122491118D01*
X151880941Y-122491112D01*
X151910500Y-122304486D01*
X151910500Y-122115513D01*
X151880940Y-121928881D01*
X151822545Y-121749163D01*
X151736759Y-121580800D01*
X151717414Y-121554174D01*
X151625690Y-121427927D01*
X151492073Y-121294310D01*
X151339199Y-121183240D01*
X151339198Y-121183239D01*
X151339196Y-121183238D01*
X151298369Y-121162435D01*
X151247573Y-121114460D01*
X151230779Y-121046639D01*
X151253317Y-120980504D01*
X151298371Y-120941466D01*
X151443758Y-120867388D01*
X151622041Y-120737857D01*
X151634767Y-120725131D01*
X170869500Y-120725131D01*
X170869500Y-122514856D01*
X170869502Y-122514882D01*
X170872413Y-122539987D01*
X170872415Y-122539991D01*
X170917793Y-122642764D01*
X170917794Y-122642765D01*
X170997235Y-122722206D01*
X171100009Y-122767585D01*
X171125135Y-122770500D01*
X172914864Y-122770499D01*
X172914879Y-122770497D01*
X172914882Y-122770497D01*
X172939987Y-122767586D01*
X172939988Y-122767585D01*
X172939991Y-122767585D01*
X173042765Y-122722206D01*
X173122206Y-122642765D01*
X173167585Y-122539991D01*
X173170500Y-122514865D01*
X173170499Y-121580801D01*
X173170499Y-120725130D01*
X173170154Y-120722155D01*
X175670000Y-120722155D01*
X175670000Y-121370000D01*
X176586988Y-121370000D01*
X176554075Y-121427007D01*
X176520000Y-121554174D01*
X176520000Y-121685826D01*
X176554075Y-121812993D01*
X176586988Y-121870000D01*
X175670000Y-121870000D01*
X175670000Y-122517844D01*
X175676401Y-122577372D01*
X175676403Y-122577379D01*
X175726645Y-122712086D01*
X175726649Y-122712093D01*
X175812809Y-122827187D01*
X175812812Y-122827190D01*
X175927906Y-122913350D01*
X175927913Y-122913354D01*
X176062620Y-122963596D01*
X176062627Y-122963598D01*
X176122155Y-122969999D01*
X176122172Y-122970000D01*
X176770000Y-122970000D01*
X176770000Y-122053012D01*
X176827007Y-122085925D01*
X176954174Y-122120000D01*
X177085826Y-122120000D01*
X177212993Y-122085925D01*
X177270000Y-122053012D01*
X177270000Y-122970000D01*
X177917828Y-122970000D01*
X177917844Y-122969999D01*
X177977372Y-122963598D01*
X177977379Y-122963596D01*
X178112086Y-122913354D01*
X178112093Y-122913350D01*
X178227187Y-122827190D01*
X178227190Y-122827187D01*
X178313350Y-122712093D01*
X178313354Y-122712086D01*
X178363596Y-122577379D01*
X178363598Y-122577372D01*
X178369999Y-122517844D01*
X178370000Y-122517827D01*
X178370000Y-121870000D01*
X177453012Y-121870000D01*
X177485925Y-121812993D01*
X177520000Y-121685826D01*
X177520000Y-121554174D01*
X177485925Y-121427007D01*
X177453012Y-121370000D01*
X178370000Y-121370000D01*
X178370000Y-120725131D01*
X180869500Y-120725131D01*
X180869500Y-122514856D01*
X180869502Y-122514882D01*
X180872413Y-122539987D01*
X180872415Y-122539991D01*
X180917793Y-122642764D01*
X180917794Y-122642765D01*
X180997235Y-122722206D01*
X181100009Y-122767585D01*
X181125135Y-122770500D01*
X182914864Y-122770499D01*
X182914879Y-122770497D01*
X182914882Y-122770497D01*
X182939987Y-122767586D01*
X182939988Y-122767585D01*
X182939991Y-122767585D01*
X183042765Y-122722206D01*
X183122206Y-122642765D01*
X183167585Y-122539991D01*
X183170500Y-122514865D01*
X183170499Y-121580801D01*
X183170499Y-120725130D01*
X183170154Y-120722155D01*
X185670000Y-120722155D01*
X185670000Y-121370000D01*
X186586988Y-121370000D01*
X186554075Y-121427007D01*
X186520000Y-121554174D01*
X186520000Y-121685826D01*
X186554075Y-121812993D01*
X186586988Y-121870000D01*
X185670000Y-121870000D01*
X185670000Y-122517844D01*
X185676401Y-122577372D01*
X185676403Y-122577379D01*
X185726645Y-122712086D01*
X185726649Y-122712093D01*
X185812809Y-122827187D01*
X185812812Y-122827190D01*
X185927906Y-122913350D01*
X185927913Y-122913354D01*
X186062620Y-122963596D01*
X186062627Y-122963598D01*
X186122155Y-122969999D01*
X186122172Y-122970000D01*
X186770000Y-122970000D01*
X186770000Y-122053012D01*
X186827007Y-122085925D01*
X186954174Y-122120000D01*
X187085826Y-122120000D01*
X187212993Y-122085925D01*
X187270000Y-122053012D01*
X187270000Y-122970000D01*
X187917828Y-122970000D01*
X187917844Y-122969999D01*
X187977372Y-122963598D01*
X187977379Y-122963596D01*
X188112086Y-122913354D01*
X188112093Y-122913350D01*
X188227187Y-122827190D01*
X188227190Y-122827187D01*
X188313350Y-122712093D01*
X188313354Y-122712086D01*
X188363596Y-122577379D01*
X188363598Y-122577372D01*
X188369999Y-122517844D01*
X188370000Y-122517827D01*
X188370000Y-121870000D01*
X187453012Y-121870000D01*
X187485925Y-121812993D01*
X187520000Y-121685826D01*
X187520000Y-121554174D01*
X187485925Y-121427007D01*
X187453012Y-121370000D01*
X188370000Y-121370000D01*
X188370000Y-120722172D01*
X188369999Y-120722155D01*
X188363598Y-120662627D01*
X188363596Y-120662620D01*
X188313354Y-120527913D01*
X188313350Y-120527906D01*
X188227190Y-120412812D01*
X188227187Y-120412809D01*
X188112093Y-120326649D01*
X188112086Y-120326645D01*
X187977379Y-120276403D01*
X187977372Y-120276401D01*
X187917844Y-120270000D01*
X187270000Y-120270000D01*
X187270000Y-121186988D01*
X187212993Y-121154075D01*
X187085826Y-121120000D01*
X186954174Y-121120000D01*
X186827007Y-121154075D01*
X186770000Y-121186988D01*
X186770000Y-120270000D01*
X186122155Y-120270000D01*
X186062627Y-120276401D01*
X186062620Y-120276403D01*
X185927913Y-120326645D01*
X185927906Y-120326649D01*
X185812812Y-120412809D01*
X185812809Y-120412812D01*
X185726649Y-120527906D01*
X185726645Y-120527913D01*
X185676403Y-120662620D01*
X185676401Y-120662627D01*
X185670000Y-120722155D01*
X183170154Y-120722155D01*
X183167586Y-120700012D01*
X183167585Y-120700010D01*
X183167585Y-120700009D01*
X183122206Y-120597235D01*
X183042765Y-120517794D01*
X183042763Y-120517793D01*
X182939992Y-120472415D01*
X182914865Y-120469500D01*
X181125143Y-120469500D01*
X181125117Y-120469502D01*
X181100012Y-120472413D01*
X181100008Y-120472415D01*
X180997235Y-120517793D01*
X180917794Y-120597234D01*
X180872415Y-120700006D01*
X180872415Y-120700008D01*
X180869500Y-120725131D01*
X178370000Y-120725131D01*
X178370000Y-120722172D01*
X178369999Y-120722155D01*
X178363598Y-120662627D01*
X178363596Y-120662620D01*
X178313354Y-120527913D01*
X178313350Y-120527906D01*
X178227190Y-120412812D01*
X178227187Y-120412809D01*
X178112093Y-120326649D01*
X178112086Y-120326645D01*
X177977379Y-120276403D01*
X177977372Y-120276401D01*
X177917844Y-120270000D01*
X177270000Y-120270000D01*
X177270000Y-121186988D01*
X177212993Y-121154075D01*
X177085826Y-121120000D01*
X176954174Y-121120000D01*
X176827007Y-121154075D01*
X176770000Y-121186988D01*
X176770000Y-120270000D01*
X176122155Y-120270000D01*
X176062627Y-120276401D01*
X176062620Y-120276403D01*
X175927913Y-120326645D01*
X175927906Y-120326649D01*
X175812812Y-120412809D01*
X175812809Y-120412812D01*
X175726649Y-120527906D01*
X175726645Y-120527913D01*
X175676403Y-120662620D01*
X175676401Y-120662627D01*
X175670000Y-120722155D01*
X173170154Y-120722155D01*
X173167586Y-120700012D01*
X173167585Y-120700010D01*
X173167585Y-120700009D01*
X173122206Y-120597235D01*
X173042765Y-120517794D01*
X173042763Y-120517793D01*
X172939992Y-120472415D01*
X172914865Y-120469500D01*
X171125143Y-120469500D01*
X171125117Y-120469502D01*
X171100012Y-120472413D01*
X171100008Y-120472415D01*
X170997235Y-120517793D01*
X170917794Y-120597234D01*
X170872415Y-120700006D01*
X170872415Y-120700008D01*
X170869500Y-120725131D01*
X151634767Y-120725131D01*
X151726026Y-120633873D01*
X151777857Y-120582041D01*
X151907386Y-120403760D01*
X152007432Y-120207410D01*
X152075526Y-119997838D01*
X152075526Y-119997835D01*
X152087855Y-119920000D01*
X150843012Y-119920000D01*
X150875925Y-119862993D01*
X150910000Y-119735826D01*
X150910000Y-119604174D01*
X150875925Y-119477007D01*
X150843012Y-119420000D01*
X152087855Y-119420000D01*
X152075526Y-119342164D01*
X152075526Y-119342161D01*
X152007432Y-119132589D01*
X151907386Y-118936239D01*
X151777857Y-118757958D01*
X151622041Y-118602142D01*
X151443760Y-118472613D01*
X151298370Y-118398533D01*
X151247574Y-118350558D01*
X151230779Y-118282737D01*
X151253316Y-118216602D01*
X151298371Y-118177563D01*
X151339197Y-118156761D01*
X151339196Y-118156761D01*
X151339199Y-118156760D01*
X151492073Y-118045690D01*
X151625690Y-117912073D01*
X151736760Y-117759199D01*
X151822547Y-117590832D01*
X151880940Y-117411118D01*
X151910500Y-117224486D01*
X151910500Y-117035513D01*
X151880940Y-116848881D01*
X151835773Y-116709873D01*
X151835772Y-116709870D01*
X151824485Y-116675131D01*
X155819500Y-116675131D01*
X155819500Y-118564856D01*
X155819502Y-118564882D01*
X155822413Y-118589987D01*
X155822415Y-118589991D01*
X155867793Y-118692764D01*
X155867794Y-118692765D01*
X155947235Y-118772206D01*
X156050009Y-118817585D01*
X156075135Y-118820500D01*
X157964864Y-118820499D01*
X157964879Y-118820497D01*
X157964882Y-118820497D01*
X157989987Y-118817586D01*
X157989988Y-118817585D01*
X157989991Y-118817585D01*
X158092765Y-118772206D01*
X158172206Y-118692765D01*
X158217585Y-118589991D01*
X158220500Y-118564865D01*
X158220500Y-118151909D01*
X158240185Y-118084870D01*
X158292989Y-118039115D01*
X158362147Y-118029171D01*
X158425703Y-118058196D01*
X158454984Y-118095613D01*
X158533240Y-118249199D01*
X158644310Y-118402073D01*
X158777927Y-118535690D01*
X158930801Y-118646760D01*
X159010347Y-118687290D01*
X159099163Y-118732545D01*
X159099165Y-118732545D01*
X159099168Y-118732547D01*
X159177375Y-118757958D01*
X159278881Y-118790940D01*
X159465514Y-118820500D01*
X159465519Y-118820500D01*
X159654486Y-118820500D01*
X159841118Y-118790940D01*
X160020832Y-118732547D01*
X160189199Y-118646760D01*
X160342073Y-118535690D01*
X160475690Y-118402073D01*
X160586760Y-118249199D01*
X160672547Y-118080832D01*
X160730940Y-117901118D01*
X160734649Y-117877701D01*
X160760500Y-117714486D01*
X160760500Y-117525513D01*
X160730940Y-117338881D01*
X160693770Y-117224486D01*
X160672547Y-117159168D01*
X160672545Y-117159165D01*
X160672545Y-117159163D01*
X160590986Y-116999095D01*
X160578090Y-116930426D01*
X160604366Y-116865685D01*
X160661473Y-116825428D01*
X160701471Y-116818800D01*
X166601045Y-116818800D01*
X166668084Y-116838485D01*
X166688726Y-116855119D01*
X166954006Y-117120399D01*
X166987491Y-117181722D01*
X166984256Y-117246397D01*
X166946598Y-117362297D01*
X166946597Y-117362301D01*
X166930236Y-117465606D01*
X166919500Y-117533389D01*
X166919500Y-117706611D01*
X166946598Y-117877701D01*
X167000127Y-118042445D01*
X167078768Y-118196788D01*
X167180586Y-118336928D01*
X167303072Y-118459414D01*
X167443212Y-118561232D01*
X167597555Y-118639873D01*
X167762299Y-118693402D01*
X167933389Y-118720500D01*
X167933390Y-118720500D01*
X168106610Y-118720500D01*
X168106611Y-118720500D01*
X168277701Y-118693402D01*
X168442445Y-118639873D01*
X168596788Y-118561232D01*
X168736928Y-118459414D01*
X168859414Y-118336928D01*
X168961232Y-118196788D01*
X169039873Y-118042445D01*
X169093402Y-117877701D01*
X169120500Y-117706611D01*
X169120500Y-117533389D01*
X169118012Y-117517682D01*
X176880000Y-117517682D01*
X176880000Y-117722317D01*
X176912009Y-117924417D01*
X176975244Y-118119031D01*
X177068141Y-118301350D01*
X177068147Y-118301359D01*
X177100523Y-118345921D01*
X177100524Y-118345922D01*
X177780000Y-117666446D01*
X177780000Y-117672661D01*
X177807259Y-117774394D01*
X177859920Y-117865606D01*
X177934394Y-117940080D01*
X178025606Y-117992741D01*
X178127339Y-118020000D01*
X178133553Y-118020000D01*
X177454076Y-118699474D01*
X177498650Y-118731859D01*
X177680968Y-118824755D01*
X177875582Y-118887990D01*
X178077683Y-118920000D01*
X178282317Y-118920000D01*
X178484417Y-118887990D01*
X178679031Y-118824755D01*
X178861349Y-118731859D01*
X178905921Y-118699474D01*
X178226447Y-118020000D01*
X178232661Y-118020000D01*
X178334394Y-117992741D01*
X178425606Y-117940080D01*
X178500080Y-117865606D01*
X178552741Y-117774394D01*
X178580000Y-117672661D01*
X178580000Y-117666447D01*
X179259474Y-118345921D01*
X179291859Y-118301349D01*
X179384755Y-118119031D01*
X179447990Y-117924417D01*
X179480000Y-117722317D01*
X179480000Y-117517682D01*
X179447990Y-117315582D01*
X179384755Y-117120968D01*
X179291859Y-116938650D01*
X179259474Y-116894077D01*
X179259474Y-116894076D01*
X178580000Y-117573551D01*
X178580000Y-117567339D01*
X178552741Y-117465606D01*
X178500080Y-117374394D01*
X178425606Y-117299920D01*
X178334394Y-117247259D01*
X178232661Y-117220000D01*
X178226446Y-117220000D01*
X178905922Y-116540524D01*
X178905921Y-116540523D01*
X178861359Y-116508147D01*
X178861350Y-116508141D01*
X178679031Y-116415244D01*
X178484417Y-116352009D01*
X178282317Y-116320000D01*
X178077683Y-116320000D01*
X177875582Y-116352009D01*
X177680968Y-116415244D01*
X177498644Y-116508143D01*
X177454077Y-116540523D01*
X177454077Y-116540524D01*
X178133554Y-117220000D01*
X178127339Y-117220000D01*
X178025606Y-117247259D01*
X177934394Y-117299920D01*
X177859920Y-117374394D01*
X177807259Y-117465606D01*
X177780000Y-117567339D01*
X177780000Y-117573553D01*
X177100524Y-116894077D01*
X177100523Y-116894077D01*
X177068143Y-116938644D01*
X176975244Y-117120968D01*
X176912009Y-117315582D01*
X176880000Y-117517682D01*
X169118012Y-117517682D01*
X169093402Y-117362299D01*
X169039873Y-117197555D01*
X168961232Y-117043212D01*
X168859414Y-116903072D01*
X168736928Y-116780586D01*
X168609634Y-116688101D01*
X168596787Y-116678767D01*
X168442447Y-116600128D01*
X168442446Y-116600127D01*
X168442445Y-116600127D01*
X168277701Y-116546598D01*
X168277699Y-116546597D01*
X168277698Y-116546597D01*
X168146271Y-116525781D01*
X168106611Y-116519500D01*
X167933389Y-116519500D01*
X167901192Y-116524599D01*
X167762301Y-116546597D01*
X167762297Y-116546598D01*
X167646397Y-116584256D01*
X167576556Y-116586251D01*
X167520399Y-116554006D01*
X167064215Y-116097822D01*
X167064213Y-116097820D01*
X167018550Y-116071456D01*
X166972889Y-116045093D01*
X166921957Y-116031446D01*
X166871027Y-116017800D01*
X159100527Y-116017800D01*
X158995073Y-116017800D01*
X158893210Y-116045093D01*
X158801887Y-116097820D01*
X158801884Y-116097822D01*
X158350019Y-116549686D01*
X158288696Y-116583171D01*
X158219004Y-116578187D01*
X158174657Y-116549686D01*
X158092765Y-116467794D01*
X157989992Y-116422415D01*
X157964865Y-116419500D01*
X156075143Y-116419500D01*
X156075117Y-116419502D01*
X156050012Y-116422413D01*
X156050008Y-116422415D01*
X155947235Y-116467793D01*
X155867794Y-116547234D01*
X155822415Y-116650006D01*
X155822415Y-116650008D01*
X155819500Y-116675131D01*
X151824485Y-116675131D01*
X151822547Y-116669167D01*
X151760419Y-116547234D01*
X151736760Y-116500801D01*
X151625690Y-116347927D01*
X151492073Y-116214310D01*
X151339199Y-116103240D01*
X151328562Y-116097820D01*
X151170836Y-116017454D01*
X151096472Y-115993291D01*
X151049195Y-115977930D01*
X150991521Y-115938493D01*
X150964323Y-115874134D01*
X150976238Y-115805288D01*
X151023482Y-115753812D01*
X151049194Y-115742069D01*
X151170832Y-115702547D01*
X151339199Y-115616760D01*
X151492073Y-115505690D01*
X151625690Y-115372073D01*
X151736760Y-115219199D01*
X151822547Y-115050832D01*
X151880940Y-114871118D01*
X151910500Y-114684486D01*
X151910500Y-114495513D01*
X151880940Y-114308881D01*
X151822545Y-114129163D01*
X151736758Y-113960798D01*
X151735830Y-113959283D01*
X151735653Y-113958628D01*
X151734548Y-113956460D01*
X151735003Y-113956227D01*
X151717591Y-113891836D01*
X151738711Y-113825235D01*
X151792486Y-113780625D01*
X151841562Y-113770500D01*
X168398218Y-113770500D01*
X168460688Y-113787385D01*
X168537262Y-113832045D01*
X168677106Y-113870176D01*
X168820782Y-113870807D01*
X168822051Y-113870813D01*
X168822051Y-113870812D01*
X168822053Y-113870813D01*
X168962228Y-113833913D01*
X169088075Y-113761992D01*
X171280087Y-111589168D01*
X176155500Y-106756434D01*
X176216970Y-106723219D01*
X176242795Y-106720500D01*
X177113097Y-106720500D01*
X177113102Y-106720500D01*
X177201564Y-106709877D01*
X177342342Y-106654361D01*
X177462922Y-106562922D01*
X177554361Y-106442342D01*
X177609877Y-106301564D01*
X177618197Y-106232278D01*
X177645733Y-106168066D01*
X177703615Y-106128933D01*
X177773466Y-106127305D01*
X177833108Y-106163700D01*
X177851797Y-106190769D01*
X177908141Y-106301350D01*
X177908147Y-106301359D01*
X177940523Y-106345921D01*
X177940524Y-106345922D01*
X178620000Y-105666446D01*
X178620000Y-105672661D01*
X178647259Y-105774394D01*
X178699920Y-105865606D01*
X178774394Y-105940080D01*
X178865606Y-105992741D01*
X178967339Y-106020000D01*
X178973553Y-106020000D01*
X178294076Y-106699474D01*
X178338650Y-106731859D01*
X178520968Y-106824755D01*
X178715582Y-106887990D01*
X178917683Y-106920000D01*
X179122317Y-106920000D01*
X179324417Y-106887990D01*
X179519031Y-106824755D01*
X179701349Y-106731859D01*
X179745921Y-106699474D01*
X179066447Y-106020000D01*
X179072661Y-106020000D01*
X179174394Y-105992741D01*
X179265606Y-105940080D01*
X179340080Y-105865606D01*
X179392741Y-105774394D01*
X179420000Y-105672661D01*
X179420000Y-105666447D01*
X180099474Y-106345921D01*
X180131859Y-106301349D01*
X180224755Y-106119031D01*
X180287990Y-105924417D01*
X180320000Y-105722317D01*
X180320000Y-105517682D01*
X180287990Y-105315582D01*
X180224755Y-105120968D01*
X180131859Y-104938650D01*
X180099474Y-104894077D01*
X180099474Y-104894076D01*
X179420000Y-105573551D01*
X179420000Y-105567339D01*
X179392741Y-105465606D01*
X179340080Y-105374394D01*
X179265606Y-105299920D01*
X179174394Y-105247259D01*
X179072661Y-105220000D01*
X179066446Y-105220000D01*
X179745922Y-104540524D01*
X179741492Y-104484228D01*
X179755857Y-104415851D01*
X179804908Y-104366095D01*
X179865110Y-104350500D01*
X184476487Y-104350500D01*
X184543526Y-104370185D01*
X184576805Y-104401614D01*
X184660586Y-104516928D01*
X184783072Y-104639414D01*
X184923212Y-104741232D01*
X185077555Y-104819873D01*
X185242299Y-104873402D01*
X185413389Y-104900500D01*
X185413390Y-104900500D01*
X185586610Y-104900500D01*
X185586611Y-104900500D01*
X185757701Y-104873402D01*
X185922445Y-104819873D01*
X186076788Y-104741232D01*
X186216928Y-104639414D01*
X186339414Y-104516928D01*
X186441232Y-104376788D01*
X186519873Y-104222445D01*
X186527185Y-104199938D01*
X186566621Y-104142264D01*
X186630980Y-104115065D01*
X186699826Y-104126979D01*
X186751303Y-104174223D01*
X186763047Y-104199938D01*
X186795244Y-104299031D01*
X186888141Y-104481350D01*
X186888147Y-104481359D01*
X186920523Y-104525921D01*
X186920524Y-104525922D01*
X187600000Y-103846446D01*
X187600000Y-103852661D01*
G37*
%TD.AperFunction*%
%TA.AperFunction,Conductor*%
G36*
X134306963Y-88897913D02*
G01*
X134329101Y-88915494D01*
X148819519Y-103405912D01*
X148819520Y-103405913D01*
X148894087Y-103480480D01*
X148985413Y-103533207D01*
X149055764Y-103552057D01*
X149115422Y-103588420D01*
X149145952Y-103651267D01*
X149137658Y-103720643D01*
X149123987Y-103744716D01*
X149083242Y-103800796D01*
X148997454Y-103969163D01*
X148939059Y-104148881D01*
X148909500Y-104335513D01*
X148909500Y-104524486D01*
X148939059Y-104711118D01*
X148997454Y-104890836D01*
X149021708Y-104938436D01*
X149083240Y-105059199D01*
X149194310Y-105212073D01*
X149327927Y-105345690D01*
X149480801Y-105456760D01*
X149511550Y-105472427D01*
X149521629Y-105477563D01*
X149572425Y-105525538D01*
X149589220Y-105593359D01*
X149566682Y-105659494D01*
X149521629Y-105698533D01*
X149376239Y-105772613D01*
X149197958Y-105902142D01*
X149042142Y-106057958D01*
X148912613Y-106236239D01*
X148812567Y-106432589D01*
X148744473Y-106642161D01*
X148744473Y-106642164D01*
X148732145Y-106720000D01*
X149976988Y-106720000D01*
X149944075Y-106777007D01*
X149910000Y-106904174D01*
X149910000Y-107035826D01*
X149944075Y-107162993D01*
X149976988Y-107220000D01*
X148732145Y-107220000D01*
X148744473Y-107297835D01*
X148744473Y-107297838D01*
X148812567Y-107507410D01*
X148912613Y-107703760D01*
X149042142Y-107882041D01*
X149197958Y-108037857D01*
X149376239Y-108167386D01*
X149521629Y-108241466D01*
X149572425Y-108289440D01*
X149589220Y-108357261D01*
X149566683Y-108423396D01*
X149521631Y-108462435D01*
X149480805Y-108483238D01*
X149480801Y-108483240D01*
X149327927Y-108594310D01*
X149327925Y-108594312D01*
X149327924Y-108594312D01*
X149194312Y-108727924D01*
X149194312Y-108727925D01*
X149194310Y-108727927D01*
X149146610Y-108793579D01*
X149083240Y-108880800D01*
X148997454Y-109049163D01*
X148939059Y-109228881D01*
X148909500Y-109415513D01*
X148909500Y-109604486D01*
X148939059Y-109791118D01*
X148997454Y-109970836D01*
X149083240Y-110139199D01*
X149194310Y-110292073D01*
X149327927Y-110425690D01*
X149480801Y-110536760D01*
X149560347Y-110577290D01*
X149649163Y-110622545D01*
X149649165Y-110622545D01*
X149649168Y-110622547D01*
X149770804Y-110662069D01*
X149828479Y-110701507D01*
X149855677Y-110765866D01*
X149843762Y-110834712D01*
X149796518Y-110886188D01*
X149770805Y-110897930D01*
X149742372Y-110907168D01*
X149649163Y-110937454D01*
X149480800Y-111023240D01*
X149393579Y-111086610D01*
X149327927Y-111134310D01*
X149327925Y-111134312D01*
X149327924Y-111134312D01*
X149194312Y-111267924D01*
X149194312Y-111267925D01*
X149194310Y-111267927D01*
X149174143Y-111295685D01*
X149083240Y-111420800D01*
X148997454Y-111589163D01*
X148939059Y-111768881D01*
X148909500Y-111955513D01*
X148909500Y-112144486D01*
X148939059Y-112331118D01*
X148997454Y-112510836D01*
X149083241Y-112679201D01*
X149084170Y-112680717D01*
X149084346Y-112681371D01*
X149085452Y-112683540D01*
X149084996Y-112683772D01*
X149102409Y-112748164D01*
X149081289Y-112814765D01*
X149027514Y-112859375D01*
X148978438Y-112869500D01*
X134061562Y-112869500D01*
X133994523Y-112849815D01*
X133948768Y-112797011D01*
X133938824Y-112727853D01*
X133954770Y-112683653D01*
X133954548Y-112683540D01*
X133955450Y-112681768D01*
X133955830Y-112680717D01*
X133956755Y-112679205D01*
X133956760Y-112679199D01*
X134042547Y-112510832D01*
X134100940Y-112331118D01*
X134130500Y-112144486D01*
X134130500Y-111955513D01*
X134100940Y-111768881D01*
X134042545Y-111589163D01*
X133956759Y-111420800D01*
X133845690Y-111267927D01*
X133712073Y-111134310D01*
X133559199Y-111023240D01*
X133390836Y-110937454D01*
X133316472Y-110913291D01*
X133269195Y-110897930D01*
X133211521Y-110858493D01*
X133184323Y-110794134D01*
X133196238Y-110725288D01*
X133243482Y-110673812D01*
X133269194Y-110662069D01*
X133390832Y-110622547D01*
X133559199Y-110536760D01*
X133712073Y-110425690D01*
X133845690Y-110292073D01*
X133956760Y-110139199D01*
X134042547Y-109970832D01*
X134100940Y-109791118D01*
X134130500Y-109604486D01*
X134130500Y-109415513D01*
X134100940Y-109228881D01*
X134042545Y-109049163D01*
X133956759Y-108880800D01*
X133845690Y-108727927D01*
X133712073Y-108594310D01*
X133559199Y-108483240D01*
X133559198Y-108483239D01*
X133559196Y-108483238D01*
X133518369Y-108462435D01*
X133467573Y-108414460D01*
X133450779Y-108346639D01*
X133473317Y-108280504D01*
X133518371Y-108241466D01*
X133663758Y-108167388D01*
X133842041Y-108037857D01*
X133997857Y-107882041D01*
X134127386Y-107703760D01*
X134227432Y-107507410D01*
X134295526Y-107297838D01*
X134295526Y-107297835D01*
X134307855Y-107220000D01*
X133063012Y-107220000D01*
X133095925Y-107162993D01*
X133130000Y-107035826D01*
X133130000Y-106904174D01*
X133095925Y-106777007D01*
X133063012Y-106720000D01*
X134307855Y-106720000D01*
X134295526Y-106642164D01*
X134295526Y-106642161D01*
X134227432Y-106432589D01*
X134127386Y-106236239D01*
X133997857Y-106057958D01*
X133842041Y-105902142D01*
X133663760Y-105772613D01*
X133518370Y-105698533D01*
X133467574Y-105650558D01*
X133450779Y-105582737D01*
X133473316Y-105516602D01*
X133518371Y-105477563D01*
X133559197Y-105456761D01*
X133559196Y-105456761D01*
X133559199Y-105456760D01*
X133712073Y-105345690D01*
X133845690Y-105212073D01*
X133956760Y-105059199D01*
X134042547Y-104890832D01*
X134100940Y-104711118D01*
X134106331Y-104677078D01*
X134130500Y-104524486D01*
X134130500Y-104335513D01*
X134100940Y-104148881D01*
X134067383Y-104045606D01*
X134042547Y-103969168D01*
X134042545Y-103969165D01*
X134042545Y-103969163D01*
X133973462Y-103833581D01*
X133956760Y-103800801D01*
X133845690Y-103647927D01*
X133712073Y-103514310D01*
X133559199Y-103403240D01*
X133552840Y-103400000D01*
X133390836Y-103317454D01*
X133297157Y-103287016D01*
X133269195Y-103277930D01*
X133211521Y-103238493D01*
X133184323Y-103174134D01*
X133196238Y-103105288D01*
X133243482Y-103053812D01*
X133269194Y-103042069D01*
X133390832Y-103002547D01*
X133559199Y-102916760D01*
X133712073Y-102805690D01*
X133845690Y-102672073D01*
X133956760Y-102519199D01*
X134042547Y-102350832D01*
X134100940Y-102171118D01*
X134118947Y-102057427D01*
X134130500Y-101984486D01*
X134130500Y-101795513D01*
X134100940Y-101608881D01*
X134042545Y-101429163D01*
X133956759Y-101260800D01*
X133845690Y-101107927D01*
X133712073Y-100974310D01*
X133559199Y-100863240D01*
X133390836Y-100777454D01*
X133316472Y-100753291D01*
X133269195Y-100737930D01*
X133211521Y-100698493D01*
X133184323Y-100634134D01*
X133196238Y-100565288D01*
X133243482Y-100513812D01*
X133269194Y-100502069D01*
X133390832Y-100462547D01*
X133559199Y-100376760D01*
X133712073Y-100265690D01*
X133845690Y-100132073D01*
X133956760Y-99979199D01*
X134042547Y-99810832D01*
X134100940Y-99631118D01*
X134130500Y-99444486D01*
X134130500Y-99255513D01*
X134100940Y-99068881D01*
X134042545Y-98889163D01*
X133956759Y-98720800D01*
X133845690Y-98567927D01*
X133712073Y-98434310D01*
X133559199Y-98323240D01*
X133528174Y-98307432D01*
X133390836Y-98237454D01*
X133298296Y-98207386D01*
X133269195Y-98197930D01*
X133211521Y-98158493D01*
X133184323Y-98094134D01*
X133196238Y-98025288D01*
X133243482Y-97973812D01*
X133269194Y-97962069D01*
X133390832Y-97922547D01*
X133559199Y-97836760D01*
X133712073Y-97725690D01*
X133845690Y-97592073D01*
X133956760Y-97439199D01*
X134042547Y-97270832D01*
X134100940Y-97091118D01*
X134113788Y-97009999D01*
X134130500Y-96904486D01*
X134130500Y-96715513D01*
X134100940Y-96528881D01*
X134042545Y-96349163D01*
X133993102Y-96252126D01*
X133956760Y-96180801D01*
X133845690Y-96027927D01*
X133712073Y-95894310D01*
X133559199Y-95783240D01*
X133559198Y-95783239D01*
X133559196Y-95783238D01*
X133518369Y-95762435D01*
X133467573Y-95714460D01*
X133450779Y-95646639D01*
X133473317Y-95580504D01*
X133518371Y-95541466D01*
X133663758Y-95467388D01*
X133842041Y-95337857D01*
X133997857Y-95182041D01*
X134127386Y-95003760D01*
X134227432Y-94807410D01*
X134295526Y-94597838D01*
X134295526Y-94597835D01*
X134307855Y-94520000D01*
X133063012Y-94520000D01*
X133095925Y-94462993D01*
X133130000Y-94335826D01*
X133130000Y-94204174D01*
X133095925Y-94077007D01*
X133063012Y-94020000D01*
X134307855Y-94020000D01*
X134295526Y-93942164D01*
X134295526Y-93942161D01*
X134227432Y-93732589D01*
X134127386Y-93536239D01*
X133997857Y-93357958D01*
X133842041Y-93202142D01*
X133663760Y-93072613D01*
X133518370Y-92998533D01*
X133467574Y-92950558D01*
X133450779Y-92882737D01*
X133473316Y-92816602D01*
X133518371Y-92777563D01*
X133559197Y-92756761D01*
X133559196Y-92756761D01*
X133559199Y-92756760D01*
X133712073Y-92645690D01*
X133845690Y-92512073D01*
X133956760Y-92359199D01*
X134042547Y-92190832D01*
X134100940Y-92011118D01*
X134130500Y-91824486D01*
X134130500Y-91635513D01*
X134100940Y-91448881D01*
X134052825Y-91300800D01*
X134042547Y-91269168D01*
X134042545Y-91269165D01*
X134042545Y-91269163D01*
X133956759Y-91100800D01*
X133845690Y-90947927D01*
X133712073Y-90814310D01*
X133559199Y-90703240D01*
X133512856Y-90679627D01*
X133390836Y-90617454D01*
X133280199Y-90581506D01*
X133269195Y-90577930D01*
X133211521Y-90538493D01*
X133184323Y-90474134D01*
X133196238Y-90405288D01*
X133243482Y-90353812D01*
X133269194Y-90342069D01*
X133390832Y-90302547D01*
X133559199Y-90216760D01*
X133712073Y-90105690D01*
X133845690Y-89972073D01*
X133956760Y-89819199D01*
X134042547Y-89650832D01*
X134100940Y-89471118D01*
X134130500Y-89284486D01*
X134130500Y-89095513D01*
X134118947Y-89022573D01*
X134127901Y-88953280D01*
X134172897Y-88899828D01*
X134239649Y-88879188D01*
X134306963Y-88897913D01*
G37*
%TD.AperFunction*%
%TA.AperFunction,Conductor*%
G36*
X182600643Y-91178262D02*
G01*
X182656576Y-91220134D01*
X182680993Y-91285598D01*
X182667794Y-91350738D01*
X182607455Y-91469159D01*
X182549059Y-91648880D01*
X182519500Y-91835512D01*
X182519500Y-92024485D01*
X182549059Y-92211117D01*
X182607454Y-92390835D01*
X182693240Y-92559198D01*
X182804310Y-92712072D01*
X182937927Y-92845689D01*
X183090801Y-92956759D01*
X183121550Y-92972426D01*
X183131629Y-92977562D01*
X183182425Y-93025537D01*
X183199220Y-93093358D01*
X183176682Y-93159493D01*
X183131630Y-93198531D01*
X182986237Y-93272613D01*
X182986234Y-93272615D01*
X182922485Y-93318930D01*
X182922485Y-93318931D01*
X183590590Y-93987036D01*
X183527007Y-94004074D01*
X183412993Y-94069900D01*
X183319901Y-94162992D01*
X183254075Y-94277006D01*
X183237037Y-94340589D01*
X182568932Y-93672484D01*
X182568931Y-93672484D01*
X182522616Y-93736232D01*
X182422567Y-93932588D01*
X182354473Y-94142163D01*
X182320000Y-94359817D01*
X182320000Y-94580180D01*
X182354473Y-94797834D01*
X182422567Y-95007409D01*
X182522611Y-95203755D01*
X182568932Y-95267512D01*
X183237037Y-94599407D01*
X183254075Y-94662992D01*
X183319901Y-94777006D01*
X183412993Y-94870098D01*
X183527007Y-94935924D01*
X183590590Y-94952961D01*
X182922485Y-95621064D01*
X182922485Y-95621065D01*
X182948105Y-95639679D01*
X182990772Y-95695009D01*
X182996751Y-95764622D01*
X182964146Y-95826417D01*
X182948106Y-95840316D01*
X182922485Y-95858930D01*
X182922485Y-95858932D01*
X183590590Y-96527037D01*
X183527007Y-96544075D01*
X183412993Y-96609901D01*
X183319901Y-96702993D01*
X183254075Y-96817007D01*
X183237037Y-96880590D01*
X182568932Y-96212485D01*
X182568931Y-96212485D01*
X182522616Y-96276233D01*
X182422567Y-96472589D01*
X182354473Y-96682164D01*
X182320000Y-96899818D01*
X182320000Y-97120181D01*
X182354473Y-97337835D01*
X182422567Y-97547410D01*
X182522611Y-97743756D01*
X182568932Y-97807513D01*
X183237037Y-97139408D01*
X183254075Y-97202993D01*
X183319901Y-97317007D01*
X183412993Y-97410099D01*
X183527007Y-97475925D01*
X183590590Y-97492962D01*
X182922485Y-98161065D01*
X182922485Y-98161066D01*
X182986243Y-98207388D01*
X183182589Y-98307432D01*
X183392164Y-98375526D01*
X183609819Y-98410000D01*
X183830181Y-98410000D01*
X184047835Y-98375526D01*
X184257410Y-98307432D01*
X184453760Y-98207386D01*
X184517513Y-98161066D01*
X184517514Y-98161066D01*
X183849409Y-97492962D01*
X183912993Y-97475925D01*
X184027007Y-97410099D01*
X184120099Y-97317007D01*
X184185925Y-97202993D01*
X184202962Y-97139409D01*
X184911488Y-97847936D01*
X184908846Y-97850577D01*
X184933878Y-97875232D01*
X184949500Y-97935483D01*
X184949500Y-102776488D01*
X184929815Y-102843527D01*
X184898385Y-102876806D01*
X184783075Y-102960583D01*
X184783069Y-102960588D01*
X184660587Y-103083070D01*
X184576805Y-103198386D01*
X184521474Y-103241051D01*
X184476487Y-103249500D01*
X178267525Y-103249500D01*
X178183519Y-103272009D01*
X178127513Y-103287016D01*
X178127512Y-103287017D01*
X178001989Y-103359487D01*
X178001984Y-103359491D01*
X176878294Y-104483181D01*
X176816971Y-104516666D01*
X176790613Y-104519500D01*
X175926898Y-104519500D01*
X175887853Y-104524188D01*
X175838438Y-104530122D01*
X175697656Y-104585639D01*
X175577077Y-104677077D01*
X175485639Y-104797656D01*
X175430122Y-104938438D01*
X175430097Y-104938650D01*
X175419500Y-105026898D01*
X175419500Y-105026903D01*
X175419500Y-105884059D01*
X175399815Y-105951098D01*
X175382795Y-105972125D01*
X168460759Y-112833566D01*
X168399289Y-112866781D01*
X168373464Y-112869500D01*
X151841562Y-112869500D01*
X151774523Y-112849815D01*
X151728768Y-112797011D01*
X151718824Y-112727853D01*
X151734770Y-112683653D01*
X151734548Y-112683540D01*
X151735450Y-112681768D01*
X151735830Y-112680717D01*
X151736755Y-112679205D01*
X151736760Y-112679199D01*
X151822547Y-112510832D01*
X151880940Y-112331118D01*
X151910500Y-112144486D01*
X151910500Y-111955513D01*
X151880940Y-111768881D01*
X151822545Y-111589163D01*
X151740986Y-111429095D01*
X151728090Y-111360426D01*
X151754366Y-111295685D01*
X151811473Y-111255428D01*
X151851471Y-111248800D01*
X162314425Y-111248800D01*
X162314427Y-111248800D01*
X162416288Y-111221507D01*
X162507613Y-111168780D01*
X182469630Y-91206761D01*
X182530951Y-91173278D01*
X182600643Y-91178262D01*
G37*
%TD.AperFunction*%
%TA.AperFunction,Conductor*%
G36*
X173209784Y-76910185D02*
G01*
X173230426Y-76926819D01*
X182574645Y-86271037D01*
X182608130Y-86332360D01*
X182604895Y-86397036D01*
X182549060Y-86568877D01*
X182549060Y-86568880D01*
X182519500Y-86755513D01*
X182519500Y-86944486D01*
X182549059Y-87131118D01*
X182607454Y-87310836D01*
X182669229Y-87432075D01*
X182693240Y-87479199D01*
X182804310Y-87632073D01*
X182937927Y-87765690D01*
X183090801Y-87876760D01*
X183145101Y-87904427D01*
X183259163Y-87962545D01*
X183259165Y-87962545D01*
X183259168Y-87962547D01*
X183380801Y-88002068D01*
X183438476Y-88041506D01*
X183465674Y-88105865D01*
X183453759Y-88174711D01*
X183406515Y-88226187D01*
X183380802Y-88237930D01*
X183259162Y-88277454D01*
X183090800Y-88363239D01*
X183003579Y-88426609D01*
X182937927Y-88474309D01*
X182937925Y-88474311D01*
X182937924Y-88474311D01*
X182804312Y-88607923D01*
X182804312Y-88607924D01*
X182804310Y-88607926D01*
X182756610Y-88673578D01*
X182693240Y-88760799D01*
X182607454Y-88929162D01*
X182549059Y-89108880D01*
X182519500Y-89295512D01*
X182519500Y-89484485D01*
X182549060Y-89671118D01*
X182549060Y-89671121D01*
X182604895Y-89842961D01*
X182606890Y-89912802D01*
X182574645Y-89968960D01*
X162132126Y-110411481D01*
X162070803Y-110444966D01*
X162044445Y-110447800D01*
X151755911Y-110447800D01*
X151688872Y-110428115D01*
X151643117Y-110375311D01*
X151633173Y-110306153D01*
X151655591Y-110250916D01*
X151736760Y-110139199D01*
X151822547Y-109970832D01*
X151880940Y-109791118D01*
X151910500Y-109604486D01*
X151910500Y-109415513D01*
X151880940Y-109228881D01*
X151822545Y-109049163D01*
X151736759Y-108880800D01*
X151625690Y-108727927D01*
X151492073Y-108594310D01*
X151339199Y-108483240D01*
X151339198Y-108483239D01*
X151339196Y-108483238D01*
X151298369Y-108462435D01*
X151247573Y-108414460D01*
X151230779Y-108346639D01*
X151253317Y-108280504D01*
X151298371Y-108241466D01*
X151443758Y-108167388D01*
X151622041Y-108037857D01*
X151777857Y-107882041D01*
X151907386Y-107703760D01*
X152007432Y-107507410D01*
X152075526Y-107297838D01*
X152075526Y-107297835D01*
X152087855Y-107220000D01*
X150843012Y-107220000D01*
X150875925Y-107162993D01*
X150910000Y-107035826D01*
X150910000Y-106904174D01*
X150875925Y-106777007D01*
X150843012Y-106720000D01*
X152087855Y-106720000D01*
X152075526Y-106642164D01*
X152075526Y-106642161D01*
X152007432Y-106432589D01*
X151907386Y-106236239D01*
X151777857Y-106057958D01*
X151622041Y-105902142D01*
X151443760Y-105772613D01*
X151298370Y-105698533D01*
X151247574Y-105650558D01*
X151230779Y-105582737D01*
X151253316Y-105516602D01*
X151298371Y-105477563D01*
X151339197Y-105456761D01*
X151339196Y-105456761D01*
X151339199Y-105456760D01*
X151492073Y-105345690D01*
X151625690Y-105212073D01*
X151736760Y-105059199D01*
X151822547Y-104890832D01*
X151880940Y-104711118D01*
X151886331Y-104677078D01*
X151910500Y-104524486D01*
X151910500Y-104335513D01*
X151880940Y-104148881D01*
X151847383Y-104045606D01*
X151822547Y-103969168D01*
X151822545Y-103969165D01*
X151822545Y-103969163D01*
X151753462Y-103833581D01*
X151736760Y-103800801D01*
X151705216Y-103757385D01*
X151681737Y-103691579D01*
X151697562Y-103623525D01*
X151747668Y-103574830D01*
X151805535Y-103560500D01*
X160686353Y-103560500D01*
X160753392Y-103580185D01*
X160778327Y-103602385D01*
X160778478Y-103602235D01*
X160781064Y-103604821D01*
X160782213Y-103605844D01*
X160782789Y-103606546D01*
X160880354Y-103704111D01*
X160880358Y-103704114D01*
X160995082Y-103780771D01*
X160995095Y-103780778D01*
X161122567Y-103833578D01*
X161122572Y-103833580D01*
X161122576Y-103833580D01*
X161122577Y-103833581D01*
X161257904Y-103860500D01*
X161257907Y-103860500D01*
X161395895Y-103860500D01*
X161486941Y-103842389D01*
X161531228Y-103833580D01*
X161658711Y-103780775D01*
X161773442Y-103704114D01*
X161871014Y-103606542D01*
X161947675Y-103491811D01*
X162000480Y-103364328D01*
X162015858Y-103287017D01*
X162027400Y-103228995D01*
X162027400Y-103091004D01*
X162000481Y-102955677D01*
X162000480Y-102955676D01*
X162000480Y-102955672D01*
X161967813Y-102876806D01*
X161947678Y-102828195D01*
X161947671Y-102828182D01*
X161871014Y-102713458D01*
X161871011Y-102713454D01*
X161773445Y-102615888D01*
X161773441Y-102615885D01*
X161658717Y-102539228D01*
X161658704Y-102539221D01*
X161531232Y-102486421D01*
X161531222Y-102486418D01*
X161395895Y-102459500D01*
X161395893Y-102459500D01*
X161257907Y-102459500D01*
X161257905Y-102459500D01*
X161122577Y-102486418D01*
X161122567Y-102486421D01*
X160995095Y-102539221D01*
X160995082Y-102539228D01*
X160880358Y-102615885D01*
X160880354Y-102615888D01*
X160782789Y-102713453D01*
X160782213Y-102714156D01*
X160781817Y-102714425D01*
X160778478Y-102717765D01*
X160777844Y-102717131D01*
X160724471Y-102753496D01*
X160686353Y-102759500D01*
X151805535Y-102759500D01*
X151738496Y-102739815D01*
X151692741Y-102687011D01*
X151682797Y-102617853D01*
X151705217Y-102562614D01*
X151736760Y-102519199D01*
X151822547Y-102350832D01*
X151880940Y-102171118D01*
X151898947Y-102057427D01*
X151910500Y-101984486D01*
X151910500Y-101795513D01*
X151880940Y-101608881D01*
X151822545Y-101429163D01*
X151736759Y-101260800D01*
X151625690Y-101107927D01*
X151492073Y-100974310D01*
X151339199Y-100863240D01*
X151170836Y-100777454D01*
X151096472Y-100753291D01*
X151049195Y-100737930D01*
X150991521Y-100698493D01*
X150964323Y-100634134D01*
X150976238Y-100565288D01*
X151023482Y-100513812D01*
X151049194Y-100502069D01*
X151170832Y-100462547D01*
X151339199Y-100376760D01*
X151492073Y-100265690D01*
X151625690Y-100132073D01*
X151736760Y-99979199D01*
X151822547Y-99810832D01*
X151880940Y-99631118D01*
X151910500Y-99444486D01*
X151910500Y-99255513D01*
X151880940Y-99068881D01*
X151822545Y-98889163D01*
X151736759Y-98720800D01*
X151625690Y-98567927D01*
X151492073Y-98434310D01*
X151339199Y-98323240D01*
X151170832Y-98237453D01*
X151049195Y-98197930D01*
X150991521Y-98158493D01*
X150964323Y-98094134D01*
X150976238Y-98025288D01*
X151023482Y-97973812D01*
X151049194Y-97962069D01*
X151170832Y-97922547D01*
X151339199Y-97836760D01*
X151492073Y-97725690D01*
X151625690Y-97592073D01*
X151736760Y-97439199D01*
X151822547Y-97270832D01*
X151880940Y-97091118D01*
X151893788Y-97009999D01*
X151910500Y-96904486D01*
X151910500Y-96715513D01*
X151880940Y-96528881D01*
X151822545Y-96349163D01*
X151773102Y-96252126D01*
X151736760Y-96180801D01*
X151625690Y-96027927D01*
X151492073Y-95894310D01*
X151339199Y-95783240D01*
X151339198Y-95783239D01*
X151339196Y-95783238D01*
X151298369Y-95762435D01*
X151247573Y-95714460D01*
X151230779Y-95646639D01*
X151253317Y-95580504D01*
X151298371Y-95541466D01*
X151443758Y-95467388D01*
X151622041Y-95337857D01*
X151777857Y-95182041D01*
X151907386Y-95003760D01*
X152007432Y-94807410D01*
X152075526Y-94597838D01*
X152075526Y-94597835D01*
X152087855Y-94520000D01*
X150843012Y-94520000D01*
X150875925Y-94462993D01*
X150910000Y-94335826D01*
X150910000Y-94204174D01*
X150875925Y-94077007D01*
X150843012Y-94020000D01*
X152087855Y-94020000D01*
X152075526Y-93942164D01*
X152075526Y-93942161D01*
X152007432Y-93732589D01*
X151907386Y-93536239D01*
X151777857Y-93357958D01*
X151622041Y-93202142D01*
X151443760Y-93072613D01*
X151298370Y-92998533D01*
X151247574Y-92950558D01*
X151230779Y-92882737D01*
X151253316Y-92816602D01*
X151298371Y-92777563D01*
X151339197Y-92756761D01*
X151339196Y-92756761D01*
X151339199Y-92756760D01*
X151492073Y-92645690D01*
X151625690Y-92512073D01*
X151736760Y-92359199D01*
X151822547Y-92190832D01*
X151880940Y-92011118D01*
X151910500Y-91824486D01*
X151910500Y-91635513D01*
X151880940Y-91448881D01*
X151832825Y-91300800D01*
X151822547Y-91269168D01*
X151822545Y-91269165D01*
X151822545Y-91269163D01*
X151736759Y-91100800D01*
X151625690Y-90947927D01*
X151492073Y-90814310D01*
X151339199Y-90703240D01*
X151292856Y-90679627D01*
X151170836Y-90617454D01*
X151060199Y-90581506D01*
X151049195Y-90577930D01*
X150991521Y-90538493D01*
X150964323Y-90474134D01*
X150976238Y-90405288D01*
X151023482Y-90353812D01*
X151049194Y-90342069D01*
X151170832Y-90302547D01*
X151339199Y-90216760D01*
X151492073Y-90105690D01*
X151492077Y-90105685D01*
X151493284Y-90104809D01*
X151559090Y-90081328D01*
X151627144Y-90097153D01*
X151653851Y-90117445D01*
X154629765Y-93093358D01*
X157596887Y-96060480D01*
X157688212Y-96113207D01*
X157777077Y-96137018D01*
X157832664Y-96169111D01*
X158190590Y-96527037D01*
X158127007Y-96544075D01*
X158012993Y-96609901D01*
X157919901Y-96702993D01*
X157854075Y-96817007D01*
X157837037Y-96880590D01*
X157168932Y-96212485D01*
X157168931Y-96212485D01*
X157122616Y-96276233D01*
X157022567Y-96472589D01*
X156954473Y-96682164D01*
X156920000Y-96899818D01*
X156920000Y-97120181D01*
X156954473Y-97337835D01*
X157022567Y-97547410D01*
X157122611Y-97743756D01*
X157168932Y-97807513D01*
X157837037Y-97139408D01*
X157854075Y-97202993D01*
X157919901Y-97317007D01*
X158012993Y-97410099D01*
X158127007Y-97475925D01*
X158190590Y-97492962D01*
X157522485Y-98161065D01*
X157522485Y-98161066D01*
X157586243Y-98207388D01*
X157782589Y-98307432D01*
X157992164Y-98375526D01*
X158209819Y-98410000D01*
X158430181Y-98410000D01*
X158647835Y-98375526D01*
X158857410Y-98307432D01*
X159053760Y-98207386D01*
X159117513Y-98161066D01*
X159117514Y-98161066D01*
X158449409Y-97492962D01*
X158512993Y-97475925D01*
X158627007Y-97410099D01*
X158720099Y-97317007D01*
X158785925Y-97202993D01*
X158802962Y-97139409D01*
X159471066Y-97807514D01*
X159471066Y-97807513D01*
X159517386Y-97743760D01*
X159617432Y-97547410D01*
X159685526Y-97337835D01*
X159720000Y-97120181D01*
X159720000Y-96899818D01*
X159685526Y-96682164D01*
X159617432Y-96472589D01*
X159540089Y-96320795D01*
X159527193Y-96252126D01*
X159553469Y-96187385D01*
X159610576Y-96147128D01*
X159650574Y-96140500D01*
X159905553Y-96140500D01*
X159972592Y-96160185D01*
X159997527Y-96182385D01*
X159997678Y-96182235D01*
X160000264Y-96184821D01*
X160001413Y-96185844D01*
X160001989Y-96186546D01*
X160099554Y-96284111D01*
X160099558Y-96284114D01*
X160214282Y-96360771D01*
X160214295Y-96360778D01*
X160341767Y-96413578D01*
X160341772Y-96413580D01*
X160341776Y-96413580D01*
X160341777Y-96413581D01*
X160477104Y-96440500D01*
X160477107Y-96440500D01*
X160615095Y-96440500D01*
X160706141Y-96422389D01*
X160750428Y-96413580D01*
X160877911Y-96360775D01*
X160992642Y-96284114D01*
X161090214Y-96186542D01*
X161166875Y-96071811D01*
X161219680Y-95944328D01*
X161229629Y-95894310D01*
X161246600Y-95808995D01*
X161246600Y-95671004D01*
X161219681Y-95535677D01*
X161219680Y-95535676D01*
X161219680Y-95535672D01*
X161191395Y-95467386D01*
X161166878Y-95408195D01*
X161166871Y-95408182D01*
X161090214Y-95293458D01*
X161090211Y-95293454D01*
X160992645Y-95195888D01*
X160992641Y-95195885D01*
X160877917Y-95119228D01*
X160877904Y-95119221D01*
X160750432Y-95066421D01*
X160750422Y-95066418D01*
X160615095Y-95039500D01*
X160615093Y-95039500D01*
X160477107Y-95039500D01*
X160477105Y-95039500D01*
X160341777Y-95066418D01*
X160341767Y-95066421D01*
X160214295Y-95119221D01*
X160214282Y-95119228D01*
X160099558Y-95195885D01*
X160099554Y-95195888D01*
X160001989Y-95293453D01*
X160001413Y-95294156D01*
X160001017Y-95294425D01*
X159997678Y-95297765D01*
X159997044Y-95297131D01*
X159943671Y-95333496D01*
X159905553Y-95339500D01*
X159415534Y-95339500D01*
X159348495Y-95319815D01*
X159302740Y-95267011D01*
X159292796Y-95197853D01*
X159315216Y-95142614D01*
X159332212Y-95119221D01*
X159346760Y-95099198D01*
X159432547Y-94930831D01*
X159490940Y-94751117D01*
X159503772Y-94670099D01*
X159520500Y-94564485D01*
X159520500Y-94375512D01*
X159490940Y-94188880D01*
X159432545Y-94009162D01*
X159387290Y-93920346D01*
X159346760Y-93840800D01*
X159235690Y-93687926D01*
X159102073Y-93554309D01*
X158949199Y-93443239D01*
X158780836Y-93357453D01*
X158662274Y-93318930D01*
X158659195Y-93317929D01*
X158601521Y-93278492D01*
X158574323Y-93214133D01*
X158586238Y-93145287D01*
X158633482Y-93093811D01*
X158659194Y-93082068D01*
X158780832Y-93042546D01*
X158949199Y-92956759D01*
X159102073Y-92845689D01*
X159235690Y-92712072D01*
X159346760Y-92559198D01*
X159432547Y-92390831D01*
X159490940Y-92211117D01*
X159494153Y-92190832D01*
X159520500Y-92024485D01*
X159520500Y-91835512D01*
X159490940Y-91648880D01*
X159439151Y-91489493D01*
X159432547Y-91469167D01*
X159432545Y-91469164D01*
X159432545Y-91469162D01*
X159386860Y-91379500D01*
X159346760Y-91300800D01*
X159235690Y-91147926D01*
X159102073Y-91014309D01*
X158949199Y-90903239D01*
X158924568Y-90890689D01*
X158780836Y-90817453D01*
X158706472Y-90793290D01*
X158659195Y-90777929D01*
X158601521Y-90738492D01*
X158574323Y-90674133D01*
X158586238Y-90605287D01*
X158633482Y-90553811D01*
X158659194Y-90542068D01*
X158780832Y-90502546D01*
X158949199Y-90416759D01*
X159102073Y-90305689D01*
X159235690Y-90172072D01*
X159346760Y-90019198D01*
X159432547Y-89850831D01*
X159490940Y-89671117D01*
X159495392Y-89643007D01*
X159520500Y-89484485D01*
X159520500Y-89295512D01*
X159490940Y-89108880D01*
X159432545Y-88929162D01*
X159346759Y-88760799D01*
X159235690Y-88607926D01*
X159102073Y-88474309D01*
X158949199Y-88363239D01*
X158780836Y-88277453D01*
X158659198Y-88237930D01*
X158601523Y-88198492D01*
X158574325Y-88134133D01*
X158586240Y-88065286D01*
X158633485Y-88013811D01*
X158659197Y-88002068D01*
X158780832Y-87962547D01*
X158949199Y-87876760D01*
X159102073Y-87765690D01*
X159235690Y-87632073D01*
X159346760Y-87479199D01*
X159432547Y-87310832D01*
X159490940Y-87131118D01*
X159494153Y-87110832D01*
X159520500Y-86944486D01*
X159520500Y-86755513D01*
X159490940Y-86568881D01*
X159432545Y-86389163D01*
X159346759Y-86220800D01*
X159323777Y-86189168D01*
X159235690Y-86067927D01*
X159102073Y-85934310D01*
X158949199Y-85823240D01*
X158780836Y-85737454D01*
X158659195Y-85697930D01*
X158601520Y-85658492D01*
X158574322Y-85594133D01*
X158586237Y-85525286D01*
X158633482Y-85473811D01*
X158659194Y-85462068D01*
X158780832Y-85422546D01*
X158949199Y-85336759D01*
X159102073Y-85225689D01*
X159235690Y-85092072D01*
X159346760Y-84939198D01*
X159432547Y-84770831D01*
X159490940Y-84591117D01*
X159494153Y-84570832D01*
X159520500Y-84404485D01*
X159520500Y-84215512D01*
X159490940Y-84028880D01*
X159432545Y-83849162D01*
X159346759Y-83680799D01*
X159235690Y-83527926D01*
X159102073Y-83394309D01*
X158949199Y-83283239D01*
X158780836Y-83197453D01*
X158659198Y-83157930D01*
X158601523Y-83118492D01*
X158574325Y-83054133D01*
X158586240Y-82985286D01*
X158633485Y-82933811D01*
X158659197Y-82922068D01*
X158780832Y-82882547D01*
X158949199Y-82796760D01*
X159102073Y-82685690D01*
X159235690Y-82552073D01*
X159346760Y-82399199D01*
X159432547Y-82230832D01*
X159490940Y-82051118D01*
X159515217Y-81897838D01*
X159520500Y-81864486D01*
X159520500Y-81675513D01*
X159490940Y-81488881D01*
X159454589Y-81377007D01*
X159432547Y-81309168D01*
X159432545Y-81309165D01*
X159432545Y-81309163D01*
X159346759Y-81140800D01*
X159235690Y-80987927D01*
X159102073Y-80854310D01*
X158949199Y-80743240D01*
X158908369Y-80722436D01*
X158857573Y-80674461D01*
X158840778Y-80606640D01*
X158863316Y-80540505D01*
X158908369Y-80501466D01*
X159053760Y-80427385D01*
X159117513Y-80381065D01*
X159117514Y-80381065D01*
X158449409Y-79712961D01*
X158512993Y-79695924D01*
X158627007Y-79630098D01*
X158720099Y-79537006D01*
X158785925Y-79422992D01*
X158802962Y-79359409D01*
X159471066Y-80027513D01*
X159471066Y-80027512D01*
X159517386Y-79963759D01*
X159617432Y-79767409D01*
X159685526Y-79557834D01*
X159720000Y-79340180D01*
X159720000Y-79119817D01*
X159685526Y-78902163D01*
X159617432Y-78692588D01*
X159517388Y-78496242D01*
X159471066Y-78432484D01*
X159471065Y-78432484D01*
X158802962Y-79100588D01*
X158785925Y-79037006D01*
X158720099Y-78922992D01*
X158627007Y-78829900D01*
X158512993Y-78764074D01*
X158449407Y-78747036D01*
X159117513Y-78078931D01*
X159053756Y-78032610D01*
X158857410Y-77932566D01*
X158647835Y-77864472D01*
X158430181Y-77829999D01*
X158209819Y-77829999D01*
X157992164Y-77864472D01*
X157782589Y-77932566D01*
X157586233Y-78032615D01*
X157522485Y-78078930D01*
X157522485Y-78078931D01*
X158190590Y-78747036D01*
X158127007Y-78764074D01*
X158012993Y-78829900D01*
X157919901Y-78922992D01*
X157854075Y-79037006D01*
X157837037Y-79100589D01*
X157168932Y-78432484D01*
X157168931Y-78432484D01*
X157122616Y-78496232D01*
X157022567Y-78692588D01*
X156954473Y-78902163D01*
X156920000Y-79119817D01*
X156920000Y-79340180D01*
X156954473Y-79557834D01*
X157022567Y-79767409D01*
X157122611Y-79963755D01*
X157168932Y-80027512D01*
X157837037Y-79359407D01*
X157854075Y-79422992D01*
X157919901Y-79537006D01*
X158012993Y-79630098D01*
X158127007Y-79695924D01*
X158190590Y-79712961D01*
X157522485Y-80381064D01*
X157522485Y-80381065D01*
X157586243Y-80427387D01*
X157731630Y-80501466D01*
X157782426Y-80549441D01*
X157799221Y-80617262D01*
X157776684Y-80683397D01*
X157731631Y-80722435D01*
X157690803Y-80743238D01*
X157614364Y-80798775D01*
X157537927Y-80854310D01*
X157537925Y-80854312D01*
X157537924Y-80854312D01*
X157404312Y-80987924D01*
X157404312Y-80987925D01*
X157404310Y-80987927D01*
X157371861Y-81032589D01*
X157293240Y-81140800D01*
X157207454Y-81309163D01*
X157149059Y-81488881D01*
X157119500Y-81675513D01*
X157119500Y-81864486D01*
X157149059Y-82051118D01*
X157207454Y-82230836D01*
X157293240Y-82399199D01*
X157404310Y-82552073D01*
X157537927Y-82685690D01*
X157690801Y-82796760D01*
X157770347Y-82837290D01*
X157859163Y-82882545D01*
X157859165Y-82882545D01*
X157859168Y-82882547D01*
X157980801Y-82922068D01*
X158038476Y-82961506D01*
X158065674Y-83025865D01*
X158053759Y-83094711D01*
X158006515Y-83146187D01*
X157980802Y-83157930D01*
X157859162Y-83197454D01*
X157690800Y-83283239D01*
X157603579Y-83346609D01*
X157537927Y-83394309D01*
X157537925Y-83394311D01*
X157537924Y-83394311D01*
X157404312Y-83527923D01*
X157404312Y-83527924D01*
X157404310Y-83527926D01*
X157356610Y-83593578D01*
X157293240Y-83680799D01*
X157207454Y-83849162D01*
X157149059Y-84028880D01*
X157119500Y-84215512D01*
X157119500Y-84404485D01*
X157149059Y-84591117D01*
X157207454Y-84770835D01*
X157293240Y-84939198D01*
X157404310Y-85092072D01*
X157537927Y-85225689D01*
X157690801Y-85336759D01*
X157770347Y-85377289D01*
X157859163Y-85422544D01*
X157859165Y-85422544D01*
X157859168Y-85422546D01*
X157980804Y-85462068D01*
X158038479Y-85501506D01*
X158065677Y-85565865D01*
X158053762Y-85634711D01*
X158006518Y-85686187D01*
X157980805Y-85697930D01*
X157859162Y-85737455D01*
X157690800Y-85823240D01*
X157629295Y-85867927D01*
X157537927Y-85934310D01*
X157537925Y-85934312D01*
X157537924Y-85934312D01*
X157404312Y-86067924D01*
X157404312Y-86067925D01*
X157404310Y-86067927D01*
X157356610Y-86133579D01*
X157293240Y-86220800D01*
X157207454Y-86389163D01*
X157149059Y-86568881D01*
X157119500Y-86755513D01*
X157119500Y-86944486D01*
X157149059Y-87131118D01*
X157207454Y-87310836D01*
X157269229Y-87432075D01*
X157293240Y-87479199D01*
X157404310Y-87632073D01*
X157537927Y-87765690D01*
X157690801Y-87876760D01*
X157745101Y-87904427D01*
X157859163Y-87962545D01*
X157859165Y-87962545D01*
X157859168Y-87962547D01*
X157980801Y-88002068D01*
X158038476Y-88041506D01*
X158065674Y-88105865D01*
X158053759Y-88174711D01*
X158006515Y-88226187D01*
X157980802Y-88237930D01*
X157859162Y-88277454D01*
X157690800Y-88363239D01*
X157603579Y-88426609D01*
X157537927Y-88474309D01*
X157537925Y-88474311D01*
X157537924Y-88474311D01*
X157404312Y-88607923D01*
X157404312Y-88607924D01*
X157404310Y-88607926D01*
X157356610Y-88673578D01*
X157293240Y-88760799D01*
X157207454Y-88929162D01*
X157149059Y-89108880D01*
X157119500Y-89295512D01*
X157119500Y-89484485D01*
X157149059Y-89671117D01*
X157207454Y-89850835D01*
X157293240Y-90019198D01*
X157404310Y-90172072D01*
X157537927Y-90305689D01*
X157690801Y-90416759D01*
X157747927Y-90445866D01*
X157859163Y-90502544D01*
X157859165Y-90502544D01*
X157859168Y-90502546D01*
X157942123Y-90529500D01*
X157980803Y-90542068D01*
X158038478Y-90581506D01*
X158065676Y-90645865D01*
X158053761Y-90714711D01*
X158006516Y-90766187D01*
X157980803Y-90777930D01*
X157859163Y-90817453D01*
X157690800Y-90903239D01*
X157603579Y-90966609D01*
X157537927Y-91014309D01*
X157537925Y-91014311D01*
X157537924Y-91014311D01*
X157404312Y-91147923D01*
X157404312Y-91147924D01*
X157404310Y-91147926D01*
X157361562Y-91206763D01*
X157293240Y-91300799D01*
X157207454Y-91469162D01*
X157149059Y-91648880D01*
X157119500Y-91835512D01*
X157119500Y-92024485D01*
X157149059Y-92211117D01*
X157207454Y-92390835D01*
X157293240Y-92559198D01*
X157404310Y-92712072D01*
X157537927Y-92845689D01*
X157690801Y-92956759D01*
X157770347Y-92997289D01*
X157859163Y-93042544D01*
X157859165Y-93042544D01*
X157859168Y-93042546D01*
X157948734Y-93071648D01*
X157980803Y-93082068D01*
X158038478Y-93121506D01*
X158065676Y-93185865D01*
X158053761Y-93254711D01*
X158006516Y-93306187D01*
X157980803Y-93317930D01*
X157859163Y-93357453D01*
X157690800Y-93443239D01*
X157603579Y-93506609D01*
X157537927Y-93554309D01*
X157537925Y-93554311D01*
X157537924Y-93554311D01*
X157404312Y-93687923D01*
X157404312Y-93687924D01*
X157404310Y-93687926D01*
X157356610Y-93753578D01*
X157293240Y-93840799D01*
X157207454Y-94009162D01*
X157149059Y-94188880D01*
X157147344Y-94199714D01*
X157117414Y-94262849D01*
X157058103Y-94299780D01*
X156988240Y-94298782D01*
X156937190Y-94267997D01*
X152348519Y-89679326D01*
X152315034Y-89618003D01*
X152312200Y-89591645D01*
X152312200Y-89137275D01*
X152312200Y-89137273D01*
X152284907Y-89035413D01*
X152232180Y-88944087D01*
X152157613Y-88869520D01*
X152066287Y-88816793D01*
X151964427Y-88789500D01*
X151964426Y-88789500D01*
X151929275Y-88789500D01*
X151862236Y-88769815D01*
X151818790Y-88721795D01*
X151760770Y-88607924D01*
X151736760Y-88560801D01*
X151625690Y-88407927D01*
X151492073Y-88274310D01*
X151339199Y-88163240D01*
X151170836Y-88077454D01*
X151060199Y-88041506D01*
X151049195Y-88037930D01*
X150991521Y-87998493D01*
X150964323Y-87934134D01*
X150976238Y-87865288D01*
X151023482Y-87813812D01*
X151049194Y-87802069D01*
X151170832Y-87762547D01*
X151339199Y-87676760D01*
X151492073Y-87565690D01*
X151625690Y-87432073D01*
X151736760Y-87279199D01*
X151822547Y-87110832D01*
X151880940Y-86931118D01*
X151910500Y-86744486D01*
X151910500Y-86555513D01*
X151880940Y-86368881D01*
X151822545Y-86189163D01*
X151736759Y-86020800D01*
X151625690Y-85867927D01*
X151492073Y-85734310D01*
X151339199Y-85623240D01*
X151170836Y-85537454D01*
X151052625Y-85499045D01*
X151049195Y-85497930D01*
X150991521Y-85458493D01*
X150964323Y-85394134D01*
X150976238Y-85325288D01*
X151023482Y-85273812D01*
X151049194Y-85262069D01*
X151170832Y-85222547D01*
X151339199Y-85136760D01*
X151492073Y-85025690D01*
X151625690Y-84892073D01*
X151736760Y-84739199D01*
X151822547Y-84570832D01*
X151880940Y-84391118D01*
X151910500Y-84204486D01*
X151910500Y-84015513D01*
X151880940Y-83828881D01*
X151832825Y-83680800D01*
X151822547Y-83649168D01*
X151822545Y-83649165D01*
X151822545Y-83649163D01*
X151736759Y-83480800D01*
X151625690Y-83327927D01*
X151492073Y-83194310D01*
X151339199Y-83083240D01*
X151339198Y-83083239D01*
X151339196Y-83083238D01*
X151298369Y-83062435D01*
X151247573Y-83014460D01*
X151230779Y-82946639D01*
X151253317Y-82880504D01*
X151298371Y-82841466D01*
X151443758Y-82767388D01*
X151622041Y-82637857D01*
X151777857Y-82482041D01*
X151907386Y-82303760D01*
X152007432Y-82107410D01*
X152075526Y-81897838D01*
X152075526Y-81897835D01*
X152087855Y-81820000D01*
X150843012Y-81820000D01*
X150875925Y-81762993D01*
X150910000Y-81635826D01*
X150910000Y-81504174D01*
X150875925Y-81377007D01*
X150843012Y-81320000D01*
X152087855Y-81320000D01*
X152075526Y-81242164D01*
X152075526Y-81242161D01*
X152007432Y-81032589D01*
X151907386Y-80836239D01*
X151777857Y-80657958D01*
X151622041Y-80502142D01*
X151443760Y-80372613D01*
X151298370Y-80298533D01*
X151247574Y-80250558D01*
X151230779Y-80182737D01*
X151253316Y-80116602D01*
X151298371Y-80077563D01*
X151339197Y-80056761D01*
X151339196Y-80056761D01*
X151339199Y-80056760D01*
X151492073Y-79945690D01*
X151625690Y-79812073D01*
X151736760Y-79659199D01*
X151822547Y-79490832D01*
X151880940Y-79311118D01*
X151893788Y-79229998D01*
X151910500Y-79124486D01*
X151910500Y-78935513D01*
X151880940Y-78748881D01*
X151832825Y-78600800D01*
X151822547Y-78569168D01*
X151822545Y-78569165D01*
X151822545Y-78569163D01*
X151736759Y-78400800D01*
X151625690Y-78247927D01*
X151492073Y-78114310D01*
X151339199Y-78003240D01*
X151170836Y-77917454D01*
X151096472Y-77893291D01*
X151049195Y-77877930D01*
X150991521Y-77838493D01*
X150964323Y-77774134D01*
X150976238Y-77705288D01*
X151023482Y-77653812D01*
X151049194Y-77642069D01*
X151170832Y-77602547D01*
X151339199Y-77516760D01*
X151492073Y-77405690D01*
X151625690Y-77272073D01*
X151736760Y-77119199D01*
X151818790Y-76958204D01*
X151866764Y-76907409D01*
X151929275Y-76890500D01*
X173142745Y-76890500D01*
X173209784Y-76910185D01*
G37*
%TD.AperFunction*%
%TA.AperFunction,Conductor*%
G36*
X184911488Y-95307935D02*
G01*
X184908846Y-95310576D01*
X184933878Y-95335231D01*
X184949500Y-95395482D01*
X184949500Y-96084515D01*
X184929815Y-96151554D01*
X184909008Y-96169583D01*
X184911488Y-96172063D01*
X184202962Y-96880589D01*
X184185925Y-96817007D01*
X184120099Y-96702993D01*
X184027007Y-96609901D01*
X183912993Y-96544075D01*
X183849407Y-96527037D01*
X184517513Y-95858932D01*
X184491892Y-95840318D01*
X184449226Y-95784988D01*
X184443247Y-95715375D01*
X184475852Y-95653579D01*
X184491892Y-95639680D01*
X184517513Y-95621064D01*
X183849409Y-94952961D01*
X183912993Y-94935924D01*
X184027007Y-94870098D01*
X184120099Y-94777006D01*
X184185925Y-94662992D01*
X184202962Y-94599408D01*
X184911488Y-95307935D01*
G37*
%TD.AperFunction*%
%TA.AperFunction,Conductor*%
G36*
X184911921Y-92572859D02*
G01*
X184946278Y-92633698D01*
X184949500Y-92661783D01*
X184949500Y-93544514D01*
X184929815Y-93611553D01*
X184909008Y-93629582D01*
X184911488Y-93632062D01*
X184202962Y-94340588D01*
X184185925Y-94277006D01*
X184120099Y-94162992D01*
X184027007Y-94069900D01*
X183912993Y-94004074D01*
X183849407Y-93987036D01*
X184517513Y-93318931D01*
X184453756Y-93272610D01*
X184308370Y-93198532D01*
X184257574Y-93150557D01*
X184240779Y-93082736D01*
X184263316Y-93016601D01*
X184308371Y-92977562D01*
X184349197Y-92956760D01*
X184349196Y-92956760D01*
X184349199Y-92956759D01*
X184502073Y-92845689D01*
X184635690Y-92712072D01*
X184725182Y-92588896D01*
X184780512Y-92546232D01*
X184850126Y-92540253D01*
X184911921Y-92572859D01*
G37*
%TD.AperFunction*%
%TD*%
M02*
