%TF.GenerationSoftware,KiCad,Pcbnew,10.0.6*%
%TF.CreationDate,2026-09-25T16:02:12-03:00*%
%TF.ProjectId,pcbcomando,70636263-6f6d-4616-9e64-6f2e6b696361,1.2*%
%TF.SameCoordinates,Original*%
%TF.FileFunction,Copper,L2,Bot*%
%TF.FilePolarity,Positive*%
%FSLAX46Y46*%
G04 Gerber Fmt 4.6, Leading zero omitted, Abs format (unit mm)*
G04 Created by KiCad (PCBNEW 10.0.6) date 2026-09-25 16:02:12*
%MOMM*%
%LPD*%
G01*
G04 APERTURE LIST*
G04 Aperture macros list*
%AMRoundRect*
0 Rectangle with rounded corners*
0 $1 Rounding radius*
0 $2 $3 $4 $5 $6 $7 $8 $9 X,Y pos of 4 corners*
0 Add a 4 corners polygon primitive as box body*
4,1,4,$2,$3,$4,$5,$6,$7,$8,$9,$2,$3,0*
0 Add four circle primitives for the rounded corners*
1,1,$1+$1,$2,$3*
1,1,$1+$1,$4,$5*
1,1,$1+$1,$6,$7*
1,1,$1+$1,$8,$9*
0 Add four rect primitives between the rounded corners*
20,1,$1+$1,$2,$3,$4,$5,0*
20,1,$1+$1,$4,$5,$6,$7,0*
20,1,$1+$1,$6,$7,$8,$9,0*
20,1,$1+$1,$8,$9,$2,$3,0*%
G04 Aperture macros list end*
%TA.AperFunction,ComponentPad*%
%ADD10RoundRect,0.249999X-0.850001X-0.850001X0.850001X-0.850001X0.850001X0.850001X-0.850001X0.850001X0*%
%TD*%
%TA.AperFunction,ComponentPad*%
%ADD11C,2.200000*%
%TD*%
%TA.AperFunction,ComponentPad*%
%ADD12R,1.800000X1.800000*%
%TD*%
%TA.AperFunction,ComponentPad*%
%ADD13C,1.800000*%
%TD*%
%TA.AperFunction,ComponentPad*%
%ADD14C,1.600000*%
%TD*%
%TA.AperFunction,ComponentPad*%
%ADD15R,1.700000X1.700000*%
%TD*%
%TA.AperFunction,ComponentPad*%
%ADD16C,1.700000*%
%TD*%
%TA.AperFunction,ComponentPad*%
%ADD17RoundRect,0.250000X-0.550000X-0.550000X0.550000X-0.550000X0.550000X0.550000X-0.550000X0.550000X0*%
%TD*%
%TA.AperFunction,ComponentPad*%
%ADD18O,2.400000X1.800000*%
%TD*%
%TA.AperFunction,ViaPad*%
%ADD19C,0.800000*%
%TD*%
%TA.AperFunction,ViaPad*%
%ADD20C,0.600000*%
%TD*%
%TA.AperFunction,Conductor*%
%ADD21C,0.200000*%
%TD*%
%TA.AperFunction,Conductor*%
%ADD22C,0.400000*%
%TD*%
%TA.AperFunction,Conductor*%
%ADD23C,0.500000*%
%TD*%
G04 APERTURE END LIST*
D10*
%TO.P,D3,1*%
%TO.N,VSYS*%
X140000000Y-129400000D03*
D11*
%TO.P,D3,2*%
%TO.N,EXT_5V*%
X150160000Y-129400000D03*
%TD*%
D12*
%TO.P,D2,1*%
%TO.N,Net-(D2-Pad1)*%
X157020000Y-127120000D03*
D13*
%TO.P,D2,2*%
%TO.N,LED_R*%
X159560000Y-127120000D03*
%TD*%
D14*
%TO.P,C1,1*%
%TO.N,3.3V*%
X185500000Y-103800000D03*
%TO.P,C1,2*%
%TO.N,GND*%
X188000000Y-103800000D03*
%TD*%
D15*
%TO.P,J7,1*%
%TO.N,EXT_5V*%
X187020000Y-125850000D03*
D16*
%TO.P,J7,2*%
%TO.N,GND*%
X187020000Y-128390000D03*
%TD*%
D15*
%TO.P,J6,1*%
%TO.N,GND*%
X187020000Y-121620000D03*
%TD*%
%TO.P,J4,1*%
%TO.N,GND*%
X177020000Y-121620000D03*
%TD*%
D13*
%TO.P,U1,1*%
%TO.N,GND*%
X183720000Y-97010000D03*
%TO.P,U1,2*%
X183720000Y-94469999D03*
%TO.P,U1,3*%
%TO.N,3.3V*%
X183720000Y-91929999D03*
%TO.P,U1,4*%
%TO.N,LORA_RST*%
X183720000Y-89389999D03*
%TO.P,U1,5*%
%TO.N,LORA_DIO0*%
X183720000Y-86850000D03*
%TO.P,U1,6*%
%TO.N,unconnected-(U1-DIO1-Pad6)*%
X183720000Y-84309999D03*
%TO.P,U1,7*%
%TO.N,unconnected-(U1-DIO2-Pad7)*%
X183720000Y-81770000D03*
%TO.P,U1,8*%
%TO.N,unconnected-(U1-DIO3-Pad8)*%
X183720000Y-79229999D03*
%TO.P,U1,9*%
%TO.N,GND*%
X158320000Y-79229999D03*
%TO.P,U1,10*%
%TO.N,unconnected-(U1-DIO4-Pad10)*%
X158320000Y-81770000D03*
%TO.P,U1,11*%
%TO.N,unconnected-(U1-DIO5-Pad11)*%
X158320000Y-84309999D03*
%TO.P,U1,12*%
%TO.N,LORA_SCK*%
X158320000Y-86850000D03*
%TO.P,U1,13*%
%TO.N,LORA_MISO*%
X158320000Y-89389999D03*
%TO.P,U1,14*%
%TO.N,LORA_MOSI*%
X158320000Y-91929999D03*
%TO.P,U1,15*%
%TO.N,LORA_NSS*%
X158320000Y-94469999D03*
%TO.P,U1,16*%
%TO.N,GND*%
X158320000Y-97010000D03*
%TD*%
D14*
%TO.P,R1,1*%
%TO.N,Net-(D1-Pad1)*%
X168020000Y-117620000D03*
%TO.P,R1,2*%
%TO.N,GND*%
X178180000Y-117620000D03*
%TD*%
D17*
%TO.P,C2,1,~_1*%
%TO.N,3.3V*%
X176520000Y-105620000D03*
D14*
%TO.P,C2,2,~_2*%
%TO.N,GND*%
X179020000Y-105620000D03*
%TD*%
D15*
%TO.P,J5,1*%
%TO.N,BTN*%
X182020000Y-121620000D03*
%TD*%
%TO.P,J3,1*%
%TO.N,BUZZ*%
X172020000Y-121620000D03*
%TD*%
D12*
%TO.P,D1,1*%
%TO.N,Net-(D1-Pad1)*%
X157020000Y-117620000D03*
D13*
%TO.P,D1,2*%
%TO.N,LED_Y*%
X159560000Y-117620000D03*
%TD*%
D14*
%TO.P,R2,1*%
%TO.N,Net-(D2-Pad1)*%
X168020000Y-127120000D03*
%TO.P,R2,2*%
%TO.N,GND*%
X178180000Y-127120000D03*
%TD*%
D18*
%TO.P,A1,1,GP0_1*%
%TO.N,LORA_MISO*%
X150410000Y-124750000D03*
%TO.P,A1,2,GP1_2*%
%TO.N,LORA_NSS*%
X150410000Y-122210000D03*
%TO.P,A1,3,GND_3*%
%TO.N,GND*%
X150410000Y-119670000D03*
%TO.P,A1,4,GP2_4*%
%TO.N,LORA_SCK*%
X150410000Y-117130000D03*
%TO.P,A1,5,GP3_5*%
%TO.N,LORA_MOSI*%
X150410000Y-114590000D03*
%TO.P,A1,6,GP4_6*%
%TO.N,LORA_RST*%
X150410000Y-112050000D03*
%TO.P,A1,7,GP5_7*%
%TO.N,unconnected-(A1-GP5-Pad7)*%
X150410000Y-109510000D03*
%TO.P,A1,8,GND_8*%
%TO.N,GND*%
X150410000Y-106970000D03*
%TO.P,A1,9,GP6_9*%
%TO.N,unconnected-(A1-GP6-Pad9)*%
X150410000Y-104430000D03*
%TO.P,A1,10,GP7_10*%
%TO.N,unconnected-(A1-GP7-Pad10)*%
X150410000Y-101890000D03*
%TO.P,A1,11,GP8_11*%
%TO.N,unconnected-(A1-GP8-Pad11)*%
X150410000Y-99350000D03*
%TO.P,A1,12,GP9_12*%
%TO.N,unconnected-(A1-GP9-Pad12)*%
X150410000Y-96810000D03*
%TO.P,A1,13,GND_13*%
%TO.N,GND*%
X150410000Y-94270000D03*
%TO.P,A1,14,GP10_14*%
%TO.N,unconnected-(A1-GP10-Pad14)*%
X150410000Y-91730000D03*
%TO.P,A1,15,GP11_15*%
%TO.N,LED_Y*%
X150410000Y-89190000D03*
%TO.P,A1,16,GP12_16*%
%TO.N,LED_R*%
X150410000Y-86650000D03*
%TO.P,A1,17,GP13_17*%
%TO.N,BTN*%
X150410000Y-84110000D03*
%TO.P,A1,18,GND_18*%
%TO.N,GND*%
X150410000Y-81570000D03*
%TO.P,A1,19,GP14_19*%
%TO.N,unconnected-(A1-GP14-Pad19)*%
X150410000Y-79030000D03*
%TO.P,A1,20,GP15_20*%
%TO.N,LORA_DIO0*%
X150410000Y-76490000D03*
%TO.P,A1,21,GP16_21*%
%TO.N,unconnected-(A1-GP16-Pad21)*%
X132630000Y-76490000D03*
%TO.P,A1,22,GP17_22*%
%TO.N,unconnected-(A1-GP17-Pad22)*%
X132630000Y-79030000D03*
%TO.P,A1,23,GND_23*%
%TO.N,GND*%
X132630000Y-81570000D03*
%TO.P,A1,24,GP18_24*%
%TO.N,unconnected-(A1-GP18-Pad24)*%
X132630000Y-84110000D03*
%TO.P,A1,25,GP19_25*%
%TO.N,BUZZ*%
X132630000Y-86650000D03*
%TO.P,A1,26,GP20_26*%
%TO.N,unconnected-(A1-GP20-Pad26)*%
X132630000Y-89190000D03*
%TO.P,A1,27,GP21_27*%
%TO.N,unconnected-(A1-GP21-Pad27)*%
X132630000Y-91730000D03*
%TO.P,A1,28,GND_28*%
%TO.N,GND*%
X132630000Y-94270000D03*
%TO.P,A1,29,GP22_29*%
%TO.N,unconnected-(A1-GP22-Pad29)*%
X132630000Y-96810000D03*
%TO.P,A1,30,RUN_30*%
%TO.N,unconnected-(A1-RUN-Pad30)*%
X132630000Y-99350000D03*
%TO.P,A1,31,ADC0/GP26_31*%
%TO.N,unconnected-(A1-ADC0{slash}GP26-Pad31)*%
X132630000Y-101890000D03*
%TO.P,A1,32,ADC1/GP27_32*%
%TO.N,unconnected-(A1-ADC1{slash}GP27-Pad32)*%
X132630000Y-104430000D03*
%TO.P,A1,33,GND_33*%
%TO.N,GND*%
X132630000Y-106970000D03*
%TO.P,A1,34,ADC2/GP28_34*%
%TO.N,unconnected-(A1-ADC2{slash}GP28-Pad34)*%
X132630000Y-109510000D03*
%TO.P,A1,35,ADC_VREF_35*%
%TO.N,unconnected-(A1-ADC_VREF-Pad35)*%
X132630000Y-112050000D03*
%TO.P,A1,36,3V3(OUT)_36*%
%TO.N,3.3V*%
X132630000Y-114590000D03*
%TO.P,A1,37,~{3V3_EN}_37*%
%TO.N,unconnected-(A1-~{3V3_EN}-Pad37)*%
X132630000Y-117130000D03*
%TO.P,A1,38,GND_38*%
%TO.N,GND*%
X132630000Y-119670000D03*
%TO.P,A1,39,VSYS_39*%
%TO.N,VSYS*%
X132630000Y-122210000D03*
%TO.P,A1,40,VBUS_40*%
%TO.N,unconnected-(A1-VBUS-Pad40)*%
X132630000Y-124750000D03*
%TD*%
D19*
%TO.N,GND*%
X130730000Y-119438600D03*
X189000000Y-130000000D03*
X131600000Y-130000000D03*
X131199999Y-74200000D03*
X183253700Y-118565200D03*
X162900000Y-97900000D03*
X158330000Y-104600000D03*
X185500000Y-113000000D03*
X162100000Y-102400000D03*
X189000000Y-74200000D03*
X184000000Y-99330000D03*
X130730000Y-94650000D03*
X155000000Y-123500000D03*
D20*
X152231800Y-94375000D03*
D19*
X183253700Y-106782000D03*
X161600000Y-95700000D03*
X130730000Y-107268600D03*
X179500000Y-120000000D03*
X170000000Y-108000000D03*
D20*
X152231800Y-107268600D03*
D19*
%TO.N,BUZZ*%
X161326900Y-103160000D03*
%TO.N,LED_Y*%
X160546100Y-95740000D03*
%TD*%
%TO.N,LED_R*%
D21*
X152025300Y-125996500D02*
X149655900Y-125996500D01*
X150410000Y-86650000D02*
X150410000Y-87851700D01*
X148455600Y-109412200D02*
X149627700Y-108240100D01*
X152103500Y-125918300D02*
X152025300Y-125996500D01*
X151108200Y-87851700D02*
X150410000Y-87851700D01*
X159560000Y-127120000D02*
X158358300Y-125918300D01*
X149627700Y-108240100D02*
X152141600Y-108240100D01*
X158358300Y-125918300D02*
X152103500Y-125918300D01*
X152141600Y-108240100D02*
X152884300Y-107497400D01*
X152884300Y-107497400D02*
X152884300Y-89627800D01*
X152884300Y-89627800D02*
X151108200Y-87851700D01*
X149655900Y-125996500D02*
X148455600Y-124796200D01*
X148455600Y-124796200D02*
X148455600Y-109412200D01*
%TO.N,GND*%
D22*
X132630000Y-95471700D02*
X131954000Y-95471700D01*
X178180000Y-127120000D02*
X182940001Y-127120000D01*
X152231800Y-94375000D02*
X152231800Y-107268600D01*
X150410000Y-81570000D02*
X150410000Y-82771700D01*
X130730000Y-109395700D02*
X130730000Y-119438600D01*
X177020000Y-118780000D02*
X178180000Y-117620000D01*
X187020000Y-128389999D02*
X184210000Y-128389999D01*
X150410000Y-82771700D02*
X149734000Y-82771700D01*
X130730000Y-83995700D02*
X130730000Y-94650000D01*
X131954000Y-95471700D02*
X130730000Y-96695700D01*
D21*
X183253700Y-118565200D02*
X183253700Y-106782000D01*
D22*
X131954000Y-108171700D02*
X130730000Y-109395700D01*
X131954000Y-82771700D02*
X130730000Y-83995700D01*
X149734000Y-82771700D02*
X148908300Y-83597400D01*
X132630000Y-81570000D02*
X132630000Y-82771700D01*
X177020000Y-125960000D02*
X178180000Y-127120000D01*
X148908300Y-92264900D02*
X149711700Y-93068300D01*
X130730000Y-96695700D02*
X130730000Y-107268600D01*
X150410000Y-94270000D02*
X150410000Y-93068300D01*
X132630000Y-94270000D02*
X132630000Y-95471700D01*
D23*
X185020000Y-98310000D02*
X183720000Y-97010000D01*
X183720000Y-97010000D02*
X183720000Y-94470000D01*
D22*
X177020000Y-121620000D02*
X177020000Y-125960000D01*
X177020000Y-121620000D02*
X177020000Y-118780000D01*
X149711700Y-93068300D02*
X150410000Y-93068300D01*
X132630000Y-82771700D02*
X131954000Y-82771700D01*
X132630000Y-108171700D02*
X131954000Y-108171700D01*
X132630000Y-106970000D02*
X132630000Y-108171700D01*
D23*
X185020000Y-98310000D02*
X184000000Y-99330000D01*
D22*
X148908300Y-83597400D02*
X148908300Y-92264900D01*
X182940001Y-127120000D02*
X184210000Y-128389999D01*
X184210000Y-128389999D02*
X183870000Y-128050000D01*
%TO.N,LORA_SCK*%
D21*
X150410000Y-117130000D02*
X150410000Y-115928300D01*
X150410000Y-115928300D02*
X151086000Y-115928300D01*
X157118300Y-109896000D02*
X157118300Y-93950100D01*
X157868400Y-93200000D02*
X158758300Y-93200000D01*
X157118300Y-93950100D02*
X157868400Y-93200000D01*
X151086000Y-115928300D02*
X157118300Y-109896000D01*
X159553500Y-92404800D02*
X159553500Y-88083500D01*
X159553500Y-88083500D02*
X158320000Y-86850000D01*
X158758300Y-93200000D02*
X159553500Y-92404800D01*
%TO.N,LORA_MISO*%
X148890100Y-111498600D02*
X149608700Y-110780000D01*
X148890100Y-122704400D02*
X148890100Y-111498600D01*
X150410000Y-124750000D02*
X150410000Y-123548300D01*
X149608700Y-110780000D02*
X151173400Y-110780000D01*
X155114900Y-106838500D02*
X155114900Y-92595100D01*
X150410000Y-123548300D02*
X149734000Y-123548300D01*
X149734000Y-123548300D02*
X148890100Y-122704400D01*
X155114900Y-92595100D02*
X158320000Y-89390000D01*
X151173400Y-110780000D02*
X155114900Y-106838500D01*
%TO.N,LORA_MOSI*%
X158320000Y-91930000D02*
X156577100Y-93672900D01*
X156577100Y-107895200D02*
X151084000Y-113388300D01*
X150410000Y-114590000D02*
X150410000Y-113388300D01*
X156577100Y-93672900D02*
X156577100Y-107895200D01*
X151084000Y-113388300D02*
X150410000Y-113388300D01*
%TO.N,LORA_NSS*%
X150410000Y-122210000D02*
X150410000Y-121008300D01*
X159538500Y-95688500D02*
X159538500Y-112555800D01*
X151086000Y-121008300D02*
X150410000Y-121008300D01*
X159538500Y-112555800D02*
X151086000Y-121008300D01*
X158320000Y-94470000D02*
X159538500Y-95688500D01*
%TO.N,BTN*%
X150410000Y-84110000D02*
X150410000Y-85311700D01*
X151880000Y-85580000D02*
X158803900Y-85580000D01*
X173099100Y-99875200D02*
X173099100Y-107423600D01*
X173099100Y-107423600D02*
X182020000Y-116344500D01*
X158803900Y-85580000D02*
X173099100Y-99875200D01*
X150410000Y-85311700D02*
X151611700Y-85311700D01*
X151611700Y-85311700D02*
X151880000Y-85580000D01*
X182020000Y-116344500D02*
X182020000Y-121620000D01*
%TO.N,BUZZ*%
X172020000Y-121620000D02*
X172020000Y-113853100D01*
X172020000Y-113853100D02*
X161326900Y-103160000D01*
%TO.N,LED_Y*%
X160546100Y-116633900D02*
X160546100Y-95740000D01*
X159560000Y-117620000D02*
X160546100Y-116633900D01*
%TD*%
%TA.AperFunction,Conductor*%
%TO.N,GND*%
G36*
X159247975Y-98155882D02*
G01*
X159296670Y-98205988D01*
X159311000Y-98263855D01*
X159311000Y-112410205D01*
X159291315Y-112477244D01*
X159274681Y-112497886D01*
X152296132Y-119476434D01*
X152234809Y-119509919D01*
X152165117Y-119504935D01*
X152109184Y-119463063D01*
X152085978Y-119408151D01*
X152075526Y-119342164D01*
X152007432Y-119132589D01*
X151907386Y-118936239D01*
X151777857Y-118757958D01*
X151622041Y-118602142D01*
X151443760Y-118472613D01*
X151247410Y-118372567D01*
X151089473Y-118321251D01*
X151031798Y-118281814D01*
X151004599Y-118217455D01*
X151016513Y-118148609D01*
X151063757Y-118097133D01*
X151080339Y-118088759D01*
X151196697Y-118040562D01*
X151196697Y-118040561D01*
X151196704Y-118040559D01*
X151364993Y-117928112D01*
X151508112Y-117784993D01*
X151620559Y-117616704D01*
X151698014Y-117429711D01*
X151737500Y-117231200D01*
X151737500Y-117028800D01*
X151698014Y-116830289D01*
X151620559Y-116643296D01*
X151620558Y-116643295D01*
X151620555Y-116643289D01*
X151508112Y-116475007D01*
X151508109Y-116475003D01*
X151364996Y-116331890D01*
X151364992Y-116331887D01*
X151274311Y-116271295D01*
X151229506Y-116217682D01*
X151220799Y-116148357D01*
X151250954Y-116085330D01*
X151255521Y-116080512D01*
X154258534Y-113077499D01*
X157311165Y-110024868D01*
X157326264Y-109988416D01*
X157345800Y-109941253D01*
X157345800Y-98276061D01*
X157365485Y-98209022D01*
X157418289Y-98163267D01*
X157487447Y-98153323D01*
X157542686Y-98175743D01*
X157586239Y-98207386D01*
X157782589Y-98307432D01*
X157992164Y-98375526D01*
X158209819Y-98410000D01*
X158430181Y-98410000D01*
X158647835Y-98375526D01*
X158857410Y-98307432D01*
X159053760Y-98207386D01*
X159114114Y-98163537D01*
X159179921Y-98140057D01*
X159247975Y-98155882D01*
G37*
%TD.AperFunction*%
%TA.AperFunction,Conductor*%
G36*
X189462539Y-73640185D02*
G01*
X189508294Y-73692989D01*
X189519500Y-73744500D01*
X189519500Y-103507985D01*
X189499815Y-103575024D01*
X189447011Y-103620779D01*
X189377853Y-103630723D01*
X189314297Y-103601698D01*
X189276523Y-103542920D01*
X189273027Y-103527384D01*
X189267989Y-103495581D01*
X189204755Y-103300968D01*
X189111859Y-103118650D01*
X189079474Y-103074077D01*
X189079474Y-103074076D01*
X188400000Y-103753551D01*
X188400000Y-103747339D01*
X188372741Y-103645606D01*
X188320080Y-103554394D01*
X188245606Y-103479920D01*
X188154394Y-103427259D01*
X188052661Y-103400000D01*
X188046446Y-103400000D01*
X188725922Y-102720524D01*
X188725921Y-102720523D01*
X188681359Y-102688147D01*
X188681350Y-102688141D01*
X188499031Y-102595244D01*
X188304417Y-102532009D01*
X188102317Y-102500000D01*
X187897683Y-102500000D01*
X187695582Y-102532009D01*
X187500968Y-102595244D01*
X187318644Y-102688143D01*
X187274077Y-102720523D01*
X187274077Y-102720524D01*
X187953554Y-103400000D01*
X187947339Y-103400000D01*
X187845606Y-103427259D01*
X187754394Y-103479920D01*
X187679920Y-103554394D01*
X187627259Y-103645606D01*
X187600000Y-103747339D01*
X187600000Y-103753553D01*
X186920524Y-103074077D01*
X186920523Y-103074077D01*
X186888143Y-103118644D01*
X186795244Y-103300968D01*
X186732009Y-103495582D01*
X186700000Y-103697682D01*
X186700000Y-103902317D01*
X186732009Y-104104417D01*
X186795244Y-104299031D01*
X186888141Y-104481350D01*
X186888147Y-104481359D01*
X186920523Y-104525921D01*
X186920524Y-104525922D01*
X187600000Y-103846446D01*
X187600000Y-103852661D01*
X187627259Y-103954394D01*
X187679920Y-104045606D01*
X187754394Y-104120080D01*
X187845606Y-104172741D01*
X187947339Y-104200000D01*
X187953553Y-104200000D01*
X187274076Y-104879474D01*
X187318650Y-104911859D01*
X187500968Y-105004755D01*
X187695582Y-105067990D01*
X187897683Y-105100000D01*
X188102317Y-105100000D01*
X188304417Y-105067990D01*
X188499031Y-105004755D01*
X188681349Y-104911859D01*
X188725921Y-104879474D01*
X188046447Y-104200000D01*
X188052661Y-104200000D01*
X188154394Y-104172741D01*
X188245606Y-104120080D01*
X188320080Y-104045606D01*
X188372741Y-103954394D01*
X188400000Y-103852661D01*
X188400000Y-103846448D01*
X189079474Y-104525922D01*
X189079474Y-104525921D01*
X189111859Y-104481349D01*
X189204755Y-104299031D01*
X189267990Y-104104417D01*
X189273027Y-104072616D01*
X189302956Y-104009481D01*
X189362268Y-103972550D01*
X189432130Y-103973548D01*
X189490363Y-104012158D01*
X189518477Y-104076122D01*
X189519500Y-104092014D01*
X189519500Y-130495500D01*
X189499815Y-130562539D01*
X189447011Y-130608294D01*
X189395500Y-130619500D01*
X150951484Y-130619500D01*
X150884445Y-130599815D01*
X150838690Y-130547011D01*
X150828746Y-130477853D01*
X150857771Y-130414297D01*
X150878599Y-130395182D01*
X150959656Y-130336290D01*
X150959654Y-130336290D01*
X150959663Y-130336285D01*
X151096285Y-130199663D01*
X151209852Y-130043350D01*
X151297569Y-129871197D01*
X151357275Y-129687440D01*
X151386128Y-129505270D01*
X151387500Y-129496611D01*
X151387500Y-129303388D01*
X151369916Y-129192373D01*
X151357275Y-129112560D01*
X151297569Y-128928803D01*
X151209852Y-128756650D01*
X151096285Y-128600337D01*
X150959663Y-128463715D01*
X150803350Y-128350148D01*
X150803351Y-128350148D01*
X150803349Y-128350147D01*
X150631194Y-128262429D01*
X150447441Y-128202725D01*
X150256611Y-128172500D01*
X150256606Y-128172500D01*
X150063394Y-128172500D01*
X150063389Y-128172500D01*
X149872558Y-128202725D01*
X149688805Y-128262429D01*
X149516650Y-128350147D01*
X149360336Y-128463715D01*
X149223715Y-128600336D01*
X149110147Y-128756650D01*
X149022429Y-128928805D01*
X148962725Y-129112558D01*
X148932500Y-129303388D01*
X148932500Y-129496611D01*
X148962725Y-129687441D01*
X149022429Y-129871194D01*
X149110147Y-130043349D01*
X149223715Y-130199663D01*
X149360338Y-130336286D01*
X149360343Y-130336290D01*
X149441401Y-130395182D01*
X149484067Y-130450511D01*
X149490046Y-130520125D01*
X149457441Y-130581920D01*
X149396602Y-130616277D01*
X149368516Y-130619500D01*
X141288203Y-130619500D01*
X141221164Y-130599815D01*
X141175409Y-130547011D01*
X141165465Y-130477853D01*
X141176803Y-130441040D01*
X141216808Y-130359207D01*
X141216809Y-130359204D01*
X141227500Y-130285828D01*
X141227500Y-128514171D01*
X141216809Y-128440795D01*
X141161475Y-128327608D01*
X141072391Y-128238524D01*
X140959204Y-128183190D01*
X140885829Y-128172500D01*
X140885828Y-128172500D01*
X139114172Y-128172500D01*
X139114171Y-128172500D01*
X139040795Y-128183190D01*
X138927608Y-128238524D01*
X138838524Y-128327608D01*
X138783190Y-128440795D01*
X138772500Y-128514171D01*
X138772500Y-130285828D01*
X138783190Y-130359204D01*
X138783191Y-130359207D01*
X138823197Y-130441040D01*
X138834957Y-130509913D01*
X138807613Y-130574210D01*
X138749849Y-130613517D01*
X138711797Y-130619500D01*
X130644500Y-130619500D01*
X130577461Y-130599815D01*
X130531706Y-130547011D01*
X130520500Y-130495500D01*
X130520500Y-124648795D01*
X131302500Y-124648795D01*
X131302500Y-124851204D01*
X131341984Y-125049703D01*
X131341986Y-125049711D01*
X131419439Y-125236701D01*
X131419444Y-125236710D01*
X131531887Y-125404992D01*
X131531890Y-125404996D01*
X131675003Y-125548109D01*
X131675007Y-125548112D01*
X131843289Y-125660555D01*
X131843295Y-125660558D01*
X131843296Y-125660559D01*
X132030289Y-125738014D01*
X132228795Y-125777499D01*
X132228799Y-125777500D01*
X132228800Y-125777500D01*
X133031201Y-125777500D01*
X133031202Y-125777499D01*
X133229711Y-125738014D01*
X133416704Y-125660559D01*
X133584993Y-125548112D01*
X133728112Y-125404993D01*
X133840559Y-125236704D01*
X133918014Y-125049711D01*
X133957500Y-124851200D01*
X133957500Y-124648800D01*
X133918014Y-124450289D01*
X133840559Y-124263296D01*
X133840558Y-124263295D01*
X133840555Y-124263289D01*
X133728112Y-124095007D01*
X133728109Y-124095003D01*
X133584996Y-123951890D01*
X133584992Y-123951887D01*
X133416710Y-123839444D01*
X133416701Y-123839439D01*
X133229711Y-123761986D01*
X133229703Y-123761984D01*
X133031204Y-123722500D01*
X133031200Y-123722500D01*
X132228800Y-123722500D01*
X132228795Y-123722500D01*
X132030296Y-123761984D01*
X132030288Y-123761986D01*
X131843298Y-123839439D01*
X131843289Y-123839444D01*
X131675007Y-123951887D01*
X131675003Y-123951890D01*
X131531890Y-124095003D01*
X131531887Y-124095007D01*
X131419444Y-124263289D01*
X131419439Y-124263298D01*
X131341986Y-124450288D01*
X131341984Y-124450296D01*
X131302500Y-124648795D01*
X130520500Y-124648795D01*
X130520500Y-119420000D01*
X130952145Y-119420000D01*
X132196988Y-119420000D01*
X132164075Y-119477007D01*
X132130000Y-119604174D01*
X132130000Y-119735826D01*
X132164075Y-119862993D01*
X132196988Y-119920000D01*
X130952145Y-119920000D01*
X130964473Y-119997835D01*
X130964473Y-119997838D01*
X131032567Y-120207410D01*
X131132613Y-120403760D01*
X131262142Y-120582041D01*
X131417958Y-120737857D01*
X131596239Y-120867386D01*
X131792592Y-120967433D01*
X131792590Y-120967433D01*
X131950525Y-121018748D01*
X132008201Y-121058185D01*
X132035400Y-121122543D01*
X132023486Y-121191390D01*
X131976242Y-121242866D01*
X131959661Y-121251240D01*
X131843299Y-121299439D01*
X131843289Y-121299444D01*
X131675007Y-121411887D01*
X131675003Y-121411890D01*
X131531890Y-121555003D01*
X131531887Y-121555007D01*
X131419444Y-121723289D01*
X131419439Y-121723298D01*
X131341986Y-121910288D01*
X131341984Y-121910296D01*
X131302500Y-122108795D01*
X131302500Y-122311204D01*
X131341984Y-122509703D01*
X131341986Y-122509711D01*
X131419439Y-122696701D01*
X131419444Y-122696710D01*
X131531887Y-122864992D01*
X131531890Y-122864996D01*
X131675003Y-123008109D01*
X131675007Y-123008112D01*
X131843289Y-123120555D01*
X131843298Y-123120560D01*
X131885658Y-123138106D01*
X132030289Y-123198014D01*
X132228795Y-123237499D01*
X132228799Y-123237500D01*
X132228800Y-123237500D01*
X133031201Y-123237500D01*
X133031202Y-123237499D01*
X133229711Y-123198014D01*
X133416704Y-123120559D01*
X133584993Y-123008112D01*
X133728112Y-122864993D01*
X133840559Y-122696704D01*
X133918014Y-122509711D01*
X133957500Y-122311200D01*
X133957500Y-122108800D01*
X133918014Y-121910289D01*
X133840559Y-121723296D01*
X133840558Y-121723295D01*
X133840555Y-121723289D01*
X133728112Y-121555007D01*
X133728109Y-121555003D01*
X133584996Y-121411890D01*
X133584992Y-121411887D01*
X133416710Y-121299444D01*
X133416700Y-121299439D01*
X133300338Y-121251240D01*
X133245935Y-121207399D01*
X133223870Y-121141104D01*
X133241149Y-121073405D01*
X133292287Y-121025795D01*
X133309474Y-121018748D01*
X133467408Y-120967433D01*
X133663760Y-120867386D01*
X133842041Y-120737857D01*
X133997857Y-120582041D01*
X134127386Y-120403760D01*
X134227432Y-120207410D01*
X134295526Y-119997838D01*
X134295526Y-119997835D01*
X134307855Y-119920000D01*
X133063012Y-119920000D01*
X133095925Y-119862993D01*
X133130000Y-119735826D01*
X133130000Y-119604174D01*
X133095925Y-119477007D01*
X133063012Y-119420000D01*
X134307855Y-119420000D01*
X134295526Y-119342164D01*
X134295526Y-119342161D01*
X134227432Y-119132589D01*
X134127386Y-118936239D01*
X133997857Y-118757958D01*
X133842041Y-118602142D01*
X133663760Y-118472613D01*
X133467410Y-118372567D01*
X133309473Y-118321251D01*
X133251798Y-118281814D01*
X133224599Y-118217455D01*
X133236513Y-118148609D01*
X133283757Y-118097133D01*
X133300339Y-118088759D01*
X133416697Y-118040562D01*
X133416697Y-118040561D01*
X133416704Y-118040559D01*
X133584993Y-117928112D01*
X133728112Y-117784993D01*
X133840559Y-117616704D01*
X133918014Y-117429711D01*
X133957500Y-117231200D01*
X133957500Y-117028800D01*
X133918014Y-116830289D01*
X133840559Y-116643296D01*
X133840558Y-116643295D01*
X133840555Y-116643289D01*
X133728112Y-116475007D01*
X133728109Y-116475003D01*
X133584996Y-116331890D01*
X133584992Y-116331887D01*
X133416710Y-116219444D01*
X133416701Y-116219439D01*
X133229711Y-116141986D01*
X133229703Y-116141984D01*
X133031204Y-116102500D01*
X133031200Y-116102500D01*
X132228800Y-116102500D01*
X132228795Y-116102500D01*
X132030296Y-116141984D01*
X132030288Y-116141986D01*
X131843298Y-116219439D01*
X131843289Y-116219444D01*
X131675007Y-116331887D01*
X131675003Y-116331890D01*
X131531890Y-116475003D01*
X131531887Y-116475007D01*
X131419444Y-116643289D01*
X131419439Y-116643298D01*
X131341986Y-116830288D01*
X131341984Y-116830296D01*
X131302500Y-117028795D01*
X131302500Y-117231204D01*
X131341984Y-117429703D01*
X131341986Y-117429711D01*
X131419439Y-117616701D01*
X131419444Y-117616710D01*
X131531887Y-117784992D01*
X131531890Y-117784996D01*
X131675003Y-117928109D01*
X131675007Y-117928112D01*
X131843289Y-118040555D01*
X131843298Y-118040560D01*
X131959661Y-118088759D01*
X132014064Y-118132600D01*
X132036129Y-118198894D01*
X132018850Y-118266593D01*
X131967713Y-118314204D01*
X131950526Y-118321251D01*
X131792589Y-118372567D01*
X131596239Y-118472613D01*
X131417958Y-118602142D01*
X131262142Y-118757958D01*
X131132613Y-118936239D01*
X131032567Y-119132589D01*
X130964473Y-119342161D01*
X130964473Y-119342164D01*
X130952145Y-119420000D01*
X130520500Y-119420000D01*
X130520500Y-114488795D01*
X131302500Y-114488795D01*
X131302500Y-114691204D01*
X131341984Y-114889703D01*
X131341986Y-114889711D01*
X131419439Y-115076701D01*
X131419444Y-115076710D01*
X131531887Y-115244992D01*
X131531890Y-115244996D01*
X131675003Y-115388109D01*
X131675007Y-115388112D01*
X131843289Y-115500555D01*
X131843295Y-115500558D01*
X131843296Y-115500559D01*
X132030289Y-115578014D01*
X132228795Y-115617499D01*
X132228799Y-115617500D01*
X132228800Y-115617500D01*
X133031201Y-115617500D01*
X133031202Y-115617499D01*
X133229711Y-115578014D01*
X133416704Y-115500559D01*
X133584993Y-115388112D01*
X133728112Y-115244993D01*
X133840559Y-115076704D01*
X133918014Y-114889711D01*
X133957500Y-114691200D01*
X133957500Y-114488800D01*
X133918014Y-114290289D01*
X133840559Y-114103296D01*
X133840558Y-114103295D01*
X133840555Y-114103289D01*
X133728112Y-113935007D01*
X133728109Y-113935003D01*
X133584996Y-113791890D01*
X133584992Y-113791887D01*
X133416710Y-113679444D01*
X133416701Y-113679439D01*
X133229711Y-113601986D01*
X133229703Y-113601984D01*
X133031204Y-113562500D01*
X133031200Y-113562500D01*
X132228800Y-113562500D01*
X132228795Y-113562500D01*
X132030296Y-113601984D01*
X132030288Y-113601986D01*
X131843298Y-113679439D01*
X131843289Y-113679444D01*
X131675007Y-113791887D01*
X131675003Y-113791890D01*
X131531890Y-113935003D01*
X131531887Y-113935007D01*
X131419444Y-114103289D01*
X131419439Y-114103298D01*
X131341986Y-114290288D01*
X131341984Y-114290296D01*
X131302500Y-114488795D01*
X130520500Y-114488795D01*
X130520500Y-111948795D01*
X131302500Y-111948795D01*
X131302500Y-112151204D01*
X131341984Y-112349703D01*
X131341986Y-112349711D01*
X131419439Y-112536701D01*
X131419444Y-112536710D01*
X131531887Y-112704992D01*
X131531890Y-112704996D01*
X131675003Y-112848109D01*
X131675007Y-112848112D01*
X131843289Y-112960555D01*
X131843295Y-112960558D01*
X131843296Y-112960559D01*
X132030289Y-113038014D01*
X132228795Y-113077499D01*
X132228799Y-113077500D01*
X132228800Y-113077500D01*
X133031201Y-113077500D01*
X133031202Y-113077499D01*
X133229711Y-113038014D01*
X133416704Y-112960559D01*
X133584993Y-112848112D01*
X133728112Y-112704993D01*
X133840559Y-112536704D01*
X133918014Y-112349711D01*
X133957500Y-112151200D01*
X133957500Y-111948800D01*
X133918014Y-111750289D01*
X133840559Y-111563296D01*
X133840558Y-111563295D01*
X133840555Y-111563289D01*
X133728112Y-111395007D01*
X133728109Y-111395003D01*
X133584996Y-111251890D01*
X133584992Y-111251887D01*
X133416710Y-111139444D01*
X133416701Y-111139439D01*
X133229711Y-111061986D01*
X133229703Y-111061984D01*
X133031204Y-111022500D01*
X133031200Y-111022500D01*
X132228800Y-111022500D01*
X132228795Y-111022500D01*
X132030296Y-111061984D01*
X132030288Y-111061986D01*
X131843298Y-111139439D01*
X131843289Y-111139444D01*
X131675007Y-111251887D01*
X131675003Y-111251890D01*
X131531890Y-111395003D01*
X131531887Y-111395007D01*
X131419444Y-111563289D01*
X131419439Y-111563298D01*
X131341986Y-111750288D01*
X131341984Y-111750296D01*
X131302500Y-111948795D01*
X130520500Y-111948795D01*
X130520500Y-106720000D01*
X130952145Y-106720000D01*
X132196988Y-106720000D01*
X132164075Y-106777007D01*
X132130000Y-106904174D01*
X132130000Y-107035826D01*
X132164075Y-107162993D01*
X132196988Y-107220000D01*
X130952145Y-107220000D01*
X130964473Y-107297835D01*
X130964473Y-107297838D01*
X131032567Y-107507410D01*
X131132613Y-107703760D01*
X131262142Y-107882041D01*
X131417958Y-108037857D01*
X131596239Y-108167386D01*
X131792592Y-108267433D01*
X131792590Y-108267433D01*
X131950525Y-108318748D01*
X132008201Y-108358185D01*
X132035400Y-108422543D01*
X132023486Y-108491390D01*
X131976242Y-108542866D01*
X131959661Y-108551240D01*
X131843299Y-108599439D01*
X131843289Y-108599444D01*
X131675007Y-108711887D01*
X131675003Y-108711890D01*
X131531890Y-108855003D01*
X131531887Y-108855007D01*
X131419444Y-109023289D01*
X131419439Y-109023298D01*
X131341986Y-109210288D01*
X131341984Y-109210296D01*
X131302500Y-109408795D01*
X131302500Y-109611204D01*
X131341984Y-109809703D01*
X131341986Y-109809711D01*
X131419439Y-109996701D01*
X131419444Y-109996710D01*
X131531887Y-110164992D01*
X131531890Y-110164996D01*
X131675003Y-110308109D01*
X131675007Y-110308112D01*
X131843289Y-110420555D01*
X131843295Y-110420558D01*
X131843296Y-110420559D01*
X132030289Y-110498014D01*
X132228795Y-110537499D01*
X132228799Y-110537500D01*
X132228800Y-110537500D01*
X133031201Y-110537500D01*
X133031202Y-110537499D01*
X133229711Y-110498014D01*
X133416704Y-110420559D01*
X133584993Y-110308112D01*
X133728112Y-110164993D01*
X133840559Y-109996704D01*
X133918014Y-109809711D01*
X133957500Y-109611200D01*
X133957500Y-109408800D01*
X133951558Y-109378925D01*
X133951558Y-109378924D01*
X133949176Y-109366947D01*
X148228100Y-109366947D01*
X148228100Y-124750947D01*
X148228100Y-124841453D01*
X148262735Y-124925068D01*
X149527032Y-126189366D01*
X149575499Y-126209441D01*
X149610647Y-126224000D01*
X149610648Y-126224000D01*
X152070552Y-126224000D01*
X152070553Y-126224000D01*
X152154168Y-126189365D01*
X152154170Y-126189363D01*
X152154171Y-126189363D01*
X152161415Y-126182119D01*
X152222738Y-126148634D01*
X152249096Y-126145800D01*
X155868500Y-126145800D01*
X155935539Y-126165485D01*
X155981294Y-126218289D01*
X155992500Y-126269800D01*
X155992500Y-128032558D01*
X155999898Y-128069749D01*
X156028077Y-128111922D01*
X156070250Y-128140101D01*
X156070252Y-128140102D01*
X156098205Y-128145662D01*
X156107441Y-128147500D01*
X156107442Y-128147500D01*
X157932559Y-128147500D01*
X157939957Y-128146028D01*
X157969748Y-128140102D01*
X158011922Y-128111922D01*
X158040102Y-128069748D01*
X158047500Y-128032558D01*
X158047500Y-126269800D01*
X158067185Y-126202761D01*
X158119989Y-126157006D01*
X158171500Y-126145800D01*
X158212705Y-126145800D01*
X158279744Y-126165485D01*
X158300386Y-126182119D01*
X158620764Y-126502497D01*
X158654249Y-126563820D01*
X158649265Y-126633512D01*
X158647644Y-126637630D01*
X158571987Y-126820284D01*
X158571984Y-126820296D01*
X158532500Y-127018795D01*
X158532500Y-127221204D01*
X158571984Y-127419703D01*
X158571986Y-127419711D01*
X158649439Y-127606701D01*
X158649444Y-127606710D01*
X158761887Y-127774992D01*
X158761890Y-127774996D01*
X158905003Y-127918109D01*
X158905007Y-127918112D01*
X159073289Y-128030555D01*
X159073295Y-128030558D01*
X159073296Y-128030559D01*
X159260289Y-128108014D01*
X159458795Y-128147499D01*
X159458799Y-128147500D01*
X159458800Y-128147500D01*
X159661201Y-128147500D01*
X159661202Y-128147499D01*
X159859711Y-128108014D01*
X160046704Y-128030559D01*
X160214993Y-127918112D01*
X160358112Y-127774993D01*
X160470559Y-127606704D01*
X160548014Y-127419711D01*
X160587500Y-127221200D01*
X160587500Y-127028644D01*
X167092500Y-127028644D01*
X167092500Y-127211355D01*
X167128141Y-127390534D01*
X167128143Y-127390542D01*
X167198058Y-127559333D01*
X167198063Y-127559342D01*
X167299563Y-127711246D01*
X167299566Y-127711250D01*
X167428749Y-127840433D01*
X167428753Y-127840436D01*
X167580657Y-127941936D01*
X167580663Y-127941939D01*
X167580664Y-127941940D01*
X167749458Y-128011857D01*
X167928644Y-128047499D01*
X167928648Y-128047500D01*
X167928649Y-128047500D01*
X168111352Y-128047500D01*
X168111353Y-128047499D01*
X168138586Y-128042082D01*
X168196326Y-128030598D01*
X168236166Y-128022672D01*
X168290542Y-128011857D01*
X168459336Y-127941940D01*
X168611247Y-127840436D01*
X168740436Y-127711247D01*
X168841940Y-127559336D01*
X168911857Y-127390542D01*
X168947500Y-127211351D01*
X168947500Y-127028649D01*
X168947500Y-127028646D01*
X168945319Y-127017682D01*
X176880000Y-127017682D01*
X176880000Y-127222317D01*
X176912009Y-127424417D01*
X176975244Y-127619031D01*
X177068141Y-127801350D01*
X177068147Y-127801359D01*
X177100523Y-127845921D01*
X177100524Y-127845922D01*
X177780000Y-127166446D01*
X177780000Y-127172661D01*
X177807259Y-127274394D01*
X177859920Y-127365606D01*
X177934394Y-127440080D01*
X178025606Y-127492741D01*
X178127339Y-127520000D01*
X178133553Y-127520000D01*
X177454076Y-128199474D01*
X177498650Y-128231859D01*
X177680968Y-128324755D01*
X177875582Y-128387990D01*
X178077683Y-128420000D01*
X178282317Y-128420000D01*
X178484417Y-128387990D01*
X178679031Y-128324755D01*
X178759502Y-128283753D01*
X185670000Y-128283753D01*
X185670000Y-128496246D01*
X185703242Y-128706127D01*
X185703242Y-128706130D01*
X185768904Y-128908217D01*
X185865375Y-129097550D01*
X185904728Y-129151716D01*
X186537036Y-128519407D01*
X186554075Y-128582993D01*
X186619901Y-128697007D01*
X186712993Y-128790099D01*
X186827007Y-128855925D01*
X186890590Y-128872962D01*
X186258282Y-129505269D01*
X186258282Y-129505270D01*
X186312449Y-129544624D01*
X186501782Y-129641095D01*
X186703870Y-129706757D01*
X186913754Y-129740000D01*
X187126246Y-129740000D01*
X187336127Y-129706757D01*
X187336130Y-129706757D01*
X187538217Y-129641095D01*
X187727554Y-129544622D01*
X187781716Y-129505270D01*
X187781717Y-129505270D01*
X187149408Y-128872962D01*
X187212993Y-128855925D01*
X187327007Y-128790099D01*
X187420099Y-128697007D01*
X187485925Y-128582993D01*
X187502962Y-128519408D01*
X188135270Y-129151717D01*
X188135270Y-129151716D01*
X188174622Y-129097554D01*
X188271095Y-128908217D01*
X188336757Y-128706130D01*
X188336757Y-128706127D01*
X188370000Y-128496246D01*
X188370000Y-128283753D01*
X188336757Y-128073872D01*
X188336757Y-128073869D01*
X188271095Y-127871782D01*
X188174624Y-127682449D01*
X188135270Y-127628282D01*
X188135269Y-127628282D01*
X187502962Y-128260590D01*
X187485925Y-128197007D01*
X187420099Y-128082993D01*
X187327007Y-127989901D01*
X187212993Y-127924075D01*
X187149409Y-127907037D01*
X187781716Y-127274728D01*
X187727550Y-127235375D01*
X187538217Y-127138904D01*
X187336130Y-127073242D01*
X187331398Y-127072107D01*
X187331951Y-127069800D01*
X187277627Y-127044062D01*
X187240683Y-126984758D01*
X187241666Y-126914895D01*
X187280263Y-126856654D01*
X187344221Y-126828526D01*
X187360140Y-126827500D01*
X187882559Y-126827500D01*
X187889957Y-126826028D01*
X187919748Y-126820102D01*
X187961922Y-126791922D01*
X187990102Y-126749748D01*
X187997500Y-126712558D01*
X187997500Y-124987442D01*
X187990102Y-124950252D01*
X187990101Y-124950250D01*
X187961922Y-124908077D01*
X187919749Y-124879898D01*
X187882559Y-124872500D01*
X187882558Y-124872500D01*
X186157442Y-124872500D01*
X186157441Y-124872500D01*
X186120250Y-124879898D01*
X186078077Y-124908077D01*
X186049898Y-124950250D01*
X186042500Y-124987441D01*
X186042500Y-126712558D01*
X186049898Y-126749749D01*
X186078077Y-126791922D01*
X186120250Y-126820101D01*
X186120252Y-126820102D01*
X186148205Y-126825662D01*
X186157441Y-126827500D01*
X186679860Y-126827500D01*
X186746899Y-126847185D01*
X186792654Y-126899989D01*
X186802598Y-126969147D01*
X186773573Y-127032703D01*
X186714795Y-127070477D01*
X186708548Y-127071882D01*
X186708602Y-127072107D01*
X186703869Y-127073242D01*
X186501782Y-127138904D01*
X186312439Y-127235380D01*
X186258282Y-127274727D01*
X186258282Y-127274728D01*
X186890591Y-127907037D01*
X186827007Y-127924075D01*
X186712993Y-127989901D01*
X186619901Y-128082993D01*
X186554075Y-128197007D01*
X186537037Y-128260591D01*
X185904728Y-127628282D01*
X185904727Y-127628282D01*
X185865380Y-127682439D01*
X185768904Y-127871782D01*
X185703242Y-128073869D01*
X185703242Y-128073872D01*
X185670000Y-128283753D01*
X178759502Y-128283753D01*
X178861349Y-128231859D01*
X178905921Y-128199474D01*
X178226447Y-127520000D01*
X178232661Y-127520000D01*
X178334394Y-127492741D01*
X178425606Y-127440080D01*
X178500080Y-127365606D01*
X178552741Y-127274394D01*
X178580000Y-127172661D01*
X178580000Y-127166447D01*
X179259474Y-127845921D01*
X179291859Y-127801349D01*
X179384755Y-127619031D01*
X179447990Y-127424417D01*
X179480000Y-127222317D01*
X179480000Y-127017682D01*
X179447990Y-126815582D01*
X179384755Y-126620968D01*
X179291859Y-126438650D01*
X179259474Y-126394077D01*
X179259474Y-126394076D01*
X178580000Y-127073551D01*
X178580000Y-127067339D01*
X178552741Y-126965606D01*
X178500080Y-126874394D01*
X178425606Y-126799920D01*
X178334394Y-126747259D01*
X178232661Y-126720000D01*
X178226446Y-126720000D01*
X178905922Y-126040524D01*
X178905921Y-126040523D01*
X178861359Y-126008147D01*
X178861350Y-126008141D01*
X178679031Y-125915244D01*
X178484417Y-125852009D01*
X178282317Y-125820000D01*
X178077683Y-125820000D01*
X177875582Y-125852009D01*
X177680968Y-125915244D01*
X177498644Y-126008143D01*
X177454077Y-126040523D01*
X177454077Y-126040524D01*
X178133554Y-126720000D01*
X178127339Y-126720000D01*
X178025606Y-126747259D01*
X177934394Y-126799920D01*
X177859920Y-126874394D01*
X177807259Y-126965606D01*
X177780000Y-127067339D01*
X177780000Y-127073553D01*
X177100524Y-126394077D01*
X177100523Y-126394077D01*
X177068143Y-126438644D01*
X176975244Y-126620968D01*
X176912009Y-126815582D01*
X176880000Y-127017682D01*
X168945319Y-127017682D01*
X168911858Y-126849465D01*
X168911857Y-126849458D01*
X168841940Y-126680664D01*
X168841939Y-126680663D01*
X168841936Y-126680657D01*
X168740436Y-126528753D01*
X168740433Y-126528749D01*
X168611250Y-126399566D01*
X168611246Y-126399563D01*
X168459342Y-126298063D01*
X168459333Y-126298058D01*
X168290542Y-126228143D01*
X168290534Y-126228141D01*
X168196316Y-126209400D01*
X168111355Y-126192500D01*
X168111351Y-126192500D01*
X167928649Y-126192500D01*
X167928644Y-126192500D01*
X167749465Y-126228141D01*
X167749457Y-126228143D01*
X167580666Y-126298058D01*
X167580657Y-126298063D01*
X167428753Y-126399563D01*
X167428749Y-126399566D01*
X167299566Y-126528749D01*
X167299563Y-126528753D01*
X167198063Y-126680657D01*
X167198058Y-126680666D01*
X167128143Y-126849457D01*
X167128141Y-126849465D01*
X167092500Y-127028644D01*
X160587500Y-127028644D01*
X160587500Y-127018800D01*
X160548014Y-126820289D01*
X160472354Y-126637630D01*
X160470560Y-126633298D01*
X160470555Y-126633289D01*
X160358112Y-126465007D01*
X160358109Y-126465003D01*
X160214996Y-126321890D01*
X160214992Y-126321887D01*
X160046706Y-126209442D01*
X160046701Y-126209439D01*
X159859711Y-126131986D01*
X159859703Y-126131984D01*
X159661204Y-126092500D01*
X159661200Y-126092500D01*
X159458800Y-126092500D01*
X159458795Y-126092500D01*
X159260296Y-126131984D01*
X159260284Y-126131987D01*
X159077630Y-126207644D01*
X159008161Y-126215113D01*
X158945682Y-126183837D01*
X158942497Y-126180764D01*
X158487170Y-125725436D01*
X158487165Y-125725434D01*
X158403553Y-125690800D01*
X152058247Y-125690800D01*
X152033757Y-125700944D01*
X152011915Y-125709990D01*
X151974632Y-125725433D01*
X151967385Y-125732681D01*
X151906062Y-125766166D01*
X151879704Y-125769000D01*
X151442397Y-125769000D01*
X151375358Y-125749315D01*
X151329603Y-125696511D01*
X151319659Y-125627353D01*
X151348684Y-125563797D01*
X151363737Y-125549143D01*
X151364989Y-125548114D01*
X151364993Y-125548112D01*
X151508112Y-125404993D01*
X151620559Y-125236704D01*
X151698014Y-125049711D01*
X151717798Y-124950252D01*
X151737499Y-124851204D01*
X151737500Y-124851201D01*
X151737500Y-124648799D01*
X151737499Y-124648795D01*
X151698015Y-124450296D01*
X151698014Y-124450289D01*
X151620559Y-124263296D01*
X151620558Y-124263295D01*
X151620555Y-124263289D01*
X151508112Y-124095007D01*
X151508109Y-124095003D01*
X151364996Y-123951890D01*
X151364992Y-123951887D01*
X151196710Y-123839444D01*
X151196701Y-123839439D01*
X151009711Y-123761986D01*
X151009703Y-123761984D01*
X150811204Y-123722500D01*
X150811200Y-123722500D01*
X150761500Y-123722500D01*
X150694461Y-123702815D01*
X150648706Y-123650011D01*
X150637500Y-123598500D01*
X150637500Y-123503048D01*
X150637500Y-123503047D01*
X150602865Y-123419432D01*
X150602863Y-123419430D01*
X150598524Y-123408954D01*
X150591055Y-123339485D01*
X150622329Y-123277005D01*
X150682418Y-123241352D01*
X150713085Y-123237500D01*
X150811201Y-123237500D01*
X150811202Y-123237499D01*
X151009711Y-123198014D01*
X151196704Y-123120559D01*
X151364993Y-123008112D01*
X151508112Y-122864993D01*
X151620559Y-122696704D01*
X151698014Y-122509711D01*
X151737500Y-122311200D01*
X151737500Y-122108800D01*
X151698014Y-121910289D01*
X151620559Y-121723296D01*
X151620558Y-121723295D01*
X151620555Y-121723289D01*
X151508112Y-121555007D01*
X151508109Y-121555003D01*
X151364996Y-121411890D01*
X151364992Y-121411887D01*
X151274311Y-121351295D01*
X151229506Y-121297682D01*
X151220799Y-121228357D01*
X151250954Y-121165330D01*
X151255521Y-121160512D01*
X155780819Y-116635214D01*
X155842142Y-116601729D01*
X155911834Y-116606713D01*
X155967767Y-116648585D01*
X155992184Y-116714049D01*
X155992500Y-116722895D01*
X155992500Y-118532558D01*
X155999898Y-118569749D01*
X156028077Y-118611922D01*
X156070250Y-118640101D01*
X156070252Y-118640102D01*
X156098205Y-118645662D01*
X156107441Y-118647500D01*
X156107442Y-118647500D01*
X157932559Y-118647500D01*
X157939957Y-118646028D01*
X157969748Y-118640102D01*
X158011922Y-118611922D01*
X158040102Y-118569748D01*
X158047500Y-118532558D01*
X158047500Y-117518795D01*
X158532500Y-117518795D01*
X158532500Y-117721204D01*
X158571984Y-117919703D01*
X158571986Y-117919711D01*
X158649439Y-118106701D01*
X158649444Y-118106710D01*
X158761887Y-118274992D01*
X158761890Y-118274996D01*
X158905003Y-118418109D01*
X158905007Y-118418112D01*
X159073289Y-118530555D01*
X159073295Y-118530558D01*
X159073296Y-118530559D01*
X159260289Y-118608014D01*
X159458795Y-118647499D01*
X159458799Y-118647500D01*
X159458800Y-118647500D01*
X159661201Y-118647500D01*
X159661202Y-118647499D01*
X159859711Y-118608014D01*
X160046704Y-118530559D01*
X160214993Y-118418112D01*
X160358112Y-118274993D01*
X160470559Y-118106704D01*
X160548014Y-117919711D01*
X160587500Y-117721200D01*
X160587500Y-117528644D01*
X167092500Y-117528644D01*
X167092500Y-117711355D01*
X167128141Y-117890534D01*
X167128143Y-117890542D01*
X167198058Y-118059333D01*
X167198063Y-118059342D01*
X167299563Y-118211246D01*
X167299566Y-118211250D01*
X167428749Y-118340433D01*
X167428753Y-118340436D01*
X167580657Y-118441936D01*
X167580663Y-118441939D01*
X167580664Y-118441940D01*
X167749458Y-118511857D01*
X167895770Y-118540960D01*
X167928644Y-118547499D01*
X167928648Y-118547500D01*
X167928649Y-118547500D01*
X168111352Y-118547500D01*
X168111353Y-118547499D01*
X168290542Y-118511857D01*
X168459336Y-118441940D01*
X168611247Y-118340436D01*
X168740436Y-118211247D01*
X168841940Y-118059336D01*
X168911857Y-117890542D01*
X168947500Y-117711351D01*
X168947500Y-117528649D01*
X168911857Y-117349458D01*
X168841940Y-117180664D01*
X168841939Y-117180663D01*
X168841936Y-117180657D01*
X168740436Y-117028753D01*
X168740433Y-117028749D01*
X168611250Y-116899566D01*
X168611246Y-116899563D01*
X168459342Y-116798063D01*
X168459333Y-116798058D01*
X168290542Y-116728143D01*
X168290534Y-116728141D01*
X168111355Y-116692500D01*
X168111351Y-116692500D01*
X167928649Y-116692500D01*
X167928644Y-116692500D01*
X167749465Y-116728141D01*
X167749457Y-116728143D01*
X167580666Y-116798058D01*
X167580657Y-116798063D01*
X167428753Y-116899563D01*
X167428749Y-116899566D01*
X167299566Y-117028749D01*
X167299563Y-117028753D01*
X167198063Y-117180657D01*
X167198058Y-117180666D01*
X167128143Y-117349457D01*
X167128141Y-117349465D01*
X167092500Y-117528644D01*
X160587500Y-117528644D01*
X160587500Y-117518800D01*
X160548014Y-117320289D01*
X160472354Y-117137631D01*
X160464886Y-117068162D01*
X160496161Y-117005683D01*
X160499235Y-117002497D01*
X160738966Y-116762768D01*
X160773600Y-116679153D01*
X160773600Y-116588647D01*
X160773600Y-103652060D01*
X160793285Y-103585021D01*
X160846089Y-103539266D01*
X160915247Y-103529322D01*
X160978803Y-103558347D01*
X160985281Y-103564379D01*
X161003007Y-103582105D01*
X161003008Y-103582106D01*
X161003010Y-103582107D01*
X161036943Y-103601698D01*
X161123293Y-103651552D01*
X161257453Y-103687500D01*
X161257455Y-103687500D01*
X161396345Y-103687500D01*
X161396347Y-103687500D01*
X161434708Y-103677221D01*
X161504554Y-103678882D01*
X161554481Y-103709314D01*
X171756181Y-113911014D01*
X171789666Y-113972337D01*
X171792500Y-113998695D01*
X171792500Y-120518500D01*
X171772815Y-120585539D01*
X171720011Y-120631294D01*
X171668500Y-120642500D01*
X171157441Y-120642500D01*
X171120250Y-120649898D01*
X171078077Y-120678077D01*
X171049898Y-120720250D01*
X171042500Y-120757441D01*
X171042500Y-122482558D01*
X171049898Y-122519749D01*
X171078077Y-122561922D01*
X171120250Y-122590101D01*
X171120252Y-122590102D01*
X171148205Y-122595662D01*
X171157441Y-122597500D01*
X171157442Y-122597500D01*
X172882559Y-122597500D01*
X172889957Y-122596028D01*
X172919748Y-122590102D01*
X172961922Y-122561922D01*
X172990102Y-122519748D01*
X172997500Y-122482558D01*
X172997500Y-120757442D01*
X172990481Y-120722155D01*
X175670000Y-120722155D01*
X175670000Y-121370000D01*
X176586988Y-121370000D01*
X176554075Y-121427007D01*
X176520000Y-121554174D01*
X176520000Y-121685826D01*
X176554075Y-121812993D01*
X176586988Y-121870000D01*
X175670000Y-121870000D01*
X175670000Y-122517844D01*
X175676401Y-122577372D01*
X175676403Y-122577379D01*
X175726645Y-122712086D01*
X175726649Y-122712093D01*
X175812809Y-122827187D01*
X175812812Y-122827190D01*
X175927906Y-122913350D01*
X175927913Y-122913354D01*
X176062620Y-122963596D01*
X176062627Y-122963598D01*
X176122155Y-122969999D01*
X176122172Y-122970000D01*
X176770000Y-122970000D01*
X176770000Y-122053012D01*
X176827007Y-122085925D01*
X176954174Y-122120000D01*
X177085826Y-122120000D01*
X177212993Y-122085925D01*
X177270000Y-122053012D01*
X177270000Y-122970000D01*
X177917828Y-122970000D01*
X177917844Y-122969999D01*
X177977372Y-122963598D01*
X177977379Y-122963596D01*
X178112086Y-122913354D01*
X178112093Y-122913350D01*
X178227187Y-122827190D01*
X178227190Y-122827187D01*
X178313350Y-122712093D01*
X178313354Y-122712086D01*
X178363596Y-122577379D01*
X178363598Y-122577372D01*
X178369999Y-122517844D01*
X178370000Y-122517827D01*
X178370000Y-121870000D01*
X177453012Y-121870000D01*
X177485925Y-121812993D01*
X177520000Y-121685826D01*
X177520000Y-121554174D01*
X177485925Y-121427007D01*
X177453012Y-121370000D01*
X178370000Y-121370000D01*
X178370000Y-120722172D01*
X178369999Y-120722155D01*
X178363598Y-120662627D01*
X178363596Y-120662620D01*
X178313354Y-120527913D01*
X178313350Y-120527906D01*
X178227190Y-120412812D01*
X178227187Y-120412809D01*
X178112093Y-120326649D01*
X178112086Y-120326645D01*
X177977379Y-120276403D01*
X177977372Y-120276401D01*
X177917844Y-120270000D01*
X177270000Y-120270000D01*
X177270000Y-121186988D01*
X177212993Y-121154075D01*
X177085826Y-121120000D01*
X176954174Y-121120000D01*
X176827007Y-121154075D01*
X176770000Y-121186988D01*
X176770000Y-120270000D01*
X176122155Y-120270000D01*
X176062627Y-120276401D01*
X176062620Y-120276403D01*
X175927913Y-120326645D01*
X175927906Y-120326649D01*
X175812812Y-120412809D01*
X175812809Y-120412812D01*
X175726649Y-120527906D01*
X175726645Y-120527913D01*
X175676403Y-120662620D01*
X175676401Y-120662627D01*
X175670000Y-120722155D01*
X172990481Y-120722155D01*
X172990102Y-120720252D01*
X172990101Y-120720250D01*
X172961922Y-120678077D01*
X172919749Y-120649898D01*
X172882559Y-120642500D01*
X172882558Y-120642500D01*
X172371500Y-120642500D01*
X172304461Y-120622815D01*
X172258706Y-120570011D01*
X172247500Y-120518500D01*
X172247500Y-117517682D01*
X176880000Y-117517682D01*
X176880000Y-117722317D01*
X176912009Y-117924417D01*
X176975244Y-118119031D01*
X177068141Y-118301350D01*
X177068147Y-118301359D01*
X177100523Y-118345921D01*
X177100524Y-118345922D01*
X177780000Y-117666446D01*
X177780000Y-117672661D01*
X177807259Y-117774394D01*
X177859920Y-117865606D01*
X177934394Y-117940080D01*
X178025606Y-117992741D01*
X178127339Y-118020000D01*
X178133553Y-118020000D01*
X177454076Y-118699474D01*
X177498650Y-118731859D01*
X177680968Y-118824755D01*
X177875582Y-118887990D01*
X178077683Y-118920000D01*
X178282317Y-118920000D01*
X178484417Y-118887990D01*
X178679031Y-118824755D01*
X178861349Y-118731859D01*
X178905921Y-118699474D01*
X178226447Y-118020000D01*
X178232661Y-118020000D01*
X178334394Y-117992741D01*
X178425606Y-117940080D01*
X178500080Y-117865606D01*
X178552741Y-117774394D01*
X178580000Y-117672661D01*
X178580000Y-117666447D01*
X179259474Y-118345921D01*
X179291859Y-118301349D01*
X179384755Y-118119031D01*
X179447990Y-117924417D01*
X179480000Y-117722317D01*
X179480000Y-117517682D01*
X179447990Y-117315582D01*
X179384755Y-117120968D01*
X179291859Y-116938650D01*
X179259474Y-116894077D01*
X179259474Y-116894076D01*
X178580000Y-117573551D01*
X178580000Y-117567339D01*
X178552741Y-117465606D01*
X178500080Y-117374394D01*
X178425606Y-117299920D01*
X178334394Y-117247259D01*
X178232661Y-117220000D01*
X178226446Y-117220000D01*
X178905922Y-116540524D01*
X178905921Y-116540523D01*
X178861359Y-116508147D01*
X178861350Y-116508141D01*
X178679031Y-116415244D01*
X178484417Y-116352009D01*
X178282317Y-116320000D01*
X178077683Y-116320000D01*
X177875582Y-116352009D01*
X177680968Y-116415244D01*
X177498644Y-116508143D01*
X177454077Y-116540523D01*
X177454077Y-116540524D01*
X178133554Y-117220000D01*
X178127339Y-117220000D01*
X178025606Y-117247259D01*
X177934394Y-117299920D01*
X177859920Y-117374394D01*
X177807259Y-117465606D01*
X177780000Y-117567339D01*
X177780000Y-117573553D01*
X177100524Y-116894077D01*
X177100523Y-116894077D01*
X177068143Y-116938644D01*
X176975244Y-117120968D01*
X176912009Y-117315582D01*
X176880000Y-117517682D01*
X172247500Y-117517682D01*
X172247500Y-113807848D01*
X172247500Y-113807847D01*
X172212865Y-113724232D01*
X172148868Y-113660235D01*
X161876214Y-103387581D01*
X161842729Y-103326258D01*
X161844120Y-103267808D01*
X161854400Y-103229447D01*
X161854400Y-103090553D01*
X161818452Y-102956393D01*
X161773199Y-102878013D01*
X161749007Y-102836110D01*
X161749003Y-102836105D01*
X161650794Y-102737896D01*
X161650789Y-102737892D01*
X161530509Y-102668449D01*
X161530508Y-102668448D01*
X161530507Y-102668448D01*
X161396347Y-102632500D01*
X161257453Y-102632500D01*
X161123293Y-102668448D01*
X161123290Y-102668449D01*
X161003010Y-102737892D01*
X161003005Y-102737896D01*
X160985281Y-102755621D01*
X160923958Y-102789106D01*
X160854266Y-102784122D01*
X160798333Y-102742250D01*
X160773916Y-102676786D01*
X160773600Y-102667940D01*
X160773600Y-96289348D01*
X160793285Y-96222309D01*
X160835600Y-96181961D01*
X160869993Y-96162105D01*
X160968205Y-96063893D01*
X161037652Y-95943607D01*
X161073600Y-95809447D01*
X161073600Y-95670553D01*
X161037652Y-95536393D01*
X160968205Y-95416107D01*
X160869993Y-95317895D01*
X160869992Y-95317894D01*
X160869989Y-95317892D01*
X160749709Y-95248449D01*
X160749708Y-95248448D01*
X160749707Y-95248448D01*
X160615547Y-95212500D01*
X160476653Y-95212500D01*
X160342493Y-95248448D01*
X160342490Y-95248449D01*
X160222210Y-95317892D01*
X160222205Y-95317896D01*
X160123996Y-95416105D01*
X160123992Y-95416110D01*
X160054549Y-95536390D01*
X160054548Y-95536393D01*
X160018600Y-95670553D01*
X160018600Y-95809447D01*
X160042714Y-95899439D01*
X160054548Y-95943606D01*
X160054549Y-95943609D01*
X160123992Y-96063889D01*
X160123994Y-96063892D01*
X160123995Y-96063893D01*
X160222207Y-96162105D01*
X160256598Y-96181961D01*
X160304814Y-96232526D01*
X160318600Y-96289348D01*
X160318600Y-116488304D01*
X160298915Y-116555343D01*
X160282285Y-116575980D01*
X160226282Y-116631984D01*
X160177501Y-116680765D01*
X160116178Y-116714249D01*
X160046486Y-116709265D01*
X160042368Y-116707644D01*
X159859715Y-116631987D01*
X159859703Y-116631984D01*
X159661204Y-116592500D01*
X159661200Y-116592500D01*
X159458800Y-116592500D01*
X159458795Y-116592500D01*
X159260296Y-116631984D01*
X159260288Y-116631986D01*
X159073298Y-116709439D01*
X159073289Y-116709444D01*
X158905007Y-116821887D01*
X158905003Y-116821890D01*
X158761890Y-116965003D01*
X158761887Y-116965007D01*
X158649444Y-117133289D01*
X158649439Y-117133298D01*
X158571986Y-117320288D01*
X158571984Y-117320296D01*
X158532500Y-117518795D01*
X158047500Y-117518795D01*
X158047500Y-116707442D01*
X158040102Y-116670252D01*
X158040101Y-116670250D01*
X158011922Y-116628077D01*
X157969749Y-116599898D01*
X157932559Y-116592500D01*
X157932558Y-116592500D01*
X156122895Y-116592500D01*
X156055856Y-116572815D01*
X156010101Y-116520011D01*
X156000157Y-116450853D01*
X156029182Y-116387297D01*
X156035214Y-116380819D01*
X157760329Y-114655704D01*
X159731365Y-112684668D01*
X159752787Y-112632951D01*
X159766000Y-112601053D01*
X159766000Y-95643247D01*
X159731365Y-95559632D01*
X159667368Y-95495635D01*
X159259234Y-95087501D01*
X159225749Y-95026178D01*
X159230733Y-94956486D01*
X159232334Y-94952416D01*
X159308014Y-94769710D01*
X159347500Y-94571199D01*
X159347500Y-94368799D01*
X159308014Y-94170288D01*
X159230559Y-93983295D01*
X159230558Y-93983294D01*
X159230555Y-93983288D01*
X159118112Y-93815006D01*
X159118109Y-93815002D01*
X158974996Y-93671889D01*
X158974992Y-93671886D01*
X158876491Y-93606069D01*
X158831686Y-93552456D01*
X158822979Y-93483131D01*
X158853134Y-93420104D01*
X158878643Y-93402090D01*
X158877013Y-93399650D01*
X158887162Y-93392867D01*
X158887168Y-93392865D01*
X159746366Y-92533668D01*
X159781000Y-92450052D01*
X159781000Y-92359547D01*
X159781000Y-88038247D01*
X159746365Y-87954632D01*
X159682368Y-87890635D01*
X159259235Y-87467502D01*
X159225750Y-87406179D01*
X159230734Y-87336487D01*
X159232355Y-87332368D01*
X159243694Y-87304993D01*
X159308014Y-87149711D01*
X159347500Y-86951200D01*
X159347500Y-86748800D01*
X159347500Y-86748799D01*
X159347500Y-86744695D01*
X159367185Y-86677656D01*
X159419989Y-86631901D01*
X159489147Y-86621957D01*
X159552703Y-86650982D01*
X159559181Y-86657014D01*
X172835281Y-99933114D01*
X172868766Y-99994437D01*
X172871600Y-100020795D01*
X172871600Y-107378347D01*
X172871600Y-107468853D01*
X172902169Y-107542653D01*
X172906236Y-107552470D01*
X181756181Y-116402414D01*
X181789666Y-116463737D01*
X181792500Y-116490095D01*
X181792500Y-120518500D01*
X181772815Y-120585539D01*
X181720011Y-120631294D01*
X181668500Y-120642500D01*
X181157441Y-120642500D01*
X181120250Y-120649898D01*
X181078077Y-120678077D01*
X181049898Y-120720250D01*
X181042500Y-120757441D01*
X181042500Y-122482558D01*
X181049898Y-122519749D01*
X181078077Y-122561922D01*
X181120250Y-122590101D01*
X181120252Y-122590102D01*
X181148205Y-122595662D01*
X181157441Y-122597500D01*
X181157442Y-122597500D01*
X182882559Y-122597500D01*
X182889957Y-122596028D01*
X182919748Y-122590102D01*
X182961922Y-122561922D01*
X182990102Y-122519748D01*
X182997500Y-122482558D01*
X182997500Y-120757442D01*
X182990481Y-120722155D01*
X185670000Y-120722155D01*
X185670000Y-121370000D01*
X186586988Y-121370000D01*
X186554075Y-121427007D01*
X186520000Y-121554174D01*
X186520000Y-121685826D01*
X186554075Y-121812993D01*
X186586988Y-121870000D01*
X185670000Y-121870000D01*
X185670000Y-122517844D01*
X185676401Y-122577372D01*
X185676403Y-122577379D01*
X185726645Y-122712086D01*
X185726649Y-122712093D01*
X185812809Y-122827187D01*
X185812812Y-122827190D01*
X185927906Y-122913350D01*
X185927913Y-122913354D01*
X186062620Y-122963596D01*
X186062627Y-122963598D01*
X186122155Y-122969999D01*
X186122172Y-122970000D01*
X186770000Y-122970000D01*
X186770000Y-122053012D01*
X186827007Y-122085925D01*
X186954174Y-122120000D01*
X187085826Y-122120000D01*
X187212993Y-122085925D01*
X187270000Y-122053012D01*
X187270000Y-122970000D01*
X187917828Y-122970000D01*
X187917844Y-122969999D01*
X187977372Y-122963598D01*
X187977379Y-122963596D01*
X188112086Y-122913354D01*
X188112093Y-122913350D01*
X188227187Y-122827190D01*
X188227190Y-122827187D01*
X188313350Y-122712093D01*
X188313354Y-122712086D01*
X188363596Y-122577379D01*
X188363598Y-122577372D01*
X188369999Y-122517844D01*
X188370000Y-122517827D01*
X188370000Y-121870000D01*
X187453012Y-121870000D01*
X187485925Y-121812993D01*
X187520000Y-121685826D01*
X187520000Y-121554174D01*
X187485925Y-121427007D01*
X187453012Y-121370000D01*
X188370000Y-121370000D01*
X188370000Y-120722172D01*
X188369999Y-120722155D01*
X188363598Y-120662627D01*
X188363596Y-120662620D01*
X188313354Y-120527913D01*
X188313350Y-120527906D01*
X188227190Y-120412812D01*
X188227187Y-120412809D01*
X188112093Y-120326649D01*
X188112086Y-120326645D01*
X187977379Y-120276403D01*
X187977372Y-120276401D01*
X187917844Y-120270000D01*
X187270000Y-120270000D01*
X187270000Y-121186988D01*
X187212993Y-121154075D01*
X187085826Y-121120000D01*
X186954174Y-121120000D01*
X186827007Y-121154075D01*
X186770000Y-121186988D01*
X186770000Y-120270000D01*
X186122155Y-120270000D01*
X186062627Y-120276401D01*
X186062620Y-120276403D01*
X185927913Y-120326645D01*
X185927906Y-120326649D01*
X185812812Y-120412809D01*
X185812809Y-120412812D01*
X185726649Y-120527906D01*
X185726645Y-120527913D01*
X185676403Y-120662620D01*
X185676401Y-120662627D01*
X185670000Y-120722155D01*
X182990481Y-120722155D01*
X182990102Y-120720252D01*
X182990101Y-120720250D01*
X182961922Y-120678077D01*
X182919749Y-120649898D01*
X182882559Y-120642500D01*
X182882558Y-120642500D01*
X182371500Y-120642500D01*
X182304461Y-120622815D01*
X182258706Y-120570011D01*
X182247500Y-120518500D01*
X182247500Y-116299248D01*
X182247498Y-116299243D01*
X182212868Y-116215634D01*
X173362919Y-107365685D01*
X173329434Y-107304362D01*
X173326600Y-107278004D01*
X173326600Y-105034172D01*
X175592500Y-105034172D01*
X175592500Y-106205825D01*
X175603191Y-106279204D01*
X175658525Y-106392392D01*
X175747607Y-106481474D01*
X175747608Y-106481474D01*
X175747610Y-106481476D01*
X175860796Y-106536809D01*
X175934173Y-106547500D01*
X177105826Y-106547499D01*
X177179204Y-106536809D01*
X177292390Y-106481476D01*
X177381476Y-106392390D01*
X177436809Y-106279204D01*
X177447500Y-106205827D01*
X177447499Y-105517682D01*
X177720000Y-105517682D01*
X177720000Y-105722317D01*
X177752009Y-105924417D01*
X177815244Y-106119031D01*
X177908141Y-106301350D01*
X177908147Y-106301359D01*
X177940523Y-106345921D01*
X177940524Y-106345922D01*
X178620000Y-105666446D01*
X178620000Y-105672661D01*
X178647259Y-105774394D01*
X178699920Y-105865606D01*
X178774394Y-105940080D01*
X178865606Y-105992741D01*
X178967339Y-106020000D01*
X178973553Y-106020000D01*
X178294076Y-106699474D01*
X178338650Y-106731859D01*
X178520968Y-106824755D01*
X178715582Y-106887990D01*
X178917683Y-106920000D01*
X179122317Y-106920000D01*
X179324417Y-106887990D01*
X179519031Y-106824755D01*
X179701349Y-106731859D01*
X179745921Y-106699474D01*
X179066447Y-106020000D01*
X179072661Y-106020000D01*
X179174394Y-105992741D01*
X179265606Y-105940080D01*
X179340080Y-105865606D01*
X179392741Y-105774394D01*
X179420000Y-105672661D01*
X179420000Y-105666447D01*
X180099474Y-106345921D01*
X180131859Y-106301349D01*
X180224755Y-106119031D01*
X180287990Y-105924417D01*
X180320000Y-105722317D01*
X180320000Y-105517682D01*
X180287990Y-105315582D01*
X180224755Y-105120968D01*
X180131859Y-104938650D01*
X180099474Y-104894077D01*
X180099474Y-104894076D01*
X179420000Y-105573551D01*
X179420000Y-105567339D01*
X179392741Y-105465606D01*
X179340080Y-105374394D01*
X179265606Y-105299920D01*
X179174394Y-105247259D01*
X179072661Y-105220000D01*
X179066446Y-105220000D01*
X179745922Y-104540524D01*
X179745921Y-104540523D01*
X179701359Y-104508147D01*
X179701350Y-104508141D01*
X179519031Y-104415244D01*
X179324417Y-104352009D01*
X179122317Y-104320000D01*
X178917683Y-104320000D01*
X178715582Y-104352009D01*
X178520968Y-104415244D01*
X178338644Y-104508143D01*
X178294077Y-104540523D01*
X178294077Y-104540524D01*
X178973554Y-105220000D01*
X178967339Y-105220000D01*
X178865606Y-105247259D01*
X178774394Y-105299920D01*
X178699920Y-105374394D01*
X178647259Y-105465606D01*
X178620000Y-105567339D01*
X178620000Y-105573553D01*
X177940524Y-104894077D01*
X177940523Y-104894077D01*
X177908143Y-104938644D01*
X177815244Y-105120968D01*
X177752009Y-105315582D01*
X177720000Y-105517682D01*
X177447499Y-105517682D01*
X177447499Y-105034174D01*
X177436809Y-104960796D01*
X177381476Y-104847610D01*
X177381474Y-104847608D01*
X177381474Y-104847607D01*
X177292392Y-104758525D01*
X177179202Y-104703190D01*
X177105827Y-104692500D01*
X175934174Y-104692500D01*
X175860795Y-104703191D01*
X175747607Y-104758525D01*
X175658525Y-104847607D01*
X175603190Y-104960797D01*
X175592500Y-105034172D01*
X173326600Y-105034172D01*
X173326600Y-103708644D01*
X184572500Y-103708644D01*
X184572500Y-103891355D01*
X184608141Y-104070534D01*
X184608143Y-104070542D01*
X184678058Y-104239333D01*
X184678063Y-104239342D01*
X184779563Y-104391246D01*
X184779566Y-104391250D01*
X184908749Y-104520433D01*
X184908753Y-104520436D01*
X185060657Y-104621936D01*
X185060663Y-104621939D01*
X185060664Y-104621940D01*
X185229458Y-104691857D01*
X185408644Y-104727499D01*
X185408648Y-104727500D01*
X185408649Y-104727500D01*
X185591352Y-104727500D01*
X185591353Y-104727499D01*
X185618586Y-104722082D01*
X185676326Y-104710598D01*
X185716166Y-104702672D01*
X185770542Y-104691857D01*
X185939336Y-104621940D01*
X186091247Y-104520436D01*
X186220436Y-104391247D01*
X186321940Y-104239336D01*
X186391857Y-104070542D01*
X186427500Y-103891351D01*
X186427500Y-103708649D01*
X186427500Y-103708646D01*
X186402329Y-103582103D01*
X186391857Y-103529458D01*
X186321940Y-103360664D01*
X186321939Y-103360663D01*
X186321936Y-103360657D01*
X186220436Y-103208753D01*
X186220433Y-103208749D01*
X186091250Y-103079566D01*
X186091246Y-103079563D01*
X185939342Y-102978063D01*
X185939333Y-102978058D01*
X185770542Y-102908143D01*
X185770534Y-102908141D01*
X185676316Y-102889400D01*
X185591355Y-102872500D01*
X185591351Y-102872500D01*
X185408649Y-102872500D01*
X185408644Y-102872500D01*
X185229465Y-102908141D01*
X185229457Y-102908143D01*
X185060666Y-102978058D01*
X185060657Y-102978063D01*
X184908753Y-103079563D01*
X184908749Y-103079566D01*
X184779566Y-103208749D01*
X184779563Y-103208753D01*
X184678063Y-103360657D01*
X184678058Y-103360666D01*
X184608143Y-103529457D01*
X184608141Y-103529465D01*
X184572500Y-103708644D01*
X173326600Y-103708644D01*
X173326600Y-99829947D01*
X173325966Y-99828416D01*
X173291966Y-99746332D01*
X167905451Y-94359817D01*
X182320000Y-94359817D01*
X182320000Y-94580180D01*
X182354473Y-94797834D01*
X182422567Y-95007409D01*
X182522611Y-95203755D01*
X182568932Y-95267512D01*
X183237037Y-94599407D01*
X183254075Y-94662992D01*
X183319901Y-94777006D01*
X183412993Y-94870098D01*
X183527007Y-94935924D01*
X183590590Y-94952961D01*
X182922485Y-95621064D01*
X182922485Y-95621065D01*
X182948105Y-95639679D01*
X182990772Y-95695009D01*
X182996751Y-95764622D01*
X182964146Y-95826417D01*
X182948106Y-95840316D01*
X182922485Y-95858930D01*
X182922485Y-95858932D01*
X183590590Y-96527037D01*
X183527007Y-96544075D01*
X183412993Y-96609901D01*
X183319901Y-96702993D01*
X183254075Y-96817007D01*
X183237037Y-96880590D01*
X182568932Y-96212485D01*
X182568931Y-96212485D01*
X182522616Y-96276233D01*
X182422567Y-96472589D01*
X182354473Y-96682164D01*
X182320000Y-96899818D01*
X182320000Y-97120181D01*
X182354473Y-97337835D01*
X182422567Y-97547410D01*
X182522611Y-97743756D01*
X182568932Y-97807513D01*
X183237037Y-97139408D01*
X183254075Y-97202993D01*
X183319901Y-97317007D01*
X183412993Y-97410099D01*
X183527007Y-97475925D01*
X183590590Y-97492962D01*
X182922485Y-98161065D01*
X182922485Y-98161066D01*
X182986243Y-98207388D01*
X183182589Y-98307432D01*
X183392164Y-98375526D01*
X183609819Y-98410000D01*
X183830181Y-98410000D01*
X184047835Y-98375526D01*
X184257410Y-98307432D01*
X184453760Y-98207386D01*
X184517513Y-98161066D01*
X184517514Y-98161066D01*
X183849409Y-97492962D01*
X183912993Y-97475925D01*
X184027007Y-97410099D01*
X184120099Y-97317007D01*
X184185925Y-97202993D01*
X184202962Y-97139409D01*
X184871066Y-97807514D01*
X184871066Y-97807513D01*
X184917386Y-97743760D01*
X185017432Y-97547410D01*
X185085526Y-97337835D01*
X185120000Y-97120181D01*
X185120000Y-96899818D01*
X185085526Y-96682164D01*
X185017432Y-96472589D01*
X184917388Y-96276243D01*
X184871066Y-96212485D01*
X184871065Y-96212485D01*
X184202962Y-96880589D01*
X184185925Y-96817007D01*
X184120099Y-96702993D01*
X184027007Y-96609901D01*
X183912993Y-96544075D01*
X183849407Y-96527037D01*
X184517513Y-95858932D01*
X184491892Y-95840318D01*
X184449226Y-95784988D01*
X184443247Y-95715375D01*
X184475852Y-95653579D01*
X184491892Y-95639680D01*
X184517513Y-95621064D01*
X183849409Y-94952961D01*
X183912993Y-94935924D01*
X184027007Y-94870098D01*
X184120099Y-94777006D01*
X184185925Y-94662992D01*
X184202962Y-94599408D01*
X184871066Y-95267513D01*
X184871066Y-95267512D01*
X184917386Y-95203759D01*
X185017432Y-95007409D01*
X185085526Y-94797834D01*
X185120000Y-94580180D01*
X185120000Y-94359817D01*
X185085526Y-94142163D01*
X185017432Y-93932588D01*
X184917388Y-93736242D01*
X184871066Y-93672484D01*
X184871065Y-93672484D01*
X184202962Y-94340588D01*
X184185925Y-94277006D01*
X184120099Y-94162992D01*
X184027007Y-94069900D01*
X183912993Y-94004074D01*
X183849407Y-93987036D01*
X184517513Y-93318931D01*
X184453756Y-93272610D01*
X184257410Y-93172566D01*
X184099473Y-93121250D01*
X184041798Y-93081813D01*
X184014599Y-93017454D01*
X184026513Y-92948608D01*
X184073757Y-92897132D01*
X184090339Y-92888758D01*
X184206697Y-92840561D01*
X184206697Y-92840560D01*
X184206704Y-92840558D01*
X184374993Y-92728111D01*
X184518112Y-92584992D01*
X184630559Y-92416703D01*
X184708014Y-92229710D01*
X184747500Y-92031199D01*
X184747500Y-91828799D01*
X184708014Y-91630288D01*
X184630559Y-91443295D01*
X184630558Y-91443294D01*
X184630555Y-91443288D01*
X184518112Y-91275006D01*
X184518109Y-91275002D01*
X184374996Y-91131889D01*
X184374992Y-91131886D01*
X184206710Y-91019443D01*
X184206701Y-91019438D01*
X184019711Y-90941985D01*
X184019703Y-90941983D01*
X183821204Y-90902499D01*
X183821200Y-90902499D01*
X183618800Y-90902499D01*
X183618795Y-90902499D01*
X183420296Y-90941983D01*
X183420288Y-90941985D01*
X183233298Y-91019438D01*
X183233289Y-91019443D01*
X183065007Y-91131886D01*
X183065003Y-91131889D01*
X182921890Y-91275002D01*
X182921887Y-91275006D01*
X182809444Y-91443288D01*
X182809439Y-91443297D01*
X182731986Y-91630287D01*
X182731984Y-91630295D01*
X182692500Y-91828794D01*
X182692500Y-92031203D01*
X182731984Y-92229702D01*
X182731986Y-92229710D01*
X182809439Y-92416700D01*
X182809444Y-92416709D01*
X182921887Y-92584991D01*
X182921890Y-92584995D01*
X183065003Y-92728108D01*
X183065007Y-92728111D01*
X183233289Y-92840554D01*
X183233298Y-92840559D01*
X183349661Y-92888758D01*
X183404064Y-92932599D01*
X183426129Y-92998893D01*
X183408850Y-93066592D01*
X183357713Y-93114203D01*
X183340526Y-93121250D01*
X183182589Y-93172566D01*
X182986233Y-93272615D01*
X182922485Y-93318930D01*
X182922485Y-93318931D01*
X183590590Y-93987036D01*
X183527007Y-94004074D01*
X183412993Y-94069900D01*
X183319901Y-94162992D01*
X183254075Y-94277006D01*
X183237037Y-94340589D01*
X182568932Y-93672484D01*
X182568931Y-93672484D01*
X182522616Y-93736232D01*
X182422567Y-93932588D01*
X182354473Y-94142163D01*
X182320000Y-94359817D01*
X167905451Y-94359817D01*
X166130625Y-92584991D01*
X162834428Y-89288794D01*
X182692500Y-89288794D01*
X182692500Y-89491203D01*
X182731984Y-89689702D01*
X182731986Y-89689710D01*
X182809439Y-89876700D01*
X182809444Y-89876709D01*
X182921887Y-90044991D01*
X182921890Y-90044995D01*
X183065003Y-90188108D01*
X183065007Y-90188111D01*
X183233289Y-90300554D01*
X183233295Y-90300557D01*
X183233296Y-90300558D01*
X183420289Y-90378013D01*
X183618795Y-90417498D01*
X183618799Y-90417499D01*
X183618800Y-90417499D01*
X183821201Y-90417499D01*
X183821202Y-90417498D01*
X184019711Y-90378013D01*
X184206704Y-90300558D01*
X184374993Y-90188111D01*
X184518112Y-90044992D01*
X184630559Y-89876703D01*
X184708014Y-89689710D01*
X184747500Y-89491199D01*
X184747500Y-89288799D01*
X184708014Y-89090288D01*
X184630559Y-88903295D01*
X184630558Y-88903294D01*
X184630555Y-88903288D01*
X184518112Y-88735006D01*
X184518109Y-88735002D01*
X184374996Y-88591889D01*
X184374992Y-88591886D01*
X184206710Y-88479443D01*
X184206701Y-88479438D01*
X184019711Y-88401985D01*
X184019703Y-88401983D01*
X183821204Y-88362499D01*
X183821200Y-88362499D01*
X183618800Y-88362499D01*
X183618795Y-88362499D01*
X183420296Y-88401983D01*
X183420288Y-88401985D01*
X183233298Y-88479438D01*
X183233289Y-88479443D01*
X183065007Y-88591886D01*
X183065003Y-88591889D01*
X182921890Y-88735002D01*
X182921887Y-88735006D01*
X182809444Y-88903288D01*
X182809439Y-88903297D01*
X182731986Y-89090287D01*
X182731984Y-89090295D01*
X182692500Y-89288794D01*
X162834428Y-89288794D01*
X160294429Y-86748795D01*
X182692500Y-86748795D01*
X182692500Y-86951204D01*
X182731984Y-87149703D01*
X182731986Y-87149711D01*
X182809439Y-87336701D01*
X182809444Y-87336710D01*
X182921887Y-87504992D01*
X182921890Y-87504996D01*
X183065003Y-87648109D01*
X183065007Y-87648112D01*
X183233289Y-87760555D01*
X183233295Y-87760558D01*
X183233296Y-87760559D01*
X183420289Y-87838014D01*
X183618795Y-87877499D01*
X183618799Y-87877500D01*
X183618800Y-87877500D01*
X183821201Y-87877500D01*
X183821202Y-87877499D01*
X184019711Y-87838014D01*
X184206704Y-87760559D01*
X184374993Y-87648112D01*
X184518112Y-87504993D01*
X184630559Y-87336704D01*
X184708014Y-87149711D01*
X184747500Y-86951200D01*
X184747500Y-86748800D01*
X184708014Y-86550289D01*
X184630559Y-86363296D01*
X184630558Y-86363295D01*
X184630555Y-86363289D01*
X184518112Y-86195007D01*
X184518109Y-86195003D01*
X184374996Y-86051890D01*
X184374992Y-86051887D01*
X184206710Y-85939444D01*
X184206701Y-85939439D01*
X184019711Y-85861986D01*
X184019703Y-85861984D01*
X183821204Y-85822500D01*
X183821200Y-85822500D01*
X183618800Y-85822500D01*
X183618795Y-85822500D01*
X183420296Y-85861984D01*
X183420288Y-85861986D01*
X183233298Y-85939439D01*
X183233289Y-85939444D01*
X183065007Y-86051887D01*
X183065003Y-86051890D01*
X182921890Y-86195003D01*
X182921887Y-86195007D01*
X182809444Y-86363289D01*
X182809439Y-86363298D01*
X182731986Y-86550288D01*
X182731984Y-86550296D01*
X182692500Y-86748795D01*
X160294429Y-86748795D01*
X158932770Y-85387136D01*
X158932768Y-85387135D01*
X158915375Y-85379930D01*
X158860974Y-85336090D01*
X158838910Y-85269796D01*
X158856190Y-85202097D01*
X158893940Y-85162269D01*
X158974993Y-85108111D01*
X159118109Y-84964995D01*
X159118112Y-84964992D01*
X159230559Y-84796703D01*
X159308014Y-84609710D01*
X159347500Y-84411199D01*
X159347500Y-84208799D01*
X159347499Y-84208794D01*
X182692500Y-84208794D01*
X182692500Y-84411203D01*
X182731984Y-84609702D01*
X182731986Y-84609710D01*
X182809439Y-84796700D01*
X182809444Y-84796709D01*
X182921887Y-84964991D01*
X182921890Y-84964995D01*
X183065003Y-85108108D01*
X183065007Y-85108111D01*
X183233289Y-85220554D01*
X183233295Y-85220557D01*
X183233296Y-85220558D01*
X183420289Y-85298013D01*
X183618795Y-85337498D01*
X183618799Y-85337499D01*
X183618800Y-85337499D01*
X183821201Y-85337499D01*
X183821202Y-85337498D01*
X184019711Y-85298013D01*
X184206704Y-85220558D01*
X184374993Y-85108111D01*
X184518112Y-84964992D01*
X184630559Y-84796703D01*
X184708014Y-84609710D01*
X184747500Y-84411199D01*
X184747500Y-84208799D01*
X184708014Y-84010288D01*
X184630559Y-83823295D01*
X184630558Y-83823294D01*
X184630555Y-83823288D01*
X184518112Y-83655006D01*
X184518109Y-83655002D01*
X184374996Y-83511889D01*
X184374992Y-83511886D01*
X184206710Y-83399443D01*
X184206701Y-83399438D01*
X184019711Y-83321985D01*
X184019703Y-83321983D01*
X183821204Y-83282499D01*
X183821200Y-83282499D01*
X183618800Y-83282499D01*
X183618795Y-83282499D01*
X183420296Y-83321983D01*
X183420288Y-83321985D01*
X183233298Y-83399438D01*
X183233289Y-83399443D01*
X183065007Y-83511886D01*
X183065003Y-83511889D01*
X182921890Y-83655002D01*
X182921887Y-83655006D01*
X182809444Y-83823288D01*
X182809439Y-83823297D01*
X182731986Y-84010287D01*
X182731984Y-84010295D01*
X182692500Y-84208794D01*
X159347499Y-84208794D01*
X159308014Y-84010288D01*
X159230559Y-83823295D01*
X159230558Y-83823294D01*
X159230555Y-83823288D01*
X159118112Y-83655006D01*
X159118109Y-83655002D01*
X158974996Y-83511889D01*
X158974992Y-83511886D01*
X158806710Y-83399443D01*
X158806701Y-83399438D01*
X158619711Y-83321985D01*
X158619703Y-83321983D01*
X158421204Y-83282499D01*
X158421200Y-83282499D01*
X158218800Y-83282499D01*
X158218795Y-83282499D01*
X158020296Y-83321983D01*
X158020288Y-83321985D01*
X157833298Y-83399438D01*
X157833289Y-83399443D01*
X157665007Y-83511886D01*
X157665003Y-83511889D01*
X157521890Y-83655002D01*
X157521887Y-83655006D01*
X157409444Y-83823288D01*
X157409439Y-83823297D01*
X157331986Y-84010287D01*
X157331984Y-84010295D01*
X157292500Y-84208794D01*
X157292500Y-84411203D01*
X157331984Y-84609702D01*
X157331986Y-84609710D01*
X157409439Y-84796700D01*
X157409444Y-84796709D01*
X157521887Y-84964991D01*
X157521890Y-84964995D01*
X157665003Y-85108108D01*
X157665007Y-85108111D01*
X157690878Y-85125398D01*
X157735683Y-85179011D01*
X157744390Y-85248336D01*
X157714235Y-85311363D01*
X157654792Y-85348082D01*
X157621987Y-85352500D01*
X152025595Y-85352500D01*
X151958556Y-85332815D01*
X151937914Y-85316181D01*
X151740570Y-85118836D01*
X151656953Y-85084200D01*
X151488268Y-85084200D01*
X151421229Y-85064515D01*
X151375474Y-85011711D01*
X151365530Y-84942553D01*
X151394555Y-84878997D01*
X151400587Y-84872519D01*
X151508109Y-84764996D01*
X151508112Y-84764993D01*
X151620559Y-84596704D01*
X151698014Y-84409711D01*
X151737500Y-84211200D01*
X151737500Y-84008800D01*
X151698014Y-83810289D01*
X151620559Y-83623296D01*
X151620558Y-83623295D01*
X151620555Y-83623289D01*
X151508112Y-83455007D01*
X151508109Y-83455003D01*
X151364996Y-83311890D01*
X151364992Y-83311887D01*
X151196710Y-83199444D01*
X151196700Y-83199439D01*
X151080338Y-83151240D01*
X151025935Y-83107399D01*
X151003870Y-83041104D01*
X151021149Y-82973405D01*
X151072287Y-82925795D01*
X151089474Y-82918748D01*
X151247408Y-82867433D01*
X151443760Y-82767386D01*
X151622041Y-82637857D01*
X151777857Y-82482041D01*
X151907386Y-82303760D01*
X152007432Y-82107410D01*
X152075526Y-81897838D01*
X152075526Y-81897835D01*
X152087855Y-81820000D01*
X150843012Y-81820000D01*
X150875925Y-81762993D01*
X150910000Y-81635826D01*
X150910000Y-81504174D01*
X150875925Y-81377007D01*
X150843012Y-81320000D01*
X152087855Y-81320000D01*
X152075526Y-81242164D01*
X152075526Y-81242161D01*
X152007432Y-81032589D01*
X151907386Y-80836239D01*
X151777857Y-80657958D01*
X151622041Y-80502142D01*
X151443760Y-80372613D01*
X151247410Y-80272567D01*
X151089473Y-80221251D01*
X151031798Y-80181814D01*
X151004599Y-80117455D01*
X151016513Y-80048609D01*
X151063757Y-79997133D01*
X151080339Y-79988759D01*
X151196697Y-79940562D01*
X151196697Y-79940561D01*
X151196704Y-79940559D01*
X151364993Y-79828112D01*
X151508112Y-79684993D01*
X151620559Y-79516704D01*
X151698014Y-79329711D01*
X151737500Y-79131200D01*
X151737500Y-79119817D01*
X156920000Y-79119817D01*
X156920000Y-79340180D01*
X156954473Y-79557834D01*
X157022567Y-79767409D01*
X157122611Y-79963755D01*
X157168932Y-80027512D01*
X157837037Y-79359407D01*
X157854075Y-79422992D01*
X157919901Y-79537006D01*
X158012993Y-79630098D01*
X158127007Y-79695924D01*
X158190590Y-79712961D01*
X157522485Y-80381064D01*
X157522485Y-80381065D01*
X157586243Y-80427387D01*
X157782589Y-80527431D01*
X157940527Y-80578748D01*
X157998202Y-80618185D01*
X158025401Y-80682544D01*
X158013487Y-80751390D01*
X157966243Y-80802866D01*
X157949662Y-80811240D01*
X157833299Y-80859439D01*
X157833289Y-80859444D01*
X157665007Y-80971887D01*
X157665003Y-80971890D01*
X157521890Y-81115003D01*
X157521887Y-81115007D01*
X157409444Y-81283289D01*
X157409439Y-81283298D01*
X157331986Y-81470288D01*
X157331984Y-81470296D01*
X157292500Y-81668795D01*
X157292500Y-81871204D01*
X157331984Y-82069703D01*
X157331986Y-82069711D01*
X157409439Y-82256701D01*
X157409444Y-82256710D01*
X157521887Y-82424992D01*
X157521890Y-82424996D01*
X157665003Y-82568109D01*
X157665007Y-82568112D01*
X157833289Y-82680555D01*
X157833295Y-82680558D01*
X157833296Y-82680559D01*
X158020289Y-82758014D01*
X158218795Y-82797499D01*
X158218799Y-82797500D01*
X158218800Y-82797500D01*
X158421201Y-82797500D01*
X158421202Y-82797499D01*
X158619711Y-82758014D01*
X158806704Y-82680559D01*
X158974993Y-82568112D01*
X159118112Y-82424993D01*
X159230559Y-82256704D01*
X159308014Y-82069711D01*
X159347500Y-81871200D01*
X159347500Y-81668800D01*
X159347499Y-81668795D01*
X182692500Y-81668795D01*
X182692500Y-81871204D01*
X182731984Y-82069703D01*
X182731986Y-82069711D01*
X182809439Y-82256701D01*
X182809444Y-82256710D01*
X182921887Y-82424992D01*
X182921890Y-82424996D01*
X183065003Y-82568109D01*
X183065007Y-82568112D01*
X183233289Y-82680555D01*
X183233295Y-82680558D01*
X183233296Y-82680559D01*
X183420289Y-82758014D01*
X183618795Y-82797499D01*
X183618799Y-82797500D01*
X183618800Y-82797500D01*
X183821201Y-82797500D01*
X183821202Y-82797499D01*
X184019711Y-82758014D01*
X184206704Y-82680559D01*
X184374993Y-82568112D01*
X184518112Y-82424993D01*
X184630559Y-82256704D01*
X184708014Y-82069711D01*
X184747500Y-81871200D01*
X184747500Y-81668800D01*
X184708014Y-81470289D01*
X184630559Y-81283296D01*
X184630558Y-81283295D01*
X184630555Y-81283289D01*
X184518112Y-81115007D01*
X184518109Y-81115003D01*
X184374996Y-80971890D01*
X184374992Y-80971887D01*
X184206710Y-80859444D01*
X184206701Y-80859439D01*
X184019711Y-80781986D01*
X184019703Y-80781984D01*
X183821204Y-80742500D01*
X183821200Y-80742500D01*
X183618800Y-80742500D01*
X183618795Y-80742500D01*
X183420296Y-80781984D01*
X183420288Y-80781986D01*
X183233298Y-80859439D01*
X183233289Y-80859444D01*
X183065007Y-80971887D01*
X183065003Y-80971890D01*
X182921890Y-81115003D01*
X182921887Y-81115007D01*
X182809444Y-81283289D01*
X182809439Y-81283298D01*
X182731986Y-81470288D01*
X182731984Y-81470296D01*
X182692500Y-81668795D01*
X159347499Y-81668795D01*
X159308014Y-81470289D01*
X159230559Y-81283296D01*
X159230558Y-81283295D01*
X159230555Y-81283289D01*
X159118112Y-81115007D01*
X159118109Y-81115003D01*
X158974996Y-80971890D01*
X158974992Y-80971887D01*
X158806710Y-80859444D01*
X158806701Y-80859439D01*
X158690337Y-80811240D01*
X158635934Y-80767399D01*
X158613869Y-80701105D01*
X158631148Y-80633406D01*
X158682285Y-80585795D01*
X158699472Y-80578748D01*
X158857410Y-80527431D01*
X159053760Y-80427385D01*
X159117513Y-80381065D01*
X159117514Y-80381065D01*
X158449409Y-79712961D01*
X158512993Y-79695924D01*
X158627007Y-79630098D01*
X158720099Y-79537006D01*
X158785925Y-79422992D01*
X158802962Y-79359409D01*
X159471066Y-80027513D01*
X159471066Y-80027512D01*
X159517386Y-79963759D01*
X159617432Y-79767409D01*
X159685526Y-79557834D01*
X159720000Y-79340180D01*
X159720000Y-79128794D01*
X182692500Y-79128794D01*
X182692500Y-79331203D01*
X182731984Y-79529702D01*
X182731986Y-79529710D01*
X182809439Y-79716700D01*
X182809444Y-79716709D01*
X182921887Y-79884991D01*
X182921890Y-79884995D01*
X183065003Y-80028108D01*
X183065007Y-80028111D01*
X183233289Y-80140554D01*
X183233295Y-80140557D01*
X183233296Y-80140558D01*
X183420289Y-80218013D01*
X183618795Y-80257498D01*
X183618799Y-80257499D01*
X183618800Y-80257499D01*
X183821201Y-80257499D01*
X183821202Y-80257498D01*
X184019711Y-80218013D01*
X184206704Y-80140558D01*
X184374993Y-80028111D01*
X184518112Y-79884992D01*
X184630559Y-79716703D01*
X184708014Y-79529710D01*
X184747500Y-79331199D01*
X184747500Y-79128799D01*
X184708014Y-78930288D01*
X184630559Y-78743295D01*
X184630558Y-78743294D01*
X184630555Y-78743288D01*
X184518112Y-78575006D01*
X184518109Y-78575002D01*
X184374996Y-78431889D01*
X184374992Y-78431886D01*
X184206710Y-78319443D01*
X184206701Y-78319438D01*
X184019711Y-78241985D01*
X184019703Y-78241983D01*
X183821204Y-78202499D01*
X183821200Y-78202499D01*
X183618800Y-78202499D01*
X183618795Y-78202499D01*
X183420296Y-78241983D01*
X183420288Y-78241985D01*
X183233298Y-78319438D01*
X183233289Y-78319443D01*
X183065007Y-78431886D01*
X183065003Y-78431889D01*
X182921890Y-78575002D01*
X182921887Y-78575006D01*
X182809444Y-78743288D01*
X182809439Y-78743297D01*
X182731986Y-78930287D01*
X182731984Y-78930295D01*
X182692500Y-79128794D01*
X159720000Y-79128794D01*
X159720000Y-79119817D01*
X159685526Y-78902163D01*
X159617432Y-78692588D01*
X159517388Y-78496242D01*
X159471066Y-78432484D01*
X159471065Y-78432484D01*
X158802962Y-79100588D01*
X158785925Y-79037006D01*
X158720099Y-78922992D01*
X158627007Y-78829900D01*
X158512993Y-78764074D01*
X158449407Y-78747036D01*
X159117513Y-78078931D01*
X159053756Y-78032610D01*
X158857410Y-77932566D01*
X158647835Y-77864472D01*
X158430181Y-77829999D01*
X158209819Y-77829999D01*
X157992164Y-77864472D01*
X157782589Y-77932566D01*
X157586233Y-78032615D01*
X157522485Y-78078930D01*
X157522485Y-78078931D01*
X158190590Y-78747036D01*
X158127007Y-78764074D01*
X158012993Y-78829900D01*
X157919901Y-78922992D01*
X157854075Y-79037006D01*
X157837037Y-79100589D01*
X157168932Y-78432484D01*
X157168931Y-78432484D01*
X157122616Y-78496232D01*
X157022567Y-78692588D01*
X156954473Y-78902163D01*
X156920000Y-79119817D01*
X151737500Y-79119817D01*
X151737500Y-78928800D01*
X151698014Y-78730289D01*
X151620559Y-78543296D01*
X151620558Y-78543295D01*
X151620555Y-78543289D01*
X151508112Y-78375007D01*
X151508109Y-78375003D01*
X151364996Y-78231890D01*
X151364991Y-78231886D01*
X151361110Y-78229293D01*
X151361108Y-78229292D01*
X151196710Y-78119444D01*
X151196701Y-78119439D01*
X151009711Y-78041986D01*
X151009703Y-78041984D01*
X150811204Y-78002500D01*
X150811200Y-78002500D01*
X150008800Y-78002500D01*
X150008795Y-78002500D01*
X149810296Y-78041984D01*
X149810288Y-78041986D01*
X149623298Y-78119439D01*
X149623289Y-78119444D01*
X149455007Y-78231887D01*
X149455003Y-78231890D01*
X149311890Y-78375003D01*
X149311887Y-78375007D01*
X149199444Y-78543289D01*
X149199439Y-78543298D01*
X149121986Y-78730288D01*
X149121984Y-78730296D01*
X149082500Y-78928795D01*
X149082500Y-79131204D01*
X149121984Y-79329703D01*
X149121986Y-79329711D01*
X149199439Y-79516701D01*
X149199444Y-79516710D01*
X149311887Y-79684992D01*
X149311890Y-79684996D01*
X149455003Y-79828109D01*
X149455007Y-79828112D01*
X149623289Y-79940555D01*
X149623298Y-79940560D01*
X149739661Y-79988759D01*
X149794064Y-80032600D01*
X149816129Y-80098894D01*
X149798850Y-80166593D01*
X149747713Y-80214204D01*
X149730526Y-80221251D01*
X149572589Y-80272567D01*
X149376239Y-80372613D01*
X149197958Y-80502142D01*
X149042142Y-80657958D01*
X148912613Y-80836239D01*
X148812567Y-81032589D01*
X148744473Y-81242161D01*
X148744473Y-81242164D01*
X148732145Y-81320000D01*
X149976988Y-81320000D01*
X149944075Y-81377007D01*
X149910000Y-81504174D01*
X149910000Y-81635826D01*
X149944075Y-81762993D01*
X149976988Y-81820000D01*
X148732145Y-81820000D01*
X148744473Y-81897835D01*
X148744473Y-81897838D01*
X148812567Y-82107410D01*
X148912613Y-82303760D01*
X149042142Y-82482041D01*
X149197958Y-82637857D01*
X149376239Y-82767386D01*
X149572592Y-82867433D01*
X149572590Y-82867433D01*
X149730525Y-82918748D01*
X149788201Y-82958185D01*
X149815400Y-83022543D01*
X149803486Y-83091390D01*
X149756242Y-83142866D01*
X149739661Y-83151240D01*
X149623299Y-83199439D01*
X149623289Y-83199444D01*
X149455007Y-83311887D01*
X149455003Y-83311890D01*
X149311890Y-83455003D01*
X149311887Y-83455007D01*
X149199444Y-83623289D01*
X149199439Y-83623298D01*
X149121986Y-83810288D01*
X149121984Y-83810296D01*
X149082500Y-84008795D01*
X149082500Y-84211204D01*
X149121984Y-84409703D01*
X149121986Y-84409711D01*
X149199439Y-84596701D01*
X149199444Y-84596710D01*
X149311887Y-84764992D01*
X149311890Y-84764996D01*
X149455003Y-84908109D01*
X149455007Y-84908112D01*
X149623289Y-85020555D01*
X149623295Y-85020558D01*
X149623296Y-85020559D01*
X149810289Y-85098014D01*
X149947959Y-85125398D01*
X150008795Y-85137499D01*
X150008799Y-85137500D01*
X150008800Y-85137500D01*
X150058500Y-85137500D01*
X150125539Y-85157185D01*
X150171294Y-85209989D01*
X150182500Y-85261500D01*
X150182500Y-85266447D01*
X150182500Y-85356953D01*
X150217135Y-85440568D01*
X150217136Y-85440569D01*
X150221476Y-85451046D01*
X150228945Y-85520515D01*
X150197671Y-85582995D01*
X150137582Y-85618648D01*
X150106915Y-85622500D01*
X150008795Y-85622500D01*
X149810296Y-85661984D01*
X149810288Y-85661986D01*
X149623298Y-85739439D01*
X149623289Y-85739444D01*
X149455007Y-85851887D01*
X149455003Y-85851890D01*
X149311890Y-85995003D01*
X149311887Y-85995007D01*
X149199444Y-86163289D01*
X149199439Y-86163298D01*
X149121986Y-86350288D01*
X149121984Y-86350296D01*
X149082500Y-86548795D01*
X149082500Y-86751204D01*
X149121984Y-86949703D01*
X149121986Y-86949711D01*
X149199439Y-87136701D01*
X149199444Y-87136710D01*
X149311887Y-87304992D01*
X149311890Y-87304996D01*
X149455003Y-87448109D01*
X149455007Y-87448112D01*
X149623289Y-87560555D01*
X149623295Y-87560558D01*
X149623296Y-87560559D01*
X149810289Y-87638014D01*
X150008795Y-87677499D01*
X150008799Y-87677500D01*
X150008800Y-87677500D01*
X150058500Y-87677500D01*
X150125539Y-87697185D01*
X150171294Y-87749989D01*
X150182500Y-87801500D01*
X150182500Y-87806447D01*
X150182500Y-87896953D01*
X150217135Y-87980568D01*
X150217136Y-87980569D01*
X150221476Y-87991046D01*
X150228945Y-88060515D01*
X150197671Y-88122995D01*
X150137582Y-88158648D01*
X150106915Y-88162500D01*
X150008795Y-88162500D01*
X149810296Y-88201984D01*
X149810288Y-88201986D01*
X149623298Y-88279439D01*
X149623289Y-88279444D01*
X149455007Y-88391887D01*
X149455003Y-88391890D01*
X149311890Y-88535003D01*
X149311887Y-88535007D01*
X149199444Y-88703289D01*
X149199439Y-88703298D01*
X149121986Y-88890288D01*
X149121984Y-88890296D01*
X149082500Y-89088795D01*
X149082500Y-89291204D01*
X149121984Y-89489703D01*
X149121986Y-89489711D01*
X149199439Y-89676701D01*
X149199444Y-89676710D01*
X149311887Y-89844992D01*
X149311890Y-89844996D01*
X149455003Y-89988109D01*
X149455007Y-89988112D01*
X149623289Y-90100555D01*
X149623295Y-90100558D01*
X149623296Y-90100559D01*
X149810289Y-90178014D01*
X150008795Y-90217499D01*
X150008799Y-90217500D01*
X150008800Y-90217500D01*
X150811201Y-90217500D01*
X150811202Y-90217499D01*
X151009711Y-90178014D01*
X151196704Y-90100559D01*
X151364993Y-89988112D01*
X151508112Y-89844993D01*
X151620559Y-89676704D01*
X151698014Y-89489711D01*
X151737500Y-89291200D01*
X151737500Y-89102095D01*
X151757185Y-89035056D01*
X151809989Y-88989301D01*
X151879147Y-88979357D01*
X151942703Y-89008382D01*
X151949181Y-89014414D01*
X152620481Y-89685714D01*
X152653966Y-89747037D01*
X152656800Y-89773395D01*
X152656800Y-107351805D01*
X152637115Y-107418844D01*
X152620481Y-107439486D01*
X152083686Y-107976281D01*
X152022363Y-108009766D01*
X151996005Y-108012600D01*
X151926365Y-108012600D01*
X151859326Y-107992915D01*
X151813571Y-107940111D01*
X151803627Y-107870953D01*
X151826047Y-107815714D01*
X151907386Y-107703760D01*
X152007432Y-107507410D01*
X152075526Y-107297838D01*
X152075526Y-107297835D01*
X152087855Y-107220000D01*
X150843012Y-107220000D01*
X150875925Y-107162993D01*
X150910000Y-107035826D01*
X150910000Y-106904174D01*
X150875925Y-106777007D01*
X150843012Y-106720000D01*
X152087855Y-106720000D01*
X152075526Y-106642164D01*
X152075526Y-106642161D01*
X152007432Y-106432589D01*
X151907386Y-106236239D01*
X151777857Y-106057958D01*
X151622041Y-105902142D01*
X151443760Y-105772613D01*
X151247410Y-105672567D01*
X151089473Y-105621251D01*
X151031798Y-105581814D01*
X151004599Y-105517455D01*
X151016513Y-105448609D01*
X151063757Y-105397133D01*
X151080339Y-105388759D01*
X151196697Y-105340562D01*
X151196697Y-105340561D01*
X151196704Y-105340559D01*
X151364993Y-105228112D01*
X151508112Y-105084993D01*
X151620559Y-104916704D01*
X151698014Y-104729711D01*
X151737500Y-104531200D01*
X151737500Y-104328800D01*
X151698014Y-104130289D01*
X151620559Y-103943296D01*
X151620558Y-103943295D01*
X151620555Y-103943289D01*
X151508112Y-103775007D01*
X151508109Y-103775003D01*
X151364996Y-103631890D01*
X151364992Y-103631887D01*
X151196710Y-103519444D01*
X151196701Y-103519439D01*
X151009711Y-103441986D01*
X151009703Y-103441984D01*
X150811204Y-103402500D01*
X150811200Y-103402500D01*
X150008800Y-103402500D01*
X150008795Y-103402500D01*
X149810296Y-103441984D01*
X149810288Y-103441986D01*
X149623298Y-103519439D01*
X149623289Y-103519444D01*
X149455007Y-103631887D01*
X149455003Y-103631890D01*
X149311890Y-103775003D01*
X149311887Y-103775007D01*
X149199444Y-103943289D01*
X149199439Y-103943298D01*
X149121986Y-104130288D01*
X149121984Y-104130296D01*
X149082500Y-104328795D01*
X149082500Y-104531204D01*
X149121984Y-104729703D01*
X149121986Y-104729711D01*
X149199439Y-104916701D01*
X149199444Y-104916710D01*
X149311887Y-105084992D01*
X149311890Y-105084996D01*
X149455003Y-105228109D01*
X149455007Y-105228112D01*
X149623289Y-105340555D01*
X149623298Y-105340560D01*
X149739661Y-105388759D01*
X149794064Y-105432600D01*
X149816129Y-105498894D01*
X149798850Y-105566593D01*
X149747713Y-105614204D01*
X149730526Y-105621251D01*
X149572589Y-105672567D01*
X149376239Y-105772613D01*
X149197958Y-105902142D01*
X149042142Y-106057958D01*
X148912613Y-106236239D01*
X148812567Y-106432589D01*
X148744473Y-106642161D01*
X148744473Y-106642164D01*
X148732145Y-106720000D01*
X149976988Y-106720000D01*
X149944075Y-106777007D01*
X149910000Y-106904174D01*
X149910000Y-107035826D01*
X149944075Y-107162993D01*
X149976988Y-107220000D01*
X148732145Y-107220000D01*
X148744473Y-107297835D01*
X148744473Y-107297838D01*
X148812567Y-107507410D01*
X148912613Y-107703760D01*
X149042142Y-107882041D01*
X149197958Y-108037857D01*
X149197964Y-108037862D01*
X149260194Y-108083075D01*
X149302860Y-108138405D01*
X149308839Y-108208018D01*
X149276233Y-108269813D01*
X149274990Y-108271074D01*
X148335779Y-109210288D01*
X148326732Y-109219335D01*
X148262735Y-109283332D01*
X148228100Y-109366947D01*
X133949176Y-109366947D01*
X133930500Y-109273061D01*
X133918014Y-109210289D01*
X133840559Y-109023296D01*
X133840558Y-109023295D01*
X133840555Y-109023289D01*
X133728112Y-108855007D01*
X133728109Y-108855003D01*
X133584996Y-108711890D01*
X133584992Y-108711887D01*
X133416710Y-108599444D01*
X133416700Y-108599439D01*
X133300338Y-108551240D01*
X133245935Y-108507399D01*
X133223870Y-108441104D01*
X133241149Y-108373405D01*
X133292287Y-108325795D01*
X133309474Y-108318748D01*
X133467408Y-108267433D01*
X133663760Y-108167386D01*
X133842041Y-108037857D01*
X133997857Y-107882041D01*
X134127386Y-107703760D01*
X134227432Y-107507410D01*
X134295526Y-107297838D01*
X134295526Y-107297835D01*
X134307855Y-107220000D01*
X133063012Y-107220000D01*
X133095925Y-107162993D01*
X133130000Y-107035826D01*
X133130000Y-106904174D01*
X133095925Y-106777007D01*
X133063012Y-106720000D01*
X134307855Y-106720000D01*
X134295526Y-106642164D01*
X134295526Y-106642161D01*
X134227432Y-106432589D01*
X134127386Y-106236239D01*
X133997857Y-106057958D01*
X133842041Y-105902142D01*
X133663760Y-105772613D01*
X133467410Y-105672567D01*
X133309473Y-105621251D01*
X133251798Y-105581814D01*
X133224599Y-105517455D01*
X133236513Y-105448609D01*
X133283757Y-105397133D01*
X133300339Y-105388759D01*
X133416697Y-105340562D01*
X133416697Y-105340561D01*
X133416704Y-105340559D01*
X133584993Y-105228112D01*
X133728112Y-105084993D01*
X133840559Y-104916704D01*
X133918014Y-104729711D01*
X133957500Y-104531200D01*
X133957500Y-104328800D01*
X133918014Y-104130289D01*
X133840559Y-103943296D01*
X133840558Y-103943295D01*
X133840555Y-103943289D01*
X133728112Y-103775007D01*
X133728109Y-103775003D01*
X133584996Y-103631890D01*
X133584992Y-103631887D01*
X133416710Y-103519444D01*
X133416701Y-103519439D01*
X133229711Y-103441986D01*
X133229703Y-103441984D01*
X133031204Y-103402500D01*
X133031200Y-103402500D01*
X132228800Y-103402500D01*
X132228795Y-103402500D01*
X132030296Y-103441984D01*
X132030288Y-103441986D01*
X131843298Y-103519439D01*
X131843289Y-103519444D01*
X131675007Y-103631887D01*
X131675003Y-103631890D01*
X131531890Y-103775003D01*
X131531887Y-103775007D01*
X131419444Y-103943289D01*
X131419439Y-103943298D01*
X131341986Y-104130288D01*
X131341984Y-104130296D01*
X131302500Y-104328795D01*
X131302500Y-104531204D01*
X131341984Y-104729703D01*
X131341986Y-104729711D01*
X131419439Y-104916701D01*
X131419444Y-104916710D01*
X131531887Y-105084992D01*
X131531890Y-105084996D01*
X131675003Y-105228109D01*
X131675007Y-105228112D01*
X131843289Y-105340555D01*
X131843298Y-105340560D01*
X131959661Y-105388759D01*
X132014064Y-105432600D01*
X132036129Y-105498894D01*
X132018850Y-105566593D01*
X131967713Y-105614204D01*
X131950526Y-105621251D01*
X131792589Y-105672567D01*
X131596239Y-105772613D01*
X131417958Y-105902142D01*
X131262142Y-106057958D01*
X131132613Y-106236239D01*
X131032567Y-106432589D01*
X130964473Y-106642161D01*
X130964473Y-106642164D01*
X130952145Y-106720000D01*
X130520500Y-106720000D01*
X130520500Y-101788795D01*
X131302500Y-101788795D01*
X131302500Y-101991204D01*
X131341984Y-102189703D01*
X131341986Y-102189711D01*
X131419439Y-102376701D01*
X131419444Y-102376710D01*
X131531887Y-102544992D01*
X131531890Y-102544996D01*
X131675003Y-102688109D01*
X131675007Y-102688112D01*
X131843289Y-102800555D01*
X131843295Y-102800558D01*
X131843296Y-102800559D01*
X132030289Y-102878014D01*
X132181749Y-102908141D01*
X132228795Y-102917499D01*
X132228799Y-102917500D01*
X132228800Y-102917500D01*
X133031201Y-102917500D01*
X133031202Y-102917499D01*
X133229711Y-102878014D01*
X133416704Y-102800559D01*
X133584993Y-102688112D01*
X133728112Y-102544993D01*
X133840559Y-102376704D01*
X133918014Y-102189711D01*
X133957500Y-101991200D01*
X133957500Y-101788800D01*
X133957499Y-101788795D01*
X149082500Y-101788795D01*
X149082500Y-101991204D01*
X149121984Y-102189703D01*
X149121986Y-102189711D01*
X149199439Y-102376701D01*
X149199444Y-102376710D01*
X149311887Y-102544992D01*
X149311890Y-102544996D01*
X149455003Y-102688109D01*
X149455007Y-102688112D01*
X149623289Y-102800555D01*
X149623295Y-102800558D01*
X149623296Y-102800559D01*
X149810289Y-102878014D01*
X149961749Y-102908141D01*
X150008795Y-102917499D01*
X150008799Y-102917500D01*
X150008800Y-102917500D01*
X150811201Y-102917500D01*
X150811202Y-102917499D01*
X151009711Y-102878014D01*
X151196704Y-102800559D01*
X151364993Y-102688112D01*
X151508112Y-102544993D01*
X151620559Y-102376704D01*
X151698014Y-102189711D01*
X151737500Y-101991200D01*
X151737500Y-101788800D01*
X151698014Y-101590289D01*
X151620559Y-101403296D01*
X151620558Y-101403295D01*
X151620555Y-101403289D01*
X151508112Y-101235007D01*
X151508109Y-101235003D01*
X151364996Y-101091890D01*
X151364992Y-101091887D01*
X151196710Y-100979444D01*
X151196701Y-100979439D01*
X151009711Y-100901986D01*
X151009703Y-100901984D01*
X150811204Y-100862500D01*
X150811200Y-100862500D01*
X150008800Y-100862500D01*
X150008795Y-100862500D01*
X149810296Y-100901984D01*
X149810288Y-100901986D01*
X149623298Y-100979439D01*
X149623289Y-100979444D01*
X149455007Y-101091887D01*
X149455003Y-101091890D01*
X149311890Y-101235003D01*
X149311887Y-101235007D01*
X149199444Y-101403289D01*
X149199439Y-101403298D01*
X149121986Y-101590288D01*
X149121984Y-101590296D01*
X149082500Y-101788795D01*
X133957499Y-101788795D01*
X133918014Y-101590289D01*
X133840559Y-101403296D01*
X133840558Y-101403295D01*
X133840555Y-101403289D01*
X133728112Y-101235007D01*
X133728109Y-101235003D01*
X133584996Y-101091890D01*
X133584992Y-101091887D01*
X133416710Y-100979444D01*
X133416701Y-100979439D01*
X133229711Y-100901986D01*
X133229703Y-100901984D01*
X133031204Y-100862500D01*
X133031200Y-100862500D01*
X132228800Y-100862500D01*
X132228795Y-100862500D01*
X132030296Y-100901984D01*
X132030288Y-100901986D01*
X131843298Y-100979439D01*
X131843289Y-100979444D01*
X131675007Y-101091887D01*
X131675003Y-101091890D01*
X131531890Y-101235003D01*
X131531887Y-101235007D01*
X131419444Y-101403289D01*
X131419439Y-101403298D01*
X131341986Y-101590288D01*
X131341984Y-101590296D01*
X131302500Y-101788795D01*
X130520500Y-101788795D01*
X130520500Y-99248795D01*
X131302500Y-99248795D01*
X131302500Y-99451204D01*
X131341984Y-99649703D01*
X131341986Y-99649711D01*
X131419439Y-99836701D01*
X131419444Y-99836710D01*
X131531887Y-100004992D01*
X131531890Y-100004996D01*
X131675003Y-100148109D01*
X131675007Y-100148112D01*
X131843289Y-100260555D01*
X131843295Y-100260558D01*
X131843296Y-100260559D01*
X132030289Y-100338014D01*
X132228795Y-100377499D01*
X132228799Y-100377500D01*
X132228800Y-100377500D01*
X133031201Y-100377500D01*
X133031202Y-100377499D01*
X133229711Y-100338014D01*
X133416704Y-100260559D01*
X133584993Y-100148112D01*
X133728112Y-100004993D01*
X133840559Y-99836704D01*
X133918014Y-99649711D01*
X133957500Y-99451200D01*
X133957500Y-99248800D01*
X133957499Y-99248795D01*
X149082500Y-99248795D01*
X149082500Y-99451204D01*
X149121984Y-99649703D01*
X149121986Y-99649711D01*
X149199439Y-99836701D01*
X149199444Y-99836710D01*
X149311887Y-100004992D01*
X149311890Y-100004996D01*
X149455003Y-100148109D01*
X149455007Y-100148112D01*
X149623289Y-100260555D01*
X149623295Y-100260558D01*
X149623296Y-100260559D01*
X149810289Y-100338014D01*
X150008795Y-100377499D01*
X150008799Y-100377500D01*
X150008800Y-100377500D01*
X150811201Y-100377500D01*
X150811202Y-100377499D01*
X151009711Y-100338014D01*
X151196704Y-100260559D01*
X151364993Y-100148112D01*
X151508112Y-100004993D01*
X151620559Y-99836704D01*
X151698014Y-99649711D01*
X151737500Y-99451200D01*
X151737500Y-99248800D01*
X151698014Y-99050289D01*
X151620559Y-98863296D01*
X151620558Y-98863295D01*
X151620555Y-98863289D01*
X151508112Y-98695007D01*
X151508109Y-98695003D01*
X151364996Y-98551890D01*
X151364992Y-98551887D01*
X151196710Y-98439444D01*
X151196701Y-98439439D01*
X151009711Y-98361986D01*
X151009703Y-98361984D01*
X150811204Y-98322500D01*
X150811200Y-98322500D01*
X150008800Y-98322500D01*
X150008795Y-98322500D01*
X149810296Y-98361984D01*
X149810288Y-98361986D01*
X149623298Y-98439439D01*
X149623289Y-98439444D01*
X149455007Y-98551887D01*
X149455003Y-98551890D01*
X149311890Y-98695003D01*
X149311887Y-98695007D01*
X149199444Y-98863289D01*
X149199439Y-98863298D01*
X149121986Y-99050288D01*
X149121984Y-99050296D01*
X149082500Y-99248795D01*
X133957499Y-99248795D01*
X133918014Y-99050289D01*
X133840559Y-98863296D01*
X133840558Y-98863295D01*
X133840555Y-98863289D01*
X133728112Y-98695007D01*
X133728109Y-98695003D01*
X133584996Y-98551890D01*
X133584992Y-98551887D01*
X133416710Y-98439444D01*
X133416701Y-98439439D01*
X133229711Y-98361986D01*
X133229703Y-98361984D01*
X133031204Y-98322500D01*
X133031200Y-98322500D01*
X132228800Y-98322500D01*
X132228795Y-98322500D01*
X132030296Y-98361984D01*
X132030288Y-98361986D01*
X131843298Y-98439439D01*
X131843289Y-98439444D01*
X131675007Y-98551887D01*
X131675003Y-98551890D01*
X131531890Y-98695003D01*
X131531887Y-98695007D01*
X131419444Y-98863289D01*
X131419439Y-98863298D01*
X131341986Y-99050288D01*
X131341984Y-99050296D01*
X131302500Y-99248795D01*
X130520500Y-99248795D01*
X130520500Y-94020000D01*
X130952145Y-94020000D01*
X132196988Y-94020000D01*
X132164075Y-94077007D01*
X132130000Y-94204174D01*
X132130000Y-94335826D01*
X132164075Y-94462993D01*
X132196988Y-94520000D01*
X130952145Y-94520000D01*
X130964473Y-94597835D01*
X130964473Y-94597838D01*
X131032567Y-94807410D01*
X131132613Y-95003760D01*
X131262142Y-95182041D01*
X131417958Y-95337857D01*
X131596239Y-95467386D01*
X131792592Y-95567433D01*
X131792590Y-95567433D01*
X131950525Y-95618748D01*
X132008201Y-95658185D01*
X132035400Y-95722543D01*
X132023486Y-95791390D01*
X131976242Y-95842866D01*
X131959661Y-95851240D01*
X131843299Y-95899439D01*
X131843289Y-95899444D01*
X131675007Y-96011887D01*
X131675003Y-96011890D01*
X131531890Y-96155003D01*
X131531887Y-96155007D01*
X131419444Y-96323289D01*
X131419439Y-96323298D01*
X131341986Y-96510288D01*
X131341984Y-96510296D01*
X131302500Y-96708795D01*
X131302500Y-96911204D01*
X131341984Y-97109703D01*
X131341986Y-97109711D01*
X131419439Y-97296701D01*
X131419444Y-97296710D01*
X131531887Y-97464992D01*
X131531890Y-97464996D01*
X131675003Y-97608109D01*
X131675007Y-97608112D01*
X131843289Y-97720555D01*
X131843295Y-97720558D01*
X131843296Y-97720559D01*
X132030289Y-97798014D01*
X132228795Y-97837499D01*
X132228799Y-97837500D01*
X132228800Y-97837500D01*
X133031201Y-97837500D01*
X133031202Y-97837499D01*
X133229711Y-97798014D01*
X133416704Y-97720559D01*
X133584993Y-97608112D01*
X133728112Y-97464993D01*
X133840559Y-97296704D01*
X133918014Y-97109711D01*
X133957500Y-96911200D01*
X133957500Y-96708800D01*
X133918014Y-96510289D01*
X133840559Y-96323296D01*
X133840558Y-96323295D01*
X133840555Y-96323289D01*
X133728112Y-96155007D01*
X133728109Y-96155003D01*
X133584996Y-96011890D01*
X133584992Y-96011887D01*
X133416710Y-95899444D01*
X133416700Y-95899439D01*
X133300338Y-95851240D01*
X133245935Y-95807399D01*
X133223870Y-95741104D01*
X133241149Y-95673405D01*
X133292287Y-95625795D01*
X133309474Y-95618748D01*
X133467408Y-95567433D01*
X133663760Y-95467386D01*
X133842041Y-95337857D01*
X133997857Y-95182041D01*
X134127386Y-95003760D01*
X134227432Y-94807410D01*
X134295526Y-94597838D01*
X134295526Y-94597835D01*
X134307855Y-94520000D01*
X133063012Y-94520000D01*
X133095925Y-94462993D01*
X133130000Y-94335826D01*
X133130000Y-94204174D01*
X133095925Y-94077007D01*
X133063012Y-94020000D01*
X134307855Y-94020000D01*
X148732145Y-94020000D01*
X149976988Y-94020000D01*
X149944075Y-94077007D01*
X149910000Y-94204174D01*
X149910000Y-94335826D01*
X149944075Y-94462993D01*
X149976988Y-94520000D01*
X148732145Y-94520000D01*
X148744473Y-94597835D01*
X148744473Y-94597838D01*
X148812567Y-94807410D01*
X148912613Y-95003760D01*
X149042142Y-95182041D01*
X149197958Y-95337857D01*
X149376239Y-95467386D01*
X149572592Y-95567433D01*
X149572590Y-95567433D01*
X149730525Y-95618748D01*
X149788201Y-95658185D01*
X149815400Y-95722543D01*
X149803486Y-95791390D01*
X149756242Y-95842866D01*
X149739661Y-95851240D01*
X149623299Y-95899439D01*
X149623289Y-95899444D01*
X149455007Y-96011887D01*
X149455003Y-96011890D01*
X149311890Y-96155003D01*
X149311887Y-96155007D01*
X149199444Y-96323289D01*
X149199439Y-96323298D01*
X149121986Y-96510288D01*
X149121984Y-96510296D01*
X149082500Y-96708795D01*
X149082500Y-96911204D01*
X149121984Y-97109703D01*
X149121986Y-97109711D01*
X149199439Y-97296701D01*
X149199444Y-97296710D01*
X149311887Y-97464992D01*
X149311890Y-97464996D01*
X149455003Y-97608109D01*
X149455007Y-97608112D01*
X149623289Y-97720555D01*
X149623295Y-97720558D01*
X149623296Y-97720559D01*
X149810289Y-97798014D01*
X150008795Y-97837499D01*
X150008799Y-97837500D01*
X150008800Y-97837500D01*
X150811201Y-97837500D01*
X150811202Y-97837499D01*
X151009711Y-97798014D01*
X151196704Y-97720559D01*
X151364993Y-97608112D01*
X151508112Y-97464993D01*
X151620559Y-97296704D01*
X151698014Y-97109711D01*
X151737500Y-96911200D01*
X151737500Y-96708800D01*
X151698014Y-96510289D01*
X151620559Y-96323296D01*
X151620558Y-96323295D01*
X151620555Y-96323289D01*
X151508112Y-96155007D01*
X151508109Y-96155003D01*
X151364996Y-96011890D01*
X151364992Y-96011887D01*
X151196710Y-95899444D01*
X151196700Y-95899439D01*
X151080338Y-95851240D01*
X151025935Y-95807399D01*
X151003870Y-95741104D01*
X151021149Y-95673405D01*
X151072287Y-95625795D01*
X151089474Y-95618748D01*
X151247408Y-95567433D01*
X151443760Y-95467386D01*
X151622041Y-95337857D01*
X151777857Y-95182041D01*
X151907386Y-95003760D01*
X152007432Y-94807410D01*
X152075526Y-94597838D01*
X152075526Y-94597835D01*
X152087855Y-94520000D01*
X150843012Y-94520000D01*
X150875925Y-94462993D01*
X150910000Y-94335826D01*
X150910000Y-94204174D01*
X150875925Y-94077007D01*
X150843012Y-94020000D01*
X152087855Y-94020000D01*
X152075526Y-93942164D01*
X152075526Y-93942161D01*
X152007432Y-93732589D01*
X151907386Y-93536239D01*
X151777857Y-93357958D01*
X151622041Y-93202142D01*
X151443760Y-93072613D01*
X151247410Y-92972567D01*
X151089473Y-92921251D01*
X151031798Y-92881814D01*
X151004599Y-92817455D01*
X151016513Y-92748609D01*
X151063757Y-92697133D01*
X151080339Y-92688759D01*
X151196697Y-92640562D01*
X151196697Y-92640561D01*
X151196704Y-92640559D01*
X151364993Y-92528112D01*
X151508112Y-92384993D01*
X151620559Y-92216704D01*
X151698014Y-92029711D01*
X151737500Y-91831200D01*
X151737500Y-91628800D01*
X151698014Y-91430289D01*
X151620559Y-91243296D01*
X151620558Y-91243295D01*
X151620555Y-91243289D01*
X151508112Y-91075007D01*
X151508109Y-91075003D01*
X151364996Y-90931890D01*
X151364992Y-90931887D01*
X151196710Y-90819444D01*
X151196701Y-90819439D01*
X151009711Y-90741986D01*
X151009703Y-90741984D01*
X150811204Y-90702500D01*
X150811200Y-90702500D01*
X150008800Y-90702500D01*
X150008795Y-90702500D01*
X149810296Y-90741984D01*
X149810288Y-90741986D01*
X149623298Y-90819439D01*
X149623289Y-90819444D01*
X149455007Y-90931887D01*
X149455003Y-90931890D01*
X149311890Y-91075003D01*
X149311887Y-91075007D01*
X149199444Y-91243289D01*
X149199439Y-91243298D01*
X149121986Y-91430288D01*
X149121984Y-91430296D01*
X149082500Y-91628795D01*
X149082500Y-91831204D01*
X149121984Y-92029703D01*
X149121986Y-92029711D01*
X149199439Y-92216701D01*
X149199444Y-92216710D01*
X149311887Y-92384992D01*
X149311890Y-92384996D01*
X149455003Y-92528109D01*
X149455007Y-92528112D01*
X149623289Y-92640555D01*
X149623298Y-92640560D01*
X149739661Y-92688759D01*
X149794064Y-92732600D01*
X149816129Y-92798894D01*
X149798850Y-92866593D01*
X149747713Y-92914204D01*
X149730526Y-92921251D01*
X149572589Y-92972567D01*
X149376239Y-93072613D01*
X149197958Y-93202142D01*
X149042142Y-93357958D01*
X148912613Y-93536239D01*
X148812567Y-93732589D01*
X148744473Y-93942161D01*
X148744473Y-93942164D01*
X148732145Y-94020000D01*
X134307855Y-94020000D01*
X134295526Y-93942164D01*
X134295526Y-93942161D01*
X134227432Y-93732589D01*
X134127386Y-93536239D01*
X133997857Y-93357958D01*
X133842041Y-93202142D01*
X133663760Y-93072613D01*
X133467410Y-92972567D01*
X133309473Y-92921251D01*
X133251798Y-92881814D01*
X133224599Y-92817455D01*
X133236513Y-92748609D01*
X133283757Y-92697133D01*
X133300339Y-92688759D01*
X133416697Y-92640562D01*
X133416697Y-92640561D01*
X133416704Y-92640559D01*
X133584993Y-92528112D01*
X133728112Y-92384993D01*
X133840559Y-92216704D01*
X133918014Y-92029711D01*
X133957500Y-91831200D01*
X133957500Y-91628800D01*
X133918014Y-91430289D01*
X133840559Y-91243296D01*
X133840558Y-91243295D01*
X133840555Y-91243289D01*
X133728112Y-91075007D01*
X133728109Y-91075003D01*
X133584996Y-90931890D01*
X133584992Y-90931887D01*
X133416710Y-90819444D01*
X133416701Y-90819439D01*
X133229711Y-90741986D01*
X133229703Y-90741984D01*
X133031204Y-90702500D01*
X133031200Y-90702500D01*
X132228800Y-90702500D01*
X132228795Y-90702500D01*
X132030296Y-90741984D01*
X132030288Y-90741986D01*
X131843298Y-90819439D01*
X131843289Y-90819444D01*
X131675007Y-90931887D01*
X131675003Y-90931890D01*
X131531890Y-91075003D01*
X131531887Y-91075007D01*
X131419444Y-91243289D01*
X131419439Y-91243298D01*
X131341986Y-91430288D01*
X131341984Y-91430296D01*
X131302500Y-91628795D01*
X131302500Y-91831204D01*
X131341984Y-92029703D01*
X131341986Y-92029711D01*
X131419439Y-92216701D01*
X131419444Y-92216710D01*
X131531887Y-92384992D01*
X131531890Y-92384996D01*
X131675003Y-92528109D01*
X131675007Y-92528112D01*
X131843289Y-92640555D01*
X131843298Y-92640560D01*
X131959661Y-92688759D01*
X132014064Y-92732600D01*
X132036129Y-92798894D01*
X132018850Y-92866593D01*
X131967713Y-92914204D01*
X131950526Y-92921251D01*
X131792589Y-92972567D01*
X131596239Y-93072613D01*
X131417958Y-93202142D01*
X131262142Y-93357958D01*
X131132613Y-93536239D01*
X131032567Y-93732589D01*
X130964473Y-93942161D01*
X130964473Y-93942164D01*
X130952145Y-94020000D01*
X130520500Y-94020000D01*
X130520500Y-89088795D01*
X131302500Y-89088795D01*
X131302500Y-89291204D01*
X131341984Y-89489703D01*
X131341986Y-89489711D01*
X131419439Y-89676701D01*
X131419444Y-89676710D01*
X131531887Y-89844992D01*
X131531890Y-89844996D01*
X131675003Y-89988109D01*
X131675007Y-89988112D01*
X131843289Y-90100555D01*
X131843295Y-90100558D01*
X131843296Y-90100559D01*
X132030289Y-90178014D01*
X132228795Y-90217499D01*
X132228799Y-90217500D01*
X132228800Y-90217500D01*
X133031201Y-90217500D01*
X133031202Y-90217499D01*
X133229711Y-90178014D01*
X133416704Y-90100559D01*
X133584993Y-89988112D01*
X133728112Y-89844993D01*
X133840559Y-89676704D01*
X133918014Y-89489711D01*
X133957500Y-89291200D01*
X133957500Y-89088800D01*
X133918014Y-88890289D01*
X133840559Y-88703296D01*
X133840558Y-88703295D01*
X133840555Y-88703289D01*
X133728112Y-88535007D01*
X133728109Y-88535003D01*
X133584996Y-88391890D01*
X133584992Y-88391887D01*
X133416710Y-88279444D01*
X133416701Y-88279439D01*
X133229711Y-88201986D01*
X133229703Y-88201984D01*
X133031204Y-88162500D01*
X133031200Y-88162500D01*
X132228800Y-88162500D01*
X132228795Y-88162500D01*
X132030296Y-88201984D01*
X132030288Y-88201986D01*
X131843298Y-88279439D01*
X131843289Y-88279444D01*
X131675007Y-88391887D01*
X131675003Y-88391890D01*
X131531890Y-88535003D01*
X131531887Y-88535007D01*
X131419444Y-88703289D01*
X131419439Y-88703298D01*
X131341986Y-88890288D01*
X131341984Y-88890296D01*
X131302500Y-89088795D01*
X130520500Y-89088795D01*
X130520500Y-86548795D01*
X131302500Y-86548795D01*
X131302500Y-86751204D01*
X131341984Y-86949703D01*
X131341986Y-86949711D01*
X131419439Y-87136701D01*
X131419444Y-87136710D01*
X131531887Y-87304992D01*
X131531890Y-87304996D01*
X131675003Y-87448109D01*
X131675007Y-87448112D01*
X131843289Y-87560555D01*
X131843295Y-87560558D01*
X131843296Y-87560559D01*
X132030289Y-87638014D01*
X132228795Y-87677499D01*
X132228799Y-87677500D01*
X132228800Y-87677500D01*
X133031201Y-87677500D01*
X133031202Y-87677499D01*
X133229711Y-87638014D01*
X133416704Y-87560559D01*
X133584993Y-87448112D01*
X133728112Y-87304993D01*
X133840559Y-87136704D01*
X133918014Y-86949711D01*
X133957500Y-86751200D01*
X133957500Y-86548800D01*
X133918014Y-86350289D01*
X133853694Y-86195007D01*
X133840560Y-86163298D01*
X133840555Y-86163289D01*
X133728112Y-85995007D01*
X133728109Y-85995003D01*
X133584996Y-85851890D01*
X133584992Y-85851887D01*
X133416710Y-85739444D01*
X133416701Y-85739439D01*
X133229711Y-85661986D01*
X133229703Y-85661984D01*
X133031204Y-85622500D01*
X133031200Y-85622500D01*
X132228800Y-85622500D01*
X132228795Y-85622500D01*
X132030296Y-85661984D01*
X132030288Y-85661986D01*
X131843298Y-85739439D01*
X131843289Y-85739444D01*
X131675007Y-85851887D01*
X131675003Y-85851890D01*
X131531890Y-85995003D01*
X131531887Y-85995007D01*
X131419444Y-86163289D01*
X131419439Y-86163298D01*
X131341986Y-86350288D01*
X131341984Y-86350296D01*
X131302500Y-86548795D01*
X130520500Y-86548795D01*
X130520500Y-81320000D01*
X130952145Y-81320000D01*
X132196988Y-81320000D01*
X132164075Y-81377007D01*
X132130000Y-81504174D01*
X132130000Y-81635826D01*
X132164075Y-81762993D01*
X132196988Y-81820000D01*
X130952145Y-81820000D01*
X130964473Y-81897835D01*
X130964473Y-81897838D01*
X131032567Y-82107410D01*
X131132613Y-82303760D01*
X131262142Y-82482041D01*
X131417958Y-82637857D01*
X131596239Y-82767386D01*
X131792592Y-82867433D01*
X131792590Y-82867433D01*
X131950525Y-82918748D01*
X132008201Y-82958185D01*
X132035400Y-83022543D01*
X132023486Y-83091390D01*
X131976242Y-83142866D01*
X131959661Y-83151240D01*
X131843299Y-83199439D01*
X131843289Y-83199444D01*
X131675007Y-83311887D01*
X131675003Y-83311890D01*
X131531890Y-83455003D01*
X131531887Y-83455007D01*
X131419444Y-83623289D01*
X131419439Y-83623298D01*
X131341986Y-83810288D01*
X131341984Y-83810296D01*
X131302500Y-84008795D01*
X131302500Y-84211204D01*
X131341984Y-84409703D01*
X131341986Y-84409711D01*
X131419439Y-84596701D01*
X131419444Y-84596710D01*
X131531887Y-84764992D01*
X131531890Y-84764996D01*
X131675003Y-84908109D01*
X131675007Y-84908112D01*
X131843289Y-85020555D01*
X131843295Y-85020558D01*
X131843296Y-85020559D01*
X132030289Y-85098014D01*
X132167959Y-85125398D01*
X132228795Y-85137499D01*
X132228799Y-85137500D01*
X132228800Y-85137500D01*
X133031201Y-85137500D01*
X133031202Y-85137499D01*
X133229711Y-85098014D01*
X133416704Y-85020559D01*
X133584993Y-84908112D01*
X133728112Y-84764993D01*
X133840559Y-84596704D01*
X133918014Y-84409711D01*
X133957500Y-84211200D01*
X133957500Y-84008800D01*
X133918014Y-83810289D01*
X133840559Y-83623296D01*
X133840558Y-83623295D01*
X133840555Y-83623289D01*
X133728112Y-83455007D01*
X133728109Y-83455003D01*
X133584996Y-83311890D01*
X133584992Y-83311887D01*
X133416710Y-83199444D01*
X133416700Y-83199439D01*
X133300338Y-83151240D01*
X133245935Y-83107399D01*
X133223870Y-83041104D01*
X133241149Y-82973405D01*
X133292287Y-82925795D01*
X133309474Y-82918748D01*
X133467408Y-82867433D01*
X133663760Y-82767386D01*
X133842041Y-82637857D01*
X133997857Y-82482041D01*
X134127386Y-82303760D01*
X134227432Y-82107410D01*
X134295526Y-81897838D01*
X134295526Y-81897835D01*
X134307855Y-81820000D01*
X133063012Y-81820000D01*
X133095925Y-81762993D01*
X133130000Y-81635826D01*
X133130000Y-81504174D01*
X133095925Y-81377007D01*
X133063012Y-81320000D01*
X134307855Y-81320000D01*
X134295526Y-81242164D01*
X134295526Y-81242161D01*
X134227432Y-81032589D01*
X134127386Y-80836239D01*
X133997857Y-80657958D01*
X133842041Y-80502142D01*
X133663760Y-80372613D01*
X133467410Y-80272567D01*
X133309473Y-80221251D01*
X133251798Y-80181814D01*
X133224599Y-80117455D01*
X133236513Y-80048609D01*
X133283757Y-79997133D01*
X133300339Y-79988759D01*
X133416697Y-79940562D01*
X133416697Y-79940561D01*
X133416704Y-79940559D01*
X133584993Y-79828112D01*
X133728112Y-79684993D01*
X133840559Y-79516704D01*
X133918014Y-79329711D01*
X133957500Y-79131200D01*
X133957500Y-78928800D01*
X133918014Y-78730289D01*
X133840559Y-78543296D01*
X133840558Y-78543295D01*
X133840555Y-78543289D01*
X133728112Y-78375007D01*
X133728109Y-78375003D01*
X133584996Y-78231890D01*
X133584992Y-78231887D01*
X133416710Y-78119444D01*
X133416701Y-78119439D01*
X133229711Y-78041986D01*
X133229703Y-78041984D01*
X133031204Y-78002500D01*
X133031200Y-78002500D01*
X132228800Y-78002500D01*
X132228795Y-78002500D01*
X132030296Y-78041984D01*
X132030288Y-78041986D01*
X131843298Y-78119439D01*
X131843289Y-78119444D01*
X131675007Y-78231887D01*
X131675003Y-78231890D01*
X131531890Y-78375003D01*
X131531887Y-78375007D01*
X131419444Y-78543289D01*
X131419439Y-78543298D01*
X131341986Y-78730288D01*
X131341984Y-78730296D01*
X131302500Y-78928795D01*
X131302500Y-79131204D01*
X131341984Y-79329703D01*
X131341986Y-79329711D01*
X131419439Y-79516701D01*
X131419444Y-79516710D01*
X131531887Y-79684992D01*
X131531890Y-79684996D01*
X131675003Y-79828109D01*
X131675007Y-79828112D01*
X131843289Y-79940555D01*
X131843298Y-79940560D01*
X131959661Y-79988759D01*
X132014064Y-80032600D01*
X132036129Y-80098894D01*
X132018850Y-80166593D01*
X131967713Y-80214204D01*
X131950526Y-80221251D01*
X131792589Y-80272567D01*
X131596239Y-80372613D01*
X131417958Y-80502142D01*
X131262142Y-80657958D01*
X131132613Y-80836239D01*
X131032567Y-81032589D01*
X130964473Y-81242161D01*
X130964473Y-81242164D01*
X130952145Y-81320000D01*
X130520500Y-81320000D01*
X130520500Y-76388795D01*
X131302500Y-76388795D01*
X131302500Y-76591204D01*
X131341984Y-76789703D01*
X131341986Y-76789711D01*
X131419439Y-76976701D01*
X131419444Y-76976710D01*
X131531887Y-77144992D01*
X131531890Y-77144996D01*
X131675003Y-77288109D01*
X131675007Y-77288112D01*
X131843289Y-77400555D01*
X131843295Y-77400558D01*
X131843296Y-77400559D01*
X132030289Y-77478014D01*
X132228795Y-77517499D01*
X132228799Y-77517500D01*
X132228800Y-77517500D01*
X133031201Y-77517500D01*
X133031202Y-77517499D01*
X133229711Y-77478014D01*
X133416704Y-77400559D01*
X133584993Y-77288112D01*
X133728112Y-77144993D01*
X133840559Y-76976704D01*
X133918014Y-76789711D01*
X133957500Y-76591200D01*
X133957500Y-76388800D01*
X133957499Y-76388795D01*
X149082500Y-76388795D01*
X149082500Y-76591204D01*
X149121984Y-76789703D01*
X149121986Y-76789711D01*
X149199439Y-76976701D01*
X149199444Y-76976710D01*
X149311887Y-77144992D01*
X149311890Y-77144996D01*
X149455003Y-77288109D01*
X149455007Y-77288112D01*
X149623289Y-77400555D01*
X149623295Y-77400558D01*
X149623296Y-77400559D01*
X149810289Y-77478014D01*
X150008795Y-77517499D01*
X150008799Y-77517500D01*
X150008800Y-77517500D01*
X150811201Y-77517500D01*
X150811202Y-77517499D01*
X151009711Y-77478014D01*
X151196704Y-77400559D01*
X151364993Y-77288112D01*
X151508112Y-77144993D01*
X151620559Y-76976704D01*
X151698014Y-76789711D01*
X151737500Y-76591200D01*
X151737500Y-76388800D01*
X151698014Y-76190289D01*
X151620559Y-76003296D01*
X151620558Y-76003295D01*
X151620555Y-76003289D01*
X151508112Y-75835007D01*
X151508109Y-75835003D01*
X151364996Y-75691890D01*
X151364992Y-75691887D01*
X151196710Y-75579444D01*
X151196701Y-75579439D01*
X151009711Y-75501986D01*
X151009703Y-75501984D01*
X150811204Y-75462500D01*
X150811200Y-75462500D01*
X150008800Y-75462500D01*
X150008795Y-75462500D01*
X149810296Y-75501984D01*
X149810288Y-75501986D01*
X149623298Y-75579439D01*
X149623289Y-75579444D01*
X149455007Y-75691887D01*
X149455003Y-75691890D01*
X149311890Y-75835003D01*
X149311887Y-75835007D01*
X149199444Y-76003289D01*
X149199439Y-76003298D01*
X149121986Y-76190288D01*
X149121984Y-76190296D01*
X149082500Y-76388795D01*
X133957499Y-76388795D01*
X133918014Y-76190289D01*
X133840559Y-76003296D01*
X133840558Y-76003295D01*
X133840555Y-76003289D01*
X133728112Y-75835007D01*
X133728109Y-75835003D01*
X133584996Y-75691890D01*
X133584992Y-75691887D01*
X133416710Y-75579444D01*
X133416701Y-75579439D01*
X133229711Y-75501986D01*
X133229703Y-75501984D01*
X133031204Y-75462500D01*
X133031200Y-75462500D01*
X132228800Y-75462500D01*
X132228795Y-75462500D01*
X132030296Y-75501984D01*
X132030288Y-75501986D01*
X131843298Y-75579439D01*
X131843289Y-75579444D01*
X131675007Y-75691887D01*
X131675003Y-75691890D01*
X131531890Y-75835003D01*
X131531887Y-75835007D01*
X131419444Y-76003289D01*
X131419439Y-76003298D01*
X131341986Y-76190288D01*
X131341984Y-76190296D01*
X131302500Y-76388795D01*
X130520500Y-76388795D01*
X130520500Y-73744500D01*
X130540185Y-73677461D01*
X130592989Y-73631706D01*
X130644500Y-73620500D01*
X189395500Y-73620500D01*
X189462539Y-73640185D01*
G37*
%TD.AperFunction*%
%TD*%
M02*
