M48
; DRILL file KiCad 10.0.6 date 2026-09-18T22:19:54
; FORMAT={-:-/ absolute / metric / decimal}
; #@! TF.CreationDate,2026-09-18T22:19:54-03:00
; #@! TF.GenerationSoftware,Kicad,Pcbnew,10.0.6
; #@! TF.FileFunction,Plated,1,2,PTH
FMAT,2
METRIC
; #@! TA.AperFunction,Plated,PTH,ViaDrill
T1C0.300
; #@! TA.AperFunction,Plated,PTH,ViaDrill
T2C0.400
; #@! TA.AperFunction,Plated,PTH,ComponentDrill
T3C0.800
; #@! TA.AperFunction,Plated,PTH,ComponentDrill
T4C0.900
; #@! TA.AperFunction,Plated,PTH,ComponentDrill
T5C1.000
; #@! TA.AperFunction,Plated,PTH,ComponentDrill
T6C1.100
%
G90
G05
T1
X152.232Y-94.375
X152.232Y-107.269
T2
X130.73Y-94.65
X130.73Y-107.269
X130.73Y-119.439
X131.2Y-74.2
X131.6Y-130.0
X155.0Y-123.5
X158.33Y-104.6
X160.546Y-95.74
X161.327Y-103.16
X161.6Y-95.7
X162.1Y-102.4
X162.9Y-97.9
X170.0Y-108.0
X179.5Y-120.0
X183.254Y-106.782
X183.254Y-118.565
X184.0Y-99.33
X185.5Y-113.0
X189.0Y-74.2
X189.0Y-130.0
T3
X168.02Y-117.62
X168.02Y-127.12
X176.52Y-105.62
X178.18Y-117.62
X178.18Y-127.12
X179.02Y-105.62
X185.5Y-103.8
X188.0Y-103.8
T4
X157.02Y-117.62
X157.02Y-127.12
X159.56Y-117.62
X159.56Y-127.12
T5
X132.63Y-76.49
X132.63Y-79.03
X132.63Y-81.57
X132.63Y-84.11
X132.63Y-86.65
X132.63Y-89.19
X132.63Y-91.73
X132.63Y-94.27
X132.63Y-96.81
X132.63Y-99.35
X132.63Y-101.89
X132.63Y-104.43
X132.63Y-106.97
X132.63Y-109.51
X132.63Y-112.05
X132.63Y-114.59
X132.63Y-117.13
X132.63Y-119.67
X132.63Y-122.21
X132.63Y-124.75
X150.41Y-76.49
X150.41Y-79.03
X150.41Y-81.57
X150.41Y-84.11
X150.41Y-86.65
X150.41Y-89.19
X150.41Y-91.73
X150.41Y-94.27
X150.41Y-96.81
X150.41Y-99.35
X150.41Y-101.89
X150.41Y-104.43
X150.41Y-106.97
X150.41Y-109.51
X150.41Y-112.05
X150.41Y-114.59
X150.41Y-117.13
X150.41Y-119.67
X150.41Y-122.21
X150.41Y-124.75
X158.32Y-79.23
X158.32Y-81.77
X158.32Y-84.31
X158.32Y-86.85
X158.32Y-89.39
X158.32Y-91.93
X158.32Y-94.47
X158.32Y-97.01
X172.02Y-121.62
X177.02Y-121.62
X182.02Y-121.62
X183.72Y-79.23
X183.72Y-81.77
X183.72Y-84.31
X183.72Y-86.85
X183.72Y-89.39
X183.72Y-91.93
X183.72Y-94.47
X183.72Y-97.01
X187.02Y-121.62
X187.02Y-125.85
X187.02Y-128.39
T6
X140.0Y-129.4
X150.16Y-129.4
M30
